<svg id="Layer_1" data-name="Layer 1" xmlns="http://www.w3.org/2000/svg" viewBox="0 0 1254.62 1034.37"><defs><style>.cls-1{fill:#cdb6ad;}.cls-2{fill:#2d2010;opacity:0.3;}.cls-3{fill:#ceab76;}.cls-4{fill:#fedfb3;}.cls-5{fill:#dfc7a3;}.cls-6{fill:#9f6656;}.cls-7{fill:#72301a;}</style></defs><path class="cls-1" d="M673.94,952.69a25.42,25.42,0,0,1-6.9,13.53c-7.24,7.23-18.1,8.74-19.07,6.89s7.15-5.21,13.66-16.48a48.54,48.54,0,0,0,4.21-9.41c3.08-9.75,1.32-16,2.55-16.23C670,930.68,676,941.31,673.94,952.69Z"/><path class="cls-2" d="M1206.59,301.29c-1.25-1.32-2-2-2-2S797.31,17,636.12,30.06,25.71,474.87,25.71,474.87c-14.89,12.64-19.6,25-20.08,35A154,154,0,0,0,0,551.36c-.24,52.1,25.31,90,25.31,90,47.92,58.09,566.38,367.43,621.57,387.76a80.25,80.25,0,0,0,32,5.17c0-.26.05-.52.08-.79,36.25-1.85,57.93-29.85,57.93-29.85s446.68-455,480.7-502.49C1292.59,396.53,1220,314.87,1206.59,301.29Z"/><path class="cls-3" d="M17.07,458.43S478.5,13.51,639.69.44s568.43,269.23,568.43,269.23,95.28,87.14,13.07,201.86C1187.17,519,740.49,974,740.49,974s-34.85,45-90,24.69S76.81,669,28.89,611C28.89,611-19.13,539.79,17.07,458.43Z"/><path class="cls-4" d="M29.28,445.25S478.5,13.51,639.69.44s568.43,269.23,568.43,269.23,43.57,37.76,0,94.4c-35.62,46.3-480.7,502.48-480.7,502.48s-34.85,45-90,24.69S63.74,561.57,15.81,503.48C15.81,503.48-6,475.17,29.28,445.25Z"/><path class="cls-3" d="M586,789.65c-5.21-3.21-27.41-14.79-6.95-39.89,15.57-19.08,59.45-61,59.45-61s20.65-13.51,41.69,0c16.8,10.8,76,40.68,76,40.68s20.56,5.87-11.91,44.25c-25.48,30.11-40.92,44.78-40.92,44.78s-20.07,20.84-57.13,4.63S586,789.65,586,789.65Z"/><path class="cls-5" d="M581.22,786.59c17.08-20,57.31-58.44,57.31-58.44s20.65-13.51,41.69,0c13.61,8.74,55,30,70.27,37.77,23.4-31.4,5.72-36.47,5.72-36.47s-59.19-29.88-76-40.68c-21-13.51-41.69,0-41.69,0s-43.88,41.91-59.45,61C562.8,769.74,573.53,781.14,581.22,786.59Z"/><path class="cls-3" d="M413.1,687.48c-4.8-3.06-25.27-14.14-5.89-37.18,14.74-17.52,56.12-55.85,56.12-55.85s19.39-12.27,38.75.59c15.47,10.27,70.06,38.88,70.06,38.88s19,5.75-11.69,41c-24.11,27.63-38.67,41-38.67,41s-18.95,19.1-53.17,3.5S413.1,687.48,413.1,687.48Z"/><path class="cls-5" d="M408.68,684.56c16.16-18.37,54.1-53.51,54.1-53.51s19.39-12.27,38.76.59c12.53,8.32,50.73,28.67,64.78,36.1,22.2-28.85,5.84-33.82,5.84-33.82s-54.6-28.61-70.07-38.88c-19.36-12.86-38.75-.59-38.75-.59S422,632.78,407.21,650.3C391.8,668.64,401.61,679.39,408.68,684.56Z"/><path class="cls-3" d="M255,585.76c-4.55-3-24-14-5-35.83,14.47-16.58,54.91-52.67,54.91-52.67s18.84-11.45,37.22,1.25c14.69,10.14,66.64,38.59,66.64,38.59s18.18,5.87-12,39.16C373.1,602.38,358.87,615,358.87,615s-18.54,18-51.15,2.42S255,585.76,255,585.76Z"/><path class="cls-5" d="M250.76,582.88c15.85-17.37,52.93-50.47,52.93-50.47s18.84-11.44,37.22,1.25c11.89,8.22,48.24,28.45,61.61,35.84,21.84-27.33,6.2-32.4,6.2-32.4s-52-28.45-66.63-38.59c-18.38-12.7-37.22-1.25-37.22-1.25S264.43,533.35,250,549.93C234.82,567.28,244.06,577.78,250.76,582.88Z"/><path class="cls-3" d="M94.72,493.62c-4.37-3-23.09-14-4.33-34.81,14.27-15.86,54-50.27,54-50.27s18.43-10.82,36.07,1.75c14.08,10,64,38.38,64,38.38s17.55,5.94-12.16,37.78c-23.3,25-37.28,37-37.28,37s-18.24,17.19-49.62,1.61S94.72,493.62,94.72,493.62Z"/><path class="cls-5" d="M90.7,490.76c15.61-16.6,52-48.16,52-48.16s18.43-10.82,36.06,1.75c11.42,8.14,46.36,28.28,59.22,35.63,21.55-26.18,6.47-31.31,6.47-31.31s-50-28.34-64-38.38c-17.64-12.57-36.07-1.75-36.07-1.75s-39.73,34.41-54,50.27C75.47,475.41,84.28,485.72,90.7,490.76Z"/><path class="cls-3" d="M741.58,640.82c-5.21-3.22-27.41-14.8-7-39.89,15.57-19.09,59.45-61,59.45-61s20.65-13.51,41.69,0c16.8,10.79,76,40.67,76,40.67s20.56,5.88-11.91,44.26c-25.48,30.11-40.92,44.78-40.92,44.78s-20.07,20.84-57.13,4.63S741.58,640.82,741.58,640.82Z"/><path class="cls-5" d="M736.78,637.76c17.07-20,57.31-58.44,57.31-58.44s20.65-13.52,41.69,0c13.61,8.74,55,30,70.27,37.77,23.39-31.4,5.72-36.48,5.72-36.48s-59.19-29.88-76-40.67c-21-13.51-41.69,0-41.69,0s-43.88,41.9-59.45,61C718.36,620.9,729.09,632.31,736.78,637.76Z"/><path class="cls-3" d="M568.66,538.65c-4.8-3.07-25.27-14.14-5.9-37.18,14.74-17.53,56.13-55.86,56.13-55.86s19.39-12.26,38.75.59c15.47,10.27,70.06,38.89,70.06,38.89s19,5.75-11.69,41c-24.11,27.64-38.67,41.05-38.67,41.05s-19,19.09-53.18,3.5S568.66,538.65,568.66,538.65Z"/><path class="cls-5" d="M564.24,535.73c16.15-18.37,54.1-53.52,54.1-53.52s19.39-12.26,38.75.59c12.54,8.32,50.74,28.68,64.79,36.11,22.19-28.85,5.83-33.82,5.83-33.82s-54.59-28.62-70.06-38.89c-19.36-12.85-38.75-.59-38.75-.59s-41.39,38.33-56.13,55.86C547.35,519.8,557.17,530.56,564.24,535.73Z"/><path class="cls-3" d="M410.26,437.5c-4.48-3-23.63-13.8-4.92-35.23,14.23-16.3,54-51.8,54-51.8s18.53-11.26,36.61,1.23c14.44,10,65.53,37.95,65.53,37.95s17.89,5.77-11.76,38.51c-23.26,25.69-37.25,38.12-37.25,38.12s-18.25,17.71-50.31,2.38S410.26,437.5,410.26,437.5Z"/><path class="cls-5" d="M406.14,434.67C421.72,417.59,458.19,385,458.19,385s18.53-11.25,36.61,1.23c11.69,8.08,47.44,28,60.59,35.24,21.47-26.87,6.1-31.86,6.1-31.86s-51.09-28-65.53-37.95c-18.07-12.49-36.61-1.23-36.61-1.23s-39.77,35.5-54,51.8C390.46,419.33,399.55,429.66,406.14,434.67Z"/><path class="cls-3" d="M249,347.67c-4-2.74-21.11-12.75-4-31.81,13-14.51,49.35-46,49.35-46s16.85-9.9,33,1.6c12.88,9.18,58.54,35.08,58.54,35.08s16,5.44-11.11,34.54C353.47,364,340.7,375,340.7,375s-16.68,15.72-45.36,1.47S249,347.67,249,347.67Z"/><path class="cls-5" d="M245.31,345.06c14.27-15.18,47.57-44,47.57-44s16.85-9.89,33,1.6c10.43,7.44,42.38,25.84,54.13,32.57,19.71-23.93,5.92-28.63,5.92-28.63s-45.66-25.9-58.54-35.08c-16.12-11.49-33-1.6-33-1.6s-36.31,31.45-49.36,46C231.39,331,239.44,340.46,245.31,345.06Z"/><path class="cls-3" d="M889.73,514.84c-5.21-3.22-27.4-14.8-6.94-39.89,15.56-19.09,59.44-61,59.44-61s20.66-13.51,41.69,0c16.81,10.79,76,40.67,76,40.67s20.57,5.87-11.9,44.25c-25.48,30.11-40.92,44.78-40.92,44.78S987,564.51,950,548.29,889.73,514.84,889.73,514.84Z"/><path class="cls-5" d="M884.93,511.77c17.08-20,57.32-58.44,57.32-58.44s20.65-13.51,41.69,0c13.61,8.74,55,30,70.27,37.77,23.39-31.39,5.71-36.47,5.71-36.47s-59.18-29.88-76-40.67c-21-13.51-41.69,0-41.69,0s-43.89,41.9-59.45,61C866.51,494.92,877.25,506.32,884.93,511.77Z"/><path class="cls-3" d="M716.81,412.66c-4.79-3.06-25.26-14.14-5.89-37.17C725.66,358,767,319.63,767,319.63s19.39-12.27,38.76.59c15.47,10.27,70.06,38.88,70.06,38.88s19,5.75-11.69,41c-24.11,27.63-38.67,41.05-38.67,41.05s-19,19.09-53.18,3.49S716.81,412.66,716.81,412.66Z"/><path class="cls-5" d="M712.4,409.75c16.15-18.38,54.1-53.52,54.1-53.52s19.39-12.27,38.75.59c12.53,8.32,50.73,28.67,64.79,36.1,22.19-28.85,5.83-33.82,5.83-33.82s-54.59-28.61-70.06-38.88c-19.37-12.86-38.76-.59-38.76-.59S725.67,358,710.93,375.49C695.51,393.82,705.33,404.57,712.4,409.75Z"/><path class="cls-3" d="M558.11,312.23c-4.38-2.91-23.14-13.51-4.82-34.5,13.94-16,52.88-50.72,52.88-50.72s18.15-11,35.85,1.2c14.14,9.77,64.16,37.17,64.16,37.17s17.52,5.65-11.51,37.71c-22.78,25.15-36.48,37.32-36.48,37.32s-17.86,17.34-49.26,2.33S558.11,312.23,558.11,312.23Z"/><path class="cls-5" d="M554.07,309.46c15.27-16.72,51-48.6,51-48.6s18.15-11,35.85,1.21c11.45,7.91,46.45,27.39,59.33,34.5,21-26.31,6-31.19,6-31.19s-50-27.4-64.16-37.17c-17.7-12.22-35.85-1.2-35.85-1.2s-38.94,34.76-52.88,50.72C538.72,294.44,547.62,304.55,554.07,309.46Z"/><path class="cls-3" d="M397.26,221.44c-4-2.76-21.28-12.85-4-32.06C406.41,174.76,443,143.06,443,143.06s17-10,33.23,1.61c13,9.25,59,35.36,59,35.36s16.17,5.48-11.2,34.81c-21.47,23-34.35,34.12-34.35,34.12S472.88,264.8,444,250.44,397.26,221.44,397.26,221.44Z"/><path class="cls-5" d="M393.55,218.81c14.38-15.3,47.94-44.37,47.94-44.37s17-10,33.24,1.61c10.51,7.5,42.7,26,54.55,32.83,19.86-24.12,6-28.85,6-28.85s-46-26.11-59-35.36C460,133.09,443,143.06,443,143.06s-36.61,31.7-49.75,46.32C379.52,204.67,387.63,214.17,393.55,218.81Z"/><path class="cls-3" d="M1011.5,366c-5.21-3.21-27.4-14.79-6.94-39.89,15.56-19.09,59.44-61,59.44-61s20.65-13.51,41.69,0c16.81,10.8,76,40.68,76,40.68s20.57,5.87-11.91,44.25c-25.47,30.11-40.92,44.78-40.92,44.78s-20.07,20.84-57.13,4.63S1011.5,366,1011.5,366Z"/><path class="cls-5" d="M1006.7,362.94c17.08-20,57.31-58.44,57.31-58.44s20.66-13.51,41.69,0c13.62,8.74,55,30,70.27,37.77,23.4-31.4,5.72-36.47,5.72-36.47s-59.18-29.88-76-40.68c-21-13.51-41.69,0-41.69,0s-43.88,41.9-59.45,61C988.28,346.09,999,357.49,1006.7,362.94Z"/><path class="cls-3" d="M837.29,267c-4.38-2.8-23.08-12.92-5.38-34,13.46-16,51.27-51,51.27-51s17.71-11.21,35.4.54c14.13,9.38,64,35.52,64,35.52s17.39,5.25-10.69,37.42c-22,25.24-35.32,37.5-35.32,37.5s-17.32,17.44-48.58,3.2S837.29,267,837.29,267Z"/><path class="cls-5" d="M833.26,264.33c14.75-16.78,49.42-48.89,49.42-48.89s17.71-11.2,35.41.54c11.44,7.6,46.34,26.19,59.18,33,20.27-26.35,5.33-30.89,5.33-30.89s-49.88-26.14-64-35.52c-17.69-11.75-35.4-.54-35.4-.54s-37.81,35-51.27,51C817.83,249.78,826.8,259.6,833.26,264.33Z"/><path class="cls-3" d="M684.69,166.88c-3.93-2.62-20.75-12.12-4.32-30.94,12.49-14.31,47.41-45.48,47.41-45.48s16.27-9.88,32.14,1.08c12.68,8.76,57.53,33.33,57.53,33.33s15.71,5.06-10.32,33.81c-20.42,22.55-32.71,33.46-32.71,33.46s-16,15.55-44.17,2.09S684.69,166.88,684.69,166.88Z"/><path class="cls-5" d="M681.07,164.39c13.68-15,45.7-43.57,45.7-43.57s16.27-9.88,32.14,1.08c10.27,7.09,41.65,24.56,53.2,30.94,18.85-23.6,5.35-28,5.35-28s-44.85-24.57-57.53-33.33c-15.87-11-32.14-1.08-32.14-1.08s-34.92,31.17-47.41,45.48C667.31,150.92,675.28,160,681.07,164.39Z"/><path class="cls-3" d="M548.75,97.83c-3.61-2.47-19.06-11.51-3.58-28.71C556.94,56,589.71,27.64,589.71,27.64s15.21-8.93,29.76,1.44c11.63,8.29,52.84,31.67,52.84,31.67s14.48,4.9-10,31.17c-19.23,20.62-30.76,30.55-30.76,30.55s-15,14.19-40.95,1.33S548.75,97.83,548.75,97.83Z"/><path class="cls-5" d="M545.43,95.48c12.88-13.7,42.93-39.73,42.93-39.73s15.21-8.93,29.76,1.44c9.42,6.71,38.24,23.33,48.85,29.4,17.79-21.61,5.35-25.84,5.35-25.84S631.1,37.37,619.48,29.08c-14.55-10.37-29.76-1.44-29.76-1.44S557,56,545.17,69.12C532.86,82.81,540.12,91.32,545.43,95.48Z"/><path class="cls-5" d="M685.6,894.55c-13.41,3.75-29.67,4.31-48.23-2.53C582.19,871.69,63.73,562.36,15.81,504.27a38,38,0,0,1-6.62-23.19c-20,71.83,19.69,130.66,19.69,130.66C76.8,669.83,595.26,979.16,650.44,999.49a80.32,80.32,0,0,0,32,5.17C686.6,967.53,687.08,929.79,685.6,894.55Z"/><path class="cls-6" d="M971.6,463.26c13.94-68.05,59.38-80.15,12.94-144.19,4.65-40,0-60-41.79-80.06-27.87-16-55.73,0-83.6-20-9.29-8-9.29-32-13.93-40-41.8-48-32.51-36-97.53-52-32.51-8-88.24-36-120.75-36-27.86,0-41.8,20-65,24-13.94,4-46.44,8-65,12-74.31,20-70.34-8.39-88.92,55.66-13.93,60,5.64,53.74-50.1,73.76-78.95,24-65.33,22.69-83.9,90.74-16.91,61.91-17,95.13-9.61,114.85,10.4,27.84,25.94,26.05,49.32,55.34,45.35,56.83,11.83,94.8,49.74,175.11,30.94,65.52,62.75,60.39,71.28,112.89,8.6,53-18.64,89.65,3.07,110.3,13.51,12.86,40.92,14.66,53.61,3.07,18.93-17.29-7-53.31,9.19-114.9C508.66,773,519.5,765.27,523,763.06c21-13.43,53.56-5.13,72.6,11.59,22,19.28,24.24,48.23,26,76.59C626,920,598,950.88,616,971.33c14.26,16.19,50.45,17.95,65.37,2.46,19.91-20.66-10.31-59.33-5.77-147.78,1.22-23.83,4.85-49,23.24-61.58,2.82-1.92,13.55-9.24,25.42-6.64,28.35,6.23,38.3,63.57,40.75,77.73,5.89,33.94,0,49.08,11.34,57.08,12.36,8.76,38.43,4.16,49-10.72,20.15-28.31-39.25-72.74-21.22-123.88,7-20,23.89-35.75,35-46.16a173.92,173.92,0,0,1,43.43-29.71,100.3,100.3,0,0,1,38.24-59.53,113.51,113.51,0,0,0,42-34.35,106.94,106.94,0,0,0,15.07-27.84C991.8,520.38,962.32,503.28,971.6,463.26Z"/><path class="cls-7" d="M884.85,660.26c-15.39,10.61-16,22.07-20,34.42a106.13,106.13,0,0,0,16.76-11.52c10.45-11.25,11.71-21.85,14.93-31.82A127.54,127.54,0,0,0,884.85,660.26Z"/><path class="cls-7" d="M329.85,287.43c40.11-14.4,41.22-15.19,43.88-36.87-4.46,1.7-9.69,3.58-15.84,5.79-55.63,16.93-65.3,21.27-72.65,46.17C295.41,298.09,309.57,293.6,329.85,287.43Z"/><path class="cls-7" d="M971.6,463.26c13.94-68.05,59.38-80.15,12.94-144.19,4.65-40,0-60-41.79-80.06-27.87-16-55.73,0-83.6-20-9.29-8-9.29-32-13.93-40-41.8-48-32.51-36-97.53-52-32.51-8-88.24-36-120.75-36-27.86,0-41.8,20-65,24-13.94,4-46.44,8-65,12-67.69,18.24-70.43-3.7-84.42,40.66,11.16-1.36,28.1-2,56.37-9.58,18.58-4,51.09-8,65-12,23.22-4,37.16-24,65-24,32.51,0,88.24,28,120.75,36,65,16,55.73,4,97.53,52,4.64,8,4.64,32,13.93,40,27.86,20,55.73,4,83.59,20,41.8,20,46.44,40,41.8,80.05,46.44,64.05,1,76.15-12.94,144.19-9.28,40,20.19,57.13,6.27,97.16-1,3.25-2.12,6.21-3.26,8.93,13.23-7.48,23.8-16.31,31.3-40C991.8,520.39,962.32,503.28,971.6,463.26Z"/><path class="cls-1" d="M490.8,163.52c-5.27,1.35-23.15,6.19-37.34,22.64-19.19,22.26-21.23,53.72-15.74,56.1,5.06,2.19,13.44-21.58,44.36-42.61a141,141,0,0,1,26.11-14.07c27.28-10.86,45.53-7.15,46-10.72C554.71,170.08,523,155.27,490.8,163.52Z"/><path class="cls-1" d="M313,359c-3.45,9-14.75,39.93-5.43,77.37,12.61,50.66,56.15,85.87,65.23,80.34,8.36-5.08-17.52-41.62-16.34-108a249.41,249.41,0,0,1,6.37-52.29c12.2-50.7,36.3-73.38,31.55-77.65C388,273,334.05,303.87,313,359Z"/><path class="cls-1" d="M442.69,894a25.45,25.45,0,0,0,6.91,13.54c7.23,7.22,18.1,8.73,19.06,6.89S461.52,909.21,455,898a49.54,49.54,0,0,1-4.22-9.42c-3.07-9.74-1.32-16-2.55-16.22C446.6,872,440.65,882.62,442.69,894Z"/><path class="cls-1" d="M782.71,878.2a18,18,0,0,0,7.44,7.83c6.38,3.46,14.09,2.3,14.37.85s-5.92-2.11-12.63-8.47a35,35,0,0,1-4.77-5.57c-4.06-6-4.12-10.62-5-10.53C780.93,862.42,779,870.86,782.71,878.2Z"/></svg>