<svg xmlns="http://www.w3.org/2000/svg" xmlns:xlink="http://www.w3.org/1999/xlink" width="226.84mm" height="166.41mm" viewBox="0 0 643 471.7"><defs><style>.cls-1{isolation:isolate;}.cls-2{fill:#f29220;}.cls-3{fill:#1d1d1b;}.cls-4{fill:#dbdada;opacity:0.79;}.cls-14,.cls-4,.cls-7{mix-blend-mode:multiply;}.cls-5{fill:#d4a258;}.cls-6{fill:#e0b070;}.cls-7{fill:#cbbba0;opacity:0.63;}.cls-11,.cls-8{fill:#fff;}.cls-8{opacity:0.58;}.cls-9{fill:#c7ced3;}.cls-10{fill:#d6dee5;}.cls-12{fill:#dec1b6;}.cls-13{fill:#f8b232;}.cls-14{fill:#ca9e68;opacity:0.37;}.cls-15{fill:#2d170e;}.cls-16{fill:#46230f;}.cls-17{fill:#77422b;}.cls-18{fill:#72311a;}.cls-19{fill:url(#radial-gradient);}.cls-20{fill:url(#linear-gradient);}.cls-21{fill:url(#radial-gradient-2);}.cls-22{fill:url(#radial-gradient-3);}.cls-23{fill:url(#radial-gradient-4);}.cls-24{fill:url(#radial-gradient-5);}.cls-25{fill:url(#radial-gradient-6);}.cls-26{fill:url(#radial-gradient-7);}.cls-27{fill:url(#radial-gradient-8);}.cls-28{fill:url(#radial-gradient-9);}.cls-29{fill:url(#radial-gradient-10);}.cls-30{fill:url(#radial-gradient-11);}.cls-31{fill:url(#radial-gradient-12);}.cls-32{fill:url(#radial-gradient-13);}.cls-33{fill:url(#radial-gradient-14);}.cls-34{fill:url(#radial-gradient-15);}.cls-35{fill:url(#radial-gradient-16);}.cls-36{fill:url(#radial-gradient-17);}.cls-37{fill:url(#radial-gradient-18);}.cls-38{fill:url(#radial-gradient-19);}.cls-39{fill:url(#radial-gradient-20);}.cls-40{fill:url(#radial-gradient-21);}.cls-41{fill:url(#radial-gradient-22);}.cls-42{fill:url(#radial-gradient-23);}.cls-43{fill:url(#radial-gradient-24);}.cls-44{fill:url(#radial-gradient-25);}.cls-45{fill:url(#radial-gradient-26);}.cls-46{fill:url(#radial-gradient-27);}.cls-47{fill:url(#radial-gradient-28);}.cls-48{fill:url(#radial-gradient-29);}.cls-49{fill:url(#radial-gradient-30);}.cls-50{fill:url(#radial-gradient-31);}.cls-51{fill:url(#radial-gradient-32);}.cls-52{fill:url(#radial-gradient-33);}.cls-53{fill:url(#radial-gradient-34);}.cls-54{fill:url(#radial-gradient-35);}.cls-55{fill:url(#radial-gradient-36);}.cls-56{fill:#fedfb3;}.cls-57{fill:#fdd08c;}.cls-58,.cls-61{fill:#2d2010;}.cls-58{opacity:0.3;}.cls-59{fill:#ceab76;}.cls-60{fill:#dfc7a3;}.cls-61{opacity:0.4;}.cls-62{fill:#603b17;}.cls-63{fill:#482d14;}.cls-64{fill:#f6cde1;}</style><radialGradient id="radial-gradient" cx="270.79" cy="379.56" r="79.02" gradientTransform="translate(-5.43 1.6)" gradientUnits="userSpaceOnUse"><stop offset="0" stop-color="#fff"/><stop offset="0" stop-color="#d0c5a3"/><stop offset="0.57" stop-color="#cec3a1"/><stop offset="0.72" stop-color="#cbbf9d"/><stop offset="0.82" stop-color="#c7b998"/><stop offset="0.97" stop-color="#baa989"/><stop offset="1" stop-color="#b6a485"/></radialGradient><linearGradient id="linear-gradient" x1="243.97" y1="145.67" x2="329.49" y2="145.67" gradientTransform="translate(53.32 -36.56) rotate(8.43)" gradientUnits="userSpaceOnUse"><stop offset="0" stop-color="#fff"/><stop offset="0" stop-color="#e5c47f"/><stop offset="0.32" stop-color="#e3c17d"/><stop offset="0.51" stop-color="#deb974"/><stop offset="0.67" stop-color="#d5ab66"/><stop offset="0.81" stop-color="#c89752"/><stop offset="0.94" stop-color="#b87d38"/><stop offset="1" stop-color="#ae6d29"/></linearGradient><radialGradient id="radial-gradient-2" cx="253.99" cy="269.6" r="10.38" gradientTransform="translate(53.32 -36.56) rotate(8.43)" gradientUnits="userSpaceOnUse"><stop offset="0" stop-color="#fff"/><stop offset="0" stop-color="#e5c47f"/><stop offset="0.19" stop-color="#e1be79"/><stop offset="0.43" stop-color="#d7ae69"/><stop offset="0.7" stop-color="#c6944f"/><stop offset="0.99" stop-color="#af6f2b"/><stop offset="1" stop-color="#ae6d29"/></radialGradient><radialGradient id="radial-gradient-3" cx="273.73" cy="261.32" r="15.8" xlink:href="#radial-gradient-2"/><radialGradient id="radial-gradient-4" cx="308.45" cy="228.52" r="10.38" xlink:href="#radial-gradient-2"/><radialGradient id="radial-gradient-5" cx="294.45" cy="244.32" r="15.8" xlink:href="#radial-gradient-2"/><radialGradient id="radial-gradient-6" cx="305.2" cy="269.7" r="11.88" xlink:href="#radial-gradient-2"/><radialGradient id="radial-gradient-7" cx="317.04" cy="257.33" r="8.03" xlink:href="#radial-gradient-2"/><radialGradient id="radial-gradient-8" cx="322.74" cy="273.57" r="4.35" xlink:href="#radial-gradient-2"/><radialGradient id="radial-gradient-9" cx="257.01" cy="236.53" r="7.36" xlink:href="#radial-gradient-2"/><radialGradient id="radial-gradient-10" cx="270.52" cy="222.93" r="12.78" xlink:href="#radial-gradient-2"/><radialGradient id="radial-gradient-11" cx="292.95" cy="213.26" r="16.12" xlink:href="#radial-gradient-2"/><radialGradient id="radial-gradient-12" cx="306.37" cy="197.36" r="10.23" xlink:href="#radial-gradient-2"/><radialGradient id="radial-gradient-13" cx="288.6" cy="277.36" r="7.31" xlink:href="#radial-gradient-2"/><radialGradient id="radial-gradient-14" cx="254.86" cy="203.06" r="9.03" xlink:href="#radial-gradient-2"/><radialGradient id="radial-gradient-15" cx="268.79" cy="189.72" r="12.65" xlink:href="#radial-gradient-2"/><radialGradient id="radial-gradient-16" cx="293.18" cy="179.34" r="16.45" xlink:href="#radial-gradient-2"/><radialGradient id="radial-gradient-17" cx="307.37" cy="164.03" r="9.85" xlink:href="#radial-gradient-2"/><radialGradient id="radial-gradient-18" cx="253.67" cy="170.15" r="9.33" xlink:href="#radial-gradient-2"/><radialGradient id="radial-gradient-19" cx="268.43" cy="156.43" r="11.6" xlink:href="#radial-gradient-2"/><radialGradient id="radial-gradient-20" cx="294.36" cy="145.35" r="16.4" xlink:href="#radial-gradient-2"/><radialGradient id="radial-gradient-21" cx="307.01" cy="131.34" r="9.91" xlink:href="#radial-gradient-2"/><radialGradient id="radial-gradient-22" cx="256.51" cy="136.07" r="8.86" xlink:href="#radial-gradient-2"/><radialGradient id="radial-gradient-23" cx="271.67" cy="124.46" r="11.31" xlink:href="#radial-gradient-2"/><radialGradient id="radial-gradient-24" cx="294.79" cy="114.96" r="14.97" xlink:href="#radial-gradient-2"/><radialGradient id="radial-gradient-25" cx="257.33" cy="105.12" r="8.03" xlink:href="#radial-gradient-2"/><radialGradient id="radial-gradient-26" cx="269.98" cy="92.18" r="11.59" xlink:href="#radial-gradient-2"/><radialGradient id="radial-gradient-27" cx="293.31" cy="82.78" r="14.66" xlink:href="#radial-gradient-2"/><radialGradient id="radial-gradient-28" cx="304.4" cy="69.34" r="7.55" xlink:href="#radial-gradient-2"/><radialGradient id="radial-gradient-29" cx="258.17" cy="75.72" r="6.86" xlink:href="#radial-gradient-2"/><radialGradient id="radial-gradient-30" cx="271.73" cy="60.97" r="11.28" xlink:href="#radial-gradient-2"/><radialGradient id="radial-gradient-31" cx="293.69" cy="51.74" r="14.26" xlink:href="#radial-gradient-2"/><radialGradient id="radial-gradient-32" cx="260.14" cy="46.55" r="6.3" xlink:href="#radial-gradient-2"/><radialGradient id="radial-gradient-33" cx="272.32" cy="30.77" r="10.92" xlink:href="#radial-gradient-2"/><radialGradient id="radial-gradient-34" cx="304.07" cy="37.23" r="7.35" xlink:href="#radial-gradient-2"/><radialGradient id="radial-gradient-35" cx="291.11" cy="19.34" r="13.74" xlink:href="#radial-gradient-2"/><radialGradient id="radial-gradient-36" cx="307.14" cy="100.2" r="9.02" xlink:href="#radial-gradient-2"/></defs><g class="cls-1"><g id="Layer_2" data-name="Layer 2"><g id="Layer_1-2" data-name="Layer 1"><path class="cls-2" d="M117.83,69.66A31.64,31.64,0,0,0,71.6,85.18L23.13,211.35A14.41,14.41,0,0,0,25.76,226L118.92,331.9l87.31,99.22a7.38,7.38,0,0,0,12.9-4.33L228.94,295l10.47-140.63a14.39,14.39,0,0,0-6.76-13.3Z"/><path class="cls-3" d="M214.92,435.62h0a9.73,9.73,0,0,1-10.56-2.85L23.88,227.68a16.86,16.86,0,0,1-3.09-17.23L69.27,84.28a34.13,34.13,0,0,1,49.88-16.74h0L234,138.94a16.87,16.87,0,0,1,7.94,15.61L221.63,427A9.74,9.74,0,0,1,214.92,435.62ZM91.86,68.91A29,29,0,0,0,73.93,86.08L25.46,212.24a11.88,11.88,0,0,0,2.18,12.14L208.1,429.47a4.76,4.76,0,0,0,5.22,1.41h0a4.76,4.76,0,0,0,3.32-4.27l20.28-272.43a11.87,11.87,0,0,0-5.59-11L116.51,71.79A29,29,0,0,0,91.86,68.91Z"/><path class="cls-4" d="M232.65,141.06,143.54,85.65c3.47,20.57-6.55,48.52-27.84,72.13-26.91,29.83-62.58,42.46-83.91,31l-8.66,22.56A14.41,14.41,0,0,0,25.76,226L118.92,331.9l87.31,99.22a7.38,7.38,0,0,0,12.9-4.33L228.94,295l10.47-140.63A14.39,14.39,0,0,0,232.65,141.06Z"/><path class="cls-4" d="M232.65,141.06,181.07,109c-6.66,17.43-17.79,35.83-32.88,52.91-39.76,45-91.94,63.92-116.53,42.19a32.63,32.63,0,0,1-4.08-4.32l-4.45,11.58A14.41,14.41,0,0,0,25.76,226L118.92,331.9l87.89,99.89a7,7,0,0,0,12.26-4.11L228.94,295l10.47-140.63A14.39,14.39,0,0,0,232.65,141.06Z"/><path class="cls-5" d="M190.78,101.62,228.45,109C186,230.49,208.24,296.31,209.27,301.86c0,.08.77,3.09.77,3.16,0,2.1-8.53,3.94-19.13,4.11s-19.22-1.37-19.25-3.46C171.66,305.67,145.37,238.64,190.78,101.62Z"/><path class="cls-3" d="M207.49,309.07c-4.87,1.64-12.45,2-16.54,2.06a75.27,75.27,0,0,1-14-.91c-3.2-.57-6.85-1.56-7.27-4.08-.87-2.33-6.66-19.07-7.51-51.06-.82-31.08,3.14-83,26.69-154.09a2,2,0,0,1,2.28-1.33L228.83,107a2,2,0,0,1,1.35,1,2,2,0,0,1,.16,1.66C205,182.3,198,249.69,210.73,299.4c.25,1,.42,1.61.5,2.06.19.72.8,3.1.81,3.53C212.07,306.86,210.2,308.16,207.49,309.07Zm-33.92-4c1.27.86,7.21,2.22,17.31,2.05,9.6-.16,15.4-1.58,17-2.5-.21-.83-.51-2.06-.56-2.24a.86.86,0,0,1,0-.17c-.06-.31-.23-1-.45-1.83-12.8-50-6.06-117.32,18.94-189.88l-33.68-6.59c-22.82,69.48-26.71,120.29-25.94,150.75.85,33.25,7.28,50.1,7.34,50.27A.78.78,0,0,1,173.57,305.08Z"/><path class="cls-3" d="M198,309.13l-.1,0a2,2,0,0,1-2.47-1.38c-.06-.22-6.21-22.37-7.06-57.72a372.06,372.06,0,0,1,24.79-140.75,2,2,0,1,1,3.73,1.42,368.29,368.29,0,0,0-24.53,139.08c.83,34.89,6.86,56.67,6.92,56.88A2,2,0,0,1,198,309.13Z"/><path class="cls-3" d="M184.37,310.88l-.1,0a2,2,0,0,1-2.46-1.39c-.07-.22-6.09-22.19-7-58-.84-33,2.61-85,23.79-145.17a2,2,0,1,1,3.77,1.32c-40.13,114-17,200-16.71,200.81A2,2,0,0,1,184.37,310.88Z"/><path class="cls-6" d="M190.78,101.62c-.4,2.06,7.7,5.37,18.11,7.4s19.16,2,19.56,0-7.71-5.37-18.11-7.4S191.18,99.57,190.78,101.62Z"/><path class="cls-3" d="M227.7,111.88c-4.76,1.6-14.42,0-19.2-.89-6.25-1.23-20.69-4.62-19.69-9.75h0c1-5.13,15.66-2.84,21.91-1.61s20.69,4.62,19.69,9.74C230.17,110.59,229.17,111.38,227.7,111.88Zm-33.82-9.65c2.25,1.29,7.39,3.27,15.39,4.83s13.51,1.67,16.07,1.32c-2.24-1.28-7.39-3.26-15.38-4.83S196.45,101.88,193.88,102.23Z"/><path class="cls-7" d="M190.91,309.13C183.62,291.48,174.57,199,207.3,108.07l-16.52-6.45c-31.66,95.25-31.47,188.63-18.15,205.56Z"/><path class="cls-8" d="M203.08,303.17l-.06,0a1.5,1.5,0,0,1-1.86-1c-.06-.19-5.7-19.85-6.44-52.53-.68-30.12,2.78-77.85,23.11-134.21a1.5,1.5,0,0,1,2.82,1c-38.58,107-16.84,184.11-16.61,184.88A1.49,1.49,0,0,1,203.08,303.17Z"/><path class="cls-5" d="M56.81,80.35,24.4,100.93c83.75,97.71,106.24,211,107.31,216.55a.62.62,0,0,0,0,.23c.73,2,9.37.55,19.31-3.14s17.4-8.27,16.67-10.24C167.73,304.33,149,191.43,56.81,80.35Z"/><path class="cls-3" d="M148.5,317.6c-6.76,2.27-17.08,4.95-18.62.8a2.69,2.69,0,0,1-.16-.65c-1.16-6-23.86-118.71-106.84-215.52a2,2,0,0,1-.45-1.6,2,2,0,0,1,.9-1.39L55.74,78.66a2,2,0,0,1,2.61.41A559.1,559.1,0,0,1,148.7,233.28c15.53,40.34,20.6,68.4,21,70.59,1.31,4.84-12.05,10.39-17.92,12.58C150.84,316.79,149.73,317.19,148.5,317.6Zm-14.94-1c1.79.28,7.73-.49,16.8-3.86,9.44-3.51,14.48-6.94,15.37-8.21-.43-2.44-5.49-30.11-20.81-69.89A555,555,0,0,0,56.39,83l-29,18.39C108.31,196.78,131.62,306.78,133.56,316.56Zm.14.81Zm-2,.11h0Z"/><path class="cls-3" d="M145,317.06l-.23.06a2,2,0,0,1-2.37-1.54C142.11,314.27,114,184.35,35.77,98.36a2,2,0,1,1,3-2.69C80,141.05,107,198.2,122.46,238.15c16.71,43.26,23.77,76.27,23.84,76.6A2,2,0,0,1,145,317.06Z"/><path class="cls-3" d="M158.33,313.71l-.22.06a2,2,0,0,1-2.37-1.54c-.28-1.29-28.62-130.45-107.54-222.06a2,2,0,1,1,3-2.61c41.61,48.3,68.87,106.58,84.41,147,16.83,43.74,23.94,76.54,24,76.87A2,2,0,0,1,158.33,313.71Z"/><ellipse class="cls-6" cx="40.61" cy="90.64" rx="19.19" ry="3.79" transform="translate(-42.26 35.89) rotate(-32.41)"/><path class="cls-3" d="M30.17,102.48c-3.38,1.13-6.29,1.36-7.46-.48-2.79-4.41,9.41-12.83,14.79-16.25s18.19-10.88,21-6.47h0c2.8,4.41-9.41,12.83-14.79,16.25C40.57,97.52,34.9,100.89,30.17,102.48Zm-3.1-3.25c2.52-.61,7.62-2.71,14.49-7.08s10.95-8.09,12.58-10.1c-2.52.61-7.61,2.71-14.49,7.08S28.7,97.22,27.07,99.23Zm28.6-17.35h0Z"/><path class="cls-7" d="M44.36,92.72c81.3,97.28,106.7,221.85,106.7,221.85l16.67-10.24c-24.52-131-110.92-224-110.92-224Z"/><path class="cls-8" d="M137,313.69l-.21.05a1.49,1.49,0,0,1-1.74-1.21c-.2-1.07-20.19-108.6-101.7-207.53a1.5,1.5,0,0,1,2.32-1.91c42.86,52,68.4,106,82.27,142.18,15,39.19,20,66.46,20.06,66.73A1.51,1.51,0,0,1,137,313.69Z"/><path class="cls-5" d="M86.8,53.44l37.64-7.56c7.09,128.5,69.2,225.88,72.27,230.62a.86.86,0,0,1,.13.2c.83,1.92-6.39,6.88-16.12,11.09s-18.29,6.06-19.12,4.14C161.6,291.93,97.06,197.41,86.8,53.44Z"/><path class="cls-3" d="M174.32,292.4a60.87,60.87,0,0,1-6.07,1.71c-3.26.7-7.13,1.19-8.38-1.18-1.29-1.92-17-25.69-33.67-65.49A559,559,0,0,1,84.81,53.58a2,2,0,0,1,1.6-2.11l37.64-7.55a2,2,0,0,1,1.61.38,2.05,2.05,0,0,1,.78,1.47c7,127.29,68.55,224.37,71.89,229.56a2.55,2.55,0,0,1,.35.59c1.12,2.6-2,5.17-4.8,7.11a76.06,76.06,0,0,1-12.36,6.6C179.05,290.69,176.61,291.63,174.32,292.4Zm-11.16-1.75c1.52.3,7.53-.7,16.77-4.7,8.88-3.83,13.71-7.39,14.8-8.83-5.35-8.4-64.6-104-72.16-228.82L88.93,55.05a554.92,554.92,0,0,0,40.92,170.73C146.29,265.11,161.78,288.6,163.16,290.65Zm.28.48h0Zm31.75-13.33h0Z"/><path class="cls-3" d="M186.62,285.46a2,2,0,0,1-2.33-.84c-.18-.28-17.91-29-35.77-71.81C132,173.29,112,113.31,110.45,52a2,2,0,1,1,4-.11c3,116.21,72.53,229.49,73.23,230.62a2,2,0,0,1-.64,2.76A2.26,2.26,0,0,1,186.62,285.46Z"/><path class="cls-3" d="M174.66,292.28a2,2,0,0,1-2.34-.84c-.17-.29-17.73-28.89-35.82-72.13C119.79,179.4,99.17,118.45,95.82,54.78a2,2,0,0,1,4-.21c6.36,120.79,75.22,233.64,75.92,234.77a2,2,0,0,1-.65,2.75A2.6,2.6,0,0,1,174.66,292.28Z"/><path class="cls-6" d="M86.8,53.44c.42,2.05,9.17,2,19.57-.07s18.48-5.43,18.07-7.49-9.17-2-19.56.07S86.39,51.38,86.8,53.44Z"/><path class="cls-3" d="M117.14,52.65a92,92,0,0,1-10.38,2.69c-6.25,1.25-20.89,3.61-21.92-1.51h0c-1-5.12,13.4-8.59,19.64-9.84s20.89-3.62,21.92,1.5C127,48.47,122.35,50.9,117.14,52.65Zm-27.23.16c2.56.34,8.07.21,16.06-1.4s13.13-3.61,15.37-4.9c-2.57-.34-8.08-.21-16.07,1.4S92.14,51.52,89.91,52.81Z"/><path class="cls-7" d="M104.35,53.76c8.56,126.49,76.37,234,76.37,234l-19.12,4.14C88.73,180.38,86.8,53.44,86.8,53.44Z"/><path class="cls-8" d="M190.11,277.49a1.5,1.5,0,0,1-1.72-.6c-.15-.23-15.43-23.36-31.67-62.06-15-35.71-33.89-92.38-38.91-159.6a1.5,1.5,0,1,1,3-.22c9.56,127.87,69.48,219.31,70.09,220.22a1.5,1.5,0,0,1-.42,2.08A1.22,1.22,0,0,1,190.11,277.49Z"/><path class="cls-5" d="M26,134.7,2.38,160.88C126.87,267.29,163.32,350.35,176.65,380.82c.84,1.84,8.71.05,17.55-4s15.34-8.86,14.49-10.7C196.22,340.88,158.21,248,26,134.7Z"/><path class="cls-3" d="M187.12,381.8c-5.3,1.78-10.93,2.82-12.29-.15-13.52-30.92-49.41-113-173.75-219.25A2,2,0,0,1,.39,161a1.94,1.94,0,0,1,.51-1.47l23.61-26.18a2,2,0,0,1,2.79-.18c123,105.4,164.44,192.68,180.06,225.54,1.19,2.51,2.22,4.68,3.12,6.5,1.21,2.62-1.83,5.25-4.21,7A65.94,65.94,0,0,1,195,378.62,81.71,81.71,0,0,1,187.12,381.8Zm-8.85-2.26c1.56.2,7-.83,15.1-4.55s12.42-7.16,13.29-8.49c-.84-1.7-1.81-3.74-2.91-6.07-15.46-32.51-56.41-118.66-177.57-222.94L5.24,160.7C128.39,266.38,164.56,348.19,178.27,379.54Z"/><path class="cls-3" d="M187,381.8h0a2,2,0,0,1-2.5-1.32c-.08-.26-8.31-26.51-33.71-67.05C127.33,276,84,218.42,11,156.55a2,2,0,0,1,2.59-3.05c73.55,62.27,117.12,120.28,140.73,158,25.63,40.94,34,67.56,34,67.82A2,2,0,0,1,187,381.8Z"/><path class="cls-3" d="M199.66,376.29h0a2,2,0,0,1-2.52-1.28c-.08-.27-9-27.21-35-68.44-24.05-38-68.05-96.39-141.13-158.27a2,2,0,1,1,2.58-3.05c73.55,62.27,117.83,121,142,159.35,26.27,41.61,35.25,68.9,35.34,69.17A2,2,0,0,1,199.66,376.29Z"/><path class="cls-6" d="M26,134.7c1.51,1.36-2.56,8.32-9.08,15.55s-13,12-14.54,10.63,2.56-8.33,9.08-15.56S24.49,133.34,26,134.7Z"/><path class="cls-3" d="M4.79,162.75c-1.49.5-2.8.47-3.75-.39-2.1-1.89-.35-5.51,1.14-8.07A66.56,66.56,0,0,1,10,144c4-4.38,13.56-14.2,17.37-10.77,2.1,1.89.35,5.51-1.14,8.07a65.63,65.63,0,0,1-7.79,10.31C15.44,154.88,9.28,161.24,4.79,162.75ZM23.92,137c-2.1,1.15-6.07,4.21-11,9.65s-7.54,9.7-8.48,11.91c2.1-1.16,6.07-4.22,11-9.66S23,139.21,23.92,137Zm1.37-.54h0Z"/><path class="cls-7" d="M16.92,150.25c116.71,105,160.16,186.43,176,227.14l15.77-10.11C160.37,243.63,26,134.7,26,134.7l-1.17,4.13Z"/><path class="cls-8" d="M180.65,377.89a1.5,1.5,0,0,1-1.86-.85c-.11-.28-11.79-28.12-38.24-68.23A693.54,693.54,0,0,0,10.68,163.11a1.5,1.5,0,1,1,1.94-2.29A696.8,696.8,0,0,1,143.11,307.24c26.58,40.33,38.34,68.37,38.45,68.65a1.49,1.49,0,0,1-.81,2Z"/><path class="cls-5" d="M153.37,53.39l33.28,2.5C170.92,210.05,200.21,290.72,211,320.29c.62,1.82-5.93,5.72-14.65,8.72s-16.28,4-16.9,2.14C171.5,305.73,136.88,217.34,153.37,53.39Z"/><path class="cls-3" d="M196.38,331.11a60.8,60.8,0,0,1-11.27,2.76c-2.82.36-6.67.53-7.56-2.07-.59-1.89-1.31-4.05-2.13-6.55-10.77-32.7-39.37-119.57-24-272.06a2,2,0,0,1,2.14-1.79l33.27,2.5a2,2,0,0,1,1.84,2.19c-15.7,154,13.31,233.55,24.23,263.52,1.63,4.71-10.55,9.47-15.86,11.29ZM181.17,330c1.52.31,6.7-.18,14.52-2.88s12.23-5.5,13.23-6.67c-11.09-30.4-39.73-110-24.47-262.72l-29.28-2.2C140.35,206,168.57,291.66,179.22,324,180,326.28,180.63,328.27,181.17,330Z"/><path class="cls-3" d="M202.57,327.25a2,2,0,0,1-2.46-1.1c-.11-.25-11-25.48-19.68-70.93-8-41.87-15.79-110.06-7.35-197.08a2,2,0,0,1,4,.38c-8.39,86.56-.66,154.33,7.3,196,8.61,45,19.31,69.84,19.41,70.08a2,2,0,0,1-1,2.63Z"/><path class="cls-3" d="M192.1,332.41a2,2,0,0,1-2.43-1c-.12-.24-11.8-24.81-21-70.46-8.47-42.06-16.53-111.22-6.85-201.9a2,2,0,1,1,4,.42c-9.63,90.18-1.62,158.91,6.79,200.69,9.09,45.16,20.56,69.28,20.67,69.52a2,2,0,0,1-.93,2.67Z"/><path class="cls-6" d="M153.37,53.39c-.14,1.92,7.19,4,16.38,4.72s16.75-.3,16.9-2.22-7.19-4-16.38-4.72S153.52,51.47,153.37,53.39Z"/><path class="cls-3" d="M185.39,59.21a19,19,0,0,1-3.54.75,62.68,62.68,0,0,1-12.25.15,62.94,62.94,0,0,1-12.09-2c-2.73-.78-6.33-2.15-6.13-4.89h0c.21-2.74,4-3.55,6.79-3.92a70.27,70.27,0,0,1,24.34,1.83c2.73.78,6.34,2.15,6.13,4.89C188.52,57.69,187.11,58.64,185.39,59.21Zm-28.74-5.57c2.19.87,6.67,2,13.25,2.48s11.17.06,13.47-.48c-2.19-.87-6.67-2-13.25-2.48S159,53.1,156.65,53.64Zm-3.27-.25Z"/><path class="cls-7" d="M169.75,58.11c-11.3,148.15,12.11,232.24,27.86,270.45L180.22,332C132.53,215.73,153.37,53.39,153.37,53.39l3.51,2.07Z"/><path class="cls-8" d="M205.5,320a1.49,1.49,0,0,1-1.86-.84c-.11-.26-10.8-26.36-19.06-70.83-7.61-41-14.67-106.53-5.06-185.78a1.5,1.5,0,1,1,3,.36c-9.57,78.88-2.54,144.07,5,184.87,8.2,44.16,18.77,70,18.88,70.23a1.5,1.5,0,0,1-.81,2Z"/><path class="cls-9" d="M85.61,141.84a26.19,26.19,0,0,1,2.64,6.49c.47,1.86.5,2.92,1.42,4,1.35,1.57,3.55,1.82,5,1.89,6.45.33,12.87-2.31,14.18-2.83a100.35,100.35,0,0,1,18.38-5.07,53.12,53.12,0,0,1,20.06.74c8.08,1.82,22.29,7.05,26.09,14.62a6.38,6.38,0,0,0,2.74,3.23c2.61,1.32,5-.63,9.64-.74a28.14,28.14,0,0,1,6.13.93c7.14,1.51,11.22,2.4,15.35,5.58a25.62,25.62,0,0,1,5.85,6.52,24,24,0,0,1,4.08,9.13c.69,3.68-.14,5,1.17,6.76,1.52,2.08,3.73,1.66,6.45,2.82,5.78,2.39,9.77,10,8.94,16-.43,3-2.07,5.31-6,9.16C217.06,231.5,208,235.92,208,235.92c-30.54,14.84-49,21.13-49,21.13-18.78,6.37-28.19,9.56-42.45,12.86-14.76,3.42-49.35,11.44-55.08.95-1.2-2.19-1.28-5.45-1.34-7.59-.16-6.59,2.23-11.49,3.85-14.78,2.16-4.38,3.45-7,6.49-9.33,2.65-2,5.21-2.68,5.22-4.24,0-1.31-1.87-1.59-4.29-3.79a18.94,18.94,0,0,1-4.8-7.74c-.45-1.35-1.06-4.18-.19-8.74,1.16-6,3.75-8.62,8.71-16.68,5.18-8.38,7.78-12.57,8.22-16.52.77-6.9-1.7-15-1.83-15.34-1.26-4-2.54-5.78-2.32-9.39a21.85,21.85,0,0,1,2.56-8.59,32.74,32.74,0,0,1,4-6.31"/><path class="cls-10" d="M85.61,141.84A17,17,0,0,0,85,152.48c.53,1.82,1.54,5.3,4.49,6.8,2.16,1.07,4.21.48,8.32-.6,0,0,5.59-1.47,15-3.66a92,92,0,0,1,13.62-2.08c7-.58,11.51-1,17.15.29,4.89,1.09,12.18,2.72,17.18,9.37.67.91,5.49,7.54,4.32,16.16-1,7.29-5.74,11.62-12.66,18-5.24,4.79-13.47,12.31-26.2,15.43-13.11,3.18-24,0-24.25,1.5-.19,1.1,5,3,9,3.86,3.23.68,7.41,1,14.51-.19a67,67,0,0,0,19.86-6.39c11.46-5.82,17.9-13.26,22.81-18.94,6.31-7.28,8.4-12.07,8.88-17,.07-.79-1-2.76,0-4.14.77-1.09,2.39-1.44,4.77-1.33,3.25.14,9.77.41,15.35,5.57,4.82,4.48,8.33,12,6.72,19.21-1.25,5.64-5.09,8.72-12.25,14.29-4.81,3.74-10.15,7-27.67,15.1-10,4.55-14.94,6.84-18.46,8.12-19.13,7-33.69,7.58-33.55,9.06.08.89,5.36,1.13,8.08,1.14,8.82,0,15.29-2.15,20.2-3.76,19-6.2,15.4-3.92,25.72-7.8,12.17-4.58,19-7.15,27.11-12.67,9.77-6.67,14.66-10,16.46-12.41a15.79,15.79,0,0,1,6.51-5.21,7.68,7.68,0,0,1,4.73-.75c3.31.72,5.42,4.43,6,7.08.43,2.12.48,6.76-7.07,14.2-13.09,12.92-33.74,19.09-68.31,31.72-12.33,4.51-25,8.1-37.22,12.77a146.75,146.75,0,0,1-19.62,5.48c-10.51,2.26-16.13,2.4-21-.37-1.47-.82-4.6-2.65-5.63-6.09-1.17-3.93,1.11-7.62,3.37-11.3,1.89-3.13,4.94-8,10.69-10.75,8.31-3.89,17.15-.69,17.33-1.66.12-.65-3.71-1.41-9.43-4.31-4.22-2.11-6.59-3.3-8.83-5.83A20.15,20.15,0,0,1,76.33,219a22.08,22.08,0,0,1,1.8-11,23.48,23.48,0,0,1,7.64-9.21c1.79-1.37,2.56-1.62,11.29-5.71,7.51-3.52,9.5-4.52,11.12-5.39,5.87-3.1,8.85-4.7,10.79-7.19.94-1.22,4.37-5.62,3.28-10.73a10.67,10.67,0,0,0-2.41-4.7c-2.14-2.48-5.32-3.83-5.77-3.29s1.41,1.73,2.73,4.89c.59,1.36,1.94,4.5,1.1,7.34-.38,1.34-1.19,2.24-5.85,5.54a112.57,112.57,0,0,1-11.11,7.05c-5.61,3.09-7.13,3.49-8.66,2.9A5.09,5.09,0,0,1,89.22,186c-.59-2.45,1.63-3.47,2.88-7.84a13,13,0,0,0,.22-7.5,13.38,13.38,0,0,0-3.06-5c-1.92-2.17-2.91-2.16-4.37-4a12.71,12.71,0,0,1-2.33-5.27C80.91,149.62,84.9,143,85.61,141.84Z"/><path class="cls-11" d="M142.71,157.89a21.64,21.64,0,0,1,6.86,1.55c1.43.58,6,2.44,8.83,6.66,5.17,7.67.87,17.58.29,18.89-1.78,3.92-4.51,6.35-9.79,11-8.35,7.28-17.26,12.61-17.71,12-.28-.37,2.67-2.55,9.46-9.5,5.23-5.31,7.89-8,9.71-11.23,2.31-4,4.95-8.68,3.68-13.62-.48-1.92-2.84-5-7.53-11-1.55-2-2.88-3.64-3.8-4.77"/><path class="cls-11" d="M184.67,175.11a16.55,16.55,0,0,1,5.24.62A14.77,14.77,0,0,1,197,180c4.44,5.33,2,13.06,1.66,14.08-1,3.07-2.83,5.1-6.45,9-5.66,6-11.9,10.74-12.31,10.33-.24-.26,1.77-2.13,6.32-7.82,3.51-4.38,5.26-6.6,6.38-9.14,1.42-3.19,3-6.83,1.7-10.45-.51-1.38-2.5-3.47-6.46-7.59-1.3-1.38-2.44-2.5-3.21-3.26"/><path class="cls-11" d="M92.64,198.88a17,17,0,0,0-11.26,8.19c-3.4,6.73.45,14.33,1,15.33,1.58,3,3.76,4.69,8,7.93,6.68,5.08,13.75,8.51,14,8,.19-.33-2.16-1.84-7.7-6.76-4.27-3.79-6.43-5.74-8-8.11-2-3-4.27-6.54-3.59-10.68.25-1.59,1.83-4.29,5-9.61,1.06-1.78,1.94-3.24,2.55-4.24"/><path class="cls-12" d="M79.71,248.77a12.67,12.67,0,0,0-2.91,2.08,8.54,8.54,0,0,0-2.66,4.42c-.68,4,3.65,6.84,4.23,7.21,1.75,1.07,3.6,1.43,7.22,2,5.66,1,11.15,1.07,11.22.74s-1.87-.41-6.72-1.57c-3.72-.88-5.61-1.34-7.23-2.16-2-1-4.37-2.21-4.91-4.36-.21-.83.21-2.48,1-5.77.28-1.09.53-2,.71-2.63"/><path class="cls-13" d="M87.65,296.4l31.24,35.51,87.31,99.22a7.39,7.39,0,0,0,12.91-4.33l9.8-131.8,10.47-140.63C220.91,219.18,87.65,296.4,87.65,296.4Z"/><path class="cls-3" d="M214.89,435.63h0a9.75,9.75,0,0,1-10.56-2.84L85.77,298.06a2.51,2.51,0,0,1,.62-3.82C87.72,293.47,219,216.81,237,153.69a2.5,2.5,0,0,1,4.89.87L221.6,427A9.74,9.74,0,0,1,214.89,435.63ZM91.52,297,208.07,429.48a4.76,4.76,0,0,0,5.22,1.41h0a4.76,4.76,0,0,0,3.32-4.27l19.1-256.57C206.71,226.09,110,286.09,91.52,297Z"/><path class="cls-13" d="M26.1,226.46l61.51,69.89S151.54,259.3,197,215C190.37,216.8,62.93,251.34,26.1,226.46Z"/><path class="cls-3" d="M88.4,298.72a2.49,2.49,0,0,1-2.67-.72l-61.5-69.89a2.5,2.5,0,0,1,3.27-3.73c36,24.29,163.41-10.32,168.82-11.8a2.5,2.5,0,0,1,2.4,4.2c-45.14,44-109.22,81.36-109.86,81.73A2.11,2.11,0,0,1,88.4,298.72Zm-52.57-65,52.29,59.43c10-6,60.39-36.66,100.07-73.28-13.15,3.32-38,9.18-64.93,13.33C83.3,239.36,54,239.53,35.83,233.72Z"/><path class="cls-14" d="M92.11,277.3,70.8,252.62a2.1,2.1,0,0,1,1.72-3.48c23.24,1.58,62.07-6.28,79.22-10.1a2.11,2.11,0,0,1,1.77,3.71c-18.18,14.54-42.68,29.72-52.93,35.9A6.65,6.65,0,0,1,92.11,277.3Z"/><path class="cls-8" d="M90.18,289.29a2.49,2.49,0,0,1-2.68-.72l-40-45.95a2.5,2.5,0,0,1,2.82-4c.23.09,26.49,9.5,119.4-12.47a2.5,2.5,0,0,1,1.15,4.87C102.25,247.29,69.49,246.7,56.17,245l35.1,40.33a2.51,2.51,0,0,1-.25,3.53A2.44,2.44,0,0,1,90.18,289.29Z"/><path class="cls-8" d="M212,426.47h0c-2.13.71-4.63-.24-6.67-2.54L96.62,299.22a2.5,2.5,0,0,1,.55-3.76l8.46-5.31,0,0c86.87-52.72,118.45-97.7,121.77-102.66A2.5,2.5,0,0,1,232,189L215.77,420.3C215.39,424.49,213.51,426,212,426.47ZM102.31,298.14l106.74,122.5a3.81,3.81,0,0,0,1.31,1,4.68,4.68,0,0,0,.42-1.77l15.63-222.65c-12.33,15.62-46.94,53.93-118.14,97.14Z"/><path class="cls-14" d="M197,232.89c-28.12,27.26-50.21,42.24-66.64,52.26a6.49,6.49,0,0,0-2,9.09l75.33,115.81a2.5,2.5,0,0,0,4.59-1.46l-6.42-173.78a2.83,2.83,0,0,0-4.8-1.93Z"/><path class="cls-15" d="M0,160.37a9.36,9.36,0,0,1,.76-3.15,21,21,0,0,1,2-4.22,76.34,76.34,0,0,1,8.65-10.59c5.69-6,7.69-7.48,10.14-8.66a9.62,9.62,0,0,1,3.87-1.31c4-.19,6.7,3.32,11.88,8.74a132.38,132.38,0,0,0,10.93,10.47c7.46,6.2,12.32,7.89,12,11.11a4.36,4.36,0,0,1-3,3.63c-5.38,1.3-10.17-12.84-17.55-12.07-.27,0-2.42.28-2.86,1.5-.58,1.63,2.36,3.62,6.84,8.66,5.23,5.87,5.1,7.5,4.89,8.24a4.67,4.67,0,0,1-4.33,3.06c-2.88-.07-3.47-3.62-8.12-7.86-1.35-1.23-7.07-6.46-11.45-4.85a5,5,0,0,0-2.9,2.78c-.43,1.41.17,2.73,1.13,4.55,3.65,6.95,5.9,9,5.54,12.48-.12,1.11-.18,1.71-.67,2.07-3,2.18-12.79-12-23.39-19C3.34,165.29.07,163.21,0,160.37Z"/><path class="cls-16" d="M2.05,159.79a9.07,9.07,0,0,1,.76-3.15,21.79,21.79,0,0,1,2-4.22,77.82,77.82,0,0,1,8.65-10.59c5.7-6,7.7-7.48,10.14-8.66a9.71,9.71,0,0,1,3.88-1.31c4-.19,6.69,3.32,11.88,8.74a133.7,133.7,0,0,0,10.92,10.47c7.46,6.2,12.33,7.89,12,11.11a4.39,4.39,0,0,1-3,3.63c-5.38,1.3-10.17-12.84-17.55-12.07-.27,0-2.42.28-2.86,1.5-.58,1.63,2.35,3.62,6.84,8.66,5.23,5.87,5.09,7.5,4.89,8.24a4.67,4.67,0,0,1-4.33,3.06c-2.88-.07-3.48-3.62-8.12-7.86-1.35-1.23-7.08-6.46-11.46-4.85a5,5,0,0,0-2.89,2.78c-.43,1.41.17,2.73,1.13,4.55,3.65,7,5.89,9.05,5.53,12.48-.11,1.11-.18,1.71-.67,2.07-3,2.18-12.79-12-23.38-19C5.38,164.71,2.12,162.63,2.05,159.79Z"/><path class="cls-17" d="M25,135.09a6,6,0,0,1,5.1-.78c1.21.46,2.41,1.5,2.22,2s-1.63,0-4.2.23c-3.11.28-4.79,1.36-5.07.9S23.94,135.8,25,135.09Z"/><path class="cls-17" d="M29.36,182.08a2.69,2.69,0,0,0-.22-2.31c-.33-.48-.9-.89-1.1-.75s.18.71.35,1.85c.21,1.39-.08,2.23.16,2.31S29.16,182.62,29.36,182.08Z"/><path class="cls-17" d="M48.77,169.43a3.7,3.7,0,0,1,.12,3.2c-.37.71-1.09,1.37-1.38,1.23s.12-1,.15-2.61c0-1.93-.5-3-.2-3.18S48.41,168.72,48.77,169.43Z"/><path class="cls-17" d="M60.73,160.29a3.67,3.67,0,0,1,.12,3.2c-.36.71-1.08,1.37-1.37,1.23s.11-1,.15-2.61c0-1.93-.51-3-.2-3.18S60.37,159.58,60.73,160.29Z"/><path class="cls-15" d="M22.32,100.21c.29-1.63,1.33-2.91,3.16-5.15a33.64,33.64,0,0,1,6.25-5.66,85.83,85.83,0,0,1,7.58-4.9l3-1.61a54.07,54.07,0,0,1,10.35-4.68,6.35,6.35,0,0,1,4.14-.11,5.47,5.47,0,0,1,1.59,1C60,80.53,64.7,86.36,70.74,94.48c1.44,2,3.82,5.2,6.82,9.16,9.32,12.36,12.77,16.23,11.35,19.08a6.16,6.16,0,0,1-6.24,2.81c-7.07-1.3-5.81-16.93-15.75-21.21-1.9-.82-5-1.55-5.89-.38-1.79,2.27,4.79,11.19,12.23,21.28,4.65,6.3,7.54,9.68,6.31,12.49a6.11,6.11,0,0,1-6.18,3.16c-4.94-.83-6.09-9.12-15.28-25.4-1.24-2.2-3.39-5.88-7.32-7-2.21-.63-5.58-.61-6.9,1.29-.93,1.33-.5,3.07-.08,4.69,1.61,6.14,5.84,7.69,5.41,10.93a5.33,5.33,0,0,1-3.95,4.3c-4.07.62-5.3-7.32-15.23-18C25.55,106.8,21.67,104,22.32,100.21Z"/><path class="cls-16" d="M21.79,101.83c.28-1.62,1.33-2.9,3.16-5.15A33.42,33.42,0,0,1,31.19,91a88.53,88.53,0,0,1,7.58-4.9l3-1.6a54.66,54.66,0,0,1,10.34-4.69,6.36,6.36,0,0,1,4.14-.1,5,5,0,0,1,1.59,1C59.47,82.16,64.17,88,70.2,96.11c1.44,2,3.83,5.19,6.82,9.16,9.32,12.35,12.78,16.22,11.35,19.08a6.15,6.15,0,0,1-6.23,2.81c-7.08-1.31-5.81-16.93-15.75-21.22-1.9-.82-5-1.55-5.9-.37-1.78,2.26,4.8,11.18,12.24,21.27,4.65,6.3,7.53,9.68,6.31,12.49a6.12,6.12,0,0,1-6.18,3.17c-5-.84-6.09-9.13-15.29-25.41-1.24-2.19-3.39-5.88-7.31-7-2.21-.62-5.58-.61-6.91,1.29-.93,1.33-.5,3.07-.07,4.69,1.6,6.14,5.84,7.69,5.4,10.93a5.32,5.32,0,0,1-3.94,4.3c-4.08.62-5.3-7.31-15.24-18C25,108.42,21.14,105.58,21.79,101.83Z"/><path class="cls-17" d="M27.09,98.75a6,6,0,0,0-1.07,5c.39,1.23,1.36,2.48,1.86,2.33s.09-1.63.47-4.19c.46-3.08,1.64-4.7,1.19-5S27.86,97.71,27.09,98.75Z"/><path class="cls-17" d="M76.86,135.36a3.7,3.7,0,0,1,.12,3.2c-.37.71-1.09,1.37-1.38,1.22s.11-1,.15-2.6c0-1.93-.51-3-.2-3.18S76.5,134.65,76.86,135.36Z"/><path class="cls-17" d="M86.46,120.61a3.63,3.63,0,0,1,.12,3.2c-.36.71-1.08,1.38-1.37,1.23s.11-1,.15-2.61c0-1.93-.51-3-.2-3.18S86.1,119.9,86.46,120.61Z"/><path class="cls-17" d="M46.47,124.58a3.7,3.7,0,0,1,.12,3.2c-.37.71-1.09,1.38-1.38,1.23s.11-1,.15-2.61c0-1.93-.5-3-.2-3.18S46.11,123.87,46.47,124.58Z"/><path class="cls-15" d="M84.55,51.24c1.49-1.87,5-3.68,5.68-4,.12-.06.67-.34,1.3-.62,4.73-2.09,20.31-3.88,15.17-3.26h0c-5.66,1.3,12.3-2.9,17.44-.19a9.1,9.1,0,0,1,1.36.82c4.36,3.3,3.83,9.82,4.06,17.69,0,0,.18,6.55,1.38,15.68,1.8,13.7,5.18,19.73,2.21,22.09a6.17,6.17,0,0,1-6.84-.09c-5.85-4.18,1.9-17.8-5.29-25.89-1.37-1.54-3.85-3.5-5.18-2.83-2.58,1.29-.39,12.16,2.08,24.45,1.55,7.68,2.73,12,.43,14a6.1,6.1,0,0,1-6.94.26c-4.12-2.85-1.65-10.85-3.09-29.49-.2-2.51-.59-6.76-3.67-9.43-1.74-1.5-4.8-2.91-6.81-1.75-1.4.81-1.75,2.57-2,4.22-1.14,6.24,2,9.44.27,12.19a5.46,5.46,0,0,1-5.39,2.22c-3.77-.87-3.42-6.94-7.06-28.41C83.28,56.92,82.7,53.56,84.55,51.24Z"/><path class="cls-16" d="M82.76,52.67c1.49-1.87,5-3.68,5.69-4,.12-.06.66-.34,1.29-.62,4.73-2.09,20.31-3.88,15.17-3.26h0c-5.66,1.3,12.3-2.9,17.44-.19a9.1,9.1,0,0,1,1.36.82c4.36,3.3,3.83,9.82,4.06,17.69,0,0,.18,6.55,1.38,15.68,1.8,13.71,5.18,19.74,2.21,22.09a6.17,6.17,0,0,1-6.84-.09c-5.85-4.18,1.9-17.8-5.29-25.88-1.37-1.55-3.85-3.51-5.18-2.84-2.58,1.29-.39,12.16,2.08,24.45,1.55,7.68,2.73,12,.44,14a6.12,6.12,0,0,1-6.94.25c-4.13-2.85-1.66-10.85-3.1-29.49-.2-2.51-.59-6.76-3.67-9.43-1.74-1.5-4.8-2.91-6.81-1.75-1.4.81-1.75,2.58-2,4.22-1.14,6.24,2,9.44.27,12.19a5.48,5.48,0,0,1-5.39,2.23c-3.77-.87-3.41-7-7.06-28.42C81.49,58.35,80.91,55,82.76,52.67Z"/><path class="cls-17" d="M88,52.39a5.93,5.93,0,0,0-2.68,4.41c0,1.29.46,2.79,1,2.81s.63-1.51,1.83-3.79c1.46-2.76,3.1-3.9,2.78-4.33S89,51.67,88,52.39Z"/><path class="cls-17" d="M124,97.13a3.67,3.67,0,0,0,1.84,2.62c.72.35,1.69.44,1.83.15s-.69-.73-1.69-2c-1.2-1.51-1.43-2.73-1.76-2.66S123.85,96.34,124,97.13Z"/><path class="cls-17" d="M109.6,107.12a3.71,3.71,0,0,0,1.83,2.62c.73.34,1.7.44,1.84.15s-.7-.74-1.69-2c-1.2-1.52-1.43-2.73-1.76-2.66S109.46,106.33,109.6,107.12Z"/><path class="cls-17" d="M87.35,84.52a3.67,3.67,0,0,0,1.84,2.62c.72.35,1.69.44,1.84.15s-.7-.73-1.7-2c-1.2-1.51-1.43-2.73-1.76-2.66S87.21,83.73,87.35,84.52Z"/><path class="cls-15" d="M152.58,50.86A19.82,19.82,0,0,1,156,49.59a27.82,27.82,0,0,1,6.84-.81c4.2-.13,7.44.08,8.65.16,1.93.15,4.41.39,7.29.86a18.19,18.19,0,0,1,3.79.88c.64.23,3.71,1.29,5.2,2.83,2.38,2.48,1.2,6.75.37,11.93a134.55,134.55,0,0,0-1,16.23c-.26,13.89,3.29,20.51,0,22.61a4.69,4.69,0,0,1-5.33-.64c-2.13-2.1.36-5.79-.11-13.3-.11-1.6-.52-8.21-2.68-8.65-1.83-.38-4.8,3.72-6,7.92-2,7.16,2.06,11.87-.36,14.22-2,2-7.5,1.28-9.38-1.52-2-3,1.28-6.58,3.11-18.82.52-3.45.69-6.09-.85-8.35-1.39-2-4.18-3.8-6.33-3-1.38.48-2.15,1.88-2.84,3.73-3.21,8.69,0,15.36-2.72,17.06-1.42.9-4,.08-5.43-1.31-3.19-3.1,0-8.19,1.11-19.59C150.48,60.83,148.54,53.15,152.58,50.86Z"/><path class="cls-16" d="M155.31,52.71a18.28,18.28,0,0,1,3.46-1.27,26.83,26.83,0,0,1,6.84-.81,81.67,81.67,0,0,1,8.65.16c1.93.14,4.41.39,7.29.85a19,19,0,0,1,3.79.89c.64.22,3.71,1.29,5.19,2.83,2.39,2.48,1.2,6.75.38,11.92a135.54,135.54,0,0,0-1,16.24c-.25,13.89,3.3,20.51.05,22.6a4.69,4.69,0,0,1-5.33-.63c-2.13-2.11.36-5.79-.12-13.3-.1-1.6-.52-8.22-2.67-8.66-1.83-.37-4.8,3.72-6,7.93-2,7.15,2,11.87-.36,14.21-2,2-7.5,1.28-9.38-1.52-2-3,1.28-6.58,3.11-18.82.52-3.44.69-6.08-.86-8.35-1.38-2-4.18-3.8-6.32-3-1.38.49-2.15,1.88-2.84,3.74-3.21,8.68,0,15.36-2.72,17.06-1.42.9-4,.08-5.43-1.31-3.19-3.1.05-8.2,1.11-19.6C153.21,62.68,151.27,55,155.31,52.71Z"/><path class="cls-17" d="M185.92,56.26A5.9,5.9,0,0,1,189.48,60c.32,1.26.16,2.83-.35,3s-.94-1.34-2.6-3.31c-2-2.38-3.87-3.14-3.65-3.64S184.72,55.78,185.92,56.26Z"/><path class="cls-17" d="M155.24,93.17a3.71,3.71,0,0,0,1.54-2.81c0-.8-.35-1.72-.68-1.71s-.35.95-1,2.39c-.83,1.75-1.82,2.5-1.61,2.76S154.6,93.64,155.24,93.17Z"/><path class="cls-17" d="M173.47,105.09a3.67,3.67,0,0,0,1.55-2.8c0-.8-.36-1.72-.68-1.72s-.35,1-1,2.4c-.83,1.75-1.81,2.49-1.6,2.76S172.83,105.57,173.47,105.09Z"/><path class="cls-17" d="M188.84,104.79a3.67,3.67,0,0,0,1.54-2.8c0-.81-.35-1.72-.68-1.72s-.35,1-1,2.4c-.83,1.74-1.82,2.49-1.61,2.75S188.2,105.26,188.84,104.79Z"/><path class="cls-15" d="M190.59,99.13c1.46-.88,3.36-.95,7.12-1.08a44,44,0,0,1,7.22.48c3.86.46,6.8,1.07,7.92,1.32a55.75,55.75,0,0,1,9.39,2.7c1.64.65,3,1.27,3.88,1.73a9.09,9.09,0,0,1,2.45,1.52,9.94,9.94,0,0,1,1.62,1.91c1.65,2.65-2,10-3.45,13.26-2.09,4.72-2.8,8.34-3.94,14.08-2.57,13,.25,20.47-3.33,22.06a4.65,4.65,0,0,1-5.11-1.43c-1.77-2.38,1.22-5.6,1.87-13,.14-1.57.72-8.09-1.31-8.85-1.73-.65-5.25,2.9-7,6.82-3,6.68.23,11.89-2.47,13.81-2.26,1.61-7.52.11-8.94-2.91-1.51-3.22,2.23-6.23,5.85-17.89,1-3.28,1.59-5.83.41-8.28-1-2.18-3.51-4.34-5.72-3.94-1.42.26-2.38,1.51-3.33,3.21-4.43,8-2.33,15-5.2,16.23-1.53.66-3.92-.53-5.11-2.11-2.8-3.71,2-8.46,4-19C189.58,108.55,186.43,101.63,190.59,99.13Z"/><path class="cls-16" d="M193.39,100.3c1.45-.88,3.35-1,7.11-1.08a44.08,44.08,0,0,1,7.23.48c3.86.46,6.79,1.07,7.91,1.32a55.75,55.75,0,0,1,9.39,2.7c1.64.65,3,1.28,3.88,1.73a8.64,8.64,0,0,1,2.45,1.53,9.34,9.34,0,0,1,1.62,1.9c1.66,2.65-2,10-3.45,13.26-2.08,4.72-2.8,8.34-3.93,14.08-2.57,13,.24,20.48-3.34,22.06a4.65,4.65,0,0,1-5.11-1.43c-1.76-2.38,1.22-5.6,1.88-13,.14-1.57.72-8.09-1.32-8.85-1.73-.65-5.24,2.9-7,6.82-3,6.68.23,11.89-2.48,13.82-2.26,1.6-7.52.1-8.94-2.92-1.51-3.22,2.24-6.23,5.85-17.89,1-3.28,1.59-5.83.42-8.27-1.05-2.19-3.52-4.35-5.73-4-1.41.26-2.38,1.51-3.32,3.21-4.44,8-2.34,15-5.21,16.23-1.52.66-3.91-.53-5.1-2.11-2.81-3.71,2-8.46,4-19C192.37,109.72,189.22,102.8,193.39,100.3Z"/><path class="cls-17" d="M227,107.79a6,6,0,0,1,3.12,4.11c.17,1.29-.17,2.83-.69,2.9s-.78-1.44-2.21-3.59c-1.73-2.59-3.48-3.55-3.21-4S225.9,107.18,227,107.79Z"/><path class="cls-17" d="M190.23,141.21a2.58,2.58,0,0,0,1.68-1.49c.18-.53.17-1.22,0-1.29s-.45.55-1.24,1.34c-1,1-1.79,1.22-1.71,1.44S189.69,141.38,190.23,141.21Z"/><path class="cls-17" d="M206.18,155.22a3,3,0,0,0,1.94-1.73c.21-.62.2-1.41-.05-1.5s-.53.64-1.45,1.56c-1.1,1.11-2.06,1.41-2,1.67S205.56,155.4,206.18,155.22Z"/><path class="cls-17" d="M221,157.35a3,3,0,0,0,1.95-1.73c.21-.61.19-1.41-.06-1.49s-.52.63-1.44,1.55c-1.11,1.11-2.07,1.41-2,1.67S220.41,157.54,221,157.35Z"/><path class="cls-18" d="M99.65,165.27a2.27,2.27,0,1,1,3.6-2.67l5.11,6.86a2.45,2.45,0,0,1-3.63,2.58Z"/><path class="cls-18" d="M134.43,161a2.27,2.27,0,1,1,1.83-4.09l7.82,3.49a2.45,2.45,0,0,1-1.91,4Z"/><path class="cls-18" d="M126.71,180.68a2.27,2.27,0,1,1,4.08,1.86l-3.53,7.79a2.44,2.44,0,0,1-2.48.39,2.49,2.49,0,0,1-1.54-2.31Z"/><path class="cls-18" d="M115.82,212.72a2.26,2.26,0,1,1,4.34,1.1l-2.09,8.3a2.44,2.44,0,0,1-2.37.82,2.49,2.49,0,0,1-1.92-2Z"/><path class="cls-18" d="M104.22,207.82a2.27,2.27,0,1,1-1.88,4.07l-7.77-3.58a2.48,2.48,0,0,1-.38-2.49,2.51,2.51,0,0,1,2.33-1.52Z"/><path class="cls-18" d="M74.39,216.49a2.27,2.27,0,1,1,2-4l7.63,3.86A2.44,2.44,0,0,1,82,220.28Z"/><path class="cls-18" d="M146.87,213.36a2.27,2.27,0,1,1,1.8-4.11l7.84,3.44a2.45,2.45,0,0,1-1.88,4Z"/><path class="cls-18" d="M152.55,188.3a2.27,2.27,0,1,1,3.7-2.53l4.84,7.06a2.5,2.5,0,0,1-1,2.33,2.47,2.47,0,0,1-2.77.11Z"/><path class="cls-18" d="M163.19,168.45a2.27,2.27,0,1,1,4.48.15l-.28,8.56a2.45,2.45,0,0,1-4.45-.25Z"/><path class="cls-18" d="M183.17,176.53a2.27,2.27,0,1,1,4.35,1.1l-2.09,8.3a2.45,2.45,0,0,1-4.3-1.18Z"/><path class="cls-18" d="M180.88,199.53a2.26,2.26,0,1,1,3.75-2.44l4.68,7.16a2.45,2.45,0,0,1-3.78,2.36Z"/><path class="cls-18" d="M205.65,181.91a2.27,2.27,0,1,1,4,2l-3.8,7.66a2.45,2.45,0,0,1-4-2.07Z"/><rect class="cls-19" x="278.9" y="289.68" width="7.92" height="182.97" rx="3.96" transform="translate(58.93 -37.35) rotate(8.43)"/><path class="cls-20" d="M292,294.34c-1.25-2.17,2.1-5.13.74-7.55a4.58,4.58,0,0,0-3.27-1.85l-13.3-3.74h0a59.4,59.4,0,0,0-6.62-1.43l-1.44-.21s6.34,1,6.34,1l-21-3.46c4.27-27.9,4.36-28.42,4.36-28.42.54-3.39,10.11-57.12,9.21-52.14,0,0,1.61-12.46,2.31-16.69,2.24-13.46,4.3-20.61,7.49-34.87.93-4.13,2.48-11.89,5.58-27.42,2-9.82,11.91-60,20-81.42A95.11,95.11,0,0,1,310,20.8a54.47,54.47,0,0,1,6.66-9.1c3.49-3.76,7-7.49,12.58-8.66a17.42,17.42,0,0,1,8,.21A18.57,18.57,0,0,1,346.32,9c3.12,3.41,4.4,7.09,5.47,11,3.52,12.87,3.37,21.41,3.37,21.41-2.38,42.79-4.33,73.55-5.71,94.22-.54,8.22-3.06,45.8-3.06,45.8h0s-.19,5.89-.32,11.35c-.22,9.44-.18,12.34-.61,20.77-.34,6.59-.79,11.67-1.67,21.82-2.39,27.34-5.4,52.14-5.4,52.14s-.12,0-.12,0h.12s-14.42-.5-18.23-1a21.48,21.48,0,0,0-4.45-.05l-.27,0-.44.05c-.82.06-1.62.07-3.86.13-8.7.27-9.37.47-9.95,1.07-2.14,2.28,0,5.61-1.32,7.36S293.31,296.6,292,294.34Z"/><path class="cls-21" d="M256.22,261c.4-1.43,1.7-2.27,4.3-4,.39-.25,3.79-2.46,4.34-1.83.29.33-.51,1.07-.7,2.37-.24,1.58.58,2.89,1.63,4.49,3.52,5.34,5.27,8,6.29,8.89,1.23,1.07,2.49,1.89,2.68,3.41a3,3,0,0,1-.93,2.69c-1.6,1.24-4.68-.48-6.5-1.49-4.32-2.41-6.63-5.66-8.5-8.34C256.77,264.23,255.73,262.68,256.22,261Z"/><path class="cls-22" d="M271.13,252.29c.61-1.41,1.7-2.19,3.38-3.4a15.35,15.35,0,0,1,5.63-2.52,10.26,10.26,0,0,1,5.84,0,5.58,5.58,0,0,1,3.06,2,6.75,6.75,0,0,1,.83,2.78c.52,2.29,1.91,3.78,3.29,5.27a16.21,16.21,0,0,0,5.94,4.06c2.82,1.07,4.63.75,4.75,1.41s-2,1.42-5.78,3.38c-.93.48-3.16,1.8-7.64,4.43-5.73,3.38-6.23,3.82-7.41,3.66-2-.28-3.49-2.29-6.47-6.31a30.63,30.63,0,0,1-3.81-6.23C271.25,257.52,270,254.81,271.13,252.29Z"/><path class="cls-23" d="M315.9,229.55c.48-1.07,1.57-1.55,3.72-2.46a30.27,30.27,0,0,1,8.08-2c8-1.18,8.65-.93,9.09-.42.73.86.26,2.88-.69,6.93a60.14,60.14,0,0,1-1.76,6c-1.82,5.53-2.41,6.12-3.07,6.44-1.44.69-3,0-4.85-.72a17.66,17.66,0,0,1-6.8-5.43C317.5,235.28,314.8,232,315.9,229.55Z"/><path class="cls-24" d="M294.11,238.51c.62-1.41,1.7-2.19,3.38-3.39a15.45,15.45,0,0,1,5.64-2.52,10.25,10.25,0,0,1,5.84,0,5.65,5.65,0,0,1,3.06,2,6.74,6.74,0,0,1,.82,2.78,11.36,11.36,0,0,0,3.29,5.26,16.24,16.24,0,0,0,5.95,4.07c2.81,1.07,4.63.75,4.74,1.41s-2,1.42-5.78,3.38c-.92.48-3.16,1.79-7.64,4.43-5.73,3.38-6.22,3.82-7.41,3.66-2-.28-3.49-2.29-6.47-6.32a30.7,30.7,0,0,1-3.81-6.22C294.23,243.75,293,241,294.11,238.51Z"/><path class="cls-25" d="M304.66,267.62a6.43,6.43,0,0,1,2.54-2.55,11.49,11.49,0,0,1,4.24-1.9,7.84,7.84,0,0,1,4.4,0,4.29,4.29,0,0,1,2.3,1.54,5.27,5.27,0,0,1,.62,2.09,8.51,8.51,0,0,0,2.47,4,12.24,12.24,0,0,0,4.47,3.06c2.12.8,3.48.56,3.57,1.06s-1.51,1.07-4.35,2.54c-.69.36-2.38,1.35-5.74,3.33-4.31,2.54-4.69,2.88-5.57,2.75-1.51-.2-2.63-1.72-4.87-4.75a23.55,23.55,0,0,1-2.87-4.68C304.75,271.55,303.84,269.51,304.66,267.62Z"/><path class="cls-26" d="M322.23,260.47c.37-.83,1.21-1.19,2.88-1.9a23.27,23.27,0,0,1,6.25-1.54c6.16-.91,6.69-.72,7-.32.57.66.21,2.22-.52,5.35a47.55,47.55,0,0,1-1.37,4.63c-1.41,4.28-1.86,4.73-2.38,5-1.11.54-2.35,0-3.75-.55a13.84,13.84,0,0,1-5.26-4.2C323.47,264.91,321.38,262.35,322.23,260.47Z"/><path class="cls-27" d="M328.68,279.2c.21-.44.66-.64,1.56-1a13.36,13.36,0,0,1,3.39-.83c3.33-.49,3.62-.39,3.8-.18s.11,1.21-.28,2.91c-.21.89-.4,1.46-.74,2.5-.76,2.32-1,2.57-1.29,2.7a2.55,2.55,0,0,1-2-.3,7.46,7.46,0,0,1-2.85-2.28C329.35,281.61,328.22,280.22,328.68,279.2Z"/><path class="cls-28" d="M268.93,224.15c.53-.08.85,1.69,2.58,4.86a29.93,29.93,0,0,0,3.67,5.5c2.32,2.69,3.68,3,3.61,4.31-.11,1.87-3.12,3.07-3.55,3.25a5.55,5.55,0,0,1-4.06.34c-2.23-.86-3-3.5-3.31-4.74s-.22-3.25.1-7.06C268.33,226.34,268.51,224.21,268.93,224.15Z"/><path class="cls-29" d="M287.79,209.52c-1.17-.21-1.63,1.07-5,3.73-3,2.37-3.83,2.26-5.07,4a7.28,7.28,0,0,0-1.67,4.94c.18,1.64,1,1.89,3.47,5.23,2.63,3.64,2.6,4.7,4.36,5.6a7.32,7.32,0,0,0,4.38.65c1.67-.27,1.88-.95,5.06-2.32A29.9,29.9,0,0,1,297,230c3.14-.9,4.19-.56,4.5-1.22.47-1-1.81-2.46-5-6.16a41.44,41.44,0,0,1-5.27-7.39C289.23,211.58,289.13,209.75,287.79,209.52Z"/><path class="cls-30" d="M308.06,227.14c-1-.08-2.25-1.15-4.71-3.29a30.45,30.45,0,0,1-4.76-4.95c-2.32-3.11-3.49-4.68-3.39-6.87.15-3.13,2.78-5.27,4-6.25a13,13,0,0,1,6.05-2.64,10.94,10.94,0,0,1,5.42.09,8.5,8.5,0,0,1,4.11,2.5c1.13,1.32,1.09,2.29,1.79,3.8,1,2.2,2.58,3.37,5.12,5.24,5.21,3.84,9.29,4.52,9.12,5.37-.13.59-2.19.41-7.93.94a38.8,38.8,0,0,0-6,.76C311.83,223.52,311.11,227.41,308.06,227.14Z"/><path class="cls-31" d="M318.46,199.91c.34-.75,1.42-1.12,3.57-1.83,5.91-2,7.79-2.55,8.43-2.76,5.53-1.79,6.83-2.95,7.87-2.14.72.56.6,2.28.33,5.71A60.44,60.44,0,0,1,336.93,209c-.59,2.54-.76,3-1.21,3.36-2.06,1.89-6.41.52-8.84-.83-1.9-1.07-2.93-2.3-4.76-4.48C319.88,204.38,317.65,201.71,318.46,199.91Z"/><path class="cls-32" d="M291.36,275.58a4,4,0,0,1,1.57-1.56,6.94,6.94,0,0,1,2.61-1.17,4.72,4.72,0,0,1,2.7,0,2.53,2.53,0,0,1,1.41.94,3.23,3.23,0,0,1,.39,1.29,5.24,5.24,0,0,0,1.52,2.44,7.74,7.74,0,0,0,2.75,1.88c1.3.49,2.14.34,2.2.65s-.93.66-2.68,1.56c-.43.22-1.46.83-3.53,2-2.66,1.57-2.89,1.77-3.43,1.7-.93-.13-1.62-1.06-3-2.93a13.92,13.92,0,0,1-1.76-2.88C291.42,278,290.86,276.75,291.36,275.58Z"/><path class="cls-33" d="M273.66,190.2c.67.12.18,2.15,1.49,5.88a13.85,13.85,0,0,0,3.37,5.93c1.61,1.54,2.54,1.42,2.92,2.56.69,2-1.58,4.56-3,5.69-.52.42-3.91,3.18-6.65,1.85-1.94-1-2.44-3.43-2.77-5.13-.26-1.27-.46-3.29.66-7.69C270.6,195.83,272.53,190,273.66,190.2Z"/><path class="cls-34" d="M291.32,177.72c-1.31-.85-3.95,1-6.29,2.61-2,1.41-3.51,2.44-4.67,4.5a10.42,10.42,0,0,0-1.29,7.12c.15.75,1.3,2.49,3.6,6,2,3,2.76,4,4.26,4.64a6,6,0,0,0,3,.44c1.11-.13,1.74-.55,4.34-2.19,2.12-1.34,3.19-2,3.37-2.09,3-1.28,5-.41,5.39-1.32.2-.48-.21-1.07-3.15-4.25-1.73-1.87-2.81-3-4.07-4.37A30.42,30.42,0,0,1,292.6,185C290.84,181.48,292.71,178.63,291.32,177.72Z"/><path class="cls-35" d="M318.44,171.36c-2-1.47-4.5-1.24-6.92-1a18.56,18.56,0,0,0-7.44,2.43c-3.08,1.64-4.78,2.55-5.37,4.4s.42,3.73,2.44,7.43a50.23,50.23,0,0,0,5.08,7.13c3.08,3.91,4,4.64,5,4.51,1.13-.15,1.39-1.33,2.75-2.66,1.79-1.73,3.92-2.21,7-2.73,9.62-1.64,14.53-1.33,14.77-2.53.17-.86-2.24-1.44-7.07-4.83-3.63-2.54-5.44-3.81-7-6.15C319.74,174.29,320.4,172.8,318.44,171.36Z"/><path class="cls-36" d="M323.45,166.21c.12-.33.49-1,4.54-1.93a61.8,61.8,0,0,1,9.37-1.2c4.57-.41,5.42-.5,6.11.2s.56,1.18.26,6.17c-.25,4.39-.34,5.22-.72,6.5-.59,1.94-1.07,3.52-2.53,4.34s-3.15.39-4.49,0a12.63,12.63,0,0,1-5.82-3.69c-.67-.67-.78-.88-3.35-4.51C323.74,167.78,323.15,167.05,323.45,166.21Z"/><path class="cls-37" d="M278.59,157c.39,0,.4.94,1.33,3.74a22.08,22.08,0,0,0,2.09,5c1.65,2.62,2.9,2.43,3.18,4,.22,1.22-.75,2.66-2.7,5.49-1.83,2.66-2.78,4-4.22,4.57-.34.13-2.79,1.06-4.45-.19-1.5-1.13-1.45-3.38-1.39-4.92.11-3.27,1.3-4.59,2.95-8.77C277.51,160.51,277.8,156.9,278.59,157Z"/><path class="cls-38" d="M284.64,154.32c.32-1.46,1.56-2.58,4-4.83,2.83-2.57,4.38-3.94,6.46-3.76a5.31,5.31,0,0,1,2.66,1.1c1.36,1,1.79,2.27,2.82,4.9a61.24,61.24,0,0,0,2.6,6.29c2,3.14,3.86,3.53,3.67,5-.1.76-1.64,1.7-4.7,3.55s-4.25,2.32-5.79,2.45a8.15,8.15,0,0,1-2.32-.11c-3.55-.77-5.46-4.47-7.5-8.43C285,157.54,284.27,156,284.64,154.32Z"/><path class="cls-39" d="M314.93,161.64c-1.2-.11-1.84-.89-5.51-5.77-3.79-5-4.23-5.7-4.62-7.05s-1.26-4.44.34-7c1-1.68,2.62-2.33,5.39-3.45,2.61-1.05,4.39-1.78,6.64-1.37,2.58.46,4.25,2.13,5.82,3.69,2.15,2.14,2,3,3.94,5.3s4,3.67,7,5.52c5.08,3.2,8.44,4.09,8.26,4.76s-2.64,0-7.82.26a51.81,51.81,0,0,0-7.93.95,27,27,0,0,0-6.14,1.68C316.83,160.6,316.51,161.79,314.93,161.64Z"/><path class="cls-40" d="M345.23,148.2c1.44-1.08.76-2.66,1.66-8,1.1-6.54,2.81-8.29,1.67-9.66-.95-1.11-2.57-.49-10.73.77-6.93,1.07-9,1.13-9.59,2.59-.39,1,.63,2.64,2.68,5.82,2.23,3.47,3.35,5.21,4.95,6.4C338.31,147.93,342.91,150,345.23,148.2Z"/><path class="cls-41" d="M285.76,124.53c1,.08.69,2.76,2.77,6.78,2.33,4.52,4.68,4.91,4.58,7.28-.17,3.85-6.47,6.17-6.83,6.3-1.69.61-4.29,1.53-5.71.34-1.7-1.42-.71-5,1.28-11.84C283.12,129,284.44,124.42,285.76,124.53Z"/><path class="cls-42" d="M303,114.82c-.91-.32-2.49.76-5.63,2.94-3.45,2.4-3.86,3.14-4.07,3.64-.67,1.57-.34,3,.17,5.22a18.83,18.83,0,0,0,3,6.58c1.8,2.56,2.91,4.14,4.57,4.21.52,0,2-.76,4.83-2.35a17.92,17.92,0,0,1,2.81-1.47c2.92-.9,5,.52,5.44-.13s-2-2.43-4.75-6.13a32,32,0,0,1-3.76-6.46C304,117,304.31,115.29,303,114.82Z"/><path class="cls-43" d="M320.44,130.85c-1.22-.3-2.18-1.58-4.1-4.15a45.91,45.91,0,0,1-3.28-5.44c-2.2-3.94-2.26-4.42-2.28-4.82-.15-3.44,3.32-6,4-6.49a10.81,10.81,0,0,1,6.75-2.06,8.56,8.56,0,0,1,5,1.44c1.59,1.16,1.52,2.16,3.14,4.24,1.06,1.35,2.38,2.33,5,4.29a36.1,36.1,0,0,0,6.91,4.32c2.41,1.11,4,1.46,4,1.77s-2.89-.11-6.56.1a27.72,27.72,0,0,0-9.82,2.19C324,128.54,323,131.47,320.44,130.85Z"/><path class="cls-44" d="M289.87,95.18c.9,0,.91,1.53,3,4.93,3.13,5,5.61,5.71,5.4,8.12-.18,2.13-2.29,3.61-3.48,4.43s-3.28,2.29-5.19,1.59c-2.31-.84-2.81-4.44-3.07-6.35C285.73,101.83,288,95.16,289.87,95.18Z"/><path class="cls-45" d="M308.94,82.67c.76.67-.23,2,.24,4.76a12.13,12.13,0,0,0,2.12,4.79c3.11,4.79,6.53,5.45,6.23,7.3-.18,1.16-1.54.87-4.54,3.57-2,1.77-2.15,2.58-3.51,3a6.3,6.3,0,0,1-4.62-.69c-1.73-.86-2.27-1.88-5.41-6.46-3.28-4.8-3.85-5.39-3.72-6.69.17-1.77,1.47-2.89,4-5.06C302.09,85.27,307.43,81.36,308.94,82.67Z"/><path class="cls-46" d="M333.79,77.39c1.32,1,1.12,1.78,3.07,4.7a34.79,34.79,0,0,0,4.2,5.11c3.82,3.73,7,4.25,6.77,5.25-.23,1.19-4.62-.09-10.17,1.79-6.28,2.14-8.06,6.3-11.65,5.35-1.21-.31-2.22-1.28-4.24-3.22A27.26,27.26,0,0,1,317.54,91c-1.9-3.08-2.84-4.62-2.73-6.54.17-3,2.48-5,3.19-5.66,2.76-2.42,6-2.59,8.66-2.73S331.79,75.84,333.79,77.39Z"/><path class="cls-47" d="M350.53,69.49c-1.28-1.16-3.37-.73-7.33.1-2.72.56-4.3.91-4.8,2.12-.12.29-.34,1,1.86,5a27.74,27.74,0,0,0,3.86,5.76c2,2.19,3.16,3.5,4.24,3.23,1.3-.33,1.67-2.86,2.35-7.91C351.36,73,351.67,70.54,350.53,69.49Z"/><path class="cls-48" d="M295.66,67.26c.61-.07.86,1.11,2.36,3.18,2.38,3.3,4,3.38,4.19,5.1s-1.09,3.11-2.86,5c-.55.59-4.24,4.55-6,3.59-.83-.45-.85-1.86-.87-3.66,0-2.4.46-3.68,1.29-7.12C294.89,68.9,295,67.34,295.66,67.26Z"/><path class="cls-49" d="M313.06,51.68c-1-.54-3.07,1.49-6.09,4.52-2.71,2.71-4.07,4.11-4.39,5.72-.49,2.52.76,4.62,2.44,7.44s3.22,5.41,5.74,5.8c1.19.18,1.58-.26,6-2.18,5.08-2.21,6.24-2.35,6.38-3.3.21-1.33-1.94-1.92-5.51-5.77-1.88-2-2.86-3.08-3.54-4.77C312.51,55.24,314.23,52.28,313.06,51.68Z"/><path class="cls-50" d="M330.53,69.13c-1.39-.16-2.76-2.19-5.45-6.24-3-4.49-3.54-6.35-3.82-7.64-.38-1.8-.71-3.34,0-5,.94-2,3-2.89,5.53-3.9a15.36,15.36,0,0,1,5.85-1.25c2,0,4.11,0,5.7,1.31,1.28,1.08.81,1.82,2.42,4.37a18.77,18.77,0,0,0,3.84,4.34,29.62,29.62,0,0,0,4.93,3.33c1.86,1,2.6,1.14,2.6,1.56,0,.87-3.13,1.12-8.43,2.77A35.33,35.33,0,0,0,337,65.36C332.85,67.58,332.39,69.33,330.53,69.13Z"/><path class="cls-51" d="M302.73,40.24a12.81,12.81,0,0,0,2.95,4c2,1.82,3.45,1.86,3.58,2.89s-1.95,2.46-6.16,5c-3.53,2.11-4.13,2.16-4.53,1.92-1.61-.95.06-6.26.23-6.82a19.35,19.35,0,0,1,3.93-6.95"/><path class="cls-52" d="M317.18,22.33c-1-.29-2.13.54-4.34,2.19a12.8,12.8,0,0,0-3.61,3.71A9.34,9.34,0,0,0,307.72,32c-.33,2.5.66,4.45,1.65,6.38a16.9,16.9,0,0,0,4.2,5.1,4.46,4.46,0,0,0,2.4,1.3c1.14.13,1.65-.46,4-1.76a28.14,28.14,0,0,1,5-2.32c2-.65,2.87-.58,3.08-1.2.27-.82-1-1.79-2.43-3.19a34,34,0,0,1-5.13-6.78C318.2,25.38,318.84,22.79,317.18,22.33Z"/><path class="cls-53" d="M353.66,37.17a23.53,23.53,0,0,0-6.77,1.12c-2.16.7-3.46,1.14-3.87,2.26-.13.36-.28,1.1,2.28,5.29a30.07,30.07,0,0,0,3.31,4.73c1.9,2.15,3.05,3.46,4,3.19,1.49-.4,1.64-4.28,1.75-7a41.59,41.59,0,0,0-.71-9.54"/><path class="cls-54" d="M335.45,37.54c-1.2-.11-2.78-2.17-5.91-6.3s-3.67-5.34-4-6.26c-.84-2.18-1.65-4.24-.92-6.51.94-3,3.85-4.32,5.47-5.08a10.91,10.91,0,0,1,6.77-1.12,10.05,10.05,0,0,1,5.27,2.66c1.19,1.18.88,1.52,2.49,3.91s3,4.49,5.51,5.77c1.8.92,3.12.88,3.17,1.47s-1.75,1.21-4.21,2.39a42,42,0,0,0-6.23,3.79C337.51,35.91,337.31,37.7,335.45,37.54Z"/><path class="cls-55" d="M352.39,100.74a38.22,38.22,0,0,0-9.06-.23c-3.8.36-9.46.89-10.18,3.44-.37,1.34,1.37,3.26,4.85,7.09,3.66,4,5.14,4.63,5.88,4.88.52.18,4.26,1.43,6.44-.46.9-.78,1.23-1.85,1.61-6.13.2-2.16.4-5.08.46-8.59"/><path class="cls-15" d="M289.83,80.83c-.34-.12.61-3.13,3.26-14,.66-2.73,1-4.14,1.59-6.42,1-4.06,1.37-5.2,2.23-8.54,2.3-8.84,1.82-8.17,2.85-11.37a90.49,90.49,0,0,1,4.08-10c1.49-3.3,2.71-6,4.66-9.46a63.39,63.39,0,0,1,8.44-12.13c3.21-3.56,4.81-5.34,7.71-6.79A18.68,18.68,0,0,1,338.23.72a18.56,18.56,0,0,1,8.34,5.46c2.87,3.12,3.92,6.22,5.47,11a69.24,69.24,0,0,1,3,15.19,118.19,118.19,0,0,1,.45,14.29c-.07,5.42-.31,7.28-.87,16.56-.35,5.74-.61,11.15-1.13,22-.44,9.19-.53,11.82-1,17-.25,2.91-.37,3.78-.92,10-.15,1.67-.26,3-.35,4.08-.41,4.77-.53,6.27-.65,7.57-.41,4.81-.81,8.27-1,10-1.54,14.32-2.85,42.92-2.85,42.92h0s-.39,6-.25,11.79c.11,4.39.44,8.78-1.75,13.42-1,2.11-2,3.08-3.09,3.32-2.22.46-4.34-2-4.59-2.32-1.11-1.33-1.65-2.91-1.79-12.07a72.06,72.06,0,0,1,.12-8.26,39.62,39.62,0,0,1,1.74-8.93c.84-2.55,1-2.06,3.24-7.54a41.54,41.54,0,0,0,2.48-7.18,31.5,31.5,0,0,0,.68-6,39.55,39.55,0,0,0-.76-9.33c-.19-.87-1.05-3.5-2.77-8.72a43.29,43.29,0,0,1-1.91-6.41,34,34,0,0,1-.24-7.29c.17-4.52.57-8.32.95-11.18.35-2.64.79-5.91,1.74-10.12s1.93-7.35,3-10.87c1.6-5.16,2.35-6.87,3-10.65s.51-5.67.14-7.29a12.62,12.62,0,0,0-2.91-5.86c-1.27-1.4-3-3.47-5.63-3.42s-4.18,2-4.91,2.79a11.44,11.44,0,0,0-2.32,4.63c-.28.89-.69,2.57-1.16,7.84-.18,2-.25,3.63-.29,5.15-.16,5.6,0,10.13.18,14.65.3,7.47.33,7.24.47,11.16.18,4.88.38,10,.38,16.57,0,3.85-.17,8-.51,16.2a43.75,43.75,0,0,1-1.75,11.77c-1.22,4-2.18,6-4.13,7.17-.35.21-2.63,1.57-4.84.68-2.4-1-3.09-3.94-3.38-5.23-.41-1.77-.16-2.62.65-8.15.88-6,.72-6,1.23-8.31s.6-2,2-7c.6-2.16.49-2,2.16-8.18,1-3.6,1.45-5.43,1.65-6.36a80.15,80.15,0,0,0,1.23-8.31c.3-2.74.48-4.94.91-11,.46-6.37.68-9.56.79-11.68.48-9.56-.05-8.24.43-12.44.7-6.24,1.57-8.55,1.09-12.85a34.64,34.64,0,0,1-.45-5.12c0-2.5.37-3.33-.06-5.06-.3-1.2-.79-3.18-2.49-3.9a4.29,4.29,0,0,0-4.39,1c-1.11,1-1.22,2.31-1.58,4.25-.73,4-1,2.54-2.12,7.94-1.19,5.66-.58,5.7-1.6,9.2a20.82,20.82,0,0,1-3.17,7.07c-1.22,1.7-2.8,3.86-5.67,4.83a6.86,6.86,0,0,1-5,.12c-2.61-1.15-3.67-4.21-3.73-6.37,0-1.36.55-2.79,1.78-5.64a33.08,33.08,0,0,1,3-5.69c1.11-1.68,1.24-1.6,2.7-3.85a13.09,13.09,0,0,0,2.3-4.88c.22-1.17.31-2.89-.18-3.06s-.85.78-3.09,3.32-2.61,2.39-3.91,4.13a37.53,37.53,0,0,0-2.57,4.58c-.54,1-.71,1.27-1.17,2.11-1.74,3.17-2.13,5.24-3.49,8.61C292,77.21,290.22,81,289.83,80.83Z"/><path class="cls-16" d="M287.34,84.92c-.34-.12.61-3.13,3.26-14,.67-2.73,1-4.14,1.59-6.42,1-4.06,1.37-5.2,2.23-8.54,2.3-8.84,1.82-8.17,2.85-11.37a88.78,88.78,0,0,1,4.09-10A104.33,104.33,0,0,1,306,25.11,62.82,62.82,0,0,1,314.45,13c3.21-3.56,4.82-5.34,7.71-6.79a18.73,18.73,0,0,1,13.58-1.38,18.56,18.56,0,0,1,8.34,5.46c2.87,3.12,3.92,6.22,5.47,11a69.23,69.23,0,0,1,3,15.2A120.16,120.16,0,0,1,353,50.75c-.08,5.42-.32,7.28-.88,16.56-.34,5.74-.61,11.15-1.13,22-.44,9.19-.53,11.82-1,17-.25,2.91-.37,3.78-.92,10s-.62,7.45-1,11.64c-.51,5.71-.73,7.32-1.37,13.61-.85,8.48-1.28,12.71-1.63,17.84-.74,10.83-.84,20.45-.85,21.47,0,3.93-.34,7.86-.25,11.79.11,4.39.44,8.78-1.75,13.42-1,2.11-2,3.08-3.09,3.32-2.21.46-4.34-2-4.59-2.32-1.11-1.33-1.65-2.91-1.79-12.07a74.22,74.22,0,0,1,.12-8.25,39.69,39.69,0,0,1,1.74-8.94c.84-2.55,1-2.06,3.24-7.54a41.54,41.54,0,0,0,2.48-7.18,31.5,31.5,0,0,0,.68-6,39,39,0,0,0-.76-9.33c-.19-.87-1.05-3.5-2.77-8.72a42.69,42.69,0,0,1-1.9-6.41,33,33,0,0,1-.25-7.29c.17-4.52.58-8.31,1-11.18.35-2.64.79-5.91,1.74-10.12s1.93-7.35,3-10.87c1.6-5.16,2.35-6.87,3-10.65s.51-5.67.14-7.29a12.62,12.62,0,0,0-2.91-5.86c-1.27-1.4-3-3.47-5.62-3.42s-4.19,2-4.92,2.79a11.44,11.44,0,0,0-2.32,4.63c-.28.89-.68,2.57-1.16,7.84-.18,2-.25,3.63-.29,5.15-.16,5.6,0,10.13.19,14.65.29,7.47.32,7.24.47,11.16.18,4.88.37,10,.37,16.57,0,3.85-.17,8-.51,16.2a43.36,43.36,0,0,1-1.75,11.77c-1.22,4-2.18,6-4.13,7.17-.35.21-2.63,1.57-4.84.68-2.4-1-3.08-3.94-3.38-5.23-.41-1.77-.16-2.62.65-8.15.88-6,.73-6,1.23-8.3s.6-2,2-7c.6-2.16.49-2,2.16-8.18,1-3.6,1.45-5.43,1.65-6.36a80.15,80.15,0,0,0,1.23-8.31c.3-2.74.48-4.94.91-11,.46-6.37.68-9.56.79-11.68.48-9.56,0-8.24.43-12.43.7-6.25,1.57-8.55,1.09-12.86a34.61,34.61,0,0,1-.45-5.11c0-2.51.37-3.34-.06-5.07-.3-1.2-.79-3.18-2.49-3.9a4.31,4.31,0,0,0-4.39,1c-1.11,1-1.22,2.31-1.57,4.25-.74,4-1,2.54-2.13,7.94-1.18,5.66-.58,5.7-1.59,9.2a21.19,21.19,0,0,1-3.18,7.08c-1.22,1.69-2.8,3.85-5.66,4.82a6.87,6.87,0,0,1-5,.12c-2.62-1.15-3.68-4.21-3.74-6.37,0-1.36.55-2.79,1.78-5.64a33.59,33.59,0,0,1,3-5.69c1.1-1.68,1.23-1.6,2.69-3.85A13.09,13.09,0,0,0,305,59c.22-1.17.31-2.89-.18-3.06s-.85.78-3.09,3.32-2.61,2.39-3.91,4.14a35.65,35.65,0,0,0-2.57,4.57c-.54,1-.71,1.27-1.17,2.11-1.74,3.18-2.13,5.24-3.49,8.61C289.52,81.3,287.73,85.06,287.34,84.92Z"/><path class="cls-17" d="M327.35,7.2c.47-1,6-.24,10.53,2.65,8.82,5.7,10.76,18,9.63,18.54-.8.39-2.75-5.25-10.1-12.38C331.56,10.33,326.89,8.18,327.35,7.2Z"/><path class="cls-17" d="M318.38,15.7c-.34-.14-1.21,2.21-6.38,11-2.79,4.76-4.46,7.35-6.33,11.81-.25.61-3,7.26-2.17,7.71.46.24,1.82-1.45,2.66-2.5a27.53,27.53,0,0,0,3.55-5.65C311.28,34.49,319.35,16.11,318.38,15.7Z"/><circle class="cls-17" cx="302.17" cy="49.71" r="1.9"/><path class="cls-17" d="M315.27,157.92a5.84,5.84,0,0,0,2.26,4.52c1.05.7,2.54,1.07,2.83.65s-.92-1.3-2.18-3.49c-1.52-2.64-1.61-4.59-2.14-4.55S315.23,156.67,315.27,157.92Z"/><path class="cls-17" d="M335.54,201.23a5.8,5.8,0,0,0,2.25,4.51c1,.71,2.55,1.08,2.84.65s-.92-1.3-2.18-3.48c-1.53-2.64-1.61-4.59-2.14-4.55S335.5,200,335.54,201.23Z"/><path class="cls-17" d="M297.92,78.68a5.84,5.84,0,0,0,2.26,4.52c1.05.7,2.54,1.07,2.83.65s-.92-1.3-2.18-3.49c-1.52-2.64-1.61-4.59-2.14-4.55S297.88,77.43,297.92,78.68Z"/><path class="cls-56" d="M348.51,64.69s2.64,1,1.61,2-3.38,2.91-3.48,1.12S347.49,65.67,348.51,64.69Z"/><path class="cls-57" d="M348.51,64.69l-.08.07c.66.31,2.11,1.1,1.31,1.88A7.05,7.05,0,0,1,347,68.49c.69.38,2.35-1,3.17-1.79C351.15,65.71,348.51,64.69,348.51,64.69Z"/><path class="cls-56" d="M333.36,55.85s3.55,1,2.29,1.56-4.16,1.72-4.44.46S332.11,56.45,333.36,55.85Z"/><path class="cls-56" d="M321.7,34c-.06,1.08,1.32,2.31.72,3-1.08,1-3.35-.09-4.52-1.06-.77-.7.29-1.53,1-2a1.79,1.79,0,0,1,2.23-.25C321.28,33.73,321.48,33.84,321.7,34Z"/><path class="cls-57" d="M322.4,36.91c-1.18.43-3-.49-4.06-1.34-.77-.7.29-1.52,1-2l0,0a1.88,1.88,0,0,0-.53.35c-.66.43-1.72,1.25-1,1.95,1.16,1,3.44,2,4.51,1.06Z"/><path class="cls-56" d="M311.92,47.87c1.32.19,2.87-1,3.67-.33,1.17,1.12-.18,3.11-1.41,4.07-.88.64-1.87-.44-2.39-1.1-.55-.51-1-1.48-.27-2.1C311.64,48.24,311.77,48.06,311.92,47.87Z"/><path class="cls-57" d="M312.5,50.11c-.55-.51-1-1.48-.27-2.1l.08-.12a1.7,1.7,0,0,1-.39,0c-.15.19-.28.37-.4.54-.73.62-.28,1.59.27,2.1.52.66,1.51,1.74,2.39,1.1a2.39,2.39,0,0,0,.26-.21C313.69,51.5,312.93,50.66,312.5,50.11Z"/><path class="cls-56" d="M308,34.38s2.93.79,1.9,1.28-3.44,1.42-3.68.38S307,34.87,308,34.38Z"/><path class="cls-56" d="M327.62,41.85c1,.14,2.11-.71,2.7-.24.86.82-.13,2.28-1,3-.65.47-1.38-.32-1.76-.81s-.73-1.09-.19-1.54C327.42,42.12,327.52,42,327.62,41.85Z"/><path class="cls-57" d="M328.05,43.5c-.4-.38-.73-1.09-.2-1.54l.07-.09a1.51,1.51,0,0,1-.3,0c-.1.14-.2.27-.28.4-.54.45-.21,1.17.19,1.54s1.11,1.28,1.76.81l.18-.16C328.92,44.51,328.37,43.9,328.05,43.5Z"/><path class="cls-56" d="M321.54,21.74c.75.77,2.52.84,2.63,1.62,0,1.26-2.16,1.8-3.61,1.77-1-.05-.93-1.19-.83-1.85a1.26,1.26,0,0,1,1.2-1.4Z"/><path class="cls-57" d="M324.14,23.37c-.41.94-2.25,1.35-3.51,1.33-1-.05-.94-1.2-.84-1.85v0a1.41,1.41,0,0,0-.07.53c-.1.65-.16,1.8.83,1.85,1.45,0,3.64-.52,3.61-1.77C324.15,23.41,324.15,23.39,324.14,23.37Z"/><path class="cls-56" d="M323.17,10.78c.74.76,2.51.83,2.62,1.62,0,1.25-2.16,1.79-3.6,1.77-1-.05-.94-1.2-.84-1.86a1.27,1.27,0,0,1,1.2-1.4C322.74,10.86,323,10.82,323.17,10.78Z"/><path class="cls-57" d="M325.77,12.4c-.42.94-2.25,1.35-3.52,1.33-1-.05-.93-1.19-.84-1.85v0a1.65,1.65,0,0,0-.07.53c-.1.66-.15,1.8.84,1.85,1.44,0,3.64-.52,3.6-1.77C325.78,12.44,325.77,12.42,325.77,12.4Z"/><path class="cls-56" d="M346.08,37.17s-1.59,2.34-2.32,1.12-2.09-3.95-.33-3.64S345.34,36,346.08,37.17Z"/><path class="cls-57" d="M346.08,37.17l-.06-.09c-.45.57-1.55,1.81-2.12.85a7,7,0,0,1-1.18-3.13c-.52.59.45,2.52,1,3.49C344.49,39.51,346.08,37.17,346.08,37.17Z"/><path class="cls-56" d="M347.13,43.32s3.55,1,2.29,1.55-4.16,1.73-4.45.47S345.88,43.91,347.13,43.32Z"/><path class="cls-56" d="M338.41,46.21c0,.67.83,1.45.45,1.86-.67.61-2.11,0-2.84-.67-.48-.44.18-.95.6-1.23A1.13,1.13,0,0,1,338,46Z"/><path class="cls-57" d="M338.85,48.07a3.15,3.15,0,0,1-2.55-.85c-.49-.44.18-.95.59-1.23h0a1.19,1.19,0,0,0-.33.22c-.42.27-1.09.79-.6,1.23.73.62,2.16,1.28,2.84.67Z"/><path class="cls-56" d="M345.86,27.77c.49.5,1.66.55,1.73,1.06,0,.83-1.42,1.18-2.37,1.17-.65,0-.61-.79-.55-1.22a.83.83,0,0,1,.79-.92Z"/><path class="cls-57" d="M347.57,28.84c-.27.61-1.48.88-2.31.87-.65,0-.61-.78-.55-1.22v0a1.48,1.48,0,0,0,0,.35c-.06.43-.1,1.18.55,1.22,1,0,2.39-.34,2.37-1.16C347.58,28.86,347.57,28.85,347.57,28.84Z"/><path class="cls-56" d="M333.74,10.45c1.32.18,2.87-1,3.67-.33,1.17,1.11-.18,3.1-1.41,4.07-.88.64-1.87-.44-2.39-1.1-.55-.51-1-1.48-.27-2.1C333.46,10.82,333.59,10.64,333.74,10.45Z"/><path class="cls-57" d="M334.32,12.69c-.55-.51-1-1.48-.27-2.1a.83.83,0,0,0,.08-.12,2.55,2.55,0,0,1-.39,0c-.15.19-.28.37-.4.54-.73.62-.28,1.59.27,2.1.52.66,1.51,1.74,2.39,1.1.09-.06.17-.14.26-.21C335.51,14.08,334.75,13.24,334.32,12.69Z"/><path class="cls-56" d="M331,26s2.93.79,1.89,1.28-3.43,1.43-3.67.39S330,26.52,331,26Z"/><path class="cls-56" d="M337.37,21.58s1.89.51,1.22.82-2.21.92-2.36.25S336.71,21.89,337.37,21.58Z"/><path class="cls-56" d="M299.57,53.06s1.49.58.91,1.14-1.91,1.64-2,.64S299,53.62,299.57,53.06Z"/><path class="cls-57" d="M299.57,53.06l0,0c.37.17,1.19.62.74,1.06a4,4,0,0,1-1.58,1c.39.21,1.33-.57,1.79-1S299.57,53.06,299.57,53.06Z"/><path class="cls-56" d="M337.31,29.94s2.57,1,1.57,2-3.29,2.83-3.38,1.1S336.31,30.9,337.31,29.94Z"/><path class="cls-57" d="M337.31,29.94l-.07.08c.64.29,2.05,1.07,1.27,1.82a6.87,6.87,0,0,1-2.72,1.8c.67.37,2.29-1,3.09-1.74C339.88,30.94,337.31,29.94,337.31,29.94Z"/><path class="cls-56" d="M345.47,51.41s3.55,1,2.29,1.55-4.16,1.73-4.45.47S344.22,52,345.47,51.41Z"/><path class="cls-56" d="M312.13,60.35c0,.68.84,1.45.46,1.87-.68.61-2.11,0-2.85-.67-.48-.44.19-1,.6-1.23a1.12,1.12,0,0,1,1.4-.16A3.49,3.49,0,0,1,312.13,60.35Z"/><path class="cls-57" d="M312.57,62.21a3.16,3.16,0,0,1-2.55-.84c-.48-.44.18-1,.6-1.23h0a1.36,1.36,0,0,0-.33.22c-.42.27-1.08.79-.6,1.23.74.61,2.17,1.28,2.85.67A.05.05,0,0,0,312.57,62.21Z"/><path class="cls-56" d="M309,25.31c1.2.16,2.6-.88,3.33-.3,1.06,1-.16,2.81-1.28,3.69-.8.58-1.7-.4-2.16-1s-.91-1.34-.25-1.9C308.69,25.64,308.82,25.48,309,25.31Z"/><path class="cls-57" d="M309.48,27.34c-.5-.46-.91-1.34-.25-1.9l.08-.12a2.17,2.17,0,0,1-.36,0c-.13.17-.26.33-.36.49-.66.56-.25,1.44.25,1.9s1.36,1.58,2.16,1a2.11,2.11,0,0,0,.23-.19C310.55,28.6,309.87,27.84,309.48,27.34Z"/><path class="cls-56" d="M305.76,71.19c0,.68.83,1.45.45,1.87-.68.61-2.11-.06-2.84-.67-.49-.44.18-1,.6-1.23a1.11,1.11,0,0,1,1.4-.16Z"/><path class="cls-57" d="M306.2,73.05a3.17,3.17,0,0,1-2.56-.84c-.48-.44.19-1,.6-1.23l0,0a1.45,1.45,0,0,0-.34.23c-.41.27-1.08.78-.59,1.23.73.61,2.16,1.27,2.84.66Z"/><path class="cls-56" d="M345.46,20s0,3.67-.94,2.6-2.7-3.6-1.55-4.19S344.57,18.9,345.46,20Z"/><path class="cls-56" d="M347.91,79.67c1,.14,2.11-.71,2.7-.24.86.82-.13,2.28-1,3-.64.47-1.37-.32-1.75-.81s-.73-1.09-.2-1.54C347.7,79.94,347.81,79.81,347.91,79.67Z"/><path class="cls-57" d="M348.34,81.31c-.4-.37-.74-1.08-.2-1.53l.06-.1a1.41,1.41,0,0,1-.29,0c-.1.14-.21.27-.29.4-.53.45-.2,1.17.2,1.54s1.11,1.28,1.75.81l.19-.16C349.21,82.33,348.65,81.72,348.34,81.31Z"/><path class="cls-56" d="M345.22,92.27s3.55,1,2.29,1.55-4.16,1.73-4.45.47S344,92.86,345.22,92.27Z"/><path class="cls-56" d="M341.18,60.78s1.88.51,1.22.83-2.21.92-2.37.25S340.51,61.1,341.18,60.78Z"/><path class="cls-56" d="M345.07,102.75c1,.14,2.11-.71,2.7-.24.86.82-.13,2.28-1,3-.64.47-1.37-.32-1.75-.81s-.73-1.09-.2-1.54Z"/><path class="cls-57" d="M345.5,104.4c-.4-.38-.73-1.09-.2-1.54l.06-.09a1.42,1.42,0,0,1-.29,0l-.29.4c-.53.45-.2,1.17.2,1.54s1.11,1.28,1.75.81l.19-.16C346.37,105.41,345.82,104.8,345.5,104.4Z"/><path class="cls-56" d="M336.76,188.39c.74.76,2.51.83,2.62,1.62,0,1.25-2.16,1.79-3.6,1.76-1-.05-.94-1.19-.84-1.85a1.26,1.26,0,0,1,1.2-1.4C336.33,188.47,336.54,188.43,336.76,188.39Z"/><path class="cls-57" d="M339.36,190c-.42.94-2.25,1.35-3.52,1.33-1-.05-.93-1.2-.84-1.85v0a1.65,1.65,0,0,0-.07.53c-.1.66-.16,1.8.84,1.85,1.44,0,3.64-.52,3.6-1.77C339.37,190.05,339.36,190,339.36,190Z"/><path class="cls-56" d="M341.53,131.44c1.32.18,2.87-1,3.67-.33,1.17,1.11-.18,3.1-1.41,4.07-.88.64-1.87-.44-2.38-1.1s-1-1.48-.27-2.1C341.25,131.81,341.39,131.63,341.53,131.44Z"/><path class="cls-57" d="M342.11,133.68c-.55-.51-1-1.48-.27-2.1l.09-.12a2.61,2.61,0,0,1-.4,0c-.14.19-.28.37-.39.54-.73.62-.28,1.59.27,2.1s1.5,1.74,2.38,1.1c.09-.06.17-.14.26-.21C343.3,135.07,342.54,134.23,342.11,133.68Z"/><path class="cls-56" d="M322.75,150.68s2.93.79,1.9,1.28-3.44,1.43-3.68.39S321.72,151.17,322.75,150.68Z"/><path class="cls-56" d="M320.72,138.64s2.57,1,1.57,2-3.29,2.83-3.38,1.09S319.73,139.6,320.72,138.64Z"/><path class="cls-57" d="M320.72,138.64l-.07.08c.64.29,2.05,1.07,1.27,1.82a6.91,6.91,0,0,1-2.71,1.8c.66.37,2.28-1,3.08-1.74C323.29,139.64,320.72,138.64,320.72,138.64Z"/><path class="cls-56" d="M323.5,127.73c1,.14,2.11-.71,2.7-.24.86.82-.14,2.28-1,3-.65.47-1.37-.32-1.75-.81s-.74-1.09-.2-1.54A4.41,4.41,0,0,1,323.5,127.73Z"/><path class="cls-57" d="M323.93,129.38c-.41-.38-.74-1.09-.2-1.54l.06-.09a1.37,1.37,0,0,1-.29,0,4.41,4.41,0,0,0-.29.4c-.54.45-.21,1.17.2,1.54s1.1,1.28,1.75.81l.19-.16C324.8,130.4,324.24,129.78,323.93,129.38Z"/><path class="cls-56" d="M343.62,110.31s1.88.51,1.22.83-2.21.91-2.36.25S343,110.63,343.62,110.31Z"/><path class="cls-56" d="M344.5,121.6s-1.59,2.34-2.32,1.12-2.08-3.94-.32-3.64S343.77,120.38,344.5,121.6Z"/><path class="cls-57" d="M344.5,121.6l-.06-.09c-.44.57-1.54,1.81-2.12.85a7,7,0,0,1-1.18-3.13c-.52.59.46,2.52,1,3.49C342.91,123.94,344.5,121.6,344.5,121.6Z"/><path class="cls-56" d="M341,182.17s1.88.51,1.22.83-2.21.91-2.37.25S340.37,182.49,341,182.17Z"/><path class="cls-56" d="M338,174.92c1,.13,2.11-.71,2.7-.24.86.81-.14,2.27-1,3-.65.46-1.37-.33-1.75-.82s-.74-1.08-.2-1.53A4.41,4.41,0,0,1,338,174.92Z"/><path class="cls-57" d="M338.41,176.56c-.41-.37-.74-1.09-.2-1.54l.06-.09H338a4.41,4.41,0,0,0-.29.4c-.54.45-.21,1.16.2,1.53s1.1,1.28,1.75.82l.19-.16C339.28,177.58,338.72,177,338.41,176.56Z"/><path class="cls-58" d="M631.54,258.15a6.48,6.48,0,0,0-.49-.48s-97.21-67.39-135.69-64.27-145.7,106.18-145.7,106.18c-3.56,3-4.68,6-4.79,8.36a36.49,36.49,0,0,0-1.35,9.9,41.55,41.55,0,0,0,6,21.48C361,353.19,484.76,427,497.93,431.88a19.17,19.17,0,0,0,7.65,1.23,1.37,1.37,0,0,1,0-.19c8.65-.44,13.83-7.12,13.83-7.12S626.05,317.19,634.17,305.85C652.06,280.88,634.73,261.39,631.54,258.15Z"/><path class="cls-59" d="M347.6,295.65s110.14-106.2,148.62-109.32S631.9,250.6,631.9,250.6s22.74,20.8,3.12,48.18c-8.12,11.34-114.74,120-114.74,120s-8.32,10.74-21.5,5.89-136.92-78.69-148.36-92.56C350.42,332.06,339,315.08,347.6,295.65Z"/><path class="cls-56" d="M350.51,292.51S457.74,189.45,496.22,186.33,631.9,250.6,631.9,250.6s10.4,9,0,22.53c-8.5,11.05-114.74,119.94-114.74,119.94s-8.32,10.75-21.49,5.9S358.74,320.28,347.3,306.41C347.3,306.41,342.1,299.65,350.51,292.51Z"/><path class="cls-59" d="M483.4,374.72c-1.24-.77-6.54-3.53-1.65-9.52,3.71-4.56,14.19-14.56,14.19-14.56s4.93-3.23,9.95,0c4,2.57,18.14,9.71,18.14,9.71s4.91,1.4-2.85,10.56c-6.08,7.19-9.76,10.69-9.76,10.69s-4.79,5-13.64,1.1A80.23,80.23,0,0,1,483.4,374.72Z"/><path class="cls-60" d="M482.26,374c4.08-4.78,13.68-13.95,13.68-13.95s4.93-3.23,9.95,0c3.25,2.08,13.14,7.16,16.77,9,5.59-7.49,1.37-8.7,1.37-8.7s-14.13-7.14-18.14-9.71c-5-3.23-9.95,0-9.95,0s-10.48,10-14.19,14.56C477.86,370,480.42,372.69,482.26,374Z"/><path class="cls-59" d="M442.13,350.33c-1.15-.73-6-3.38-1.41-8.88,3.52-4.18,13.4-13.33,13.4-13.33s4.63-2.93,9.25.14c3.69,2.45,16.72,9.28,16.72,9.28s4.55,1.38-2.79,9.78c-5.75,6.6-9.23,9.8-9.23,9.8s-4.52,4.56-12.69.84A74.74,74.74,0,0,1,442.13,350.33Z"/><path class="cls-60" d="M441.07,349.63c3.86-4.38,12.92-12.77,12.92-12.77s4.63-2.93,9.25.14c3,2,12.11,6.84,15.46,8.62,5.3-6.89,1.4-8.08,1.4-8.08s-13-6.83-16.73-9.28c-4.62-3.07-9.25-.14-9.25-.14s-9.88,9.15-13.4,13.33C437,345.83,439.39,348.4,441.07,349.63Z"/><path class="cls-59" d="M404.38,326.05c-1.09-.72-5.74-3.35-1.2-8.55,3.46-4,13.11-12.58,13.11-12.58a8.55,8.55,0,0,1,8.89.3c3.5,2.42,15.9,9.21,15.9,9.21s4.34,1.4-2.85,9.35c-5.65,6.24-9,9.25-9,9.25s-4.43,4.3-12.22.58A71.4,71.4,0,0,1,404.38,326.05Z"/><path class="cls-60" d="M403.38,325.36c3.78-4.14,12.63-12.05,12.63-12.05a8.55,8.55,0,0,1,8.89.3c2.84,2,11.51,6.79,14.7,8.56,5.22-6.53,1.48-7.74,1.48-7.74s-12.4-6.79-15.9-9.21a8.55,8.55,0,0,0-8.89-.3s-9.65,8.62-13.1,12.58C399.57,321.64,401.78,324.14,403.38,325.36Z"/><path class="cls-59" d="M366.13,304.05c-1-.71-5.51-3.33-1-8.3,3.4-3.79,12.88-12,12.88-12a8.28,8.28,0,0,1,8.61.41c3.37,2.4,15.29,9.16,15.29,9.16s4.19,1.42-2.9,9c-5.57,6-8.9,8.84-8.9,8.84s-4.36,4.11-11.85.39A69.05,69.05,0,0,1,366.13,304.05Z"/><path class="cls-60" d="M365.17,303.37c3.73-4,12.42-11.49,12.42-11.49a8.28,8.28,0,0,1,8.61.41c2.73,1.95,11.07,6.75,14.14,8.51,5.14-6.25,1.54-7.48,1.54-7.48s-11.92-6.76-15.28-9.16a8.28,8.28,0,0,0-8.61-.41s-9.49,8.21-12.89,12C361.54,299.71,363.64,302.17,365.17,303.37Z"/><path class="cls-59" d="M520.54,339.19c-1.25-.77-6.55-3.53-1.66-9.52,3.71-4.56,14.19-14.56,14.19-14.56s4.93-3.22,9.95,0c4,2.58,18.14,9.71,18.14,9.71s4.91,1.4-2.84,10.56c-6.09,7.19-9.77,10.69-9.77,10.69s-4.79,5-13.64,1.11A80,80,0,0,1,520.54,339.19Z"/><path class="cls-60" d="M519.39,338.46c4.08-4.78,13.68-13.95,13.68-13.95s4.93-3.22,9.95,0c3.25,2.09,13.14,7.16,16.78,9,5.58-7.5,1.36-8.71,1.36-8.71S547,317.69,543,315.11c-5-3.22-9.95,0-9.95,0s-10.47,10-14.19,14.56C515,334.44,517.56,337.16,519.39,338.46Z"/><path class="cls-59" d="M479.26,314.8c-1.15-.73-6-3.37-1.41-8.87,3.52-4.18,13.4-13.33,13.4-13.33s4.63-2.93,9.25.14c3.69,2.45,16.72,9.28,16.72,9.28s4.55,1.37-2.79,9.78c-5.75,6.59-9.23,9.8-9.23,9.8s-4.52,4.55-12.69.83A74,74,0,0,1,479.26,314.8Z"/><path class="cls-60" d="M478.21,314.11c3.85-4.39,12.91-12.78,12.91-12.78s4.63-2.93,9.25.14c3,2,12.11,6.85,15.47,8.62,5.29-6.89,1.39-8.07,1.39-8.07s-13-6.83-16.73-9.28c-4.62-3.07-9.25-.14-9.25-.14s-9.88,9.15-13.39,13.33C474.18,310.3,476.52,312.87,478.21,314.11Z"/><path class="cls-59" d="M441.45,290.66c-1.07-.71-5.64-3.3-1.17-8.41,3.39-3.89,12.89-12.37,12.89-12.37a8.41,8.41,0,0,1,8.74.3c3.44,2.38,15.64,9.06,15.64,9.06s4.27,1.37-2.81,9.19c-5.55,6.13-8.89,9.1-8.89,9.1s-4.36,4.23-12,.57A70.5,70.5,0,0,1,441.45,290.66Z"/><path class="cls-60" d="M440.47,290c3.72-4.07,12.42-11.84,12.42-11.84a8.4,8.4,0,0,1,8.74.29c2.79,1.93,11.32,6.68,14.46,8.41,5.13-6.41,1.46-7.6,1.46-7.6s-12.2-6.68-15.64-9.06a8.41,8.41,0,0,0-8.74-.3s-9.49,8.48-12.89,12.37C436.72,286.32,438.89,288.79,440.47,290Z"/><path class="cls-59" d="M403,269.22c-1-.66-5-3.05-.95-7.6,3.11-3.46,11.78-11,11.78-11a7.58,7.58,0,0,1,7.87.38c3.08,2.2,14,8.38,14,8.38s3.83,1.3-2.65,8.24c-5.08,5.45-8.13,8.08-8.13,8.08s-4,3.75-10.83.35A63.41,63.41,0,0,1,403,269.22Z"/><path class="cls-60" d="M402.08,268.59c3.4-3.62,11.35-10.5,11.35-10.5a7.55,7.55,0,0,1,7.87.38c2.49,1.77,10.12,6.17,12.92,7.77,4.71-5.71,1.42-6.83,1.42-6.83s-10.9-6.18-14-8.38a7.58,7.58,0,0,0-7.87-.38s-8.67,7.51-11.78,11C398.75,265.24,400.68,267.49,402.08,268.59Z"/><path class="cls-59" d="M555.9,309.12c-1.24-.77-6.54-3.53-1.66-9.52C558,295,568.43,285,568.43,285s4.93-3.23,10,0c4,2.57,18.14,9.71,18.14,9.71s4.91,1.4-2.84,10.56c-6.08,7.19-9.77,10.69-9.77,10.69s-4.79,5-13.63,1.11A79.85,79.85,0,0,1,555.9,309.12Z"/><path class="cls-60" d="M554.76,308.39c4.07-4.78,13.68-13.95,13.68-13.95s4.93-3.23,9.95,0c3.25,2.08,13.13,7.16,16.77,9,5.59-7.49,1.37-8.7,1.37-8.7s-14.13-7.14-18.14-9.71c-5-3.23-9.95,0-9.95,0S558,295,554.25,299.6C550.36,304.36,552.92,307.09,554.76,308.39Z"/><path class="cls-59" d="M514.63,284.73c-1.15-.73-6-3.38-1.41-8.87,3.52-4.19,13.4-13.34,13.4-13.34a8.88,8.88,0,0,1,9.25.14c3.69,2.45,16.72,9.29,16.72,9.29s4.54,1.37-2.79,9.77c-5.76,6.6-9.23,9.8-9.23,9.8s-4.53,4.56-12.69.84A74.74,74.74,0,0,1,514.63,284.73Z"/><path class="cls-60" d="M513.57,284c3.86-4.38,12.92-12.77,12.92-12.77a8.88,8.88,0,0,1,9.25.14c3,2,12.11,6.84,15.46,8.62,5.3-6.89,1.39-8.07,1.39-8.07s-13-6.83-16.72-9.29c-4.62-3.07-9.25-.14-9.25-.14s-9.88,9.15-13.4,13.34C509.54,280.23,511.88,282.8,513.57,284Z"/><path class="cls-59" d="M476.74,260.76c-1-.7-5.52-3.23-1.15-8.24,3.33-3.81,12.63-12.11,12.63-12.11a8.21,8.21,0,0,1,8.55.29c3.38,2.33,15.32,8.87,15.32,8.87s4.18,1.35-2.75,9c-5.44,6-8.71,8.91-8.71,8.91s-4.26,4.14-11.76.56A68.91,68.91,0,0,1,476.74,260.76Z"/><path class="cls-60" d="M475.78,260.1c3.64-4,12.17-11.6,12.17-11.6a8.2,8.2,0,0,1,8.55.28c2.74,1.89,11.09,6.54,14.17,8.24,5-6.28,1.42-7.45,1.42-7.45s-11.94-6.54-15.32-8.87a8.21,8.21,0,0,0-8.55-.29s-9.3,8.3-12.63,12.11C472.11,256.51,474.24,258.92,475.78,260.1Z"/><path class="cls-59" d="M438.35,239.09c-1-.66-5.08-3.07-1-7.66,3.14-3.49,11.88-11.05,11.88-11.05a7.61,7.61,0,0,1,7.93.38c3.1,2.21,14.08,8.44,14.08,8.44s3.86,1.31-2.67,8.31c-5.13,5.5-8.2,8.14-8.2,8.14s-4,3.78-10.91.36A64.23,64.23,0,0,1,438.35,239.09Z"/><path class="cls-60" d="M437.46,238.46c3.44-3.65,11.45-10.59,11.45-10.59a7.63,7.63,0,0,1,7.93.38c2.51,1.79,10.19,6.22,13,7.84,4.74-5.76,1.43-6.89,1.43-6.89s-11-6.23-14.09-8.44a7.61,7.61,0,0,0-7.93-.38s-8.74,7.56-11.88,11.05C434.11,235.08,436.05,237.35,437.46,238.46Z"/><path class="cls-59" d="M585,273.59c-1.25-.76-6.54-3.53-1.66-9.52,3.72-4.56,14.19-14.56,14.19-14.56s4.93-3.22,10,0c4,2.58,18.14,9.71,18.14,9.71s4.91,1.4-2.84,10.56C616.67,277,613,280.47,613,280.47s-4.79,5-13.64,1.11A80,80,0,0,1,585,273.59Z"/><path class="cls-60" d="M583.82,272.86c4.08-4.78,13.68-13.95,13.68-13.95s4.93-3.22,10,0c3.25,2.09,13.14,7.16,16.78,9,5.58-7.5,1.36-8.71,1.36-8.71s-14.13-7.13-18.14-9.71c-5-3.22-10,0-10,0s-10.47,10-14.19,14.56C579.43,268.84,582,271.56,583.82,272.86Z"/><path class="cls-59" d="M543.38,250c-1-.67-5.51-3.08-1.28-8.11,3.21-3.82,12.24-12.18,12.24-12.18a8.13,8.13,0,0,1,8.45.13c3.37,2.24,15.28,8.48,15.28,8.48s4.15,1.25-2.55,8.93c-5.26,6-8.44,9-8.44,9s-4.13,4.17-11.59.77A68.11,68.11,0,0,1,543.38,250Z"/><path class="cls-60" d="M542.42,249.32c3.52-4,11.8-11.67,11.8-11.67a8.13,8.13,0,0,1,8.45.13c2.73,1.82,11.06,6.25,14.13,7.88,4.84-6.3,1.27-7.38,1.27-7.38s-11.91-6.24-15.28-8.48a8.13,8.13,0,0,0-8.45-.13s-9,8.36-12.24,12.18C538.74,245.85,540.88,248.2,542.42,249.32Z"/><path class="cls-59" d="M507,226.06c-.94-.62-4.95-2.89-1-7.38,3-3.42,11.31-10.86,11.31-10.86a7.38,7.38,0,0,1,7.68.26c3,2.09,13.73,7.95,13.73,7.95s3.75,1.21-2.47,8.07c-4.87,5.39-7.8,8-7.8,8s-3.83,3.71-10.55.5A61.27,61.27,0,0,1,507,226.06Z"/><path class="cls-60" d="M506.09,225.47c3.27-3.58,10.91-10.4,10.91-10.4a7.38,7.38,0,0,1,7.67.25c2.46,1.7,10,5.87,12.7,7.39,4.5-5.63,1.28-6.68,1.28-6.68s-10.71-5.86-13.73-7.95a7.36,7.36,0,0,0-7.67-.26s-8.34,7.44-11.32,10.86S504.71,224.42,506.09,225.47Z"/><path class="cls-59" d="M474.51,209.58c-.86-.59-4.55-2.75-.86-6.85,2.81-3.13,10.64-9.9,10.64-9.9a6.81,6.81,0,0,1,7.1.34c2.78,2,12.61,7.56,12.61,7.56s3.46,1.17-2.39,7.44c-4.59,4.92-7.34,7.29-7.34,7.29s-3.6,3.39-9.78.32A57.06,57.06,0,0,1,474.51,209.58Z"/><path class="cls-60" d="M473.72,209c3.07-3.27,10.24-9.49,10.24-9.49a6.84,6.84,0,0,1,7.11.35c2.24,1.6,9.13,5.57,11.66,7,4.24-5.16,1.27-6.17,1.27-6.17s-9.83-5.58-12.61-7.56a6.81,6.81,0,0,0-7.1-.34s-7.82,6.77-10.64,9.9S472.45,208,473.72,209Z"/><path class="cls-60" d="M507.17,399.76a18.32,18.32,0,0,1-11.51-.61c-13.17-4.85-136.93-78.69-148.36-92.55a9.05,9.05,0,0,1-1.58-5.54c-4.78,17.15,4.69,31.19,4.69,31.19,11.44,13.87,135.2,87.7,148.37,92.56a19.17,19.17,0,0,0,7.65,1.23A173.86,173.86,0,0,0,507.17,399.76Z"/><path class="cls-61" d="M582.47,272.3c0-3.26-1.23-6.94-4.87-12a45.09,45.09,0,0,0,.35-4.9c0-6.44-2.22-10.33-10.33-14.21-6.65-3.82-13.3,0-20-4.77-2.22-1.92-2.22-7.65-3.33-9.56-10-11.46-7.76-8.6-23.28-12.42-7.76-1.91-21.06-8.6-28.82-8.6-6.65,0-10,4.78-15.52,5.73l-.67.18c-3.61.9-10.69,1.79-14.85,2.69l-1.58.41-.11,0-.64.16-.14,0-.59.14-.13,0-.57.12-.13,0-.57.12h-.09l-.6.12h0c-8.38,1.59-10.95.34-13,3.56h0a1.64,1.64,0,0,0-.14.22h0c0,.08-.09.16-.13.25h0a46.1,46.1,0,0,0-2.79,8c-3,12.75.41,13-8.18,16.23h0l-.3.11-.14.06-.22.08-.25.09-.2.08-.3.1-.18.07-.36.13-.13,0-.5.18h0l-1.19.43-1.17.36-.09,0-1,.32-.09,0-1,.32-.16.05-.79.25-.22.07-.88.28-.05,0-.77.25-.22.08-.66.22-.13.05-.73.25-.16.06-.56.21-.16.06-.65.25-.07,0-.54.22-.15.07-.53.22,0,0-.54.25-.11.05-.42.21-.09,0c-.17.08-.32.17-.47.25l0,0-.39.23-.1.05c-.28.18-.54.35-.78.53l-.07.06-.31.24-.05,0-.33.29,0,0a3.44,3.44,0,0,0-.27.27l-.06.06a8.14,8.14,0,0,0-.54.63l0,.06-.23.31,0,0-.23.36,0,0a3.9,3.9,0,0,0-.19.35l0,0c-.14.27-.27.54-.39.83l0,0c-1.11,2.63-1.68,6.42-3.38,12.63-3.32,15.29-7.38,26.44,5.08,38.9,8.75,8.74,2.68,25.12,10.44,32.76,12.2,12.42,25.5,8.6,41,11.47s23.28,19.11,42.12,12.42c10.66-3.34,30.26-7.45,40.94-13.53h0l.23-.13.34-.2.16-.1.39-.23.14-.09.39-.25.12-.08.39-.26.08-.06a21.64,21.64,0,0,0,1.75-1.34l0-.06.37-.42c0-.05.09-.11.14-.17l.24-.3.14-.2.2-.27.13-.2c.06-.09.12-.18.17-.27l.12-.2.15-.27.11-.19.14-.28.09-.18.13-.3.07-.16.17-.42v0c.06-.15.11-.3.16-.45l.06-.15.09-.29.06-.19c0-.09.05-.18.08-.27l.06-.18a2.76,2.76,0,0,1,.08-.27,1.21,1.21,0,0,1,0-.18c0-.14.07-.28.11-.41a.83.83,0,0,0,0-.15l.09-.3c0-.05,0-.11.05-.16a2.76,2.76,0,0,1,.08-.27c0-.05,0-.1,0-.15a9.5,9.5,0,0,1,4-5.55c3.58-3.09,6.76-4.38,9.47-5.91h0l.05,0,.13-.08c.15-.08.3-.16.44-.25l.1-.06.45-.28.06,0,.46-.3,0,0,.46-.33,0,0,.43-.34.06-.05.42-.36.06-.06a5,5,0,0,0,.41-.39l.06-.05.4-.43,0-.05c.14-.15.27-.31.4-.47l0,0a12.17,12.17,0,0,0,.8-1.11l0,0,.36-.6a.43.43,0,0,0,0-.07l.34-.62,0-.09c.11-.22.22-.44.32-.67l0-.1c.1-.24.21-.48.31-.73l0-.1c.1-.26.2-.52.3-.8l0-.07c.11-.29.21-.59.31-.9a15.36,15.36,0,0,0,.9-4.87c.09-5.17-2.71-8.88-2.83-14.2a16.6,16.6,0,0,1,.43-4.12C576.75,283.85,582.38,279,582.47,272.3Z"/><path class="cls-62" d="M574,289.85c3.33-16.24,14.17-19.13,3.09-34.42,1.11-9.55,0-14.33-10-19.11-6.65-3.82-13.3,0-20-4.77-2.22-1.91-2.22-7.65-3.33-9.56-10-11.46-7.76-8.6-23.28-12.42-7.76-1.91-21.06-8.6-28.82-8.6-6.65,0-10,4.78-15.52,5.73-3.33,1-11.09,1.92-15.52,2.87-17.74,4.78-16.79-2-21.23,13.29-3.32,14.33,1.35,12.82-12,17.6-18.85,5.74-15.6,5.42-20,21.66-3.33,15.29-7.38,26.44,5.08,38.9,8.74,8.74,2.68,25.12,10.44,32.76,12.19,12.42,25.49,8.6,41,11.47s23.28,19.11,42.13,12.42c12.19-3.82,36.07-8.64,44.94-16.28,4.43-4.78,1.93-9.06,7.47-12.89,7.76-6.68,13.62-4.95,16.94-15.46C578.84,303.49,571.8,299.41,574,289.85Z"/><path class="cls-63" d="M551.88,335.92c-3.67,2.53-3.81,5.27-4.78,8.22a25.85,25.85,0,0,0,4-2.75c2.49-2.69,2.79-5.22,3.56-7.6A31.38,31.38,0,0,0,551.88,335.92Z"/><path class="cls-63" d="M420.83,247.88c9.58-3.44,9.84-3.62,10.48-8.8-1.07.41-2.32.86-3.78,1.38-13.28,4-15.59,5.08-17.35,11A109.82,109.82,0,0,1,420.83,247.88Z"/><path class="cls-63" d="M574,289.85c3.33-16.24,14.17-19.13,3.09-34.42,1.11-9.55,0-14.33-10-19.11-6.65-3.82-13.3,0-20-4.77-2.22-1.91-2.22-7.65-3.33-9.56-10-11.46-7.76-8.6-23.28-12.42-7.76-1.91-21.06-8.6-28.82-8.6-6.65,0-10,4.78-15.52,5.73-3.33,1-11.09,1.92-15.52,2.87-16.16,4.35-16.81-.88-20.15,9.7A73.7,73.7,0,0,0,454,217c4.44-1,12.2-1.91,15.53-2.87,5.54-1,8.86-5.73,15.51-5.73,7.76,0,21.07,6.69,28.83,8.6,15.52,3.82,13.3.95,23.28,12.42,1.11,1.91,1.11,7.64,3.32,9.55,6.65,4.78,13.31,1,20,4.78,10,4.78,11.08,9.56,10,19.11,11.09,15.29.24,18.18-3.08,34.42-2.22,9.55,4.82,13.64,1.49,23.19a20.84,20.84,0,0,1-.78,2.13c3.16-1.78,5.68-3.89,7.47-9.55C578.84,303.49,571.8,299.41,574,289.85Z"/><path class="cls-64" d="M449.93,307.35c.41-.05,1.2-.22,0,0Z"/><path class="cls-56" d="M421.88,277.57s10.23,2.32,7,6.5-10.83,12.52-12.15,6S418.65,281.75,421.88,277.57Z"/><path class="cls-57" d="M421.88,277.57l-.25.32c2.59.77,8.35,2.9,5.81,6.18-2.18,2.81-6.34,7.52-9.22,8.31,2.73,1,8.08-5,10.66-8.31C432.11,279.89,421.88,277.57,421.88,277.57Z"/><path class="cls-56" d="M552,311.68s10.23,2.32,7,6.49-10.83,12.53-12.14,6S548.75,315.85,552,311.68Z"/><path class="cls-57" d="M552,311.68l-.25.32c2.59.76,8.35,2.9,5.81,6.17-2.17,2.82-6.34,7.53-9.22,8.31,2.73,1,8.08-5,10.66-8.31C562.21,314,552,311.68,552,311.68Z"/><path class="cls-56" d="M505,229.56s6.57,7.14,1.08,8.82-17.38,4.42-13.91-1.45S499.55,231.23,505,229.56Z"/><path class="cls-57" d="M505,229.56l-.42.13c1.54,1.95,4.67,6.63.36,7.94-3.7,1.13-10.31,2.75-13.17,1.89,1.49,2.21,9.94.19,14.31-1.14C511.61,236.7,505,229.56,505,229.56Z"/><path class="cls-56" d="M498.14,259.05s6.57,7.15,1.08,8.82-17.38,4.42-13.91-1.45S492.65,260.72,498.14,259.05Z"/><path class="cls-57" d="M498.14,259.05l-.42.13c1.54,1.95,4.66,6.63.35,7.95-3.7,1.12-10.31,2.74-13.16,1.88,1.48,2.21,9.93.19,14.31-1.14C504.71,266.2,498.14,259.05,498.14,259.05Z"/><path class="cls-56" d="M462.06,216.3s6.57,7.15,1.08,8.82-17.38,4.43-13.92-1.45S456.57,218,462.06,216.3Z"/><path class="cls-57" d="M462.06,216.3l-.42.13c1.54,1.95,4.66,6.64.35,7.95-3.7,1.13-10.31,2.74-13.16,1.88,1.48,2.21,9.93.19,14.31-1.14C468.63,223.45,462.06,216.3,462.06,216.3Z"/><path class="cls-56" d="M556.34,259.92s6.57,7.14,1.08,8.81-17.38,4.43-13.91-1.45S550.85,261.59,556.34,259.92Z"/><path class="cls-57" d="M556.34,259.92l-.42.13c1.54,1.95,4.66,6.63.35,7.94-3.7,1.13-10.31,2.75-13.16,1.88,1.48,2.22,9.93.2,14.31-1.14C562.91,267.06,556.34,259.92,556.34,259.92Z"/><path class="cls-56" d="M523.65,281.36s6.57,7.15,1.08,8.82-17.38,4.42-13.91-1.45S518.16,283,523.65,281.36Z"/><path class="cls-57" d="M523.65,281.36l-.42.13c1.54,1.95,4.66,6.63.35,7.95-3.7,1.12-10.31,2.74-13.16,1.88,1.48,2.21,9.93.19,14.31-1.14C530.22,288.51,523.65,281.36,523.65,281.36Z"/><path class="cls-56" d="M438.88,259.17c2.47,1.87,7.57,1.32,8.2,3.52.64,3.57-5.41,6-9.56,6.59-2.87.28-3.18-3-3.18-4.94a3.67,3.67,0,0,1,2.84-4.53C437.7,259.59,438.28,259.38,438.88,259.17Z"/><path class="cls-57" d="M436.46,264.34a3.67,3.67,0,0,1,2.85-4.53l.37-.16a4.84,4.84,0,0,1-.8-.48c-.6.21-1.18.42-1.7.64a3.67,3.67,0,0,0-2.84,4.53c0,1.92.31,5.22,3.18,4.94.29,0,.59-.08.89-.14C436.68,268.49,436.46,265.94,436.46,264.34Z"/><path class="cls-56" d="M485.64,216.46c3.16-.8,5.33-4.82,7.83-4.11,3.85,1.43,3.06,7.17,1.39,10.48-1.25,2.24-4.66.72-6.55-.3-1.79-.64-3.88-2.42-2.94-4.49C485.43,217.55,485.54,217,485.64,216.46Z"/><path class="cls-57" d="M489.44,221c-1.79-.65-3.88-2.43-2.94-4.49,0-.12,0-.23.05-.36a4.7,4.7,0,0,1-.91.33c-.1.56-.21,1.08-.27,1.58-.94,2.07,1.15,3.85,2.94,4.49,1.89,1,5.3,2.54,6.55.3a7.89,7.89,0,0,0,.33-.72C493.63,223,491,221.83,489.44,221Z"/><path class="cls-56" d="M522.45,221.23c3.16-.8,5.33-4.82,7.83-4.11,3.85,1.43,3.06,7.17,1.39,10.48-1.25,2.24-4.66.72-6.55-.3-1.79-.64-3.88-2.42-2.94-4.49C522.24,222.31,522.35,221.79,522.45,221.23Z"/><path class="cls-57" d="M526.25,225.75c-1.79-.65-3.88-2.43-2.94-4.49,0-.12,0-.23.05-.36a4.7,4.7,0,0,1-.91.33c-.1.56-.21,1.08-.27,1.58-.94,2.07,1.15,3.85,2.94,4.49,1.89,1,5.3,2.54,6.55.3a7.89,7.89,0,0,0,.33-.72C530.44,227.79,527.82,226.6,526.25,225.75Z"/><path class="cls-56" d="M557.3,248.14c1.33-2.6-.82-6.62,1.42-7.81,3.76-1.6,8.32,2.63,10.18,5.87,1.17,2.27-2.38,3.53-4.5,4.11-1.73.76-4.66,1-5.87-1C558.12,249,557.73,248.57,557.3,248.14Z"/><path class="cls-57" d="M563.75,248.56c-1.72.76-4.65,1-5.87-1l-.28-.26a4,4,0,0,1-.3.81c.43.43.82.84,1.23,1.2,1.21,1.95,4.14,1.73,5.87,1,2.12-.58,5.67-1.84,4.5-4.11q-.2-.34-.42-.69C568.27,247.13,565.52,248.08,563.75,248.56Z"/><path class="cls-56" d="M467.74,234.48c2.46,1.88,7.56,1.33,8.2,3.52.64,3.58-5.42,6.05-9.56,6.6-2.87.27-3.19-3-3.19-4.95a3.67,3.67,0,0,1,2.85-4.53C466.56,234.9,467.13,234.7,467.74,234.48Z"/><path class="cls-57" d="M465.32,239.65a3.67,3.67,0,0,1,2.84-4.53l.38-.15a4.28,4.28,0,0,1-.8-.49c-.61.22-1.18.42-1.7.64a3.67,3.67,0,0,0-2.85,4.53c0,1.93.32,5.22,3.19,4.95l.89-.14C465.54,243.8,465.32,241.25,465.32,239.65Z"/><path class="cls-56" d="M474.17,251.48c2.47,1.88,7.57,1.33,8.21,3.53.63,3.57-5.42,6-9.56,6.59-2.87.28-3.19-3-3.19-4.94a3.67,3.67,0,0,1,2.84-4.53C473,251.9,473.57,251.7,474.17,251.48Z"/><path class="cls-57" d="M471.75,256.66a3.67,3.67,0,0,1,2.85-4.53L475,252a4.72,4.72,0,0,1-.81-.49c-.6.22-1.18.42-1.7.65a3.67,3.67,0,0,0-2.84,4.53c0,1.92.32,5.22,3.19,4.94.28,0,.58-.08.88-.14C472,260.81,471.75,258.26,471.75,256.66Z"/><path class="cls-56" d="M522.21,314.94c3.29,0,6.65-3.38,8.83-2.12,3.25,2.28.68,7.61-2,10.42-1.91,1.86-4.71-.41-6.21-1.83-1.52-1-3-3.24-1.41-5C521.66,315.94,521.93,315.45,522.21,314.94Z"/><path class="cls-57" d="M524.44,320.18c-1.52-1-3-3.24-1.41-5,.05-.1.1-.22.16-.33a5.43,5.43,0,0,1-1,.1c-.28.51-.55,1-.76,1.46-1.56,1.77-.1,4,1.41,5,1.5,1.42,4.3,3.69,6.21,1.83.19-.2.37-.41.55-.62C527.83,323.13,525.68,321.37,524.44,320.18Z"/><path class="cls-56" d="M441.27,327.05c3.29,0,6.64-3.39,8.83-2.13,3.25,2.28.68,7.62-2,10.42-1.91,1.86-4.71-.4-6.21-1.83-1.52-1-3-3.24-1.41-5C440.72,328,441,327.56,441.27,327.05Z"/><path class="cls-57" d="M443.5,332.28c-1.52-1-3-3.24-1.41-5l.15-.33a6.38,6.38,0,0,1-1,.1c-.28.51-.55,1-.76,1.46-1.56,1.76-.11,4,1.41,5,1.5,1.43,4.3,3.69,6.21,1.83.19-.2.37-.4.55-.62C446.89,335.23,444.74,333.47,443.5,332.28Z"/><path class="cls-56" d="M441.59,307.33c2.47,1.88,7.57,1.33,8.21,3.53.63,3.57-5.42,6-9.57,6.59-2.86.27-3.18-3-3.18-4.95a3.68,3.68,0,0,1,2.84-4.53C440.41,307.75,441,307.55,441.59,307.33Z"/><path class="cls-57" d="M449.73,310.88c-.8,2.86-5.88,4.81-9.5,5.29-2.87.28-3.18-3-3.18-4.94,0,0,0-.06,0-.09a4.46,4.46,0,0,0,0,1.55c0,1.93.31,5.22,3.18,4.95,4.15-.55,10.2-3,9.56-6.6A.52.52,0,0,0,449.73,310.88Z"/><path class="cls-56" d="M502.94,319.15c.25,2.83,4.35,5.5,3,7.46-2.43,2.94-8.77,1.07-12.18-1-2.28-1.53.16-4.08,1.72-5.46,1.1-1.37,3.56-2.76,5.7-1.53C501.76,318.74,502.33,318.94,502.94,319.15Z"/><path class="cls-57" d="M505.9,326.59c-2.89,1.57-8.11-.09-11.09-1.92-2.28-1.53.16-4.08,1.72-5.46l.06-.07a5.48,5.48,0,0,0-1.25,1.12c-1.55,1.38-4,3.93-1.72,5.46,3.42,2.09,9.76,4,12.19,1A.6.6,0,0,0,505.9,326.59Z"/><path class="cls-56" d="M473,272.68c.25,2.83,4.35,5.5,3,7.46-2.43,2.94-8.77,1.07-12.18-1-2.28-1.53.16-4.08,1.72-5.46,1.1-1.37,3.56-2.76,5.7-1.53C471.85,272.27,472.42,272.47,473,272.68Z"/><path class="cls-57" d="M476,280.12c-2.89,1.57-8.11-.09-11.09-1.92-2.28-1.53.16-4.08,1.72-5.46l.06-.07a5.72,5.72,0,0,0-1.25,1.12c-1.55,1.38-4,3.93-1.71,5.46,3.41,2.1,9.75,4,12.18,1A.6.6,0,0,0,476,280.12Z"/><path class="cls-56" d="M475.09,326.41s10.4,1.22,7.11,3.42-11,6.6-12.34,3.18S471.81,328.61,475.09,326.41Z"/><path class="cls-56" d="M535.13,240.69s10.4,1.22,7.11,3.42-11,6.6-12.34,3.17S531.84,242.89,535.13,240.69Z"/><path class="cls-56" d="M520.84,260.3s10.4,1.23,7.11,3.43-11,6.59-12.34,3.17S517.56,262.5,520.84,260.3Z"/><path class="cls-56" d="M568.44,279.63s2.22,8.84-1.3,6.93-10.95-6.67-7.68-8.92S564.93,277.72,568.44,279.63Z"/><path class="cls-56" d="M550.14,292.49s10.39,1.22,7.11,3.42-11,6.6-12.34,3.18S546.85,294.69,550.14,292.49Z"/><path class="cls-56" d="M481.73,292.49s10.4,1.22,7.12,3.42-11,6.6-12.35,3.18S478.45,294.69,481.73,292.49Z"/><path class="cls-56" d="M517.45,336s10.39,1.22,7.11,3.42-11,6.6-12.34,3.18S514.16,338.24,517.45,336Z"/><path class="cls-56" d="M444.85,282.76s8.21,1,5.62,2.7-8.69,5.21-9.74,2.5S442.26,284.49,444.85,282.76Z"/><path class="cls-56" d="M436.1,239.55s8.2,1,5.61,2.7-8.69,5.21-9.74,2.51S433.5,241.28,436.1,239.55Z"/></g></g></g></svg>