<svg xmlns="http://www.w3.org/2000/svg" xmlns:xlink="http://www.w3.org/1999/xlink" width="99" height="198" viewBox="0 0 99 198"><defs><style>.cls-1,.cls-11,.cls-14,.cls-7{fill:none;}.cls-2{clip-path:url(#clip-path);}.cls-15,.cls-3{fill:#fff;}.cls-3{stroke:#668ca3;stroke-width:2px;}.cls-11,.cls-14,.cls-3,.cls-7{stroke-miterlimit:10;}.cls-4{fill:#668ca3;}.cls-5{fill:#ceab76;}.cls-6{fill:#fbb25c;}.cls-7{stroke:#f4cba2;}.cls-8{fill:#f4cba2;}.cls-9{fill:#fdc58b;}.cls-10{fill:#86d0cb;}.cls-11{stroke:#addedd;}.cls-12{fill:#aededd;}.cls-13{fill:#ede3c8;}.cls-14{stroke:#fff;}.cls-16{fill:#d8b67b;}.cls-17{fill:#e4d59d;}.cls-18{fill:#f4e6c0;}.cls-19{fill:#f7b22f;}.cls-20{fill:url(#linear-gradient);}.cls-21{fill:url(#linear-gradient-2);}.cls-22{fill:#fbdea9;}</style><clipPath id="clip-path"><rect class="cls-1" x="-1.73" y="2.21" width="102.28" height="198.79"/></clipPath><linearGradient id="linear-gradient" x1="-515.13" y1="-1452.99" x2="-515.1" y2="-1454.84" gradientTransform="matrix(1, 0, 0, -1, 564, -1398)" gradientUnits="userSpaceOnUse"><stop offset="0" stop-color="#f7b22f"/><stop offset="1" stop-color="#d5992d"/></linearGradient><linearGradient id="linear-gradient-2" x1="-515.61" y1="-1574.42" x2="-515.51" y2="-1580.44" xlink:href="#linear-gradient"/></defs><g id="Layer_5" data-name="Layer 5"><g class="cls-2"><path class="cls-3" d="M71.74,3.13c-.06.38-.14.94-.25,1.63-1,6.61-1.67,10.63-2.35,14.83-3.69,22.78-2.62,21.51-3.3,23.64a4.14,4.14,0,0,0-.23,2.36c.27.67.94.67,2.12.63,2.39-.09,2.94.24,3.35,0,0,0,.12-.22.21-.19.25.09.17,1.65.26,1.68s1.37-10.53,2.76-20.08c.86-6,1.53-9.48,2.7-18.39.25-1.81.43-3.31.56-4.3Z"/><path class="cls-4" d="M77.28,8.32l.46-2.81L71,8.82l-.56,3.63Z"/><path class="cls-3" d="M71.67,3.69c-.46-.63.36-1.06.92-1.18a4.63,4.63,0,0,1,3.14.7c.94.52,1.84,1.16,1.84,1.16l-.77-.51a2.63,2.63,0,0,1,.8.72c.21.38-.18.51-.58.65a4.36,4.36,0,0,1-2.33-.09C74.4,5.05,72.24,4.46,71.67,3.69Z"/><path class="cls-4" d="M75.92,17.14l.55-3.86-7,4.35-.57,3.63Z"/><path class="cls-4" d="M74.7,25.71,75.28,22l-7,4.35-.58,3.55Z"/><path class="cls-4" d="M73.35,34.13l.58-3.76-7,4.36-.58,3.54Z"/><path class="cls-5" d="M72.6,38.64l.53-3-6.91,3.31-.54,2.83Z"/><path class="cls-6" d="M38.18,24.18a21.1,21.1,0,0,1,5.36-4,20.59,20.59,0,0,1,11.81-2,19.81,19.81,0,0,1,8.33,3.12,19,19,0,0,1,6.46,7.41,19.92,19.92,0,0,1,2,7.91,17.38,17.38,0,0,1-1,8.07c-.62,1.56-1.94,4.82-4.92,6.31-2.45,1.22-4.46.48-8.33-.08-11.55-1.68-15,1.82-19.81-1.69a14.74,14.74,0,0,1-4.33-5.46,14.58,14.58,0,0,1-1-4.71,18.25,18.25,0,0,1,.68-7.42A18.31,18.31,0,0,1,38.18,24.18Z"/><path class="cls-7" d="M45.05,29.16c-.41.25-.48.35-.5.44-.16.42.22,1,.63,1.26a1.55,1.55,0,0,0,1,.26,1.58,1.58,0,0,0,.93-.38,1.47,1.47,0,0,0,.35-.55,1.43,1.43,0,0,0,0-.65,1.29,1.29,0,0,0-.26-.57,1.27,1.27,0,0,0-.51-.38C46.26,28.44,45.85,28.68,45.05,29.16Z"/><path class="cls-7" d="M46.64,39.32a1.27,1.27,0,0,1,.28-.7,1.41,1.41,0,0,1,.61-.44,1.47,1.47,0,0,1,.59-.06,1.55,1.55,0,0,1,.56.19,1.18,1.18,0,0,1,.57.69,1.37,1.37,0,0,1,0,.57,1.32,1.32,0,0,1-.29.5s-.73.88-1.53.57a1.28,1.28,0,0,1-.76-1.32Z"/><path class="cls-7" d="M59.52,43.57a.66.66,0,0,1,.16-.35A.67.67,0,0,1,60,43a.89.89,0,0,1,.43,0,.94.94,0,0,1,.34.25.68.68,0,0,1,.18.29.66.66,0,0,1,0,.34.74.74,0,0,1-.85.38.72.72,0,0,1-.45-.26.7.7,0,0,1-.17-.49Z"/><path class="cls-7" d="M41.2,37.89a.87.87,0,0,1,.54.15.81.81,0,0,1,.3,1,.84.84,0,0,1-.33.39A1,1,0,0,1,40.35,39,.92.92,0,0,1,41.2,37.89Z"/><path class="cls-8" d="M60,33a.48.48,0,0,1,.06-.24.49.49,0,0,1,.16-.19.63.63,0,0,1,.3-.13.59.59,0,0,1,.32,0,.55.55,0,0,1,.23.2.6.6,0,0,1,.08.29.57.57,0,0,1-.15.3.49.49,0,0,1-.29.16.61.61,0,0,1-.44-.07A.65.65,0,0,1,60,33Z"/><path class="cls-8" d="M64.07,30.37a.41.41,0,0,1,.05-.21.39.39,0,0,1,.14-.17.66.66,0,0,1,.27-.12.57.57,0,0,1,.29,0,.41.41,0,0,1,.21.18.44.44,0,0,1,.07.26.49.49,0,0,1-.13.27.51.51,0,0,1-.26.14.55.55,0,0,1-.4-.06A.51.51,0,0,1,64.07,30.37Z"/><path class="cls-8" d="M64.83,35.73a.42.42,0,0,1,.06-.21.39.39,0,0,1,.14-.17.66.66,0,0,1,.27-.12.57.57,0,0,1,.29,0,.45.45,0,0,1,.21.18.44.44,0,0,1,.07.26.57.57,0,0,1-.13.27.51.51,0,0,1-.26.14.54.54,0,0,1-.65-.39Z"/><path class="cls-8" d="M66.72,47.67a.51.51,0,0,1,.06-.21.49.49,0,0,1,.14-.18.54.54,0,0,1,.27-.11.7.7,0,0,1,.29,0,.52.52,0,0,1,.21.18.41.41,0,0,1-.06.53.46.46,0,0,1-.26.15A.55.55,0,0,1,67,48,.59.59,0,0,1,66.72,47.67Z"/><path class="cls-8" d="M67.6,45.37a.42.42,0,0,1,.05-.22.39.39,0,0,1,.14-.17.66.66,0,0,1,.27-.12.57.57,0,0,1,.29,0,.46.46,0,0,1,.28.44.49.49,0,0,1-.13.27.54.54,0,0,1-.9-.24Z"/><path class="cls-7" d="M66.83,42a1.06,1.06,0,0,1,.58.54.94.94,0,0,1,0,.76.89.89,0,0,1-.35.32,1,1,0,0,1-.47.09"/><path class="cls-8" d="M54.27,41.88a.35.35,0,0,1,0-.14.48.48,0,0,1,.09-.11.45.45,0,0,1,.18-.07.4.4,0,0,1,.19,0,.28.28,0,0,1,.14.12.34.34,0,0,1,.05.17.37.37,0,0,1-.08.18.4.4,0,0,1-.17.09.34.34,0,0,1-.14,0l-.13,0a.48.48,0,0,1-.11-.09A.5.5,0,0,1,54.27,41.88Z"/><path class="cls-7" d="M50.08,45.77a1,1,0,0,1,.37-.63.58.58,0,0,1,.29-.12.48.48,0,0,1,.31,0,.88.88,0,0,1,.4.76"/><path class="cls-7" d="M38.28,44.18a1.06,1.06,0,0,1-.36-.64.55.55,0,0,1,0-.31.63.63,0,0,1,.19-.24,1,1,0,0,1,.44-.1A.94.94,0,0,1,39,43"/><path class="cls-8" d="M48.33,34.59a.25.25,0,0,1,0-.14.31.31,0,0,1,.09-.11.36.36,0,0,1,.18-.07.41.41,0,0,1,.19,0,.37.37,0,0,1,.13.12.26.26,0,0,1,0,.17.37.37,0,0,1-.08.18.32.32,0,0,1-.17.09.33.33,0,0,1-.14,0,.29.29,0,0,1-.13,0,.43.43,0,0,1-.1-.09A.31.31,0,0,1,48.33,34.59Z"/><path class="cls-8" d="M35.24,38.15a.23.23,0,0,1,0-.14.31.31,0,0,1,.09-.11.29.29,0,0,1,.18-.07.31.31,0,0,1,.19,0,.36.36,0,0,1,.14.11.39.39,0,0,1,0,.18.3.3,0,0,1-.08.17.27.27,0,0,1-.17.1h-.14l-.13-.05a.47.47,0,0,1-.1-.1A.27.27,0,0,1,35.24,38.15Z"/><path class="cls-7" d="M39,33.72a1.23,1.23,0,0,1-.41-.57.39.39,0,0,1,0-.26.41.41,0,0,1,.17-.2,1.2,1.2,0,0,1,.42,0,1,1,0,0,1,.4.15"/><path class="cls-8" d="M42.71,24a.23.23,0,0,1,0-.14.31.31,0,0,1,.09-.11.36.36,0,0,1,.18-.07.31.31,0,0,1,.19,0,.3.3,0,0,1,.13.12.26.26,0,0,1,0,.17.3.3,0,0,1-.08.18.31.31,0,0,1-.17.09.22.22,0,0,1-.14,0,.35.35,0,0,1-.13,0,.28.28,0,0,1-.1-.09A.31.31,0,0,1,42.71,24Z"/><path class="cls-8" d="M36.47,28.15a.35.35,0,0,1,0-.14.52.52,0,0,1,.1-.11.36.36,0,0,1,.17-.07.44.44,0,0,1,.2,0,.37.37,0,0,1,.13.12.34.34,0,0,1,0,.17.37.37,0,0,1-.08.18.35.35,0,0,1-.17.09.22.22,0,0,1-.14,0,.29.29,0,0,1-.13-.05.22.22,0,0,1-.1-.09A.31.31,0,0,1,36.47,28.15Z"/><path class="cls-7" d="M54.64,35.73c-.08.32-.07.41,0,.47.12.29.6.4.95.34a1.06,1.06,0,0,0,.62-.34,1.08,1.08,0,0,0,.29-.65,1,1,0,0,0-.39-.8.9.9,0,0,0-.41-.16.77.77,0,0,0-.45,0C54.91,34.78,54.82,35.1,54.64,35.73Z"/><path class="cls-9" d="M42.71,22a5.28,5.28,0,0,0-3,1.64c-.81.89-1.22,2-1.06,2.12s.8-.95,2.39-1.87c.54-.29,1.09-.55,1.66-.79,1.55-.67,2.16-.81,2.14-1S43.74,21.83,42.71,22Z"/><path class="cls-7" d="M52.31,22.65a1.14,1.14,0,0,1,.39-.58.43.43,0,0,1,.5,0,1,1,0,0,1,.18.38.85.85,0,0,1,0,.42"/><path class="cls-7" d="M59.44,26c.19.12.25.13.3.12.21,0,.38-.3.41-.53a.73.73,0,0,0-.09-.48.75.75,0,0,0-.37-.31.67.67,0,0,0-.31,0,.69.69,0,0,0-.29.12.63.63,0,0,0-.2.23.61.61,0,0,0,0,.3C58.86,25.59,59.05,25.71,59.44,26Z"/><path class="cls-8" d="M53.75,29.73a.81.81,0,0,1,.08-.34.92.92,0,0,1,.24-.28.83.83,0,0,1,.43-.18A.81.81,0,0,1,55,29a.72.72,0,0,1,.33.29.69.69,0,0,1,.12.42.73.73,0,0,1-.21.43.85.85,0,0,1-.42.24A.87.87,0,0,1,53.75,29.73Z"/><path class="cls-9" d="M33.45,34.88a7.76,7.76,0,0,0,.27,5c.69,1.77,1.92,3.29,2.18,3.21s-.75-1.82-.95-4.54a24,24,0,0,1,0-2.68c.1-2.45.32-3.3.09-3.42S33.87,33.49,33.45,34.88Z"/><path class="cls-10" d="M54.38,38.53a21,21,0,0,1,5.35-4A21.81,21.81,0,0,1,64.23,33,20.1,20.1,0,0,1,71.56,32a17.25,17.25,0,0,1,6.2,1.85,19.46,19.46,0,0,1,8.57,9.18,21.86,21.86,0,0,1,2,7.91,18.18,18.18,0,0,1-1,8.07c-2.52,6.53-8.7,9.51-11.28,10.76a20.58,20.58,0,0,1-3.66,1.43c-1.37.37-8.74,2.19-14.78-1.94-4.36-3-6.33-7.86-7.67-11.17a14.27,14.27,0,0,1-1-4.71,18.14,18.14,0,0,1,.68-7.4A18.32,18.32,0,0,1,54.38,38.53Z"/><path class="cls-11" d="M68.89,39.87c-.19.05-1.08.25-1.22.72s.82.89.87.91a3.75,3.75,0,0,0,2.6-.09c.37-.19.65-.52.52-.86s-.92-.65-1-.69a3.89,3.89,0,0,0-1.73,0Z"/><path class="cls-11" d="M61.19,45.58c-.19.05-1.08.25-1.22.72s.82.89.87.91a3.81,3.81,0,0,0,2.6-.09c.37-.2.65-.52.52-.87s-.92-.65-1-.68a3.89,3.89,0,0,0-1.73,0Z"/><path class="cls-11" d="M77.14,44.8a1.47,1.47,0,0,0-.92,1,1.45,1.45,0,0,0,.66,1.3,1.6,1.6,0,0,0,1,.26,1.58,1.58,0,0,0,1-.39,1.38,1.38,0,0,0,.36-.57A1.28,1.28,0,0,0,79,45.19a1.42,1.42,0,0,0-.51-.4,1.66,1.66,0,0,0-.66-.14A1.81,1.81,0,0,0,77.14,44.8Z"/><path class="cls-11" d="M70.37,48.08a1.05,1.05,0,0,0-.69.72,1,1,0,0,0,.5.91,1.33,1.33,0,0,0,.75.19,1.37,1.37,0,0,0,.72-.28,1.07,1.07,0,0,0,.26-.4.93.93,0,0,0,0-.47,1.07,1.07,0,0,0-.21-.41,1.11,1.11,0,0,0-.87-.36,1.16,1.16,0,0,0-.49.1Z"/><path class="cls-11" d="M75.28,51.13a.59.59,0,0,1,.07-.29.58.58,0,0,1,.18-.23.82.82,0,0,1,.36-.15.74.74,0,0,1,.39,0,.66.66,0,0,1,.28.24.54.54,0,0,1-.08.72.64.64,0,0,1-.35.19.71.71,0,0,1-.53-.09.73.73,0,0,1-.32-.43Z"/><path class="cls-11" d="M58.72,52a.62.62,0,0,1,.25-.52.68.68,0,0,1,.36-.15.75.75,0,0,1,.39,0,.72.72,0,0,1,.28.24.63.63,0,0,1,.09.35.7.7,0,0,1-.17.37.75.75,0,0,1-.35.19.76.76,0,0,1-.53-.09A.73.73,0,0,1,58.72,52Z"/><path class="cls-11" d="M60.8,41.35a1.39,1.39,0,0,1,0-.9.53.53,0,0,1,.52-.4,1.18,1.18,0,0,1,.5.22,1.1,1.1,0,0,1,.35.42"/><path class="cls-11" d="M55.33,45.87a1.34,1.34,0,0,1-.41-.83.74.74,0,0,1,.07-.39.75.75,0,0,1,.27-.29,1.22,1.22,0,0,1,.57-.07,1.19,1.19,0,0,1,.52.21"/><path class="cls-11" d="M76.24,57.28A2.88,2.88,0,0,1,76.71,56c.06-.08.39-.49.75-.18a2.37,2.37,0,0,1,.49,1.6"/><path class="cls-11" d="M62.29,61.44a1.55,1.55,0,0,1,1-.5,1,1,0,0,1,.48.07,1,1,0,0,1,.39.3,1.32,1.32,0,0,1,.16.64,1.29,1.29,0,0,1-.19.63"/><path class="cls-11" d="M73.47,62.94a1,1,0,0,1,0-.35.78.78,0,0,1,.12-.32.7.7,0,0,1,.26-.28.78.78,0,0,1,.37-.09.68.68,0,0,1,.61.4"/><path class="cls-11" d="M81.59,59.22a1,1,0,0,0-.09.48,1,1,0,0,0,.15.46,1,1,0,0,0,1,.29,1.16,1.16,0,0,0,.61-.38,1.08,1.08,0,0,0,.27-.66.86.86,0,0,0-.1-.44,1,1,0,0,0-.31-.34,1.26,1.26,0,0,0-.43-.13.93.93,0,0,0-.43.07,1.16,1.16,0,0,0-.39.26,1.06,1.06,0,0,0-.24.39Z"/><path class="cls-12" d="M79.81,53.63a.54.54,0,0,1,.2-.38.47.47,0,0,1,.27-.12.57.57,0,0,1,.29,0,.52.52,0,0,1,.21.18.48.48,0,0,1,.07.26.49.49,0,0,1-.13.27.46.46,0,0,1-.26.15.59.59,0,0,1-.41-.06A.57.57,0,0,1,79.81,53.63Z"/><path class="cls-12" d="M84.06,50.49a.54.54,0,0,1,0-.21.5.5,0,0,1,.15-.17.61.61,0,0,1,.27-.12.72.72,0,0,1,.29,0,.58.58,0,0,1,.2.18.5.5,0,0,1,.08.27.57.57,0,0,1-.13.27.51.51,0,0,1-.26.14.58.58,0,0,1-.41-.06A.54.54,0,0,1,84.06,50.49Z"/><path class="cls-12" d="M75.46,39.06a.59.59,0,0,1,.05-.22.59.59,0,0,1,.15-.17.5.5,0,0,1,.26-.11.48.48,0,0,1,.29,0,.46.46,0,0,1,.21.18.41.41,0,0,1,.07.26.45.45,0,0,1-.12.27.49.49,0,0,1-.27.15.57.57,0,0,1-.4-.07A.49.49,0,0,1,75.46,39.06Z"/><path class="cls-12" d="M80.66,42a.54.54,0,0,1,0-.22.39.39,0,0,1,.14-.17.66.66,0,0,1,.27-.12.7.7,0,0,1,.29,0,.53.53,0,0,1,.21.18.42.42,0,0,1,.07.27.47.47,0,0,1-.12.27.54.54,0,0,1-.27.14.56.56,0,0,1-.4-.06A.51.51,0,0,1,80.66,42Z"/><path class="cls-12" d="M78.3,61.71a.42.42,0,0,1,0-.16.3.3,0,0,1,.12-.13.4.4,0,0,1,.2-.09.37.37,0,0,1,.23,0,.43.43,0,0,1,.16.14.46.46,0,0,1,0,.2.35.35,0,0,1-.1.21.31.31,0,0,1-.2.11.42.42,0,0,1-.31,0A.41.41,0,0,1,78.3,61.71Z"/><path class="cls-12" d="M73.17,59a.33.33,0,0,1,0-.17.35.35,0,0,1,.11-.13.4.4,0,0,1,.21-.09.42.42,0,0,1,.22,0,.34.34,0,0,1,.16.13A.37.37,0,0,1,74,59a.38.38,0,0,1-.1.2.4.4,0,0,1-.51.07A.43.43,0,0,1,73.17,59Z"/><path class="cls-12" d="M67.18,57.74a.43.43,0,0,1,0-.19.48.48,0,0,1,.37-.26.57.57,0,0,1,.26,0,.42.42,0,0,1,.19.16.5.5,0,0,1,.06.24A.39.39,0,0,1,68,58a.41.41,0,0,1-.23.13A.47.47,0,0,1,67.4,58,.49.49,0,0,1,67.18,57.74Z"/><path class="cls-12" d="M66.61,64.7a.32.32,0,0,1,0-.16.35.35,0,0,1,.11-.13.4.4,0,0,1,.21-.09.34.34,0,0,1,.22,0,.38.38,0,0,1,.22.34.41.41,0,0,1-.1.21.36.36,0,0,1-.21.11.4.4,0,0,1-.3,0A.37.37,0,0,1,66.61,64.7Z"/><path class="cls-12" d="M60.11,63.77a.35.35,0,0,1,0-.17.33.33,0,0,1,.11-.13.67.67,0,0,1,.21-.09.42.42,0,0,1,.22,0,.43.43,0,0,1,.16.14.36.36,0,0,1,.06.2.41.41,0,0,1-.1.21.43.43,0,0,1-.21.11.4.4,0,0,1-.3,0A.43.43,0,0,1,60.11,63.77Z"/><path class="cls-12" d="M58.61,58.15a.47.47,0,0,1,0-.17.37.37,0,0,1,.12-.13.4.4,0,0,1,.2-.09.45.45,0,0,1,.23,0,.4.4,0,0,1,.16.13.5.5,0,0,1,0,.21.32.32,0,0,1-.1.2.37.37,0,0,1-.2.12.48.48,0,0,1-.31-.05A.47.47,0,0,1,58.61,58.15Z"/><path class="cls-12" d="M66.77,36.87a.33.33,0,0,1,0-.17.28.28,0,0,1,.11-.13.4.4,0,0,1,.21-.09.55.55,0,0,1,.22,0,.38.38,0,0,1,.22.34.41.41,0,0,1-.1.21.43.43,0,0,1-.51.06A.38.38,0,0,1,66.77,36.87Z"/><path class="cls-12" d="M69.67,33.8a.47.47,0,0,1,0-.16.37.37,0,0,1,.12-.13.4.4,0,0,1,.2-.09.6.6,0,0,1,.23,0,.43.43,0,0,1,.16.14.46.46,0,0,1,0,.2.35.35,0,0,1-.1.21.31.31,0,0,1-.2.11.37.37,0,0,1-.31-.05A.41.41,0,0,1,69.67,33.8Z"/><path class="cls-12" d="M67,34a.33.33,0,0,1,0-.17.47.47,0,0,1,.11-.13.4.4,0,0,1,.21-.09.55.55,0,0,1,.22,0,.38.38,0,0,1,.22.34.41.41,0,0,1-.1.21.33.33,0,0,1-.2.11.37.37,0,0,1-.31,0A.38.38,0,0,1,67,34Z"/><path class="cls-13" d="M16,41.47a25.44,25.44,0,0,1,6.51-4.81A25,25,0,0,1,36.85,34.2,24.14,24.14,0,0,1,47,38a23.2,23.2,0,0,1,7.85,9,24.17,24.17,0,0,1,2.38,9.61A21,21,0,0,1,56,66.42c-.76,1.9-2.36,5.86-6,7.66-3,1.49-5.42.58-10.13-.1-14-2-18.28,2.23-24.07-2a17.75,17.75,0,0,1-5.26-6.64,17.76,17.76,0,0,1-1.25-5.73,22,22,0,0,1,.82-9A22.3,22.3,0,0,1,16,41.47Z"/><path class="cls-14" d="M26.87,67.57a.93.93,0,0,1,.09-.4.8.8,0,0,1,.27-.31,1,1,0,0,1,.49-.22,1.1,1.1,0,0,1,.54.06.92.92,0,0,1,.52.82.94.94,0,0,1-.24.5.92.92,0,0,1-.49.27A1,1,0,0,1,26.87,67.57Z"/><path class="cls-14" d="M15.25,65.32a1.19,1.19,0,0,1,.21-.44,1.11,1.11,0,0,1,.36-.32,1,1,0,0,1,.45-.16,1.13,1.13,0,0,1,.48,0,1,1,0,0,1,.44.38,1.05,1.05,0,0,1,.18.54"/><path class="cls-15" d="M22.25,71.51a.33.33,0,0,1,.15-.28.34.34,0,0,1,.2-.09.5.5,0,0,1,.21,0,.34.34,0,0,1,.15.14.33.33,0,0,1,.06.19.37.37,0,0,1-.09.2.45.45,0,0,1-.19.11h-.16l-.14,0a.43.43,0,0,1-.12-.11A.37.37,0,0,1,22.25,71.51Z"/><path class="cls-14" d="M29.19,49.5c-.5.3-.58.44-.62.54-.2.51.27,1.2.77,1.53a1.93,1.93,0,0,0,2.33-.15,1.67,1.67,0,0,0,.41-.67,1.63,1.63,0,0,0,.05-.79,1.49,1.49,0,0,0-.31-.69,1.65,1.65,0,0,0-.62-.46C30.66,48.63,30.17,48.91,29.19,49.5Z"/><path class="cls-14" d="M23.15,53.2a1.25,1.25,0,0,0-.79.87,1.28,1.28,0,0,0,.56,1.11,1.36,1.36,0,0,0,.86.23,1.4,1.4,0,0,0,.82-.34,1.16,1.16,0,0,0,.29-.49,1.18,1.18,0,0,0,0-.56,1.13,1.13,0,0,0-.24-.49,1.3,1.3,0,0,0-.43-.34,1.2,1.2,0,0,0-.56-.11,1.3,1.3,0,0,0-.55.12Z"/><path class="cls-14" d="M45.42,46.83a1.07,1.07,0,0,0-.23,2,1.38,1.38,0,0,0,1.68-.11,1.22,1.22,0,0,0,.3-.48,1.11,1.11,0,0,0,0-.57,1.13,1.13,0,0,0-.24-.49,1.2,1.2,0,0,0-.43-.34,1.4,1.4,0,0,0-1.11,0Z"/><path class="cls-14" d="M36.6,40.6a.76.76,0,0,1,.32-.63.84.84,0,0,1,.43-.19.78.78,0,0,1,.82.34.68.68,0,0,1-.1.87.78.78,0,0,1-.42.24A.89.89,0,0,1,36.6,40.6Z"/><path class="cls-14" d="M23.14,43.54a1.73,1.73,0,0,1,.49-1,.66.66,0,0,1,.37-.19.68.68,0,0,1,.42.06A1.47,1.47,0,0,1,25,43.6"/><path class="cls-14" d="M15.57,55.35a2.22,2.22,0,0,1-1.07-.68c-.06-.08-.36-.49,0-.82A1.84,1.84,0,0,1,16,53.53"/><path class="cls-15" d="M37.66,51.79a.6.6,0,0,1,.06-.27.76.76,0,0,1,.19-.21.71.71,0,0,1,.32-.14.82.82,0,0,1,.35,0,.63.63,0,0,1,.26.22.62.62,0,0,1,.09.32.68.68,0,0,1-.16.33.76.76,0,0,1-.32.17.69.69,0,0,1-.49-.07A.65.65,0,0,1,37.66,51.79Z"/><path class="cls-15" d="M16.73,47.94a.58.58,0,0,1,.06-.26.6.6,0,0,1,.18-.21.71.71,0,0,1,.32-.14.73.73,0,0,1,.36,0,.56.56,0,0,1,.26.22.63.63,0,0,1,.09.33.65.65,0,0,1-.16.32.59.59,0,0,1-.32.17.65.65,0,0,1-.79-.47Z"/><path class="cls-15" d="M45.93,54.31a.58.58,0,0,1,.06-.26.75.75,0,0,1,.51-.35.64.64,0,0,1,.36,0,.59.59,0,0,1,.25.22.57.57,0,0,1,.09.32.65.65,0,0,1-.16.32.59.59,0,0,1-.32.17.65.65,0,0,1-.49-.07A.62.62,0,0,1,45.93,54.31Z"/><path class="cls-15" d="M35.67,59.47a.53.53,0,0,1,.06-.27.55.55,0,0,1,.17-.2.61.61,0,0,1,.33-.14.6.6,0,0,1,.35,0,.59.59,0,0,1,.34.53.56.56,0,0,1-.15.33.61.61,0,0,1-.32.18.65.65,0,0,1-.49-.08A.63.63,0,0,1,35.67,59.47Z"/><path class="cls-15" d="M30,58.05a.58.58,0,0,1,.06-.26.55.55,0,0,1,.19-.21.62.62,0,0,1,.32-.14.6.6,0,0,1,.35,0,.56.56,0,0,1,.26.22.57.57,0,0,1,.09.32.65.65,0,0,1-.16.32.59.59,0,0,1-.32.17.65.65,0,0,1-.79-.46Z"/><path class="cls-15" d="M31.05,37.93c-.16-.19,0-.49,0-.55a.76.76,0,0,1,.27-.32.89.89,0,0,1,.38-.18.55.55,0,0,1,.36,0,.6.6,0,0,1,.28.22.68.68,0,0,1,0,.4.73.73,0,0,1-.24.33C31.79,38.13,31.24,38.18,31.05,37.93Z"/><path class="cls-15" d="M30.56,44.48a.39.39,0,0,1,0-.18.37.37,0,0,1,.12-.13.41.41,0,0,1,.21-.1.45.45,0,0,1,.23,0,.39.39,0,0,1,.17.14.42.42,0,0,1,.06.21.36.36,0,0,1-.11.22.4.4,0,0,1-.21.12.45.45,0,0,1-.32-.06A.44.44,0,0,1,30.56,44.48Z"/><path class="cls-16" d="M39.43,15.33a9,9,0,0,1,.15,2.43,2.93,2.93,0,0,0,0,1.44,2.46,2.46,0,0,0,1.48,1.17,12.77,12.77,0,0,0,5.06.61,37.94,37.94,0,0,1,6.74.36,19.18,19.18,0,0,1,6.64,2.43c2.51,1.48,6.7,4.72,7.12,7.6a2.13,2.13,0,0,0,.56,1.35c.73.71,1.73.34,3.31.81a10.52,10.52,0,0,1,2,1c2.22,1.27,3.49,2,4.51,3.49a8.46,8.46,0,0,1,1.23,2.74,7.93,7.93,0,0,1,.34,3.42c-.18,1.27-.61,1.62-.37,2.32s1.07.95,1.84,1.62a5.49,5.49,0,0,1,1.23,6.18c-.49.93-1.3,1.5-3.07,2.32a30.3,30.3,0,0,1-8.3,2.68,173.86,173.86,0,0,1-18.8,1.53,152.78,152.78,0,0,1-15.67-.44c-5.34-.5-17.83-1.67-18.57-5.71a6.18,6.18,0,0,1,.4-2.62,10.47,10.47,0,0,1,3-4.38,7.76,7.76,0,0,1,3.22-2.32c1.12-.37,2.05-.3,2.23-.81s-.45-.73-1-1.7a6.33,6.33,0,0,1-.74-3,5.76,5.76,0,0,1,.92-2.86c1.06-1.82,2.23-2.4,4.79-4.48s4-3.24,4.62-4.47a14.72,14.72,0,0,0,1.11-5.19c0-1.43-.2-2.16.28-3.31A7.49,7.49,0,0,1,37.44,17a11,11,0,0,1,2-1.65"/><path class="cls-17" d="M39.43,15.33a5.82,5.82,0,0,0-1.4,3.4,3.57,3.57,0,0,0,.75,2.7c.61.61,1.36.61,2.86.72,0,0,2,.13,5.44.44a35,35,0,0,1,4.79.81,19.1,19.1,0,0,1,5.72,2c1.52.88,3.78,2.21,4.7,4.92A7.69,7.69,0,0,1,61.92,36c-1.15,2.26-3.23,3.15-6.26,4.44a21.26,21.26,0,0,1-10.51,2.16c-4.76-.4-8-2.63-8.3-2.16s1.32,1.52,2.58,2.24a13.4,13.4,0,0,0,4.9,1.52,24.22,24.22,0,0,0,7.36.08,26.22,26.22,0,0,0,9.77-3.64c2.93-1.67,4.17-3,4.9-4.56.11-.24,0-1,.46-1.34s1-.21,1.75.08a7.94,7.94,0,0,1,4.49,3.46,7,7,0,0,1,.1,7c-1.06,1.7-2.69,2.28-5.72,3.32-2,.69-4.18,1.18-10.93,1.9-3.85.39-5.77.61-7.09.61-7.2.17-12.15-1.22-12.26-.72-.08.3,1.66,1,2.58,1.25a21.6,21.6,0,0,0,7.19,1c7,0,5.6.4,9.49.27,4.59-.16,7.17-.25,10.51-1.16,4-1.1,6-1.65,6.92-2.24a5.59,5.59,0,0,1,2.76-1,2.83,2.83,0,0,1,1.67.27,3.15,3.15,0,0,1,1.23,3c-.09.74-.61,2.25-4,3.84C69.65,58.4,62,58.12,49,58.46c-4.64.12-9.28-.09-13.91.09a55.76,55.76,0,0,1-7.19-.35c-3.78-.42-5.68-1-7-2.43a3.78,3.78,0,0,1-1.19-2.59c.05-1.4,1.23-2.36,2.4-3.31a9.09,9.09,0,0,1,4.79-2.33c3.22-.36,5.82,1.65,6,1.35s-1.08-.86-2.68-2.42a8.92,8.92,0,0,1-2.3-2.86,6.72,6.72,0,0,1-.28-4.2A7.49,7.49,0,0,1,29.48,36a8.31,8.31,0,0,1,3.6-2.16c.75-.25,1-.25,4.42-.61,2.91-.32,3.68-.43,4.34-.54,2.31-.36,3.49-.56,4.42-1.16a4.7,4.7,0,0,0,2.31-3.13,3.68,3.68,0,0,0-.28-1.82c-.44-1-1.35-1.82-1.57-1.7s.28.72.37,1.9a3.73,3.73,0,0,1-.46,2.49c-.28.4-.65.61-2.58,1.16a38.6,38.6,0,0,1-4.52,1.08c-2.22.4-2.78.36-3.23,0a1.82,1.82,0,0,1-.5-.63,1.79,1.79,0,0,1-.15-.79c.08-.86.94-1,1.84-2.23a4.42,4.42,0,0,0,.93-2.44,4.49,4.49,0,0,0-.46-2c-.4-.93-.73-1-1-1.79a4.31,4.31,0,0,1-.19-2A7,7,0,0,1,39.43,15.33Z"/><path class="cls-18" d="M56.76,26.79a7.64,7.64,0,0,1,2.12,1.28,6.68,6.68,0,0,1,2.21,3.13c.87,3-1.68,5.82-2,6.18-1,1.08-2.22,1.57-4.51,2.51-3.62,1.45-7.2,2.22-7.29,2s1.19-.54,4.25-2.06A20.81,20.81,0,0,0,56,37.2c1.23-1.06,2.64-2.28,2.77-4,.06-.67-.4-1.92-1.29-4.39-.3-.8-.55-1.5-.74-2"/><path class="cls-18" d="M68.88,37a5.78,5.78,0,0,1,1.72.77,5.15,5.15,0,0,1,1.9,2.16c.89,2.23-.8,4.47-1,4.76a8.68,8.68,0,0,1-3.17,2.21c-2.58,1.35-5.2,2.2-5.29,2s.83-.5,3-1.85a15.89,15.89,0,0,0,3.16-2.28c.84-.88,1.79-1.89,1.75-3.22a11,11,0,0,0-1.32-3.17c-.27-.61-.53-1.08-.7-1.41"/><path class="cls-18" d="M35.37,34.66a6.09,6.09,0,0,0-4.7,1.43c-1.89,1.82-1.46,4.71-1.39,5.09.19,1.16.73,1.94,1.81,3.46,1.67,2.39,3.68,4.25,3.81,4.13s-.52-.83-1.84-3a15.63,15.63,0,0,1-1.77-3.51,5.13,5.13,0,0,1,0-3.87A13.81,13.81,0,0,1,34,35.78c.55-.47,1-.84,1.33-1.1"/><path class="cls-18" d="M25.42,49.48a4.37,4.37,0,0,0-1.22.35A3,3,0,0,0,22.81,51c-.68,1.21.45,2.62.61,2.8a6.89,6.89,0,0,0,2.19,1.46,13.58,13.58,0,0,0,3.68,1.46c.06-.1-.58-.34-2.08-1.21A12,12,0,0,1,25,54c-.55-.56-1.22-1.22-1.16-2,0-.29.35-.78,1-1.76.23-.32.41-.6.54-.77"/><path class="cls-19" d="M9.12,67.19c.06.89.13,1.77.19,2.65l7.46,103.9c0,.42,0,1,0,1.81.06,1.67.1,2.52.5,3s.77.57,1.1,1.26a2.72,2.72,0,0,1,.25.84v7.23a1.63,1.63,0,0,0,0,.76,2.22,2.22,0,0,0,.94,1.17C24.22,193,41,192.78,41,192.78c4.89,0,3.69.05,7.57,0,8.24-.11,13.55-.21,20-1.31a82.31,82.31,0,0,0,9.2-2.12L78.2,184a5.58,5.58,0,0,1,0-2.44,11.57,11.57,0,0,1,.94-2.27,14.36,14.36,0,0,0,.84-2.78l6.8-102.21c0-.89,0-1.79,0-2.69A27.71,27.71,0,0,1,87.21,68Z"/><path class="cls-19" d="M5.89,57.61a1.92,1.92,0,0,1,.85.93c.17.46,0,.8-.08,1.6a9.77,9.77,0,0,0-.09,2,5.86,5.86,0,0,0,.68,2.1,13,13,0,0,0,1.87,2.93C53.58,68.58,86.2,69,87.23,68a12.89,12.89,0,0,0,1-1.18,12.66,12.66,0,0,0,1.1-1.93,15.53,15.53,0,0,0,1.2-2.71c.17-.82,0-1,.16-2.76.05-.65.12-1.17.17-1.52Z"/><path class="cls-20" d="M93.68,55.35H4.11a.34.34,0,0,0-.34.34v2a.35.35,0,0,0,.34.35H93.68a.35.35,0,0,0,.34-.35v-2A.34.34,0,0,0,93.68,55.35Z"/><path class="cls-21" d="M16.8,176.32a4.06,4.06,0,0,0,.09,1.1,3.27,3.27,0,0,0,.68,1.46,3,3,0,0,0,.54.53,4.55,4.55,0,0,0,2,.77c19.48,2.63,29.21,4,58.79-.3a13.17,13.17,0,0,0,.75-1.92,12.85,12.85,0,0,0,.38-1.48Z"/><path class="cls-22" d="M66.49,55.35H82.55L72.1,190.49Z"/></g></g></svg>