<svg xmlns="http://www.w3.org/2000/svg" width="184.99" height="169.54" viewBox="0 0 184.99 169.54"><defs><style>.cls-1{fill:#d8b67b;}.cls-2{fill:#eae8e5;}.cls-3{fill:#e7d6a8;}.cls-10,.cls-15,.cls-4,.cls-7{fill:none;}.cls-4{stroke:#fff;}.cls-10,.cls-15,.cls-16,.cls-17,.cls-4,.cls-7{stroke-miterlimit:10;}.cls-5{fill:#fff;}.cls-6{fill:#fd83ec;}.cls-7{stroke:#addedd;}.cls-16,.cls-8{fill:#aededd;}.cls-9{fill:#fda946;}.cls-10{stroke:#f4cba2;}.cls-11{fill:#f4cba2;}.cls-12{fill:#f4e6c0;}.cls-13{fill:#fdc58b;}.cls-14{fill:#dddad7;}.cls-15,.cls-16,.cls-17{stroke:#f25de0;}.cls-17{fill:#f25de0;}</style></defs><g id="Layer_2" data-name="Layer 2"><g id="Layer_4" data-name="Layer 4"><path class="cls-1" d="M15.44,90.68c-2.17,1.5-8.35,5.77-7.93,10.87.28,3.36,3.31,5.67,4.55,6.59,14.5,10.7,49.21,9.47,49.21,9.47,49.74-1.76,59.82,8.2,92.4-1.58,21.69-6.51,23.4-12.77,23.6-15,.6-6.56-8.61-12.34-11.6-14.22-26.71-16.76-47.08,4-99.6-.78C54.32,85,28.72,81.5,15.44,90.68Z"/><path class="cls-1" d="M5.84,112.44s2.56,10.38,5.87,19.83c0,0,5.18,14.7,12.68,23.88A22.71,22.71,0,0,0,33.15,163a63.78,63.78,0,0,0,11.63,3.88,107,107,0,0,0,18.67,1.75c17.23.61,13.35.74,21.15.88,14.69.26,25.92-.25,31.11-.51,4.86-.26,10.53-.88,21.87-2.11,9.72-1.06,12.09-2.13,14.22-3.16,7.45-3.58,11.49-9.5,14.1-13.4,2.23-3.34,3.81-6.57,7.42-17.16,2-5.95,4.61-13.92,7.31-23.51l-117,7Z"/><path class="cls-1" d="M58.22,12.8A44.17,44.17,0,0,1,69.43,4.56,43,43,0,0,1,94.14.34a41.62,41.62,0,0,1,17.42,6.5A40,40,0,0,1,125.07,22.3a41.18,41.18,0,0,1,4.09,16.5c.26,4.12.62,10-2.13,16.85C125.71,58.9,123,65.7,116.72,68.81c-5.12,2.54-9.33,1-17.43-.18-24.15-3.49-31.45,3.81-41.42-3.51A30.67,30.67,0,0,1,48.8,53.71a30.23,30.23,0,0,1-2.13-9.82,37.66,37.66,0,0,1,1.42-15.47A38.43,38.43,0,0,1,58.22,12.8Z"/><path class="cls-1" d="M77,57.6a1.49,1.49,0,0,1,.16-.69,1.6,1.6,0,0,1,.46-.54,1.67,1.67,0,0,1,.85-.37,1.7,1.7,0,0,1,.92.11,1.51,1.51,0,0,1,.66.56,1.55,1.55,0,0,1,.24.84,1.58,1.58,0,0,1-.41.85,1.56,1.56,0,0,1-.84.46A1.72,1.72,0,0,1,77,57.6Z"/><path class="cls-1" d="M57,53.73a2,2,0,0,1,.35-.75,2.21,2.21,0,0,1,.62-.56,1.87,1.87,0,0,1,.78-.27,1.53,1.53,0,0,1,1.58.74,1.82,1.82,0,0,1,.29.93"/><path class="cls-1" d="M69,64.35a.54.54,0,0,1,.07-.27.63.63,0,0,1,.18-.22.81.81,0,0,1,.34-.15.79.79,0,0,1,.37,0,.56.56,0,0,1,.26.22.59.59,0,0,1,.1.34.57.57,0,0,1-.18.34.61.61,0,0,1-.34.17.67.67,0,0,1-.5-.08.72.72,0,0,1-.3-.4Z"/><path class="cls-1" d="M81,26.59c-.85.51-1,.74-1,.92-.34.88.46,2.06,1.33,2.63a3.33,3.33,0,0,0,4-.26,2.81,2.81,0,0,0,.8-2.5,2.59,2.59,0,0,0-.54-1.19,2.67,2.67,0,0,0-1.06-.79C83.48,25.09,82.64,25.59,81,26.59Z"/><path class="cls-1" d="M70.54,32.94a2.12,2.12,0,0,0-1.34,1.49,2.15,2.15,0,0,0,1,1.9,2.4,2.4,0,0,0,1.47.39A2.43,2.43,0,0,0,73,36.14a2,2,0,0,0,.52-.84,1.81,1.81,0,0,0,.06-1,2.18,2.18,0,0,0-.4-.84,2.08,2.08,0,0,0-.74-.58,2.33,2.33,0,0,0-1-.19A2.3,2.3,0,0,0,70.54,32.94Z"/><path class="cls-1" d="M108.87,22a2.12,2.12,0,0,0-1.34,1.49,2.13,2.13,0,0,0,1,1.89,2.39,2.39,0,0,0,1.47.4,2.43,2.43,0,0,0,1.41-.58,2.1,2.1,0,0,0,.51-.83A2,2,0,0,0,110.79,22a2.3,2.3,0,0,0-1.92,0Z"/><path class="cls-1" d="M93.7,11.31a1.41,1.41,0,0,1,.13-.6,1.65,1.65,0,0,1,.39-.48A1.75,1.75,0,0,1,95,9.9a1.64,1.64,0,0,1,.82.1,1.34,1.34,0,0,1,.58.5A1.15,1.15,0,0,1,96.21,12a1.36,1.36,0,0,1-.74.41,1.51,1.51,0,0,1-1.1-.19,1.55,1.55,0,0,1-.67-.9Z"/><path class="cls-1" d="M70.54,16.37a3,3,0,0,1,.84-1.69,1.13,1.13,0,0,1,.65-.33,1.2,1.2,0,0,1,.72.11,2.47,2.47,0,0,1,.7.9,2.42,2.42,0,0,1,.23,1.12"/><path class="cls-1" d="M57.53,36.63a3.8,3.8,0,0,1-1.85-1.16,1.06,1.06,0,0,1,0-1.42,3.22,3.22,0,0,1,2.54-.55"/><path class="cls-1" d="M95.52,30.51a1,1,0,0,1,.41-.81,1.17,1.17,0,0,1,.56-.24,1.15,1.15,0,0,1,.61.07,1.06,1.06,0,0,1,.44.37A.85.85,0,0,1,97.43,31a1.07,1.07,0,0,1-.55.3,1.15,1.15,0,0,1-.85-.13,1.14,1.14,0,0,1-.51-.68Z"/><path class="cls-1" d="M59.52,23.92a1,1,0,0,1,.11-.45,1,1,0,0,1,.3-.36,1.13,1.13,0,0,1,.56-.24,1.17,1.17,0,0,1,.61.07,1,1,0,0,1,.42.37,1.08,1.08,0,0,1,.15.55,1.05,1.05,0,0,1-.27.56,1,1,0,0,1-.55.31,1.15,1.15,0,0,1-.83-.15A1.07,1.07,0,0,1,59.52,23.92Z"/><path class="cls-1" d="M109.75,34.84a1,1,0,0,1,.11-.46.92.92,0,0,1,.3-.35,1.19,1.19,0,0,1,.56-.25,1.26,1.26,0,0,1,.61.07.93.93,0,0,1,.43.38,1,1,0,0,1,.16.55,1,1,0,0,1-.28.56,1,1,0,0,1-.54.31,1.17,1.17,0,0,1-.84-.14,1.07,1.07,0,0,1-.51-.67Z"/><path class="cls-1" d="M92.1,43.69a1,1,0,0,1,.1-.45,1.16,1.16,0,0,1,.3-.36,1.31,1.31,0,0,1,.57-.24,1.12,1.12,0,0,1,.6.07,1,1,0,0,1,.44.38,1,1,0,0,1,.15.55,1.09,1.09,0,0,1-.27.56,1.07,1.07,0,0,1-.55.3,1.11,1.11,0,0,1-1.34-.81Z"/><path class="cls-1" d="M82.36,41.24a1,1,0,0,1,.11-.45,1,1,0,0,1,.3-.36,1.13,1.13,0,0,1,.56-.24,1.14,1.14,0,0,1,.61.06,1,1,0,0,1,.43.38.92.92,0,0,1,.15.55,1,1,0,0,1-.27.56,1,1,0,0,1-.54.31,1.17,1.17,0,0,1-.84-.14A1.14,1.14,0,0,1,82.36,41.24Z"/><path class="cls-1" d="M84.15,6.74A.94.94,0,0,1,84,6.27a1,1,0,0,1,.12-.47,1.59,1.59,0,0,1,.47-.56,1.63,1.63,0,0,1,.67-.3,1,1,0,0,1,.61,0,.92.92,0,0,1,.48.39,1.13,1.13,0,0,1,0,.68,1.08,1.08,0,0,1-.4.56C85.43,7.09,84.49,7.16,84.15,6.74Z"/><path class="cls-1" d="M83.31,18a.73.73,0,0,1,.07-.29.74.74,0,0,1,.2-.23.82.82,0,0,1,.37-.16.78.78,0,0,1,.4.05.59.59,0,0,1,.3.26.6.6,0,0,1-.1.74.66.66,0,0,1-.35.18.77.77,0,0,1-.56-.1.69.69,0,0,1-.33-.45Z"/><path class="cls-1" d="M99.67,47.88a43.93,43.93,0,0,1,11.21-8.24,44.69,44.69,0,0,1,9.4-3.38c4.48-1.18,9.28-2.45,15.35-1.94a36.59,36.59,0,0,1,13,3.86C160.05,44,165,54.1,166.52,57.34a45.43,45.43,0,0,1,4.09,16.5,38.33,38.33,0,0,1-2.13,16.85c-5.28,13.61-18.21,19.83-23.61,22.43a41.55,41.55,0,0,1-7.65,3c-2.86.78-18.27,4.58-30.93-4-9.1-6.18-13.24-16.39-16-23.31a30.23,30.23,0,0,1-2.13-9.82,37.51,37.51,0,0,1,1.42-15.47C92.08,55.65,96.78,50.82,99.67,47.88Z"/><path class="cls-1" d="M113.89,62.61c-.39.09-2.26.52-2.54,1.5s1.7,1.85,1.81,1.89a7.92,7.92,0,0,0,5.45-.19c.77-.4,1.35-1.06,1.08-1.8-.35-.94-1.91-1.35-2.18-1.42a8,8,0,0,0-3.62,0Z"/><path class="cls-1" d="M133.12,67.83a2.19,2.19,0,0,0-1.43,1.49,2.09,2.09,0,0,0,1.05,1.9A2.66,2.66,0,0,0,135.8,71a2,2,0,0,0,.54-.82,1.92,1.92,0,0,0,.07-1,2.16,2.16,0,0,0-.44-.85,2.19,2.19,0,0,0-.78-.57,2.47,2.47,0,0,0-1-.2A2.57,2.57,0,0,0,133.12,67.83Z"/><path class="cls-1" d="M108.75,76.08a1.31,1.31,0,0,1,.15-.61,1.29,1.29,0,0,1,.4-.47,1.54,1.54,0,0,1,.75-.33,1.63,1.63,0,0,1,.82.09,1.37,1.37,0,0,1,.58.51,1.26,1.26,0,0,1,.2.73,1.32,1.32,0,0,1-.36.75,1.4,1.4,0,0,1-.74.41,1.52,1.52,0,0,1-1.8-1.08Z"/><path class="cls-1" d="M113.1,53.78a3,3,0,0,1-.09-1.87,1.19,1.19,0,0,1,.4-.6,1.17,1.17,0,0,1,.69-.25,2.54,2.54,0,0,1,1.05.46,2.57,2.57,0,0,1,.73.88"/><path class="cls-1" d="M101.66,63.19a2.79,2.79,0,0,1-.86-1.74,1.45,1.45,0,0,1,.72-1.41,2.48,2.48,0,0,1,1.18-.14,2.4,2.4,0,0,1,1.1.43"/><path class="cls-1" d="M116.22,95.69a3.19,3.19,0,0,1,2-1,2.08,2.08,0,0,1,1,.14,2,2,0,0,1,.81.63,2.6,2.6,0,0,1,.33,1.33,2.67,2.67,0,0,1-.39,1.32"/><path class="cls-1" d="M139.61,98.81a1.88,1.88,0,0,1,0-.71,2.06,2.06,0,0,1,.25-.68,1.56,1.56,0,0,1,.49-.5,1.44,1.44,0,0,1,.66-.25,1.65,1.65,0,0,1,.84.2,1.6,1.6,0,0,1,.6.61"/><path class="cls-1" d="M149.73,96.26a.66.66,0,0,1,.08-.34.7.7,0,0,1,.23-.28.93.93,0,0,1,.43-.19.94.94,0,0,1,.47.06.75.75,0,0,1,.45.71.73.73,0,0,1-.21.43.85.85,0,0,1-.42.24.88.88,0,0,1-.65-.11.81.81,0,0,1-.38-.52Z"/><path class="cls-1" d="M139,90.69a.72.72,0,0,1,.08-.35.67.67,0,0,1,.23-.27.84.84,0,0,1,.43-.19.94.94,0,0,1,.47.05.78.78,0,0,1,.33.29.73.73,0,0,1,.12.42.78.78,0,0,1-.2.44.83.83,0,0,1-.43.23.89.89,0,0,1-.64-.1.82.82,0,0,1-.39-.52Z"/><path class="cls-1" d="M126.42,88a1,1,0,0,1,.1-.41,1,1,0,0,1,.27-.32,1.13,1.13,0,0,1,.5-.22,1.11,1.11,0,0,1,.54.07.86.86,0,0,1,.39.34.91.91,0,0,1,.14.49.89.89,0,0,1-.25.5.93.93,0,0,1-.49.28,1,1,0,0,1-1.2-.73Z"/><path class="cls-1" d="M125.26,102.5a.85.85,0,0,1,.08-.35.78.78,0,0,1,.24-.27.93.93,0,0,1,.43-.19,1.07,1.07,0,0,1,.47,0,.92.92,0,0,1,.33.29.73.73,0,0,1,.11.43.78.78,0,0,1-.2.43.85.85,0,0,1-.42.24.87.87,0,0,1-.65-.11.86.86,0,0,1-.39-.52Z"/><path class="cls-1" d="M111.66,100.56a.85.85,0,0,1,.08-.35.89.89,0,0,1,.23-.28.9.9,0,0,1,.44-.18.84.84,0,0,1,.47,0,.77.77,0,0,1,.33.29.79.79,0,0,1,.12.42.9.9,0,0,1-.21.44.79.79,0,0,1-.43.23.89.89,0,0,1-.64-.1.85.85,0,0,1-.39-.52Z"/><path class="cls-1" d="M108.53,88.82a.73.73,0,0,1,.09-.35.74.74,0,0,1,.23-.27.93.93,0,0,1,.43-.19.94.94,0,0,1,.47.06.75.75,0,0,1,.33.28.82.82,0,0,1,.12.43.73.73,0,0,1-.21.43.85.85,0,0,1-.42.24.88.88,0,0,1-.65-.11A.86.86,0,0,1,108.53,88.82Z"/><path class="cls-1" d="M27.72,57.33a44.06,44.06,0,0,1,11.2-8.24,43.05,43.05,0,0,1,24.71-4.22,41.73,41.73,0,0,1,17.43,6.49A40,40,0,0,1,94.57,66.8a41.13,41.13,0,0,1,4.09,16.49c.25,4.13.62,10-2.14,16.85-1.32,3.26-4,10.07-10.31,13.17-5.12,2.55-9.32,1-17.42-.17-24.15-3.49-31.46,3.81-41.43-3.51a30.57,30.57,0,0,1-9.07-11.39,30.54,30.54,0,0,1-2.14-9.83A37.72,37.72,0,0,1,17.58,73,38.11,38.11,0,0,1,27.72,57.33Z"/><path class="cls-1" d="M42.07,67.73c-.86.52-1,.74-1,.92-.33.88.46,2.07,1.33,2.63a3.4,3.4,0,0,0,2,.55,3.28,3.28,0,0,0,2-.81,2.84,2.84,0,0,0,.72-1.15,2.69,2.69,0,0,0,.08-1.35,2.58,2.58,0,0,0-.54-1.19,2.61,2.61,0,0,0-1-.78C44.6,66.23,43.75,66.73,42.07,67.73Z"/><path class="cls-1" d="M45.4,88.92A2.69,2.69,0,0,1,46,87.47a2.82,2.82,0,0,1,1.28-.92,3,3,0,0,1,1.23-.12,2.9,2.9,0,0,1,1.17.39,2.39,2.39,0,0,1,.74.6,2.56,2.56,0,0,1,.46.84,2.64,2.64,0,0,1-.67,2.25c-.08.09-1.53,1.82-3.2,1.19a2.77,2.77,0,0,1-1.26-1.13A2.65,2.65,0,0,1,45.4,88.92Z"/><path class="cls-1" d="M72.34,97.79a1.35,1.35,0,0,1,.35-.73,1.41,1.41,0,0,1,.69-.42,1.65,1.65,0,0,1,.88.1,1.69,1.69,0,0,1,.72.52,1.49,1.49,0,0,1,.39.6,1.44,1.44,0,0,1,.06.71,1.69,1.69,0,0,1-2.73.24,1.54,1.54,0,0,1-.36-1Z"/><path class="cls-1" d="M34,85.94a1.83,1.83,0,0,1,1.14.32,1.81,1.81,0,0,1,.7.95,1.76,1.76,0,0,1-.09,1.06,1.73,1.73,0,0,1-.68.83,2,2,0,0,1-2.85-.88A1.93,1.93,0,0,1,34,85.94Z"/><path class="cls-1" d="M73.3,75.8a1.12,1.12,0,0,1,.46-.9,1.34,1.34,0,0,1,.62-.27,1.28,1.28,0,0,1,.67.08,1,1,0,0,1,.48.42,1.08,1.08,0,0,1,.17.61,1.13,1.13,0,0,1-.3.62,1.2,1.2,0,0,1-.61.34,1.26,1.26,0,0,1-.93-.15,1.24,1.24,0,0,1-.56-.75Z"/><path class="cls-1" d="M81.86,70.28a1,1,0,0,1,.1-.45,1.15,1.15,0,0,1,.87-.6,1.17,1.17,0,0,1,.61.07,1.12,1.12,0,0,1,.43.38,1,1,0,0,1,.15.55,1,1,0,0,1-.27.56,1.07,1.07,0,0,1-.55.3,1.13,1.13,0,0,1-.84-.13,1.11,1.11,0,0,1-.5-.68Z"/><path class="cls-1" d="M83.46,81.45a1,1,0,0,1,.11-.45,1.05,1.05,0,0,1,.3-.36,1.19,1.19,0,0,1,.56-.25,1.26,1.26,0,0,1,.61.07,1,1,0,0,1,.44.38A.85.85,0,0,1,85.36,82a1.08,1.08,0,0,1-.55.31,1.17,1.17,0,0,1-.84-.14,1.11,1.11,0,0,1-.51-.67Z"/><path class="cls-1" d="M87.42,106.37a1,1,0,0,1,.11-.45,1,1,0,0,1,.29-.36,1.2,1.2,0,0,1,.57-.24,1.12,1.12,0,0,1,.6.06,1.08,1.08,0,0,1,.44.38,1,1,0,0,1,.15.55,1,1,0,0,1-.27.56,1,1,0,0,1-.55.31,1.19,1.19,0,0,1-.84-.14,1.09,1.09,0,0,1-.5-.67Z"/><path class="cls-1" d="M89.24,101.54a1,1,0,0,1,.41-.81,1.23,1.23,0,0,1,.56-.24,1.17,1.17,0,0,1,.61.07,1,1,0,0,1,.43.37,1,1,0,0,1,.15.55,1,1,0,0,1-.27.57,1,1,0,0,1-.54.3,1.12,1.12,0,0,1-.84-.13,1.17,1.17,0,0,1-.51-.68Z"/><path class="cls-1" d="M87.64,94.43a2.08,2.08,0,0,1,.72.45,2,2,0,0,1,.48.68,1.67,1.67,0,0,1,.19.79,1.71,1.71,0,0,1-.19.8,1.79,1.79,0,0,1-.73.66,1.89,1.89,0,0,1-1,.19"/><path class="cls-1" d="M61.36,94.27a.73.73,0,0,1,.07-.29.71.71,0,0,1,.19-.23.87.87,0,0,1,.37-.16.94.94,0,0,1,.41,0,.75.75,0,0,1,.28.25.68.68,0,0,1,.1.36.7.7,0,0,1-.17.37.78.78,0,0,1-.35.21,1,1,0,0,1-.29,0,.94.94,0,0,1-.28-.1.8.8,0,0,1-.21-.2.68.68,0,0,1-.12-.26Z"/><path class="cls-1" d="M52.6,102.37a2.24,2.24,0,0,1,.77-1.32,1.24,1.24,0,0,1,1.26-.17,1.79,1.79,0,0,1,.63.68,1.9,1.9,0,0,1,.22.9"/><path class="cls-1" d="M27.92,99.06a2.15,2.15,0,0,1-.76-1.33,1.11,1.11,0,0,1,.07-.65,1.14,1.14,0,0,1,.4-.52,1.92,1.92,0,0,1,.91-.2,2,2,0,0,1,.9.27"/><path class="cls-1" d="M48.94,79.06a.73.73,0,0,1,.07-.29.74.74,0,0,1,.2-.23.82.82,0,0,1,.37-.16.79.79,0,0,1,.4.05.67.67,0,0,1,.28.25.56.56,0,0,1,.1.36.58.58,0,0,1-.17.36.66.66,0,0,1-.35.21.7.7,0,0,1-.29,0,.73.73,0,0,1-.28-.1.8.8,0,0,1-.21-.2.68.68,0,0,1-.12-.26Z"/><path class="cls-1" d="M21.56,86.48a.73.73,0,0,1,.07-.29.74.74,0,0,1,.2-.23.82.82,0,0,1,.37-.16.79.79,0,0,1,.4,0,.67.67,0,0,1,.28.25.56.56,0,0,1,.1.36.58.58,0,0,1-.17.36.61.61,0,0,1-.35.21.76.76,0,0,1-.57-.09.71.71,0,0,1-.33-.46Z"/><path class="cls-1" d="M29.37,77.24a2.43,2.43,0,0,1-.86-1.19.82.82,0,0,1,.35-1,2.07,2.07,0,0,1,.89-.08,2.27,2.27,0,0,1,.84.29"/><path class="cls-1" d="M37.2,56.86a.65.65,0,0,1,.08-.28.63.63,0,0,1,.2-.23.69.69,0,0,1,.36-.16.68.68,0,0,1,.4.05.62.62,0,0,1,.29.24.65.65,0,0,1,.1.36.74.74,0,0,1-.17.37.69.69,0,0,1-.35.2.76.76,0,0,1-.3,0,.68.68,0,0,1-.27-.1.64.64,0,0,1-.21-.19.84.84,0,0,1-.13-.27Z"/><path class="cls-1" d="M24.14,65.63a.73.73,0,0,1,.07-.29.74.74,0,0,1,.2-.23.81.81,0,0,1,.37-.15.79.79,0,0,1,.4,0,.65.65,0,0,1,.31.26.67.67,0,0,1,.08.39.69.69,0,0,1-.18.36.63.63,0,0,1-.37.17.74.74,0,0,1-.56-.1.71.71,0,0,1-.32-.45Z"/><path class="cls-1" d="M62.15,81.43c-.19.67-.14.86-.09,1,.26.61,1.25.83,2,.71a2.32,2.32,0,0,0,1.31-.71,2.23,2.23,0,0,0,.6-1.35,2,2,0,0,0-.2-.93,1.9,1.9,0,0,0-.62-.73,1.81,1.81,0,0,0-.86-.35,1.92,1.92,0,0,0-.92.1C62.71,79.45,62.52,80.11,62.15,81.43Z"/><path class="cls-1" d="M37.18,52.85A11.2,11.2,0,0,0,31,56.27c-1.68,1.87-2.54,4.19-2.21,4.43s1.69-2,5-3.89a31.62,31.62,0,0,1,3.48-1.65c3.22-1.41,4.51-1.71,4.47-2.06S39.35,52.45,37.18,52.85Z"/><path class="cls-1" d="M57.26,54.15a2.43,2.43,0,0,1,.82-1.2.82.82,0,0,1,.52-.18.8.8,0,0,1,.52.18,2,2,0,0,1,.4.79,2,2,0,0,1,0,.88"/><path class="cls-1" d="M72.15,61c.4.27.52.28.62.27.45,0,.81-.62.88-1.12a1.47,1.47,0,0,0-.19-1,1.55,1.55,0,0,0-.76-.67,1.31,1.31,0,0,0-.65-.06,1.35,1.35,0,0,0-.61.24,1.24,1.24,0,0,0-.4.48,1.28,1.28,0,0,0-.12.61C71,60.28,71.36,60.53,72.15,61Z"/><path class="cls-1" d="M60.28,68.93a1.7,1.7,0,0,1,.17-.73,1.84,1.84,0,0,1,1.38-1,1.82,1.82,0,0,1,1,.11,1.55,1.55,0,0,1,.94,1.5,1.53,1.53,0,0,1-.43.9,1.58,1.58,0,0,1-.88.49A1.85,1.85,0,0,1,60.28,68.93Z"/><path class="cls-1" d="M17.8,79.68a16.08,16.08,0,0,0,.52,10.45c1.43,3.7,4,6.87,4.54,6.7s-1.56-3.81-2-9.47a50,50,0,0,1,.1-5.61c.21-5.11.66-6.88.18-7.14C20.54,74.28,18.7,76.75,17.8,79.68Z"/><path class="cls-1" d="M114.19,15A11.09,11.09,0,0,0,109,10.21c-2.32-1-4.83-1.1-5-.72s2.43,1,5.3,3.51A34.79,34.79,0,0,1,112,15.76c2.36,2.58,3,3.73,3.35,3.58S115.24,16.89,114.19,15Z"/><path class="cls-1" d="M15.44,90.68c-.25-.7-4.61-.52-8.53,1.57C5.26,93.15,2,94.9.51,98.76c-1.56,4.12,1,9.43,1.05,10a32.59,32.59,0,0,0,4.26,3.69,34.7,34.7,0,0,0,11.07,5.21c19,5.47,28.75,6.81,28.75,6.81a273.75,273.75,0,0,0,37.08,3.16c5.65.07,9.92-.06,12.92-.17,14.51-.51,21.76-.74,27.09-1.15A255.15,255.15,0,0,0,159,120.78c2.51-.63,16.82-4.3,22.93-10.52a10.34,10.34,0,0,0,2.75-4.48c1.16-4.27-1.32-8.13-2-9.13-2.58-4.09-6.45-5.3-11.38-6.84-.31-.1-2-.63-2.29-.2s1.53,1.43,2.26,3.2c0,0,.86,2.06-.59,5.35-3.77,8.55-26.76,11-26.76,11-18.57,1.94-32.82,1.9-50.13,1.76,0,0-34.76-.28-59-4.18-1.48-.24-2.49-.47-4.5-.91-9.56-2.12-14.75-3.33-16.89-7.22-.26-.46-1.57-2.79-.71-4.91C13.55,91.71,15.62,91.18,15.44,90.68Z"/><path class="cls-1" d="M19.8,144.72A34.21,34.21,0,0,0,35,160.52c7,3.55,14.74,4.35,15.2,3.16s-7.31-3.48-15.71-11.86a106.08,106.08,0,0,1-7.69-9c-6.79-8.51-8.69-12.12-9.67-11.72C15.86,131.56,16.9,138.59,19.8,144.72Z"/><path class="cls-1" d="M3.11,106.28A11,11,0,0,0,8,111.36c2.25,1.14,4.75,1.4,4.89,1s-2.36-1.12-5.05-3.82a34.45,34.45,0,0,1-2.48-2.92c-2.18-2.77-2.8-3.91-3.11-3.8S2.17,104.3,3.11,106.28Z"/><path class="cls-1" d="M156.59,91.07a1.77,1.77,0,0,0,2.13,2.55,2.36,2.36,0,0,0,1.29-.77,2.33,2.33,0,0,0,.57-1.39,2,2,0,0,0-.23-.92,1.89,1.89,0,0,0-.65-.7,2,2,0,0,0-.88-.27,2.08,2.08,0,0,0-.92.13,2.41,2.41,0,0,0-.8.54,2.3,2.3,0,0,0-.51.83Z"/><path class="cls-1" d="M152.87,79.41A1,1,0,0,1,153,79a1,1,0,0,1,.3-.36,1.13,1.13,0,0,1,.56-.24,1.28,1.28,0,0,1,.61.06.9.9,0,0,1,.31,1.49,1.08,1.08,0,0,1-.55.31,1.17,1.17,0,0,1-.84-.14,1.14,1.14,0,0,1-.51-.67Z"/><path class="cls-1" d="M161.76,72.86a1,1,0,0,1,.11-.45,1.16,1.16,0,0,1,.3-.36,1.17,1.17,0,0,1,.56-.24,1.2,1.2,0,0,1,.62.07,1.09,1.09,0,0,1,.43.37,1,1,0,0,1,.15.55,1,1,0,0,1-.27.56,1,1,0,0,1-.55.31,1.17,1.17,0,0,1-.84-.14,1.14,1.14,0,0,1-.51-.67Z"/><path class="cls-1" d="M130,50.7c-.39.09-2.25.51-2.54,1.5s1.71,1.85,1.82,1.89a8,8,0,0,0,5.44-.18c.77-.41,1.35-1.08,1.08-1.81-.35-.94-1.91-1.35-2.17-1.42a8.09,8.09,0,0,0-3.63,0Z"/><path class="cls-1" d="M147.28,61a2.62,2.62,0,0,0-.55,4.85,3.35,3.35,0,0,0,2.11.56,3.4,3.4,0,0,0,2-.83,3,3,0,0,0,.74-1.19,2.84,2.84,0,0,0,.08-1.39,3,3,0,0,0-.58-1.2A3.18,3.18,0,0,0,150,61a3.35,3.35,0,0,0-2.75,0Z"/><path class="cls-1" d="M143.77,48.28a.23.23,0,0,1,0-.14.27.27,0,0,1,.09-.12.45.45,0,0,1,.18-.07.34.34,0,0,1,.2,0,.32.32,0,0,1,.14.12.27.27,0,0,1,0,.36.31.31,0,0,1-.18.09.36.36,0,0,1-.27,0,.4.4,0,0,1-.16-.22Z"/><path class="cls-1" d="M152.82,56.85a1,1,0,0,1,.07-.39,1,1,0,0,1,.21-.31.68.68,0,0,1,.8-.15.78.78,0,0,1,.29.33.85.85,0,0,1-.08,1,.65.65,0,0,1-1,.15A1,1,0,0,1,152.82,56.85Z"/><path class="cls-1" d="M125.59,44.43a.76.76,0,0,1,.32-.63.83.83,0,0,1,.43-.18.9.9,0,0,1,.46.05.74.74,0,0,1,.34.29.65.65,0,0,1-.09.86.76.76,0,0,1-.42.23.89.89,0,0,1-1-.62Z"/><path class="cls-1" d="M131.67,38.05a.68.68,0,0,1,.09-.35.7.7,0,0,1,.23-.28.93.93,0,0,1,.43-.19.94.94,0,0,1,.47.06.72.72,0,0,1,.33.29.69.69,0,0,1,.12.42.73.73,0,0,1-.21.43.88.88,0,0,1-1.46-.38Z"/><path class="cls-1" d="M126.08,38.5a.77.77,0,0,1,.08-.34.79.79,0,0,1,.23-.28.9.9,0,0,1,.43-.18.84.84,0,0,1,.47,0,.74.74,0,0,1,.34.29.68.68,0,0,1,.11.42.78.78,0,0,1-.2.43.92.92,0,0,1-.43.24.85.85,0,0,1-.64-.11.79.79,0,0,1-.39-.52Z"/><path class="cls-1" d="M158.55,49.05a17.68,17.68,0,0,0-8-7.84c-3.53-1.66-7.34-1.84-7.52-1.2s3.69,1.61,8.06,5.76a58.06,58.06,0,0,1,4.06,4.53c3.6,4.27,4.64,6.11,5.11,5.86S160.16,52.19,158.55,49.05Z"/><path class="cls-2" d="M15.44,90.68c-2.17,1.5-8.35,5.77-7.93,10.87.28,3.36,3.31,5.67,4.55,6.59,14.5,10.7,49.21,9.47,49.21,9.47,49.74-1.76,59.82,8.2,92.4-1.58,21.69-6.51,23.4-12.77,23.6-15,.6-6.56-8.61-12.34-11.6-14.22-26.71-16.76-47.08,4-99.6-.78C54.32,85,28.72,81.5,15.44,90.68Z"/><path class="cls-2" d="M5.84,112.44s2.56,10.38,5.87,19.83c0,0,5.18,14.7,12.68,23.88A22.71,22.71,0,0,0,33.15,163a63.78,63.78,0,0,0,11.63,3.88,107,107,0,0,0,18.67,1.75c17.23.61,13.35.74,21.15.88,14.69.26,25.92-.25,31.11-.51,4.86-.26,10.53-.88,21.87-2.11,9.72-1.06,12.09-2.13,14.22-3.16,7.45-3.58,11.49-9.5,14.1-13.4,2.23-3.34,3.81-6.57,7.42-17.16,2-5.95,4.61-13.92,7.31-23.51l-117,7Z"/><path class="cls-3" d="M58.22,12.8A44.17,44.17,0,0,1,69.43,4.56,43,43,0,0,1,94.14.34a41.62,41.62,0,0,1,17.42,6.5A40,40,0,0,1,125.07,22.3a41.18,41.18,0,0,1,4.09,16.5c.26,4.12.62,10-2.13,16.85C125.71,58.9,123,65.7,116.72,68.81c-5.12,2.54-9.33,1-17.43-.18-24.15-3.49-31.45,3.81-41.42-3.51A30.67,30.67,0,0,1,48.8,53.71a30.23,30.23,0,0,1-2.13-9.82,37.66,37.66,0,0,1,1.42-15.47A38.43,38.43,0,0,1,58.22,12.8Z"/><path class="cls-4" d="M77,57.6a1.49,1.49,0,0,1,.16-.69,1.6,1.6,0,0,1,.46-.54,1.67,1.67,0,0,1,.85-.37,1.7,1.7,0,0,1,.92.11,1.51,1.51,0,0,1,.66.56,1.55,1.55,0,0,1,.24.84,1.58,1.58,0,0,1-.41.85,1.56,1.56,0,0,1-.84.46A1.72,1.72,0,0,1,77,57.6Z"/><path class="cls-4" d="M57,53.73a2,2,0,0,1,.35-.75,2.21,2.21,0,0,1,.62-.56,1.87,1.87,0,0,1,.78-.27,1.53,1.53,0,0,1,1.58.74,1.82,1.82,0,0,1,.29.93"/><path class="cls-5" d="M69,64.35a.54.54,0,0,1,.07-.27.63.63,0,0,1,.18-.22.81.81,0,0,1,.34-.15.79.79,0,0,1,.37,0,.56.56,0,0,1,.26.22.59.59,0,0,1,.1.34.57.57,0,0,1-.18.34.61.61,0,0,1-.34.17.67.67,0,0,1-.5-.08.72.72,0,0,1-.3-.4Z"/><path class="cls-4" d="M81,26.59c-.85.51-1,.74-1,.92-.34.88.46,2.06,1.33,2.63a3.33,3.33,0,0,0,4-.26,2.81,2.81,0,0,0,.8-2.5,2.59,2.59,0,0,0-.54-1.19,2.67,2.67,0,0,0-1.06-.79C83.48,25.09,82.64,25.59,81,26.59Z"/><path class="cls-4" d="M70.54,32.94a2.12,2.12,0,0,0-1.34,1.49,2.15,2.15,0,0,0,1,1.9,2.4,2.4,0,0,0,1.47.39A2.43,2.43,0,0,0,73,36.14a2,2,0,0,0,.52-.84,1.81,1.81,0,0,0,.06-1,2.18,2.18,0,0,0-.4-.84,2.08,2.08,0,0,0-.74-.58,2.33,2.33,0,0,0-1-.19A2.3,2.3,0,0,0,70.54,32.94Z"/><path class="cls-4" d="M108.87,22a2.12,2.12,0,0,0-1.34,1.49,2.13,2.13,0,0,0,1,1.89,2.39,2.39,0,0,0,1.47.4,2.43,2.43,0,0,0,1.41-.58,2.1,2.1,0,0,0,.51-.83A2,2,0,0,0,110.79,22a2.3,2.3,0,0,0-1.92,0Z"/><path class="cls-4" d="M93.7,11.31a1.41,1.41,0,0,1,.13-.6,1.65,1.65,0,0,1,.39-.48A1.75,1.75,0,0,1,95,9.9a1.64,1.64,0,0,1,.82.1,1.34,1.34,0,0,1,.58.5A1.15,1.15,0,0,1,96.21,12a1.36,1.36,0,0,1-.74.41,1.51,1.51,0,0,1-1.1-.19,1.55,1.55,0,0,1-.67-.9Z"/><path class="cls-4" d="M70.54,16.37a3,3,0,0,1,.84-1.69,1.13,1.13,0,0,1,.65-.33,1.2,1.2,0,0,1,.72.11,2.47,2.47,0,0,1,.7.9,2.42,2.42,0,0,1,.23,1.12"/><path class="cls-4" d="M57.53,36.63a3.8,3.8,0,0,1-1.85-1.16,1.06,1.06,0,0,1,0-1.42,3.22,3.22,0,0,1,2.54-.55"/><path class="cls-5" d="M95.52,30.51a1,1,0,0,1,.41-.81,1.17,1.17,0,0,1,.56-.24,1.15,1.15,0,0,1,.61.07,1.06,1.06,0,0,1,.44.37A.85.85,0,0,1,97.43,31a1.07,1.07,0,0,1-.55.3,1.15,1.15,0,0,1-.85-.13,1.14,1.14,0,0,1-.51-.68Z"/><path class="cls-5" d="M59.52,23.92a1,1,0,0,1,.11-.45,1,1,0,0,1,.3-.36,1.13,1.13,0,0,1,.56-.24,1.17,1.17,0,0,1,.61.07,1,1,0,0,1,.42.37,1.08,1.08,0,0,1,.15.55,1.05,1.05,0,0,1-.27.56,1,1,0,0,1-.55.31,1.15,1.15,0,0,1-.83-.15A1.07,1.07,0,0,1,59.52,23.92Z"/><path class="cls-5" d="M109.75,34.84a1,1,0,0,1,.11-.46.92.92,0,0,1,.3-.35,1.19,1.19,0,0,1,.56-.25,1.26,1.26,0,0,1,.61.07.93.93,0,0,1,.43.38,1,1,0,0,1,.16.55,1,1,0,0,1-.28.56,1,1,0,0,1-.54.31,1.17,1.17,0,0,1-.84-.14,1.07,1.07,0,0,1-.51-.67Z"/><path class="cls-5" d="M92.1,43.69a1,1,0,0,1,.1-.45,1.16,1.16,0,0,1,.3-.36,1.31,1.31,0,0,1,.57-.24,1.12,1.12,0,0,1,.6.07,1,1,0,0,1,.44.38,1,1,0,0,1,.15.55,1.09,1.09,0,0,1-.27.56,1.07,1.07,0,0,1-.55.3,1.11,1.11,0,0,1-1.34-.81Z"/><path class="cls-5" d="M82.36,41.24a1,1,0,0,1,.11-.45,1,1,0,0,1,.3-.36,1.13,1.13,0,0,1,.56-.24,1.14,1.14,0,0,1,.61.06,1,1,0,0,1,.43.38.92.92,0,0,1,.15.55,1,1,0,0,1-.27.56,1,1,0,0,1-.54.31,1.17,1.17,0,0,1-.84-.14A1.14,1.14,0,0,1,82.36,41.24Z"/><path class="cls-5" d="M84.15,6.74A.94.94,0,0,1,84,6.27a1,1,0,0,1,.12-.47,1.59,1.59,0,0,1,.47-.56,1.63,1.63,0,0,1,.67-.3,1,1,0,0,1,.61,0,.92.92,0,0,1,.48.39,1.13,1.13,0,0,1,0,.68,1.08,1.08,0,0,1-.4.56C85.43,7.09,84.49,7.16,84.15,6.74Z"/><path class="cls-5" d="M83.31,18a.73.73,0,0,1,.07-.29.74.74,0,0,1,.2-.23.82.82,0,0,1,.37-.16.78.78,0,0,1,.4.05.59.59,0,0,1,.3.26.6.6,0,0,1-.1.74.66.66,0,0,1-.35.18.77.77,0,0,1-.56-.1.69.69,0,0,1-.33-.45Z"/><path class="cls-6" d="M99.67,47.88a43.93,43.93,0,0,1,11.21-8.24,44.69,44.69,0,0,1,9.4-3.38c4.48-1.18,9.28-2.45,15.35-1.94a36.59,36.59,0,0,1,13,3.86C160.05,44,165,54.1,166.52,57.34a45.43,45.43,0,0,1,4.09,16.5,38.33,38.33,0,0,1-2.13,16.85c-5.28,13.61-18.21,19.83-23.61,22.43a41.55,41.55,0,0,1-7.65,3c-2.86.78-18.27,4.58-30.93-4-9.1-6.18-13.24-16.39-16-23.31a30.23,30.23,0,0,1-2.13-9.82,37.51,37.51,0,0,1,1.42-15.47C92.08,55.65,96.78,50.82,99.67,47.88Z"/><path class="cls-7" d="M113.89,62.61c-.39.09-2.26.52-2.54,1.5s1.7,1.85,1.81,1.89a7.92,7.92,0,0,0,5.45-.19c.77-.4,1.35-1.06,1.08-1.8-.35-.94-1.91-1.35-2.18-1.42a8,8,0,0,0-3.62,0Z"/><path class="cls-7" d="M133.12,67.83a2.19,2.19,0,0,0-1.43,1.49,2.09,2.09,0,0,0,1.05,1.9A2.66,2.66,0,0,0,135.8,71a2,2,0,0,0,.54-.82,1.92,1.92,0,0,0,.07-1,2.16,2.16,0,0,0-.44-.85,2.19,2.19,0,0,0-.78-.57,2.47,2.47,0,0,0-1-.2A2.57,2.57,0,0,0,133.12,67.83Z"/><path class="cls-7" d="M108.75,76.08a1.31,1.31,0,0,1,.15-.61,1.29,1.29,0,0,1,.4-.47,1.54,1.54,0,0,1,.75-.33,1.63,1.63,0,0,1,.82.09,1.37,1.37,0,0,1,.58.51,1.26,1.26,0,0,1,.2.73,1.32,1.32,0,0,1-.36.75,1.4,1.4,0,0,1-.74.41,1.52,1.52,0,0,1-1.8-1.08Z"/><path class="cls-7" d="M113.1,53.78a3,3,0,0,1-.09-1.87,1.19,1.19,0,0,1,.4-.6,1.17,1.17,0,0,1,.69-.25,2.54,2.54,0,0,1,1.05.46,2.57,2.57,0,0,1,.73.88"/><path class="cls-7" d="M101.66,63.19a2.79,2.79,0,0,1-.86-1.74,1.45,1.45,0,0,1,.72-1.41,2.48,2.48,0,0,1,1.18-.14,2.4,2.4,0,0,1,1.1.43"/><path class="cls-7" d="M116.22,95.69a3.19,3.19,0,0,1,2-1,2.08,2.08,0,0,1,1,.14,2,2,0,0,1,.81.63,2.6,2.6,0,0,1,.33,1.33,2.67,2.67,0,0,1-.39,1.32"/><path class="cls-7" d="M139.61,98.81a1.88,1.88,0,0,1,0-.71,2.06,2.06,0,0,1,.25-.68,1.56,1.56,0,0,1,.49-.5,1.44,1.44,0,0,1,.66-.25,1.65,1.65,0,0,1,.84.2,1.6,1.6,0,0,1,.6.61"/><path class="cls-8" d="M149.73,96.26a.66.66,0,0,1,.08-.34.7.7,0,0,1,.23-.28.93.93,0,0,1,.43-.19.94.94,0,0,1,.47.06.75.75,0,0,1,.45.71.73.73,0,0,1-.21.43.85.85,0,0,1-.42.24.88.88,0,0,1-.65-.11.81.81,0,0,1-.38-.52Z"/><path class="cls-8" d="M139,90.69a.72.72,0,0,1,.08-.35.67.67,0,0,1,.23-.27.84.84,0,0,1,.43-.19.94.94,0,0,1,.47.05.78.78,0,0,1,.33.29.73.73,0,0,1,.12.42.78.78,0,0,1-.2.44.83.83,0,0,1-.43.23.89.89,0,0,1-.64-.1.82.82,0,0,1-.39-.52Z"/><path class="cls-8" d="M126.42,88a1,1,0,0,1,.1-.41,1,1,0,0,1,.27-.32,1.13,1.13,0,0,1,.5-.22,1.11,1.11,0,0,1,.54.07.86.86,0,0,1,.39.34.91.91,0,0,1,.14.49.89.89,0,0,1-.25.5.93.93,0,0,1-.49.28,1,1,0,0,1-1.2-.73Z"/><path class="cls-8" d="M125.26,102.5a.85.85,0,0,1,.08-.35.78.78,0,0,1,.24-.27.93.93,0,0,1,.43-.19,1.07,1.07,0,0,1,.47,0,.92.92,0,0,1,.33.29.73.73,0,0,1,.11.43.78.78,0,0,1-.2.43.85.85,0,0,1-.42.24.87.87,0,0,1-.65-.11.86.86,0,0,1-.39-.52Z"/><path class="cls-8" d="M111.66,100.56a.85.85,0,0,1,.08-.35.89.89,0,0,1,.23-.28.9.9,0,0,1,.44-.18.84.84,0,0,1,.47,0,.77.77,0,0,1,.33.29.79.79,0,0,1,.12.42.9.9,0,0,1-.21.44.79.79,0,0,1-.43.23.89.89,0,0,1-.64-.1.85.85,0,0,1-.39-.52Z"/><path class="cls-8" d="M108.53,88.82a.73.73,0,0,1,.09-.35.74.74,0,0,1,.23-.27.93.93,0,0,1,.43-.19.94.94,0,0,1,.47.06.75.75,0,0,1,.33.28.82.82,0,0,1,.12.43.73.73,0,0,1-.21.43.85.85,0,0,1-.42.24.88.88,0,0,1-.65-.11A.86.86,0,0,1,108.53,88.82Z"/><path class="cls-9" d="M27.72,57.33a44.06,44.06,0,0,1,11.2-8.24,43.05,43.05,0,0,1,24.71-4.22,41.73,41.73,0,0,1,17.43,6.49A40,40,0,0,1,94.57,66.8a41.13,41.13,0,0,1,4.09,16.49c.25,4.13.62,10-2.14,16.85-1.32,3.26-4,10.07-10.31,13.17-5.12,2.55-9.32,1-17.42-.17-24.15-3.49-31.46,3.81-41.43-3.51a30.57,30.57,0,0,1-9.07-11.39,30.54,30.54,0,0,1-2.14-9.83A37.72,37.72,0,0,1,17.58,73,38.11,38.11,0,0,1,27.72,57.33Z"/><path class="cls-10" d="M42.07,67.73c-.86.52-1,.74-1,.92-.33.88.46,2.07,1.33,2.63a3.4,3.4,0,0,0,2,.55,3.28,3.28,0,0,0,2-.81,2.84,2.84,0,0,0,.72-1.15,2.69,2.69,0,0,0,.08-1.35,2.58,2.58,0,0,0-.54-1.19,2.61,2.61,0,0,0-1-.78C44.6,66.23,43.75,66.73,42.07,67.73Z"/><path class="cls-10" d="M45.4,88.92A2.69,2.69,0,0,1,46,87.47a2.82,2.82,0,0,1,1.28-.92,3,3,0,0,1,1.23-.12,2.9,2.9,0,0,1,1.17.39,2.39,2.39,0,0,1,.74.6,2.56,2.56,0,0,1,.46.84,2.64,2.64,0,0,1-.67,2.25c-.08.09-1.53,1.82-3.2,1.19a2.77,2.77,0,0,1-1.26-1.13A2.65,2.65,0,0,1,45.4,88.92Z"/><path class="cls-10" d="M72.34,97.79a1.35,1.35,0,0,1,.35-.73,1.41,1.41,0,0,1,.69-.42,1.65,1.65,0,0,1,.88.1,1.69,1.69,0,0,1,.72.52,1.49,1.49,0,0,1,.39.6,1.44,1.44,0,0,1,.06.71,1.69,1.69,0,0,1-2.73.24,1.54,1.54,0,0,1-.36-1Z"/><path class="cls-10" d="M34,85.94a1.83,1.83,0,0,1,1.14.32,1.81,1.81,0,0,1,.7.95,1.76,1.76,0,0,1-.09,1.06,1.73,1.73,0,0,1-.68.83,2,2,0,0,1-2.85-.88A1.93,1.93,0,0,1,34,85.94Z"/><path class="cls-11" d="M73.3,75.8a1.12,1.12,0,0,1,.46-.9,1.34,1.34,0,0,1,.62-.27,1.28,1.28,0,0,1,.67.08,1,1,0,0,1,.48.42,1.08,1.08,0,0,1,.17.61,1.13,1.13,0,0,1-.3.62,1.2,1.2,0,0,1-.61.34,1.26,1.26,0,0,1-.93-.15,1.24,1.24,0,0,1-.56-.75Z"/><path class="cls-12" d="M81.86,70.28a1,1,0,0,1,.1-.45,1.15,1.15,0,0,1,.87-.6,1.17,1.17,0,0,1,.61.07,1.12,1.12,0,0,1,.43.38,1,1,0,0,1,.15.55,1,1,0,0,1-.27.56,1.07,1.07,0,0,1-.55.3,1.13,1.13,0,0,1-.84-.13,1.11,1.11,0,0,1-.5-.68Z"/><path class="cls-1" d="M83.46,81.45a1,1,0,0,1,.11-.45,1.05,1.05,0,0,1,.3-.36,1.19,1.19,0,0,1,.56-.25,1.26,1.26,0,0,1,.61.07,1,1,0,0,1,.44.38A.85.85,0,0,1,85.36,82a1.08,1.08,0,0,1-.55.31,1.17,1.17,0,0,1-.84-.14,1.11,1.11,0,0,1-.51-.67Z"/><path class="cls-11" d="M87.42,106.37a1,1,0,0,1,.11-.45,1,1,0,0,1,.29-.36,1.2,1.2,0,0,1,.57-.24,1.12,1.12,0,0,1,.6.06,1.08,1.08,0,0,1,.44.38,1,1,0,0,1,.15.55,1,1,0,0,1-.27.56,1,1,0,0,1-.55.31,1.19,1.19,0,0,1-.84-.14,1.09,1.09,0,0,1-.5-.67Z"/><path class="cls-11" d="M89.24,101.54a1,1,0,0,1,.41-.81,1.23,1.23,0,0,1,.56-.24,1.17,1.17,0,0,1,.61.07,1,1,0,0,1,.43.37,1,1,0,0,1,.15.55,1,1,0,0,1-.27.57,1,1,0,0,1-.54.3,1.12,1.12,0,0,1-.84-.13,1.17,1.17,0,0,1-.51-.68Z"/><path class="cls-10" d="M87.64,94.43a2.08,2.08,0,0,1,.72.45,2,2,0,0,1,.48.68,1.67,1.67,0,0,1,.19.79,1.71,1.71,0,0,1-.19.8,1.79,1.79,0,0,1-.73.66,1.89,1.89,0,0,1-1,.19"/><path class="cls-11" d="M61.36,94.27a.73.73,0,0,1,.07-.29.71.71,0,0,1,.19-.23.87.87,0,0,1,.37-.16.94.94,0,0,1,.41,0,.75.75,0,0,1,.28.25.68.68,0,0,1,.1.36.7.7,0,0,1-.17.37.78.78,0,0,1-.35.21,1,1,0,0,1-.29,0,.94.94,0,0,1-.28-.1.8.8,0,0,1-.21-.2.68.68,0,0,1-.12-.26Z"/><path class="cls-10" d="M52.6,102.37a2.24,2.24,0,0,1,.77-1.32,1.24,1.24,0,0,1,1.26-.17,1.79,1.79,0,0,1,.63.68,1.9,1.9,0,0,1,.22.9"/><path class="cls-10" d="M27.92,99.06a2.15,2.15,0,0,1-.76-1.33,1.11,1.11,0,0,1,.07-.65,1.14,1.14,0,0,1,.4-.52,1.92,1.92,0,0,1,.91-.2,2,2,0,0,1,.9.27"/><path class="cls-11" d="M48.94,79.06a.73.73,0,0,1,.07-.29.74.74,0,0,1,.2-.23.82.82,0,0,1,.37-.16.79.79,0,0,1,.4.05.67.67,0,0,1,.28.25.56.56,0,0,1,.1.36.58.58,0,0,1-.17.36.66.66,0,0,1-.35.21.7.7,0,0,1-.29,0,.73.73,0,0,1-.28-.1.8.8,0,0,1-.21-.2.68.68,0,0,1-.12-.26Z"/><path class="cls-11" d="M21.56,86.48a.73.73,0,0,1,.07-.29.74.74,0,0,1,.2-.23.82.82,0,0,1,.37-.16.79.79,0,0,1,.4,0,.67.67,0,0,1,.28.25.56.56,0,0,1,.1.36.58.58,0,0,1-.17.36.61.61,0,0,1-.35.21.76.76,0,0,1-.57-.09.71.71,0,0,1-.33-.46Z"/><path class="cls-10" d="M29.37,77.24a2.43,2.43,0,0,1-.86-1.19.82.82,0,0,1,.35-1,2.07,2.07,0,0,1,.89-.08,2.27,2.27,0,0,1,.84.29"/><path class="cls-11" d="M37.2,56.86a.65.65,0,0,1,.08-.28.63.63,0,0,1,.2-.23.69.69,0,0,1,.36-.16.68.68,0,0,1,.4.05.62.62,0,0,1,.29.24.65.65,0,0,1,.1.36.74.74,0,0,1-.17.37.69.69,0,0,1-.35.2.76.76,0,0,1-.3,0,.68.68,0,0,1-.27-.1.64.64,0,0,1-.21-.19.84.84,0,0,1-.13-.27Z"/><path class="cls-11" d="M24.14,65.63a.73.73,0,0,1,.07-.29.74.74,0,0,1,.2-.23.81.81,0,0,1,.37-.15.79.79,0,0,1,.4,0,.65.65,0,0,1,.31.26.67.67,0,0,1,.08.39.69.69,0,0,1-.18.36.63.63,0,0,1-.37.17.74.74,0,0,1-.56-.1.71.71,0,0,1-.32-.45Z"/><path class="cls-10" d="M62.15,81.43c-.19.67-.14.86-.09,1,.26.61,1.25.83,2,.71a2.32,2.32,0,0,0,1.31-.71,2.23,2.23,0,0,0,.6-1.35,2,2,0,0,0-.2-.93,1.9,1.9,0,0,0-.62-.73,1.81,1.81,0,0,0-.86-.35,1.92,1.92,0,0,0-.92.1C62.71,79.45,62.52,80.11,62.15,81.43Z"/><path class="cls-13" d="M37.18,52.85A11.2,11.2,0,0,0,31,56.27c-1.68,1.87-2.54,4.19-2.21,4.43s1.69-2,5-3.89a31.62,31.62,0,0,1,3.48-1.65c3.22-1.41,4.51-1.71,4.47-2.06S39.35,52.45,37.18,52.85Z"/><path class="cls-10" d="M57.26,54.15a2.43,2.43,0,0,1,.82-1.2.82.82,0,0,1,.52-.18.8.8,0,0,1,.52.18,2,2,0,0,1,.4.79,2,2,0,0,1,0,.88"/><path class="cls-10" d="M72.15,61c.4.27.52.28.62.27.45,0,.81-.62.88-1.12a1.47,1.47,0,0,0-.19-1,1.55,1.55,0,0,0-.76-.67,1.31,1.31,0,0,0-.65-.06,1.35,1.35,0,0,0-.61.24,1.24,1.24,0,0,0-.4.48,1.28,1.28,0,0,0-.12.61C71,60.28,71.36,60.53,72.15,61Z"/><path class="cls-11" d="M60.28,68.93a1.7,1.7,0,0,1,.17-.73,1.84,1.84,0,0,1,1.38-1,1.82,1.82,0,0,1,1,.11,1.55,1.55,0,0,1,.94,1.5,1.53,1.53,0,0,1-.43.9,1.58,1.58,0,0,1-.88.49A1.85,1.85,0,0,1,60.28,68.93Z"/><path class="cls-13" d="M17.8,79.68a16.08,16.08,0,0,0,.52,10.45c1.43,3.7,4,6.87,4.54,6.7s-1.56-3.81-2-9.47a50,50,0,0,1,.1-5.61c.21-5.11.66-6.88.18-7.14C20.54,74.28,18.7,76.75,17.8,79.68Z"/><path class="cls-5" d="M114.19,15A11.09,11.09,0,0,0,109,10.21c-2.32-1-4.83-1.1-5-.72s2.43,1,5.3,3.51A34.79,34.79,0,0,1,112,15.76c2.36,2.58,3,3.73,3.35,3.58S115.24,16.89,114.19,15Z"/><path class="cls-14" d="M15.44,90.68c-.25-.7-4.61-.52-8.53,1.57C5.26,93.15,2,94.9.51,98.76c-1.56,4.12,1,9.43,1.05,10a32.59,32.59,0,0,0,4.26,3.69,34.7,34.7,0,0,0,11.07,5.21c19,5.47,28.75,6.81,28.75,6.81a273.75,273.75,0,0,0,37.08,3.16c5.65.07,9.92-.06,12.92-.17,14.51-.51,21.76-.74,27.09-1.15A255.15,255.15,0,0,0,159,120.78c2.51-.63,16.82-4.3,22.93-10.52a10.34,10.34,0,0,0,2.75-4.48c1.16-4.27-1.32-8.13-2-9.13-2.58-4.09-6.45-5.3-11.38-6.84-.31-.1-2-.63-2.29-.2s1.53,1.43,2.26,3.2c0,0,.86,2.06-.59,5.35-3.77,8.55-26.76,11-26.76,11-18.57,1.94-32.82,1.9-50.13,1.76,0,0-34.76-.28-59-4.18-1.48-.24-2.49-.47-4.5-.91-9.56-2.12-14.75-3.33-16.89-7.22-.26-.46-1.57-2.79-.71-4.91C13.55,91.71,15.62,91.18,15.44,90.68Z"/><path class="cls-5" d="M19.8,144.72A34.21,34.21,0,0,0,35,160.52c7,3.55,14.74,4.35,15.2,3.16s-7.31-3.48-15.71-11.86a106.08,106.08,0,0,1-7.69-9c-6.79-8.51-8.69-12.12-9.67-11.72C15.86,131.56,16.9,138.59,19.8,144.72Z"/><path class="cls-5" d="M3.11,106.28A11,11,0,0,0,8,111.36c2.25,1.14,4.75,1.4,4.89,1s-2.36-1.12-5.05-3.82a34.45,34.45,0,0,1-2.48-2.92c-2.18-2.77-2.8-3.91-3.11-3.8S2.17,104.3,3.11,106.28Z"/><path class="cls-15" d="M156.59,91.07a1.77,1.77,0,0,0,2.13,2.55,2.36,2.36,0,0,0,1.29-.77,2.33,2.33,0,0,0,.57-1.39,2,2,0,0,0-.23-.92,1.89,1.89,0,0,0-.65-.7,2,2,0,0,0-.88-.27,2.08,2.08,0,0,0-.92.13,2.41,2.41,0,0,0-.8.54,2.3,2.3,0,0,0-.51.83Z"/><path class="cls-16" d="M152.87,79.41A1,1,0,0,1,153,79a1,1,0,0,1,.3-.36,1.13,1.13,0,0,1,.56-.24,1.28,1.28,0,0,1,.61.06.9.9,0,0,1,.31,1.49,1.08,1.08,0,0,1-.55.31,1.17,1.17,0,0,1-.84-.14,1.14,1.14,0,0,1-.51-.67Z"/><path class="cls-16" d="M161.76,72.86a1,1,0,0,1,.11-.45,1.16,1.16,0,0,1,.3-.36,1.17,1.17,0,0,1,.56-.24,1.2,1.2,0,0,1,.62.07,1.09,1.09,0,0,1,.43.37,1,1,0,0,1,.15.55,1,1,0,0,1-.27.56,1,1,0,0,1-.55.31,1.17,1.17,0,0,1-.84-.14,1.14,1.14,0,0,1-.51-.67Z"/><path class="cls-15" d="M130,50.7c-.39.09-2.25.51-2.54,1.5s1.71,1.85,1.82,1.89a8,8,0,0,0,5.44-.18c.77-.41,1.35-1.08,1.08-1.81-.35-.94-1.91-1.35-2.17-1.42a8.09,8.09,0,0,0-3.63,0Z"/><path class="cls-15" d="M147.28,61a2.62,2.62,0,0,0-.55,4.85,3.35,3.35,0,0,0,2.11.56,3.4,3.4,0,0,0,2-.83,3,3,0,0,0,.74-1.19,2.84,2.84,0,0,0,.08-1.39,3,3,0,0,0-.58-1.2A3.18,3.18,0,0,0,150,61a3.35,3.35,0,0,0-2.75,0Z"/><path class="cls-16" d="M143.77,48.28a.23.23,0,0,1,0-.14.27.27,0,0,1,.09-.12.45.45,0,0,1,.18-.07.34.34,0,0,1,.2,0,.32.32,0,0,1,.14.12.27.27,0,0,1,0,.36.31.31,0,0,1-.18.09.36.36,0,0,1-.27,0,.4.4,0,0,1-.16-.22Z"/><path class="cls-16" d="M152.82,56.85a1,1,0,0,1,.07-.39,1,1,0,0,1,.21-.31.68.68,0,0,1,.8-.15.78.78,0,0,1,.29.33.85.85,0,0,1-.08,1,.65.65,0,0,1-1,.15A1,1,0,0,1,152.82,56.85Z"/><path class="cls-16" d="M125.59,44.43a.76.76,0,0,1,.32-.63.83.83,0,0,1,.43-.18.9.9,0,0,1,.46.05.74.74,0,0,1,.34.29.65.65,0,0,1-.09.86.76.76,0,0,1-.42.23.89.89,0,0,1-1-.62Z"/><path class="cls-16" d="M131.67,38.05a.68.68,0,0,1,.09-.35.7.7,0,0,1,.23-.28.93.93,0,0,1,.43-.19.94.94,0,0,1,.47.06.72.72,0,0,1,.33.29.69.69,0,0,1,.12.42.73.73,0,0,1-.21.43.88.88,0,0,1-1.46-.38Z"/><path class="cls-16" d="M126.08,38.5a.77.77,0,0,1,.08-.34.79.79,0,0,1,.23-.28.9.9,0,0,1,.43-.18.84.84,0,0,1,.47,0,.74.74,0,0,1,.34.29.68.68,0,0,1,.11.42.78.78,0,0,1-.2.43.92.92,0,0,1-.43.24.85.85,0,0,1-.64-.11.79.79,0,0,1-.39-.52Z"/><path class="cls-17" d="M158.55,49.05a17.68,17.68,0,0,0-8-7.84c-3.53-1.66-7.34-1.84-7.52-1.2s3.69,1.61,8.06,5.76a58.06,58.06,0,0,1,4.06,4.53c3.6,4.27,4.64,6.11,5.11,5.86S160.16,52.19,158.55,49.05Z"/></g></g></svg>