<svg xmlns="http://www.w3.org/2000/svg" xmlns:xlink="http://www.w3.org/1999/xlink" width="183" height="171" viewBox="0 0 183 171"><defs><style>.cls-1,.cls-11,.cls-14,.cls-19,.cls-5,.cls-8{fill:none;}.cls-2{clip-path:url(#clip-path);}.cls-3{fill:#eae8e5;}.cls-4{fill:#e7d6a8;}.cls-5{stroke:#fff;}.cls-11,.cls-14,.cls-19,.cls-20,.cls-21,.cls-5,.cls-8{stroke-miterlimit:10;}.cls-6{fill:#fff;}.cls-7{fill:#fd83ec;}.cls-8{stroke:#addedd;}.cls-20,.cls-9{fill:#aededd;}.cls-10{fill:#fda946;}.cls-11{stroke:#f4cba2;}.cls-12{fill:#f4cba2;}.cls-13{fill:#fdc58b;}.cls-14{stroke:#231f20;}.cls-15{fill:#d8b67b;}.cls-16{fill:#e4d59d;}.cls-17{fill:#f4e6c0;}.cls-18{fill:#dddad7;}.cls-19,.cls-20,.cls-21{stroke:#f25de0;}.cls-21{fill:#f25de0;}</style><clipPath id="clip-path"><rect class="cls-1" x="2.42" y="-8.32" width="177.58" height="175.86"/></clipPath></defs><g id="Layer_5" data-name="Layer 5"><g class="cls-2"><path class="cls-3" d="M18.12,92.24c-2.07,1.43-8,5.51-7.57,10.38.26,3.21,3.16,5.41,4.34,6.29,13.84,10.22,47,9,47,9,47.49-1.68,57.11,7.83,88.22-1.51,20.71-6.22,22.34-12.2,22.53-14.33.58-6.26-8.22-11.78-11.07-13.57-25.51-16-45,3.8-95.1-.75C55.24,86.78,30.8,83.49,18.12,92.24Z"/><path class="cls-3" d="M9,113s2.44,9.91,5.6,18.93c0,0,4.95,14,12.11,22.8a21.68,21.68,0,0,0,8.36,6.5A60.9,60.9,0,0,0,46.13,165,102,102,0,0,0,64,166.63c16.45.59,12.75.71,20.2.84,14,.25,24.74-.24,29.7-.49,4.64-.25,10.05-.83,20.88-2,9.28-1,11.54-2,13.58-3,7.11-3.42,11-9.07,13.46-12.79,2.13-3.19,3.63-6.28,7.08-16.38,1.94-5.68,4.4-13.29,7-22.45L64.14,117Z"/><path class="cls-4" d="M59,17.89A42.69,42.69,0,0,1,69.66,10,41.08,41.08,0,0,1,93.25,6a39.43,39.43,0,0,1,16.64,6.2A38.18,38.18,0,0,1,122.79,27a39.37,39.37,0,0,1,3.9,15.75c.24,3.94.59,9.58-2,16.09-1.26,3.11-3.88,9.6-9.85,12.56-4.89,2.43-8.9,1-16.64-.16-23-3.34-30,3.63-39.54-3.36A29.22,29.22,0,0,1,50,57a29.07,29.07,0,0,1-2-9.38,36.11,36.11,0,0,1,1.36-14.76A36.57,36.57,0,0,1,59,17.89Z"/><path class="cls-5" d="M76.85,60.66A1.4,1.4,0,0,1,77,60a1.42,1.42,0,0,1,.43-.51,1.78,1.78,0,0,1,.82-.36,1.67,1.67,0,0,1,.88.11A1.42,1.42,0,0,1,80,60.57a1.47,1.47,0,0,1-.39.82,1.45,1.45,0,0,1-.8.44A1.64,1.64,0,0,1,76.85,60.66Z"/><path class="cls-5" d="M57.76,57a2.16,2.16,0,0,1,.34-.72,2,2,0,0,1,.6-.53,1.76,1.76,0,0,1,1.53-.17,1.69,1.69,0,0,1,.71.61,1.62,1.62,0,0,1,.28.9"/><path class="cls-6" d="M69.27,67.11a.58.58,0,0,1,.06-.26.91.91,0,0,1,.18-.21.77.77,0,0,1,.32-.14.73.73,0,0,1,.36,0,.59.59,0,0,1,.25.22.57.57,0,0,1,.09.32.61.61,0,0,1-.5.49.7.7,0,0,1-.47-.08.69.69,0,0,1-.29-.38Z"/><path class="cls-5" d="M80.66,31.06c-.81.49-1,.7-1,.88-.32.83.44,2,1.27,2.51a3.16,3.16,0,0,0,3.82-.25,2.75,2.75,0,0,0,.68-1.1,2.69,2.69,0,0,0,.08-1.29A2.43,2.43,0,0,0,85,30.67a2.53,2.53,0,0,0-1-.75C83.08,29.62,82.27,30.1,80.66,31.06Z"/><path class="cls-5" d="M70.73,37.12a2,2,0,0,0-.82.55,1.87,1.87,0,0,0-.46.88,2.06,2.06,0,0,0,.91,1.81,2.34,2.34,0,0,0,1.41.37,2.3,2.3,0,0,0,1.34-.56,1.91,1.91,0,0,0,.5-.8,1.84,1.84,0,0,0,.06-.93,2,2,0,0,0-1.1-1.36,2.12,2.12,0,0,0-.93-.18A2.07,2.07,0,0,0,70.73,37.12Z"/><path class="cls-5" d="M107.32,26.69a2,2,0,0,0-.82.56,1.88,1.88,0,0,0-.46.87,2,2,0,0,0,.91,1.8,2.27,2.27,0,0,0,2.75-.17,1.85,1.85,0,0,0,.49-.8,1.79,1.79,0,0,0,.06-.92,2,2,0,0,0-.39-.8,1.94,1.94,0,0,0-.71-.56,2.23,2.23,0,0,0-.92-.19,2.42,2.42,0,0,0-.91.21Z"/><path class="cls-5" d="M92.83,16.47a1.31,1.31,0,0,1,.5-1,1.52,1.52,0,0,1,1.5-.22,1.22,1.22,0,0,1,.55.48,1.24,1.24,0,0,1,.2.7,1.33,1.33,0,0,1-1,1.11,1.47,1.47,0,0,1-1.06-.19,1.45,1.45,0,0,1-.64-.85Z"/><path class="cls-5" d="M70.73,21.3a2.8,2.8,0,0,1,.79-1.61,1.14,1.14,0,0,1,1.31-.22,2.37,2.37,0,0,1,.67.87,2.3,2.3,0,0,1,.22,1.06"/><path class="cls-5" d="M58.3,40.64a3.7,3.7,0,0,1-1.77-1.1,1,1,0,0,1,0-1.36,3,3,0,0,1,2.42-.52"/><path class="cls-6" d="M94.57,34.8a1.05,1.05,0,0,1,.11-.43A1,1,0,0,1,95,34a1.18,1.18,0,0,1,.54-.23,1.14,1.14,0,0,1,.58.06,1,1,0,0,1,.42.36.81.81,0,0,1-.1,1.06,1,1,0,0,1-.53.29,1,1,0,0,1-.81-.12,1.07,1.07,0,0,1-.49-.65Z"/><path class="cls-6" d="M60.2,28.51a1,1,0,0,1,.1-.43,1,1,0,0,1,.29-.34,1.06,1.06,0,0,1,.54-.24,1.16,1.16,0,0,1,.58.07,1,1,0,0,1,.4.36,1,1,0,0,1,.14.52A1,1,0,0,1,62,29a1,1,0,0,1-.52.29,1.09,1.09,0,0,1-.79-.14A1,1,0,0,1,60.2,28.51Z"/><path class="cls-6" d="M108.16,38.93a.91.91,0,0,1,.1-.43,1,1,0,0,1,.29-.34,1.06,1.06,0,0,1,.54-.24,1.16,1.16,0,0,1,.58.07,1,1,0,0,1,.41.36.91.91,0,0,1-.64,1.35,1.07,1.07,0,0,1-.8-.13,1,1,0,0,1-.48-.64Z"/><path class="cls-6" d="M91.3,47.39a1.13,1.13,0,0,1,.1-.44,1.05,1.05,0,0,1,.29-.34,1.18,1.18,0,0,1,.54-.23,1,1,0,0,1,.58.07.85.85,0,0,1,.41.36,1,1,0,0,1,.15.52,1,1,0,0,1-.26.54,1,1,0,0,1-.52.29,1.09,1.09,0,0,1-1.29-.77Z"/><path class="cls-6" d="M82,45a.94.94,0,0,1,.39-.77,1.15,1.15,0,0,1,.53-.23,1.19,1.19,0,0,1,.59.06,1,1,0,0,1,.41.36.83.83,0,0,1-.11,1.06,1,1,0,0,1-.52.29A1.06,1.06,0,0,1,82,45Z"/><path class="cls-6" d="M83.72,12.11a.92.92,0,0,1-.12-.45.89.89,0,0,1,.12-.45,1.64,1.64,0,0,1,.44-.54,1.53,1.53,0,0,1,.64-.28,1,1,0,0,1,1,.41,1.14,1.14,0,0,1,0,.66,1.09,1.09,0,0,1-.39.53C84.94,12.44,84,12.51,83.72,12.11Z"/><path class="cls-6" d="M82.91,22.83a.69.69,0,0,1,.08-.28.55.55,0,0,1,.18-.22.77.77,0,0,1,.36-.15.7.7,0,0,1,.38,0,.57.57,0,0,1,.28.25.59.59,0,0,1,.08.37.6.6,0,0,1-.51.51.71.71,0,0,1-.53-.09.76.76,0,0,1-.32-.43Z"/><path class="cls-7" d="M98.54,51.39a42.26,42.26,0,0,1,10.69-7.88,43.12,43.12,0,0,1,9-3.22c4.28-1.13,8.86-2.34,14.65-1.85a34.62,34.62,0,0,1,12.39,3.68c10.93,5.59,15.64,15.2,17.11,18.3a43.2,43.2,0,0,1,3.9,15.75,36.38,36.38,0,0,1-2,16.08c-5,13-17.39,18.94-22.54,21.42a39.75,39.75,0,0,1-7.3,2.85c-2.74.74-17.45,4.37-29.53-3.86C96.17,106.76,92.22,97,89.54,90.41a28.86,28.86,0,0,1-2-9.38,35.84,35.84,0,0,1,1.36-14.77A36.65,36.65,0,0,1,98.54,51.39Z"/><path class="cls-8" d="M112.11,65.45c-.37.08-2.15.49-2.42,1.43s1.62,1.77,1.73,1.81a7.59,7.59,0,0,0,5.19-.18c.74-.39,1.3-1,1-1.72-.34-.9-1.83-1.3-2.08-1.36a7.63,7.63,0,0,0-3.46,0Z"/><path class="cls-8" d="M130.47,70.43a2.07,2.07,0,0,0-1.36,1.43,2,2,0,0,0,1,1.81,2.62,2.62,0,0,0,1.5.37,2.58,2.58,0,0,0,1.43-.55,2,2,0,0,0,.52-.79,1.84,1.84,0,0,0,.06-.93,1.91,1.91,0,0,0-.42-.81,2,2,0,0,0-.75-.55,2.39,2.39,0,0,0-1-.19A2.37,2.37,0,0,0,130.47,70.43Z"/><path class="cls-8" d="M107.2,78.3a1.41,1.41,0,0,1,.14-.57,1.33,1.33,0,0,1,.39-.46,1.55,1.55,0,0,1,.72-.31,1.44,1.44,0,0,1,.77.09,1.3,1.3,0,0,1,.56.48,1.1,1.1,0,0,1-.15,1.42,1.4,1.4,0,0,1-.7.39,1.47,1.47,0,0,1-1.08-.18A1.45,1.45,0,0,1,107.2,78.3Z"/><path class="cls-8" d="M111.36,57a2.75,2.75,0,0,1-.09-1.79,1,1,0,0,1,.39-.57,1.08,1.08,0,0,1,.65-.24A2.43,2.43,0,0,1,114,55.7"/><path class="cls-8" d="M100.43,66a2.65,2.65,0,0,1-.81-1.66,1.35,1.35,0,0,1,.14-.77,1.44,1.44,0,0,1,.54-.58,2.37,2.37,0,0,1,1.12-.13,2.33,2.33,0,0,1,1.06.41"/><path class="cls-8" d="M114.33,97a3.06,3.06,0,0,1,1.94-1,1.87,1.87,0,0,1,1.74.73,2.47,2.47,0,0,1,.32,1.27,2.54,2.54,0,0,1-.38,1.26"/><path class="cls-8" d="M136.67,100a1.56,1.56,0,0,1,0-.68,1.89,1.89,0,0,1,.24-.65,1.41,1.41,0,0,1,.46-.48A1.47,1.47,0,0,1,138,98a1.55,1.55,0,0,1,.81.2,1.45,1.45,0,0,1,.57.58"/><path class="cls-9" d="M146.32,97.58a.81.81,0,0,1,.08-.34.92.92,0,0,1,.22-.26,1,1,0,0,1,.42-.18.94.94,0,0,1,.44,0,.79.79,0,0,1,.32.28.72.72,0,0,1,.12.4.82.82,0,0,1-.2.42.78.78,0,0,1-.41.22.81.81,0,0,1-.61-.1.84.84,0,0,1-.38-.49Z"/><path class="cls-9" d="M136,92.26a.81.81,0,0,1,.08-.34.78.78,0,0,1,.22-.26.89.89,0,0,1,.41-.18,1,1,0,0,1,.45,0,.79.79,0,0,1,.32.28.64.64,0,0,1,.11.4.81.81,0,0,1-.19.42.78.78,0,0,1-.41.22.86.86,0,0,1-.61-.1.84.84,0,0,1-.38-.49Z"/><path class="cls-9" d="M124.08,89.67a.86.86,0,0,1,.35-.7.9.9,0,0,1,.47-.2.92.92,0,0,1,.52.06.83.83,0,0,1,.37.32.78.78,0,0,1,.13.47.8.8,0,0,1-.23.48.91.91,0,0,1-.47.26,1,1,0,0,1-.71-.12A.91.91,0,0,1,124.08,89.67Z"/><path class="cls-9" d="M123,103.53a.64.64,0,0,1,.08-.33.78.78,0,0,1,.22-.26.8.8,0,0,1,.41-.18,1,1,0,0,1,.45,0,.65.65,0,0,1,.31.28.6.6,0,0,1-.08.81.74.74,0,0,1-.4.23.84.84,0,0,1-.62-.1.78.78,0,0,1-.37-.5Z"/><path class="cls-9" d="M110,101.68a.81.81,0,0,1,.08-.34.78.78,0,0,1,.22-.26.89.89,0,0,1,.41-.18,1,1,0,0,1,.45,0,.79.79,0,0,1,.32.28.71.71,0,0,1,.11.4.75.75,0,0,1-.6.64.85.85,0,0,1-.62-.1.83.83,0,0,1-.37-.49Z"/><path class="cls-9" d="M107,90.47a.66.66,0,0,1,.09-.33.68.68,0,0,1,.22-.26.8.8,0,0,1,.41-.18.87.87,0,0,1,.45,0,.76.76,0,0,1,.32.27.87.87,0,0,1,.11.41.72.72,0,0,1-.2.41.74.74,0,0,1-.4.23.85.85,0,0,1-1-.6Z"/><path class="cls-10" d="M29.84,60.41a42.13,42.13,0,0,1,10.7-7.88,41.13,41.13,0,0,1,23.59-4,39.71,39.71,0,0,1,16.63,6.2,38.09,38.09,0,0,1,12.9,14.73,39.26,39.26,0,0,1,3.91,15.75c.24,3.94.59,9.58-2,16.09-1.26,3.11-3.86,9.61-9.85,12.57-4.88,2.43-8.9,1-16.63-.16-23-3.34-30,3.64-39.55-3.35a29.24,29.24,0,0,1-8.66-10.87,29,29,0,0,1-2-9.39,35.65,35.65,0,0,1,1.36-14.74A36.37,36.37,0,0,1,29.84,60.41Z"/><path class="cls-11" d="M43.54,70.34c-.82.49-.95.7-1,.88-.32.83.44,2,1.27,2.51a3.16,3.16,0,0,0,3.82-.25,2.64,2.64,0,0,0,.68-1.1,2.57,2.57,0,0,0,.08-1.29A2.51,2.51,0,0,0,47.88,70a2.68,2.68,0,0,0-1-.75C46,68.9,45.15,69.38,43.54,70.34Z"/><path class="cls-11" d="M46.72,90.56a2.62,2.62,0,0,1,.56-1.38,2.72,2.72,0,0,1,1.22-.87,2.62,2.62,0,0,1,1.18-.12,2.75,2.75,0,0,1,1.11.37,2.36,2.36,0,0,1,.72.57,2.53,2.53,0,0,1,.43.81,2.45,2.45,0,0,1-.07,1.14,2.58,2.58,0,0,1-.56,1c-.08.08-1.46,1.73-3.06,1.13a2.56,2.56,0,0,1-1.53-2.66Z"/><path class="cls-11" d="M72.44,99a1.28,1.28,0,0,1,.33-.69,1.3,1.3,0,0,1,.66-.4,1.63,1.63,0,0,1,1.53.59,1.34,1.34,0,0,1,.37.57,1.31,1.31,0,0,1,.06.68,1.5,1.5,0,0,1-1.7.76,1.54,1.54,0,0,1-.91-.53,1.47,1.47,0,0,1-.34-1Z"/><path class="cls-11" d="M35.86,87.72a1.63,1.63,0,0,1,1,3,1.92,1.92,0,0,1-2.72-.84A1.83,1.83,0,0,1,35.86,87.72Z"/><path class="cls-12" d="M73.36,78a1.13,1.13,0,0,1,.11-.48,1.18,1.18,0,0,1,.32-.38,1.41,1.41,0,0,1,.6-.26A1.28,1.28,0,0,1,75,77a1,1,0,0,1,.46.4,1.06,1.06,0,0,1,.16.58,1.09,1.09,0,0,1-.29.6,1.15,1.15,0,0,1-.58.32,1.27,1.27,0,0,1-.89-.15,1.19,1.19,0,0,1-.53-.71Z"/><path class="cls-12" d="M81.53,72.77a.94.94,0,0,1,.1-.43,1.05,1.05,0,0,1,.29-.34,1.15,1.15,0,0,1,.53-.23,1.19,1.19,0,0,1,.59.06,1,1,0,0,1,.4.37.94.94,0,0,1,.16.52,1,1,0,0,1-.26.53,1.08,1.08,0,0,1-.53.3,1.12,1.12,0,0,1-.8-.13,1.09,1.09,0,0,1-.48-.65Z"/><path class="cls-12" d="M83.06,83.43a.94.94,0,0,1,.39-.77,1.1,1.1,0,0,1,.54-.24,1.29,1.29,0,0,1,.58.07,1,1,0,0,1,.41.36.91.91,0,0,1-.64,1.35,1.07,1.07,0,0,1-.8-.13,1,1,0,0,1-.48-.64Z"/><path class="cls-12" d="M86.84,107.22a.94.94,0,0,1,.1-.43,1,1,0,0,1,.28-.34,1.18,1.18,0,0,1,.54-.23,1.14,1.14,0,0,1,.58.06,1.05,1.05,0,0,1,.42.36.9.9,0,0,1,.14.53.88.88,0,0,1-.25.53,1.08,1.08,0,0,1-.53.3,1.12,1.12,0,0,1-.8-.13,1.09,1.09,0,0,1-.48-.65Z"/><path class="cls-12" d="M88.58,102.62a.91.91,0,0,1,.1-.43,1,1,0,0,1,.29-.34,1.07,1.07,0,0,1,.53-.24,1.14,1.14,0,0,1,.58.07.92.92,0,0,1,.42.36.85.85,0,0,1,.14.52,1.08,1.08,0,0,1-.25.54,1,1,0,0,1-.53.29,1.12,1.12,0,0,1-.8-.13,1,1,0,0,1-.48-.64Z"/><path class="cls-11" d="M87.05,95.83a2,2,0,0,1,.68.42,2.12,2.12,0,0,1,.47.65,1.53,1.53,0,0,1-.71,2.16,1.74,1.74,0,0,1-.93.17"/><path class="cls-12" d="M62,95.67A.52.52,0,0,1,62,95.4a.55.55,0,0,1,.18-.22.78.78,0,0,1,.35-.15.74.74,0,0,1,.39,0,.67.67,0,0,1,.27.23.63.63,0,0,1,.09.35.6.6,0,0,1-.16.35.64.64,0,0,1-.34.19.62.62,0,0,1-.27,0,.67.67,0,0,1-.26-.1.76.76,0,0,1-.21-.19.71.71,0,0,1-.11-.25Z"/><path class="cls-11" d="M53.59,103.41a2.1,2.1,0,0,1,.74-1.26,1.16,1.16,0,0,1,.58-.25,1.19,1.19,0,0,1,.62.08,1.78,1.78,0,0,1,.6.65,1.64,1.64,0,0,1,.21.86"/><path class="cls-11" d="M30,100.25A2.13,2.13,0,0,1,29.3,99a1.23,1.23,0,0,1,.07-.63,1.15,1.15,0,0,1,.39-.49,1.76,1.76,0,0,1,.87-.19,1.84,1.84,0,0,1,.85.26"/><path class="cls-12" d="M50.1,81.15a.68.68,0,0,1,.07-.28.64.64,0,0,1,.19-.21.75.75,0,0,1,.35-.16.82.82,0,0,1,.38,0,.57.57,0,0,1,.27.24.59.59,0,0,1,.1.34.66.66,0,0,1-.16.35.73.73,0,0,1-.34.2.87.87,0,0,1-.28,0,.82.82,0,0,1-.26-.1.76.76,0,0,1-.21-.19.71.71,0,0,1-.11-.25Z"/><path class="cls-12" d="M24,88.23A.64.64,0,0,1,24,88a.67.67,0,0,1,.19-.22.73.73,0,0,1,.35-.15.81.81,0,0,1,.38,0,.63.63,0,0,1,.27.24.6.6,0,0,1,.1.35.66.66,0,0,1-.16.35.72.72,0,0,1-.34.19.73.73,0,0,1-.54-.09.66.66,0,0,1-.32-.44Z"/><path class="cls-11" d="M31.41,79.41a2.25,2.25,0,0,1-.81-1.13.74.74,0,0,1,0-.51.79.79,0,0,1,.32-.4,2.22,2.22,0,0,1,.85-.08,1.93,1.93,0,0,1,.8.29"/><path class="cls-12" d="M38.9,60a.55.55,0,0,1,.07-.28.72.72,0,0,1,.54-.36.7.7,0,0,1,.38,0,.67.67,0,0,1,.27.23.64.64,0,0,1,.1.35.68.68,0,0,1-.17.35.58.58,0,0,1-.33.19.66.66,0,0,1-.28,0,.62.62,0,0,1-.26-.09.76.76,0,0,1-.21-.19A.71.71,0,0,1,38.9,60Z"/><path class="cls-12" d="M26.42,68.33a.68.68,0,0,1,.07-.28.64.64,0,0,1,.19-.21.73.73,0,0,1,.35-.15.7.7,0,0,1,.38,0,.57.57,0,0,1,.3.25.59.59,0,0,1,.07.37.51.51,0,0,1-.17.34.61.61,0,0,1-.35.17.71.71,0,0,1-.53-.1.68.68,0,0,1-.31-.43Z"/><path class="cls-11" d="M62.71,83.42c-.18.64-.14.81-.09.93.25.58,1.2.8,1.89.68a2.18,2.18,0,0,0,1.25-.68,2.15,2.15,0,0,0,.57-1.29,1.83,1.83,0,0,0-.19-.89,2,2,0,0,0-.59-.7,1.85,1.85,0,0,0-.82-.33,1.88,1.88,0,0,0-.88.1C63.25,81.52,63.06,82.16,62.71,83.42Z"/><path class="cls-13" d="M38.87,56.13A10.64,10.64,0,0,0,33,59.39c-1.61,1.79-2.44,4-2.11,4.23s1.6-1.89,4.78-3.71a30.52,30.52,0,0,1,3.32-1.57c3.08-1.36,4.31-1.64,4.26-2S40.94,55.74,38.87,56.13Z"/><path class="cls-11" d="M58,57.37a2.28,2.28,0,0,1,.79-1.14.77.77,0,0,1,1,0,1.9,1.9,0,0,1,.38.75,1.83,1.83,0,0,1,0,.84"/><path class="cls-11" d="M72.26,64c.38.25.5.26.6.26.42,0,.76-.6.83-1.07a1.45,1.45,0,0,0-.17-.94,1.56,1.56,0,0,0-.73-.64,1.35,1.35,0,0,0-.63-.06,1.39,1.39,0,0,0-.58.23,1.3,1.3,0,0,0-.38.46,1.08,1.08,0,0,0-.11.59C71.13,63.22,71.5,63.46,72.26,64Z"/><path class="cls-12" d="M60.92,71.48a1.58,1.58,0,0,1,.63-1.24,2,2,0,0,1,.86-.37,1.83,1.83,0,0,1,.93.11,1.48,1.48,0,0,1,.68.58,1.43,1.43,0,0,1,.22.85,1.51,1.51,0,0,1-.41.87,1.52,1.52,0,0,1-.84.46A1.77,1.77,0,0,1,60.92,71.48Z"/><path class="cls-13" d="M20.37,81.75a15.3,15.3,0,0,0,.5,10c1.36,3.53,3.82,6.56,4.33,6.4s-1.49-3.64-1.88-9a47.9,47.9,0,0,1,.09-5.36c.21-4.88.64-6.57.18-6.81S21.23,79,20.37,81.75Z"/><path class="cls-6" d="M112.4,20a10.68,10.68,0,0,0-5-4.56c-2.21-.95-4.61-1-4.73-.67s2.32.93,5,3.34a31.9,31.9,0,0,1,2.56,2.64c2.25,2.46,2.9,3.55,3.19,3.41S113.4,21.8,112.4,20Z"/><path class="cls-14" d="M36.15,97.94a78,78,0,0,1,13.14-6.52c9.36-3.62,16.95-4.53,23.93-5.32a158.62,158.62,0,0,1,36.31.49c9.17,1.13,16.87,2.16,26.36,6.17A77.29,77.29,0,0,1,149.15,100"/><path class="cls-15" d="M73.35,30.74a15.58,15.58,0,0,1,.28,4.52,5.33,5.33,0,0,0,0,2.69,4.6,4.6,0,0,0,2.77,2.18,24.35,24.35,0,0,0,9.48,1.13,70,70,0,0,1,12.61.66,35.91,35.91,0,0,1,12.42,4.53c4.71,2.75,12.52,8.81,13.32,14.18a4,4,0,0,0,1,2.52c1.37,1.32,3.25.63,6.21,1.5a20.29,20.29,0,0,1,3.63,1.84c4.16,2.37,6.52,3.74,8.45,6.51a16,16,0,0,1,2.29,5.15,15.1,15.1,0,0,1,.65,6.37c-.35,2.37-1.15,3-.7,4.33.52,1.57,2,1.77,3.44,3a10.16,10.16,0,0,1,2.29,11.52c-.91,1.74-2.42,2.8-5.73,4.33a57.23,57.23,0,0,1-15.53,5,323.33,323.33,0,0,1-35.17,2.88c-13.13,0-19.69.06-29.32-.84-10-.93-33.37-3.12-34.75-10.64a11,11,0,0,1,.76-4.88,19.38,19.38,0,0,1,5.53-8.2c2.29-2.27,3.64-3.57,6-4.33,2.08-.68,3.82-.57,4.16-1.52s-.84-1.35-1.89-3.17a11.75,11.75,0,0,1-1.38-5.65A10.59,10.59,0,0,1,46,71c2-3.4,4.16-4.47,9-8.37,5-4,7.52-6,8.64-8.34a27.35,27.35,0,0,0,2.07-9.68c0-2.67-.38-4,.53-6.18a13.93,13.93,0,0,1,3.44-4.68,21.81,21.81,0,0,1,3.77-3.07"/><path class="cls-16" d="M73.32,30.74a10.77,10.77,0,0,0-2.59,6.33c0,1.21-.15,3.53,1.38,5,1.15,1.13,2.55,1.13,5.34,1.33,0,0,3.82.25,10.18.84a64.72,64.72,0,0,1,9,1.5c4.49,1.08,7.41,1.77,10.69,3.68,2.82,1.65,7,4.12,8.8,9.16a14.37,14.37,0,0,1-.69,10.68c-2.17,4.22-6,5.9-11.71,8.32-4.29,1.83-11,4.71-19.66,4-8.89-.74-15-4.92-15.52-4-.34.63,2.5,2.83,4.83,4.18a24.83,24.83,0,0,0,9.17,2.84,45.93,45.93,0,0,0,13.75.16c8.4-1.2,14-4.4,18.27-6.79,5.48-3.13,7.81-5.66,9.17-8.51.2-.46,0-1.86.86-2.51.71-.49,1.8-.38,3.27.16a14.85,14.85,0,0,1,8.38,6.46c2.09,3.7,2.71,9,.18,13-2,3.17-5,4.25-10.69,6.17-3.76,1.29-7.83,2.21-20.44,3.56-7.2.73-10.8,1.13-13.27,1.13-13.47.33-22.71-2.26-22.94-1.33-.14.55,3.12,1.77,4.83,2.32a40.38,40.38,0,0,0,13.46,1.84c13.18.1,10.47.76,17.76.49,8.58-.3,13.4-.46,19.65-2.17,7.53-2.05,11.29-3.08,12.93-4.18a10.6,10.6,0,0,1,5.16-1.83,5.32,5.32,0,0,1,3.14.49c1.92,1.14,2.46,3.8,2.29,5.52-.18,1.37-1.15,4.2-7.41,7.17-11,5.22-25.29,4.72-49.59,5.35-8.66.22-17.35-.18-26,.16a101,101,0,0,1-13.47-.66c-7.07-.78-10.61-1.83-13.11-4.52a7,7,0,0,1-2.22-4.84c.09-2.61,2.29-4.4,4.48-6.16a17,17,0,0,1,9-4.34c6-.67,10.89,3.07,11.21,2.52.21-.37-2-1.62-5-4.53-2.2-2.13-3.44-3.33-4.3-5.34a12.46,12.46,0,0,1-.52-7.84,13.81,13.81,0,0,1,3.44-6.33,15.47,15.47,0,0,1,6.72-4c1.41-.46,2-.45,8.28-1.13,5.44-.6,6.87-.81,8.1-1,4.33-.68,6.53-1,8.27-2.16.86-.55,3.93-2.52,4.32-5.84a6.69,6.69,0,0,0-.5-3.39c-.83-1.94-2.54-3.39-2.93-3.17s.52,1.34.68,3.53a7,7,0,0,1-.86,4.66c-.5.74-1.21,1.14-4.82,2.16a73.66,73.66,0,0,1-8.45,2c-4.16.73-5.2.67-6,0a3.27,3.27,0,0,1-.93-1.19,3.11,3.11,0,0,1-.28-1.47c.14-1.61,1.75-1.78,3.43-4.16a8.19,8.19,0,0,0,1.72-4.53,8.29,8.29,0,0,0-.85-3.66c-.75-1.73-1.37-1.92-1.9-3.34a8.08,8.08,0,0,1-.35-3.68C68.73,34.5,72.65,31.28,73.32,30.74Z"/><path class="cls-17" d="M105.73,52.1a14.07,14.07,0,0,1,4,2.39,12.44,12.44,0,0,1,4.14,5.84c1.63,5.66-3.16,10.83-3.79,11.52-1.94,2-4.17,3-8.45,4.67C94.85,79.23,88.16,80.66,88,80.18c-.1-.28,2.21-1,7.94-3.83,4.38-2.16,6.62-3.27,8.44-4.84,2.29-2,4.93-4.26,5.17-7.51.1-1.26-.74-3.58-2.42-8.18-.55-1.51-1-2.8-1.38-3.67"/><path class="cls-17" d="M128.4,71.08a11.13,11.13,0,0,1,3.22,1.45,9.46,9.46,0,0,1,3.55,4c1.66,4.15-1.5,8.33-1.92,8.89-1.28,1.64-2.85,2.51-5.92,4.11-4.83,2.52-9.72,4.1-9.89,3.76s1.56-.93,5.61-3.44A29.28,29.28,0,0,0,129,85.61c1.55-1.64,3.33-3.52,3.26-6,0-.93-.83-2.61-2.46-5.9-.5-1.13-1-2-1.32-2.63"/><path class="cls-17" d="M65.74,66.77A11.45,11.45,0,0,0,57,69.44c-3.54,3.4-2.73,8.79-2.6,9.49.35,2.15,1.36,3.62,3.38,6.46,3.11,4.43,6.87,7.92,7.13,7.69s-1-1.55-3.44-5.66c-1.88-3.17-2.83-4.78-3.31-6.54-.6-2.26-1.3-4.84,0-7.2.5-.92,2.05-2.27,5.13-4.83l2.49-2"/><path class="cls-17" d="M47.15,94.41a8.76,8.76,0,0,0-2.3.65,5.79,5.79,0,0,0-2.6,2.14c-1.27,2.26.85,4.92,1.15,5.24a12.64,12.64,0,0,0,4.09,2.71c3.35,1.74,6.76,2.92,6.88,2.73s-1.09-.63-3.88-2.26a21.82,21.82,0,0,1-4.08-2.79c-1-1-2.29-2.26-2.16-3.64,0-.54.65-1.47,1.87-3.28.41-.61.75-1.13,1-1.45"/><path class="cls-18" d="M18.12,92.24c-.24-.66-4.4-.49-8.15,1.51A12.18,12.18,0,0,0,3.86,100c-1.49,3.94.92,9,1,9.55A31.06,31.06,0,0,0,8.93,113a33.13,33.13,0,0,0,10.58,5C37.66,123.22,47,124.5,47,124.5a260.39,260.39,0,0,0,35.4,3c5.4.07,9.48-.06,12.34-.16,13.85-.49,20.78-.71,25.86-1.09A246.51,246.51,0,0,0,155.17,121c2.41-.61,16.06-4.11,21.9-10.06a9.78,9.78,0,0,0,2.63-4.27c1.11-4.08-1.27-7.76-1.87-8.71-2.46-3.91-6.16-5.06-10.86-6.53-.3-.1-1.95-.6-2.19-.2s1.46,1.37,2.16,3.06c0,0,.82,2-.56,5.1-3.6,8.17-25.55,10.46-25.55,10.46-17.73,1.86-31.34,1.81-47.87,1.68,0,0-33.18-.27-56.29-4-1.41-.23-2.38-.44-4.3-.87-9.13-2-14.08-3.18-16.13-6.89-.24-.44-1.49-2.67-.67-4.69C16.31,93.23,18.29,92.72,18.12,92.24Z"/><path class="cls-6" d="M22.28,143.84a32.63,32.63,0,0,0,14.51,15.08c6.67,3.4,14.08,4.15,14.52,3s-7-3.33-15-11.32A99.8,99.8,0,0,1,29,142c-6.48-8.12-8.29-11.57-9.23-11.18C18.51,131.28,19.51,138,22.28,143.84Z"/><path class="cls-6" d="M6.34,107.14A10.55,10.55,0,0,0,11,112c2.15,1.09,4.54,1.34,4.68,1s-2.26-1.07-4.83-3.64a34.92,34.92,0,0,1-2.37-2.79c-2.08-2.64-2.67-3.73-3-3.63S5.45,105.25,6.34,107.14Z"/><path class="cls-19" d="M152.88,92.62a1.95,1.95,0,0,0,.12,1.87,2.05,2.05,0,0,0,1.91.57,2.33,2.33,0,0,0,1.24-.74,2.2,2.2,0,0,0,.53-1.33,1.79,1.79,0,0,0-.21-.88,1.9,1.9,0,0,0-.62-.67,2.23,2.23,0,0,0-.84-.26,2,2,0,0,0-.88.13,2.24,2.24,0,0,0-1.25,1.31Z"/><path class="cls-20" d="M149.33,81.48a1,1,0,0,1,.11-.43,1,1,0,0,1,.28-.34,1.18,1.18,0,0,1,.54-.23,1.14,1.14,0,0,1,.58.06,1.05,1.05,0,0,1,.42.36.9.9,0,0,1,.14.53,1,1,0,0,1-.26.54,1,1,0,0,1-.52.29,1.11,1.11,0,0,1-.8-.13,1.1,1.1,0,0,1-.49-.65Z"/><path class="cls-20" d="M157.82,75.23a.94.94,0,0,1,.1-.43,1.05,1.05,0,0,1,.29-.34,1.15,1.15,0,0,1,.53-.23,1.19,1.19,0,0,1,.59.06,1,1,0,0,1,.41.36,1,1,0,0,1,.15.52,1,1,0,0,1-.26.54,1,1,0,0,1-.53.29,1.07,1.07,0,0,1-.8-.13,1,1,0,0,1-.48-.64Z"/><path class="cls-19" d="M127.51,54.07c-.37.09-2.15.5-2.42,1.44s1.62,1.77,1.73,1.8a7.53,7.53,0,0,0,5.19-.17c.74-.39,1.3-1,1-1.73-.34-.89-1.83-1.29-2.08-1.35a7.77,7.77,0,0,0-3.46,0Z"/><path class="cls-19" d="M144,63.89a2.5,2.5,0,0,0-.52,4.63,3.19,3.19,0,0,0,2,.54,3.27,3.27,0,0,0,1.92-.8,2.76,2.76,0,0,0,.7-1.13,2.55,2.55,0,0,0-.48-2.47,2.83,2.83,0,0,0-1-.8,3.26,3.26,0,0,0-2.62,0Z"/><path class="cls-20" d="M140.64,51.77a.32.32,0,0,1,0-.14.52.52,0,0,1,.1-.11.33.33,0,0,1,.17-.07.28.28,0,0,1,.18,0,.26.26,0,0,1,.14.11.25.25,0,0,1,0,.17.25.25,0,0,1-.08.17.32.32,0,0,1-.17.1.34.34,0,0,1-.41-.25Z"/><path class="cls-20" d="M149.28,60a.9.9,0,0,1,.07-.37.77.77,0,0,1,.19-.3.84.84,0,0,1,.37-.2.69.69,0,0,1,.4.06.71.71,0,0,1,.28.31,1,1,0,0,1,.1.45.93.93,0,0,1-.18.47.61.61,0,0,1-.35.25.58.58,0,0,1-.55-.11A.91.91,0,0,1,149.28,60Z"/><path class="cls-20" d="M123.28,48.08a.8.8,0,0,1,.08-.33.78.78,0,0,1,.22-.26,1,1,0,0,1,.41-.18.85.85,0,0,1,.45.06.7.7,0,0,1,.32.27.65.65,0,0,1,.11.41.81.81,0,0,1-.19.41.78.78,0,0,1-.41.22.85.85,0,0,1-.62-.1.86.86,0,0,1-.37-.5Z"/><path class="cls-20" d="M129.09,42a.76.76,0,0,1,.08-.33.78.78,0,0,1,.22-.26.8.8,0,0,1,.41-.18.86.86,0,0,1,.45.05.72.72,0,0,1,.32.28.64.64,0,0,1,.11.4.72.72,0,0,1-.2.41.71.71,0,0,1-.4.23.9.9,0,0,1-.62-.1.82.82,0,0,1-.37-.5Z"/><path class="cls-20" d="M123.75,42.43a.76.76,0,0,1,.08-.33.62.62,0,0,1,.22-.26.8.8,0,0,1,.41-.18.94.94,0,0,1,.44.05.75.75,0,0,1,.33.28.8.8,0,0,1,.11.4.69.69,0,0,1-.2.41.81.81,0,0,1-.4.23.88.88,0,0,1-.62-.1.78.78,0,0,1-.37-.5Z"/><path class="cls-21" d="M154.75,52.5A17,17,0,0,0,147.16,45c-3.37-1.58-7-1.75-7.18-1.14s3.52,1.54,7.7,5.5a54.84,54.84,0,0,1,3.87,4.33c3.44,4.07,4.43,5.82,4.88,5.59S156.29,55.5,154.75,52.5Z"/></g></g></svg>