<svg xmlns="http://www.w3.org/2000/svg" viewBox="0 0 237.49 408.09"><defs><style>.cls-1{isolation:isolate;}.cls-2{fill:#f29220;}.cls-3{fill:#1d1d1b;}.cls-4{fill:#dbdada;opacity:0.79;}.cls-10,.cls-4,.cls-7{mix-blend-mode:multiply;}.cls-5{fill:#d4a258;}.cls-6{fill:#e0b070;}.cls-7{fill:#cbbba0;opacity:0.63;}.cls-8{fill:#fff;opacity:0.58;}.cls-9{fill:#f8b232;}.cls-10{fill:#ca9e68;opacity:0.37;}.cls-11{fill:#2d170e;}.cls-12{fill:#46230f;}.cls-13{fill:#77422b;}</style></defs><g class="cls-1"><g id="Layer_1" data-name="Layer 1"><path class="cls-2" d="M140.74,30.26a31.63,31.63,0,0,0-48.77,0L5.88,134.45A14.41,14.41,0,0,0,3.7,149.21l54.64,130,51.2,121.84a7.39,7.39,0,0,0,13.62,0l51.23-121.83,54.66-130a14.41,14.41,0,0,0-2.17-14.76Z"/><path class="cls-3" d="M116.35,408.09h0a9.72,9.72,0,0,1-9.11-6.06L1.4,150.18A16.85,16.85,0,0,1,4,132.86L90.05,28.67a34.12,34.12,0,0,1,52.61,0h0l86.15,104.22a16.85,16.85,0,0,1,2.55,17.32L125.46,402A9.73,9.73,0,0,1,116.35,408.09Zm0-386.81A29.06,29.06,0,0,0,93.9,31.85L7.81,136.05A11.84,11.84,0,0,0,6,148.24L111.84,400.09a4.76,4.76,0,0,0,4.51,3h0a4.75,4.75,0,0,0,4.5-3l105.9-251.83a11.88,11.88,0,0,0-1.8-12.2L138.81,31.85A29,29,0,0,0,116.35,21.28Z"/><path class="cls-4" d="M226.88,134.48,160,53.6c-3.26,20.6-21.65,43.91-49.35,59.52-35,19.72-72.83,20.34-89.41,2.71L5.88,134.45A14.41,14.41,0,0,0,3.7,149.21l54.64,130,51.2,121.84a7.39,7.39,0,0,0,13.62,0l51.23-121.83,54.66-130A14.41,14.41,0,0,0,226.88,134.48Z"/><path class="cls-4" d="M226.88,134.48l-38.7-46.82c-11.86,14.41-28.26,28.31-48,39.71-52,30-107.5,31.34-123.91,2.92a33,33,0,0,1-2.49-5.4l-7.9,9.56A14.41,14.41,0,0,0,3.7,149.21l54.64,130,51.54,122.66a7,7,0,0,0,12.93,0l51.58-122.65,54.66-130A14.41,14.41,0,0,0,226.88,134.48Z"/><path class="cls-5" d="M199.73,83.77l33.37,19c-78.88,101.68-78.76,171.15-79.55,176.74,0,.08-.25,3.17-.28,3.25-.63,2-9.33,1-19.44-2.19s-17.78-7.42-17.15-9.41C116.68,271.13,113.09,199.22,199.73,83.77Z"/><path class="cls-3" d="M149.57,285.75c-5.14,0-12.44-2.07-16.34-3.3a75.64,75.64,0,0,1-13-5.32c-2.85-1.56-6-3.65-5.59-6.18-.08-2.48-.25-20.2,9.12-50.79,9.11-29.73,29.4-77.72,74.33-137.59a2,2,0,0,1,2.58-.54l33.37,19a2,2,0,0,1,1,1.34,2,2,0,0,1-.38,1.62c-47.17,60.81-75.21,122.48-79,173.65-.07,1-.12,1.67-.18,2.11,0,.75-.23,3.2-.36,3.61C154.62,285.11,152.43,285.75,149.57,285.75Zm-30.89-14.57c.93,1.21,6.13,4.4,15.76,7.45,9.15,2.9,15.11,3.4,16.93,3.05.07-.86.18-2.12.19-2.31a1,1,0,0,1,0-.17c.05-.31.1-1,.16-1.88,3.77-51.43,31.58-113.15,78.38-174l-29.84-17C156.53,145,136.68,191.91,127.72,221c-9.78,31.79-9,49.81-9,50Z"/><path class="cls-3" d="M140.58,282.8h-.1a2,2,0,0,1-1.9-2.1c0-.22,1.23-23.18,11.67-57A372.11,372.11,0,0,1,218.53,98.18a2,2,0,1,1,3.08,2.54,368.26,368.26,0,0,0-67.5,124.05c-10.31,33.34-11.53,55.9-11.54,56.13A2,2,0,0,1,140.58,282.8Z"/><path class="cls-3" d="M127.08,280.11H127a2,2,0,0,1-1.89-2.1c0-.23,1.28-23,11.83-57.25,9.71-31.58,29.53-79.78,68.74-130.07a2,2,0,0,1,3.16,2.46c-74.31,95.29-79.69,184.17-79.74,185.06A2,2,0,0,1,127.08,280.11Z"/><path class="cls-6" d="M199.73,83.77c-1,1.82,5.59,7.54,14.81,12.78s17.52,8,18.56,6.19S227.5,95.2,218.28,90,200.76,82,199.73,83.77Z"/><path class="cls-3" d="M231.46,105.24c-5,0-13.68-4.55-17.91-7-5.54-3.14-18.14-11-15.56-15.5h0c2.58-4.54,15.74,2.29,21.28,5.44s18.15,11,15.57,15.5C234.22,104.8,233,105.24,231.46,105.24Zm-29-19.91c1.71,1.94,6,5.45,13.05,9.48s12.27,5.87,14.82,6.36c-1.72-1.93-6-5.45-13.06-9.47S205,85.82,202.48,85.33Z"/><path class="cls-7" d="M133.83,280.54c-1.3-19.06,19.54-109.59,79.51-185.4L199.73,83.77c-60.32,80.22-89.84,168.81-82.61,189.1Z"/><path class="cls-8" d="M147.26,278.76h-.06a1.51,1.51,0,0,1-1.44-1.56c0-.2.91-20.63,10.61-51.85,8.94-28.77,27.41-72.92,64.61-119.88a1.5,1.5,0,1,1,2.35,1.86c-70.62,89.15-74.54,169.19-74.57,170A1.5,1.5,0,0,1,147.26,278.76Z"/><path class="cls-5" d="M79.48,21l-37.26,9.2C90.53,149.45,75.81,264,75.05,269.61a1,1,0,0,0,0,.23c.06,2.1,8.71,3.51,19.3,3.18s19.13-2.32,19.06-4.41C113.38,268.61,131.53,155.61,79.48,21Z"/><path class="cls-3" d="M90.93,275.07c-7.12,0-17.77-.74-17.91-5.16a2.57,2.57,0,0,1,.06-.67c.82-6.1,15.14-120.14-32.72-238.31a2,2,0,0,1,.08-1.66,2,2,0,0,1,1.3-1L79,19a2,2,0,0,1,2.35,1.22A559.24,559.24,0,0,1,118,195.2c1.88,43.18-2.24,71.4-2.57,73.59-.3,5-14.73,6-21,6.22C93.41,275.05,92.23,275.07,90.93,275.07ZM77.1,269.33c1.6.84,7.49,2,17.16,1.69,10.06-.33,15.93-2,17.17-2.9.37-2.44,4.39-30.29,2.52-72.87A555.2,555.2,0,0,0,78.25,23.34L44.93,31.57C91.27,147.74,78.37,259.45,77.1,269.33Zm-.12.82Zm-1.93-.54h0Z"/><path class="cls-3" d="M87.76,273.44l-.23,0a2,2,0,0,1-1.76-2.21c.16-1.33,14.8-133.46-32-239.85a2,2,0,1,1,3.67-1.61C82.15,85.9,89.61,148.68,91.53,191.46c2.07,46.33-1.74,79.87-1.78,80.21A2,2,0,0,1,87.76,273.44Z"/><path class="cls-3" d="M101.49,274.51h-.23a2,2,0,0,1-1.76-2.21c.15-1.32,14.38-132.78-31.3-244.74A2,2,0,1,1,71.9,26c24.08,59,31.39,123,33.27,166.18,2,46.83-1.66,80.19-1.7,80.52A2,2,0,0,1,101.49,274.51Z"/><ellipse class="cls-6" cx="60.85" cy="25.58" rx="19.19" ry="3.79" transform="translate(-4.36 15.33) rotate(-13.86)"/><path class="cls-3" d="M47.19,33.48c-3.57,0-6.39-.71-6.91-2.82C39,25.58,53.28,21.48,59.46,20s20.71-4.53,22,.54h0c1.25,5.07-13,9.17-19.19,10.7C58.63,32.09,52.19,33.48,47.19,33.48Zm-1.9-4.06c2.58.22,8.08-.15,16-2.11s13-4.18,15.13-5.57c-2.58-.22-8.08.15-16,2.1S47.47,28,45.29,29.42Zm32.63-7.36h0Z"/><path class="cls-7" d="M63.75,28.74C109.87,146.84,94.32,273,94.32,273l19.06-4.41C131.81,136.66,79.48,21,79.48,21Z"/><path class="cls-8" d="M81.27,267.7H81A1.51,1.51,0,0,1,79.78,266c.16-1.08,15.42-109.37-30.38-229.1a1.5,1.5,0,1,1,2.8-1.07c24.08,63,31.11,122.29,32.76,161,1.79,41.93-2.17,69.37-2.21,69.64A1.49,1.49,0,0,1,81.27,267.7Z"/><path class="cls-5" d="M116.49,5l38.08,4.82c-34.16,124.07-6.26,236.16-4.86,241.63a.9.9,0,0,1,.06.22c.18,2.09-8.24,4.5-18.8,5.39s-19.27-.08-19.45-2.16C111.52,254.9,80.4,144.76,116.49,5Z"/><path class="cls-3" d="M123.43,259.39a57,57,0,0,1-6.3-.31c-3.32-.36-7.14-1.13-7.57-3.78-.61-2.23-8-29.76-11.08-72.79a558.8,558.8,0,0,1,16.07-178A2,2,0,0,1,116.74,3l38.08,4.82a2,2,0,0,1,1.41.87,2,2,0,0,1,.27,1.64c-33.84,122.9-6.4,234.51-4.88,240.5a2.77,2.77,0,0,1,.15.68c.23,2.81-3.52,4.26-6.82,5.21a76.72,76.72,0,0,1-13.82,2.32C128.46,259.28,125.85,259.39,123.43,259.39Zm-10-5.2c1.35.77,7.36,1.72,17.4.88,9.64-.81,15.35-2.65,16.84-3.66-2.4-9.67-28.17-119.13,4.39-239.89L118,7.21a555.16,555.16,0,0,0-15.52,174.88C105.54,224.61,112.75,251.81,113.4,254.19Zm.12.54h0Zm34.34-2.53Z"/><path class="cls-3" d="M137.3,256.73a2,2,0,0,1-2-1.54c-.08-.32-7.75-33.2-11.06-79.46C121.23,133,121.36,69.8,139.36,11.16a2,2,0,0,1,3.83,1.18c-34.13,111.13-4.25,240.64-3.95,241.93a2,2,0,0,1-1.48,2.41A1.85,1.85,0,0,1,137.3,256.73Z"/><path class="cls-3" d="M123.79,259.39a2,2,0,0,1-2-1.54c-.07-.33-7.62-33-11-79.78-3.14-43.15-3.3-107.5,13.78-168.92a2,2,0,0,1,3.86,1.07c-32.4,116.53-3,245.43-2.72,246.72a2,2,0,0,1-1.5,2.4A1.73,1.73,0,0,1,123.79,259.39Z"/><path class="cls-6" d="M116.49,5c-.27,2.08,8.05,4.84,18.56,6.17s19.25.73,19.52-1.35S146.52,5,136,3.65,116.75,2.93,116.49,5Z"/><path class="cls-3" d="M145.49,13.91a88.14,88.14,0,0,1-10.69-.76c-6.32-.79-21-3.21-20.3-8.4h0c.66-5.18,15.43-3.88,21.75-3.08s20.95,3.22,20.3,8.4C156.17,13.09,151,13.91,145.49,13.91ZM119.62,5.4c2.33,1.13,7.6,2.76,15.68,3.79s13.59.75,16.13.23c-2.33-1.13-7.6-2.76-15.68-3.78S122.16,4.88,119.62,5.4Z"/><path class="cls-7" d="M133,10.89C100.89,133.54,131,257.06,131,257.06l-19.45-2.16C77.93,126,116.49,5,116.49,5Z"/><path class="cls-8" d="M143.15,250.28a1.49,1.49,0,0,1-1.45-1.11c-.07-.26-7.19-27.06-10.27-68.92-2.85-38.61-2.75-98.35,13.88-163.68a1.5,1.5,0,0,1,2.91.74c-31.63,124.27-3.91,230-3.63,231.08a1.49,1.49,0,0,1-1.05,1.84A1.35,1.35,0,0,1,143.15,250.28Z"/><path class="cls-5" d="M33,62.7,2.27,80C86.43,220.49,94.56,310.83,97.5,344c.22,2,8.24,2.82,17.92,1.78s17.36-3.51,17.14-5.53C128.77,312.33,122.27,212.21,33,62.7Z"/><path class="cls-3" d="M107.12,348.23c-5.59,0-11.26-.82-11.61-4.06C92.53,310.56,84.62,221.35.55,81a2,2,0,0,1-.22-1.54,2,2,0,0,1,1-1.23L32,61a2,2,0,0,1,2.7.71c83,139.05,94.6,235,99,271.11.33,2.76.62,5.15.89,7.16.31,2.86-3.4,4.4-6.22,5.31a66.2,66.2,0,0,1-12.68,2.48A82.59,82.59,0,0,1,107.12,348.23Zm-7.67-5c1.41.69,6.89,1.44,15.76.49s14.06-2.83,15.3-3.81c-.25-1.88-.52-4.12-.83-6.68C125.37,297.52,114,202.81,32.27,65.4L5,80.74C88.16,220.12,96.42,309.18,99.45,343.26Z"/><path class="cls-3" d="M107.05,348.2h0a2,2,0,0,1-2-2.05c0-.27.55-27.77-10.64-74.29-10.32-42.94-33-111.31-82.63-193.22a2,2,0,1,1,3.42-2.07C65.11,159,88,227.86,98.35,271.11c11.28,47,10.7,74.86,10.7,75.14A2,2,0,0,1,107.05,348.2Z"/><path class="cls-3" d="M120.76,347h0a2,2,0,0,1-2-2c0-.28.15-28.64-11.43-76-10.68-43.72-33.84-113-83.44-195a2,2,0,0,1,3.43-2.07c49.91,82.44,73.2,152.23,83.95,196.26,11.66,47.81,11.5,76.54,11.49,76.83A2,2,0,0,1,120.76,347Z"/><path class="cls-6" d="M33,62.7c1,1.77-5.07,7.08-13.56,11.86S3.26,81.78,2.27,80s5.07-7.08,13.55-11.86S32,60.93,33,62.7Z"/><path class="cls-3" d="M4,82.55c-1.57,0-2.8-.45-3.43-1.56-1.38-2.46,1.42-5.34,3.65-7.29a66.13,66.13,0,0,1,10.67-7.3c5.14-2.89,17.37-9.15,19.89-4.68,1.38,2.46-1.42,5.34-3.65,7.29A66.79,66.79,0,0,1,20.41,76.3C16.55,78.48,8.69,82.55,4,82.55ZM30.28,64.23c-2.36.42-7.09,2.06-13.48,5.66S6.56,76.68,5,78.48c2.36-.43,7.1-2.07,13.48-5.66S28.69,66,30.28,64.23Zm1.47-.08h0Z"/><path class="cls-7" d="M19.43,74.56C96.66,211.27,112,302.25,114,345.88l18.16-4.56C125.72,208.72,33,62.7,33,62.7l-2.43,3.55Z"/><path class="cls-8" d="M102.23,342.46a1.5,1.5,0,0,1-1.49-1.4c0-.3-2.23-30.41-14.55-76.85A693.41,693.41,0,0,0,9.42,84.76,1.5,1.5,0,0,1,12,83.21,696.59,696.59,0,0,1,89.11,263.53c12.38,46.69,14.6,77,14.62,77.32a1.5,1.5,0,0,1-1.39,1.6Z"/><path class="cls-5" d="M179.61,26.14l30.75,13C146.4,180.24,148.5,266,149.31,297.5c0,1.93-7.44,3.54-16.65,3.61S116,299.68,116,297.76C116.51,271.14,111.82,176.33,179.61,26.14Z"/><path class="cls-3" d="M132,303.12a61.3,61.3,0,0,1-11.57-1c-2.78-.55-6.49-1.62-6.51-4.37,0-2,0-4.25.07-6.88.19-34.43.71-125.88,63.77-265.57a2,2,0,0,1,2.6-1l30.74,13a2,2,0,0,1,1.05,2.67c-63.87,141-61.69,225.65-60.87,257.53,0,5-13,5.62-18.64,5.66ZM118,297.23c1.34.77,6.41,1.95,14.68,1.88S146,297.79,147.3,297c-.83-32.35-2.66-116.94,60.39-256.86l-27.06-11.4C118.72,166.65,118.21,256.86,118,290.91,118,293.31,118,295.41,118,297.23Z"/><path class="cls-3" d="M139.13,301.42a2,2,0,0,1-2-1.82c0-.28-2.3-27.66,3.91-73.51,5.73-42.24,20-109.36,55.73-189.18a2,2,0,1,1,3.65,1.63c-35.49,79.39-49.72,146.1-55.41,188.09-6.16,45.42-3.92,72.35-3.9,72.62a2,2,0,0,1-1.82,2.16Z"/><path class="cls-3" d="M127.56,303a2,2,0,0,1-2-1.76c0-.26-3.3-27.27,2.51-73.48,5.36-42.56,19.72-110.69,57.75-193.58a2,2,0,0,1,3.64,1.66c-37.82,82.43-52.1,150.14-57.42,192.42-5.75,45.72-2.55,72.22-2.51,72.49a2,2,0,0,1-1.74,2.23Z"/><path class="cls-6" d="M179.61,26.14c-.75,1.77,5.53,6.11,14,9.69s16,5,16.73,3.27-5.53-6.11-14-9.69S180.36,24.37,179.61,26.14Z"/><path class="cls-3" d="M208.11,41.85a19.06,19.06,0,0,1-3.59-.42,62.6,62.6,0,0,1-11.66-3.76A62.31,62.31,0,0,1,182,32c-2.34-1.61-5.32-4.05-4.25-6.58h0c1.07-2.54,4.9-2.11,7.68-1.56a62.6,62.6,0,0,1,11.66,3.76A63,63,0,0,1,208,33.28c2.34,1.62,5.32,4.06,4.25,6.59C211.56,41.4,209.92,41.85,208.11,41.85ZM182.64,27.42c1.8,1.53,5.69,4,11.77,6.56S205,37.6,207.33,37.82c-1.8-1.53-5.69-4-11.77-6.57S185,27.64,182.64,27.42Zm-3-1.28h0Z"/><path class="cls-7" d="M193.63,35.83c-57.84,136.85-62.4,224-59.63,265.26l-17.56-2.33C108.2,173.42,179.61,26.14,179.61,26.14l2.67,3.08Z"/><path class="cls-8" d="M144.22,295.45a1.51,1.51,0,0,1-1.5-1.4c0-.28-1.85-28.42,4.47-73.21,5.83-41.3,20-105.66,54.31-177.74a1.51,1.51,0,0,1,2-.71,1.5,1.5,0,0,1,.71,2C170,116.13,156,180.17,150.16,221.26c-6.28,44.48-4.46,72.31-4.44,72.58a1.5,1.5,0,0,1-1.4,1.6Z"/><path class="cls-9" d="M40,235.62l18.32,43.6,51.21,121.84a7.38,7.38,0,0,0,13.61,0l51.24-121.83,54.66-130C190.9,204.8,40,235.62,40,235.62Z"/><path class="cls-3" d="M116.32,408.09h0A9.74,9.74,0,0,1,107.2,402L37.68,236.58a2.48,2.48,0,0,1,.09-2.13,2.51,2.51,0,0,1,1.71-1.28C41,232.86,189.82,202,227,147.82a2.5,2.5,0,0,1,4.37,2.39L125.43,402A9.73,9.73,0,0,1,116.32,408.09ZM43.46,237.43l68.35,162.66a4.76,4.76,0,0,0,4.51,3h0a4.76,4.76,0,0,0,4.5-3l99.73-237.17C175.23,206.84,64.5,233,43.46,237.43Z"/><path class="cls-9" d="M3.89,149.72,40,235.56s72.4-14.79,129.58-42.34C162.7,192.83,30.89,185,3.89,149.72Z"/><path class="cls-3" d="M40,238.06a2.48,2.48,0,0,1-2.3-1.54L1.59,150.69a2.5,2.5,0,0,1,4.29-2.48c26.35,34.46,158.2,42.2,163.8,42.51a2.5,2.5,0,0,1,.94,4.75C113.82,222.84,41.19,237.86,40.46,238A2.07,2.07,0,0,1,40,238.06ZM10.8,159.7l30.67,73c11.37-2.47,68.92-15.54,118.19-37.63-13.53-1-39-3.39-65.81-8C54,180.16,26.18,171,10.8,159.7Z"/><path class="cls-10" d="M50.3,218.92,37.94,188.75A2.11,2.11,0,0,1,40.68,186c21.53,8.88,60.84,13.79,78.31,15.62a2.11,2.11,0,0,1,.5,4.08c-21.86,8-49.91,14.6-61.59,17.2A6.64,6.64,0,0,1,50.3,218.92Z"/><path class="cls-8" d="M44.65,229.68a2.51,2.51,0,0,1-2.32-1.54L19.05,171.86A2.5,2.5,0,0,1,23,169c.2.16,22.1,17.44,117.17,26.17a2.5,2.5,0,0,1-.46,5c-70.24-6.45-101.1-17.43-113.18-23.33L47,226.23a2.5,2.5,0,0,1-2.3,3.45Z"/><path class="cls-8" d="M116.49,398.49h0c-2.25,0-4.32-1.7-5.53-4.53L47.59,241.14a2.5,2.5,0,0,1,.08-2.09,2.53,2.53,0,0,1,1.64-1.3L59,235.4h0c99.13-22.34,143.38-54.94,148.1-58.58a2.5,2.5,0,0,1,3.84,2.93L122,393.84C120.34,397.69,118.09,398.49,116.49,398.49ZM53.33,241.93,115.55,392a3.9,3.9,0,0,0,.92,1.39,4.41,4.41,0,0,0,1-1.54l85.65-206.11c-16.66,10.89-61.65,36.2-142.9,54.51Z"/><path class="cls-10" d="M163.88,210.2c-35.33,16.9-61,24.07-79.81,28.34a6.49,6.49,0,0,0-4.83,8l34.57,133.75a2.49,2.49,0,0,0,4.81.09l49.21-166.8a2.84,2.84,0,0,0-3.94-3.36Z"/><path class="cls-11" d="M.17,78.77A9,9,0,0,1,1.9,76a20.94,20.94,0,0,1,3.25-3.36,77,77,0,0,1,11.57-7.29c7.3-3.87,9.67-4.64,12.36-5a9.62,9.62,0,0,1,4.09,0c3.88,1.1,5.3,5.28,8.49,12.07a132.33,132.33,0,0,0,7,13.4c5.1,8.25,9.18,11.4,7.85,14.35a4.38,4.38,0,0,1-4,2.48C47,102.2,47,87.27,39.73,85.66c-.27-.06-2.39-.5-3.19.51-1.07,1.36,1.08,4.18,3.73,10.38,3.09,7.24,2.44,8.74,2,9.37a4.67,4.67,0,0,1-5.08,1.53c-2.71-1-2.14-4.54-5.2-10-.89-1.6-4.65-8.38-9.31-8.25a5,5,0,0,0-3.63,1.71c-.86,1.2-.71,2.64-.38,4.68,1.25,7.75,2.71,10.45,1.28,13.59-.46,1-.72,1.57-1.29,1.75C15.11,112,10.35,95.47,2.53,85.47,1.77,84.49-.66,81.48.17,78.77Z"/><path class="cls-12" d="M2.3,78.87A9.17,9.17,0,0,1,4,76.12a21.87,21.87,0,0,1,3.25-3.36,76.48,76.48,0,0,1,11.57-7.28c7.31-3.88,9.67-4.65,12.37-5a9.62,9.62,0,0,1,4.09,0c3.88,1.1,5.29,5.28,8.49,12.07a132.33,132.33,0,0,0,7,13.4c5.1,8.25,9.18,11.4,7.85,14.35a4.38,4.38,0,0,1-4,2.48c-5.52-.48-5.56-15.41-12.8-17-.27-.06-2.38-.5-3.19.51-1.07,1.36,1.08,4.18,3.73,10.38,3.09,7.24,2.44,8.74,2,9.38a4.66,4.66,0,0,1-5.07,1.52c-2.71-1-2.15-4.53-5.2-10-.89-1.6-4.65-8.38-9.32-8.25A5,5,0,0,0,21.18,91c-.85,1.2-.7,2.65-.37,4.68,1.25,7.75,2.71,10.45,1.27,13.59-.46,1-.71,1.57-1.29,1.75-3.56,1.11-8.31-15.43-16.13-25.43C3.9,84.59,1.46,81.58,2.3,78.87Z"/><path class="cls-13" d="M31.93,62.76a6,6,0,0,1,5.09.89c1,.82,1.8,2.18,1.47,2.59s-1.55-.53-4.06-1.12c-3-.72-5-.23-5.09-.76S30.69,63.09,31.93,62.76Z"/><path class="cls-13" d="M21.1,108.68a2.67,2.67,0,0,0,.53-2.25c-.16-.56-.58-1.13-.81-1.06s-.06.73-.25,1.87c-.25,1.38-.79,2.09-.59,2.23S20.74,109.14,21.1,108.68Z"/><path class="cls-13" d="M43.52,102.87a3.66,3.66,0,0,1-.9,3.07c-.58.56-1.47,1-1.7.73s.43-.92,1-2.43c.66-1.81.49-3,.83-3.08S43.41,102.08,43.52,102.87Z"/><path class="cls-13" d="M57.77,98a3.67,3.67,0,0,1-.9,3.07c-.58.55-1.47,1-1.7.72s.43-.92,1-2.42c.65-1.82.49-3,.82-3.08S57.66,97.23,57.77,98Z"/><path class="cls-11" d="M40.47,28.83c.79-1.45,2.19-2.33,4.64-3.87a33.2,33.2,0,0,1,7.72-3.39,90,90,0,0,1,8.75-2.23l3.32-.57a53.23,53.23,0,0,1,11.29-1.15,6.29,6.29,0,0,1,4,1.21,5.36,5.36,0,0,1,1.2,1.43c1.11,1.91,3.71,8.92,6.84,18.55.75,2.32,2,6.14,3.55,10.85,4.91,14.68,7,19.45,4.7,21.7a6.17,6.17,0,0,1-6.81.68c-6.29-3.48-.12-17.9-8.18-25.12-1.54-1.38-4.22-3.05-5.47-2.23-2.42,1.58,1,12.13,4.83,24.06,2.4,7.45,4.06,11.57,2,13.85a6.13,6.13,0,0,1-6.87,1C71.53,81.27,73.08,73,69.54,54.68c-.47-2.47-1.34-6.65-4.71-9-1.89-1.3-5.09-2.36-6.95-1-1.31,1-1.45,2.76-1.57,4.43-.43,6.33,3.09,9.15,1.65,12.08a5.32,5.32,0,0,1-5.11,2.82c-4.06-.7-2.69-8.62-8.7-21.95C41.44,36.11,38.67,32.18,40.47,28.83Z"/><path class="cls-12" d="M39.45,30.2c.79-1.45,2.19-2.33,4.63-3.87a33.37,33.37,0,0,1,7.73-3.39,87,87,0,0,1,8.74-2.23l3.32-.58A53.9,53.9,0,0,1,75.17,19a6.31,6.31,0,0,1,4,1.21,5.19,5.19,0,0,1,1.2,1.43c1.11,1.91,3.7,8.92,6.84,18.55.74,2.32,2,6.14,3.55,10.85,4.91,14.68,7,19.45,4.69,21.7a6.16,6.16,0,0,1-6.81.68c-6.29-3.49-.12-17.9-8.17-25.12-1.55-1.38-4.23-3-5.47-2.23-2.42,1.58,1,12.13,4.83,24.06,2.4,7.45,4.06,11.57,2,13.84a6.11,6.11,0,0,1-6.87,1c-4.42-2.36-2.87-10.59-6.41-28.95-.48-2.47-1.34-6.65-4.71-8.95-1.89-1.3-5.1-2.36-7-1-1.3,1-1.45,2.76-1.56,4.43-.43,6.33,3.09,9.15,1.65,12.08a5.33,5.33,0,0,1-5.11,2.82c-4.06-.7-2.7-8.62-8.7-22C40.42,37.48,37.64,33.55,39.45,30.2Z"/><path class="cls-13" d="M45.46,29a5.93,5.93,0,0,0-2.62,4.45c0,1.3.49,2.79,1,2.8s.6-1.52,1.78-3.82c1.41-2.77,3-3.93,2.72-4.37S46.51,28.23,45.46,29Z"/><path class="cls-13" d="M81,79.51a3.7,3.7,0,0,1-.9,3.07c-.58.56-1.47,1-1.7.72s.43-.91,1-2.42c.66-1.82.49-3,.83-3.08S80.87,78.72,81,79.51Z"/><path class="cls-13" d="M94.79,68.58a3.7,3.7,0,0,1-.9,3.07c-.58.56-1.47,1-1.7.73s.43-.92,1-2.42c.66-1.82.49-3,.83-3.08S94.68,67.79,94.79,68.58Z"/><path class="cls-13" d="M55.61,59.62a3.68,3.68,0,0,1-.91,3.07c-.57.56-1.46,1-1.69.73s.43-.92,1-2.42c.66-1.82.49-3,.82-3.09S55.49,58.83,55.61,59.62Z"/><path class="cls-11" d="M115.05,2.2c2-1.29,5.94-1.88,6.66-2,.13,0,.73-.11,1.42-.17,5.15-.48,20.49,2.78,15.42,1.74h0c-5.78-.58,12.58,1.16,16.6,5.36a9,9,0,0,1,1,1.21c3.09,4.51.52,10.53-1.78,18.07,0,0-1.9,6.26-3.67,15.3-2.66,13.56-1.37,20.36-4.93,21.64a6.16,6.16,0,0,1-6.46-2.26c-4.22-5.82,7.47-16.27,3.22-26.22-.81-1.91-2.53-4.55-4-4.34-2.86.41-4.24,11.41-5.8,23.85-1,7.77-1.22,12.2-4,13.39a6.11,6.11,0,0,1-6.67-2c-3-4,1.89-10.8,6.45-28.94.61-2.44,1.6-6.59-.48-10.1-1.17-2-3.62-4.29-5.89-3.83-1.59.32-2.48,1.88-3.29,3.34-3.07,5.56-1.07,9.6-3.62,11.65a5.48,5.48,0,0,1-5.82.39c-3.3-2-1-7.67,2.35-29.18C112,7.19,112.55,3.81,115.05,2.2Z"/><path class="cls-12" d="M112.9,3c2-1.29,5.93-1.88,6.66-2,.13,0,.73-.11,1.42-.17,5.15-.48,20.49,2.78,15.42,1.73h0C130.62,2,149,3.74,153,7.94a8.43,8.43,0,0,1,1,1.21c3.09,4.51.51,10.53-1.78,18.06,0,0-1.9,6.27-3.67,15.3-2.66,13.57-1.37,20.36-4.93,21.65a6.16,6.16,0,0,1-6.46-2.26c-4.23-5.82,7.46-16.27,3.22-26.22-.81-1.91-2.53-4.55-4-4.34-2.86.41-4.24,11.4-5.81,23.84-1,7.77-1.21,12.21-4,13.4a6.13,6.13,0,0,1-6.66-2c-3-4,1.89-10.81,6.45-28.94.61-2.44,1.59-6.59-.48-10.11-1.17-2-3.62-4.29-5.89-3.82-1.59.32-2.48,1.88-3.29,3.34-3.07,5.56-1.08,9.6-3.62,11.65a5.5,5.5,0,0,1-5.82.39c-3.3-2-1-7.67,2.35-29.18C109.88,8,110.4,4.6,112.9,3Z"/><path class="cls-13" d="M117.92,4.38A6,6,0,0,0,114,7.71c-.45,1.22-.45,2.8,0,3s1.07-1.23,2.94-3c2.26-2.15,4.18-2.71,4-3.23S119.17,4,117.92,4.38Z"/><path class="cls-13" d="M137.84,58.26a3.7,3.7,0,0,0,.9,3.07c.58.56,1.47,1,1.7.72s-.43-.91-1-2.42c-.66-1.82-.49-3-.83-3.08S138,57.47,137.84,58.26Z"/><path class="cls-13" d="M121,63.15a3.7,3.7,0,0,0,.9,3.07c.58.56,1.47,1,1.7.72s-.43-.91-1-2.42c-.66-1.82-.49-3-.83-3.08S121.14,62.36,121,63.15Z"/><path class="cls-13" d="M107.12,34.65a3.66,3.66,0,0,0,.9,3.07c.58.56,1.47,1,1.7.72s-.43-.91-1-2.42c-.65-1.82-.49-3.05-.82-3.08S107.23,33.86,107.12,34.65Z"/><path class="cls-11" d="M179.66,23.49a19.39,19.39,0,0,1,3.69-.1,27.77,27.77,0,0,1,6.74,1.41,80.93,80.93,0,0,1,8.15,2.9c1.78.75,4,1.77,6.63,3.13a18.7,18.7,0,0,1,3.32,2.05c.54.41,3.11,2.4,4,4.33,1.47,3.11-1,6.78-3.43,11.43a134.93,134.93,0,0,0-6.13,15.06c-4.66,13.09-3.4,20.5-7.15,21.45a4.7,4.7,0,0,1-4.85-2.3c-1.35-2.67,2.18-5.37,4.12-12.65.41-1.54,2.12-8,.22-9.05-1.61-.94-5.73,2-8.17,5.62-4.15,6.15-1.83,11.9-4.86,13.36-2.54,1.22-7.52-1.17-8.42-4.43-.95-3.46,3.31-5.83,8.94-16.85,1.59-3.1,2.59-5.55,1.85-8.19-.67-2.36-2.76-4.93-5-4.9-1.46,0-2.64,1.1-3.88,2.64-5.81,7.21-4.92,14.54-8,15.3-1.64.4-3.82-1.19-4.73-3-2.05-4,2.64-7.76,7.28-18.23C174.5,32.27,175.11,24.38,179.66,23.49Z"/><path class="cls-12" d="M181.66,26.11a18.58,18.58,0,0,1,3.69-.1,27.08,27.08,0,0,1,6.74,1.4,82.75,82.75,0,0,1,8.15,2.91c1.78.75,4,1.77,6.63,3.13a18,18,0,0,1,3.32,2c.54.42,3.11,2.41,4,4.34,1.47,3.11-1,6.78-3.43,11.43a134.93,134.93,0,0,0-6.13,15.06c-4.66,13.09-3.4,20.5-7.15,21.45a4.7,4.7,0,0,1-4.85-2.3c-1.35-2.67,2.18-5.38,4.12-12.65.41-1.55,2.12-7.95.22-9-1.61-.94-5.73,2-8.17,5.61C184.67,75.54,187,81.29,184,82.75c-2.54,1.22-7.52-1.17-8.42-4.43-.95-3.47,3.31-5.83,8.94-16.85,1.59-3.11,2.59-5.55,1.85-8.19-.67-2.36-2.76-4.93-5-4.9-1.46,0-2.64,1.09-3.88,2.64-5.81,7.21-4.92,14.54-8,15.3-1.64.4-3.82-1.19-4.73-3-2.05-4,2.64-7.76,7.28-18.23C176.5,34.89,177.11,27,181.66,26.11Z"/><path class="cls-13" d="M209.55,39.21a6,6,0,0,1,2.19,4.68c-.1,1.29-.75,2.73-1.27,2.69s-.46-1.57-1.42-4c-1.15-2.9-2.66-4.2-2.29-4.6S208.57,38.38,209.55,39.21Z"/><path class="cls-13" d="M168.72,64.44a3.66,3.66,0,0,0,2.36-2.16c.25-.77.21-1.75-.1-1.85s-.63.79-1.74,2c-1.34,1.39-2.52,1.78-2.4,2.1S168,64.69,168.72,64.44Z"/><path class="cls-13" d="M182.22,81.55a3.64,3.64,0,0,0,2.35-2.17c.25-.76.21-1.74-.1-1.84s-.63.79-1.74,1.95c-1.34,1.39-2.52,1.78-2.4,2.1S181.46,81.8,182.22,81.55Z"/><path class="cls-13" d="M196.88,86.15A3.68,3.68,0,0,0,199.24,84c.24-.77.2-1.74-.11-1.85s-.63.79-1.74,2c-1.34,1.39-2.51,1.78-2.4,2.1S196.12,86.4,196.88,86.15Z"/><path class="cls-11" d="M200.35,81.34c1.66-.37,3.48.17,7.08,1.25a43,43,0,0,1,6.7,2.75c3.51,1.66,6.1,3.18,7.08,3.77a55.48,55.48,0,0,1,8,5.55c1.34,1.13,2.4,2.15,3.12,2.87a8.74,8.74,0,0,1,1.84,2.22,9.5,9.5,0,0,1,.93,2.32c.73,3.05-5.11,8.88-7.49,11.48-3.47,3.81-5.31,7-8.21,12.09-6.57,11.52-6.28,19.5-10.18,19.86a4.66,4.66,0,0,1-4.39-3c-.91-2.81,2.94-4.91,5.92-11.72.63-1.45,3.25-7.44,1.56-8.81-1.43-1.16-5.89,1.08-8.81,4.24-5,5.38-3.56,11.35-6.74,12.31-2.65.8-7.16-2.3-7.54-5.61-.41-3.53,4.09-5.19,11.23-15.1,2-2.79,3.36-5,3-7.71-.3-2.41-1.95-5.24-4.17-5.56-1.43-.21-2.74.67-4.18,2-6.74,6.16-7,13.46-10.1,13.73-1.65.14-3.54-1.75-4.17-3.62-1.47-4.41,4.59-7.39,9.83-16.69C196.38,90,195.6,82.39,200.35,81.34Z"/><path class="cls-12" d="M202.62,83.34c1.66-.37,3.48.17,7.09,1.25a43.44,43.44,0,0,1,6.7,2.75c3.51,1.66,6.1,3.18,7.08,3.77a54.91,54.91,0,0,1,8,5.55c1.35,1.13,2.41,2.15,3.13,2.87a9,9,0,0,1,1.84,2.22,10,10,0,0,1,.93,2.32c.73,3.05-5.11,8.88-7.49,11.48-3.48,3.81-5.31,7-8.21,12.09-6.58,11.52-6.28,19.5-10.18,19.86a4.66,4.66,0,0,1-4.39-3c-.92-2.81,2.93-4.91,5.91-11.72.64-1.45,3.26-7.44,1.57-8.81-1.43-1.16-5.89,1.08-8.81,4.24-5,5.38-3.56,11.35-6.74,12.31-2.65.8-7.16-2.3-7.55-5.61-.41-3.53,4.1-5.19,11.24-15.1,2-2.79,3.36-5,3-7.71-.3-2.41-1.95-5.24-4.18-5.56-1.42-.21-2.73.67-4.17,2-6.74,6.16-7,13.46-10.1,13.73-1.66.14-3.54-1.75-4.17-3.62-1.48-4.41,4.58-7.39,9.83-16.69C198.66,92,197.88,84.39,202.62,83.34Z"/><path class="cls-13" d="M232.14,101.15a6,6,0,0,1,1.65,4.89c-.25,1.27-1.06,2.63-1.58,2.53s-.28-1.61-1-4.1c-.82-3-2.17-4.48-1.76-4.84S231.26,100.21,232.14,101.15Z"/><path class="cls-13" d="M186.61,121.13a2.61,2.61,0,0,0,2.07-.88c.34-.45.54-1.1.36-1.24s-.6.37-1.6.87c-1.22.61-2.09.59-2.08.83S186.05,121.11,186.61,121.13Z"/><path class="cls-13" d="M197.28,139.48a3,3,0,0,0,2.39-1c.39-.52.63-1.28.42-1.44s-.7.43-1.86,1c-1.4.7-2.41.69-2.41,1S196.63,139.46,197.28,139.48Z"/><path class="cls-13" d="M210.68,146.22a3,3,0,0,0,2.39-1c.4-.52.63-1.28.43-1.44s-.7.43-1.87,1c-1.4.7-2.41.68-2.4,1S210,146.2,210.68,146.22Z"/></g></g></svg>