<svg id="Layer_1" data-name="Layer 1" xmlns="http://www.w3.org/2000/svg" xmlns:xlink="http://www.w3.org/1999/xlink" viewBox="0 0 124.77 694.6"><defs><style>.cls-1{fill:url(#radial-gradient);}.cls-2{fill:url(#linear-gradient);}.cls-3{fill:url(#radial-gradient-2);}.cls-4{fill:url(#radial-gradient-3);}.cls-5{fill:url(#radial-gradient-4);}.cls-6{fill:url(#radial-gradient-5);}.cls-7{fill:url(#radial-gradient-6);}.cls-8{fill:url(#radial-gradient-7);}.cls-9{fill:url(#radial-gradient-8);}.cls-10{fill:url(#radial-gradient-9);}.cls-11{fill:url(#radial-gradient-10);}.cls-12{fill:url(#radial-gradient-11);}.cls-13{fill:url(#radial-gradient-12);}.cls-14{fill:url(#radial-gradient-13);}.cls-15{fill:url(#radial-gradient-14);}.cls-16{fill:url(#radial-gradient-15);}.cls-17{fill:url(#radial-gradient-16);}.cls-18{fill:url(#radial-gradient-17);}.cls-19{fill:url(#radial-gradient-18);}.cls-20{fill:url(#radial-gradient-19);}.cls-21{fill:url(#radial-gradient-20);}.cls-22{fill:url(#radial-gradient-21);}.cls-23{fill:url(#radial-gradient-22);}.cls-24{fill:url(#radial-gradient-23);}.cls-25{fill:url(#radial-gradient-24);}.cls-26{fill:url(#radial-gradient-25);}.cls-27{fill:url(#radial-gradient-26);}.cls-28{fill:url(#radial-gradient-27);}.cls-29{fill:url(#radial-gradient-28);}.cls-30{fill:url(#radial-gradient-29);}.cls-31{fill:url(#radial-gradient-30);}.cls-32{fill:url(#radial-gradient-31);}.cls-33{fill:url(#radial-gradient-32);}.cls-34{fill:url(#radial-gradient-33);}.cls-35{fill:url(#radial-gradient-34);}.cls-36{fill:url(#radial-gradient-35);}.cls-37{fill:url(#radial-gradient-36);}.cls-38{fill:#2d170e;}.cls-39{fill:#46230f;}.cls-40{fill:#77422b;}</style><radialGradient id="radial-gradient" cx="39.13" cy="561.14" r="115.29" gradientUnits="userSpaceOnUse"><stop offset="0" stop-color="#fff"/><stop offset="0" stop-color="#d0c5a3"/><stop offset="0.57" stop-color="#cec3a1"/><stop offset="0.72" stop-color="#cbbf9d"/><stop offset="0.82" stop-color="#c7b998"/><stop offset="0.97" stop-color="#baa989"/><stop offset="1" stop-color="#b6a485"/></radialGradient><linearGradient id="linear-gradient" y1="219.91" x2="124.77" y2="219.91" gradientUnits="userSpaceOnUse"><stop offset="0" stop-color="#fff"/><stop offset="0" stop-color="#e5c47f"/><stop offset="0.32" stop-color="#e3c17d"/><stop offset="0.51" stop-color="#deb974"/><stop offset="0.67" stop-color="#d5ab66"/><stop offset="0.81" stop-color="#c89752"/><stop offset="0.94" stop-color="#b87d38"/><stop offset="1" stop-color="#ae6d29"/></linearGradient><radialGradient id="radial-gradient-2" cx="14.63" cy="400.7" r="15.14" gradientUnits="userSpaceOnUse"><stop offset="0" stop-color="#fff"/><stop offset="0" stop-color="#e5c47f"/><stop offset="0.19" stop-color="#e1be79"/><stop offset="0.43" stop-color="#d7ae69"/><stop offset="0.7" stop-color="#c6944f"/><stop offset="0.99" stop-color="#af6f2b"/><stop offset="1" stop-color="#ae6d29"/></radialGradient><radialGradient id="radial-gradient-3" cx="43.42" cy="388.62" r="23.05" xlink:href="#radial-gradient-2"/><radialGradient id="radial-gradient-4" cx="94.07" cy="340.78" r="15.15" xlink:href="#radial-gradient-2"/><radialGradient id="radial-gradient-5" cx="73.65" cy="363.83" r="23.05" xlink:href="#radial-gradient-2"/><radialGradient id="radial-gradient-6" cx="89.33" cy="400.86" r="17.33" xlink:href="#radial-gradient-2"/><radialGradient id="radial-gradient-7" cx="106.61" cy="382.8" r="11.71" xlink:href="#radial-gradient-2"/><radialGradient id="radial-gradient-8" cx="114.92" cy="406.5" r="6.34" xlink:href="#radial-gradient-2"/><radialGradient id="radial-gradient-9" cx="19.02" cy="352.46" r="10.73" xlink:href="#radial-gradient-2"/><radialGradient id="radial-gradient-10" cx="38.74" cy="332.62" r="18.65" xlink:href="#radial-gradient-2"/><radialGradient id="radial-gradient-11" cx="71.47" cy="318.51" r="23.51" xlink:href="#radial-gradient-2"/><radialGradient id="radial-gradient-12" cx="91.04" cy="295.32" r="14.93" xlink:href="#radial-gradient-2"/><radialGradient id="radial-gradient-13" cx="65.12" cy="412.03" r="10.67" xlink:href="#radial-gradient-2"/><radialGradient id="radial-gradient-14" cx="15.89" cy="303.64" r="13.18" xlink:href="#radial-gradient-2"/><radialGradient id="radial-gradient-15" cx="36.21" cy="284.17" r="18.45" xlink:href="#radial-gradient-2"/><radialGradient id="radial-gradient-16" cx="71.8" cy="269.03" r="24" xlink:href="#radial-gradient-2"/><radialGradient id="radial-gradient-17" cx="92.49" cy="246.69" r="14.37" xlink:href="#radial-gradient-2"/><radialGradient id="radial-gradient-18" cx="14.15" cy="255.62" r="13.62" xlink:href="#radial-gradient-2"/><radialGradient id="radial-gradient-19" cx="35.68" cy="235.61" r="16.92" xlink:href="#radial-gradient-2"/><radialGradient id="radial-gradient-20" cx="73.52" cy="219.43" r="23.92" xlink:href="#radial-gradient-2"/><radialGradient id="radial-gradient-21" cx="91.97" cy="198.99" r="14.45" xlink:href="#radial-gradient-2"/><radialGradient id="radial-gradient-22" cx="18.3" cy="205.9" r="12.93" xlink:href="#radial-gradient-2"/><radialGradient id="radial-gradient-23" cx="40.42" cy="188.96" r="16.5" xlink:href="#radial-gradient-2"/><radialGradient id="radial-gradient-24" cx="74.15" cy="175.11" r="21.84" xlink:href="#radial-gradient-2"/><radialGradient id="radial-gradient-25" cx="19.49" cy="160.75" r="11.71" xlink:href="#radial-gradient-2"/><radialGradient id="radial-gradient-26" cx="37.95" cy="141.87" r="16.92" xlink:href="#radial-gradient-2"/><radialGradient id="radial-gradient-27" cx="71.98" cy="128.16" r="21.38" xlink:href="#radial-gradient-2"/><radialGradient id="radial-gradient-28" cx="88.17" cy="108.54" r="11.02" xlink:href="#radial-gradient-2"/><radialGradient id="radial-gradient-29" cx="20.71" cy="117.86" r="10.01" xlink:href="#radial-gradient-2"/><radialGradient id="radial-gradient-30" cx="40.51" cy="96.34" r="16.46" xlink:href="#radial-gradient-2"/><radialGradient id="radial-gradient-31" cx="72.54" cy="82.88" r="20.8" xlink:href="#radial-gradient-2"/><radialGradient id="radial-gradient-32" cx="23.59" cy="75.3" r="9.2" xlink:href="#radial-gradient-2"/><radialGradient id="radial-gradient-33" cx="41.37" cy="52.28" r="15.93" xlink:href="#radial-gradient-2"/><radialGradient id="radial-gradient-34" cx="87.69" cy="61.71" r="10.72" xlink:href="#radial-gradient-2"/><radialGradient id="radial-gradient-35" cx="68.78" cy="35.6" r="20.04" xlink:href="#radial-gradient-2"/><radialGradient id="radial-gradient-36" cx="92.15" cy="153.57" r="13.15" xlink:href="#radial-gradient-2"/></defs><rect class="cls-1" x="58.88" y="427.67" width="11.55" height="266.93" rx="5.78"/><path class="cls-2" d="M59.28,433.88c-2.28-2.86,1.93-7.85-.56-11-1.26-1.63-3.56-1.94-5.12-2l-20-2.55h0a88.23,88.23,0,0,0-9.87-.65c-1.34,0-2.11,0-2.11,0s9.35.07,9.35.07,0,0-31-.52c.21-41.17.22-41.93.22-41.93.05-5,2.37-84.6,2.14-77.23,0,0-.34-18.32-.23-24.57.34-19.91,1.8-30.67,3.35-51.93.45-6.16,1-17.69,2.18-40.76C8.39,166.2,12,91.71,19.15,59a136.89,136.89,0,0,1,7.66-23.75,79.28,79.28,0,0,1,7.66-14.55c4.23-6.17,8.44-12.3,16.31-15.19a25.58,25.58,0,0,1,11.54-1.4,27,27,0,0,1,14.33,6.35c5.23,4.25,7.87,9.29,10.25,14.7C94.74,43,96.34,55.35,96.34,55.35c5.71,62.26,9.48,107.06,11.92,137.19,1,12,5.37,66.75,5.37,66.75h0s1,8.54,2,16.45c1.69,13.67,2.37,17.85,3.55,30.1.92,9.58,1.37,17,2.26,31.85,2.4,40,3.36,76.4,3.36,76.4s-.17.05-.17,0,.17,0,.17,0-20.92,2.36-26.51,2.51a31.26,31.26,0,0,0-6.44.89l-.38.1-.62.15c-1.18.28-2.33.45-5.55,1-12.49,2.24-13.42,2.67-14.12,3.67-2.61,3.75,1.22,8.09-.34,10.89C69.16,436.3,61.66,436.87,59.28,433.88Z"/><path class="cls-3" d="M.51,393.37c.28-2.14,2-3.64,5.36-6.64.51-.45,4.94-4.36,5.87-3.57.49.41-.5,1.66-.51,3.57,0,2.33,1.46,4,3.32,6.13,6.22,7,9.33,10.44,11,11.49,2,1.27,4,2.19,4.6,4.34a4.43,4.43,0,0,1-.77,4.09c-2,2.12-6.86.3-9.7-.77-6.75-2.55-10.78-6.74-14-10.21C2,398,.18,396,.51,393.37Z"/><path class="cls-4" d="M20.17,377.66c.58-2.17,2-3.53,4.15-5.62a22.62,22.62,0,0,1,7.59-4.85,15.16,15.16,0,0,1,8.43-1.28,8.27,8.27,0,0,1,4.85,2.3c1.13,1.23,1.21,2.33,1.79,3.83,1.24,3.19,3.56,5,5.87,6.89a23.89,23.89,0,0,0,9.45,4.6c4.29.94,6.84.09,7.15,1s-2.59,2.48-7.62,6.11c-1.23.89-4.18,3.27-10.08,8-7.55,6.1-8.17,6.85-9.91,6.86-2.94,0-5.52-2.55-10.69-7.72a45.64,45.64,0,0,1-6.83-8.17C21.46,385.18,19.13,381.53,20.17,377.66Z"/><path class="cls-5" d="M79.91,335.26c.47-1.64,1.94-2.56,4.86-4.34,3.57-2.17,6.6-3.19,11.23-4.59,11.24-3.42,12.28-3.2,13-2.56,1.24,1.09,1,4.11.5,10.15a89.83,89.83,0,0,1-1.26,9c-1.45,8.38-2.18,9.36-3.07,10-1.93,1.3-4.39.69-7.15,0-1.13-.28-5.63-1.51-11-6.38C83.45,343.2,78.85,339,79.91,335.26Z"/><path class="cls-6" d="M50.4,352.87c.58-2.17,2-3.53,4.14-5.62a22.63,22.63,0,0,1,7.6-4.85,15.06,15.06,0,0,1,8.43-1.28,8.24,8.24,0,0,1,4.85,2.3c1.13,1.23,1.2,2.33,1.78,3.83,1.24,3.19,3.57,5.05,5.88,6.89a23.88,23.88,0,0,0,9.44,4.6c4.3.94,6.85.09,7.15,1s-2.59,2.48-7.62,6.11c-1.23.89-4.17,3.27-10.07,8-7.55,6.1-8.17,6.85-9.91,6.86-2.94,0-5.53-2.55-10.7-7.72a46.06,46.06,0,0,1-6.83-8.17C51.69,360.39,49.36,356.74,50.4,352.87Z"/><path class="cls-7" d="M71.84,392.61c.44-1.63,1.5-2.65,3.12-4.22a16.82,16.82,0,0,1,5.72-3.65,11.4,11.4,0,0,1,6.33-1,6.14,6.14,0,0,1,3.65,1.73A7.48,7.48,0,0,1,92,388.39c.93,2.4,2.67,3.79,4.41,5.18a17.88,17.88,0,0,0,7.11,3.46c3.23.7,5.14.07,5.37.77s-2,1.86-5.73,4.59c-.92.67-3.14,2.46-7.57,6-5.68,4.59-6.15,5.15-7.46,5.16-2.21,0-4.15-1.92-8-5.81A34.23,34.23,0,0,1,75,401.64C72.82,398.27,71.06,395.52,71.84,392.61Z"/><path class="cls-8" d="M95.66,378.54c.36-1.27,1.5-2,3.76-3.36a34.12,34.12,0,0,1,8.68-3.56c8.7-2.64,9.51-2.47,10.08-2,.95.84.76,3.17.38,7.84a67.08,67.08,0,0,1-1,7c-1.12,6.48-1.68,7.24-2.37,7.7-1.49,1-3.39.53-5.53,0a20,20,0,0,1-8.49-4.93C98.4,384.68,94.84,381.43,95.66,378.54Z"/><path class="cls-9" d="M109,404.19c.19-.69.81-1.07,2-1.82a18.7,18.7,0,0,1,4.71-1.92c4.7-1.43,5.14-1.34,5.45-1.07.52.45.42,1.72.21,4.25-.11,1.33-.26,2.19-.53,3.77-.61,3.51-.91,3.92-1.28,4.17-.81.55-1.84.29-3,0a10.89,10.89,0,0,1-4.6-2.67C110.47,407.52,108.54,405.76,109,404.19Z"/><path class="cls-10" d="M11,337.52c.75-.22,1.58,2.26,4.76,6.47a43.77,43.77,0,0,0,6.47,7.15c3.93,3.38,6,3.57,6.13,5.44.25,2.73-3.83,5.1-4.43,5.45-1.11.65-3.29,1.92-5.78,1.36-3.4-.76-5-4.41-5.79-6.13s-1-4.64-1.36-10.21C10.58,340.81,10.39,337.69,11,337.52Z"/><path class="cls-11" d="M35.06,312.37c-1.73-.05-2.12,1.9-6.46,6.47-3.88,4.07-5.06,4.08-6.47,6.81-.65,1.24-2.22,4.27-1.36,7.49.62,2.32,1.91,2.5,6.12,6.8,4.58,4.69,4.76,6.22,7.49,7.15a10.77,10.77,0,0,0,6.47,0c2.35-.74,2.51-1.77,6.81-4.42a41.5,41.5,0,0,1,5-2.73c4.34-2,5.94-1.7,6.23-2.72.46-1.58-3.13-3.17-8.51-7.83a59.89,59.89,0,0,1-9.19-9.53C37.58,315,37.06,312.42,35.06,312.37Z"/><path class="cls-12" d="M68.09,333.48c-1.49.09-3.49-1.19-7.49-3.75a43.52,43.52,0,0,1-7.94-6.13c-4-4-6-6-6.36-9.19-.46-4.54,2.89-8.19,4.42-9.87a19,19,0,0,1,8.17-5.11,16,16,0,0,1,7.83-1,12.28,12.28,0,0,1,6.47,2.73c1.92,1.66,2.06,3.06,3.41,5.1,1.93,2.95,4.44,4.31,8.51,6.47,8.34,4.42,14.36,4.53,14.29,5.79,0,.88-3.06,1.07-11.23,3.06-4.89,1.19-7.34,1.79-8.51,2.38C72.76,327.44,72.54,333.2,68.09,333.48Z"/><path class="cls-13" d="M77.28,291.94c.32-1.14,1.81-1.91,4.76-3.4,8.1-4.08,10.69-5.35,11.58-5.79,7.59-3.76,9.21-5.71,10.89-4.76,1.16.65,1.36,3.16,1.7,8.17a86.58,86.58,0,0,1-.34,15c-.3,3.79-.46,4.42-1,5.1-2.57,3.17-9.15,2.12-12.94.68-3-1.13-4.72-2.68-7.82-5.44C80.28,298.09,76.49,294.72,77.28,291.94Z"/><path class="cls-14" d="M54.36,407a5.82,5.82,0,0,1,1.92-2.6,10.48,10.48,0,0,1,3.51-2.24,6.91,6.91,0,0,1,3.9-.59,3.81,3.81,0,0,1,2.25,1.06,4.63,4.63,0,0,1,.82,1.77,7.64,7.64,0,0,0,2.72,3.19,11,11,0,0,0,4.37,2.13c2,.43,3.17,0,3.31.47S76,411.29,73.63,413c-.57.41-1.93,1.51-4.66,3.72-3.49,2.82-3.78,3.17-4.58,3.17-1.37,0-2.56-1.18-5-3.57a21.12,21.12,0,0,1-3.16-3.78C55,410.43,53.87,408.74,54.36,407Z"/><path class="cls-15" d="M10.55,287.52c1,0,.72,3.06,3.41,8.17,1.36,2.58,2.93,5.57,6.13,7.83,2.66,1.88,4,1.5,4.76,3.06,1.42,2.8-1.31,6.93-3.06,8.85-.66.72-5,5.43-9.19,4.09-3-1-4.26-4.43-5.11-6.81-.63-1.77-1.36-4.64-.68-11.23C7.34,296.29,8.87,287.47,10.55,287.52Z"/><path class="cls-16" d="M33.36,265.73c-2.06-1-5.48,2.26-8.51,5.11-2.62,2.46-4.54,4.27-5.79,7.49a15.33,15.33,0,0,0-.34,10.55c.39,1.05,2.42,3.32,6.47,7.83,3.49,3.88,4.85,5.21,7.15,5.79a8.88,8.88,0,0,0,4.43,0c1.56-.43,2.39-1.17,5.78-4.09,2.79-2.39,4.18-3.59,4.43-3.74,4-2.48,7.13-1.67,7.49-3.07.19-.73-.54-1.49-5.45-5.44-2.9-2.34-4.69-3.72-6.81-5.45-3.28-2.68-4.92-4-5.44-4.77C33.48,271.25,35.57,266.75,33.36,265.73Z"/><path class="cls-17" d="M71.15,250.75c-3.2-1.7-6.77-.83-10.21,0a27.27,27.27,0,0,0-10.22,5.11c-4.09,3-6.36,4.7-6.81,7.49s1.4,5.29,5.11,10.21c2.18,2.89,4.4,5,8.85,9.19,5.29,5,6.8,5.84,8.17,5.45,1.6-.46,1.72-2.22,3.41-4.43,2.2-2.87,5.18-4,9.53-5.44,13.53-4.42,20.68-5,20.76-6.81.07-1.28-3.53-1.6-11.23-5.45-5.78-2.89-8.67-4.33-11.36-7.39C73.64,254.7,74.28,252.41,71.15,250.75Z"/><path class="cls-18" d="M77.28,242.24c.1-.5.49-1.52,6.12-3.74,3.84-1.51,6.22-2.05,13.28-3.75,6.51-1.56,7.71-1.88,8.85-1,.91.69,1.06,1.6,1.7,8.85.57,6.4.63,7.62.34,9.53-.43,2.93-.78,5.32-2.72,6.81s-4.46,1.25-6.47,1a18.53,18.53,0,0,1-9.19-4.08c-1.11-.82-1.3-1.11-5.79-5.79C78,244.45,77,243.52,77.28,242.24Z"/><path class="cls-19" d="M10.55,238.5c.58,0,.78,1.26,2.73,5.1a32.05,32.05,0,0,0,4.08,6.81c2.94,3.44,4.71,2.9,5.45,5.11.58,1.72-.52,4-2.72,8.51-2.08,4.22-3.15,6.36-5.11,7.49-.46.26-3.81,2.13-6.47.68-2.41-1.32-2.81-4.57-3.06-6.81-.53-4.74.9-6.9,2.38-13.28C9.75,243.84,9.4,238.57,10.55,238.5Z"/><path class="cls-20" d="M18.72,233.39c.15-2.18,1.69-4.06,4.77-7.83C27,221.25,29,218.93,32,218.75a7.76,7.76,0,0,1,4.09,1c2.18,1.17,3.06,2.89,5.1,6.47,2.88,5,4.31,7.58,5.11,8.51,3.5,4.12,6.32,4.28,6.36,6.47,0,1.11-2,2.8-6,6.13s-5.64,4.26-7.83,4.76a11.1,11.1,0,0,1-3.37.34c-5.29-.35-8.84-5.28-12.63-10.55C20,238,18.55,235.93,18.72,233.39Z"/><path class="cls-21" d="M64,237.48c-1.76.09-2.85-.9-9.19-7.15-6.54-6.46-7.33-7.33-8.17-9.19s-2.78-6.14-1-10.22c1.14-2.65,3.29-3.92,7-6.12,3.54-2.09,6-3.51,9.3-3.41,3.82.12,6.58,2.16,9.19,4.09,3.56,2.63,3.46,3.86,6.81,6.8s6.6,4.43,11.23,6.47c8,3.54,13,4.1,12.94,5.11s-3.81.58-11.24,2A76.92,76.92,0,0,0,79.66,229a40.37,40.37,0,0,0-8.51,3.74C66.52,235.57,66.3,237.36,64,237.48Z"/><path class="cls-22" d="M104.85,211.6c1.84-1.86.52-4,.68-11.91.19-9.67,2.29-12.58.34-14.3-1.6-1.41-3.8-.16-15.32,3.41-9.76,3-12.79,3.55-13.27,5.78-.35,1.57,1.47,3.68,5.1,7.83,4,4.53,6,6.79,8.51,8.17C94.8,212.69,101.87,214.62,104.85,211.6Z"/><path class="cls-23" d="M14,190.16c1.45-.1,1.59,3.84,5.44,9.19,4.34,6,7.81,6.09,8.17,9.53.59,5.58-8,10.29-8.51,10.55-2.31,1.24-5.85,3.13-8.17,1.71-2.74-1.69-2.08-7-.68-17.37C11.11,197.17,12,190.28,14,190.16Z"/><path class="cls-24" d="M36.77,172.46c-1.38-.28-3.44,1.62-7.49,5.44-4.47,4.2-4.91,5.36-5.11,6.13-.63,2.41.16,4.43,1.36,7.49a27.7,27.7,0,0,0,5.79,8.85c3.15,3.31,5.09,5.36,7.49,5.11.76-.08,2.68-1.53,6.47-4.43,3.09-2.37,3.25-2.49,3.74-2.72,4-1.93,7.39-.33,7.83-1.36s-3.46-3.07-8.17-7.83a46.25,46.25,0,0,1-6.81-8.51C38.71,175.44,38.76,172.85,36.77,172.46Z"/><path class="cls-25" d="M65.36,191.86c-1.82-.17-3.48-1.82-6.81-5.11a70.12,70.12,0,0,1-5.89-7.15c-4-5.21-4.21-5.9-4.32-6.46-1-4.94,3.51-9.41,4.32-10.22A15.82,15.82,0,0,1,62,158.5a12.51,12.51,0,0,1,7.49,1c2.54,1.33,2.65,2.79,5.44,5.45,1.82,1.72,3.94,2.85,8.17,5.1A53.31,53.31,0,0,0,94,174.84c3.72,1.08,6.14,1.24,6.13,1.7,0,.61-4.2.46-9.45,1.55a40.29,40.29,0,0,0-13.7,5.26C70.07,187.76,69.13,192.21,65.36,191.86Z"/><path class="cls-26" d="M13.62,146.92c1.3-.17,1.63,2,5.44,6.47,5.59,6.54,9.31,7,9.54,10.55.19,3.12-2.55,5.7-4.09,7.15s-4.25,4-7.15,3.41c-3.51-.72-5-5.81-5.79-8.51C9.07,157.4,10.88,147.29,13.62,146.92Z"/><path class="cls-27" d="M38.47,124.8c1.24.79.08,2.87,1.36,6.8a17.69,17.69,0,0,0,4.08,6.47c5.52,6.25,10.59,6.46,10.56,9.19,0,1.72-2,1.59-5.79,6.13-2.45,3-2.55,4.19-4.42,5.11-2.73,1.34-5.75.35-6.81,0-2.68-.88-3.69-2.23-9.19-8.17-5.78-6.23-6.72-7-6.81-8.85-.13-2.6,1.5-4.49,4.76-8.17C29.14,130,36,123.22,38.47,124.8Z"/><path class="cls-28" d="M73.19,111.86c2.13,1.2,2,2.32,5.45,6.13a50.13,50.13,0,0,0,7.15,6.47c6.31,4.56,10.95,4.64,10.89,6.12-.07,1.78-6.69.86-14.3,4.77-8.6,4.42-10.28,10.8-15.66,10.21-1.82-.2-3.48-1.38-6.81-3.74A40,40,0,0,1,52.66,135c-3.39-4-5.09-6.06-5.34-8.85-.39-4.38,2.5-7.79,3.4-8.85,3.47-4.09,8.13-5,11.92-5.79S70,110,73.19,111.86Z"/><path class="cls-29" d="M95.66,96.88c-2.09-1.41-5-.34-10.55,1.7-3.8,1.4-6,2.24-6.47,4.09-.11.44-.28,1.56,3.74,6.81A40.77,40.77,0,0,0,89.19,117c3.32,2.73,5.31,4.37,6.81,3.74,1.81-.75,1.8-4.48,1.7-11.91C97.61,101.71,97.53,98.14,95.66,96.88Z"/><path class="cls-30" d="M16,105.39c.87-.23,1.48,1.42,4.09,4.09,4.15,4.25,6.45,4,7.14,6.46s-.92,4.72-3.06,7.83c-.67,1-5.14,7.48-7.83,6.47-1.29-.48-1.62-2.5-2-5.1-.56-3.46-.13-5.41.34-10.56C15.24,107.93,15,105.65,16,105.39Z"/><path class="cls-31" d="M37.79,79.18C36.16,78.62,33.67,82,30,87c-3.33,4.5-5,6.8-5.11,9.19-.17,3.74,2.09,6.51,5.11,10.21s5.81,7.12,9.53,7.15c1.75,0,2.22-.71,8.17-4.42,6.86-4.28,8.5-4.73,8.51-6.13,0-2-3.22-2.36-9.19-7.15-3.16-2.53-4.78-3.83-6.13-6.13C37.74,84.44,39.61,79.8,37.79,79.18Z"/><path class="cls-32" d="M66.72,100.63c-2,.07-4.45-2.56-9.19-7.83-5.25-5.85-6.47-8.41-7.15-10.22-.94-2.51-1.74-4.67-1-7.15.93-3.15,3.76-4.82,7.15-6.8a22.31,22.31,0,0,1,8.17-3.07c2.92-.45,5.92-.92,8.51.68,2.07,1.29,1.56,2.46,4.43,5.79a27.52,27.52,0,0,0,6.47,5.45,43.47,43.47,0,0,0,7.82,3.74c2.91,1,4,1.09,4.09,1.7.17,1.26-4.28,2.29-11.57,5.79-4.36,2.09-6.54,3.14-9.2,5.11C69.73,97.89,69.45,100.52,66.72,100.63Z"/><path class="cls-33" d="M20.43,64.88A18.55,18.55,0,0,0,25.53,70c3.31,2.19,5.37,1.94,5.79,3.4.47,1.65-2.29,4-7.83,8.51-4.64,3.81-5.5,4-6.13,3.75-2.52-1-1.25-9.05-1.12-9.89a28.38,28.38,0,0,1,4.19-10.88"/><path class="cls-34" d="M37.45,35.94c-1.55-.18-3,1.24-5.79,4.09a19,19,0,0,0-4.43,6.13,13.75,13.75,0,0,0-1.36,5.78c.05,3.69,1.9,6.28,3.75,8.86a24.8,24.8,0,0,0,7.15,6.46c2.16,1.3,3.11,1.39,3.74,1.37,1.67-.07,2.29-1,5.45-3.41a41,41,0,0,1,6.7-4.42c2.71-1.35,4-1.45,4.19-2.39.22-1.23-1.84-2.36-4.19-4.08a49.57,49.57,0,0,1-8.85-8.68C39.58,40.13,40,36.25,37.45,35.94Z"/><path class="cls-35" d="M93.28,49.56a34.23,34.23,0,0,0-9.54,3.07c-3,1.46-4.75,2.38-5.1,4.08-.12.55-.17,1.65,4.42,7.15A44.24,44.24,0,0,0,88.85,70c3.2,2.69,5.13,4.33,6.47,3.74,2.06-.9,1.45-6.53,1-10.55a61.54,61.54,0,0,0-3.06-13.62"/><path class="cls-36" d="M67.06,54c-1.74.1-4.47-2.54-9.87-7.83S50.76,39.24,50,38c-1.69-3-3.28-5.76-2.72-9.19.73-4.48,4.64-7.07,6.81-8.52a16,16,0,0,1,9.53-3.06,14.82,14.82,0,0,1,8.17,2.72c2,1.44,1.6,2,4.43,5.11s5.3,5.83,9.19,7.15c2.79.95,4.69.59,4.89,1.44S88.07,35.76,84.77,38A60.91,60.91,0,0,0,76.6,44.8C69.69,51.2,69.79,53.82,67.06,54Z"/><path class="cls-37" d="M105,141.57a55.63,55.63,0,0,0-13.12,1.61c-5.41,1.33-13.46,3.31-14,7.15-.26,2,2.66,4.4,8.51,9.19,6.14,5,8.4,5.58,9.53,5.79.78.13,6.46,1.15,9.19-2.05,1.14-1.32,1.39-2.93,1-9.19-.18-3.15-.52-7.42-1.18-12.5"/><path class="cls-38" d="M10.49,126.23c-.52-.11.21-4.66,1.72-20.87.37-4.07.57-6.19.91-9.6.62-6.08.87-7.8,1.41-12.8,1.42-13.25.86-12.18,1.67-17A131,131,0,0,1,20,50.56a153.15,153.15,0,0,1,4.7-14.64A92.36,92.36,0,0,1,34.22,16.6C38.1,10.77,40,7.86,43.9,5.15,47,3,54.19-1.06,63.21.26a26.93,26.93,0,0,1,13.2,6.1c4.81,3.89,7,8.13,10.25,14.7a101.45,101.45,0,0,1,7.53,21.29A173.67,173.67,0,0,1,97.9,62.88C99,70.71,99,73.45,100.19,87c.72,8.36,1.5,16.21,3.06,31.92,1.32,13.36,1.76,17.18,2.23,24.73.27,4.27.28,5.53.81,14.63.15,2.43.26,4.34.36,5.95.44,7,.58,9.17.7,11.07.42,7,.59,12.1.69,14.64.84,21,5,62.55,5,62.55h0s.73,8.7,2.18,17.06c1.09,6.32,2.5,12.58.34,19.75-1,3.27-2.16,4.86-3.75,5.45-3.1,1.14-6.7-2-7.12-2.36-1.89-1.69-3-3.85-5.17-17A108.28,108.28,0,0,1,98,263.37a57.11,57.11,0,0,1,.61-13.26c.66-3.86,1-3.19,3.06-11.57,1.71-7,1.95-9.44,2-10.9a45.93,45.93,0,0,0-.31-8.82,58.05,58.05,0,0,0-3.09-13.31c-.46-1.2-2.26-4.81-5.87-12-2.87-5.72-3.41-6.72-4.11-8.84-.53-1.6-1.18-3.95-1.91-10.47s-1-12.13-1-16.34c-.06-3.89-.12-8.71.34-15,.45-6.11,1.22-11,2-16.34,1.21-7.79,1.93-10.41,2-16s-.48-8.3-1.37-10.55A18.29,18.29,0,0,0,85,92.18c-2.13-1.76-5.15-4.36-8.85-3.75-3.54.59-5.62,3.74-6.5,5.08-1.54,2.34-1.91,4.49-2.35,7.18-.23,1.35-.45,3.85,0,11.57.16,2.93.41,5.28.68,7.49,1,8.11,2.18,14.62,3.4,21.11,2,10.71,2,10.37,3.06,16,1.31,7,2.69,14.42,4.09,23.83.83,5.56,1.46,11.54,2.72,23.49a63,63,0,0,1,0,17.36c-.91,6-1.86,9.15-4.42,11.23-.46.38-3.47,2.82-6.84,2-3.68-.88-5.3-5-6-6.83-1-2.47-.79-3.75-.81-11.89,0-8.93-.25-8.9,0-12.26s.45-3,1.39-10.53c.41-3.24.3-2.93,1.36-12.25.62-5.41.94-8.15,1-9.53a118.7,118.7,0,0,0,0-12.26c-.16-4-.36-7.23-1-16-.7-9.29-1.06-13.94-1.36-17-1.35-13.9-1.83-11.89-2-18C62.21,99,63,95.5,61.36,89.39a50,50,0,0,1-1.74-7.28c-.52-3.62-.19-4.9-1.18-7.29-.68-1.68-1.81-4.43-4.42-5.11a6.31,6.31,0,0,0-6.13,2.38c-1.37,1.74-1.26,3.6-1.36,6.47-.2,6-.88,3.88-1.36,11.92-.51,8.42.37,8.35-.34,13.61A30.72,30.72,0,0,1,41.76,115c-1.4,2.7-3.22,6.16-7.14,8.17-1.36.69-4.1,2.09-7.21,1.24-4-1.1-6.2-5.29-6.75-8.39-.35-2,.19-4.15,1.36-8.51a49.41,49.41,0,0,1,3.06-8.85c1.25-2.66,1.44-2.57,3.07-6.13s2.2-5.46,2.28-7.54c.06-1.73-.17-4.24-.92-4.38-.59-.1-1.05,1.31-3.75,5.45s-3.26,4-4.76,6.81c-.46.85-.61,1.23-2.73,7.15-.56,1.57-.75,2-1.24,3.29-1.83,5-2,8-3.19,13.18C12.86,120.54,11.08,126.34,10.49,126.23Z"/><path class="cls-39" d="M7.77,132.66c-.51-.1.21-4.65,1.72-20.86.38-4.08.57-6.19.92-9.6.62-6.09.86-7.8,1.4-12.81,1.42-13.24.87-12.17,1.68-17A128.5,128.5,0,0,1,17.23,57c1.44-5.08,2.63-9.25,4.7-14.64A93.18,93.18,0,0,1,31.51,23c3.87-5.83,5.81-8.74,9.67-11.45,3.14-2.2,10.29-6.22,19.31-4.89a26.85,26.85,0,0,1,13.2,6.09c4.82,3.89,7,8.14,10.25,14.71a100.64,100.64,0,0,1,7.53,21.29,173.66,173.66,0,0,1,3.72,20.52c1,7.84,1.1,10.57,2.28,24.08.73,8.36,1.51,16.22,3.06,31.93,1.33,13.36,1.77,17.18,2.23,24.73.27,4.26.28,5.53.82,14.62s.7,10.89,1,17c.48,8.34.5,10.72.93,19.93.58,12.41.87,18.62,1.46,26.09,1.24,15.79,3.15,29.7,3.36,31.16.78,5.68,1.19,11.42,2.17,17.07,1.09,6.31,2.5,12.58.34,19.75-1,3.26-2.16,4.86-3.75,5.44-3.1,1.14-6.7-2-7.11-2.36-1.89-1.68-3-3.84-5.18-17a105.21,105.21,0,0,1-1.58-11.94,57,57,0,0,1,.6-13.26c.66-3.86,1-3.2,3.06-11.58,1.72-7,1.95-9.44,2-10.89a46.08,46.08,0,0,0-.31-8.83A57.18,57.18,0,0,0,97.57,212c-.45-1.21-2.26-4.82-5.86-12-2.87-5.71-3.42-6.71-4.12-8.84-.52-1.59-1.18-3.94-1.9-10.46s-1-12.13-1-16.34c-.06-3.89-.12-8.71.34-15,.46-6.11,1.22-11,2-16.34,1.21-7.79,1.92-10.41,2-16s-.48-8.3-1.36-10.56a18.4,18.4,0,0,0-5.45-7.83c-2.13-1.75-5.15-4.35-8.85-3.74-3.54.58-5.61,3.73-6.5,5.08-1.53,2.33-1.91,4.48-2.35,7.17-.22,1.36-.44,3.86,0,11.58.17,2.92.42,5.28.68,7.49,1,8.11,2.18,14.62,3.4,21.1,2,10.72,2,10.38,3.07,16,1.3,7,2.68,14.43,4.08,23.83.83,5.57,1.46,11.54,2.73,23.49a63.46,63.46,0,0,1,0,17.37c-.92,6-1.87,9.15-4.43,11.23-.46.38-3.47,2.82-6.84,2-3.67-.88-5.3-5-6-6.83-1-2.48-.78-3.76-.81-11.9,0-8.92-.24-8.89,0-12.25s.45-3,1.4-10.53c.4-3.24.29-2.93,1.36-12.26.62-5.41.93-8.14,1-9.53a115.5,115.5,0,0,0,0-12.25c-.15-4-.36-7.24-1-16-.71-9.3-1.06-13.94-1.36-17-1.36-13.91-1.83-11.89-2-18-.32-9.15.45-12.67-1.17-18.78a50.21,50.21,0,0,1-1.74-7.29c-.51-3.61-.19-4.89-1.17-7.29-.69-1.67-1.82-4.43-4.43-5.1a6.27,6.27,0,0,0-6.13,2.38c-1.37,1.73-1.26,3.59-1.36,6.47-.2,6-.88,3.88-1.36,11.91-.5,8.42.38,8.36-.34,13.62a30.9,30.9,0,0,1-3.06,10.89c-1.41,2.71-3.23,6.17-7.15,8.17-1.35.69-4.1,2.1-7.21,1.25-4-1.1-6.19-5.29-6.75-8.4-.35-2,.2-4.14,1.36-8.51a49.28,49.28,0,0,1,3.07-8.85c1.24-2.65,1.44-2.57,3.06-6.13s2.2-5.46,2.28-7.54c.07-1.72-.17-4.24-.92-4.37-.59-.11-1.05,1.31-3.74,5.45s-3.26,4-4.77,6.8c-.46.85-.6,1.24-2.72,7.15-.57,1.58-.76,2-1.24,3.3-1.84,5-2,8-3.2,13.17C10.14,127,8.36,132.78,7.77,132.66Z"/><path class="cls-40" d="M48.89,11.94c.47-1.53,8.67-1.64,15.76,1.58C78.6,19.85,84,37.17,82.51,38.21c-1.07.73-5.08-7-17.22-15.72C55.63,15.55,48.44,13.45,48.89,11.94Z"/><path class="cls-40" d="M37.77,26.13c-.52-.14-1.28,3.44-6.86,17.23-3,7.47-4.87,11.56-6.61,18.41-.23.93-2.79,11.11-1.48,11.58.71.25,2.31-2.48,3.31-4.18a40,40,0,0,0,3.9-8.9C31.54,54.76,39.26,26.51,37.77,26.13Z"/><circle class="cls-40" cx="21.64" cy="78.67" r="2.78"/><path class="cls-40" d="M63.7,232c.11.61.87,4.43,4.22,6,1.66.79,3.9,1,4.23.33s-1.61-1.68-3.9-4.56c-2.76-3.49-3.3-6.28-4.06-6.11S63.37,230.23,63.7,232Z"/><path class="cls-40" d="M102.21,290.2c.11.61.87,4.43,4.22,6,1.66.79,3.9,1,4.23.33s-1.61-1.68-3.9-4.56c-2.76-3.49-3.3-6.28-4.06-6.11S101.88,288.39,102.21,290.2Z"/><path class="cls-40" d="M21.71,121.39c.11.62.87,4.44,4.22,6,1.66.8,3.9,1,4.23.34s-1.61-1.69-3.9-4.57c-2.76-3.48-3.3-6.28-4.05-6.11S21.38,119.59,21.71,121.39Z"/></svg>