<svg xmlns="http://www.w3.org/2000/svg" viewBox="0 0 237.49 408.09"><defs><style>.cls-1{isolation:isolate;}.cls-2{fill:#f29220;}.cls-3{fill:#1d1d1b;}.cls-4{fill:#dbdada;opacity:0.79;}.cls-14,.cls-4,.cls-7{mix-blend-mode:multiply;}.cls-5{fill:#d4a258;}.cls-6{fill:#e0b070;}.cls-7{fill:#cbbba0;opacity:0.63;}.cls-11,.cls-8{fill:#fff;}.cls-8{opacity:0.58;}.cls-9{fill:#c7ced3;}.cls-10{fill:#d6dee5;}.cls-12{fill:#dec1b6;}.cls-13{fill:#f8b232;}.cls-14{fill:#ca9e68;opacity:0.37;}.cls-15{fill:#2d170e;}.cls-16{fill:#46230f;}.cls-17{fill:#77422b;}.cls-18{fill:#0b0b0b;}.cls-19{fill:#fdfefe;}</style></defs><g class="cls-1"><g id="Layer_1" data-name="Layer 1"><path class="cls-2" d="M140.74,30.26a31.63,31.63,0,0,0-48.77,0L5.88,134.45A14.41,14.41,0,0,0,3.7,149.21l54.64,130,51.2,121.84a7.39,7.39,0,0,0,13.62,0l51.23-121.83,54.66-130a14.41,14.41,0,0,0-2.17-14.76Z"/><path class="cls-3" d="M116.35,408.09h0a9.72,9.72,0,0,1-9.11-6.06L1.4,150.18A16.85,16.85,0,0,1,4,132.86L90.05,28.67a34.12,34.12,0,0,1,52.61,0h0l86.15,104.22a16.85,16.85,0,0,1,2.55,17.32L125.46,402A9.73,9.73,0,0,1,116.35,408.09Zm0-386.81A29.06,29.06,0,0,0,93.9,31.85L7.81,136.05A11.84,11.84,0,0,0,6,148.24L111.84,400.09a4.76,4.76,0,0,0,4.51,3h0a4.75,4.75,0,0,0,4.5-3l105.9-251.83a11.88,11.88,0,0,0-1.8-12.2L138.81,31.85A29,29,0,0,0,116.35,21.28Z"/><path class="cls-4" d="M226.88,134.48,160,53.6c-3.26,20.6-21.65,43.91-49.35,59.52-35,19.72-72.83,20.34-89.41,2.71L5.88,134.45A14.41,14.41,0,0,0,3.7,149.21l54.64,130,51.2,121.84a7.39,7.39,0,0,0,13.62,0l51.23-121.83,54.66-130A14.41,14.41,0,0,0,226.88,134.48Z"/><path class="cls-4" d="M226.88,134.48l-38.7-46.82c-11.86,14.41-28.26,28.31-48,39.71-52,30-107.5,31.34-123.91,2.92a33,33,0,0,1-2.49-5.4l-7.9,9.56A14.41,14.41,0,0,0,3.7,149.21l54.64,130,51.54,122.66a7,7,0,0,0,12.93,0l51.58-122.65,54.66-130A14.41,14.41,0,0,0,226.88,134.48Z"/><path class="cls-5" d="M199.73,83.77l33.37,19c-78.88,101.68-78.76,171.15-79.55,176.74,0,.08-.25,3.17-.28,3.25-.63,2-9.33,1-19.44-2.19s-17.78-7.42-17.15-9.41C116.68,271.13,113.09,199.22,199.73,83.77Z"/><path class="cls-3" d="M149.57,285.75c-5.14,0-12.44-2.07-16.34-3.3a75.64,75.64,0,0,1-13-5.32c-2.85-1.56-6-3.65-5.59-6.18-.08-2.48-.25-20.2,9.12-50.79,9.11-29.73,29.4-77.72,74.33-137.59a2,2,0,0,1,2.58-.54l33.37,19a2,2,0,0,1,1,1.34,2,2,0,0,1-.38,1.62c-47.17,60.81-75.21,122.48-79,173.65-.07,1-.12,1.67-.18,2.11,0,.75-.23,3.2-.36,3.61C154.62,285.11,152.43,285.75,149.57,285.75Zm-30.89-14.57c.93,1.21,6.13,4.4,15.76,7.45,9.15,2.9,15.11,3.4,16.93,3.05.07-.86.18-2.12.19-2.31a1,1,0,0,1,0-.17c.05-.31.1-1,.16-1.88,3.77-51.43,31.58-113.15,78.38-174l-29.84-17C156.53,145,136.68,191.91,127.72,221c-9.78,31.79-9,49.81-9,50Z"/><path class="cls-3" d="M140.58,282.8h-.1a2,2,0,0,1-1.9-2.1c0-.22,1.23-23.18,11.67-57A372.11,372.11,0,0,1,218.53,98.18a2,2,0,1,1,3.08,2.54,368.26,368.26,0,0,0-67.5,124.05c-10.31,33.34-11.53,55.9-11.54,56.13A2,2,0,0,1,140.58,282.8Z"/><path class="cls-3" d="M127.08,280.11H127a2,2,0,0,1-1.89-2.1c0-.23,1.28-23,11.83-57.25,9.71-31.58,29.53-79.78,68.74-130.07a2,2,0,0,1,3.16,2.46c-74.31,95.29-79.69,184.17-79.74,185.06A2,2,0,0,1,127.08,280.11Z"/><path class="cls-6" d="M199.73,83.77c-1,1.82,5.59,7.54,14.81,12.78s17.52,8,18.56,6.19S227.5,95.2,218.28,90,200.76,82,199.73,83.77Z"/><path class="cls-3" d="M231.46,105.24c-5,0-13.68-4.55-17.91-7-5.54-3.14-18.14-11-15.56-15.5h0c2.58-4.54,15.74,2.29,21.28,5.44s18.15,11,15.57,15.5C234.22,104.8,233,105.24,231.46,105.24Zm-29-19.91c1.71,1.94,6,5.45,13.05,9.48s12.27,5.87,14.82,6.36c-1.72-1.93-6-5.45-13.06-9.47S205,85.82,202.48,85.33Z"/><path class="cls-7" d="M133.83,280.54c-1.3-19.06,19.54-109.59,79.51-185.4L199.73,83.77c-60.32,80.22-89.84,168.81-82.61,189.1Z"/><path class="cls-8" d="M147.26,278.76h-.06a1.51,1.51,0,0,1-1.44-1.56c0-.2.91-20.63,10.61-51.85,8.94-28.77,27.41-72.92,64.61-119.88a1.5,1.5,0,1,1,2.35,1.86c-70.62,89.15-74.54,169.19-74.57,170A1.5,1.5,0,0,1,147.26,278.76Z"/><path class="cls-5" d="M79.48,21l-37.26,9.2C90.53,149.45,75.81,264,75.05,269.61a1,1,0,0,0,0,.23c.06,2.1,8.71,3.51,19.3,3.18s19.13-2.32,19.06-4.41C113.38,268.61,131.53,155.61,79.48,21Z"/><path class="cls-3" d="M90.93,275.07c-7.12,0-17.77-.74-17.91-5.16a2.57,2.57,0,0,1,.06-.67c.82-6.1,15.14-120.14-32.72-238.31a2,2,0,0,1,.08-1.66,2,2,0,0,1,1.3-1L79,19a2,2,0,0,1,2.35,1.22A559.24,559.24,0,0,1,118,195.2c1.88,43.18-2.24,71.4-2.57,73.59-.3,5-14.73,6-21,6.22C93.41,275.05,92.23,275.07,90.93,275.07ZM77.1,269.33c1.6.84,7.49,2,17.16,1.69,10.06-.33,15.93-2,17.17-2.9.37-2.44,4.39-30.29,2.52-72.87A555.2,555.2,0,0,0,78.25,23.34L44.93,31.57C91.27,147.74,78.37,259.45,77.1,269.33Zm-.12.82Zm-1.93-.54h0Z"/><path class="cls-3" d="M87.76,273.44l-.23,0a2,2,0,0,1-1.76-2.21c.16-1.33,14.8-133.46-32-239.85a2,2,0,1,1,3.67-1.61C82.15,85.9,89.61,148.68,91.53,191.46c2.07,46.33-1.74,79.87-1.78,80.21A2,2,0,0,1,87.76,273.44Z"/><path class="cls-3" d="M101.49,274.51h-.23a2,2,0,0,1-1.76-2.21c.15-1.32,14.38-132.78-31.3-244.74A2,2,0,1,1,71.9,26c24.08,59,31.39,123,33.27,166.18,2,46.83-1.66,80.19-1.7,80.52A2,2,0,0,1,101.49,274.51Z"/><ellipse class="cls-6" cx="60.85" cy="25.58" rx="19.19" ry="3.79" transform="translate(-4.36 15.33) rotate(-13.86)"/><path class="cls-3" d="M47.19,33.48c-3.57,0-6.39-.71-6.91-2.82C39,25.58,53.28,21.48,59.46,20s20.71-4.53,22,.54h0c1.25,5.07-13,9.17-19.19,10.7C58.63,32.09,52.19,33.48,47.19,33.48Zm-1.9-4.06c2.58.22,8.08-.15,16-2.11s13-4.18,15.13-5.57c-2.58-.22-8.08.15-16,2.1S47.47,28,45.29,29.42Zm32.63-7.36h0Z"/><path class="cls-7" d="M63.75,28.74C109.87,146.84,94.32,273,94.32,273l19.06-4.41C131.81,136.66,79.48,21,79.48,21Z"/><path class="cls-8" d="M81.27,267.7H81A1.51,1.51,0,0,1,79.78,266c.16-1.08,15.42-109.37-30.38-229.1a1.5,1.5,0,1,1,2.8-1.07c24.08,63,31.11,122.29,32.76,161,1.79,41.93-2.17,69.37-2.21,69.64A1.49,1.49,0,0,1,81.27,267.7Z"/><path class="cls-5" d="M116.49,5l38.08,4.82c-34.16,124.07-6.26,236.16-4.86,241.63a.9.9,0,0,1,.06.22c.18,2.09-8.24,4.5-18.8,5.39s-19.27-.08-19.45-2.16C111.52,254.9,80.4,144.76,116.49,5Z"/><path class="cls-3" d="M123.43,259.39a57,57,0,0,1-6.3-.31c-3.32-.36-7.14-1.13-7.57-3.78-.61-2.23-8-29.76-11.08-72.79a558.8,558.8,0,0,1,16.07-178A2,2,0,0,1,116.74,3l38.08,4.82a2,2,0,0,1,1.41.87,2,2,0,0,1,.27,1.64c-33.84,122.9-6.4,234.51-4.88,240.5a2.77,2.77,0,0,1,.15.68c.23,2.81-3.52,4.26-6.82,5.21a76.72,76.72,0,0,1-13.82,2.32C128.46,259.28,125.85,259.39,123.43,259.39Zm-10-5.2c1.35.77,7.36,1.72,17.4.88,9.64-.81,15.35-2.65,16.84-3.66-2.4-9.67-28.17-119.13,4.39-239.89L118,7.21a555.16,555.16,0,0,0-15.52,174.88C105.54,224.61,112.75,251.81,113.4,254.19Zm.12.54h0Zm34.34-2.53Z"/><path class="cls-3" d="M137.3,256.73a2,2,0,0,1-2-1.54c-.08-.32-7.75-33.2-11.06-79.46C121.23,133,121.36,69.8,139.36,11.16a2,2,0,0,1,3.83,1.18c-34.13,111.13-4.25,240.64-3.95,241.93a2,2,0,0,1-1.48,2.41A1.85,1.85,0,0,1,137.3,256.73Z"/><path class="cls-3" d="M123.79,259.39a2,2,0,0,1-2-1.54c-.07-.33-7.62-33-11-79.78-3.14-43.15-3.3-107.5,13.78-168.92a2,2,0,0,1,3.86,1.07c-32.4,116.53-3,245.43-2.72,246.72a2,2,0,0,1-1.5,2.4A1.73,1.73,0,0,1,123.79,259.39Z"/><path class="cls-6" d="M116.49,5c-.27,2.08,8.05,4.84,18.56,6.17s19.25.73,19.52-1.35S146.52,5,136,3.65,116.75,2.93,116.49,5Z"/><path class="cls-3" d="M145.49,13.91a88.14,88.14,0,0,1-10.69-.76c-6.32-.79-21-3.21-20.3-8.4h0c.66-5.18,15.43-3.88,21.75-3.08s20.95,3.22,20.3,8.4C156.17,13.09,151,13.91,145.49,13.91ZM119.62,5.4c2.33,1.13,7.6,2.76,15.68,3.79s13.59.75,16.13.23c-2.33-1.13-7.6-2.76-15.68-3.78S122.16,4.88,119.62,5.4Z"/><path class="cls-7" d="M133,10.89C100.89,133.54,131,257.06,131,257.06l-19.45-2.16C77.93,126,116.49,5,116.49,5Z"/><path class="cls-8" d="M143.15,250.28a1.49,1.49,0,0,1-1.45-1.11c-.07-.26-7.19-27.06-10.27-68.92-2.85-38.61-2.75-98.35,13.88-163.68a1.5,1.5,0,0,1,2.91.74c-31.63,124.27-3.91,230-3.63,231.08a1.49,1.49,0,0,1-1.05,1.84A1.35,1.35,0,0,1,143.15,250.28Z"/><path class="cls-5" d="M33,62.7,2.27,80C86.43,220.49,94.56,310.83,97.5,344c.22,2,8.24,2.82,17.92,1.78s17.36-3.51,17.14-5.53C128.77,312.33,122.27,212.21,33,62.7Z"/><path class="cls-3" d="M107.12,348.23c-5.59,0-11.26-.82-11.61-4.06C92.53,310.56,84.62,221.35.55,81a2,2,0,0,1-.22-1.54,2,2,0,0,1,1-1.23L32,61a2,2,0,0,1,2.7.71c83,139.05,94.6,235,99,271.11.33,2.76.62,5.15.89,7.16.31,2.86-3.4,4.4-6.22,5.31a66.2,66.2,0,0,1-12.68,2.48A82.59,82.59,0,0,1,107.12,348.23Zm-7.67-5c1.41.69,6.89,1.44,15.76.49s14.06-2.83,15.3-3.81c-.25-1.88-.52-4.12-.83-6.68C125.37,297.52,114,202.81,32.27,65.4L5,80.74C88.16,220.12,96.42,309.18,99.45,343.26Z"/><path class="cls-3" d="M107.05,348.2h0a2,2,0,0,1-2-2.05c0-.27.55-27.77-10.64-74.29-10.32-42.94-33-111.31-82.63-193.22a2,2,0,1,1,3.42-2.07C65.11,159,88,227.86,98.35,271.11c11.28,47,10.7,74.86,10.7,75.14A2,2,0,0,1,107.05,348.2Z"/><path class="cls-3" d="M120.76,347h0a2,2,0,0,1-2-2c0-.28.15-28.64-11.43-76-10.68-43.72-33.84-113-83.44-195a2,2,0,0,1,3.43-2.07c49.91,82.44,73.2,152.23,83.95,196.26,11.66,47.81,11.5,76.54,11.49,76.83A2,2,0,0,1,120.76,347Z"/><path class="cls-6" d="M33,62.7c1,1.77-5.07,7.08-13.56,11.86S3.26,81.78,2.27,80s5.07-7.08,13.55-11.86S32,60.93,33,62.7Z"/><path class="cls-3" d="M4,82.55c-1.57,0-2.8-.45-3.43-1.56-1.38-2.46,1.42-5.34,3.65-7.29a66.13,66.13,0,0,1,10.67-7.3c5.14-2.89,17.37-9.15,19.89-4.68,1.38,2.46-1.42,5.34-3.65,7.29A66.79,66.79,0,0,1,20.41,76.3C16.55,78.48,8.69,82.55,4,82.55ZM30.28,64.23c-2.36.42-7.09,2.06-13.48,5.66S6.56,76.68,5,78.48c2.36-.43,7.1-2.07,13.48-5.66S28.69,66,30.28,64.23Zm1.47-.08h0Z"/><path class="cls-7" d="M19.43,74.56C96.66,211.27,112,302.25,114,345.88l18.16-4.56C125.72,208.72,33,62.7,33,62.7l-2.43,3.55Z"/><path class="cls-8" d="M102.23,342.46a1.5,1.5,0,0,1-1.49-1.4c0-.3-2.23-30.41-14.55-76.85A693.41,693.41,0,0,0,9.42,84.76,1.5,1.5,0,0,1,12,83.21,696.59,696.59,0,0,1,89.11,263.53c12.38,46.69,14.6,77,14.62,77.32a1.5,1.5,0,0,1-1.39,1.6Z"/><path class="cls-5" d="M179.61,26.14l30.75,13C146.4,180.24,148.5,266,149.31,297.5c0,1.93-7.44,3.54-16.65,3.61S116,299.68,116,297.76C116.51,271.14,111.82,176.33,179.61,26.14Z"/><path class="cls-3" d="M132,303.12a61.3,61.3,0,0,1-11.57-1c-2.78-.55-6.49-1.62-6.51-4.37,0-2,0-4.25.07-6.88.19-34.43.71-125.88,63.77-265.57a2,2,0,0,1,2.6-1l30.74,13a2,2,0,0,1,1.05,2.67c-63.87,141-61.69,225.65-60.87,257.53,0,5-13,5.62-18.64,5.66ZM118,297.23c1.34.77,6.41,1.95,14.68,1.88S146,297.79,147.3,297c-.83-32.35-2.66-116.94,60.39-256.86l-27.06-11.4C118.72,166.65,118.21,256.86,118,290.91,118,293.31,118,295.41,118,297.23Z"/><path class="cls-3" d="M139.13,301.42a2,2,0,0,1-2-1.82c0-.28-2.3-27.66,3.91-73.51,5.73-42.24,20-109.36,55.73-189.18a2,2,0,1,1,3.65,1.63c-35.49,79.39-49.72,146.1-55.41,188.09-6.16,45.42-3.92,72.35-3.9,72.62a2,2,0,0,1-1.82,2.16Z"/><path class="cls-3" d="M127.56,303a2,2,0,0,1-2-1.76c0-.26-3.3-27.27,2.51-73.48,5.36-42.56,19.72-110.69,57.75-193.58a2,2,0,0,1,3.64,1.66c-37.82,82.43-52.1,150.14-57.42,192.42-5.75,45.72-2.55,72.22-2.51,72.49a2,2,0,0,1-1.74,2.23Z"/><path class="cls-6" d="M179.61,26.14c-.75,1.77,5.53,6.11,14,9.69s16,5,16.73,3.27-5.53-6.11-14-9.69S180.36,24.37,179.61,26.14Z"/><path class="cls-3" d="M208.11,41.85a19.06,19.06,0,0,1-3.59-.42,62.6,62.6,0,0,1-11.66-3.76A62.31,62.31,0,0,1,182,32c-2.34-1.61-5.32-4.05-4.25-6.58h0c1.07-2.54,4.9-2.11,7.68-1.56a62.6,62.6,0,0,1,11.66,3.76A63,63,0,0,1,208,33.28c2.34,1.62,5.32,4.06,4.25,6.59C211.56,41.4,209.92,41.85,208.11,41.85ZM182.64,27.42c1.8,1.53,5.69,4,11.77,6.56S205,37.6,207.33,37.82c-1.8-1.53-5.69-4-11.77-6.57S185,27.64,182.64,27.42Zm-3-1.28h0Z"/><path class="cls-7" d="M193.63,35.83c-57.84,136.85-62.4,224-59.63,265.26l-17.56-2.33C108.2,173.42,179.61,26.14,179.61,26.14l2.67,3.08Z"/><path class="cls-8" d="M144.22,295.45a1.51,1.51,0,0,1-1.5-1.4c0-.28-1.85-28.42,4.47-73.21,5.83-41.3,20-105.66,54.31-177.74a1.51,1.51,0,0,1,2-.71,1.5,1.5,0,0,1,.71,2C170,116.13,156,180.17,150.16,221.26c-6.28,44.48-4.46,72.31-4.44,72.58a1.5,1.5,0,0,1-1.4,1.6Z"/><path class="cls-9" d="M87.23,88.43a26.09,26.09,0,0,1,.43,7c-.14,1.91-.45,2.93.09,4.22.78,1.91,2.78,2.85,4.17,3.39,6,2.36,12.93,1.9,14.34,1.82a101.9,101.9,0,0,1,19,1A53.53,53.53,0,0,1,144.08,113c7.08,4.29,18.89,13.78,20.08,22.16a6.44,6.44,0,0,0,1.58,3.94c2,2.08,4.91,1,9.37,2.36a28.15,28.15,0,0,1,5.51,2.83c6.29,3.71,9.87,5.85,12.78,10.18a25.67,25.67,0,0,1,3.47,8,24,24,0,0,1,1,10c-.52,3.7-1.73,4.72-1.05,6.77.79,2.46,3,2.77,5.22,4.72,4.72,4.11,6.08,12.6,3.39,18-1.36,2.72-3.65,4.38-8.61,6.78-13.47,6.53-23.48,7.83-23.48,7.83-33.67,4.36-53.2,4.43-53.2,4.43-19.84.07-29.77.1-44.34-1.31-15.09-1.45-50.43-4.86-52.52-16.63-.44-2.45.52-5.57,1.14-7.62,1.94-6.3,5.77-10.18,8.35-12.78,3.44-3.47,5.51-5.57,9.13-6.79,3.14-1.05,5.79-.88,6.29-2.36.4-1.24-1.26-2.1-2.86-4.95a19,19,0,0,1-2.09-8.87c0-1.42.33-4.3,2.61-8.35,3-5.3,6.29-7,13.56-13,7.58-6.29,11.37-9.44,13-13,2.93-6.29,3.15-14.72,3.15-15.12.07-4.18-.56-6.3.79-9.65a21.83,21.83,0,0,1,5.16-7.33,33,33,0,0,1,5.75-4.72"/><path class="cls-10" d="M87.23,88.43a17.05,17.05,0,0,0-3.94,9.91c-.08,1.89-.23,5.51,2.1,7.87,1.7,1.71,3.84,1.79,8.08,2.09,0,0,5.76.38,15.38,1.29A93,93,0,0,1,122.42,112c6.81,1.67,11.22,2.76,16.17,5.74,4.29,2.59,10.68,6.45,13.3,14.35.36,1.07,2.81,8.89-1,16.69-3.27,6.59-9.14,9.19-17.72,13-6.48,2.88-16.68,7.38-29.74,6.3-13.44-1.16-22.72-7.67-23.47-6.3-.52,1,3.74,4.43,7.31,6.52,2.84,1.67,6.69,3.34,13.82,4.44a67.25,67.25,0,0,0,20.86.26c12.71-1.88,21.18-6.88,27.65-10.7,8.29-4.89,11.8-8.77,13.82-13.3.33-.73,0-2.93,1.31-3.93,1.08-.79,2.73-.6,4.95.26,3,1.16,9.13,3.5,12.78,10.16,3.15,5.78,4.08,14,.26,20.35-3,4.95-7.6,6.65-16.16,9.65-5.76,2-11.86,3.44-31,5.51-10.89,1.15-16.34,1.73-20.09,1.83-20.35.51-34.34-3.53-34.69-2.09-.2.87,4.73,2.78,7.31,3.65,8.35,2.85,15.18,2.83,20.34,2.87,20,.15,15.85,1.18,26.87.79,13-.48,20.28-.74,29.73-3.4,11.39-3.21,17.08-4.81,19.56-6.52a15.69,15.69,0,0,1,7.83-2.86,7.72,7.72,0,0,1,4.72.78c2.91,1.74,3.73,5.93,3.39,8.61-.27,2.15-1.69,6.57-11.21,11.22-16.53,8.08-38.07,7.36-74.86,8.34-13.12.35-26.26-.28-39.35.26a147.06,147.06,0,0,1-20.34-1c-10.69-1.2-16.06-2.86-19.83-7-1.12-1.26-3.51-4-3.39-7.57.14-4.1,3.47-6.87,6.78-9.65,2.8-2.36,7.25-6.05,13.56-6.78,9.12-1.05,16.48,4.8,17,3.94.32-.58-3.07-2.52-7.57-7.09-3.33-3.34-5.2-5.22-6.51-8.34a20.09,20.09,0,0,1-.79-12.26,22,22,0,0,1,5.22-9.91,23.41,23.41,0,0,1,10.17-6.29c2.14-.74,2.95-.73,12.52-1.83,8.24-.94,10.45-1.27,12.26-1.57,6.55-1.07,9.89-1.64,12.52-3.39,1.28-.85,5.93-3.93,6.52-9.13a10.57,10.57,0,0,0-.79-5.21c-1.24-3-3.83-5.33-4.43-5s.79,2.08,1,5.51c.13,1.47.41,4.88-1.3,7.3-.78,1.15-1.84,1.75-7.3,3.39a111.89,111.89,0,0,1-12.78,3.15c-6.3,1.15-7.87,1-9.13,0a5.09,5.09,0,0,1-1.82-4.18c.22-2.51,2.64-2.77,5.21-6.51a13.11,13.11,0,0,0,2.61-7,13.61,13.61,0,0,0-1.31-5.74c-1.13-2.67-2.07-3-2.86-5.21a12.84,12.84,0,0,1-.53-5.74C80.29,94.31,86.2,89.28,87.23,88.43Z"/><path class="cls-11" d="M136.26,121.82a21.59,21.59,0,0,1,6,3.65,19.3,19.3,0,0,1,6.26,9.13c2.45,8.91-4.77,16.94-5.74,18-2.94,3.15-6.3,4.59-12.78,7.31-10.23,4.25-20.37,6.47-20.6,5.73-.15-.44,3.34-1.57,12-6,6.65-3.38,10-5.12,12.78-7.57,3.47-3.09,7.45-6.65,7.82-11.74.15-2-1.11-5.59-3.65-12.78-.84-2.36-1.57-4.37-2.08-5.73"/><path class="cls-11" d="M170.56,151.49a16.66,16.66,0,0,1,4.76,2.26,14.66,14.66,0,0,1,5.38,6.3c2.51,6.47-2.25,13-2.9,13.87-1.94,2.59-4.31,3.94-9,6.44-7.29,3.93-14.69,6.4-15,5.87-.15-.32,2.36-1.46,8.48-5.4,4.72-3,7.08-4.59,9-6.63,2.36-2.58,5.05-5.51,4.93-9.37-.05-1.47-1.27-4.08-3.71-9.25-.79-1.72-1.52-3.15-2-4.12"/><path class="cls-11" d="M75.75,144.75a17,17,0,0,0-13.29,4.18c-5.36,5.3-4.13,13.73-3.93,14.85.54,3.35,2.07,5.64,5.1,10.08,4.73,6.94,10.33,12.44,10.79,12,.28-.25-1.47-2.43-5.15-8.86-2.84-5-4.27-7.48-5-10.23-.91-3.51-2-7.55,0-11.26C65,154.1,67.36,152,72,148c1.57-1.36,2.86-2.46,3.77-3.21"/><path class="cls-12" d="M47.61,187.94a12.35,12.35,0,0,0-3.41,1,8.56,8.56,0,0,0-3.94,3.34c-1.92,3.59,1.29,7.65,1.72,8.18,1.32,1.58,3,2.51,6.2,4.24,5,2.71,10.23,4.56,10.4,4.26s-1.64-1-5.87-3.62c-3.25-2-4.89-3.06-6.17-4.35-1.57-1.62-3.44-3.48-3.26-5.69.06-.86,1-2.29,2.82-5.14.61-.94,1.14-1.72,1.51-2.26"/><path class="cls-13" d="M40,235.62l18.32,43.6,51.21,121.84a7.38,7.38,0,0,0,13.61,0l51.24-121.83,54.66-130C190.9,204.8,40,235.62,40,235.62Z"/><path class="cls-3" d="M116.32,408.09h0A9.74,9.74,0,0,1,107.2,402L37.68,236.58a2.48,2.48,0,0,1,.09-2.13,2.51,2.51,0,0,1,1.71-1.28C41,232.86,189.82,202,227,147.82a2.5,2.5,0,0,1,4.37,2.39L125.43,402A9.73,9.73,0,0,1,116.32,408.09ZM43.46,237.43l68.35,162.66a4.76,4.76,0,0,0,4.51,3h0a4.76,4.76,0,0,0,4.5-3l99.73-237.17C175.23,206.84,64.5,233,43.46,237.43Z"/><path class="cls-13" d="M3.89,149.72,40,235.56s72.4-14.79,129.58-42.34C162.7,192.83,30.89,185,3.89,149.72Z"/><path class="cls-3" d="M40,238.06a2.48,2.48,0,0,1-2.3-1.54L1.59,150.69a2.5,2.5,0,0,1,4.29-2.48c26.35,34.46,158.2,42.2,163.8,42.51a2.5,2.5,0,0,1,.94,4.75C113.82,222.84,41.19,237.86,40.46,238A2.07,2.07,0,0,1,40,238.06ZM10.8,159.7l30.67,73c11.37-2.47,68.92-15.54,118.19-37.63-13.53-1-39-3.39-65.81-8C54,180.16,26.18,171,10.8,159.7Z"/><path class="cls-14" d="M50.3,218.92,37.94,188.75A2.11,2.11,0,0,1,40.68,186c21.53,8.88,60.84,13.79,78.31,15.62a2.11,2.11,0,0,1,.5,4.08c-21.86,8-49.91,14.6-61.59,17.2A6.64,6.64,0,0,1,50.3,218.92Z"/><path class="cls-8" d="M44.65,229.68a2.51,2.51,0,0,1-2.32-1.54L19.05,171.86A2.5,2.5,0,0,1,23,169c.2.16,22.1,17.44,117.17,26.17a2.5,2.5,0,0,1-.46,5c-70.24-6.45-101.1-17.43-113.18-23.33L47,226.23a2.5,2.5,0,0,1-2.3,3.45Z"/><path class="cls-8" d="M116.49,398.49h0c-2.25,0-4.32-1.7-5.53-4.53L47.59,241.14a2.5,2.5,0,0,1,.08-2.09,2.53,2.53,0,0,1,1.64-1.3L59,235.4h0c99.13-22.34,143.38-54.94,148.1-58.58a2.5,2.5,0,0,1,3.84,2.93L122,393.84C120.34,397.69,118.09,398.49,116.49,398.49ZM53.33,241.93,115.55,392a3.9,3.9,0,0,0,.92,1.39,4.41,4.41,0,0,0,1-1.54l85.65-206.11c-16.66,10.89-61.65,36.2-142.9,54.51Z"/><path class="cls-14" d="M163.88,210.2c-35.33,16.9-61,24.07-79.81,28.34a6.49,6.49,0,0,0-4.83,8l34.57,133.75a2.49,2.49,0,0,0,4.81.09l49.21-166.8a2.84,2.84,0,0,0-3.94-3.36Z"/><path class="cls-15" d="M.17,78.77A9,9,0,0,1,1.9,76a20.94,20.94,0,0,1,3.25-3.36,77,77,0,0,1,11.57-7.29c7.3-3.87,9.67-4.64,12.36-5a9.62,9.62,0,0,1,4.09,0c3.88,1.1,5.3,5.28,8.49,12.07a132.33,132.33,0,0,0,7,13.4c5.1,8.25,9.18,11.4,7.85,14.35a4.38,4.38,0,0,1-4,2.48C47,102.2,47,87.27,39.73,85.66c-.27-.06-2.39-.5-3.19.51-1.07,1.36,1.08,4.18,3.73,10.38,3.09,7.24,2.44,8.74,2,9.37a4.67,4.67,0,0,1-5.08,1.53c-2.71-1-2.14-4.54-5.2-10-.89-1.6-4.65-8.38-9.31-8.25a5,5,0,0,0-3.63,1.71c-.86,1.2-.71,2.64-.38,4.68,1.25,7.75,2.71,10.45,1.28,13.59-.46,1-.72,1.57-1.29,1.75C15.11,112,10.35,95.47,2.53,85.47,1.77,84.49-.66,81.48.17,78.77Z"/><path class="cls-16" d="M2.3,78.87A9.17,9.17,0,0,1,4,76.12a21.87,21.87,0,0,1,3.25-3.36,76.48,76.48,0,0,1,11.57-7.28c7.31-3.88,9.67-4.65,12.37-5a9.62,9.62,0,0,1,4.09,0c3.88,1.1,5.29,5.28,8.49,12.07a132.33,132.33,0,0,0,7,13.4c5.1,8.25,9.18,11.4,7.85,14.35a4.38,4.38,0,0,1-4,2.48c-5.52-.48-5.56-15.41-12.8-17-.27-.06-2.38-.5-3.19.51-1.07,1.36,1.08,4.18,3.73,10.38,3.09,7.24,2.44,8.74,2,9.38a4.66,4.66,0,0,1-5.07,1.52c-2.71-1-2.15-4.53-5.2-10-.89-1.6-4.65-8.38-9.32-8.25A5,5,0,0,0,21.18,91c-.85,1.2-.7,2.65-.37,4.68,1.25,7.75,2.71,10.45,1.27,13.59-.46,1-.71,1.57-1.29,1.75-3.56,1.11-8.31-15.43-16.13-25.43C3.9,84.59,1.46,81.58,2.3,78.87Z"/><path class="cls-17" d="M31.93,62.76a6,6,0,0,1,5.09.89c1,.82,1.8,2.18,1.47,2.59s-1.55-.53-4.06-1.12c-3-.72-5-.23-5.09-.76S30.69,63.09,31.93,62.76Z"/><path class="cls-17" d="M21.1,108.68a2.67,2.67,0,0,0,.53-2.25c-.16-.56-.58-1.13-.81-1.06s-.06.73-.25,1.87c-.25,1.38-.79,2.09-.59,2.23S20.74,109.14,21.1,108.68Z"/><path class="cls-17" d="M43.52,102.87a3.66,3.66,0,0,1-.9,3.07c-.58.56-1.47,1-1.7.73s.43-.92,1-2.43c.66-1.81.49-3,.83-3.08S43.41,102.08,43.52,102.87Z"/><path class="cls-17" d="M57.77,98a3.67,3.67,0,0,1-.9,3.07c-.58.55-1.47,1-1.7.72s.43-.92,1-2.42c.65-1.82.49-3,.82-3.08S57.66,97.23,57.77,98Z"/><path class="cls-15" d="M40.47,28.83c.79-1.45,2.19-2.33,4.64-3.87a33.2,33.2,0,0,1,7.72-3.39,90,90,0,0,1,8.75-2.23l3.32-.57a53.23,53.23,0,0,1,11.29-1.15,6.29,6.29,0,0,1,4,1.21,5.36,5.36,0,0,1,1.2,1.43c1.11,1.91,3.71,8.92,6.84,18.55.75,2.32,2,6.14,3.55,10.85,4.91,14.68,7,19.45,4.7,21.7a6.17,6.17,0,0,1-6.81.68c-6.29-3.48-.12-17.9-8.18-25.12-1.54-1.38-4.22-3.05-5.47-2.23-2.42,1.58,1,12.13,4.83,24.06,2.4,7.45,4.06,11.57,2,13.85a6.13,6.13,0,0,1-6.87,1C71.53,81.27,73.08,73,69.54,54.68c-.47-2.47-1.34-6.65-4.71-9-1.89-1.3-5.09-2.36-6.95-1-1.31,1-1.45,2.76-1.57,4.43-.43,6.33,3.09,9.15,1.65,12.08a5.32,5.32,0,0,1-5.11,2.82c-4.06-.7-2.69-8.62-8.7-21.95C41.44,36.11,38.67,32.18,40.47,28.83Z"/><path class="cls-16" d="M39.45,30.2c.79-1.45,2.19-2.33,4.63-3.87a33.37,33.37,0,0,1,7.73-3.39,87,87,0,0,1,8.74-2.23l3.32-.58A53.9,53.9,0,0,1,75.17,19a6.31,6.31,0,0,1,4,1.21,5.19,5.19,0,0,1,1.2,1.43c1.11,1.91,3.7,8.92,6.84,18.55.74,2.32,2,6.14,3.55,10.85,4.91,14.68,7,19.45,4.69,21.7a6.16,6.16,0,0,1-6.81.68c-6.29-3.49-.12-17.9-8.17-25.12-1.55-1.38-4.23-3-5.47-2.23-2.42,1.58,1,12.13,4.83,24.06,2.4,7.45,4.06,11.57,2,13.84a6.11,6.11,0,0,1-6.87,1c-4.42-2.36-2.87-10.59-6.41-28.95-.48-2.47-1.34-6.65-4.71-8.95-1.89-1.3-5.1-2.36-7-1-1.3,1-1.45,2.76-1.56,4.43-.43,6.33,3.09,9.15,1.65,12.08a5.33,5.33,0,0,1-5.11,2.82c-4.06-.7-2.7-8.62-8.7-22C40.42,37.48,37.64,33.55,39.45,30.2Z"/><path class="cls-17" d="M45.46,29a5.93,5.93,0,0,0-2.62,4.45c0,1.3.49,2.79,1,2.8s.6-1.52,1.78-3.82c1.41-2.77,3-3.93,2.72-4.37S46.51,28.23,45.46,29Z"/><path class="cls-17" d="M81,79.51a3.7,3.7,0,0,1-.9,3.07c-.58.56-1.47,1-1.7.72s.43-.91,1-2.42c.66-1.82.49-3,.83-3.08S80.87,78.72,81,79.51Z"/><path class="cls-17" d="M94.79,68.58a3.7,3.7,0,0,1-.9,3.07c-.58.56-1.47,1-1.7.73s.43-.92,1-2.42c.66-1.82.49-3,.83-3.08S94.68,67.79,94.79,68.58Z"/><path class="cls-17" d="M55.61,59.62a3.68,3.68,0,0,1-.91,3.07c-.57.56-1.46,1-1.69.73s.43-.92,1-2.42c.66-1.82.49-3,.82-3.09S55.49,58.83,55.61,59.62Z"/><path class="cls-15" d="M115.05,2.2c2-1.29,5.94-1.88,6.66-2,.13,0,.73-.11,1.42-.17,5.15-.48,20.49,2.78,15.42,1.74h0c-5.78-.58,12.58,1.16,16.6,5.36a9,9,0,0,1,1,1.21c3.09,4.51.52,10.53-1.78,18.07,0,0-1.9,6.26-3.67,15.3-2.66,13.56-1.37,20.36-4.93,21.64a6.16,6.16,0,0,1-6.46-2.26c-4.22-5.82,7.47-16.27,3.22-26.22-.81-1.91-2.53-4.55-4-4.34-2.86.41-4.24,11.41-5.8,23.85-1,7.77-1.22,12.2-4,13.39a6.11,6.11,0,0,1-6.67-2c-3-4,1.89-10.8,6.45-28.94.61-2.44,1.6-6.59-.48-10.1-1.17-2-3.62-4.29-5.89-3.83-1.59.32-2.48,1.88-3.29,3.34-3.07,5.56-1.07,9.6-3.62,11.65a5.48,5.48,0,0,1-5.82.39c-3.3-2-1-7.67,2.35-29.18C112,7.19,112.55,3.81,115.05,2.2Z"/><path class="cls-16" d="M112.9,3c2-1.29,5.93-1.88,6.66-2,.13,0,.73-.11,1.42-.17,5.15-.48,20.49,2.78,15.42,1.73h0C130.62,2,149,3.74,153,7.94a8.43,8.43,0,0,1,1,1.21c3.09,4.51.51,10.53-1.78,18.06,0,0-1.9,6.27-3.67,15.3-2.66,13.57-1.37,20.36-4.93,21.65a6.16,6.16,0,0,1-6.46-2.26c-4.23-5.82,7.46-16.27,3.22-26.22-.81-1.91-2.53-4.55-4-4.34-2.86.41-4.24,11.4-5.81,23.84-1,7.77-1.21,12.21-4,13.4a6.13,6.13,0,0,1-6.66-2c-3-4,1.89-10.81,6.45-28.94.61-2.44,1.59-6.59-.48-10.11-1.17-2-3.62-4.29-5.89-3.82-1.59.32-2.48,1.88-3.29,3.34-3.07,5.56-1.08,9.6-3.62,11.65a5.5,5.5,0,0,1-5.82.39c-3.3-2-1-7.67,2.35-29.18C109.88,8,110.4,4.6,112.9,3Z"/><path class="cls-17" d="M117.92,4.38A6,6,0,0,0,114,7.71c-.45,1.22-.45,2.8,0,3s1.07-1.23,2.94-3c2.26-2.15,4.18-2.71,4-3.23S119.17,4,117.92,4.38Z"/><path class="cls-17" d="M137.84,58.26a3.7,3.7,0,0,0,.9,3.07c.58.56,1.47,1,1.7.72s-.43-.91-1-2.42c-.66-1.82-.49-3-.83-3.08S138,57.47,137.84,58.26Z"/><path class="cls-17" d="M121,63.15a3.7,3.7,0,0,0,.9,3.07c.58.56,1.47,1,1.7.72s-.43-.91-1-2.42c-.66-1.82-.49-3-.83-3.08S121.14,62.36,121,63.15Z"/><path class="cls-17" d="M107.12,34.65a3.66,3.66,0,0,0,.9,3.07c.58.56,1.47,1,1.7.72s-.43-.91-1-2.42c-.65-1.82-.49-3.05-.82-3.08S107.23,33.86,107.12,34.65Z"/><path class="cls-15" d="M179.66,23.49a19.39,19.39,0,0,1,3.69-.1,27.77,27.77,0,0,1,6.74,1.41,80.93,80.93,0,0,1,8.15,2.9c1.78.75,4,1.77,6.63,3.13a18.7,18.7,0,0,1,3.32,2.05c.54.41,3.11,2.4,4,4.33,1.47,3.11-1,6.78-3.43,11.43a134.93,134.93,0,0,0-6.13,15.06c-4.66,13.09-3.4,20.5-7.15,21.45a4.7,4.7,0,0,1-4.85-2.3c-1.35-2.67,2.18-5.37,4.12-12.65.41-1.54,2.12-8,.22-9.05-1.61-.94-5.73,2-8.17,5.62-4.15,6.15-1.83,11.9-4.86,13.36-2.54,1.22-7.52-1.17-8.42-4.43-.95-3.46,3.31-5.83,8.94-16.85,1.59-3.1,2.59-5.55,1.85-8.19-.67-2.36-2.76-4.93-5-4.9-1.46,0-2.64,1.1-3.88,2.64-5.81,7.21-4.92,14.54-8,15.3-1.64.4-3.82-1.19-4.73-3-2.05-4,2.64-7.76,7.28-18.23C174.5,32.27,175.11,24.38,179.66,23.49Z"/><path class="cls-16" d="M181.66,26.11a18.58,18.58,0,0,1,3.69-.1,27.08,27.08,0,0,1,6.74,1.4,82.75,82.75,0,0,1,8.15,2.91c1.78.75,4,1.77,6.63,3.13a18,18,0,0,1,3.32,2c.54.42,3.11,2.41,4,4.34,1.47,3.11-1,6.78-3.43,11.43a134.93,134.93,0,0,0-6.13,15.06c-4.66,13.09-3.4,20.5-7.15,21.45a4.7,4.7,0,0,1-4.85-2.3c-1.35-2.67,2.18-5.38,4.12-12.65.41-1.55,2.12-7.95.22-9-1.61-.94-5.73,2-8.17,5.61C184.67,75.54,187,81.29,184,82.75c-2.54,1.22-7.52-1.17-8.42-4.43-.95-3.47,3.31-5.83,8.94-16.85,1.59-3.11,2.59-5.55,1.85-8.19-.67-2.36-2.76-4.93-5-4.9-1.46,0-2.64,1.09-3.88,2.64-5.81,7.21-4.92,14.54-8,15.3-1.64.4-3.82-1.19-4.73-3-2.05-4,2.64-7.76,7.28-18.23C176.5,34.89,177.11,27,181.66,26.11Z"/><path class="cls-17" d="M209.55,39.21a6,6,0,0,1,2.19,4.68c-.1,1.29-.75,2.73-1.27,2.69s-.46-1.57-1.42-4c-1.15-2.9-2.66-4.2-2.29-4.6S208.57,38.38,209.55,39.21Z"/><path class="cls-17" d="M168.72,64.44a3.66,3.66,0,0,0,2.36-2.16c.25-.77.21-1.75-.1-1.85s-.63.79-1.74,2c-1.34,1.39-2.52,1.78-2.4,2.1S168,64.69,168.72,64.44Z"/><path class="cls-17" d="M182.22,81.55a3.64,3.64,0,0,0,2.35-2.17c.25-.76.21-1.74-.1-1.84s-.63.79-1.74,1.95c-1.34,1.39-2.52,1.78-2.4,2.1S181.46,81.8,182.22,81.55Z"/><path class="cls-17" d="M196.88,86.15A3.68,3.68,0,0,0,199.24,84c.24-.77.2-1.74-.11-1.85s-.63.79-1.74,2c-1.34,1.39-2.51,1.78-2.4,2.1S196.12,86.4,196.88,86.15Z"/><path class="cls-15" d="M200.35,81.34c1.66-.37,3.48.17,7.08,1.25a43,43,0,0,1,6.7,2.75c3.51,1.66,6.1,3.18,7.08,3.77a55.48,55.48,0,0,1,8,5.55c1.34,1.13,2.4,2.15,3.12,2.87a8.74,8.74,0,0,1,1.84,2.22,9.5,9.5,0,0,1,.93,2.32c.73,3.05-5.11,8.88-7.49,11.48-3.47,3.81-5.31,7-8.21,12.09-6.57,11.52-6.28,19.5-10.18,19.86a4.66,4.66,0,0,1-4.39-3c-.91-2.81,2.94-4.91,5.92-11.72.63-1.45,3.25-7.44,1.56-8.81-1.43-1.16-5.89,1.08-8.81,4.24-5,5.38-3.56,11.35-6.74,12.31-2.65.8-7.16-2.3-7.54-5.61-.41-3.53,4.09-5.19,11.23-15.1,2-2.79,3.36-5,3-7.71-.3-2.41-1.95-5.24-4.17-5.56-1.43-.21-2.74.67-4.18,2-6.74,6.16-7,13.46-10.1,13.73-1.65.14-3.54-1.75-4.17-3.62-1.47-4.41,4.59-7.39,9.83-16.69C196.38,90,195.6,82.39,200.35,81.34Z"/><path class="cls-16" d="M202.62,83.34c1.66-.37,3.48.17,7.09,1.25a43.44,43.44,0,0,1,6.7,2.75c3.51,1.66,6.1,3.18,7.08,3.77a54.91,54.91,0,0,1,8,5.55c1.35,1.13,2.41,2.15,3.13,2.87a9,9,0,0,1,1.84,2.22,10,10,0,0,1,.93,2.32c.73,3.05-5.11,8.88-7.49,11.48-3.48,3.81-5.31,7-8.21,12.09-6.58,11.52-6.28,19.5-10.18,19.86a4.66,4.66,0,0,1-4.39-3c-.92-2.81,2.93-4.91,5.91-11.72.64-1.45,3.26-7.44,1.57-8.81-1.43-1.16-5.89,1.08-8.81,4.24-5,5.38-3.56,11.35-6.74,12.31-2.65.8-7.16-2.3-7.55-5.61-.41-3.53,4.1-5.19,11.24-15.1,2-2.79,3.36-5,3-7.71-.3-2.41-1.95-5.24-4.18-5.56-1.42-.21-2.73.67-4.17,2-6.74,6.16-7,13.46-10.1,13.73-1.66.14-3.54-1.75-4.17-3.62-1.48-4.41,4.58-7.39,9.83-16.69C198.66,92,197.88,84.39,202.62,83.34Z"/><path class="cls-17" d="M232.14,101.15a6,6,0,0,1,1.65,4.89c-.25,1.27-1.06,2.63-1.58,2.53s-.28-1.61-1-4.1c-.82-3-2.17-4.48-1.76-4.84S231.26,100.21,232.14,101.15Z"/><path class="cls-17" d="M186.61,121.13a2.61,2.61,0,0,0,2.07-.88c.34-.45.54-1.1.36-1.24s-.6.37-1.6.87c-1.22.61-2.09.59-2.08.83S186.05,121.11,186.61,121.13Z"/><path class="cls-17" d="M197.28,139.48a3,3,0,0,0,2.39-1c.39-.52.63-1.28.42-1.44s-.7.43-1.86,1c-1.4.7-2.41.69-2.41,1S196.63,139.46,197.28,139.48Z"/><path class="cls-17" d="M210.68,146.22a3,3,0,0,0,2.39-1c.4-.52.63-1.28.43-1.44s-.7.43-1.87,1c-1.4.7-2.41.68-2.4,1S210,146.2,210.68,146.22Z"/><path class="cls-11" d="M64.42,154a3.37,3.37,0,0,1,1.51-.6,4.16,4.16,0,0,1,2,.18,5,5,0,0,1,1.58,1,15.51,15.51,0,0,1,2.11,2.16c1.29,1.46,1.5,1.79,1.42,2.18,0,.12-.14.43-.93.88a6.45,6.45,0,0,1-3,.78,22.38,22.38,0,0,1-4.62-.93,1.84,1.84,0,0,1-1.07-.56,2.55,2.55,0,0,1-.28-2A4.12,4.12,0,0,1,64.42,154Z"/><path class="cls-18" d="M63.89,153.66a3.19,3.19,0,0,1,1.5-.6,4,4,0,0,1,2,.18,4.89,4.89,0,0,1,1.57.95,15.71,15.71,0,0,1,2.12,2.17c1.28,1.45,1.5,1.79,1.41,2.17,0,.12-.13.44-.92.89a6.52,6.52,0,0,1-3,.77,21.84,21.84,0,0,1-4.62-.92,1.83,1.83,0,0,1-1.08-.56,2.57,2.57,0,0,1-.28-2A4.11,4.11,0,0,1,63.89,153.66Z"/><path class="cls-19" d="M63.52,155.07a1.9,1.9,0,0,1,1-1.31,2,2,0,0,1,1.72-.06c0,.05-.38,0-1,.27a4.72,4.72,0,0,0-.78.38C63.83,154.74,63.57,155.11,63.52,155.07Z"/><path class="cls-19" d="M65.27,155.35c-.23.15-.25.3-.42.52-.38.51-.77.33-1.1.77a1,1,0,0,0-.14,1,1,1,0,0,0,1.16.24c.47-.25.28-.8.79-1.1s.75-.07.93-.37a.68.68,0,0,0,.08-.46.74.74,0,0,0-.7-.75A1.06,1.06,0,0,0,65.27,155.35Z"/><path class="cls-19" d="M71.63,157.75a.67.67,0,0,1,.25.5.7.7,0,0,1-.22.54s0-.12.06-.35a1.55,1.55,0,0,0,0-.29C71.69,157.89,71.61,157.76,71.63,157.75Z"/><path class="cls-11" d="M81.19,171.47a2.18,2.18,0,0,1-.23-1,2.72,2.72,0,0,1,.32-1.27,3.46,3.46,0,0,1,.77-.92,10.8,10.8,0,0,1,1.61-1.14c1.06-.68,1.3-.78,1.54-.69.07,0,.27.13.48.69a4.27,4.27,0,0,1,.19,2A15.35,15.35,0,0,1,84.81,172a1.27,1.27,0,0,1-.47.63,1.65,1.65,0,0,1-1.34,0A2.7,2.7,0,0,1,81.19,171.47Z"/><path class="cls-18" d="M80.91,171.78a2.1,2.1,0,0,1-.24-1,2.72,2.72,0,0,1,.32-1.27,3.31,3.31,0,0,1,.77-.92,10.8,10.8,0,0,1,1.61-1.14c1.07-.68,1.3-.78,1.54-.69.08,0,.27.13.48.69a4.27,4.27,0,0,1,.19,2,14.38,14.38,0,0,1-1.06,2.87,1.23,1.23,0,0,1-.47.64,1.67,1.67,0,0,1-1.33,0A2.65,2.65,0,0,1,80.91,171.78Z"/><path class="cls-19" d="M81.78,172.15a1.2,1.2,0,0,1-.74-.8,1.25,1.25,0,0,1,.14-1.11s0,.25.07.69a3.34,3.34,0,0,0,.16.53A7,7,0,0,0,81.78,172.15Z"/><path class="cls-19" d="M82.14,171.06c.07.16.16.19.29.32.28.3.13.53.38.78a.65.65,0,0,0,.64.2.61.61,0,0,0,.27-.72c-.11-.33-.48-.26-.63-.62s0-.49-.13-.64a.59.59,0,0,0-.3-.1.58.58,0,0,0-.36.09.56.56,0,0,0-.19.29A.64.64,0,0,0,82.14,171.06Z"/><path class="cls-19" d="M84.32,167.21a.44.44,0,0,1,.35-.11.43.43,0,0,1,.32.2s-.07,0-.22-.07a.68.68,0,0,0-.19,0C84.42,167.19,84.33,167.23,84.32,167.21Z"/><path class="cls-11" d="M105.42,112.72a3.21,3.21,0,0,1,.36,1.58,4,4,0,0,1-.48,2,5.07,5.07,0,0,1-1.2,1.41,14.76,14.76,0,0,1-2.46,1.75c-1.64,1-2,1.21-2.37,1.06-.12,0-.41-.2-.73-1a6.4,6.4,0,0,1-.29-3.12,22.34,22.34,0,0,1,1.62-4.42,1.9,1.9,0,0,1,.72-1,2.57,2.57,0,0,1,2,0A4.1,4.1,0,0,1,105.42,112.72Z"/><path class="cls-18" d="M105.87,112.24a3.5,3.5,0,0,1,.36,1.58,4.22,4.22,0,0,1-.49,2,5.2,5.2,0,0,1-1.19,1.41,17.34,17.34,0,0,1-2.47,1.75c-1.64,1-2,1.2-2.37,1-.11,0-.41-.19-.73-1a6.36,6.36,0,0,1-.29-3.12,22.42,22.42,0,0,1,1.63-4.42,1.87,1.87,0,0,1,.72-1,2.51,2.51,0,0,1,2,0A4.09,4.09,0,0,1,105.87,112.24Z"/><path class="cls-19" d="M104.53,111.66a2,2,0,0,1,.92,2.94s0-.38-.11-1a4,4,0,0,0-.25-.82C104.81,112,104.48,111.7,104.53,111.66Z"/><path class="cls-19" d="M104,113.35c-.1-.25-.25-.29-.44-.49-.44-.46-.21-.82-.59-1.21a.81.81,0,0,0-1.4.81c.17.5.75.4,1,1s0,.75.22,1a.82.82,0,0,0,.45.15.76.76,0,0,0,.56-.14A.72.72,0,0,0,104,114,.94.94,0,0,0,104,113.35Z"/><path class="cls-19" d="M100.62,119.26a.69.69,0,0,1-.54.17.66.66,0,0,1-.49-.31s.11.06.34.12l.28,0C100.47,119.29,100.61,119.24,100.62,119.26Z"/><path class="cls-11" d="M142.83,159.18a2.34,2.34,0,0,0-1,.45,2.87,2.87,0,0,0-.86,1.07,3.37,3.37,0,0,0-.28,1.23,10.93,10.93,0,0,0,.06,2c.11,1.32.17,1.59.4,1.72.07.05.28.15.87,0a4.4,4.4,0,0,0,1.82-1.12,15.76,15.76,0,0,0,1.73-2.7,1.25,1.25,0,0,0,.23-.79c-.05-.48-.44-.79-.86-1.1A2.81,2.81,0,0,0,142.83,159.18Z"/><path class="cls-18" d="M142.91,158.74a2.26,2.26,0,0,0-1,.46,2.8,2.8,0,0,0-.86,1.06,3.46,3.46,0,0,0-.27,1.23,10.1,10.1,0,0,0,.06,2.06c.1,1.32.17,1.58.4,1.72.07,0,.27.14.87,0a4.44,4.44,0,0,0,1.81-1.13,15.32,15.32,0,0,0,1.74-2.7,1.3,1.3,0,0,0,.23-.79c0-.47-.45-.78-.86-1.09A2.81,2.81,0,0,0,142.91,158.74Z"/><path class="cls-19" d="M143.77,159.23a1.37,1.37,0,0,0-2,.71,6.29,6.29,0,0,1,.62-.37,2.9,2.9,0,0,1,.55-.21C143.47,159.22,143.77,159.27,143.77,159.23Z"/><path class="cls-19" d="M143.09,160.22c.17,0,.26,0,.45.05.43,0,.53-.23.89-.18a.55.55,0,0,1,.14,1.09c-.35.12-.52-.24-.91-.13s-.39.33-.62.28a.51.51,0,0,1-.27-.18.6.6,0,0,1-.16-.36.51.51,0,0,1,.13-.33A.68.68,0,0,1,143.09,160.22Z"/><path class="cls-19" d="M141.26,164.47a.43.43,0,0,0,.12.37.53.53,0,0,0,.37.14s-.08,0-.2-.14a.88.88,0,0,1-.14-.14A1.58,1.58,0,0,1,141.26,164.47Z"/><path class="cls-11" d="M106.2,134.56a2.1,2.1,0,0,1,1,.43,2.76,2.76,0,0,1,.82,1,3.09,3.09,0,0,1,.26,1.17,9.62,9.62,0,0,1,0,2c-.1,1.26-.16,1.51-.38,1.64-.07,0-.27.14-.83,0a4.22,4.22,0,0,1-1.74-1.07,14.58,14.58,0,0,1-1.66-2.58,1.27,1.27,0,0,1-.22-.76c0-.45.43-.75.82-1A2.64,2.64,0,0,1,106.2,134.56Z"/><path class="cls-18" d="M106.13,134.14a2.21,2.21,0,0,1,1,.43,2.65,2.65,0,0,1,.83,1,3.34,3.34,0,0,1,.26,1.17,10.1,10.1,0,0,1-.06,2c-.1,1.26-.16,1.51-.37,1.64s-.27.14-.84,0a4.2,4.2,0,0,1-1.73-1.07,14,14,0,0,1-1.66-2.58,1.12,1.12,0,0,1-.22-.75c0-.46.42-.75.82-1.05A2.68,2.68,0,0,1,106.13,134.14Z"/><path class="cls-19" d="M105.31,134.61a1.23,1.23,0,0,1,1.08-.11,1.3,1.3,0,0,1,.81.78s-.19-.16-.6-.35a2.83,2.83,0,0,0-.52-.2C105.6,134.6,105.31,134.65,105.31,134.61Z"/><path class="cls-19" d="M106,135.56c-.17-.05-.25,0-.43,0-.41,0-.5-.22-.85-.17a.65.65,0,0,0-.55.39.62.62,0,0,0,.42.65c.33.11.5-.23.87-.12s.37.31.59.27a.63.63,0,0,0,.41-.52.54.54,0,0,0-.12-.32A.63.63,0,0,0,106,135.56Z"/><path class="cls-19" d="M107.72,139.62a.46.46,0,0,1-.12.34.49.49,0,0,1-.35.14s.07,0,.19-.13.08-.07.13-.14S107.7,139.61,107.72,139.62Z"/><path class="cls-11" d="M130.7,133.24a3.3,3.3,0,0,1,1.5-.6,4.07,4.07,0,0,1,2,.18,5,5,0,0,1,1.58,1,16.69,16.69,0,0,1,2.11,2.17c1.29,1.46,1.5,1.79,1.41,2.17,0,.12-.13.44-.92.89a6.52,6.52,0,0,1-3,.77,22.07,22.07,0,0,1-4.62-.92,1.84,1.84,0,0,1-1.07-.56,2.49,2.49,0,0,1-.28-2A4.08,4.08,0,0,1,130.7,133.24Z"/><path class="cls-18" d="M130.16,132.87a3.5,3.5,0,0,1,1.51-.6,4.16,4.16,0,0,1,2,.18,5.16,5.16,0,0,1,1.58,1,16,16,0,0,1,2.11,2.17c1.29,1.45,1.5,1.79,1.41,2.17,0,.12-.13.44-.92.89a6.48,6.48,0,0,1-3,.77,22.8,22.8,0,0,1-4.62-.92,1.9,1.9,0,0,1-1.07-.56,2.58,2.58,0,0,1-.28-2A4.14,4.14,0,0,1,130.16,132.87Z"/><path class="cls-19" d="M129.8,134.29a1.88,1.88,0,0,1,1-1.32,2,2,0,0,1,1.72-.05c0,.05-.38,0-1,.27a6,6,0,0,0-.77.37A9.29,9.29,0,0,0,129.8,134.29Z"/><path class="cls-19" d="M131.55,134.57c-.23.14-.25.3-.42.52-.38.5-.78.33-1.1.77a1,1,0,0,0-.15,1,1,1,0,0,0,1.17.24c.47-.24.27-.79.79-1.09s.74-.07.93-.37a.76.76,0,0,0,.08-.46.83.83,0,0,0-.22-.54.81.81,0,0,0-.48-.21A.91.91,0,0,0,131.55,134.57Z"/><path class="cls-19" d="M137.91,137a.67.67,0,0,1,.25.5.63.63,0,0,1-.23.53,1.68,1.68,0,0,0,.06-.35,1.35,1.35,0,0,0,0-.29C138,137.11,137.89,137,137.91,137Z"/><path class="cls-11" d="M112.2,168.83a1.76,1.76,0,0,1,.78-.31,2.26,2.26,0,0,1,1.06.09,2.78,2.78,0,0,1,.82.51,8.31,8.31,0,0,1,1.11,1.13c.67.76.78.94.73,1.14s-.06.23-.48.46a3.4,3.4,0,0,1-1.59.4,11.66,11.66,0,0,1-2.42-.48,1,1,0,0,1-.56-.29,1.36,1.36,0,0,1-.14-1.06A2.17,2.17,0,0,1,112.2,168.83Z"/><path class="cls-18" d="M111.92,168.64a1.76,1.76,0,0,1,.78-.31,2.21,2.21,0,0,1,1,.09,2.7,2.7,0,0,1,.83.51,8.31,8.31,0,0,1,1.11,1.13c.67.76.78.94.73,1.14s-.07.23-.48.46a3.4,3.4,0,0,1-1.59.4,11.66,11.66,0,0,1-2.42-.48,1,1,0,0,1-.56-.29,1.36,1.36,0,0,1-.14-1.06A2.17,2.17,0,0,1,111.92,168.64Z"/><path class="cls-19" d="M111.73,169.38a1,1,0,0,1,.54-.68,1,1,0,0,1,.9,0s-.2,0-.53.14a1.83,1.83,0,0,0-.41.2C111.89,169.21,111.75,169.4,111.73,169.38Z"/><path class="cls-19" d="M112.64,169.53c-.12.08-.13.16-.22.27-.2.27-.4.18-.57.41a.51.51,0,0,0-.08.53.5.5,0,0,0,.61.12c.25-.13.15-.41.41-.57s.39,0,.49-.19a.34.34,0,0,0,0-.25.4.4,0,0,0-.11-.28.46.46,0,0,0-.25-.11A.61.61,0,0,0,112.64,169.53Z"/><path class="cls-19" d="M116,170.79a.35.35,0,0,1,0,.54.85.85,0,0,0,0-.18.42.42,0,0,0,0-.16A1.81,1.81,0,0,0,116,170.79Z"/><path class="cls-11" d="M122.38,149.22a2.76,2.76,0,0,0-1.2.53,3.49,3.49,0,0,0-1,1.27,4.17,4.17,0,0,0-.33,1.46,12.71,12.71,0,0,0,.07,2.45c.13,1.57.21,1.88.48,2,.09.06.33.17,1,0a5,5,0,0,0,2.16-1.33,18,18,0,0,0,2.06-3.21,1.48,1.48,0,0,0,.28-.94c-.06-.57-.53-.93-1-1.31A3.33,3.33,0,0,0,122.38,149.22Z"/><path class="cls-18" d="M122.47,148.7a2.64,2.64,0,0,0-1.2.54,3.4,3.4,0,0,0-1,1.27,4.17,4.17,0,0,0-.33,1.45,12.71,12.71,0,0,0,.07,2.45c.13,1.57.21,1.88.48,2.05.09,0,.33.17,1,0a5.18,5.18,0,0,0,2.16-1.34,18,18,0,0,0,2.06-3.21,1.48,1.48,0,0,0,.28-.94c-.06-.56-.53-.93-1-1.3A3.3,3.3,0,0,0,122.47,148.7Z"/><path class="cls-19" d="M123.5,149.28a1.64,1.64,0,0,0-2.35.84s.23-.2.73-.44a4.49,4.49,0,0,1,.66-.25C123.13,149.27,123.49,149.33,123.5,149.28Z"/><path class="cls-19" d="M122.68,150.46c.21-.05.31,0,.54,0,.5.06.63-.27,1.06-.21a.66.66,0,0,1,.16,1.3c-.41.13-.62-.29-1.08-.16s-.46.4-.74.34a.76.76,0,0,1-.5-.65.58.58,0,0,1,.14-.39A.76.76,0,0,1,122.68,150.46Z"/><path class="cls-19" d="M120.5,155.51a.55.55,0,0,0,.15.43.53.53,0,0,0,.44.17s-.09,0-.24-.16a1.42,1.42,0,0,1-.16-.17C120.55,155.62,120.52,155.51,120.5,155.51Z"/><path class="cls-11" d="M171.24,149.45a2.64,2.64,0,0,0-1.2.54,3.3,3.3,0,0,0-1,1.27,4,4,0,0,0-.33,1.46,12.71,12.71,0,0,0,.07,2.45c.13,1.57.2,1.89.48,2.05.08.05.33.17,1,0a5.18,5.18,0,0,0,2.16-1.34,18.47,18.47,0,0,0,2.07-3.21,1.56,1.56,0,0,0,.27-.94c-.06-.57-.53-.94-1-1.31A3.33,3.33,0,0,0,171.24,149.45Z"/><path class="cls-18" d="M171.33,148.93a2.87,2.87,0,0,0-1.2.54,3.4,3.4,0,0,0-1,1.27,4,4,0,0,0-.33,1.46,12.71,12.71,0,0,0,.07,2.45c.13,1.57.2,1.89.48,2,.08.05.33.17,1,0a5.18,5.18,0,0,0,2.16-1.34,18.47,18.47,0,0,0,2.07-3.21,1.54,1.54,0,0,0,.27-.94c-.06-.57-.53-.93-1-1.31A3.37,3.37,0,0,0,171.33,148.93Z"/><path class="cls-19" d="M172.36,149.51a1.57,1.57,0,0,0-1.35-.13,1.63,1.63,0,0,0-1,1s.24-.2.74-.44a4.51,4.51,0,0,1,.65-.24C172,149.51,172.35,149.56,172.36,149.51Z"/><path class="cls-19" d="M171.54,150.7c.21-.06.31,0,.54,0,.51.06.63-.26,1.06-.2a.78.78,0,0,1,.68.48.76.76,0,0,1-.52.81c-.41.14-.62-.28-1.08-.15s-.46.39-.74.34a.75.75,0,0,1-.32-.22.66.66,0,0,1-.18-.43.63.63,0,0,1,.14-.4A.83.83,0,0,1,171.54,150.7Z"/><path class="cls-19" d="M169.36,155.76a.5.5,0,0,0,.15.42.53.53,0,0,0,.44.17,1.58,1.58,0,0,1-.24-.16,1.11,1.11,0,0,1-.17-.16C169.41,155.87,169.38,155.75,169.36,155.76Z"/><path class="cls-11" d="M146.53,177.11a2.65,2.65,0,0,0-1.12-.7,3.32,3.32,0,0,0-1.62-.15,4,4,0,0,0-1.4.53,13.2,13.2,0,0,0-2,1.42c-1.24,1-1.46,1.21-1.44,1.52,0,.1,0,.37.6.85a5.25,5.25,0,0,0,2.31,1.06,18.8,18.8,0,0,0,3.82-.06,1.54,1.54,0,0,0,.94-.29,2.08,2.08,0,0,0,.52-1.58A3.34,3.34,0,0,0,146.53,177.11Z"/><path class="cls-18" d="M147,176.9a2.63,2.63,0,0,0-1.11-.7,3.26,3.26,0,0,0-1.63-.15,3.83,3.83,0,0,0-1.4.53,12.7,12.7,0,0,0-2,1.41c-1.24,1-1.46,1.21-1.44,1.53,0,.1,0,.37.6.84a5.35,5.35,0,0,0,2.31,1.07,18.8,18.8,0,0,0,3.82-.06,1.59,1.59,0,0,0,.94-.29,2.08,2.08,0,0,0,.52-1.58A3.34,3.34,0,0,0,147,176.9Z"/><path class="cls-19" d="M147.09,178.07a1.54,1.54,0,0,0-.64-1.19,1.55,1.55,0,0,0-1.36-.3s.3.08.78.37a3.68,3.68,0,0,1,.56.41C146.9,177.76,147.05,178.1,147.09,178.07Z"/><path class="cls-19" d="M145.66,178.05c.16.14.15.27.25.47.23.46.57.38.77.77a.82.82,0,0,1,0,.83.78.78,0,0,1-1,0c-.34-.27-.1-.68-.47-1s-.58-.16-.69-.42a.63.63,0,0,1,0-.39.66.66,0,0,1,.25-.39.7.7,0,0,1,.41-.1A.86.86,0,0,1,145.66,178.05Z"/><path class="cls-19" d="M140.23,179a.52.52,0,0,0-.27.36.57.57,0,0,0,.1.46,2.2,2.2,0,0,1,0-.29s0-.13.05-.23S140.25,179,140.23,179Z"/><path class="cls-11" d="M166.72,168.33a1.19,1.19,0,0,0-.63-.18,1.68,1.68,0,0,0-.8.15,2.14,2.14,0,0,0-.6.46,6.3,6.3,0,0,0-.76,1c-.46.65-.53.79-.48.94s.08.17.41.32a2.55,2.55,0,0,0,1.27.18,8.85,8.85,0,0,0,1.82-.57.71.71,0,0,0,.41-.27,1,1,0,0,0,0-.83A1.66,1.66,0,0,0,166.72,168.33Z"/><path class="cls-18" d="M166.93,168.16a1.32,1.32,0,0,0-.64-.18,1.62,1.62,0,0,0-.8.16,2.05,2.05,0,0,0-.6.45,7.11,7.11,0,0,0-.76,1c-.46.65-.53.79-.47.94s.07.17.41.32a2.48,2.48,0,0,0,1.26.18,8.85,8.85,0,0,0,1.82-.57.71.71,0,0,0,.41-.27,1,1,0,0,0,0-.83A1.68,1.68,0,0,0,166.93,168.16Z"/><path class="cls-19" d="M167.13,168.71s-.14-.36-.47-.49a.82.82,0,0,0-.7.05s.15,0,.42.07a1.73,1.73,0,0,1,.33.12A4.25,4.25,0,0,1,167.13,168.71Z"/><path class="cls-19" d="M166.44,168.9c.1,0,.11.11.19.19s.33.1.48.27a.41.41,0,0,1,.1.4.39.39,0,0,1-.46.15c-.2-.08-.15-.31-.37-.41s-.3,0-.39-.11a.3.3,0,0,1-.05-.19A.32.32,0,0,1,166,169a.3.3,0,0,1,.18-.11A.41.41,0,0,1,166.44,168.9Z"/><path class="cls-19" d="M164,170.14a.26.26,0,0,0-.08.21.28.28,0,0,0,.12.21.37.37,0,0,1,0-.14.35.35,0,0,1,0-.12C164,170.2,164,170.14,164,170.14Z"/><path class="cls-11" d="M171.66,180.06a1.81,1.81,0,0,1,.78-.32,2.28,2.28,0,0,1,1.05.1,2.49,2.49,0,0,1,.83.5,7.94,7.94,0,0,1,1.1,1.13c.68.76.79.94.74,1.14s-.07.23-.48.46a3.37,3.37,0,0,1-1.59.41,11.84,11.84,0,0,1-2.42-.49,1,1,0,0,1-.56-.29,1.35,1.35,0,0,1-.15-1.06A2.14,2.14,0,0,1,171.66,180.06Z"/><path class="cls-18" d="M171.37,179.87a1.84,1.84,0,0,1,.79-.32,2.28,2.28,0,0,1,1.05.1,2.49,2.49,0,0,1,.83.5,7.94,7.94,0,0,1,1.1,1.13c.68.76.79.94.74,1.14s-.07.23-.48.46a3.37,3.37,0,0,1-1.59.41,11.72,11.72,0,0,1-2.42-.49,1,1,0,0,1-.56-.29,1.32,1.32,0,0,1-.15-1.06A2.17,2.17,0,0,1,171.37,179.87Z"/><path class="cls-19" d="M171.18,180.6a1,1,0,0,1,.55-.68,1,1,0,0,1,.9,0s-.2,0-.54.14a2.05,2.05,0,0,0-.4.2C171.34,180.43,171.21,180.63,171.18,180.6Z"/><path class="cls-19" d="M172.1,180.76c-.12.07-.13.15-.22.27s-.41.17-.57.4a.51.51,0,0,0-.08.53.5.5,0,0,0,.61.12c.24-.12.14-.41.41-.57s.39,0,.49-.19a.46.46,0,0,0,0-.24.37.37,0,0,0-.12-.28.33.33,0,0,0-.25-.11A.44.44,0,0,0,172.1,180.76Z"/><path class="cls-19" d="M175.43,182a.36.36,0,0,1,.13.26.37.37,0,0,1-.12.28s0-.06,0-.18a.74.74,0,0,0,0-.15A1.76,1.76,0,0,0,175.43,182Z"/><path class="cls-11" d="M121,118a1.84,1.84,0,0,1,.79-.32,2.28,2.28,0,0,1,1,.1,2.55,2.55,0,0,1,.82.5,7.16,7.16,0,0,1,1.11,1.13c.67.76.78.94.74,1.14s-.07.23-.49.46a3.37,3.37,0,0,1-1.59.41,12.24,12.24,0,0,1-2.41-.48,1,1,0,0,1-.56-.3,1.31,1.31,0,0,1-.15-1.06A2.13,2.13,0,0,1,121,118Z"/><path class="cls-18" d="M120.73,117.8a1.84,1.84,0,0,1,.79-.32,2.28,2.28,0,0,1,1,.1,2.55,2.55,0,0,1,.82.5,7.69,7.69,0,0,1,1.11,1.13c.67.76.78.94.74,1.14s-.07.23-.49.46a3.37,3.37,0,0,1-1.59.41,12.42,12.42,0,0,1-2.42-.48,1.11,1.11,0,0,1-.56-.3,1.35,1.35,0,0,1-.14-1.06A2.13,2.13,0,0,1,120.73,117.8Z"/><path class="cls-19" d="M120.54,118.54a1,1,0,0,1,.54-.69,1,1,0,0,1,.9,0s-.2,0-.53.14a2.86,2.86,0,0,0-.41.2A5.6,5.6,0,0,0,120.54,118.54Z"/><path class="cls-19" d="M121.45,118.69c-.12.07-.13.15-.21.27s-.41.17-.58.4a.51.51,0,0,0-.08.53.5.5,0,0,0,.61.13c.25-.13.15-.42.42-.58s.39,0,.48-.19a.32.32,0,0,0,0-.24.39.39,0,0,0-.11-.28.37.37,0,0,0-.25-.11A.46.46,0,0,0,121.45,118.69Z"/><path class="cls-19" d="M124.78,119.94a.32.32,0,0,1,.13.26.34.34,0,0,1-.11.28s0-.06,0-.18a.92.92,0,0,0,0-.15A1.76,1.76,0,0,0,124.78,119.94Z"/><path class="cls-11" d="M100.15,152.11a1.42,1.42,0,0,0-.63-.18,1.74,1.74,0,0,0-.8.16,2,2,0,0,0-.6.46,5.74,5.74,0,0,0-.76,1c-.46.65-.53.79-.48.94s.07.17.41.32a2.62,2.62,0,0,0,1.26.18,8.68,8.68,0,0,0,1.83-.57.8.8,0,0,0,.41-.27,1,1,0,0,0,0-.83A1.65,1.65,0,0,0,100.15,152.11Z"/><path class="cls-18" d="M100.35,151.94a1.26,1.26,0,0,0-.63-.17,1.55,1.55,0,0,0-.8.15,2.14,2.14,0,0,0-.6.46,5.74,5.74,0,0,0-.76,1c-.46.65-.53.79-.48.94s.07.17.41.32a2.65,2.65,0,0,0,1.26.18,8.68,8.68,0,0,0,1.83-.57.76.76,0,0,0,.41-.27,1,1,0,0,0,0-.83A1.7,1.7,0,0,0,100.35,151.94Z"/><path class="cls-19" d="M100.56,152.5s-.14-.36-.48-.49a.79.79,0,0,0-.69.05s.15,0,.42.07a1.73,1.73,0,0,1,.33.12C100.42,152.38,100.54,152.52,100.56,152.5Z"/><path class="cls-19" d="M99.87,152.69c.09.05.11.11.19.19s.32.1.47.26a.42.42,0,0,1,.11.41.37.37,0,0,1-.46.14c-.2-.08-.15-.31-.37-.41s-.3,0-.39-.1a.32.32,0,0,1,0-.19.3.3,0,0,1,.06-.22.35.35,0,0,1,.19-.11A.41.41,0,0,1,99.87,152.69Z"/><path class="cls-19" d="M97.4,153.93a.24.24,0,0,0-.08.21.28.28,0,0,0,.11.21s0,0,0-.14,0-.07,0-.12S97.41,153.93,97.4,153.93Z"/><path class="cls-11" d="M148,146.44a1.29,1.29,0,0,0-.63-.18,1.65,1.65,0,0,0-.81.16,1.89,1.89,0,0,0-.59.45,6.11,6.11,0,0,0-.76,1c-.46.64-.53.78-.48.93s.07.18.41.32a2.5,2.5,0,0,0,1.26.18,9.25,9.25,0,0,0,1.83-.56.82.82,0,0,0,.41-.28,1,1,0,0,0,0-.83A1.61,1.61,0,0,0,148,146.44Z"/><path class="cls-18" d="M148.15,146.27a1.29,1.29,0,0,0-.63-.18,1.61,1.61,0,0,0-.8.16,1.82,1.82,0,0,0-.6.45,6.11,6.11,0,0,0-.76,1c-.46.64-.53.78-.48.93s.07.18.41.32a2.52,2.52,0,0,0,1.26.18,9.06,9.06,0,0,0,1.83-.56.82.82,0,0,0,.41-.28,1,1,0,0,0,0-.83A1.66,1.66,0,0,0,148.15,146.27Z"/><path class="cls-19" d="M148.36,146.82a.77.77,0,0,0-.48-.48.72.72,0,0,0-.69,0,4.06,4.06,0,0,1,.42.06l.33.12C148.22,146.7,148.34,146.84,148.36,146.82Z"/><path class="cls-19" d="M147.67,147c.09.05.11.11.19.19s.32.1.47.27a.4.4,0,0,1,.11.4.39.39,0,0,1-.46.15c-.21-.08-.15-.31-.37-.41s-.3,0-.39-.11a.29.29,0,0,1-.05-.19.26.26,0,0,1,.06-.22.35.35,0,0,1,.19-.11A.51.51,0,0,1,147.67,147Z"/><path class="cls-19" d="M145.2,148.25a.28.28,0,0,0-.08.22c0,.12.1.21.11.2s0,0,0-.14,0-.06,0-.12S145.21,148.25,145.2,148.25Z"/><path class="cls-11" d="M84.09,126.75a1.29,1.29,0,0,1-.63.18,1.61,1.61,0,0,1-.8-.16,2.1,2.1,0,0,1-.6-.45,6.72,6.72,0,0,1-.76-1c-.46-.64-.53-.78-.48-.93s.07-.18.41-.32a2.61,2.61,0,0,1,1.26-.19,9.37,9.37,0,0,1,1.83.57.73.73,0,0,1,.41.28,1,1,0,0,1,0,.83A1.66,1.66,0,0,1,84.09,126.75Z"/><path class="cls-18" d="M84.29,126.92a1.27,1.27,0,0,1-.63.18,1.62,1.62,0,0,1-.8-.16,2.24,2.24,0,0,1-.6-.45,7.64,7.64,0,0,1-.76-1c-.46-.64-.53-.78-.48-.94s.08-.17.42-.31a2.56,2.56,0,0,1,1.26-.19,9.58,9.58,0,0,1,1.82.57.76.76,0,0,1,.41.27,1.06,1.06,0,0,1,0,.84A1.66,1.66,0,0,1,84.29,126.92Z"/><path class="cls-19" d="M84.5,126.37s-.14.35-.47.48a.78.78,0,0,1-.7,0s.15,0,.42-.07a1.55,1.55,0,0,0,.33-.11C84.36,126.49,84.49,126.35,84.5,126.37Z"/><path class="cls-19" d="M83.81,126.18c.1-.05.11-.11.19-.19s.33-.11.48-.27a.42.42,0,0,0,.1-.4.39.39,0,0,0-.46-.15c-.2.08-.15.31-.37.41s-.3,0-.39.11a.28.28,0,0,0,0,.18.33.33,0,0,0,.06.23.27.27,0,0,0,.19.1A.38.38,0,0,0,83.81,126.18Z"/><path class="cls-19" d="M81.34,124.94a.28.28,0,0,1-.08-.22.25.25,0,0,1,.12-.2.37.37,0,0,0,0,.14.31.31,0,0,0,0,.11A1.33,1.33,0,0,0,81.34,124.94Z"/><path class="cls-11" d="M74.26,136a1.45,1.45,0,0,0-.64-.18,1.78,1.78,0,0,0-.8.16,2.24,2.24,0,0,0-.6.45,7.64,7.64,0,0,0-.76,1c-.45.64-.53.79-.47.94s.07.17.41.32a2.75,2.75,0,0,0,1.26.18,8.66,8.66,0,0,0,1.82-.57.76.76,0,0,0,.41-.27,1,1,0,0,0,0-.83A1.7,1.7,0,0,0,74.26,136Z"/><path class="cls-18" d="M74.46,135.86a1.45,1.45,0,0,0-.63-.18,1.79,1.79,0,0,0-.81.16,1.93,1.93,0,0,0-.59.46,5.74,5.74,0,0,0-.76,1c-.46.64-.53.79-.48.94s.07.17.41.32a2.75,2.75,0,0,0,1.26.18,8.86,8.86,0,0,0,1.83-.57.74.74,0,0,0,.4-.27,1,1,0,0,0,0-.83A1.69,1.69,0,0,0,74.46,135.86Z"/><path class="cls-19" d="M74.67,136.42a.81.81,0,0,0-.48-.49.83.83,0,0,0-.7,0s.16,0,.43.07a2,2,0,0,1,.33.12A3,3,0,0,1,74.67,136.42Z"/><path class="cls-19" d="M74,136.61c.1,0,.11.11.19.19s.33.1.48.26a.38.38,0,0,1,.1.4.39.39,0,0,1-.46.15c-.2-.08-.14-.31-.36-.41s-.31,0-.4-.11a.35.35,0,0,1,0-.18.36.36,0,0,1,.07-.23.37.37,0,0,1,.18-.1A.34.34,0,0,1,74,136.61Z"/><path class="cls-19" d="M71.51,137.85s-.09.09-.08.21a.27.27,0,0,0,.11.21s0-.05,0-.14,0-.07,0-.12A.55.55,0,0,1,71.51,137.85Z"/><path class="cls-11" d="M81.79,144.83a2.24,2.24,0,0,1,.53-.91,2.51,2.51,0,0,1,1.1-.72,3.24,3.24,0,0,1,1.19-.15,10.12,10.12,0,0,1,2,.25c1.25.22,1.49.31,1.6.54,0,.07.11.28-.11.83a4.28,4.28,0,0,1-1.24,1.62,15.19,15.19,0,0,1-2.73,1.39,1.22,1.22,0,0,1-.78.15c-.44-.09-.7-.5-1-.92A2.69,2.69,0,0,1,81.79,144.83Z"/><path class="cls-18" d="M81.37,144.86a2.13,2.13,0,0,1,.53-.91,2.6,2.6,0,0,1,1.1-.72,3.24,3.24,0,0,1,1.19-.15,10.12,10.12,0,0,1,2,.25c1.24.23,1.49.31,1.6.54,0,.08.11.28-.12.83a4.11,4.11,0,0,1-1.23,1.62,14.88,14.88,0,0,1-2.73,1.39,1.22,1.22,0,0,1-.78.15c-.44-.09-.7-.5-1-.92A2.69,2.69,0,0,1,81.37,144.86Z"/><path class="cls-19" d="M81.76,145.73a1.22,1.22,0,0,1,0-1.09,1.29,1.29,0,0,1,.85-.73s-.17.18-.41.56a4,4,0,0,0-.24.5C81.78,145.44,81.8,145.73,81.76,145.73Z"/><path class="cls-19" d="M82.77,145.17c-.06.16,0,.25,0,.43,0,.41-.26.48-.25.84a.63.63,0,0,0,.34.57.62.62,0,0,0,.69-.34c.14-.32-.18-.52,0-.88s.35-.34.33-.56a.52.52,0,0,0-.15-.27.53.53,0,0,0-.33-.19.5.5,0,0,0-.33.09A.56.56,0,0,0,82.77,145.17Z"/><path class="cls-19" d="M87,143.83a.38.38,0,0,1,.33.15.41.41,0,0,1,.1.36s0-.08-.11-.2a1,1,0,0,0-.12-.15A1.55,1.55,0,0,0,87,143.83Z"/><path class="cls-11" d="M143.92,126.15a1.29,1.29,0,0,1-.63.18,1.61,1.61,0,0,1-.8-.16,1.93,1.93,0,0,1-.6-.45,6.11,6.11,0,0,1-.76-1c-.46-.64-.53-.78-.48-.93s.07-.18.41-.32a2.52,2.52,0,0,1,1.26-.18,9.06,9.06,0,0,1,1.83.56.78.78,0,0,1,.41.28,1,1,0,0,1,0,.83A1.66,1.66,0,0,1,143.92,126.15Z"/><path class="cls-18" d="M144.12,126.32a1.29,1.29,0,0,1-.63.18,1.62,1.62,0,0,1-.8-.16,2.05,2.05,0,0,1-.6-.45,6.85,6.85,0,0,1-.76-1c-.46-.64-.53-.78-.48-.93s.08-.18.42-.32a2.56,2.56,0,0,1,1.26-.19,10.45,10.45,0,0,1,1.82.57.78.78,0,0,1,.41.28,1,1,0,0,1,0,.83A1.66,1.66,0,0,1,144.12,126.32Z"/><path class="cls-19" d="M144.33,125.77s-.14.36-.47.48a.75.75,0,0,1-.7,0,4.06,4.06,0,0,0,.42-.06l.33-.12C144.19,125.89,144.31,125.75,144.33,125.77Z"/><path class="cls-19" d="M143.64,125.58c.1,0,.11-.11.19-.19s.33-.1.48-.27a.42.42,0,0,0,.1-.4.39.39,0,0,0-.46-.15c-.2.08-.15.31-.37.41s-.3,0-.39.11a.29.29,0,0,0-.05.19.3.3,0,0,0,.06.22.35.35,0,0,0,.19.11A.51.51,0,0,0,143.64,125.58Z"/><path class="cls-19" d="M141.17,124.34a.28.28,0,0,1-.08-.22.25.25,0,0,1,.12-.2.37.37,0,0,0,0,.14.35.35,0,0,0,0,.12A1.08,1.08,0,0,0,141.17,124.34Z"/><path class="cls-11" d="M55,165.65a1.79,1.79,0,0,1,.79-.31,2.22,2.22,0,0,1,1,.09,2.91,2.91,0,0,1,.83.5,9.17,9.17,0,0,1,1.1,1.14c.67.76.79.94.74,1.13s-.07.23-.48.47a3.44,3.44,0,0,1-1.59.4,11.42,11.42,0,0,1-2.42-.48,1,1,0,0,1-.56-.29,1.32,1.32,0,0,1-.15-1.06A2.17,2.17,0,0,1,55,165.65Z"/><path class="cls-18" d="M54.75,165.46a1.79,1.79,0,0,1,.79-.31,2.08,2.08,0,0,1,1.05.09,2.74,2.74,0,0,1,.82.5,8.14,8.14,0,0,1,1.11,1.14c.67.76.79.93.74,1.13s-.07.23-.48.47a3.48,3.48,0,0,1-1.59.4,11.42,11.42,0,0,1-2.42-.48,1,1,0,0,1-.56-.29,1.32,1.32,0,0,1-.15-1.06A2.17,2.17,0,0,1,54.75,165.46Z"/><path class="cls-19" d="M54.56,166.2a1,1,0,0,1,.55-.68,1,1,0,0,1,.9,0,3.78,3.78,0,0,0-.54.14,3,3,0,0,0-.41.19C54.72,166,54.59,166.22,54.56,166.2Z"/><path class="cls-19" d="M55.48,166.35c-.12.08-.13.16-.22.27-.2.27-.41.18-.58.41a.51.51,0,0,0-.07.53.5.5,0,0,0,.61.12c.24-.13.14-.41.41-.57s.39,0,.49-.19a.49.49,0,0,0,0-.25.48.48,0,0,0-.12-.28.43.43,0,0,0-.25-.11A.51.51,0,0,0,55.48,166.35Z"/><path class="cls-19" d="M58.8,167.61s.13.1.14.26a.39.39,0,0,1-.12.28s0-.07,0-.19v-.15C58.83,167.68,58.79,167.61,58.8,167.61Z"/><path class="cls-11" d="M126.7,179.43a1.28,1.28,0,0,0-.63-.17,1.6,1.6,0,0,0-.81.15,2.1,2.1,0,0,0-.59.46,5.74,5.74,0,0,0-.76,1c-.46.65-.53.79-.48.94s.07.17.41.32a2.5,2.5,0,0,0,1.26.18,8.86,8.86,0,0,0,1.83-.57.8.8,0,0,0,.41-.27,1,1,0,0,0,0-.83A1.69,1.69,0,0,0,126.7,179.43Z"/><path class="cls-18" d="M126.9,179.26a1.26,1.26,0,0,0-.63-.17,1.6,1.6,0,0,0-.81.15,2.1,2.1,0,0,0-.59.46,6.3,6.3,0,0,0-.76,1c-.46.65-.53.79-.48.94s.07.17.41.32a2.5,2.5,0,0,0,1.26.18,8.86,8.86,0,0,0,1.83-.57.74.74,0,0,0,.41-.27,1,1,0,0,0,0-.83A1.65,1.65,0,0,0,126.9,179.26Z"/><path class="cls-19" d="M127.11,179.82a.78.78,0,0,0-.48-.49.83.83,0,0,0-.7,0s.16,0,.43.07a2,2,0,0,1,.33.12C127,179.7,127.09,179.84,127.11,179.82Z"/><path class="cls-19" d="M126.41,180c.1.05.12.11.19.19s.33.1.48.27a.32.32,0,0,1-.36.54c-.2-.07-.14-.3-.36-.4s-.31,0-.39-.11a.41.41,0,0,1-.06-.19.32.32,0,0,1,.07-.22.32.32,0,0,1,.19-.11A.38.38,0,0,1,126.41,180Z"/><path class="cls-19" d="M124,181.25a.26.26,0,0,0-.08.21.28.28,0,0,0,.11.21s0,0,0-.14,0-.06,0-.12S124,181.25,124,181.25Z"/></g></g></svg>