<svg xmlns="http://www.w3.org/2000/svg" viewBox="0 0 235.11 407.17"><defs><style>.cls-1{isolation:isolate;}.cls-2{fill:#f29220;}.cls-3{fill:#1d1d1b;}.cls-4{fill:#dbdada;opacity:0.79;}.cls-10,.cls-4,.cls-7{mix-blend-mode:multiply;}.cls-5{fill:#d4a258;}.cls-6{fill:#e0b070;}.cls-7{fill:#cbbba0;opacity:0.63;}.cls-8{fill:#fff;opacity:0.58;}.cls-9{fill:#f8b232;}.cls-10{fill:#ca9e68;opacity:0.37;}</style></defs><g class="cls-1"><g id="Layer_1" data-name="Layer 1"><path class="cls-2" d="M140.67,29.34a31.64,31.64,0,0,0-48.77,0L5.81,133.54a14.39,14.39,0,0,0-2.18,14.75l54.64,130,51.2,121.85a7.39,7.39,0,0,0,13.62,0l51.23-121.84,54.66-130a14.41,14.41,0,0,0-2.17-14.76Z"/><path class="cls-3" d="M116.28,407.17h0a9.72,9.72,0,0,1-9.11-6.06L1.33,149.26a16.85,16.85,0,0,1,2.55-17.32L90,27.75a34.12,34.12,0,0,1,52.61,0h0L228.73,132a16.85,16.85,0,0,1,2.56,17.32L125.39,401.12A9.74,9.74,0,0,1,116.28,407.17Zm0-386.81A29,29,0,0,0,93.83,30.94L7.73,135.13a11.87,11.87,0,0,0-1.79,12.19L111.77,399.18a4.77,4.77,0,0,0,4.51,3h0a4.76,4.76,0,0,0,4.5-3l105.9-251.83a11.87,11.87,0,0,0-1.8-12.19L138.74,30.94A29,29,0,0,0,116.28,20.36Z"/><path class="cls-4" d="M226.81,133.56,160,52.68c-3.26,20.6-21.65,43.92-49.35,59.52-35,19.72-72.83,20.35-89.41,2.71L5.81,133.54a14.39,14.39,0,0,0-2.18,14.75l54.64,130,51.2,121.85a7.39,7.39,0,0,0,13.62,0l51.23-121.84,54.66-130A14.41,14.41,0,0,0,226.81,133.56Z"/><path class="cls-4" d="M226.81,133.56l-38.7-46.82c-11.86,14.41-28.26,28.31-48,39.71-52,30-107.5,31.35-123.91,2.92A33.25,33.25,0,0,1,13.71,124l-7.9,9.56a14.39,14.39,0,0,0-2.18,14.75l54.64,130L109.81,401a7,7,0,0,0,12.93,0l51.58-122.65,54.66-130A14.41,14.41,0,0,0,226.81,133.56Z"/><path class="cls-5" d="M199.66,82.85l33.37,19C154.15,203.51,154.27,273,153.48,278.57c0,.08-.25,3.17-.28,3.24-.63,2-9.33,1-19.44-2.19s-17.78-7.41-17.15-9.41C116.61,270.21,113,198.3,199.66,82.85Z"/><path class="cls-3" d="M149.5,284.84c-5.14,0-12.44-2.07-16.34-3.31a75.68,75.68,0,0,1-13-5.31c-2.85-1.57-6-3.66-5.6-6.18-.07-2.49-.24-20.2,9.13-50.8,9.11-29.72,29.4-77.72,74.33-137.59a2,2,0,0,1,2.58-.54l33.37,19a2,2,0,0,1,.6,3c-47.17,60.81-75.21,122.48-79,173.65-.07,1-.12,1.66-.18,2.11-.05.75-.23,3.19-.36,3.6C154.55,284.19,152.35,284.84,149.5,284.84Zm-30.89-14.58c.93,1.22,6.13,4.41,15.76,7.46,9.15,2.9,15.11,3.39,16.93,3,.07-.86.18-2.12.19-2.3a.91.91,0,0,1,0-.17c.05-.32.1-1,.16-1.88,3.77-51.44,31.58-113.15,78.37-174l-29.83-17C156.46,144.07,136.61,191,127.65,220.12c-9.78,31.8-9.05,49.82-9,50Z"/><path class="cls-3" d="M140.51,281.88h-.1a2,2,0,0,1-1.9-2.09c0-.23,1.23-23.18,11.67-57A371.93,371.93,0,0,1,218.46,97.27a2,2,0,1,1,3.08,2.54,368.23,368.23,0,0,0-67.5,124c-10.31,33.34-11.53,55.91-11.54,56.13A2,2,0,0,1,140.51,281.88Z"/><path class="cls-3" d="M127,279.19h-.11a2,2,0,0,1-1.89-2.1c0-.23,1.28-23,11.83-57.24,9.71-31.58,29.53-79.78,68.74-130.07a2,2,0,1,1,3.15,2.46C134.43,187.53,129.05,276.41,129,277.3A2,2,0,0,1,127,279.19Z"/><path class="cls-6" d="M199.66,82.85c-1,1.82,5.59,7.54,14.81,12.78s17.52,8,18.56,6.19-5.6-7.54-14.82-12.78S200.69,81,199.66,82.85Z"/><path class="cls-3" d="M231.39,104.32c-5,0-13.68-4.55-17.91-6.95-5.54-3.15-18.14-11-15.56-15.51h0c2.58-4.54,15.74,2.3,21.28,5.44s18.15,11,15.57,15.51C234.15,103.88,233,104.32,231.39,104.32Zm-29-19.9c1.72,1.93,6,5.44,13.06,9.47s12.27,5.88,14.82,6.37c-1.72-1.94-6-5.45-13.06-9.48S205,84.9,202.4,84.42Z"/><path class="cls-7" d="M133.76,279.62c-1.3-19.06,19.54-109.59,79.51-185.4L199.66,82.85C139.34,163.08,109.82,251.67,117.05,272Z"/><path class="cls-8" d="M147.19,277.84h-.06a1.51,1.51,0,0,1-1.44-1.56c0-.2.91-20.63,10.61-51.85,8.94-28.76,27.41-72.91,64.61-119.88a1.5,1.5,0,0,1,2.35,1.86c-70.62,89.16-74.54,169.19-74.57,170A1.5,1.5,0,0,1,147.19,277.84Z"/><path class="cls-5" d="M79.41,20.06l-37.26,9.2C90.45,148.54,75.74,263.1,75,268.69a.66.66,0,0,0,0,.24c.06,2.09,8.71,3.51,19.3,3.17s19.13-2.31,19.06-4.4C113.31,267.7,131.46,154.7,79.41,20.06Z"/><path class="cls-3" d="M90.86,274.15c-7.13,0-17.77-.74-17.91-5.16a2.46,2.46,0,0,1,.06-.66c.82-6.1,15.14-120.15-32.72-238.32a2,2,0,0,1,.08-1.66,2,2,0,0,1,1.3-1l37.26-9.2a2,2,0,0,1,2.35,1.22,559.24,559.24,0,0,1,36.6,174.94c1.88,43.18-2.24,71.4-2.57,73.6-.3,5-14.73,6-21,6.22C93.34,274.13,92.16,274.15,90.86,274.15ZM77,268.41c1.6.84,7.49,2,17.16,1.69,10.06-.32,15.93-2,17.17-2.89.37-2.45,4.39-30.29,2.52-72.88a555.15,555.15,0,0,0-35.7-171.9L44.86,30.65C91.2,146.83,78.3,258.53,77,268.41Zm-.12.82ZM75,268.69h0Z"/><path class="cls-3" d="M87.69,272.52h-.23a2,2,0,0,1-1.76-2.22c.16-1.32,14.8-133.45-32-239.85a2,2,0,0,1,3.67-1.61C82.08,85,89.54,147.77,91.46,190.55c2.07,46.32-1.74,79.87-1.78,80.2A2,2,0,0,1,87.69,272.52Z"/><path class="cls-3" d="M101.42,273.6l-.23,0a2,2,0,0,1-1.76-2.21c.15-1.31,14.38-132.78-31.3-244.74a2,2,0,1,1,3.7-1.51c24.08,59,31.39,123,33.27,166.19,2,46.82-1.66,80.18-1.7,80.51A2,2,0,0,1,101.42,273.6Z"/><ellipse class="cls-6" cx="60.78" cy="24.66" rx="19.19" ry="3.79" transform="translate(-4.14 15.28) rotate(-13.86)"/><path class="cls-3" d="M47.12,32.56c-3.57,0-6.39-.71-6.91-2.82C39,24.67,53.21,20.57,59.39,19s20.71-4.53,22,.54h0c1.25,5.08-13,9.17-19.19,10.7C58.56,31.17,52.11,32.56,47.12,32.56Zm-1.9-4.06c2.58.22,8.08-.15,16-2.1s12.95-4.18,15.13-5.58c-2.58-.22-8.08.15-16,2.11S47.4,27.11,45.22,28.5Zm32.63-7.35h0Z"/><path class="cls-7" d="M63.68,27.83C109.8,145.92,94.25,272.1,94.25,272.1l19.06-4.4c18.43-132-33.9-247.64-33.9-247.64Z"/><path class="cls-8" d="M81.19,266.79l-.22,0a1.49,1.49,0,0,1-1.26-1.7C79.87,264,95.13,155.69,49.32,36a1.5,1.5,0,0,1,2.81-1.07c24.08,63,31.11,122.29,32.76,161,1.79,41.94-2.17,69.37-2.21,69.65A1.51,1.51,0,0,1,81.19,266.79Z"/><path class="cls-5" d="M116.42,4.09,154.5,8.9c-34.16,124.08-6.26,236.16-4.86,241.63a1,1,0,0,1,.06.23c.18,2.08-8.24,4.5-18.81,5.39s-19.26-.08-19.44-2.17C111.45,254,80.33,143.85,116.42,4.09Z"/><path class="cls-3" d="M123.36,258.48a59.51,59.51,0,0,1-6.3-.31c-3.32-.37-7.14-1.14-7.57-3.79-.61-2.23-8-29.76-11.08-72.79a558.75,558.75,0,0,1,16.07-178,2,2,0,0,1,2.19-1.49l38.08,4.82a2,2,0,0,1,1.41.87,2,2,0,0,1,.27,1.64C122.59,132.34,150,244,151.55,249.94a2.23,2.23,0,0,1,.14.67c.24,2.82-3.51,4.27-6.81,5.21a75,75,0,0,1-13.82,2.32C128.39,258.36,125.78,258.48,123.36,258.48Zm-10-5.21c1.35.77,7.36,1.73,17.4.88,9.64-.81,15.35-2.64,16.84-3.66-2.4-9.67-28.17-119.13,4.39-239.89L117.91,6.29a555.24,555.24,0,0,0-15.52,174.89C105.47,223.69,112.68,250.89,113.33,253.27Zm.12.55h0Zm34.34-2.54h0Z"/><path class="cls-3" d="M137.23,255.82a2,2,0,0,1-1.95-1.54c-.08-.33-7.75-33.21-11.06-79.46-3.06-42.71-2.93-105.94,15.07-164.57a2,2,0,1,1,3.83,1.17c-34.13,111.13-4.25,240.64-4,241.94a2,2,0,0,1-1.48,2.4A1.88,1.88,0,0,1,137.23,255.82Z"/><path class="cls-3" d="M123.72,258.48a2,2,0,0,1-2-1.55c-.07-.32-7.62-33-11-79.77-3.14-43.16-3.3-107.5,13.78-168.93a2,2,0,1,1,3.86,1.08c-32.4,116.53-3,245.42-2.72,246.71a2,2,0,0,1-1.5,2.4A1.74,1.74,0,0,1,123.72,258.48Z"/><path class="cls-6" d="M116.42,4.09c-.27,2.07,8,4.83,18.56,6.16S154.23,11,154.5,8.9s-8.05-4.83-18.57-6.16S116.68,2,116.42,4.09Z"/><path class="cls-3" d="M145.42,13a90.46,90.46,0,0,1-10.69-.75c-6.32-.8-20.95-3.22-20.3-8.4h0C115.09-1.34,129.86,0,136.18.75s20.95,3.22,20.3,8.4C156.1,12.17,150.93,13,145.42,13Zm-25.87-8.5c2.33,1.13,7.6,2.76,15.68,3.78s13.59.76,16.13.24c-2.33-1.14-7.6-2.77-15.68-3.79S122.09,4,119.55,4.49Z"/><path class="cls-7" d="M133,10c-32.13,122.64-2.06,246.17-2.06,246.17L111.45,254c-33.59-128.93,5-249.89,5-249.89Z"/><path class="cls-8" d="M143.07,249.37a1.49,1.49,0,0,1-1.44-1.11c-.07-.27-7.19-27.06-10.28-68.92-2.84-38.61-2.74-98.36,13.89-163.69a1.5,1.5,0,0,1,1.82-1.08,1.52,1.52,0,0,1,1.09,1.83c-31.63,124.27-3.91,230-3.63,231.08a1.48,1.48,0,0,1-1.05,1.83A1.39,1.39,0,0,1,143.07,249.37Z"/><path class="cls-5" d="M32.92,61.78,2.2,79.09C86.36,219.57,94.49,309.92,97.43,343c.22,2,8.24,2.82,17.92,1.79s17.36-3.52,17.14-5.54C128.7,311.41,122.2,211.3,32.92,61.78Z"/><path class="cls-3" d="M107.05,347.31c-5.59,0-11.26-.81-11.61-4.05-3-33.62-10.89-122.82-95-263.14a2,2,0,0,1,.73-2.77L31.93,60a2,2,0,0,1,2.7.72c83,139,94.6,235,99,271.1.33,2.76.62,5.15.89,7.16.31,2.86-3.4,4.4-6.22,5.31a66.14,66.14,0,0,1-12.68,2.49C113.43,347,110.25,347.31,107.05,347.31Zm-7.67-5c1.41.69,6.89,1.44,15.76.49S129.2,340,130.44,339c-.25-1.87-.52-4.12-.83-6.68C125.3,296.6,113.89,201.9,32.2,64.48L5,79.83C88.09,219.2,96.35,308.26,99.38,342.35Z"/><path class="cls-3" d="M107,347.28h0a2,2,0,0,1-2-2c0-.27.55-27.78-10.64-74.3C84,228,61.3,159.62,11.71,77.71a2,2,0,0,1,3.42-2.07C65,158.08,87.9,226.94,98.28,270.2c11.28,47,10.7,74.86,10.7,75.13A2,2,0,0,1,107,347.28Z"/><path class="cls-3" d="M120.69,346.08h0a2,2,0,0,1-2-2c0-.28.15-28.65-11.43-76-10.68-43.72-33.84-113-83.44-195A2,2,0,0,1,27.25,71c49.91,82.43,73.2,152.23,84,196.26,11.66,47.8,11.49,76.54,11.49,76.82A2,2,0,0,1,120.69,346.08Z"/><path class="cls-6" d="M32.92,61.78c1,1.77-5.07,7.08-13.56,11.86S3.19,80.86,2.2,79.09,7.27,72,15.75,67.23,31.92,60,32.92,61.78Z"/><path class="cls-3" d="M3.88,81.63c-1.57,0-2.8-.45-3.43-1.56-1.38-2.46,1.42-5.34,3.65-7.29a66.14,66.14,0,0,1,10.67-7.29c5.14-2.9,17.37-9.16,19.89-4.69C36,63.26,33.24,66.14,31,68.09a66.13,66.13,0,0,1-10.67,7.3C16.48,77.56,8.62,81.63,3.88,81.63ZM30.21,63.31c-2.36.43-7.09,2.07-13.48,5.66S6.49,75.77,4.9,77.56c2.36-.42,7.1-2.06,13.48-5.66S28.62,65.11,30.21,63.31Zm1.47-.08h0Z"/><path class="cls-7" d="M19.36,73.64C96.59,210.36,111.89,301.33,113.94,345l18.16-4.56C125.64,207.8,32.92,61.78,32.92,61.78l-2.43,3.55Z"/><path class="cls-8" d="M102.16,341.54a1.49,1.49,0,0,1-1.49-1.39c0-.3-2.23-30.41-14.55-76.86A693.59,693.59,0,0,0,9.35,83.85a1.5,1.5,0,0,1,2.57-1.56A696.59,696.59,0,0,1,89,262.61c12.38,46.7,14.6,77,14.62,77.33a1.51,1.51,0,0,1-1.39,1.6Z"/><path class="cls-5" d="M179.54,25.23l30.75,13c-64,141.14-61.86,227-61,258.41,0,1.92-7.44,3.54-16.65,3.61s-16.69-1.43-16.71-3.36C116.44,270.22,111.75,175.41,179.54,25.23Z"/><path class="cls-3" d="M132,302.2a61.37,61.37,0,0,1-11.57-1c-2.78-.56-6.49-1.62-6.51-4.37,0-2,.05-4.25.07-6.88.19-34.43.71-125.89,63.77-265.58a2,2,0,0,1,2.6-1l30.74,13A2,2,0,0,1,212.11,39c-63.87,141-61.69,225.64-60.87,257.53,0,5-13,5.61-18.64,5.66Zm-14.07-5.89c1.34.77,6.41,1.95,14.68,1.89s13.34-1.33,14.66-2.12c-.83-32.35-2.66-116.94,60.39-256.85l-27.06-11.4C118.65,165.74,118.14,256,118,290,117.94,292.39,117.92,294.5,117.89,296.31Z"/><path class="cls-3" d="M139.06,300.51a2,2,0,0,1-2-1.83c0-.27-2.3-27.65,3.91-73.5,5.73-42.25,20-109.37,55.73-189.19a2,2,0,1,1,3.65,1.64c-35.49,79.38-49.72,146.1-55.42,188.08-6.15,45.42-3.91,72.35-3.89,72.62a2,2,0,0,1-1.82,2.17Z"/><path class="cls-3" d="M127.49,302.07a2,2,0,0,1-2-1.75c0-.27-3.3-27.28,2.51-73.48,5.36-42.56,19.72-110.7,57.75-193.59a2,2,0,0,1,3.64,1.67c-37.82,82.43-52.1,150.13-57.42,192.41-5.75,45.72-2.55,72.23-2.51,72.49a2,2,0,0,1-1.74,2.23A1.06,1.06,0,0,1,127.49,302.07Z"/><path class="cls-6" d="M179.54,25.23c-.75,1.77,5.53,6.1,14,9.68s16,5,16.73,3.27-5.53-6.11-14-9.69S180.29,23.45,179.54,25.23Z"/><path class="cls-3" d="M208,40.93a19.06,19.06,0,0,1-3.59-.42,62.49,62.49,0,0,1-11.66-3.75A63.7,63.7,0,0,1,182,31c-2.34-1.62-5.32-4.06-4.25-6.59h0c1.07-2.54,4.9-2.1,7.68-1.56a70.68,70.68,0,0,1,22.5,9.48c2.34,1.61,5.32,4.05,4.25,6.59C211.49,40.48,209.85,40.93,208,40.93ZM182.57,26.5c1.8,1.53,5.69,4,11.77,6.57s10.57,3.61,12.92,3.83c-1.8-1.52-5.69-4-11.77-6.56S184.92,26.72,182.57,26.5Zm-3-1.27h0Z"/><path class="cls-7" d="M193.56,34.91c-57.84,136.85-62.41,224-59.63,265.26l-17.56-2.32C108.13,172.5,179.54,25.23,179.54,25.23l2.67,3.07Z"/><path class="cls-8" d="M144.15,294.53a1.5,1.5,0,0,1-1.5-1.39c0-.28-1.85-28.43,4.47-73.22,5.83-41.29,20-105.65,54.31-177.73a1.5,1.5,0,1,1,2.71,1.29c-34.17,71.73-48.25,135.77-54,176.86-6.28,44.48-4.46,72.31-4.44,72.59a1.51,1.51,0,0,1-1.4,1.6Z"/><path class="cls-9" d="M39.91,234.7l18.32,43.6,51.21,121.85a7.38,7.38,0,0,0,13.61,0l51.24-121.84,54.66-130C190.83,203.88,39.91,234.7,39.91,234.7Z"/><path class="cls-3" d="M116.25,407.17h0a9.74,9.74,0,0,1-9.12-6.06L37.61,235.67a2.49,2.49,0,0,1,1.8-3.42c1.5-.31,150.34-31.22,187.48-85.34a2.5,2.5,0,0,1,4.37,2.38L125.36,401.12A9.74,9.74,0,0,1,116.25,407.17ZM43.39,236.51l68.35,162.67a4.76,4.76,0,0,0,4.51,3h0a4.76,4.76,0,0,0,4.5-3L220.48,162C175.16,205.92,64.43,232.05,43.39,236.51Z"/><path class="cls-9" d="M3.82,148.81l36.07,85.83s72.4-14.79,129.58-42.34C162.63,191.92,30.82,184.11,3.82,148.81Z"/><path class="cls-3" d="M39.89,237.14a2.49,2.49,0,0,1-2.3-1.53L1.52,149.78a2.5,2.5,0,0,1,4.29-2.49c26.35,34.46,158.2,42.2,163.8,42.51a2.5,2.5,0,0,1,.94,4.75c-56.8,27.37-129.43,42.39-130.16,42.54A2.73,2.73,0,0,1,39.89,237.14ZM10.73,158.79l30.67,73c11.37-2.46,68.92-15.54,118.19-37.63-13.53-1-39-3.39-65.81-8C53.94,179.24,26.11,170.08,10.73,158.79Z"/><path class="cls-10" d="M50.23,218,37.87,187.83a2.11,2.11,0,0,1,2.74-2.75c21.53,8.89,60.84,13.79,78.31,15.63a2.1,2.1,0,0,1,.5,4.07c-21.86,8-49.91,14.61-61.59,17.21A6.65,6.65,0,0,1,50.23,218Z"/><path class="cls-8" d="M44.58,228.77a2.52,2.52,0,0,1-2.32-1.55L19,171a2.5,2.5,0,0,1,3.93-2.86c.2.16,22.09,17.43,117.17,26.16a2.5,2.5,0,1,1-.46,5C69.38,192.78,38.52,181.8,26.44,175.9l20.44,49.41a2.52,2.52,0,0,1-2.3,3.46Z"/><path class="cls-8" d="M116.42,397.57h0c-2.25,0-4.32-1.7-5.53-4.52L47.52,240.23a2.5,2.5,0,0,1,.08-2.09,2.47,2.47,0,0,1,1.64-1.3L59,234.49h0c99.13-22.33,143.38-54.94,148.1-58.58a2.5,2.5,0,0,1,3.84,2.94L122,392.92C120.27,396.77,118,397.57,116.42,397.57ZM53.26,241l62.22,150.1a4,4,0,0,0,.92,1.39,4.82,4.82,0,0,0,1-1.54L203,184.85c-16.66,10.89-61.65,36.19-142.9,54.5Z"/><path class="cls-10" d="M163.81,209.28c-35.33,16.9-61,24.07-79.81,28.34a6.5,6.5,0,0,0-4.83,8l34.57,133.76a2.5,2.5,0,0,0,4.81.08l49.21-166.79a2.83,2.83,0,0,0-3.94-3.36Z"/></g></g></svg>