<svg xmlns="http://www.w3.org/2000/svg" xmlns:xlink="http://www.w3.org/1999/xlink" viewBox="0 0 119.55 138"><defs><style>.cls-1,.cls-12,.cls-15,.cls-8{fill:none;}.cls-2{fill:#08b7b3;}.cls-3{clip-path:url(#clip-path);}.cls-16,.cls-4{fill:#fff;}.cls-4{stroke:#668ca3;stroke-width:2px;}.cls-12,.cls-15,.cls-4,.cls-8{stroke-miterlimit:10;}.cls-5{fill:#668ca3;}.cls-6{fill:#ceab76;}.cls-7{fill:#fbb25c;}.cls-8{stroke:#f4cba2;}.cls-9{fill:#f4cba2;}.cls-10{fill:#fdc58b;}.cls-11{fill:#86d0cb;}.cls-12{stroke:#addedd;}.cls-13{fill:#aededd;}.cls-14{fill:#ede3c8;}.cls-15{stroke:#fff;}.cls-17{fill:#d8b67b;}.cls-18{fill:#e4d59d;}.cls-19{fill:#f4e6c0;}.cls-20{fill:#f7b22f;}.cls-21{fill:url(#linear-gradient);}.cls-22{fill:url(#linear-gradient-2);}.cls-23{fill:#fbdea9;}</style><clipPath id="clip-path"><rect class="cls-1" x="24.27" width="71" height="138"/></clipPath><linearGradient id="linear-gradient" x1="-504.61" y1="-3941.17" x2="-504.58" y2="-3942.45" gradientTransform="matrix(1, 0, 0, -1, 564, -3904.53)" gradientUnits="userSpaceOnUse"><stop offset="0" stop-color="#f7b22f"/><stop offset="1" stop-color="#d5992d"/></linearGradient><linearGradient id="linear-gradient-2" x1="-504.93" y1="-4025.47" x2="-504.87" y2="-4029.64" xlink:href="#linear-gradient"/></defs><g id="Layer_4" data-name="Layer 4"><path class="cls-2" d="M1.26,63.44c.73-21.45-.17-26.83,3-37,2.21-7.08,4.18-13.1,10-18,6.83-5.73,17.87-9,26-5,1.62.8,2.49,1.58,6,5,13.88,13.53,14.26,14.94,19,19,3.79,3.25,11.08,9.48,22,13,6.38,2.06,8.15,1.31,14,4,4.14,1.91,10.9,5,15,12,4,6.81,3.39,13.71,3,18-.87,9.75-5.93,24.92-17,29-4.71,1.74-7,.19-13,3a32.35,32.35,0,0,0-11,9c-1.31,1.5-14.67,16.48-28,20s-27.89-4.13-36-12c-11.21-10.88-12.9-24.87-14-34C-.49,83.22.53,84.87,1.26,63.44Z"/><g class="cls-3"><path class="cls-4" d="M75.27.64,75.1,1.77c-.68,4.59-1.16,7.38-1.63,10.3C70.91,27.88,71.65,27,71.18,28.48A2.81,2.81,0,0,0,71,30.12c.18.46.65.46,1.47.43,1.66-.05,2,.17,2.32,0,0,0,.09-.15.15-.13s.12,1.15.18,1.17,1-7.31,1.92-13.94c.6-4.14,1.06-6.58,1.87-12.77.18-1.26.3-2.29.39-3Z"/><path class="cls-5" d="M79.12,4.24l.31-1.95-4.65,2.3-.39,2.52Z"/><path class="cls-4" d="M75.22,1c-.31-.44.26-.74.65-.82A3.22,3.22,0,0,1,78,.7c.65.36,1.28.8,1.28.8l-.54-.35a1.67,1.67,0,0,1,.56.5c.14.26-.13.35-.4.45A3,3,0,0,1,77.32,2,5.36,5.36,0,0,1,75.22,1Z"/><path class="cls-5" d="M78.17,10.37l.39-2.68-4.87,3-.39,2.52Z"/><path class="cls-5" d="M77.33,16.32l.4-2.61-4.88,3-.4,2.46Z"/><path class="cls-5" d="M76.39,22.16l.4-2.61-4.87,3L71.52,25Z"/><path class="cls-6" d="M75.87,25.29l.37-2.09-4.8,2.3c-.13.66-.25,1.31-.37,2Z"/><path class="cls-7" d="M52,15.25a14.68,14.68,0,0,1,3.71-2.74,14.28,14.28,0,0,1,8.21-1.4,13.73,13.73,0,0,1,5.78,2.16,13.22,13.22,0,0,1,4.48,5.14,13.8,13.8,0,0,1,1.36,5.49,12.07,12.07,0,0,1-.71,5.61c-.43,1.08-1.35,3.34-3.42,4.38-1.7.84-3.09.33-5.78-.06-8-1.16-10.44,1.27-13.75-1.17a10.18,10.18,0,0,1-3-3.8,10.35,10.35,0,0,1-.71-3.27,12.63,12.63,0,0,1,.48-5.14A12.66,12.66,0,0,1,52,15.25Z"/><path class="cls-8" d="M56.74,18.71c-.28.17-.33.25-.35.31-.11.29.16.68.45.87a1,1,0,0,0,.68.18,1.07,1.07,0,0,0,.64-.26,1,1,0,0,0,.24-.39.86.86,0,0,0,0-.45.93.93,0,0,0-.18-.39.75.75,0,0,0-.35-.26C57.58,18.21,57.3,18.38,56.74,18.71Z"/><path class="cls-8" d="M57.85,25.76a.9.9,0,0,1,.62-.78.92.92,0,0,1,.4-.05,1.06,1.06,0,0,1,.39.13.82.82,0,0,1,.4.48.9.9,0,0,1,0,.4.94.94,0,0,1-.2.35s-.51.6-1.06.39a1,1,0,0,1-.42-.37,1,1,0,0,1-.11-.55Z"/><path class="cls-8" d="M66.79,28.71a.44.44,0,0,1,.11-.24.49.49,0,0,1,.23-.14.77.77,0,0,1,.3,0,.58.58,0,0,1,.23.18.39.39,0,0,1,.13.2.44.44,0,0,1,0,.23.52.52,0,0,1-.59.27.56.56,0,0,1-.31-.19.46.46,0,0,1-.12-.34Z"/><path class="cls-8" d="M54.07,24.77a.57.57,0,0,1,.38.11.59.59,0,0,1,.23.31.56.56,0,0,1,0,.36.58.58,0,0,1-.22.27.68.68,0,0,1-1-.29A.64.64,0,0,1,54.07,24.77Z"/><path class="cls-9" d="M67.11,21.4a.47.47,0,0,1,0-.17.47.47,0,0,1,.11-.13.4.4,0,0,1,.21-.09.53.53,0,0,1,.22,0,.37.37,0,0,1,.16.14.42.42,0,0,1,.06.21.35.35,0,0,1-.1.2.38.38,0,0,1-.51.06A.36.36,0,0,1,67.11,21.4Z"/><path class="cls-9" d="M70,19.55a.32.32,0,0,1,0-.14.29.29,0,0,1,.1-.12.33.33,0,0,1,.19-.08.35.35,0,0,1,.2,0,.33.33,0,0,1,.14.12.26.26,0,0,1,0,.19.31.31,0,0,1-.09.18.29.29,0,0,1-.18.1.35.35,0,0,1-.44-.27Z"/><path class="cls-9" d="M70.48,23.28a.33.33,0,0,1,0-.15.4.4,0,0,1,.1-.12.36.36,0,0,1,.19-.08.34.34,0,0,1,.2,0,.44.44,0,0,1,.15.12.41.41,0,0,1,0,.19.31.31,0,0,1-.09.18.35.35,0,0,1-.19.1.32.32,0,0,1-.27,0A.34.34,0,0,1,70.48,23.28Z"/><path class="cls-9" d="M71.79,31.56a.36.36,0,0,1,.14-.27.37.37,0,0,1,.18-.08.34.34,0,0,1,.2,0,.35.35,0,0,1,.15.12.41.41,0,0,1,.05.18.34.34,0,0,1-.09.19.32.32,0,0,1-.18.1.38.38,0,0,1-.28,0A.4.4,0,0,1,71.79,31.56Z"/><path class="cls-9" d="M72.4,30a.31.31,0,0,1,.13-.27.46.46,0,0,1,.19-.08.34.34,0,0,1,.2,0,.28.28,0,0,1,.14.12.24.24,0,0,1,0,.18.34.34,0,0,1-.09.19.32.32,0,0,1-.18.1.4.4,0,0,1-.28,0A.35.35,0,0,1,72.4,30Z"/><path class="cls-8" d="M71.87,27.6a.71.71,0,0,1,.39.37.59.59,0,0,1,.07.26.6.6,0,0,1-.07.27.57.57,0,0,1-.24.22.61.61,0,0,1-.33.06"/><path class="cls-9" d="M63.14,27.54a.16.16,0,0,1,0-.09.24.24,0,0,1,.06-.08.21.21,0,0,1,.12-.05.33.33,0,0,1,.14,0,.24.24,0,0,1,.09.08.18.18,0,0,1,0,.12.21.21,0,0,1,0,.13.23.23,0,0,1-.12.06h-.1l-.09,0a.19.19,0,0,1-.07-.06A.36.36,0,0,1,63.14,27.54Z"/><path class="cls-8" d="M60.24,30.24a.73.73,0,0,1,.25-.43.4.4,0,0,1,.2-.09.41.41,0,0,1,.22,0,.56.56,0,0,1,.21.22.66.66,0,0,1,.07.3"/><path class="cls-8" d="M52.05,29.14a.75.75,0,0,1-.26-.44.41.41,0,0,1,0-.22.31.31,0,0,1,.13-.17.66.66,0,0,1,.3-.07.75.75,0,0,1,.3.09"/><path class="cls-9" d="M59,22.48a.16.16,0,0,1,0-.09.16.16,0,0,1,.06-.08.21.21,0,0,1,.12,0,.33.33,0,0,1,.14,0,.24.24,0,0,1,.09.08.18.18,0,0,1,0,.12.21.21,0,0,1-.05.13.23.23,0,0,1-.12.06h-.1l-.09,0-.07-.06A.36.36,0,0,1,59,22.48Z"/><path class="cls-9" d="M49.94,25a.36.36,0,0,1,0-.1.46.46,0,0,1,.07-.07.17.17,0,0,1,.12-.05.29.29,0,0,1,.13,0,.39.39,0,0,1,.1.08.27.27,0,0,1,0,.12.31.31,0,0,1-.06.13.24.24,0,0,1-.11.06h-.1l-.09,0s0,0-.07-.06A.18.18,0,0,1,49.94,25Z"/><path class="cls-8" d="M52.52,21.87a.79.79,0,0,1-.28-.39.28.28,0,0,1,0-.18.31.31,0,0,1,.12-.14.57.57,0,0,1,.29,0,.59.59,0,0,1,.28.1"/><path class="cls-9" d="M55.12,15.09a.16.16,0,0,1,0-.09.16.16,0,0,1,.06-.08.31.31,0,0,1,.12-.05.23.23,0,0,1,.14,0,.17.17,0,0,1,.09.08.24.24,0,0,1,0,.12.18.18,0,0,1-.05.12.24.24,0,0,1-.12.07h-.1l-.09,0-.07-.07A.19.19,0,0,1,55.12,15.09Z"/><path class="cls-9" d="M50.79,18a.29.29,0,0,1,0-.09.27.27,0,0,1,.07-.08.17.17,0,0,1,.12-.05.29.29,0,0,1,.13,0,.39.39,0,0,1,.1.08.27.27,0,0,1,0,.12.18.18,0,0,1-.06.13.24.24,0,0,1-.11.06H51l-.09,0-.07-.07A.36.36,0,0,1,50.79,18Z"/><path class="cls-8" d="M63.41,23.27c-.07.22,0,.29,0,.33.08.2.41.27.65.23a.82.82,0,0,0,.44-.23.79.79,0,0,0,.19-.45.54.54,0,0,0-.06-.31.72.72,0,0,0-.21-.25.57.57,0,0,0-.28-.11.65.65,0,0,0-.31,0C63.59,22.61,63.53,22.83,63.41,23.27Z"/><path class="cls-10" d="M55.12,13.76a3.75,3.75,0,0,0-2.06,1.14c-.56.62-.84,1.39-.73,1.47s.56-.66,1.66-1.29a10.09,10.09,0,0,1,1.15-.55c1.07-.47,1.5-.57,1.49-.69S55.84,13.62,55.12,13.76Z"/><path class="cls-8" d="M61.78,14.19a.89.89,0,0,1,.27-.4.28.28,0,0,1,.18-.06.27.27,0,0,1,.17.06.71.71,0,0,1,.13.26.76.76,0,0,1,0,.3"/><path class="cls-8" d="M66.73,16.49c.14.08.18.09.21.09s.27-.21.29-.38a.49.49,0,0,0-.07-.33.54.54,0,0,0-.25-.22.55.55,0,0,0-.22,0,.5.5,0,0,0-.2.08.43.43,0,0,0-.14.16.39.39,0,0,0,0,.21C66.33,16.23,66.46,16.32,66.73,16.49Z"/><path class="cls-9" d="M62.78,19.11a.94.94,0,0,1,.06-.24.6.6,0,0,1,.16-.19.67.67,0,0,1,.3-.13.63.63,0,0,1,.33,0,.55.55,0,0,1,.23.2.44.44,0,0,1-.07.59.52.52,0,0,1-.29.16A.62.62,0,0,1,62.78,19.11Z"/><path class="cls-10" d="M48.69,22.68a5.46,5.46,0,0,0,.19,3.48c.48,1.23,1.33,2.29,1.51,2.23s-.52-1.27-.66-3.15c0-.62,0-1.25,0-1.87.07-1.69.22-2.29.06-2.37S49,21.71,48.69,22.68Z"/><path class="cls-11" d="M63.22,25.22a14.53,14.53,0,0,1,3.72-2.75,14.34,14.34,0,0,1,3.12-1.12,13.71,13.71,0,0,1,5.09-.64A12,12,0,0,1,79.45,22a13.52,13.52,0,0,1,6,6.38,15.34,15.34,0,0,1,1.36,5.49,12.76,12.76,0,0,1-.71,5.6c-1.75,4.53-6,6.6-7.84,7.47a14.43,14.43,0,0,1-2.53,1c-1,.26-6.07,1.53-10.27-1.34-3-2.06-4.39-5.46-5.32-7.76a10.13,10.13,0,0,1-.71-3.27,12.57,12.57,0,0,1,.47-5.14A12.67,12.67,0,0,1,63.22,25.22Z"/><path class="cls-12" d="M73.29,26.15c-.13,0-.75.17-.84.5s.56.61.6.63a2.62,2.62,0,0,0,1.81-.07c.25-.13.45-.35.36-.59s-.64-.46-.73-.48a2.56,2.56,0,0,0-1.2,0Z"/><path class="cls-12" d="M68,30.11c-.13,0-.75.17-.85.5s.57.62.6.63a2.68,2.68,0,0,0,1.81-.06c.26-.14.45-.36.36-.6s-.64-.45-.72-.47a2.7,2.7,0,0,0-1.2,0Z"/><path class="cls-12" d="M79,29.57a1,1,0,0,0-.64.71,1,1,0,0,0,.46.9,1.08,1.08,0,0,0,.7.19,1.09,1.09,0,0,0,.66-.28.93.93,0,0,0,.28-.85.94.94,0,0,0-.2-.4,1,1,0,0,0-.35-.28,1.18,1.18,0,0,0-.46-.09A1,1,0,0,0,79,29.57Z"/><path class="cls-12" d="M74.32,31.85c-.07,0-.42.17-.47.49a.68.68,0,0,0,.34.63.89.89,0,0,0,.52.14.92.92,0,0,0,.5-.2.71.71,0,0,0,.18-.27.74.74,0,0,0,0-.33.76.76,0,0,0-.15-.28.7.7,0,0,0-.26-.19.77.77,0,0,0-.34-.07.81.81,0,0,0-.34.08Z"/><path class="cls-12" d="M77.73,34a.49.49,0,0,1,0-.2.48.48,0,0,1,.13-.16.66.66,0,0,1,.24-.11.53.53,0,0,1,.28,0,.48.48,0,0,1,.19.16.55.55,0,0,1,.07.25.58.58,0,0,1-.12.25.41.41,0,0,1-.25.13.49.49,0,0,1-.37-.06.48.48,0,0,1-.22-.3Z"/><path class="cls-12" d="M66.23,34.59a.53.53,0,0,1,0-.2.48.48,0,0,1,.13-.16.51.51,0,0,1,.25-.1.45.45,0,0,1,.46.19.45.45,0,0,1,.07.25.58.58,0,0,1-.12.25.41.41,0,0,1-.25.13.46.46,0,0,1-.36-.06A.53.53,0,0,1,66.23,34.59Z"/><path class="cls-12" d="M67.68,27.17a.94.94,0,0,1,0-.62.39.39,0,0,1,.13-.2.4.4,0,0,1,.23-.08,1,1,0,0,1,.35.15,1,1,0,0,1,.24.29"/><path class="cls-12" d="M63.88,30.31a.91.91,0,0,1-.28-.58.44.44,0,0,1,0-.27.49.49,0,0,1,.18-.2.75.75,0,0,1,.39,0,.7.7,0,0,1,.37.14"/><path class="cls-12" d="M78.4,38.23a2,2,0,0,1,.32-.92c0-.06.28-.34.52-.12a1.62,1.62,0,0,1,.35,1.11"/><path class="cls-12" d="M68.71,41.12a1.06,1.06,0,0,1,.67-.34.64.64,0,0,1,.34,0A.71.71,0,0,1,70,41a.88.88,0,0,1,.11.45.83.83,0,0,1-.13.43"/><path class="cls-12" d="M76.48,42.16a.54.54,0,0,1,.07-.47.54.54,0,0,1,.18-.19.58.58,0,0,1,.26-.06.46.46,0,0,1,.25.08.37.37,0,0,1,.17.2"/><path class="cls-12" d="M82.11,39.58a.63.63,0,0,0-.06.33.67.67,0,0,0,.1.32.69.69,0,0,0,.67.2.81.81,0,0,0,.42-.26.73.73,0,0,0,.19-.46.67.67,0,0,0-.07-.31.69.69,0,0,0-.22-.23.75.75,0,0,0-.29-.09.61.61,0,0,0-.3.05.64.64,0,0,0-.27.18.77.77,0,0,0-.17.27Z"/><path class="cls-13" d="M80.88,35.7a.31.31,0,0,1,.13-.27.46.46,0,0,1,.19-.08.44.44,0,0,1,.2,0,.33.33,0,0,1,.2.31.42.42,0,0,1-.09.19.44.44,0,0,1-.19.1.4.4,0,0,1-.28,0A.36.36,0,0,1,80.88,35.7Z"/><path class="cls-13" d="M83.83,33.52a.31.31,0,0,1,.13-.27.46.46,0,0,1,.19-.08.34.34,0,0,1,.2,0,.28.28,0,0,1,.14.12.3.3,0,0,1,.06.18.42.42,0,0,1-.09.19.35.35,0,0,1-.19.1.4.4,0,0,1-.28,0A.38.38,0,0,1,83.83,33.52Z"/><path class="cls-13" d="M77.85,25.58a.42.42,0,0,1,0-.15.35.35,0,0,1,.1-.11.34.34,0,0,1,.19-.09.36.36,0,0,1,.2,0,.28.28,0,0,1,.14.12.31.31,0,0,1,0,.18.34.34,0,0,1-.09.19.32.32,0,0,1-.18.1.4.4,0,0,1-.28,0A.4.4,0,0,1,77.85,25.58Z"/><path class="cls-13" d="M81.46,27.64a.42.42,0,0,1,0-.15.53.53,0,0,1,.1-.12.41.41,0,0,1,.19-.08.36.36,0,0,1,.2,0,.28.28,0,0,1,.14.12.29.29,0,0,1,.05.18.34.34,0,0,1-.09.19.32.32,0,0,1-.18.1.4.4,0,0,1-.28,0A.4.4,0,0,1,81.46,27.64Z"/><path class="cls-13" d="M79.83,41.31a.27.27,0,0,1,0-.12.32.32,0,0,1,.08-.09.35.35,0,0,1,.14-.06.26.26,0,0,1,.15,0,.2.2,0,0,1,.11.09.27.27,0,0,1,0,.14.21.21,0,0,1-.07.15.22.22,0,0,1-.14.08.31.31,0,0,1-.21,0A.31.31,0,0,1,79.83,41.31Z"/><path class="cls-13" d="M76.26,39.45a.2.2,0,0,1,0-.11.24.24,0,0,1,.08-.09.27.27,0,0,1,.14-.07.41.41,0,0,1,.16,0,.26.26,0,0,1,.11.1.23.23,0,0,1,0,.14.27.27,0,0,1-.07.14.29.29,0,0,1-.14.08.28.28,0,0,1-.35-.21Z"/><path class="cls-13" d="M72.11,38.55a.31.31,0,0,1,0-.13.31.31,0,0,1,.09-.11.29.29,0,0,1,.16-.07.36.36,0,0,1,.18,0,.24.24,0,0,1,.13.11.34.34,0,0,1,0,.17.3.3,0,0,1-.08.16.42.42,0,0,1-.17.1.34.34,0,0,1-.24,0A.28.28,0,0,1,72.11,38.55Z"/><path class="cls-13" d="M71.71,43.39a.27.27,0,0,1,0-.12.18.18,0,0,1,.08-.09.25.25,0,0,1,.14-.06.29.29,0,0,1,.16,0,.35.35,0,0,1,.11.1.22.22,0,0,1,0,.14.25.25,0,0,1-.06.14.28.28,0,0,1-.15.08.26.26,0,0,1-.21,0A.31.31,0,0,1,71.71,43.39Z"/><path class="cls-13" d="M67.2,42.74a.27.27,0,0,1,0-.12.28.28,0,0,1,.07-.09.34.34,0,0,1,.15-.06.26.26,0,0,1,.15,0,.2.2,0,0,1,.11.09.23.23,0,0,1,0,.14.26.26,0,0,1-.07.15.21.21,0,0,1-.14.07.26.26,0,0,1-.21,0A.27.27,0,0,1,67.2,42.74Z"/><path class="cls-13" d="M66.16,38.83a.2.2,0,0,1,0-.11.18.18,0,0,1,.08-.09.27.27,0,0,1,.14-.07.36.36,0,0,1,.15,0,.29.29,0,0,1,.12.1.22.22,0,0,1,0,.14.25.25,0,0,1-.06.14.29.29,0,0,1-.14.08.33.33,0,0,1-.22,0A.3.3,0,0,1,66.16,38.83Z"/><path class="cls-13" d="M71.82,24.06a.2.2,0,0,1,0-.11.25.25,0,0,1,.08-.1.35.35,0,0,1,.14-.06.25.25,0,0,1,.15,0,.23.23,0,0,1,.12.1.33.33,0,0,1,0,.14.37.37,0,0,1-.07.14.29.29,0,0,1-.14.08.34.34,0,0,1-.22,0A.31.31,0,0,1,71.82,24.06Z"/><path class="cls-13" d="M73.84,21.94a.27.27,0,0,1,0-.12.16.16,0,0,1,.07-.09.34.34,0,0,1,.15-.06.26.26,0,0,1,.15,0,.2.2,0,0,1,.11.09.23.23,0,0,1,0,.14.21.21,0,0,1-.07.15.21.21,0,0,1-.14.07.26.26,0,0,1-.21,0A.27.27,0,0,1,73.84,21.94Z"/><path class="cls-13" d="M72,22.09A.27.27,0,0,1,72,22l.08-.09a.35.35,0,0,1,.14-.06.3.3,0,0,1,.16,0,.31.31,0,0,1,.11.09.37.37,0,0,1,0,.14.26.26,0,0,1-.07.15.39.39,0,0,1-.14.08.34.34,0,0,1-.22,0A.31.31,0,0,1,72,22.09Z"/><path class="cls-14" d="M36.56,27.25a17.8,17.8,0,0,1,4.52-3.33,17.35,17.35,0,0,1,10-1.71,16.74,16.74,0,0,1,7,2.63,16.14,16.14,0,0,1,5.46,6.25,16.87,16.87,0,0,1,1.65,6.67,14.65,14.65,0,0,1-.87,6.82c-.53,1.32-1.64,4.07-4.16,5.32-2.06,1-3.76.4-7-.07-9.74-1.42-12.69,1.54-16.71-1.42a12.37,12.37,0,0,1-3.66-4.61,12.61,12.61,0,0,1-.86-4,15.33,15.33,0,0,1,.57-6.25A15.63,15.63,0,0,1,36.56,27.25Z"/><path class="cls-15" d="M44.12,45.38a.55.55,0,0,1,.07-.28.55.55,0,0,1,.18-.22.73.73,0,0,1,.35-.15.78.78,0,0,1,.37,0,.67.67,0,0,1,.27.23.69.69,0,0,1,.09.34.68.68,0,0,1-.17.35.6.6,0,0,1-.33.18A.69.69,0,0,1,44.12,45.38Z"/><path class="cls-15" d="M36.06,43.81a.69.69,0,0,1,.14-.3.92.92,0,0,1,.25-.23.87.87,0,0,1,.32-.11.75.75,0,0,1,.33,0,.86.86,0,0,1,.31.26.81.81,0,0,1,.12.38"/><path class="cls-16" d="M40.92,48.11A.2.2,0,0,1,41,48a.28.28,0,0,1,.07-.09.35.35,0,0,1,.14-.06.39.39,0,0,1,.15,0,.22.22,0,0,1,.1.09.23.23,0,0,1,0,.14.26.26,0,0,1-.06.13.26.26,0,0,1-.13.08h-.11l-.1,0a.19.19,0,0,1-.08-.07A.19.19,0,0,1,40.92,48.11Z"/><path class="cls-15" d="M45.73,32.83c-.34.21-.4.3-.43.38-.13.35.19.83.54,1.06a1.33,1.33,0,0,0,1.62-.11,1.1,1.1,0,0,0,.28-.46,1.15,1.15,0,0,0,0-.55,1.11,1.11,0,0,0-.22-.48,1.06,1.06,0,0,0-.43-.32C46.76,32.22,46.41,32.42,45.73,32.83Z"/><path class="cls-15" d="M41.54,35.4A.88.88,0,0,0,41,36a.86.86,0,0,0,.38.76,1,1,0,0,0,1.17-.07.9.9,0,0,0,.2-.34.86.86,0,0,0,0-.39.84.84,0,0,0-.17-.34.89.89,0,0,0-.3-.24,1,1,0,0,0-.38-.08.86.86,0,0,0-.39.09Z"/><path class="cls-15" d="M57,31a.88.88,0,0,0-.54.61.84.84,0,0,0,.39.76.94.94,0,0,0,.59.16,1,1,0,0,0,.57-.23.9.9,0,0,0,.2-.34.86.86,0,0,0,0-.39.84.84,0,0,0-.17-.34.89.89,0,0,0-.3-.24,1,1,0,0,0-.38-.08A.86.86,0,0,0,57,31Z"/><path class="cls-15" d="M50.88,26.65a.5.5,0,0,1,.06-.24.53.53,0,0,1,.16-.2.67.67,0,0,1,.3-.13.73.73,0,0,1,.33,0,.52.52,0,0,1,.24.2.61.61,0,0,1,.08.3.64.64,0,0,1-.15.31.55.55,0,0,1-.3.16A.62.62,0,0,1,50.88,26.65Z"/><path class="cls-15" d="M41.54,28.69a1.18,1.18,0,0,1,.33-.68.51.51,0,0,1,.26-.14.47.47,0,0,1,.29.05,1,1,0,0,1,.37.82"/><path class="cls-15" d="M36.28,36.89a1.46,1.46,0,0,1-.74-.47.42.42,0,0,1,0-.57,1.27,1.27,0,0,1,1-.22"/><path class="cls-16" d="M51.61,34.42a.41.41,0,0,1,0-.19A.49.49,0,0,1,52,34a.54.54,0,0,1,.25,0,.41.41,0,0,1,.17.15.38.38,0,0,1,.06.23.39.39,0,0,1-.11.22.43.43,0,0,1-.22.12.45.45,0,0,1-.34-.05A.47.47,0,0,1,51.61,34.42Z"/><path class="cls-16" d="M37.09,31.75a.28.28,0,0,1,0-.18.44.44,0,0,1,.12-.15.6.6,0,0,1,.23-.1.5.5,0,0,1,.24,0,.4.4,0,0,1,.18.16.29.29,0,0,1,.06.22.38.38,0,0,1-.11.23.43.43,0,0,1-.22.12.46.46,0,0,1-.34-.06A.43.43,0,0,1,37.09,31.75Z"/><path class="cls-16" d="M57.35,36.17a.44.44,0,0,1,.18-.33.55.55,0,0,1,.22-.1.52.52,0,0,1,.25,0,.5.5,0,0,1,.17.15.39.39,0,0,1,.07.23.48.48,0,0,1-.12.22.4.4,0,0,1-.22.12.46.46,0,0,1-.34-.05A.47.47,0,0,1,57.35,36.17Z"/><path class="cls-16" d="M50.23,39.75a.37.37,0,0,1,0-.18.44.44,0,0,1,.12-.15.5.5,0,0,1,.23-.09.43.43,0,0,1,.25,0,.44.44,0,0,1,.17.16.33.33,0,0,1,.06.22A.52.52,0,0,1,51,40a.47.47,0,0,1-.57.06A.45.45,0,0,1,50.23,39.75Z"/><path class="cls-16" d="M46.3,38.77a.41.41,0,0,1,.05-.19.49.49,0,0,1,.35-.24.54.54,0,0,1,.25,0,.41.41,0,0,1,.17.15.37.37,0,0,1,.06.22.38.38,0,0,1-.11.23.43.43,0,0,1-.22.12.45.45,0,0,1-.34-.05A.47.47,0,0,1,46.3,38.77Z"/><path class="cls-16" d="M47,24.8c-.11-.13,0-.34,0-.38a.71.71,0,0,1,.19-.23.66.66,0,0,1,.27-.12.43.43,0,0,1,.25,0,.42.42,0,0,1,.19.16.45.45,0,0,1,0,.28.45.45,0,0,1-.16.22A.57.57,0,0,1,47,24.8Z"/><path class="cls-16" d="M46.68,29.34a.27.27,0,0,1,0-.12.34.34,0,0,1,.08-.09.34.34,0,0,1,.15-.07.29.29,0,0,1,.16,0,.29.29,0,0,1,.12.1.28.28,0,0,1,0,.15.3.3,0,0,1-.07.15.28.28,0,0,1-.15.08.29.29,0,0,1-.22,0A.28.28,0,0,1,46.68,29.34Z"/><path class="cls-17" d="M52.84,9.11A6,6,0,0,1,53,10.8a1.89,1.89,0,0,0,0,1,1.61,1.61,0,0,0,.43.51,1.83,1.83,0,0,0,.59.3,9.12,9.12,0,0,0,3.52.43,26.18,26.18,0,0,1,4.68.24A13.55,13.55,0,0,1,66.78,15c1.74,1,4.64,3.28,4.94,5.28a1.47,1.47,0,0,0,.39.94c.5.49,1.2.23,2.3.56a7.76,7.76,0,0,1,1.35.68,8.36,8.36,0,0,1,3.13,2.42,6.18,6.18,0,0,1,.85,1.91A5.59,5.59,0,0,1,80,29.13c-.12.88-.42,1.12-.26,1.61s.74.66,1.28,1.13a3.77,3.77,0,0,1,.85,4.29c-.34.64-.9,1-2.13,1.61A21.19,21.19,0,0,1,74,39.62a118.74,118.74,0,0,1-13,1.07A104.12,104.12,0,0,1,50,40.38c-3.7-.34-12.38-1.16-12.89-4a4.19,4.19,0,0,1,.28-1.82,7.33,7.33,0,0,1,2-3A5.45,5.45,0,0,1,41.71,30c.77-.25,1.42-.21,1.54-.56s-.31-.51-.69-1.19a4.38,4.38,0,0,1-.51-2.1,3.94,3.94,0,0,1,.64-2c.73-1.26,1.54-1.66,3.33-3.11s2.79-2.24,3.2-3.1A10.41,10.41,0,0,0,50,14.3a5,5,0,0,1,.2-2.3,5.12,5.12,0,0,1,1.27-1.75,8.11,8.11,0,0,1,1.4-1.14"/><path class="cls-18" d="M52.84,9.11a4.06,4.06,0,0,0-1,2.36,2.52,2.52,0,0,0,.52,1.88c.43.42,1,.42,2,.49,0,0,1.41.1,3.77.31a24.62,24.62,0,0,1,3.33.56,13.13,13.13,0,0,1,4,1.38,6.53,6.53,0,0,1,3.27,3.41,5.43,5.43,0,0,1-.26,4c-.81,1.57-2.24,2.19-4.35,3.09a14.81,14.81,0,0,1-7.3,1.49c-3.3-.27-5.57-1.82-5.76-1.5s.92,1.05,1.79,1.56a9.47,9.47,0,0,0,3.41,1.05,16.77,16.77,0,0,0,5.1.06,18.35,18.35,0,0,0,6.79-2.53,7.39,7.39,0,0,0,3.4-3.16c.08-.17,0-.7.32-.94s.67-.14,1.21.06a5.48,5.48,0,0,1,3.12,2.4,4.9,4.9,0,0,1,.07,4.85c-.74,1.18-1.87,1.58-4,2.3-1.4.48-2.91.82-7.59,1.32-2.67.28-4,.42-4.92.42-5,.12-8.43-.84-8.52-.49,0,.2,1.16.66,1.8.86a14.8,14.8,0,0,0,5,.69c4.9,0,3.89.28,6.59.19a28.85,28.85,0,0,0,7.3-.81,23.25,23.25,0,0,0,4.8-1.55,3.85,3.85,0,0,1,1.91-.69,2,2,0,0,1,1.17.19,2.21,2.21,0,0,1,.85,2c-.07.51-.43,1.56-2.75,2.67-4.1,1.95-9.39,1.76-18.41,2-3.22.09-6.45-.06-9.66.06a37.9,37.9,0,0,1-5-.24c-2.62-.29-3.94-.69-4.87-1.69a2.61,2.61,0,0,1-.82-1.79c0-1,.85-1.64,1.66-2.3a6.33,6.33,0,0,1,3.33-1.62c2.23-.25,4,1.15,4.16.94s-.76-.6-1.86-1.68a6.17,6.17,0,0,1-1.6-2,4.71,4.71,0,0,1-.19-2.92,5.11,5.11,0,0,1,1.27-2.35A5.64,5.64,0,0,1,48.43,22a14.21,14.21,0,0,1,3.08-.43c2-.22,2.55-.29,3-.37a8.23,8.23,0,0,0,3.08-.8,3.31,3.31,0,0,0,1.6-2.18,2.49,2.49,0,0,0-.2-1.26c-.3-.72-.94-1.26-1.09-1.18s.2.5.26,1.31a2.65,2.65,0,0,1-.32,1.74c-.19.27-.45.42-1.79.8a28.11,28.11,0,0,1-3.14.75c-1.54.28-1.93.25-2.24,0a1.22,1.22,0,0,1-.34-.44,1.15,1.15,0,0,1-.11-.55c.06-.59.65-.66,1.28-1.54a3.09,3.09,0,0,0,.64-1.7,3.13,3.13,0,0,0-.32-1.37c-.27-.64-.5-.71-.7-1.24A3,3,0,0,1,51,12.14,4.88,4.88,0,0,1,52.84,9.11Z"/><path class="cls-19" d="M64.87,17.06a5.14,5.14,0,0,1,1.47.9,4.53,4.53,0,0,1,1.54,2.17c.6,2.11-1.17,4-1.41,4.29a8.29,8.29,0,0,1-3.13,1.74c-2.51,1-5,1.54-5.06,1.36a30.6,30.6,0,0,1,2.95-1.43,14.16,14.16,0,0,0,3.13-1.8,4.45,4.45,0,0,0,1.92-2.79,10.58,10.58,0,0,0-.89-3.05c-.21-.56-.39-1-.52-1.37"/><path class="cls-19" d="M73.29,24.13a4.27,4.27,0,0,1,1.19.54,3.43,3.43,0,0,1,1.32,1.5,3.62,3.62,0,0,1-.71,3.3A6,6,0,0,1,72.89,31a12.16,12.16,0,0,1-3.67,1.4c-.07-.13.58-.35,2.08-1.29a11,11,0,0,0,2.19-1.58,3.27,3.27,0,0,0,1.21-2.23,7.91,7.91,0,0,0-.91-2.21c-.19-.42-.37-.75-.49-1"/><path class="cls-19" d="M50,22.53a4.22,4.22,0,0,0-1.73.15,4.49,4.49,0,0,0-1.53.84,4.18,4.18,0,0,0-1,3.54,5.65,5.65,0,0,0,1.25,2.4,11,11,0,0,0,2.65,2.86c.09-.08-.36-.57-1.28-2.1a10.88,10.88,0,0,1-1.23-2.44,3.55,3.55,0,0,1,0-2.68,9.75,9.75,0,0,1,1.91-1.79l.93-.77"/><path class="cls-19" d="M43.12,32.81a3.61,3.61,0,0,0-.85.25,2,2,0,0,0-1,.8c-.48.84.31,1.82.42,1.94a4.73,4.73,0,0,0,1.52,1,9.92,9.92,0,0,0,2.55,1c.05-.07-.4-.23-1.44-.84a8.22,8.22,0,0,1-1.51-1c-.39-.39-.85-.84-.8-1.36,0-.2.24-.54.69-1.22.15-.23.28-.42.37-.54"/><path class="cls-20" d="M31.8,45.11c.05.62.09,1.23.14,1.84l5.17,72.13c0,.29,0,.72,0,1.25,0,1.16.08,1.75.35,2.1s.54.4.77.88a2.41,2.41,0,0,1,.17.58v5a1.14,1.14,0,0,0,0,.52,1.54,1.54,0,0,0,.65.81c3.24,2.16,14.86,2.05,14.86,2.05,3.39,0,2.56,0,5.26,0a83.92,83.92,0,0,0,13.9-.92,55.79,55.79,0,0,0,6.39-1.47l.3-3.73a3.75,3.75,0,0,1,0-1.7,8,8,0,0,1,.65-1.58A10.66,10.66,0,0,0,81,121L85.72,50a14.59,14.59,0,0,1,0-1.87A19.29,19.29,0,0,1,86,45.65Z"/><path class="cls-20" d="M29.56,38.46a1.29,1.29,0,0,1,.59.65c.12.32,0,.55-.06,1.11a8.16,8.16,0,0,0-.06,1.4,4,4,0,0,0,.48,1.46,9.18,9.18,0,0,0,1.29,2c30.87,1,53.51,1.24,54.22.54a7.77,7.77,0,0,0,.71-.81,8.23,8.23,0,0,0,.77-1.35,10.81,10.81,0,0,0,.83-1.87c.12-.58,0-.69.11-1.92,0-.45.09-.82.12-1.06Z"/><path class="cls-21" d="M90.5,36.89H28.33a.24.24,0,0,0-.24.24v1.39a.24.24,0,0,0,.24.24H90.5a.24.24,0,0,0,.24-.24V37.13A.24.24,0,0,0,90.5,36.89Z"/><path class="cls-22" d="M37.14,120.87a2.78,2.78,0,0,0,0,.76,2.46,2.46,0,0,0,.48,1,1.86,1.86,0,0,0,.38.36,3,3,0,0,0,1.36.54c13.52,1.83,20.28,2.74,40.81-.21a9.39,9.39,0,0,0,.52-1.33,9.77,9.77,0,0,0,.27-1Z"/><path class="cls-23" d="M71.63,36.89H82.78L75.52,130.7Z"/></g></g></svg>