<svg xmlns="http://www.w3.org/2000/svg" xmlns:xlink="http://www.w3.org/1999/xlink" viewBox="0 0 119.55 158.02"><defs><style>.cls-1{fill:none;}.cls-2{fill:#08b7b3;}.cls-3{clip-path:url(#clip-path);}.cls-4{fill:url(#radial-gradient);}.cls-5{fill:url(#linear-gradient);}.cls-6{fill:url(#radial-gradient-2);}.cls-7{fill:url(#radial-gradient-3);}.cls-8{fill:url(#radial-gradient-4);}.cls-9{fill:url(#radial-gradient-5);}.cls-10{fill:url(#radial-gradient-6);}.cls-11{fill:url(#radial-gradient-7);}.cls-12{fill:url(#radial-gradient-8);}.cls-13{fill:url(#radial-gradient-9);}.cls-14{fill:url(#radial-gradient-10);}.cls-15{fill:url(#radial-gradient-11);}.cls-16{fill:url(#radial-gradient-12);}.cls-17{fill:url(#radial-gradient-13);}.cls-18{fill:url(#radial-gradient-14);}.cls-19{fill:url(#radial-gradient-15);}.cls-20{fill:url(#radial-gradient-16);}.cls-21{fill:url(#radial-gradient-17);}.cls-22{fill:url(#radial-gradient-18);}.cls-23{fill:url(#radial-gradient-19);}.cls-24{fill:url(#radial-gradient-20);}.cls-25{fill:url(#radial-gradient-21);}.cls-26{fill:url(#radial-gradient-22);}.cls-27{fill:url(#radial-gradient-23);}.cls-28{fill:url(#radial-gradient-24);}.cls-29{fill:url(#radial-gradient-25);}.cls-30{fill:url(#radial-gradient-26);}.cls-31{fill:url(#radial-gradient-27);}.cls-32{fill:url(#radial-gradient-28);}.cls-33{fill:url(#radial-gradient-29);}.cls-34{fill:url(#radial-gradient-30);}.cls-35{fill:url(#radial-gradient-31);}.cls-36{fill:url(#radial-gradient-32);}.cls-37{fill:url(#radial-gradient-33);}.cls-38{fill:url(#radial-gradient-34);}.cls-39{fill:url(#radial-gradient-35);}.cls-40{fill:url(#radial-gradient-36);}.cls-41{clip-path:url(#clip-path-2);}.cls-42{fill:url(#radial-gradient-37);}.cls-43{fill:url(#linear-gradient-2);}.cls-44{fill:url(#radial-gradient-38);}.cls-45{fill:url(#radial-gradient-39);}.cls-46{fill:url(#radial-gradient-40);}.cls-47{fill:url(#radial-gradient-41);}.cls-48{fill:url(#radial-gradient-42);}.cls-49{fill:url(#radial-gradient-43);}.cls-50{fill:url(#radial-gradient-44);}.cls-51{fill:url(#radial-gradient-45);}.cls-52{fill:url(#radial-gradient-46);}.cls-53{fill:url(#radial-gradient-47);}.cls-54{fill:url(#radial-gradient-48);}.cls-55{fill:url(#radial-gradient-49);}.cls-56{fill:url(#radial-gradient-50);}.cls-57{fill:url(#radial-gradient-51);}.cls-58{fill:url(#radial-gradient-52);}.cls-59{fill:url(#radial-gradient-53);}.cls-60{fill:url(#radial-gradient-54);}.cls-61{fill:url(#radial-gradient-55);}.cls-62{fill:url(#radial-gradient-56);}.cls-63{fill:url(#radial-gradient-57);}.cls-64{fill:url(#radial-gradient-58);}.cls-65{fill:url(#radial-gradient-59);}.cls-66{fill:url(#radial-gradient-60);}.cls-67{fill:url(#radial-gradient-61);}.cls-68{fill:url(#radial-gradient-62);}.cls-69{fill:url(#radial-gradient-63);}.cls-70{fill:url(#radial-gradient-64);}.cls-71{fill:url(#radial-gradient-65);}.cls-72{fill:url(#radial-gradient-66);}.cls-73{fill:url(#radial-gradient-67);}.cls-74{fill:url(#radial-gradient-68);}.cls-75{fill:url(#radial-gradient-69);}.cls-76{fill:url(#radial-gradient-70);}.cls-77{fill:url(#radial-gradient-71);}.cls-78{fill:url(#radial-gradient-72);}.cls-79{clip-path:url(#clip-path-3);}.cls-80{fill:url(#radial-gradient-73);}.cls-81{fill:url(#linear-gradient-3);}.cls-82{fill:url(#radial-gradient-74);}.cls-83{fill:url(#radial-gradient-75);}.cls-84{fill:url(#radial-gradient-76);}.cls-85{fill:url(#radial-gradient-77);}.cls-86{fill:url(#radial-gradient-78);}.cls-87{fill:url(#radial-gradient-79);}.cls-88{fill:url(#radial-gradient-80);}.cls-89{fill:url(#radial-gradient-81);}.cls-90{fill:url(#radial-gradient-82);}.cls-91{fill:url(#radial-gradient-83);}.cls-92{fill:url(#radial-gradient-84);}.cls-93{fill:url(#radial-gradient-85);}.cls-94{fill:url(#radial-gradient-86);}.cls-95{fill:url(#radial-gradient-87);}.cls-96{fill:url(#radial-gradient-88);}.cls-97{fill:url(#radial-gradient-89);}.cls-98{fill:url(#radial-gradient-90);}.cls-99{fill:url(#radial-gradient-91);}.cls-100{fill:url(#radial-gradient-92);}.cls-101{fill:url(#radial-gradient-93);}.cls-102{fill:url(#radial-gradient-94);}.cls-103{fill:url(#radial-gradient-95);}.cls-104{fill:url(#radial-gradient-96);}.cls-105{fill:url(#radial-gradient-97);}.cls-106{fill:url(#radial-gradient-98);}.cls-107{fill:url(#radial-gradient-99);}.cls-108{fill:url(#radial-gradient-100);}.cls-109{fill:url(#radial-gradient-101);}.cls-110{fill:url(#radial-gradient-102);}.cls-111{fill:url(#radial-gradient-103);}.cls-112{fill:url(#radial-gradient-104);}.cls-113{fill:url(#radial-gradient-105);}.cls-114{fill:url(#radial-gradient-106);}.cls-115{fill:url(#radial-gradient-107);}.cls-116{fill:url(#radial-gradient-108);}</style><clipPath id="clip-path"><polygon class="cls-1" points="67.83 9.46 94.41 13.61 70.25 158.01 43.67 153.85 67.83 9.46"/></clipPath><radialGradient id="radial-gradient" cx="-2201.46" cy="-1622.5" r="1.07" gradientTransform="matrix(22.93, 3.59, 3.53, -22.54, 56251.54, -28551.22)" gradientUnits="userSpaceOnUse"><stop offset="0" stop-color="#d0c5a3"/><stop offset="0.57" stop-color="#cec3a1"/><stop offset="0.72" stop-color="#cbbf9d"/><stop offset="0.82" stop-color="#c7b998"/><stop offset="0.97" stop-color="#baa989"/><stop offset="1" stop-color="#b6a485"/></radialGradient><linearGradient id="linear-gradient" x1="-503.71" y1="-3961.81" x2="-477.16" y2="-3966.25" gradientTransform="matrix(1, 0, 0, -1, 564, -3907.34)" gradientUnits="userSpaceOnUse"><stop offset="0" stop-color="#e5c47f"/><stop offset="0.32" stop-color="#e3c17d"/><stop offset="0.51" stop-color="#deb974"/><stop offset="0.67" stop-color="#d5ab66"/><stop offset="0.81" stop-color="#c89752"/><stop offset="0.94" stop-color="#b87d38"/><stop offset="1" stop-color="#ae6d29"/></linearGradient><radialGradient id="radial-gradient-2" cx="-1604.47" cy="-2229.15" r="1.07" gradientTransform="matrix(3.01, 0.47, 0.46, -2.96, 5920.02, -5750.13)" gradientUnits="userSpaceOnUse"><stop offset="0" stop-color="#e5c47f"/><stop offset="0.19" stop-color="#e1be79"/><stop offset="0.43" stop-color="#d7ae69"/><stop offset="0.7" stop-color="#c6944f"/><stop offset="0.99" stop-color="#af6f2b"/><stop offset="1" stop-color="#ae6d29"/></radialGradient><radialGradient id="radial-gradient-3" cx="-1840.22" cy="-1989.42" r="1.07" gradientTransform="matrix(4.58, 0.72, 0.7, -4.51, 9901.43, -7555)" xlink:href="#radial-gradient-2"/><radialGradient id="radial-gradient-4" cx="-1604.55" cy="-2228.41" r="1.07" gradientTransform="matrix(3.01, 0.47, 0.46, -2.96, 5942.82, -5761.64)" xlink:href="#radial-gradient-2"/><radialGradient id="radial-gradient-5" cx="-1840.13" cy="-1989.34" r="1.07" gradientTransform="matrix(4.58, 0.72, 0.7, -4.51, 9908.25, -7558.89)" xlink:href="#radial-gradient-2"/><radialGradient id="radial-gradient-6" cx="-1691.01" cy="-2140.89" r="1.07" gradientTransform="matrix(3.45, 0.54, 0.53, -3.39, 7035.49, -6247.08)" xlink:href="#radial-gradient-2"/><radialGradient id="radial-gradient-7" cx="-1402.6" cy="-2433.64" r="1.07" gradientTransform="matrix(2.33, 0.36, 0.36, -2.29, 4215.09, -4968.76)" xlink:href="#radial-gradient-2"/><radialGradient id="radial-gradient-8" cx="-649.42" cy="-3198.73" r="1.07" gradientTransform="matrix(1.26, 0.2, 0.19, -1.24, 1517.21, -3739.56)" xlink:href="#radial-gradient-2"/><radialGradient id="radial-gradient-9" cx="-1321.97" cy="-2515.91" r="1.07" gradientTransform="matrix(2.13, 0.33, 0.33, -2.1, 3706.16, -4753.99)" xlink:href="#radial-gradient-2"/><radialGradient id="radial-gradient-10" cx="-1733.72" cy="-2097.44" r="1.07" gradientTransform="matrix(3.71, 0.58, 0.57, -3.65, 7691.04, -6562.91)" xlink:href="#radial-gradient-2"/><radialGradient id="radial-gradient-11" cx="-1848.97" cy="-1980.23" r="1.07" gradientTransform="matrix(4.68, 0.73, 0.72, -4.6, 10140.47, -7672.68)" xlink:href="#radial-gradient-2"/><radialGradient id="radial-gradient-12" cx="-1594.43" cy="-2238.48" r="1.07" gradientTransform="matrix(2.97, 0.46, 0.46, -2.92, 5833.12, -5720.45)" xlink:href="#radial-gradient-2"/><radialGradient id="radial-gradient-13" cx="-1316.21" cy="-2521.85" r="1.07" gradientTransform="matrix(2.12, 0.33, 0.33, -2.09, 3683.22, -4727.24)" xlink:href="#radial-gradient-2"/><radialGradient id="radial-gradient-14" cx="-1502.25" cy="-2332.5" r="1.07" gradientTransform="matrix(2.62, 0.41, 0.4, -2.58, 4938.42, -5322.19)" xlink:href="#radial-gradient-2"/><radialGradient id="radial-gradient-15" cx="-1727.68" cy="-2103.39" r="1.07" gradientTransform="matrix(3.67, 0.57, 0.56, -3.61, 7591.62, -6526.85)" xlink:href="#radial-gradient-2"/><radialGradient id="radial-gradient-16" cx="-1858.01" cy="-1970.91" r="1.07" gradientTransform="matrix(4.77, 0.75, 0.73, -4.69, 10388.41, -7794.05)" xlink:href="#radial-gradient-2"/><radialGradient id="radial-gradient-17" cx="-1567.25" cy="-2265.82" r="1.07" gradientTransform="matrix(2.86, 0.45, 0.44, -2.81, 5553.56, -5602.22)" xlink:href="#radial-gradient-2"/><radialGradient id="radial-gradient-18" cx="-1527.76" cy="-2306.35" r="1.07" gradientTransform="matrix(2.71, 0.42, 0.42, -2.66, 5160.76, -5431.92)" xlink:href="#radial-gradient-2"/><radialGradient id="radial-gradient-19" cx="-1676.67" cy="-2154.98" r="1.07" gradientTransform="matrix(3.36, 0.53, 0.52, -3.31, 6824.18, -6187.52)" xlink:href="#radial-gradient-2"/><radialGradient id="radial-gradient-20" cx="-1856.55" cy="-1972.23" r="1.07" gradientTransform="matrix(4.76, 0.74, 0.73, -4.68, 10350.18, -7785.44)" xlink:href="#radial-gradient-2"/><radialGradient id="radial-gradient-21" cx="-1571.26" cy="-2261.52" r="1.07" gradientTransform="matrix(2.87, 0.45, 0.44, -2.83, 5595.21, -5629.78)" xlink:href="#radial-gradient-2"/><radialGradient id="radial-gradient-22" cx="-1486.97" cy="-2347.47" r="1.07" gradientTransform="matrix(2.57, 0.4, 0.4, -2.53, 4816.46, -5284.18)" xlink:href="#radial-gradient-2"/><radialGradient id="radial-gradient-23" cx="-1660.99" cy="-2170.67" r="1.07" gradientTransform="matrix(3.28, 0.51, 0.5, -3.23, 6615.55, -6100.73)" xlink:href="#radial-gradient-2"/><radialGradient id="radial-gradient-24" cx="-1815.1" cy="-2014.14" r="1.07" gradientTransform="matrix(4.34, 0.68, 0.67, -4.27, 9306.41, -7319.85)" xlink:href="#radial-gradient-2"/><radialGradient id="radial-gradient-25" cx="-1403.11" cy="-2432.29" r="1.07" gradientTransform="matrix(2.33, 0.36, 0.36, -2.29, 4205.02, -5014.82)" xlink:href="#radial-gradient-2"/><radialGradient id="radial-gradient-26" cx="-1676.66" cy="-2154.59" r="1.07" gradientTransform="matrix(3.36, 0.53, 0.52, -3.31, 6827.69, -6205.75)" xlink:href="#radial-gradient-2"/><radialGradient id="radial-gradient-27" cx="-1804.85" cy="-2024.39" r="1.07" gradientTransform="matrix(4.25, 0.67, 0.65, -4.18, 9076.34, -7224.21)" xlink:href="#radial-gradient-2"/><radialGradient id="radial-gradient-28" cx="-1347.03" cy="-2488.41" r="1.07" gradientTransform="matrix(2.19, 0.34, 0.34, -2.15, 3873.63, -4865.55)" xlink:href="#radial-gradient-2"/><radialGradient id="radial-gradient-29" cx="-1252.19" cy="-2585.11" r="1.07" gradientTransform="matrix(1.99, 0.31, 0.31, -1.96, 3352.3, -4635.57)" xlink:href="#radial-gradient-2"/><radialGradient id="radial-gradient-30" cx="-1659.46" cy="-2171.82" r="1.07" gradientTransform="matrix(3.27, 0.51, 0.5, -3.22, 6598.49, -6109.68)" xlink:href="#radial-gradient-2"/><radialGradient id="radial-gradient-31" cx="-1791.27" cy="-2038" r="1.07" gradientTransform="matrix(4.14, 0.65, 0.64, -4.07, 8786.43, -7100.8)" xlink:href="#radial-gradient-2"/><radialGradient id="radial-gradient-32" cx="-1160.64" cy="-2677.62" r="1.07" gradientTransform="matrix(1.83, 0.29, 0.28, -1.8, 2947.19, -4459.11)" xlink:href="#radial-gradient-2"/><radialGradient id="radial-gradient-33" cx="-1638.41" cy="-2192.96" r="1.07" gradientTransform="matrix(3.17, 0.5, 0.49, -3.11, 6333.75, -5997.43)" xlink:href="#radial-gradient-2"/><radialGradient id="radial-gradient-34" cx="-1320.59" cy="-2514.9" r="1.07" gradientTransform="matrix(2.13, 0.33, 0.33, -2.1, 3724.29, -4806.31)" xlink:href="#radial-gradient-2"/><radialGradient id="radial-gradient-35" cx="-1772.3" cy="-2057.07" r="1.07" gradientTransform="matrix(3.99, 0.62, 0.61, -3.92, 8405.28, -6936.87)" xlink:href="#radial-gradient-2"/><radialGradient id="radial-gradient-36" cx="-1500.03" cy="-2333.52" r="1.07" gradientTransform="matrix(2.62, 0.41, 0.4, -2.57, 4943.41, -5342.26)" xlink:href="#radial-gradient-2"/><clipPath id="clip-path-2"><rect class="cls-1" x="44.31" y="9.02" width="26.78" height="146.75"/></clipPath><radialGradient id="radial-gradient-37" cx="-2216.16" cy="-1635.33" r="1.07" gradientTransform="matrix(23.1, 0, 0, -22.87, 51247.16, -37272.59)" xlink:href="#radial-gradient"/><linearGradient id="linear-gradient-2" x1="-519.7" y1="-3962.24" x2="-492.91" y2="-3962.24" xlink:href="#linear-gradient"/><radialGradient id="radial-gradient-38" cx="-1716.42" cy="-2326.89" r="1.07" gradientTransform="matrix(3.03, 0, 0, -3, 5254.34, -6895.06)" xlink:href="#radial-gradient-2"/><radialGradient id="radial-gradient-39" cx="-1913.76" cy="-2053.61" r="1.07" gradientTransform="matrix(4.62, 0, 0, -4.57, 8892.32, -9299.24)" xlink:href="#radial-gradient-2"/><radialGradient id="radial-gradient-40" cx="-1716.43" cy="-2326.08" r="1.07" gradientTransform="matrix(3.04, 0, 0, -3.01, 5274.87, -6909.98)" xlink:href="#radial-gradient-2"/><radialGradient id="radial-gradient-41" cx="-1913.66" cy="-2053.54" r="1.07" gradientTransform="matrix(4.62, 0, 0, -4.57, 8898.37, -9304.16)" xlink:href="#radial-gradient-2"/><radialGradient id="radial-gradient-42" cx="-1788.82" cy="-2226.27" r="1.07" gradientTransform="matrix(3.47, 0, 0, -3.44, 6274.94, -7559.99)" xlink:href="#radial-gradient-2"/><radialGradient id="radial-gradient-43" cx="-1547.35" cy="-2560" r="1.07" gradientTransform="matrix(2.35, 0, 0, -2.32, 3697.76, -5857.13)" xlink:href="#radial-gradient-2"/><radialGradient id="radial-gradient-44" cx="-916.76" cy="-3432.11" r="1.07" gradientTransform="matrix(1.27, 0, 0, -1.26, 1233.57, -4221.89)" xlink:href="#radial-gradient-2"/><radialGradient id="radial-gradient-45" cx="-1479.94" cy="-2653.81" r="1.07" gradientTransform="matrix(2.15, 0, 0, -2.13, 3230.21, -5565.59)" xlink:href="#radial-gradient-2"/><radialGradient id="radial-gradient-46" cx="-1824.6" cy="-2176.78" r="1.07" gradientTransform="matrix(3.74, 0, 0, -3.7, 6870.95, -7974.33)" xlink:href="#radial-gradient-2"/><radialGradient id="radial-gradient-47" cx="-1921.07" cy="-2043.17" r="1.07" gradientTransform="matrix(4.71, 0, 0, -4.66, 9109.16, -9452.82)" xlink:href="#radial-gradient-2"/><radialGradient id="radial-gradient-48" cx="-1707.96" cy="-2337.58" r="1.07" gradientTransform="matrix(2.99, 0, 0, -2.96, 5173.22, -6852.2)" xlink:href="#radial-gradient-2"/><radialGradient id="radial-gradient-49" cx="-1475.07" cy="-2660.52" r="1.07" gradientTransform="matrix(2.14, 0, 0, -2.12, 3211.87, -5535.54)" xlink:href="#radial-gradient-2"/><radialGradient id="radial-gradient-50" cx="-1630.86" cy="-2444.77" r="1.07" gradientTransform="matrix(2.64, 0, 0, -2.61, 4354.59, -6319.18)" xlink:href="#radial-gradient-2"/><radialGradient id="radial-gradient-51" cx="-1819.55" cy="-2183.59" r="1.07" gradientTransform="matrix(3.7, 0, 0, -3.66, 6778.59, -7923.22)" xlink:href="#radial-gradient-2"/><radialGradient id="radial-gradient-52" cx="-1928.64" cy="-2032.56" r="1.07" gradientTransform="matrix(4.81, 0, 0, -4.76, 9334.23, -9611.42)" xlink:href="#radial-gradient-2"/><radialGradient id="radial-gradient-53" cx="-1685.21" cy="-2368.79" r="1.07" gradientTransform="matrix(2.88, 0, 0, -2.85, 4916.38, -6691.81)" xlink:href="#radial-gradient-2"/><radialGradient id="radial-gradient-54" cx="-1652.22" cy="-2414.99" r="1.07" gradientTransform="matrix(2.73, 0, 0, -2.7, 4556.28, -6462.3)" xlink:href="#radial-gradient-2"/><radialGradient id="radial-gradient-55" cx="-1776.85" cy="-2242.43" r="1.07" gradientTransform="matrix(3.39, 0, 0, -3.36, 6075.93, -7468.28)" xlink:href="#radial-gradient-2"/><radialGradient id="radial-gradient-56" cx="-1927.42" cy="-2034.09" r="1.07" gradientTransform="matrix(4.79, 0, 0, -4.74, 9297.84, -9596.96)" xlink:href="#radial-gradient-2"/><radialGradient id="radial-gradient-57" cx="-1688.57" cy="-2363.91" r="1.07" gradientTransform="matrix(2.9, 0, 0, -2.87, 4953.01, -6725.56)" xlink:href="#radial-gradient-2"/><radialGradient id="radial-gradient-58" cx="-1618.07" cy="-2461.9" r="1.07" gradientTransform="matrix(2.59, 0, 0, -2.56, 4240.28, -6262.66)" xlink:href="#radial-gradient-2"/><radialGradient id="radial-gradient-59" cx="-1763.73" cy="-2260.35" r="1.07" gradientTransform="matrix(3.31, 0, 0, -3.27, 5884.01, -7350.01)" xlink:href="#radial-gradient-2"/><radialGradient id="radial-gradient-60" cx="-1892.72" cy="-2081.89" r="1.07" gradientTransform="matrix(4.38, 0, 0, -4.33, 8342.84, -8974.19)" xlink:href="#radial-gradient-2"/><radialGradient id="radial-gradient-61" cx="-1547.88" cy="-2558.65" r="1.07" gradientTransform="matrix(2.35, 0, 0, -2.32, 3680.3, -5901.18)" xlink:href="#radial-gradient-2"/><radialGradient id="radial-gradient-62" cx="-1776.84" cy="-2242.04" r="1.07" gradientTransform="matrix(3.39, 0, 0, -3.36, 6076.38, -7486.88)" xlink:href="#radial-gradient-2"/><radialGradient id="radial-gradient-63" cx="-1884.14" cy="-2093.59" r="1.07" gradientTransform="matrix(4.28, 0, 0, -4.24, 8131.18, -8843.83)" xlink:href="#radial-gradient-2"/><radialGradient id="radial-gradient-64" cx="-1500.86" cy="-2622.68" r="1.07" gradientTransform="matrix(2.21, 0, 0, -2.19, 3377.21, -5702.02)" xlink:href="#radial-gradient-2"/><radialGradient id="radial-gradient-65" cx="-1421.54" cy="-2732.93" r="1.07" gradientTransform="matrix(2.01, 0, 0, -1.99, 2899.92, -5393.5)" xlink:href="#radial-gradient-2"/><radialGradient id="radial-gradient-66" cx="-1762.44" cy="-2261.72" r="1.07" gradientTransform="matrix(3.3, 0, 0, -3.27, 5865.67, -7356.23)" xlink:href="#radial-gradient-2"/><radialGradient id="radial-gradient-67" cx="-1872.77" cy="-2109.14" r="1.07" gradientTransform="matrix(4.17, 0, 0, -4.13, 7864.97, -8676.71)" xlink:href="#radial-gradient-2"/><radialGradient id="radial-gradient-68" cx="-1344.9" cy="-2838.45" r="1.07" gradientTransform="matrix(1.84, 0, 0, -1.83, 2528.55, -5156)" xlink:href="#radial-gradient-2"/><radialGradient id="radial-gradient-69" cx="-1744.83" cy="-2285.85" r="1.07" gradientTransform="matrix(3.19, 0, 0, -3.16, 5622.46, -7204.05)" xlink:href="#radial-gradient-2"/><radialGradient id="radial-gradient-70" cx="-1478.73" cy="-2652.93" r="1.07" gradientTransform="matrix(2.15, 0, 0, -2.13, 3239.36, -5620.22)" xlink:href="#radial-gradient-2"/><radialGradient id="radial-gradient-71" cx="-1856.9" cy="-2130.91" r="1.07" gradientTransform="matrix(4.02, 0, 0, -3.98, 7515.23, -8455.32)" xlink:href="#radial-gradient-2"/><radialGradient id="radial-gradient-72" cx="-1628.94" cy="-2446.04" r="1.07" gradientTransform="matrix(2.63, 0, 0, -2.61, 4356.09, -6339.84)" xlink:href="#radial-gradient-2"/><clipPath id="clip-path-3"><polygon class="cls-1" points="15.46 14.35 41.91 9.46 70.36 153.12 43.92 158.02 15.46 14.35"/></clipPath><radialGradient id="radial-gradient-73" cx="-2236.54" cy="-1647.72" r="1.07" gradientTransform="matrix(22.81, -4.22, -4.16, -22.44, 44218.65, -46294.52)" xlink:href="#radial-gradient"/><linearGradient id="linear-gradient-3" x1="-539.61" y1="-3966.78" x2="-513.22" y2="-3961.55" xlink:href="#linear-gradient"/><radialGradient id="radial-gradient-74" cx="-1871.62" cy="-2421.23" r="1.07" gradientTransform="matrix(3, -0.55, -0.55, -2.95, 4320.39, -8077.19)" xlink:href="#radial-gradient-2"/><radialGradient id="radial-gradient-75" cx="-2015.7" cy="-2115.59" r="1.07" gradientTransform="matrix(4.56, -0.84, -0.83, -4.49, 7476, -11101.44)" xlink:href="#radial-gradient-2"/><radialGradient id="radial-gradient-76" cx="-1871.53" cy="-2420.36" r="1.07" gradientTransform="matrix(3, -0.56, -0.55, -2.95, 4337.79, -8095.56)" xlink:href="#radial-gradient-2"/><radialGradient id="radial-gradient-77" cx="-2015.61" cy="-2115.51" r="1.07" gradientTransform="matrix(4.56, -0.84, -0.83, -4.49, 7481.02, -11107.36)" xlink:href="#radial-gradient-2"/><radialGradient id="radial-gradient-78" cx="-1924.4" cy="-2308.69" r="1.07" gradientTransform="matrix(3.43, -0.63, -0.62, -3.37, 5207.41, -8916.27)" xlink:href="#radial-gradient-2"/><radialGradient id="radial-gradient-79" cx="-1748.01" cy="-2681.98" r="1.07" gradientTransform="matrix(2.32, -0.43, -0.42, -2.28, 2971.81, -6774.11)" xlink:href="#radial-gradient-2"/><radialGradient id="radial-gradient-80" cx="-1287.39" cy="-3657.41" r="1.07" gradientTransform="matrix(1.25, -0.23, -0.23, -1.23, 835.65, -4718.99)" xlink:href="#radial-gradient-2"/><radialGradient id="radial-gradient-81" cx="-1698.94" cy="-2786.93" r="1.07" gradientTransform="matrix(2.12, -0.39, -0.39, -2.09, 2563.02, -6402.53)" xlink:href="#radial-gradient-2"/><radialGradient id="radial-gradient-82" cx="-1950.6" cy="-2253.37" r="1.07" gradientTransform="matrix(3.69, -0.68, -0.67, -3.63, 5720.49, -9431.77)" xlink:href="#radial-gradient-2"/><radialGradient id="radial-gradient-83" cx="-2021.02" cy="-2103.93" r="1.07" gradientTransform="matrix(4.65, -0.86, -0.85, -4.58, 7662.05, -11291.75)" xlink:href="#radial-gradient-2"/><radialGradient id="radial-gradient-84" cx="-1865.35" cy="-2433.26" r="1.07" gradientTransform="matrix(2.95, -0.55, -0.54, -2.91, 4247.82, -8020.24)" xlink:href="#radial-gradient-2"/><radialGradient id="radial-gradient-85" cx="-1695.29" cy="-2794.4" r="1.07" gradientTransform="matrix(2.11, -0.39, -0.38, -2.08, 2550.52, -6369.73)" xlink:href="#radial-gradient-2"/><radialGradient id="radial-gradient-86" cx="-1809.15" cy="-2553.15" r="1.07" gradientTransform="matrix(2.61, -0.48, -0.48, -2.57, 3536.29, -7347.56)" xlink:href="#radial-gradient-2"/><radialGradient id="radial-gradient-87" cx="-1946.91" cy="-2261.02" r="1.07" gradientTransform="matrix(3.65, -0.68, -0.66, -3.59, 5638.48, -9364.71)" xlink:href="#radial-gradient-2"/><radialGradient id="radial-gradient-88" cx="-2026.55" cy="-2092.08" r="1.07" gradientTransform="matrix(4.75, -0.88, -0.86, -4.67, 7855.37, -11488.51)" xlink:href="#radial-gradient-2"/><radialGradient id="radial-gradient-89" cx="-1848.74" cy="-2468.19" r="1.07" gradientTransform="matrix(2.84, -0.53, -0.52, -2.8, 4023.21, -7815.89)" xlink:href="#radial-gradient-2"/><radialGradient id="radial-gradient-90" cx="-1824.75" cy="-2519.86" r="1.07" gradientTransform="matrix(2.69, -0.5, -0.49, -2.65, 3709.34, -7524.85)" xlink:href="#radial-gradient-2"/><radialGradient id="radial-gradient-91" cx="-1915.74" cy="-2326.85" r="1.07" gradientTransform="matrix(3.35, -0.62, -0.61, -3.29, 5027.15, -8789.8)" xlink:href="#radial-gradient-2"/><radialGradient id="radial-gradient-92" cx="-2025.66" cy="-2093.81" r="1.07" gradientTransform="matrix(4.73, -0.88, -0.86, -4.66, 7821.93, -11467.66)" xlink:href="#radial-gradient-2"/><radialGradient id="radial-gradient-93" cx="-1851.19" cy="-2462.77" r="1.07" gradientTransform="matrix(2.86, -0.53, -0.52, -2.81, 4053.14, -7855.69)" xlink:href="#radial-gradient-2"/><radialGradient id="radial-gradient-94" cx="-1799.81" cy="-2572.38" r="1.07" gradientTransform="matrix(2.56, -0.47, -0.47, -2.52, 3433.45, -7271.15)" xlink:href="#radial-gradient-2"/><radialGradient id="radial-gradient-95" cx="-1906.15" cy="-2346.92" r="1.07" gradientTransform="matrix(3.26, -0.6, -0.59, -3.21, 4859, -8638.64)" xlink:href="#radial-gradient-2"/><radialGradient id="radial-gradient-96" cx="-2000.32" cy="-2147.3" r="1.07" gradientTransform="matrix(4.32, -0.8, -0.79, -4.25, 6991.95, -10681.93)" xlink:href="#radial-gradient-2"/><radialGradient id="radial-gradient-97" cx="-1748.55" cy="-2680.63" r="1.07" gradientTransform="matrix(2.32, -0.43, -0.42, -2.28, 2946.03, -6814.04)" xlink:href="#radial-gradient-2"/><radialGradient id="radial-gradient-98" cx="-1915.73" cy="-2326.46" r="1.07" gradientTransform="matrix(3.35, -0.62, -0.61, -3.29, 5023.99, -8808.09)" xlink:href="#radial-gradient-2"/><radialGradient id="radial-gradient-99" cx="-1994.05" cy="-2160.41" r="1.07" gradientTransform="matrix(4.23, -0.78, -0.77, -4.16, 6806.49, -10515.29)" xlink:href="#radial-gradient-2"/><radialGradient id="radial-gradient-100" cx="-1714.11" cy="-2752.3" r="1.07" gradientTransform="matrix(2.18, -0.4, -0.4, -2.15, 2682.81, -6563.19)" xlink:href="#radial-gradient-2"/><radialGradient id="radial-gradient-101" cx="-1656.3" cy="-2875.63" r="1.07" gradientTransform="matrix(1.98, -0.37, -0.36, -1.95, 2267.55, -6173.18)" xlink:href="#radial-gradient-2"/><radialGradient id="radial-gradient-102" cx="-1905.22" cy="-2348.5" r="1.07" gradientTransform="matrix(3.26, -0.6, -0.59, -3.2, 4839.52, -8641.35)" xlink:href="#radial-gradient-2"/><radialGradient id="radial-gradient-103" cx="-1985.75" cy="-2177.81" r="1.07" gradientTransform="matrix(4.12, -0.76, -0.75, -4.05, 6573.86, -10302.59)" xlink:href="#radial-gradient-2"/><radialGradient id="radial-gradient-104" cx="-1600.34" cy="-2993.71" r="1.07" gradientTransform="matrix(1.82, -0.34, -0.33, -1.79, 1943.89, -5872.2)" xlink:href="#radial-gradient-2"/><radialGradient id="radial-gradient-105" cx="-1892.36" cy="-2375.52" r="1.07" gradientTransform="matrix(3.15, -0.58, -0.57, -3.1, 4626.93, -8447.53)" xlink:href="#radial-gradient-2"/><radialGradient id="radial-gradient-106" cx="-1697.95" cy="-2786.18" r="1.07" gradientTransform="matrix(2.12, -0.39, -0.39, -2.09, 2561.43, -6457.69)" xlink:href="#radial-gradient-2"/><radialGradient id="radial-gradient-107" cx="-1974.17" cy="-2202.19" r="1.07" gradientTransform="matrix(3.97, -0.73, -0.72, -3.9, 6268.61, -10021.39)" xlink:href="#radial-gradient-2"/><radialGradient id="radial-gradient-108" cx="-1807.64" cy="-2554.67" r="1.07" gradientTransform="matrix(2.6, -0.48, -0.47, -2.56, 3533.67, -7368.04)" xlink:href="#radial-gradient-2"/></defs><g id="Layer_5" data-name="Layer 5"><path class="cls-2" d="M1.26,61.77c.73-21.45-.17-26.83,3-37,2.21-7.09,4.18-13.1,10-18,6.83-5.73,17.87-9,26-5,1.62.8,2.49,1.58,6,5,13.88,13.53,14.26,14.94,19,19,3.79,3.25,11.08,9.48,22,13,6.38,2.06,8.15,1.31,14,4,4.14,1.91,10.9,5,15,12,4,6.81,3.39,13.71,3,18-.87,9.75-5.93,24.92-17,29-4.71,1.74-7,.19-13,3-5.78,2.72-9,6.7-11,9-1.31,1.5-14.67,16.48-28,20s-27.89-4.13-36-12c-11.21-10.88-12.9-24.87-14-34C-.49,81.55.53,83.2,1.26,61.77Z"/><g class="cls-3"><path class="cls-4" d="M67.81,101.6a1.22,1.22,0,0,0-1-1.4,1.25,1.25,0,0,0-1.43,1l-8.93,53.4a1.21,1.21,0,0,0,1,1.4,1.27,1.27,0,0,0,1.44-1Z"/><path class="cls-5" d="M65.42,101.32c-.39-.68.69-1.58.26-2.32a1.43,1.43,0,0,0-1-.59l-4.17-1.2a18.37,18.37,0,0,0-2.08-.46L58,96.67,60,97l-6.58-1.14c1.48-8.6,1.51-8.76,1.51-8.76.19-1,3.47-17.61,3.16-16.08,0,0,.57-3.84.81-5.14.77-4.15,1.46-6.35,2.53-10.75.31-1.27.83-3.66,1.89-8.45.67-3,4-18.48,6.72-25.09a28.52,28.52,0,0,1,2.46-4.71,16.46,16.46,0,0,1,2.14-2.78,7.66,7.66,0,0,1,4-2.63,5.58,5.58,0,0,1,5.34,1.9,7.51,7.51,0,0,1,1.67,3.41,25.4,25.4,0,0,1,1,6.63c-1,13.21-1.73,22.7-2.26,29.08-.21,2.54-1.2,14.13-1.2,14.13S83,68.44,83,70.13c-.11,2.91-.11,3.81-.29,6.41-.14,2-.3,3.6-.63,6.74-.89,8.44-2,16.08-2,16.08h0s-4.54-.2-5.74-.36a7.27,7.27,0,0,0-1.4,0h-.08l-.14,0-1.22,0c-2.74,0-2.95.11-3.13.3-.69.69,0,1.73-.46,2.26A1.87,1.87,0,0,1,65.42,101.32Z"/><path class="cls-6" d="M54.32,90.89c.13-.44.55-.7,1.37-1.21.13-.08,1.21-.75,1.38-.55s-.17.33-.24.73a2,2,0,0,0,.5,1.39A19.18,19.18,0,0,0,59.27,94c.38.33.77.59.83,1.06a1,1,0,0,1-.05.45.92.92,0,0,1-.26.38c-.5.38-1.47-.17-2-.49a7.49,7.49,0,0,1-2.63-2.6C54.47,91.9,54.16,91.42,54.32,90.89Z"/><path class="cls-7" d="M59.06,88.26c.19-.44.54-.67,1.08-1a5,5,0,0,1,1.78-.76,3.38,3.38,0,0,1,1.84,0,1.78,1.78,0,0,1,1,.65A2.08,2.08,0,0,1,65,88a3.46,3.46,0,0,0,1,1.63,5,5,0,0,0,1.85,1.28c.89.34,1.46.25,1.49.45s-.64.43-1.83,1c-.3.15-1,.55-2.43,1.34-1.82,1-2,1.16-2.35,1.1-.63-.09-1.09-.72-2-2a9.56,9.56,0,0,1-1.17-1.93C59.07,89.87,58.7,89,59.06,88.26Z"/><path class="cls-8" d="M73.26,81.38c.16-.32.51-.47,1.19-.74A9.64,9.64,0,0,1,77,80.05c2.52-.33,2.73-.26,2.86-.1s.07.89-.25,2.14A17.06,17.06,0,0,1,79,83.93c-.6,1.7-.79,1.88-1,2a1.94,1.94,0,0,1-1.53-.24A5.64,5.64,0,0,1,74.38,84C73.74,83.16,72.91,82.12,73.26,81.38Z"/><path class="cls-9" d="M66.36,84.08a2.7,2.7,0,0,1,1.08-1,4.9,4.9,0,0,1,1.79-.76,3.29,3.29,0,0,1,1.84,0,1.74,1.74,0,0,1,1,.64,2,2,0,0,1,.25.86,3.41,3.41,0,0,0,1,1.64,5.06,5.06,0,0,0,1.85,1.27c.88.34,1.46.25,1.49.45s-.64.43-1.84,1c-.29.15-1,.55-2.42,1.34-1.83,1-2,1.16-2.36,1.11-.62-.1-1.08-.72-2-2a9.77,9.77,0,0,1-1.16-1.94C66.37,85.7,66,84.86,66.36,84.08Z"/><path class="cls-10" d="M69.54,93.11a2,2,0,0,1,.81-.78,3.51,3.51,0,0,1,1.35-.57,2.49,2.49,0,0,1,1.38,0,1.27,1.27,0,0,1,.72.48,1.51,1.51,0,0,1,.18.66,2.68,2.68,0,0,0,.76,1.23,4,4,0,0,0,1.39,1c.67.25,1.1.18,1.12.34s-.49.32-1.38.76c-.22.11-.76.41-1.82,1-1.37.77-1.49.87-1.77.83-.47-.08-.82-.54-1.5-1.48a7.2,7.2,0,0,1-.88-1.45C69.55,94.32,69.27,93.69,69.54,93.11Z"/><path class="cls-11" d="M75.1,91c.13-.26.39-.37.92-.58a7.49,7.49,0,0,1,2-.45c1.94-.26,2.11-.2,2.21-.08s.05.68-.19,1.65a14.86,14.86,0,0,1-.46,1.43c-.46,1.31-.61,1.46-.77,1.53a1.49,1.49,0,0,1-1.18-.19A4.19,4.19,0,0,1,76,93C75.47,92.33,74.83,91.53,75.1,91Z"/><path class="cls-12" d="M77.05,96.77c.06-.14.21-.2.49-.32a3.87,3.87,0,0,1,1.07-.24c1-.15,1.14-.11,1.2,0s0,.38-.11.9c-.07.27-.13.45-.24.77-.25.71-.33.79-.42.83s-.4,0-.64-.1a2.35,2.35,0,0,1-.88-.71C77.25,97.51,76.9,97.08,77.05,96.77Z"/><path class="cls-13" d="M58.51,79.56c.16,0,.25.53.78,1.51a9.21,9.21,0,0,0,1.13,1.71c.72.84,1.16,1,1.12,1.34,0,.58-1,.94-1.14,1a1.81,1.81,0,0,1-1.28.09,2,2,0,0,1-1-1.48,7.08,7.08,0,0,1,.06-2.18C58.3,80.23,58.37,79.58,58.51,79.56Z"/><path class="cls-14" d="M64.51,75.11c-.37-.06-.52.32-1.6,1.13s-1.22.69-1.62,1.21A2.24,2.24,0,0,0,60.74,79c0,.51.32.59,1.07,1.63s.79,1.46,1.34,1.74a2.35,2.35,0,0,0,1.38.22c.53-.08.6-.29,1.61-.7a8.81,8.81,0,0,1,1.16-.4c1-.28,1.32-.16,1.42-.37s-.56-.76-1.54-1.92a12.17,12.17,0,0,1-1.62-2.29C65,75.75,64.94,75.18,64.51,75.11Z"/><path class="cls-15" d="M70.81,80.62c-.32,0-.7-.37-1.47-1A8.94,8.94,0,0,1,67.87,78c-.72-1-1.07-1.46-1-2.14A2.87,2.87,0,0,1,68.12,74a4.19,4.19,0,0,1,1.92-.8,3.62,3.62,0,0,1,1.7,0A2.7,2.7,0,0,1,73,74a3.71,3.71,0,0,1,.54,1.18,4.25,4.25,0,0,0,1.59,1.64c1.62,1.2,2.9,1.42,2.84,1.68s-.69.12-2.5.27a13.65,13.65,0,0,0-1.89.21C72,79.51,71.77,80.71,70.81,80.62Z"/><path class="cls-16" d="M74.22,72.25c.11-.23.45-.35,1.13-.56L78,70.87c1.75-.54,2.16-.89,2.49-.64s.18.71.07,1.77A17.35,17.35,0,0,1,80,75.12c-.2.79-.26.91-.4,1-.65.57-2,.14-2.78-.29a5,5,0,0,1-1.47-1.4C74.64,73.63,74,72.79,74.22,72.25Z"/><path class="cls-17" d="M65.31,95.53a1.22,1.22,0,0,1,.5-.48,2.26,2.26,0,0,1,.83-.35,1.54,1.54,0,0,1,.85,0,.8.8,0,0,1,.44.3.93.93,0,0,1,.12.4,1.58,1.58,0,0,0,.46.75,2.32,2.32,0,0,0,.86.59c.41.16.67.11.69.21s-.29.2-.85.47c-.14.07-.47.25-1.12.63-.85.47-.92.53-1.09.51s-.51-.34-.94-.92a3.85,3.85,0,0,1-.54-.89C65.33,96.27,65.15,95.88,65.31,95.53Z"/><path class="cls-18" d="M60.16,69.09c.21,0,.05.66.44,1.82a4.18,4.18,0,0,0,1,1.84c.5.49.8.45.91.8.2.64-.52,1.41-1,1.75-.17.13-1.26,1-2.1.55a2,2,0,0,1-.85-1.59,4.93,4.93,0,0,1,.24-2.37C59.17,70.82,59.8,69,60.16,69.09Z"/><path class="cls-19" d="M65.78,65.3c-.41-.27-1.25.29-2,.78a4.23,4.23,0,0,0-1.5,1.37,3.27,3.27,0,0,0-.44,2.2A10.83,10.83,0,0,0,63,71.5c.6.93.85,1.25,1.32,1.45a1.89,1.89,0,0,0,.94.15c.35,0,.55-.17,1.37-.66s1-.62,1.08-.64c.94-.38,1.58-.11,1.7-.39s-.06-.33-1-1.32c-.53-.59-.87-.93-1.26-1.37a9.3,9.3,0,0,1-1-1.17C65.61,66.45,66.22,65.58,65.78,65.3Z"/><path class="cls-20" d="M74.35,63.42a3.1,3.1,0,0,0-2.17-.34,6.13,6.13,0,0,0-2.36.73c-1,.49-1.52.77-1.71,1.34s.11,1.15.73,2.31a15.38,15.38,0,0,0,1.57,2.21c1,1.22,1.24,1.45,1.55,1.41s.44-.4.88-.81a3.88,3.88,0,0,1,2.22-.82c3-.47,4.58-.36,4.66-.73s-.7-.45-2.2-1.51a7.21,7.21,0,0,1-2.17-1.93C74.75,64.33,75,63.87,74.35,63.42Z"/><path class="cls-21" d="M76,61.85c0-.1.16-.3,1.43-.58a19.4,19.4,0,0,1,3-.34c1.44-.11,1.71-.14,1.92.08s.17.37.06,1.91a8.08,8.08,0,0,1-.27,2c-.19.59-.35,1.08-.81,1.33a1.88,1.88,0,0,1-1.42,0A4,4,0,0,1,78,65.09a10.1,10.1,0,0,1-1-1.4C76,62.33,75.85,62.11,76,61.85Z"/><path class="cls-22" d="M61.87,58.84c.13,0,.13.29.41,1.16a6.38,6.38,0,0,0,.63,1.56c.5.82.9.76,1,1.25s-.25.82-.88,1.69-.89,1.22-1.35,1.39a1.6,1.6,0,0,1-1.4-.07c-.47-.35-.44-1-.41-1.53,0-1,.43-1.41,1-2.69C61.52,59.93,61.63,58.82,61.87,58.84Z"/><path class="cls-23" d="M63.79,58.05c.11-.45.51-.8,1.29-1.48s1.41-1.2,2-1.14a1.78,1.78,0,0,1,.84.34c.42.32.55.71.86,1.53a20.51,20.51,0,0,0,.79,2c.6,1,1.2,1.1,1.13,1.56,0,.23-.52.52-1.49,1.08a3.9,3.9,0,0,1-1.84.74,2.56,2.56,0,0,1-.73,0c-1.11-.25-1.7-1.4-2.32-2.63C63.91,59.05,63.67,58.58,63.79,58.05Z"/><path class="cls-24" d="M73.3,60.41c-.38,0-.58-.28-1.71-1.8s-1.31-1.78-1.42-2.2a2.67,2.67,0,0,1,.14-2.17,3.14,3.14,0,0,1,1.71-1,3.72,3.72,0,0,1,2.1-.41A3.48,3.48,0,0,1,75.93,54a15.64,15.64,0,0,1,1.22,1.65,8.62,8.62,0,0,0,2.16,1.72c1.58,1,2.63,1.29,2.58,1.5s-.83,0-2.46,0a17.39,17.39,0,0,0-2.5.28,8.51,8.51,0,0,0-1.94.5C73.9,60.09,73.79,60.46,73.3,60.41Z"/><path class="cls-25" d="M82.9,56.36c.46-.33.25-.82.56-2.47.38-2,.93-2.55.58-3s-.81-.16-3.39.21c-2.18.3-2.85.31-3,.76s.19.82.82,1.81a7.63,7.63,0,0,0,1.52,2C80.72,56.25,82.16,56.89,82.9,56.36Z"/><path class="cls-26" d="M64.3,48.85c.31,0,.2.86.84,2.1.71,1.4,1.45,1.54,1.4,2.27-.07,1.18-2.06,1.88-2.18,1.92-.53.18-1.35.46-1.8.08s-.2-1.53.46-3.65C63.44,50.22,63.87,48.81,64.3,48.85Z"/><path class="cls-27" d="M69.77,45.91c-.28-.11-.79.22-1.79.89s-1.23,1-1.3,1.11a2.41,2.41,0,0,0,0,1.61,5.71,5.71,0,0,0,.92,2c.56.8.9,1.29,1.42,1.32a6.25,6.25,0,0,0,1.53-.71,5.31,5.31,0,0,1,.89-.44c.92-.27,1.59.17,1.72,0s-.63-.75-1.47-1.91a9.7,9.7,0,0,1-1.15-2C70.08,46.6,70.18,46.06,69.77,45.91Z"/><path class="cls-28" d="M75.18,50.92c-.38-.1-.68-.5-1.27-1.3a15.09,15.09,0,0,1-1-1.69c-.67-1.22-.69-1.37-.69-1.49,0-1.07,1.08-1.85,1.28-2a3.43,3.43,0,0,1,2.13-.61,2.67,2.67,0,0,1,1.56.46c.5.36.47.67,1,1.32A7.82,7.82,0,0,0,79.71,47a11.62,11.62,0,0,0,2.17,1.36c.75.35,1.26.47,1.24.56a13.77,13.77,0,0,1-2.06,0,9.18,9.18,0,0,0-3.11.64C76.33,50.22,76,51.12,75.18,50.92Z"/><path class="cls-29" d="M65.73,39.81c.28,0,.28.47.93,1.53,1,1.56,1.74,1.78,1.67,2.53s-.75,1.1-1.13,1.35-1,.7-1.64.48-.86-1.38-.93-2C64.4,41.84,65.14,39.78,65.73,39.81Z"/><path class="cls-30" d="M71.8,36c.24.21-.08.61,0,1.47A3.79,3.79,0,0,0,72.49,39c1,1.49,2,1.7,1.93,2.27-.06.36-.48.27-1.45,1.09-.62.54-.69.79-1.12.92A2,2,0,0,1,70.4,43c-.54-.27-.71-.59-1.67-2s-1.19-1.69-1.14-2.08c.06-.55.48-.89,1.3-1.55S71.33,35.59,71.8,36Z"/><path class="cls-31" d="M79.65,34.45c.41.32.34.55.94,1.47a11,11,0,0,0,1.3,1.59c1.19,1.16,2.17,1.33,2.11,1.64s-1.46,0-3.22.52c-2,.64-2.56,1.91-3.69,1.61-.38-.1-.69-.4-1.32-1a8.42,8.42,0,0,1-1.3-1.67c-.59-1-.88-1.44-.83-2a2.67,2.67,0,0,1,1-1.74A4.25,4.25,0,0,1,77.41,34,3.24,3.24,0,0,1,79.65,34.45Z"/><path class="cls-32" d="M85,32.07c-.4-.37-1.06-.24-2.31,0-.86.17-1.36.27-1.52.64,0,.09-.11.32.56,1.55a8.58,8.58,0,0,0,1.19,1.79c.61.68,1,1.09,1.32,1s.54-.88.78-2.43S85.31,32.39,85,32.07Z"/><path class="cls-33" d="M67.69,31.19c.19,0,.27.35.73,1,.74,1,1.23,1.06,1.29,1.59s-.36,1-.92,1.54c-.18.18-1.36,1.39-1.9,1.09-.25-.14-.25-.58-.24-1.13a7.78,7.78,0,0,1,.44-2.2C67.44,31.71,67.47,31.21,67.69,31.19Z"/><path class="cls-34" d="M73.25,26.44c-.33-.17-1,.45-1.93,1.37s-1.3,1.25-1.41,1.75a3.14,3.14,0,0,0,.73,2.31c.52.88,1,1.69,1.78,1.82.37.05.5-.08,1.89-.66,1.61-.66,2-.7,2-1s-.6-.61-1.71-1.81a4.81,4.81,0,0,1-1.09-1.48C73.06,27.54,73.62,26.63,73.25,26.44Z"/><path class="cls-35" d="M78.66,31.89c-.43-.05-.86-.69-1.68-1.95a6.52,6.52,0,0,1-1.17-2.37,2.29,2.29,0,0,1,0-1.53c.31-.63,1-.88,1.76-1.18a4.89,4.89,0,0,1,1.85-.37,2.64,2.64,0,0,1,1.79.42c.39.34.24.57.74,1.36a5.71,5.71,0,0,0,1.19,1.36,10,10,0,0,0,1.53,1c.59.31.82.36.81.49s-1,.34-2.66.83a10.94,10.94,0,0,0-2.14.76C79.4,31.42,79.25,32,78.66,31.89Z"/><path class="cls-36" d="M70.05,22.87A4,4,0,0,0,71,24.11c.63.56,1.08.58,1.11.9s-.62.76-2,1.52c-1.12.64-1.31.65-1.44.58-.5-.3,0-1.94.11-2.11a6,6,0,0,1,1.27-2.13"/><path class="cls-37" d="M74.69,17.39c-.32-.09-.68.16-1.38.66a4.2,4.2,0,0,0-1.16,1.14,3.06,3.06,0,0,0-.49,1.16,3.17,3.17,0,0,0,.49,2,5.11,5.11,0,0,0,1.3,1.59,1.46,1.46,0,0,0,.75.41c.36,0,.52-.14,1.28-.53a8.26,8.26,0,0,1,1.58-.7c.62-.2.9-.17,1-.36s-.31-.56-.75-1a10.25,10.25,0,0,1-1.59-2.11C75,18.33,75.22,17.54,74.69,17.39Z"/><path class="cls-38" d="M86.11,22.1a7.35,7.35,0,0,0-2.14.32c-.69.21-1.1.34-1.23.68,0,.12-.1.34.69,1.64a8.38,8.38,0,0,0,1,1.47c.59.67.94,1.08,1.25,1,.47-.12.53-1.31.58-2.17a12.66,12.66,0,0,0-.18-2.95"/><path class="cls-39" d="M80.37,22.14c-.38,0-.87-.68-1.83-2a8.41,8.41,0,0,1-1.25-1.95,3,3,0,0,1-.26-2,2.93,2.93,0,0,1,1.75-1.55,3.45,3.45,0,0,1,2.14-.33,3.2,3.2,0,0,1,1.65.85c.38.37.27.47.77,1.22a4.7,4.7,0,0,0,1.71,1.8c.56.29,1,.28,1,.46s-.56.37-1.34.72a12.61,12.61,0,0,0-2,1.15C81,21.65,81,22.2,80.37,22.14Z"/><path class="cls-40" d="M85.38,41.72a12.35,12.35,0,0,0-2.85-.1c-1.2.1-3,.25-3.23,1-.12.41.41,1,1.49,2.21s1.6,1.44,1.83,1.52a2.29,2.29,0,0,0,2-.12c.29-.24.4-.56.53-1.89.08-.66.15-1.57.19-2.65"/></g><g class="cls-41"><path class="cls-42" d="M59.42,100.28a1.24,1.24,0,0,0-2.48,0v54.26a1.24,1.24,0,0,0,2.48,0Z"/><path class="cls-43" d="M57,100.37c-.49-.61.41-1.67-.12-2.34a1.46,1.46,0,0,0-1.1-.43l-4.29-.54c-.71-.08-1.41-.13-2.12-.14H49l2,0-6.65-.11c.05-8.75.05-8.91.05-8.91,0-1.06.51-18,.46-16.41,0,0-.08-3.89-.05-5.22.07-4.23.38-6.52.72-11,.09-1.31.21-3.76.46-8.66.17-3.1.94-18.93,2.48-25.89a28.81,28.81,0,0,1,1.64-5,16.92,16.92,0,0,1,1.64-3.09,7.44,7.44,0,0,1,3.51-3.22,5.46,5.46,0,0,1,2.47-.3,5.85,5.85,0,0,1,3.08,1.35A7.67,7.67,0,0,1,63,13.52a25.64,25.64,0,0,1,2,6.41c1.23,13.23,2,22.75,2.56,29.15.22,2.55,1.15,14.19,1.15,14.19s.22,1.81.43,3.49c.37,2.91.51,3.8.77,6.4.19,2,.29,3.61.48,6.77.52,8.5.72,16.23.72,16.23h0s-4.49.5-5.69.53a7.16,7.16,0,0,0-1.38.19l-.08,0-.13,0c-.26.06-.5.09-1.2.21-2.68.48-2.88.57-3,.78-.56.8.27,1.72-.07,2.31A1.85,1.85,0,0,1,57,100.37Z"/><path class="cls-44" d="M44.42,91.76c.06-.46.42-.78,1.15-1.41.11-.1,1.06-.93,1.26-.76s-.11.35-.11.76a2,2,0,0,0,.71,1.3,18.18,18.18,0,0,0,2.36,2.44c.43.27.86.47,1,.92a1,1,0,0,1,0,.46.91.91,0,0,1-.19.41c-.43.45-1.47.07-2.08-.16a7.56,7.56,0,0,1-3-2.17C44.74,92.74,44.34,92.31,44.42,91.76Z"/><path class="cls-45" d="M48.64,88.42a2.55,2.55,0,0,1,.89-1.19,4.76,4.76,0,0,1,1.62-1A3.33,3.33,0,0,1,53,85.92a1.87,1.87,0,0,1,1,.49,2.2,2.2,0,0,1,.38.82,3.54,3.54,0,0,0,1.26,1.46,5.11,5.11,0,0,0,2,1c.92.2,1.47,0,1.53.21s-.55.53-1.63,1.3c-.27.19-.9.69-2.17,1.7-1.62,1.29-1.75,1.45-2.12,1.46-.63,0-1.19-.55-2.3-1.64A9.7,9.7,0,0,1,49.53,91C48.91,90,48.41,89.24,48.64,88.42Z"/><path class="cls-46" d="M61.46,79.41c.1-.35.41-.54,1-.92a9.79,9.79,0,0,1,2.41-1c2.41-.72,2.64-.68,2.79-.54s.22.87.11,2.16c-.06.64-.15,1.28-.27,1.91-.31,1.78-.47,2-.66,2.12a1.91,1.91,0,0,1-1.54,0A5.69,5.69,0,0,1,63,81.81C62.22,81.1,61.23,80.2,61.46,79.41Z"/><path class="cls-47" d="M55.12,83.15A2.69,2.69,0,0,1,56,82a4.8,4.8,0,0,1,1.63-1,3.24,3.24,0,0,1,1.81-.27,1.76,1.76,0,0,1,1,.48,2.14,2.14,0,0,1,.39.82,3.41,3.41,0,0,0,1.26,1.46,5.07,5.07,0,0,0,2,1c.93.2,1.47,0,1.54.21s-.56.53-1.64,1.3c-.26.19-.89.7-2.16,1.7-1.62,1.3-1.75,1.46-2.13,1.46-.63,0-1.18-.54-2.29-1.64A9.75,9.75,0,0,1,56,85.69C55.4,84.75,54.9,84,55.12,83.15Z"/><path class="cls-48" d="M59.73,91.6a2,2,0,0,1,.66-.9,3.78,3.78,0,0,1,1.23-.78A2.56,2.56,0,0,1,63,89.71a1.27,1.27,0,0,1,.78.37,1.6,1.6,0,0,1,.29.62,2.63,2.63,0,0,0,1,1.1,3.85,3.85,0,0,0,1.52.74c.7.14,1.11,0,1.16.16s-.43.39-1.23,1L64.82,95c-1.22,1-1.32,1.09-1.6,1.1-.47,0-.89-.41-1.72-1.24a8,8,0,0,1-1.1-1.29C59.94,92.8,59.56,92.22,59.73,91.6Z"/><path class="cls-49" d="M64.84,88.61c.07-.27.32-.43.8-.72a7.39,7.39,0,0,1,1.87-.75c1.86-.56,2-.53,2.16-.43s.16.68.08,1.67a12.71,12.71,0,0,1-.21,1.49c-.24,1.37-.36,1.53-.51,1.63a1.44,1.44,0,0,1-1.19,0,4.23,4.23,0,0,1-1.82-1C65.43,89.91,64.66,89.22,64.84,88.61Z"/><path class="cls-50" d="M67.7,94.06c0-.15.17-.23.43-.39a4.2,4.2,0,0,1,1-.41c1-.3,1.1-.28,1.17-.23s.09.37,0,.91c0,.28-.06.47-.12.8-.13.74-.19.83-.27.88a.77.77,0,0,1-.65,0,2.29,2.29,0,0,1-1-.56C68,94.76,67.6,94.39,67.7,94.06Z"/><path class="cls-51" d="M46.67,79.89c.16,0,.34.48,1,1.38a9,9,0,0,0,1.39,1.51c.84.72,1.29.76,1.31,1.16.06.58-.82,1.09-1,1.16a1.71,1.71,0,0,1-1.24.29c-.73-.16-1.07-.94-1.24-1.31a7.07,7.07,0,0,1-.29-2.16C46.58,80.59,46.54,79.93,46.67,79.89Z"/><path class="cls-52" d="M51.83,74.55c-.37,0-.45.4-1.39,1.37s-1.08.87-1.38,1.45a2.24,2.24,0,0,0-.3,1.59c.14.49.41.53,1.32,1.45s1,1.32,1.61,1.51a2.17,2.17,0,0,0,1.38,0c.51-.15.54-.37,1.47-.94a9.93,9.93,0,0,1,1.07-.57c.93-.43,1.27-.37,1.34-.58s-.68-.67-1.83-1.67a13,13,0,0,1-2-2C52.37,75.11,52.26,74.56,51.83,74.55Z"/><path class="cls-53" d="M58.92,79c-.32,0-.75-.25-1.61-.79a9.39,9.39,0,0,1-1.7-1.31c-.86-.85-1.29-1.27-1.37-2a2.85,2.85,0,0,1,.95-2.1A4.07,4.07,0,0,1,57,71.8a3.43,3.43,0,0,1,1.68-.21,2.51,2.51,0,0,1,1.38.58c.42.35.45.65.74,1.08a4.16,4.16,0,0,0,1.82,1.37c1.79.94,3.09,1,3.07,1.23s-.66.23-2.41.65A12.1,12.1,0,0,0,61.4,77C59.92,77.75,59.88,79,58.92,79Z"/><path class="cls-54" d="M60.89,70.21c.07-.24.39-.4,1-.72,1.74-.87,2.3-1.14,2.49-1.23,1.63-.8,2-1.21,2.34-1s.29.67.36,1.73A17.88,17.88,0,0,1,67,72.17c-.07.81-.1.94-.22,1.08-.55.68-2,.45-2.77.15a5,5,0,0,1-1.68-1.16C61.54,71.51,60.72,70.8,60.89,70.21Z"/><path class="cls-55" d="M56,94.65a1.36,1.36,0,0,1,.42-.56,2.32,2.32,0,0,1,.75-.47,1.51,1.51,0,0,1,.84-.13.8.8,0,0,1,.48.23,1,1,0,0,1,.17.37,1.62,1.62,0,0,0,.59.68,2.3,2.3,0,0,0,.94.46c.43.09.68,0,.71.1s-.25.24-.76.59c-.12.09-.42.32-1,.79-.75.6-.81.68-1,.68s-.55-.25-1.08-.76a4.86,4.86,0,0,1-.68-.81C56.11,95.38,55.87,95,56,94.65Z"/><path class="cls-56" d="M46.57,69.27c.22,0,.16.65.73,1.73a4.28,4.28,0,0,0,1.32,1.67c.57.4.86.32,1,.65.3.59-.28,1.47-.66,1.88-.14.15-1.07,1.15-2,.87-.64-.22-.91-.94-1.1-1.45a5.16,5.16,0,0,1-.14-2.39C45.88,71.13,46.21,69.26,46.57,69.27Z"/><path class="cls-57" d="M51.47,64.64c-.45-.2-1.18.48-1.83,1.08a4.23,4.23,0,0,0-1.24,1.6,3.25,3.25,0,0,0-.08,2.24,11.58,11.58,0,0,0,1.39,1.66c.75.83,1,1.11,1.54,1.23a1.91,1.91,0,0,0,1,0c.33-.09.51-.25,1.24-.87s.9-.76,1-.79c.86-.53,1.53-.36,1.61-.66,0-.15-.12-.31-1.17-1.15-.62-.5-1-.79-1.46-1.16a8.57,8.57,0,0,1-1.17-1C51.49,65.81,51.94,64.85,51.47,64.64Z"/><path class="cls-58" d="M59.58,61.45a3.12,3.12,0,0,0-2.19,0,6,6,0,0,0-2.2,1.09c-.88.64-1.36,1-1.46,1.59s.3,1.12,1.1,2.17a14.87,14.87,0,0,0,1.9,2c1.13,1.07,1.46,1.25,1.75,1.16s.37-.47.73-.94a3.82,3.82,0,0,1,2-1.16c2.9-.94,4.44-1.06,4.45-1.44s-.75-.34-2.41-1.16a7.27,7.27,0,0,1-2.44-1.57C60.11,62.29,60.25,61.81,59.58,61.45Z"/><path class="cls-59" d="M60.89,59.65c0-.11.11-.33,1.32-.8a20.11,20.11,0,0,1,2.85-.8c1.39-.33,1.65-.39,1.9-.21s.22.34.36,1.88a7.7,7.7,0,0,1,.07,2c-.09.62-.16,1.13-.58,1.44a1.87,1.87,0,0,1-1.39.22,4.09,4.09,0,0,1-2-.87,11.74,11.74,0,0,1-1.24-1.23C61.05,60.12,60.83,59.92,60.89,59.65Z"/><path class="cls-60" d="M46.57,58.85c.13,0,.17.27.59,1.08A6.64,6.64,0,0,0,48,61.38c.63.73,1,.62,1.17,1.09s-.11.85-.58,1.81-.68,1.35-1.1,1.59a1.6,1.6,0,0,1-1.39.14c-.51-.28-.6-1-.65-1.45-.12-1,.19-1.46.51-2.82C46.4,60,46.32,58.87,46.57,58.85Z"/><path class="cls-61" d="M48.32,57.76c0-.46.37-.86,1-1.66s1.18-1.4,1.82-1.45a1.69,1.69,0,0,1,.88.22c.47.25.66.61,1.1,1.37a19.7,19.7,0,0,0,1.09,1.81c.75.87,1.36.91,1.37,1.37,0,.24-.43.6-1.29,1.31a4,4,0,0,1-1.68,1,2.52,2.52,0,0,1-.72.07c-1.14-.07-1.9-1.12-2.71-2.24C48.6,58.74,48.29,58.31,48.32,57.76Z"/><path class="cls-62" d="M58,58.64c-.38,0-.61-.19-2-1.52s-1.57-1.56-1.75-2A2.68,2.68,0,0,1,54.1,53c.25-.56.71-.83,1.5-1.3a3.68,3.68,0,0,1,2-.72,3.43,3.43,0,0,1,2,.87c.77.55.75.82,1.46,1.44a8.64,8.64,0,0,0,2.41,1.38c1.72.75,2.79.87,2.78,1.08s-.82.12-2.41.43a16.85,16.85,0,0,0-2.41.66,8.64,8.64,0,0,0-1.82.79C58.58,58.23,58.54,58.61,58,58.64Z"/><path class="cls-63" d="M66.81,53.14c.39-.4.11-.85.15-2.54,0-2.05.49-2.67.07-3s-.82,0-3.29.72c-2.09.64-2.74.75-2.85,1.23-.07.33.32.78,1.1,1.66a7.53,7.53,0,0,0,1.82,1.74C64.65,53.37,66.17,53.78,66.81,53.14Z"/><path class="cls-64" d="M47.31,48.58c.31,0,.34.81,1.17,2s1.68,1.3,1.75,2c.13,1.18-1.71,2.18-1.82,2.24-.5.26-1.26.66-1.76.36s-.44-1.49-.14-3.69C46.69,50.07,46.88,48.6,47.31,48.58Z"/><path class="cls-65" d="M52.2,44.82c-.3-.06-.74.34-1.61,1.15s-1.05,1.14-1.1,1.31a2.49,2.49,0,0,0,.3,1.59A5.75,5.75,0,0,0,51,50.75c.67.7,1.09,1.14,1.61,1.08A5.71,5.71,0,0,0,54,50.89a4.27,4.27,0,0,1,.81-.57c.86-.41,1.58-.07,1.68-.29s-.74-.66-1.76-1.67a10.24,10.24,0,0,1-1.46-1.81C52.61,45.45,52.63,44.9,52.2,44.82Z"/><path class="cls-66" d="M58.33,48.94c-.39,0-.74-.39-1.46-1.09a15.27,15.27,0,0,1-1.26-1.51c-.86-1.11-.91-1.26-.93-1.38a2.66,2.66,0,0,1,.93-2.17,3.46,3.46,0,0,1,2-.94,2.77,2.77,0,0,1,1.61.21c.55.29.57.6,1.17,1.16a7.58,7.58,0,0,0,1.75,1.09,11.65,11.65,0,0,0,2.35,1c.8.23,1.32.27,1.32.36a14.52,14.52,0,0,1-2,.33,8.82,8.82,0,0,0-2.94,1.12C59.34,48.07,59.14,49,58.33,48.94Z"/><path class="cls-67" d="M47.23,39.4c.28,0,.35.43,1.17,1.38,1.2,1.39,2,1.48,2,2.24s-.54,1.21-.87,1.52-.92.85-1.54.72S47,44,46.79,43.45C46.25,41.62,46.64,39.47,47.23,39.4Z"/><path class="cls-68" d="M52.56,34.69c.27.17,0,.61.29,1.45a3.83,3.83,0,0,0,.88,1.37c1.19,1.33,2.27,1.37,2.27,2,0,.37-.43.34-1.25,1.31-.52.63-.54.89-.94,1.08a2,2,0,0,1-1.47,0c-.57-.19-.79-.47-2-1.73s-1.44-1.49-1.46-1.88c0-.56.32-1,1-1.74S52,34.36,52.56,34.69Z"/><path class="cls-69" d="M60,31.94c.46.26.43.5,1.17,1.3a10.62,10.62,0,0,0,1.54,1.38c1.35,1,2.35,1,2.34,1.3s-1.44.18-3.07,1c-1.85.94-2.21,2.3-3.36,2.17a3.59,3.59,0,0,1-1.47-.79,8.58,8.58,0,0,1-1.55-1.46c-.73-.85-1.09-1.29-1.15-1.88a2.67,2.67,0,0,1,.73-1.88,4.2,4.2,0,0,1,2.56-1.23A3.18,3.18,0,0,1,60,31.94Z"/><path class="cls-70" d="M64.84,28.76c-.45-.3-1.08-.07-2.27.36-.81.3-1.28.48-1.39.87,0,.09-.06.33.81,1.45A8.81,8.81,0,0,0,63.45,33c.71.58,1.14.93,1.46.79s.39-1,.37-2.53S65.24,29,64.84,28.76Z"/><path class="cls-71" d="M47.74,30.57c.19-.05.32.3.88.87.89.9,1.38.85,1.53,1.37s-.2,1-.66,1.66c-.14.22-1.1,1.59-1.68,1.38-.27-.1-.34-.53-.43-1.09a8,8,0,0,1,.08-2.24C47.58,31.12,47.53,30.62,47.74,30.57Z"/><path class="cls-72" d="M52.42,25c-.35-.12-.89.59-1.68,1.65s-1.07,1.45-1.09,2c0,.81.44,1.39,1.09,2.17s1.25,1.52,2,1.52c.38,0,.48-.15,1.75-.94,1.48-.91,1.83-1,1.83-1.3s-.69-.5-2-1.52a4.78,4.78,0,0,1-1.32-1.3C52.41,26.12,52.81,25.13,52.42,25Z"/><path class="cls-73" d="M58.63,29.55c-.43,0-1-.54-2-1.66a7,7,0,0,1-1.53-2.17,2.33,2.33,0,0,1-.22-1.52c.2-.67.81-1,1.54-1.45a4.93,4.93,0,0,1,1.75-.65,2.67,2.67,0,0,1,1.83.15c.44.27.33.52.95,1.23a6.22,6.22,0,0,0,1.39,1.16,9.21,9.21,0,0,0,1.68.79c.62.21.86.23.87.36S64,26.28,62.43,27a11.3,11.3,0,0,0-2,1.09C59.27,29,59.21,29.53,58.63,29.55Z"/><path class="cls-74" d="M48.69,22A3.9,3.9,0,0,0,49.79,23c.71.47,1.15.41,1.24.72s-.49.85-1.68,1.81c-1,.81-1.18.85-1.32.8-.54-.21-.27-1.93-.24-2.1a6.1,6.1,0,0,1,.9-2.32"/><path class="cls-75" d="M52.34,15.82c-.33,0-.64.26-1.24.86a4.12,4.12,0,0,0-1,1.31,2.75,2.75,0,0,0-.29,1.23,3.25,3.25,0,0,0,.8,1.88,5.31,5.31,0,0,0,1.54,1.37,1.35,1.35,0,0,0,.8.29c.36,0,.49-.21,1.17-.72a8.48,8.48,0,0,1,1.44-.94c.58-.29.86-.31.9-.51s-.4-.5-.9-.87a10.35,10.35,0,0,1-1.9-1.84C52.8,16.7,52.89,15.88,52.34,15.82Z"/><path class="cls-76" d="M64.33,18.7a7.44,7.44,0,0,0-2,.66c-.65.31-1,.5-1.1.86,0,.12,0,.35,1,1.52A9,9,0,0,0,63.38,23c.68.57,1.1.92,1.38.8.45-.2.32-1.39.22-2.25a13.15,13.15,0,0,0-.66-2.89"/><path class="cls-77" d="M58.7,19.64c-.37,0-1-.54-2.12-1.66A8.32,8.32,0,0,1,55,16.24a2.94,2.94,0,0,1-.59-1.95,2.91,2.91,0,0,1,1.47-1.81,3.4,3.4,0,0,1,2-.65,3.17,3.17,0,0,1,1.76.59c.43.3.35.42,1,1.08a4.79,4.79,0,0,0,2,1.52c.59.2,1,.13,1.05.31s-.49.44-1.2.91a12.83,12.83,0,0,0-1.75,1.45C59.26,19.05,59.29,19.61,58.7,19.64Z"/><path class="cls-78" d="M66.84,38.25A12.08,12.08,0,0,0,64,38.6c-1.17.28-2.89.7-3,1.52-.05.42.57.93,1.83,2s1.8,1.19,2,1.23,1.39.24,2-.44c.24-.28.29-.62.21-2,0-.67-.11-1.58-.25-2.66"/></g><g class="cls-79"><path class="cls-80" d="M48.09,100.93a1.27,1.27,0,0,0-1.47-1,1.22,1.22,0,0,0-1,1.43L56.16,154.5a1.25,1.25,0,0,0,1.46,1,1.21,1.21,0,0,0,1-1.43Z"/><path class="cls-81" d="M45.74,101.46c-.6-.51.09-1.71-.57-2.27A1.52,1.52,0,0,0,44,99l-4.34.26a18.86,18.86,0,0,0-2.12.25l-.45.08,2-.35-6.59,1.11L30.8,91.59c-.19-1-3-17.69-2.72-16.15,0,0-.83-3.8-1.07-5.1-.74-4.16-.88-6.45-1.42-10.94-.16-1.3-.52-3.72-1.22-8.56-.44-3.07-2.75-18.71-2.58-25.8a28.86,28.86,0,0,1,.64-5.24,16.89,16.89,0,0,1,1-3.33,7.32,7.32,0,0,1,2.83-3.79,5.57,5.57,0,0,1,2.39-.74,5.94,5.94,0,0,1,3.3.76,7.88,7.88,0,0,1,2.78,2.65A26,26,0,0,1,38,21.26c3.78,12.73,6.42,21.9,8.18,28.07L50.07,63s.56,1.74,1.1,3.35c.92,2.78,1.24,3.62,2,6.12.59,2,1,3.48,1.79,6.54,2.16,8.22,3.86,15.76,3.86,15.76h0s-4.33,1.31-5.51,1.56a6.69,6.69,0,0,0-1.33.44l-.08,0-.12.06-1.14.43c-2.55.95-2.73,1.08-2.84,1.31-.4.89.59,1.64.38,2.28A1.88,1.88,0,0,1,45.74,101.46Z"/><path class="cls-82" d="M31.62,95.34c0-.46.27-.84.86-1.6.09-.11.87-1.1,1.1-1s0,.37,0,.76.48.79,1,1.15a20.38,20.38,0,0,0,2.81,2c.47.18.93.3,1.15.72a1,1,0,0,1,.11.44.87.87,0,0,1-.11.44c-.33.52-1.44.33-2.08.22a7.87,7.87,0,0,1-3.39-1.57C32.12,96.23,31.65,95.89,31.62,95.34Z"/><path class="cls-83" d="M35.14,91.3A2.57,2.57,0,0,1,35.78,90a5,5,0,0,1,1.41-1.3,3.28,3.28,0,0,1,1.74-.6,1.78,1.78,0,0,1,1.12.29,2.24,2.24,0,0,1,.54.72,3.52,3.52,0,0,0,1.52,1.21,5.25,5.25,0,0,0,2.2.58c.94,0,1.45-.25,1.55-.07s-.44.62-1.36,1.57c-.22.23-.75.85-1.81,2.06-1.35,1.57-1.45,1.75-1.81,1.82-.63.11-1.28-.32-2.59-1.19a9.88,9.88,0,0,1-1.78-1.43C35.72,92.81,35.08,92.14,35.14,91.3Z"/><path class="cls-84" d="M46.05,80.13c0-.36.31-.61.85-1.09a9.93,9.93,0,0,1,2.19-1.4c2.24-1.15,2.47-1.14,2.65-1s.38.82.53,2.09c.06.64.1,1.28.1,1.92,0,1.8-.08,2-.24,2.2a1.89,1.89,0,0,1-1.51.28A5.66,5.66,0,0,1,48,82.2C47.13,81.64,46,81,46.05,80.13Z"/><path class="cls-85" d="M40.52,85a2.69,2.69,0,0,1,.65-1.33,4.78,4.78,0,0,1,1.41-1.31,3.35,3.35,0,0,1,1.73-.59,1.77,1.77,0,0,1,1.12.29,1.9,1.9,0,0,1,.54.72,3.47,3.47,0,0,0,1.53,1.2,5.12,5.12,0,0,0,2.19.59c1,0,1.46-.25,1.56-.07s-.45.62-1.37,1.57c-.22.23-.75.84-1.8,2.06-1.35,1.56-1.45,1.74-1.82,1.81-.62.12-1.28-.31-2.58-1.18a10.31,10.31,0,0,1-1.79-1.43C41.1,86.47,40.46,85.8,40.52,85Z"/><path class="cls-86" d="M46.7,92.38a2,2,0,0,1,.49-1,3.58,3.58,0,0,1,1.06-1,2.51,2.51,0,0,1,1.3-.45,1.34,1.34,0,0,1,.85.22,1.56,1.56,0,0,1,.4.55,2.69,2.69,0,0,0,1.15.9,4,4,0,0,0,1.65.45c.71,0,1.09-.19,1.17-.06s-.35.47-1,1.18l-1.35,1.55C51.37,95.91,51.3,96,51,96.1c-.47.08-1-.24-1.94-.9a7.58,7.58,0,0,1-1.34-1.07C47.14,93.52,46.66,93,46.7,92.38Z"/><path class="cls-87" d="M51.17,88.52c0-.28.24-.48.66-.85a7.47,7.47,0,0,1,1.69-1.08c1.74-.89,1.92-.89,2.06-.81s.29.63.4,1.62a14.72,14.72,0,0,1,.08,1.49c0,1.39-.06,1.57-.19,1.7a1.51,1.51,0,0,1-1.17.21,4.35,4.35,0,0,1-2-.69C52,89.69,51.12,89.15,51.17,88.52Z"/><path class="cls-88" d="M55.06,93.33c0-.15.12-.26.34-.46a4.2,4.2,0,0,1,.92-.58c.94-.48,1-.48,1.11-.44s.16.34.22.88a6.35,6.35,0,0,1,.05.8c0,.76,0,.85-.1.92s-.38.13-.64.12a2.41,2.41,0,0,1-1.08-.38C55.5,94,55,93.67,55.06,93.33Z"/><path class="cls-89" d="M31.54,83.31c.15-.08.43.4,1.27,1.16a9.59,9.59,0,0,0,1.67,1.23c1,.55,1.42.51,1.52.89.17.56-.6,1.21-.71,1.31a1.73,1.73,0,0,1-1.17.51,2.12,2.12,0,0,1-1.48-1,7.57,7.57,0,0,1-.71-2.07C31.59,84,31.42,83.37,31.54,83.31Z"/><path class="cls-90" d="M35.6,77.13c-.36.07-.37.48-1.1,1.6s-.9,1-1.09,1.67a2.15,2.15,0,0,0,0,1.61c.23.46.51.45,1.58,1.18s1.26,1.1,1.88,1.19a2.26,2.26,0,0,0,1.37-.26c.47-.24.46-.46,1.26-1.18a8.55,8.55,0,0,1,.95-.76c.84-.59,1.19-.59,1.21-.82s-.8-.53-2.13-1.29a13.55,13.55,0,0,1-2.34-1.62C36.25,77.59,36,77.06,35.6,77.13Z"/><path class="cls-91" d="M43.47,80.23c-.31.07-.79-.12-1.74-.49a10,10,0,0,1-1.94-1c-1-.68-1.51-1-1.72-1.67a2.74,2.74,0,0,1,.53-2.22,4,4,0,0,1,1.52-1.39A3.43,3.43,0,0,1,41.74,73a2.72,2.72,0,0,1,1.48.31c.48.27.56.56.93.93a4.33,4.33,0,0,0,2.07,1c2,.59,3.23.38,3.27.64s-.6.35-2.25,1.08a12.2,12.2,0,0,0-1.71.83C44.21,78.79,44.4,80,43.47,80.23Z"/><path class="cls-92" d="M43.71,71.23c0-.25.3-.47.87-.9l2.21-1.66c1.46-1.08,1.72-1.54,2.11-1.41s.42.6.7,1.63A17.7,17.7,0,0,1,50.15,72c.09.8.08.94,0,1.1-.42.76-1.86.8-2.72.65A5.11,5.11,0,0,1,45.55,73C44.6,72.38,43.65,71.83,43.71,71.23Z"/><path class="cls-93" d="M43.59,96.05a1.24,1.24,0,0,1,.3-.62,2.2,2.2,0,0,1,.65-.6,1.53,1.53,0,0,1,.8-.27.78.78,0,0,1,.52.13,1,1,0,0,1,.25.33,1.63,1.63,0,0,0,.71.56,2.38,2.38,0,0,0,1,.27c.44,0,.67-.12.72,0s-.2.28-.63.72c-.1.11-.35.39-.83,1-.63.72-.67.81-.84.84s-.59-.15-1.21-.55a4.82,4.82,0,0,1-.83-.66C43.87,96.75,43.56,96.44,43.59,96.05Z"/><path class="cls-94" d="M29.38,72.92c.22,0,.28.61,1.06,1.57a4.52,4.52,0,0,0,1.62,1.39c.65.28.91.15,1.14.45.42.52,0,1.49-.28,2-.11.17-.84,1.32-1.78,1.21-.68-.09-1.09-.76-1.37-1.22a5,5,0,0,1-.6-2.31C29.06,74.87,29,73,29.38,72.92Z"/><path class="cls-95" d="M33.32,67.49c-.48-.11-1.07.69-1.59,1.4a4,4,0,0,0-.92,1.79,3.19,3.19,0,0,0,.36,2.2,10.35,10.35,0,0,0,1.69,1.38c.9.67,1.25.89,1.76.92a2,2,0,0,0,.94-.17c.31-.15.46-.34,1-1.08s.74-.91.79-1c.74-.67,1.44-.63,1.46-.93s-.18-.29-1.38-.92l-1.67-.87a11.56,11.56,0,0,1-1.35-.77C33.57,68.64,33.83,67.62,33.32,67.49Z"/><path class="cls-96" d="M40.71,62.9a3.07,3.07,0,0,0-2.16.4,5.75,5.75,0,0,0-2,1.46c-.74.78-1.15,1.23-1.13,1.83s.51,1,1.5,1.92a15.53,15.53,0,0,0,2.26,1.56c1.32.84,1.68,1,2,.82s.27-.53.54-1.06a3.77,3.77,0,0,1,1.8-1.5c2.68-1.46,4.17-1.86,4.12-2.24s-.82-.19-2.61-.69a7.28,7.28,0,0,1-2.71-1.09C41.4,63.62,41.44,63.12,40.71,62.9Z"/><path class="cls-97" d="M41.66,60.88c0-.1,0-.33,1.14-1a18.89,18.89,0,0,1,2.66-1.3C46.78,58,47,57.87,47.3,58s.29.29.72,1.77a7.88,7.88,0,0,1,.47,2,2,2,0,0,1-.3,1.52,1.9,1.9,0,0,1-1.33.46,4.11,4.11,0,0,1-2.12-.49,12.2,12.2,0,0,1-1.46-1C41.9,61.32,41.65,61.16,41.66,60.88Z"/><path class="cls-98" d="M27.36,62.73c.13,0,.22.23.79,1a7.2,7.2,0,0,0,1.15,1.26c.76.6,1.12.41,1.36.84s.06.86-.22,1.88-.41,1.45-.78,1.76a1.61,1.61,0,0,1-1.34.4c-.56-.18-.78-.84-.93-1.3-.31-1-.09-1.47,0-2.85C27.41,63.87,27.12,62.79,27.36,62.73Z"/><path class="cls-99" d="M28.88,61.34c-.05-.46.2-.91.69-1.81s.9-1.59,1.53-1.75a1.72,1.72,0,0,1,.9,0c.51.16.77.48,1.35,1.15.82.93,1.23,1.41,1.43,1.57.92.72,1.52.64,1.62,1.09.05.24-.31.67-1,1.52a3.83,3.83,0,0,1-1.46,1.29,2.46,2.46,0,0,1-.7.21c-1.14.13-2.09-.76-3.11-1.7C29.34,62.24,29,61.89,28.88,61.34Z"/><path class="cls-100" d="M38.65,60.42c-.37.08-.64-.08-2.24-1.13s-1.86-1.24-2.11-1.59a2.67,2.67,0,0,1-.64-2.09c.14-.59.54-.94,1.24-1.55A3.61,3.61,0,0,1,36.73,53a3.49,3.49,0,0,1,2.11.49,20.75,20.75,0,0,1,1.73,1.15,8.65,8.65,0,0,0,2.64.9c1.84.42,2.93.35,3,.56s-.79.27-2.3.85A16.67,16.67,0,0,0,41.62,58,8.83,8.83,0,0,0,40,59.14C39.1,59.92,39.13,60.3,38.65,60.42Z"/><path class="cls-101" d="M46.24,53.43c.31-.46-.05-.85-.35-2.51-.35-2,0-2.7-.51-3s-.81.11-3.11,1.31c-1.94,1-2.56,1.24-2.57,1.72s.46.71,1.4,1.43a7.65,7.65,0,0,0,2.14,1.36C44.16,54.05,45.73,54.18,46.24,53.43Z"/><path class="cls-102" d="M26.1,52.53c.31-.07.5.74,1.53,1.7s1.91,1,2.13,1.66c.35,1.14-1.27,2.46-1.37,2.53-.44.35-1.11.88-1.66.68s-.73-1.38-.86-3.59C25.78,54.11,25.68,52.64,26.1,52.53Z"/><path class="cls-103" d="M30.2,48c-.3,0-.66.47-1.36,1.43S28,50.69,28,50.86a2.42,2.42,0,0,0,.59,1.51A5.94,5.94,0,0,0,30.19,54c.81.56,1.3.91,1.8.77a6.12,6.12,0,0,0,1.19-1.18,6.65,6.65,0,0,1,.68-.71c.77-.56,1.55-.36,1.61-.59s-.86-.5-2.06-1.31a9.89,9.89,0,0,1-1.79-1.5C30.73,48.5,30.64,48,30.2,48Z"/><path class="cls-104" d="M37.06,50.87c-.39,0-.81-.24-1.66-.79a16.91,16.91,0,0,1-1.54-1.26c-1.06-.93-1.13-1.06-1.18-1.17a2.65,2.65,0,0,1,.49-2.3A3.45,3.45,0,0,1,35,44.07,2.67,2.67,0,0,1,36.59,44c.6.18.68.48,1.38.92a7.78,7.78,0,0,0,1.94.74,12.1,12.1,0,0,0,2.52.57c.83.08,1.35,0,1.37.11a14.24,14.24,0,0,1-1.94.69,8.65,8.65,0,0,0-2.69,1.64C37.89,49.83,37.87,50.8,37.06,50.87Z"/><path class="cls-105" d="M24.24,43.57c.27-.09.43.35,1.42,1.13,1.46,1.14,2.26,1.09,2.46,1.82a2.13,2.13,0,0,1-.57,1.65c-.27.36-.74,1-1.38,1s-1.3-1-1.58-1.55C23.71,45.91,23.68,43.74,24.24,43.57Z"/><path class="cls-106" d="M28.6,38c.29.11.13.59.56,1.36a3.89,3.89,0,0,0,1.14,1.18c1.42,1.09,2.51.93,2.61,1.5.07.36-.36.41-1,1.5-.4.72-.37,1-.73,1.24a2,2,0,0,1-1.44.27c-.61-.08-.88-.32-2.29-1.34s-1.71-1.19-1.8-1.58.13-1,.67-1.88S28,37.75,28.6,38Z"/><path class="cls-107" d="M35.42,33.92c.5.17.52.41,1.41,1.06a11.06,11.06,0,0,0,1.78,1.07c1.53.7,2.51.54,2.56.85s-1.38.44-2.83,1.55c-1.64,1.26-1.74,2.65-2.9,2.74a3.66,3.66,0,0,1-1.6-.51A9.27,9.27,0,0,1,32,39.54c-.88-.7-1.33-1.06-1.49-1.63a2.61,2.61,0,0,1,.35-2,4.12,4.12,0,0,1,2.29-1.67A3.23,3.23,0,0,1,35.42,33.92Z"/><path class="cls-108" d="M39.57,29.93c-.5-.22-1.08.12-2.17.76-.75.44-1.18.71-1.2,1.11,0,.09,0,.33,1.07,1.27A9.19,9.19,0,0,0,39,34.36c.82.44,1.31.7,1.6.51s.2-1-.13-2.54S40,30.11,39.57,29.93Z"/><path class="cls-109" d="M23,34.82c.18-.08.38.24,1,.69,1.05.72,1.53.58,1.78,1.07s0,1-.33,1.75c-.1.23-.78,1.75-1.39,1.65-.29,0-.45-.46-.63-1a8.18,8.18,0,0,1-.37-2.21C23,35.39,22.83,34.92,23,34.82Z"/><path class="cls-110" d="M26.57,28.52c-.37-.06-.76.74-1.33,1.92s-.78,1.61-.7,2.11c.11.8.7,1.29,1.5,1.94s1.53,1.25,2.32,1.11c.37-.07.44-.24,1.55-1.24,1.27-1.16,1.6-1.32,1.55-1.61s-.78-.37-2.24-1.13a5,5,0,0,1-1.56-1C26.78,29.61,27,28.57,26.57,28.52Z"/><path class="cls-111" d="M33.59,31.84c-.42.09-1.05-.36-2.27-1.27a6.86,6.86,0,0,1-1.94-1.84,2.33,2.33,0,0,1-.51-1.45c.07-.69.6-1.15,1.24-1.7a4.72,4.72,0,0,1,1.6-.95,2.69,2.69,0,0,1,1.84-.2c.49.19.43.45,1.17,1a6,6,0,0,0,1.6.88,8.77,8.77,0,0,0,1.81.47c.66.1.89.07.94.2s-.81.64-2.22,1.66a10.85,10.85,0,0,0-1.73,1.42C34.11,31.15,34.16,31.71,33.59,31.84Z"/><path class="cls-112" d="M22.3,26.22a4,4,0,0,0,1.29.86c.8.33,1.22.19,1.37.48s-.32.92-1.31,2.08c-.82,1-1,1.05-1.14,1-.58-.11-.64-1.83-.65-2a6.09,6.09,0,0,1,.44-2.43"/><path class="cls-113" d="M24.72,19.54c-.34,0-.59.37-1.06,1.08A4.08,4.08,0,0,0,23,22.06a2.82,2.82,0,0,0,0,1.26A3.26,3.26,0,0,0,24.08,25a5.58,5.58,0,0,0,1.79,1.06,1.51,1.51,0,0,0,.85.14c.35-.08.44-.3,1-.93A8.66,8.66,0,0,1,29,24.11c.52-.39.79-.46.79-.66s-.49-.42-1.06-.68a11.43,11.43,0,0,1-2.23-1.46C25.34,20.32,25.27,19.5,24.72,19.54Z"/><path class="cls-114" d="M37.11,20.18a7,7,0,0,0-1.89,1c-.58.42-.91.68-.92,1,0,.12,0,.35,1.24,1.31A8.61,8.61,0,0,0,37,24.6c.78.43,1.26.7,1.52.52s0-1.41-.22-2.23a13.51,13.51,0,0,0-1.21-2.72"/><path class="cls-115" d="M31.74,22.12c-.37.09-1-.35-2.42-1.24a8.66,8.66,0,0,1-1.86-1.42,2.9,2.9,0,0,1-.95-1.8,2.85,2.85,0,0,1,1.09-2,3.44,3.44,0,0,1,1.89-1,3.3,3.3,0,0,1,1.86.25c.48.22.42.36,1.15.89a5,5,0,0,0,2.24,1.13c.63.08,1-.07,1.09.1s-.39.53-1,1.12a12.74,12.74,0,0,0-1.45,1.74C32.18,21.44,32.31,22,31.74,22.12Z"/><path class="cls-116" d="M43.39,38.86a11.77,11.77,0,0,0-2.72.85c-1.09.48-2.71,1.21-2.67,2,0,.43.75.81,2.18,1.58a4.93,4.93,0,0,0,2.26.83c.17,0,1.42,0,1.86-.79.19-.32.18-.66-.16-2-.17-.65-.42-1.52-.77-2.55"/></g></g></svg>