<svg xmlns="http://www.w3.org/2000/svg" xmlns:xlink="http://www.w3.org/1999/xlink" viewBox="0 0 119.55 134.66"><defs><style>.cls-1,.cls-12,.cls-15,.cls-20,.cls-6,.cls-9{fill:none;}.cls-2{fill:#08b7b3;}.cls-3{clip-path:url(#clip-path);}.cls-4{fill:#eae8e5;}.cls-5{fill:#e7d6a8;}.cls-6{stroke:#fff;}.cls-12,.cls-15,.cls-20,.cls-21,.cls-22,.cls-6,.cls-9{stroke-miterlimit:10;}.cls-7{fill:#fff;}.cls-8{fill:#fd83ec;}.cls-9{stroke:#addedd;}.cls-10,.cls-21{fill:#aededd;}.cls-11{fill:#fda946;}.cls-12{stroke:#f4cba2;}.cls-13{fill:#f4cba2;}.cls-14{fill:#fdc58b;}.cls-15{stroke:#231f20;}.cls-16{fill:#d8b67b;}.cls-17{fill:#e4d59d;}.cls-18{fill:#f4e6c0;}.cls-19{fill:#dddad7;}.cls-20,.cls-21,.cls-22{stroke:#f25de0;}.cls-22{fill:#f25de0;}</style><clipPath id="clip-path"><rect class="cls-1" x="3.21" y="15.83" width="103" height="102"/></clipPath></defs><g id="Layer_4" data-name="Layer 4"><path class="cls-2" d="M1.26,61.77c.73-21.45-.17-26.83,3-37,2.21-7.09,4.18-13.1,10-18,6.83-5.73,17.87-9,26-5,1.62.8,2.49,1.58,6,5,13.88,13.53,14.26,14.94,19,19,3.79,3.25,11.08,9.48,22,13,6.38,2.06,8.15,1.31,14,4,4.14,1.91,10.9,5,15,12,4,6.81,3.39,13.71,3,18-.87,9.75-5.93,24.92-17,29-4.71,1.74-7,.19-13,3-5.78,2.72-9,6.7-11,9-1.31,1.5-14.67,16.48-28,20s-27.89-4.13-36-12c-11.21-10.88-12.9-24.87-14-34C-.49,81.55.53,83.2,1.26,61.77Z"/><g class="cls-3"><path class="cls-4" d="M12.31,74.16c-1.2.83-4.62,3.19-4.39,6,.16,1.86,1.84,3.14,2.52,3.65,8,5.92,27.25,5.24,27.25,5.24,27.54-1,33.13,4.54,51.17-.87,12-3.61,13-7.07,13.07-8.31.33-3.63-4.77-6.84-6.42-7.87-14.8-9.28-26.08,2.2-55.16-.44C33.85,71,19.67,69.08,12.31,74.16Z"/><path class="cls-4" d="M7,86.21s1.41,5.75,3.25,11c0,0,2.87,8.14,7,13.22a12.66,12.66,0,0,0,4.85,3.78,34.76,34.76,0,0,0,6.44,2.14,59.48,59.48,0,0,0,10.34,1c9.54.33,7.39.4,11.71.48,8.14.14,14.36-.14,17.23-.28,2.69-.15,5.83-.49,12.11-1.17,5.38-.59,6.69-1.18,7.88-1.75a19.6,19.6,0,0,0,7.8-7.42c1.24-1.85,2.11-3.64,4.11-9.5,1.13-3.3,2.55-7.71,4.05-13L39,88.53Z"/><path class="cls-5" d="M36,31a24.65,24.65,0,0,1,6.2-4.56,23.86,23.86,0,0,1,13.68-2.34,23,23,0,0,1,9.65,3.6A22,22,0,0,1,73,36.3a22.61,22.61,0,0,1,2.27,9.13,20.12,20.12,0,0,1-1.18,9.33c-.73,1.8-2.25,5.57-5.71,7.29-2.84,1.4-5.17.55-9.65-.1C45.38,60,41.33,64.06,35.81,60a17,17,0,0,1-5-6.32,16.62,16.62,0,0,1-1.18-5.44,20.71,20.71,0,0,1,.79-8.57A21.12,21.12,0,0,1,36,31Z"/><path class="cls-6" d="M46.38,55.84a.85.85,0,0,1,.09-.38.91.91,0,0,1,.25-.3,1.05,1.05,0,0,1,.47-.21,1.15,1.15,0,0,1,.52.06.86.86,0,0,1,.36.32.84.84,0,0,1,.13.46.78.78,0,0,1-.23.47.88.88,0,0,1-.46.26A1,1,0,0,1,46.38,55.84Z"/><path class="cls-6" d="M35.31,53.7a1.16,1.16,0,0,1,.2-.42,1.13,1.13,0,0,1,.34-.31,1.11,1.11,0,0,1,.43-.15,1,1,0,0,1,.46.06.93.93,0,0,1,.41.35,1.07,1.07,0,0,1,.17.52"/><path class="cls-7" d="M42,59.58a.42.42,0,0,1,0-.15.29.29,0,0,1,.1-.12.46.46,0,0,1,.19-.08.38.38,0,0,1,.21,0,.29.29,0,0,1,.14.13.3.3,0,0,1,.06.18.44.44,0,0,1-.1.19.35.35,0,0,1-.19.1.39.39,0,0,1-.28-.05.41.41,0,0,1-.17-.22Z"/><path class="cls-6" d="M48.59,38.67c-.47.28-.55.41-.58.51-.18.48.26,1.14.74,1.46a1.87,1.87,0,0,0,1.13.3A1.92,1.92,0,0,0,51,40.49a1.63,1.63,0,0,0,.39-.64,1.55,1.55,0,0,0,0-.74,1.43,1.43,0,0,0-.3-.66,1.61,1.61,0,0,0-.59-.44C50,37.84,49.53,38.11,48.59,38.67Z"/><path class="cls-6" d="M42.83,42.18a1.23,1.23,0,0,0-.75.83,1.17,1.17,0,0,0,.54,1.05,1.29,1.29,0,0,0,.81.22,1.32,1.32,0,0,0,.78-.32,1.2,1.2,0,0,0,.29-.47,1,1,0,0,0,0-.54,1.07,1.07,0,0,0-.22-.47,1.3,1.3,0,0,0-.41-.32,1.26,1.26,0,0,0-.54-.1A1.21,1.21,0,0,0,42.83,42.18Z"/><path class="cls-6" d="M64.05,36.14a1.07,1.07,0,0,0-.47.32,1.11,1.11,0,0,0-.27.5,1.21,1.21,0,0,0,.53,1,1.32,1.32,0,0,0,.82.22,1.3,1.3,0,0,0,.77-.32,1.12,1.12,0,0,0,.29-.46,1.06,1.06,0,0,0-.19-1,1.2,1.2,0,0,0-.41-.33,1.36,1.36,0,0,0-1.07,0Z"/><path class="cls-6" d="M55.65,30.21a.73.73,0,0,1,.08-.33.71.71,0,0,1,.21-.27.8.8,0,0,1,.42-.18.87.87,0,0,1,.45.05.79.79,0,0,1,.32.28.63.63,0,0,1-.09.82.73.73,0,0,1-.41.23A.82.82,0,0,1,56,30.7a.8.8,0,0,1-.37-.49Z"/><path class="cls-6" d="M42.83,33a1.71,1.71,0,0,1,.46-.94.67.67,0,0,1,.76-.12,1.45,1.45,0,0,1,.39.5,1.35,1.35,0,0,1,.12.62"/><path class="cls-6" d="M35.62,44.23a2.22,2.22,0,0,1-1-.64c-.05-.08-.33-.47,0-.79a1.75,1.75,0,0,1,1.4-.3"/><path class="cls-7" d="M56.66,40.84a.54.54,0,0,1,.06-.25.65.65,0,0,1,.17-.2.66.66,0,0,1,.31-.13.53.53,0,0,1,.33,0,.55.55,0,0,1,.25.2.56.56,0,0,1,.09.31.6.6,0,0,1-.15.31.63.63,0,0,1-.31.17.64.64,0,0,1-.47-.07.63.63,0,0,1-.28-.38Z"/><path class="cls-7" d="M36.72,37.19a.54.54,0,0,1,.06-.25.65.65,0,0,1,.17-.2.61.61,0,0,1,.31-.13.57.57,0,0,1,.34,0,.51.51,0,0,1,.23.21.52.52,0,0,1,.08.3.56.56,0,0,1-.15.31.69.69,0,0,1-.3.17.67.67,0,0,1-.46-.08A.64.64,0,0,1,36.72,37.19Z"/><path class="cls-7" d="M64.54,43.24A.51.51,0,0,1,64.6,43a.55.55,0,0,1,.17-.2.68.68,0,0,1,.31-.14.62.62,0,0,1,.33,0,.57.57,0,0,1,.33.51.57.57,0,0,1-.15.31.53.53,0,0,1-.31.17.62.62,0,0,1-.46-.07.64.64,0,0,1-.28-.37Z"/><path class="cls-7" d="M54.76,48.14a.54.54,0,0,1,.06-.25.55.55,0,0,1,.17-.2.61.61,0,0,1,.31-.13.66.66,0,0,1,.34,0,.61.61,0,0,1,.24.21.68.68,0,0,1,.08.31.58.58,0,0,1-.45.48.65.65,0,0,1-.47-.08.58.58,0,0,1-.28-.37Z"/><path class="cls-7" d="M49.37,46.78a.54.54,0,0,1,.06-.25.65.65,0,0,1,.17-.2.61.61,0,0,1,.89.11.68.68,0,0,1,.08.31.64.64,0,0,1-.15.31.69.69,0,0,1-.3.17.65.65,0,0,1-.47-.08A.58.58,0,0,1,49.37,46.78Z"/><path class="cls-7" d="M50.36,27.68a.52.52,0,0,1,0-.52.86.86,0,0,1,.26-.31.89.89,0,0,1,.37-.17.56.56,0,0,1,.34,0,.64.64,0,0,1,.27.22.62.62,0,0,1,0,.38.59.59,0,0,1-.23.31A.79.79,0,0,1,50.36,27.68Z"/><path class="cls-7" d="M49.9,33.89a.26.26,0,0,1,0-.15.28.28,0,0,1,.11-.13.4.4,0,0,1,.2-.09.53.53,0,0,1,.22,0,.35.35,0,0,1,.17.15.31.31,0,0,1,0,.21.3.3,0,0,1-.1.2.35.35,0,0,1-.19.1.47.47,0,0,1-.31-.05.4.4,0,0,1-.18-.26Z"/><path class="cls-8" d="M59,50.46a24.45,24.45,0,0,1,6.2-4.57A25.3,25.3,0,0,1,70.37,44,23.56,23.56,0,0,1,78.87,43a20,20,0,0,1,7.18,2.14A22.48,22.48,0,0,1,96,55.7a25.19,25.19,0,0,1,2.26,9.13,21.17,21.17,0,0,1-1.18,9.33C94.14,81.7,87,85.15,84,86.58a22.08,22.08,0,0,1-4.24,1.66c-1.59.43-10.12,2.53-17.13-2.24-5-3.42-7.33-9.08-8.88-12.91a16.78,16.78,0,0,1-1.18-5.44,20.67,20.67,0,0,1,.79-8.56A21.26,21.26,0,0,1,59,50.46Z"/><path class="cls-9" d="M66.83,58.62c-.21.05-1.25.28-1.4.82s.94,1,1,1.06a4.39,4.39,0,0,0,3-.11c.43-.22.75-.59.6-1s-1.06-.75-1.2-.78a4.4,4.4,0,0,0-2,0Z"/><path class="cls-9" d="M77.48,61.51a1.19,1.19,0,0,0-.79.82,1.14,1.14,0,0,0,.58,1.05,1.46,1.46,0,0,0,.86.22,1.44,1.44,0,0,0,.83-.32,1.08,1.08,0,0,0,.3-.46,1,1,0,0,0,0-.54,1.24,1.24,0,0,0-.24-.47,1.28,1.28,0,0,0-.44-.32,1.56,1.56,0,0,0-.57-.11A1.4,1.4,0,0,0,77.48,61.51Z"/><path class="cls-9" d="M64,66.07a.64.64,0,0,1,.08-.33.73.73,0,0,1,.22-.27,1,1,0,0,1,.42-.18.88.88,0,0,1,.45.06.7.7,0,0,1,.43.68.75.75,0,0,1-.2.42.78.78,0,0,1-.41.22.85.85,0,0,1-.62-.1A.82.82,0,0,1,64,66.07Z"/><path class="cls-9" d="M66.39,53.73a1.61,1.61,0,0,1,0-1,.57.57,0,0,1,.22-.33.59.59,0,0,1,.38-.14,1.39,1.39,0,0,1,.58.26,1.46,1.46,0,0,1,.41.48"/><path class="cls-9" d="M60.06,58.94a1.58,1.58,0,0,1-.48-1,.83.83,0,0,1,.4-.78,1.44,1.44,0,0,1,.65-.08,1.47,1.47,0,0,1,.61.24"/><path class="cls-9" d="M68.12,76.93a1.79,1.79,0,0,1,1.12-.57,1.24,1.24,0,0,1,.57.08,1.16,1.16,0,0,1,.44.35,1.42,1.42,0,0,1,0,1.47"/><path class="cls-9" d="M81.08,78.66a.86.86,0,0,1,0-.39,1,1,0,0,1,.14-.38.8.8,0,0,1,.27-.28.78.78,0,0,1,.36-.13.86.86,0,0,1,.47.11.83.83,0,0,1,.33.34"/><path class="cls-10" d="M86.68,77.25a.41.41,0,0,1,0-.19.47.47,0,0,1,.13-.15.53.53,0,0,1,.24-.11.58.58,0,0,1,.26,0,.46.46,0,0,1,.18.16.35.35,0,0,1,0,.48.48.48,0,0,1-.23.13.57.57,0,0,1-.36-.06.45.45,0,0,1-.21-.29Z"/><path class="cls-10" d="M80.71,74.17a.46.46,0,0,1,.05-.2.37.37,0,0,1,.13-.15.48.48,0,0,1,.23-.1.39.39,0,0,1,.26,0,.42.42,0,0,1,.19.16.38.38,0,0,1,.06.23.44.44,0,0,1-.11.24.41.41,0,0,1-.24.13.49.49,0,0,1-.57-.34Z"/><path class="cls-10" d="M73.77,72.66a.59.59,0,0,1,0-.22.65.65,0,0,1,.15-.18.7.7,0,0,1,.28-.12.61.61,0,0,1,.3,0,.49.49,0,0,1,.22.18.53.53,0,0,1,.07.28.52.52,0,0,1-.13.28A.57.57,0,0,1,74,73,.61.61,0,0,1,73.77,72.66Z"/><path class="cls-10" d="M73.13,80.71a.45.45,0,0,1,0-.2.47.47,0,0,1,.13-.15.51.51,0,0,1,.24-.1.57.57,0,0,1,.26,0,.35.35,0,0,1,.18.16.39.39,0,0,1,.07.23.44.44,0,0,1-.11.24.47.47,0,0,1-.24.13.48.48,0,0,1-.57-.34Z"/><path class="cls-10" d="M65.6,79.63a.41.41,0,0,1,0-.19.48.48,0,0,1,.37-.26.57.57,0,0,1,.26,0,.4.4,0,0,1,.18.16.39.39,0,0,1,.07.23.37.37,0,0,1-.12.24.43.43,0,0,1-.23.14.57.57,0,0,1-.36-.06.47.47,0,0,1-.21-.29Z"/><path class="cls-10" d="M63.86,73.13a.41.41,0,0,1,0-.19.47.47,0,0,1,.13-.15.53.53,0,0,1,.24-.11.57.57,0,0,1,.26,0,.46.46,0,0,1,.18.16.4.4,0,0,1,.07.24.46.46,0,0,1-.12.24.48.48,0,0,1-.23.13.57.57,0,0,1-.36-.06A.53.53,0,0,1,63.86,73.13Z"/><path class="cls-11" d="M19.11,55.69a24.46,24.46,0,0,1,6.21-4.56A23.86,23.86,0,0,1,39,48.79a23.09,23.09,0,0,1,9.65,3.6,22.16,22.16,0,0,1,7.48,8.54,22.86,22.86,0,0,1,2.27,9.14,20.12,20.12,0,0,1-1.18,9.33C56.48,81.2,55,85,51.5,86.69c-2.83,1.41-5.16.55-9.64-.09-13.38-1.94-17.42,2.11-22.94-1.95a16.93,16.93,0,0,1-5-6.3,16.62,16.62,0,0,1-1.18-5.45,20.61,20.61,0,0,1,.79-8.55A21.19,21.19,0,0,1,19.11,55.69Z"/><path class="cls-12" d="M27.06,61.45c-.48.29-.55.41-.58.51-.19.49.25,1.14.74,1.46a1.82,1.82,0,0,0,2.21-.15,1.55,1.55,0,0,0,.4-.63,1.59,1.59,0,0,0,0-.75,1.46,1.46,0,0,0-.29-.66A1.48,1.48,0,0,0,29,60.8C28.46,60.62,28,60.9,27.06,61.45Z"/><path class="cls-12" d="M28.9,73.18a1.52,1.52,0,0,1,1.72-1.37,1.51,1.51,0,0,1,.65.21,1.45,1.45,0,0,1,.41.33,1.42,1.42,0,0,1,.25.47,1.39,1.39,0,0,1,0,.67,1.41,1.41,0,0,1-.33.58c0,.05-.84,1-1.77.65a1.48,1.48,0,0,1-.89-1.54Z"/><path class="cls-12" d="M43.82,78.09a.78.78,0,0,1,.19-.4.86.86,0,0,1,.39-.23.92.92,0,0,1,.49.05.93.93,0,0,1,.39.29.83.83,0,0,1,.22.34.67.67,0,0,1-1,.83.88.88,0,0,1-.73-.88Z"/><path class="cls-12" d="M22.6,71.53a1.06,1.06,0,0,1,.63.18,1,1,0,0,1,.39.53,1,1,0,0,1-.43,1,1.11,1.11,0,0,1-1.57-.48A1.06,1.06,0,0,1,22.6,71.53Z"/><path class="cls-13" d="M44.35,65.92a.68.68,0,0,1,.07-.28.66.66,0,0,1,.19-.22.7.7,0,0,1,.34-.15.76.76,0,0,1,.37,0,.63.63,0,0,1,.27.24.58.58,0,0,1,.09.34.54.54,0,0,1-.16.34.64.64,0,0,1-.34.19.68.68,0,0,1-.52-.09.71.71,0,0,1-.31-.41Z"/><path class="cls-13" d="M49.09,62.86a.57.57,0,0,1,.06-.25.61.61,0,0,1,.17-.19.73.73,0,0,1,.31-.14.67.67,0,0,1,.34,0,.52.52,0,0,1,.23.21.55.55,0,0,1,.09.3.51.51,0,0,1-.15.31.54.54,0,0,1-.3.17.64.64,0,0,1-.47-.07.63.63,0,0,1-.28-.38Z"/><path class="cls-13" d="M50,69.05A.51.51,0,0,1,50,68.8a.55.55,0,0,1,.17-.2.73.73,0,0,1,.31-.14.8.8,0,0,1,.34,0,.61.61,0,0,1,.24.21.65.65,0,0,1,.08.31.64.64,0,0,1-.15.31.59.59,0,0,1-.3.16.64.64,0,0,1-.47-.07.61.61,0,0,1-.28-.37Z"/><path class="cls-13" d="M52.17,82.85a.51.51,0,0,1,.06-.25.55.55,0,0,1,.17-.2.68.68,0,0,1,.31-.14.73.73,0,0,1,.33,0,.64.64,0,0,1,.25.21.65.65,0,0,1,.08.31.64.64,0,0,1-.15.31.59.59,0,0,1-.3.16.64.64,0,0,1-.47-.07.61.61,0,0,1-.28-.37Z"/><path class="cls-13" d="M53.18,80.18a.51.51,0,0,1,.06-.25.55.55,0,0,1,.17-.2.68.68,0,0,1,.31-.14.73.73,0,0,1,.33,0,.49.49,0,0,1,.24.21.53.53,0,0,1,.09.3.57.57,0,0,1-.15.31.54.54,0,0,1-.3.17.62.62,0,0,1-.75-.44Z"/><path class="cls-12" d="M52.3,76.24a1.21,1.21,0,0,1,.39.24,1.1,1.1,0,0,1,.27.38.89.89,0,0,1-.41,1.25,1,1,0,0,1-.54.1"/><path class="cls-13" d="M37.74,76.15a.42.42,0,0,1,0-.16.35.35,0,0,1,.11-.13.4.4,0,0,1,.2-.09.45.45,0,0,1,.23,0,.32.32,0,0,1,.15.13.36.36,0,0,1,.06.2.35.35,0,0,1-.1.21.45.45,0,0,1-.19.11h-.16a.34.34,0,0,1-.15-.06.32.32,0,0,1-.12-.11.37.37,0,0,1-.07-.14Z"/><path class="cls-12" d="M32.89,80.63a1.23,1.23,0,0,1,.43-.73.65.65,0,0,1,.33-.14.67.67,0,0,1,.37,0,1,1,0,0,1,.34.37.9.9,0,0,1,.12.5"/><path class="cls-12" d="M19.23,78.8a1.22,1.22,0,0,1-.43-.74.64.64,0,0,1,0-.36.67.67,0,0,1,.22-.28,1,1,0,0,1,.51-.11,1,1,0,0,1,.5.15"/><path class="cls-13" d="M30.86,67.72a.49.49,0,0,1,.05-.16.29.29,0,0,1,.1-.12.4.4,0,0,1,.21-.09.55.55,0,0,1,.22,0,.43.43,0,0,1,.16.14.46.46,0,0,1,0,.2.34.34,0,0,1-.09.2.37.37,0,0,1-.2.12H31.2a.47.47,0,0,1-.15-.06.43.43,0,0,1-.12-.11.52.52,0,0,1-.07-.15Z"/><path class="cls-13" d="M15.7,71.83a.47.47,0,0,1,0-.16.43.43,0,0,1,.11-.12.4.4,0,0,1,.21-.09.55.55,0,0,1,.22,0,.43.43,0,0,1,.16.14.46.46,0,0,1,0,.2.34.34,0,0,1-.09.2.41.41,0,0,1-.7-.19Z"/><path class="cls-12" d="M20,66.72a1.41,1.41,0,0,1-.47-.66.44.44,0,0,1,0-.3.47.47,0,0,1,.19-.23,1.15,1.15,0,0,1,.49,0,1.1,1.1,0,0,1,.46.16"/><path class="cls-13" d="M24.37,55.43a.32.32,0,0,1,0-.16.25.25,0,0,1,.11-.12.34.34,0,0,1,.2-.09.42.42,0,0,1,.22,0,.29.29,0,0,1,.16.13.32.32,0,0,1,0,.4.39.39,0,0,1-.19.12H24.7a.44.44,0,0,1-.15-.05.63.63,0,0,1-.12-.11.34.34,0,0,1-.06-.15Z"/><path class="cls-13" d="M17.13,60.29a.42.42,0,0,1,0-.16.35.35,0,0,1,.11-.13.72.72,0,0,1,.2-.09.45.45,0,0,1,.23,0,.39.39,0,0,1,.17.14.41.41,0,0,1,0,.22.35.35,0,0,1-.1.2.37.37,0,0,1-.2.09.37.37,0,0,1-.31-.05.41.41,0,0,1-.18-.25Z"/><path class="cls-12" d="M38.18,69c-.1.37-.08.47,0,.54.14.34.69.46,1.09.39a1.22,1.22,0,0,0,.73-.39,1.25,1.25,0,0,0,.33-.75,1,1,0,0,0-.11-.51,1.23,1.23,0,0,0-.34-.41,1.06,1.06,0,0,0-.48-.19,1.11,1.11,0,0,0-.51.06C38.49,67.94,38.38,68.31,38.18,69Z"/><path class="cls-14" d="M24.35,53.21a6.17,6.17,0,0,0-3.43,1.89c-.94,1-1.42,2.33-1.23,2.46s.93-1.1,2.77-2.16a20,20,0,0,1,1.93-.91c1.79-.78,2.5-1,2.47-1.14S25.55,53,24.35,53.21Z"/><path class="cls-12" d="M35.47,53.93a1.37,1.37,0,0,1,.45-.66.46.46,0,0,1,.29-.1.43.43,0,0,1,.29.1,1,1,0,0,1,.22.43,1,1,0,0,1,0,.49"/><path class="cls-12" d="M43.72,57.75c.22.14.28.15.34.15.25,0,.45-.35.49-.62a.88.88,0,0,0-.1-.55.86.86,0,0,0-.43-.37.73.73,0,0,0-.36,0,.64.64,0,0,0-.33.13.67.67,0,0,0-.23.27.65.65,0,0,0-.06.34C43.06,57.32,43.28,57.47,43.72,57.75Z"/><path class="cls-13" d="M37.14,62.11a1,1,0,0,1,.1-.4.8.8,0,0,1,.27-.31,1,1,0,0,1,.49-.22,1.22,1.22,0,0,1,.54.06.86.86,0,0,1,.53.84,1,1,0,0,1-.24.5.92.92,0,0,1-.49.27A1,1,0,0,1,37.14,62.11Z"/><path class="cls-14" d="M13.62,68.07a8.88,8.88,0,0,0,.29,5.78c.79,2.05,2.22,3.81,2.51,3.72s-.86-2.11-1.09-5.25a27,27,0,0,1,.06-3.11c.11-2.82.36-3.81.1-3.95S14.12,66.45,13.62,68.07Z"/><path class="cls-7" d="M67,32.24a6.1,6.1,0,0,0-2.9-2.64c-1.28-.56-2.67-.61-2.74-.4s1.35.54,2.93,1.94a19.41,19.41,0,0,1,1.48,1.53c1.31,1.43,1.69,2.06,1.86,2S67.58,33.3,67,32.24Z"/><path class="cls-15" d="M22.77,77.46a46.19,46.19,0,0,1,7.62-3.78,51.64,51.64,0,0,1,13.88-3.09,92.13,92.13,0,0,1,21.06.29c5.32.66,9.79,1.25,15.29,3.58a44.3,44.3,0,0,1,7.69,4.18"/><path class="cls-16" d="M44.35,38.48a9,9,0,0,1,.16,2.63,3.17,3.17,0,0,0,0,1.56,2.7,2.7,0,0,0,.68.79,2.81,2.81,0,0,0,.93.47,14.23,14.23,0,0,0,5.5.66,39.74,39.74,0,0,1,7.31.38,20.86,20.86,0,0,1,7.21,2.63c2.72,1.59,7.26,5.11,7.72,8.22a2.33,2.33,0,0,0,.6,1.46c.8.77,1.89.37,3.6.87a12.29,12.29,0,0,1,2.11,1.07C82.59,60.6,84,61.39,85.07,63a9.18,9.18,0,0,1,1.33,3,8.75,8.75,0,0,1,.38,3.7c-.2,1.37-.67,1.75-.41,2.51.3.91,1.16,1,2,1.75a5.91,5.91,0,0,1,1.34,6.68c-.53,1-1.41,1.63-3.33,2.52a33.08,33.08,0,0,1-9,2.9A188,188,0,0,1,57,87.71a162.71,162.71,0,0,1-17-.49c-5.79-.54-19.35-1.8-20.16-6.17a6.68,6.68,0,0,1,.44-2.83,11.38,11.38,0,0,1,3.21-4.76A8.51,8.51,0,0,1,27,71c1.21-.39,2.22-.33,2.42-.88s-.49-.78-1.1-1.84a6.8,6.8,0,0,1-.8-3.28,6.09,6.09,0,0,1,1-3.09c1.16-2,2.41-2.59,5.21-4.86s4.36-3.5,5-4.83a15.77,15.77,0,0,0,1.2-5.62c0-1.55-.22-2.33.31-3.58a8,8,0,0,1,2-2.72,12.54,12.54,0,0,1,2.19-1.78"/><path class="cls-17" d="M44.33,38.48a6.34,6.34,0,0,0-1.5,3.68,3.88,3.88,0,0,0,.8,2.92c.67.65,1.48.65,3.1.77,0,0,2.21.15,5.9.49a36.55,36.55,0,0,1,5.21.87A20.8,20.8,0,0,1,64,49.34c1.63,1,4.09,2.39,5.1,5.32a8.35,8.35,0,0,1-.39,6.19c-1.26,2.45-3.51,3.43-6.8,4.82A23,23,0,0,1,50.55,68c-5.16-.42-8.71-2.85-9-2.33-.2.36,1.45,1.64,2.8,2.42a14.42,14.42,0,0,0,5.32,1.65,26.62,26.62,0,0,0,8,.09,28.52,28.52,0,0,0,10.6-3.94c3.18-1.81,4.53-3.28,5.32-4.93.12-.27,0-1.09.5-1.46s1-.22,1.89.09a8.63,8.63,0,0,1,4.87,3.75,7.59,7.59,0,0,1,.1,7.55c-1.16,1.84-2.91,2.47-6.2,3.58-2.18.75-4.54,1.28-11.86,2.06-4.17.43-6.26.66-7.7.66-7.8.19-13.17-1.31-13.3-.77-.08.32,1.81,1,2.8,1.35a23.45,23.45,0,0,0,7.81,1.06c7.65.06,6.07.44,10.3.29,5-.18,7.77-.27,11.4-1.26,4.36-1.19,6.55-1.79,7.5-2.43a6.16,6.16,0,0,1,3-1.06,3.09,3.09,0,0,1,1.82.29,3.4,3.4,0,0,1,1.33,3.19c-.1.8-.67,2.44-4.3,4.16-6.4,3-14.67,2.74-28.76,3.11-5,.13-10.07-.11-15.08.09a58.2,58.2,0,0,1-7.81-.38c-4.11-.45-6.16-1.06-7.61-2.62A4.13,4.13,0,0,1,23,79.4c.05-1.51,1.33-2.55,2.61-3.57a9.79,9.79,0,0,1,5.2-2.52c3.49-.39,6.32,1.78,6.5,1.46s-1.17-.94-2.89-2.62a9.32,9.32,0,0,1-2.49-3.1,7.25,7.25,0,0,1-.31-4.55,8.08,8.08,0,0,1,2-3.67,9,9,0,0,1,3.9-2.35c.82-.27,1.13-.26,4.8-.65,3.16-.35,4-.47,4.7-.57,2.51-.4,3.79-.61,4.8-1.26a5.11,5.11,0,0,0,2.5-3.38,4,4,0,0,0-.29-2c-.48-1.12-1.47-2-1.7-1.84s.3.78.4,2a4.11,4.11,0,0,1-.5,2.7c-.29.43-.71.66-2.8,1.25A41.08,41.08,0,0,1,44.49,56c-2.41.43-3,.39-3.5,0a1.73,1.73,0,0,1-.54-.69,1.78,1.78,0,0,1-.17-.85c.09-.93,1-1,2-2.41a4.78,4.78,0,0,0,1-2.63,4.85,4.85,0,0,0-.49-2.12c-.44-1-.8-1.11-1.1-1.94a4.55,4.55,0,0,1-.21-2.13C41.67,40.67,43.94,38.8,44.33,38.48Z"/><path class="cls-18" d="M63.13,50.87a8.52,8.52,0,0,1,2.32,1.39,7.18,7.18,0,0,1,2.4,3.39c.94,3.28-1.83,6.28-2.2,6.68C64.52,63.5,63.23,64,60.75,65c-3.93,1.57-7.81,2.4-7.9,2.12s1.28-.57,4.6-2.22a23.29,23.29,0,0,0,4.9-2.81c1.33-1.14,2.86-2.47,3-4.36.07-.72-.43-2.07-1.4-4.74-.32-.87-.6-1.62-.8-2.13"/><path class="cls-18" d="M76.28,61.88a6.64,6.64,0,0,1,1.86.84,5.49,5.49,0,0,1,2.06,2.34c1,2.4-.86,4.83-1.11,5.15-.74,1-1.65,1.46-3.43,2.39C72.86,74.06,70,75,69.92,74.78s.9-.54,3.26-2a17.37,17.37,0,0,0,3.43-2.47c.9-1,1.93-2,1.89-3.47,0-.54-.48-1.52-1.43-3.43-.29-.65-.57-1.16-.76-1.52"/><path class="cls-18" d="M39.94,59.38a6.75,6.75,0,0,0-2.72.25,6.51,6.51,0,0,0-2.38,1.3c-2.05,2-1.58,5.1-1.51,5.51.21,1.25.79,2.09,2,3.74,1.81,2.57,4,4.59,4.14,4.46s-.58-.9-2-3.28a16.52,16.52,0,0,1-1.92-3.79c-.34-1.31-.75-2.81,0-4.18a15.34,15.34,0,0,1,3-2.8l1.45-1.19"/><path class="cls-18" d="M29.15,75.41a5.07,5.07,0,0,0-1.33.38A3.4,3.4,0,0,0,26.31,77c-.74,1.32.49,2.86.67,3a7.46,7.46,0,0,0,2.37,1.58,15.44,15.44,0,0,0,4,1.58c.07-.11-.63-.37-2.25-1.31a12.35,12.35,0,0,1-2.36-1.62c-.61-.6-1.33-1.31-1.26-2.11,0-.32.38-.86,1.08-1.91.24-.35.44-.65.58-.83"/><path class="cls-19" d="M12.31,74.16c-.13-.39-2.55-.29-4.72.87a7,7,0,0,0-3.54,3.6c-.87,2.29.53,5.23.57,5.54a17.71,17.71,0,0,0,2.37,2,19.06,19.06,0,0,0,6.13,2.89A128.06,128.06,0,0,0,29,92.87a150.85,150.85,0,0,0,20.53,1.75c3.13,0,5.5,0,7.16-.09,8-.29,12.05-.41,15-.64a141.64,141.64,0,0,0,20.09-3.06c1.39-.35,9.31-2.38,12.7-5.83A5.71,5.71,0,0,0,106,82.52a6.5,6.5,0,0,0-1.08-5c-1.43-2.27-3.57-2.94-6.3-3.79-.17-.06-1.13-.35-1.27-.11s.85.79,1.25,1.77a4,4,0,0,1-.32,3C96.22,83,83.49,84.37,83.49,84.37a228.76,228.76,0,0,1-27.76,1S36.48,85.19,23.08,83c-.83-.13-1.38-.25-2.5-.5-5.3-1.17-8.17-1.85-9.35-4a3.42,3.42,0,0,1-.4-2.73C11.26,74.73,12.41,74.43,12.31,74.16Z"/><path class="cls-7" d="M14.73,104.09a19,19,0,0,0,8.42,8.74c3.86,2,8.16,2.41,8.41,1.75s-4-1.93-8.7-6.56a61.63,61.63,0,0,1-4.26-5c-3.75-4.71-4.81-6.71-5.35-6.48C12.54,96.8,13.12,100.69,14.73,104.09Z"/><path class="cls-7" d="M5.48,82.8a6.14,6.14,0,0,0,2.71,2.81c1.25.63,2.63.78,2.71.57s-1.3-.62-2.8-2.11c-.48-.52-.94-1.06-1.37-1.62C5.52,80.92,5.18,80.28,5,80.35S5,81.7,5.48,82.8Z"/><path class="cls-20" d="M90.48,74.37a1.22,1.22,0,0,0-.11.56,1.29,1.29,0,0,0,.18.53,1.17,1.17,0,0,0,1.11.33,1.31,1.31,0,0,0,1-1.2,1,1,0,0,0-.12-.51,1.22,1.22,0,0,0-.36-.39,1.4,1.4,0,0,0-.49-.15,1.29,1.29,0,0,0-.51.07,1.35,1.35,0,0,0-.44.31,1.18,1.18,0,0,0-.28.45Z"/><path class="cls-21" d="M88.42,67.92a.54.54,0,0,1,.06-.25.55.55,0,0,1,.17-.2.58.58,0,0,1,.31-.13.66.66,0,0,1,.34,0,.69.69,0,0,1,.24.21.65.65,0,0,1,.08.31.64.64,0,0,1-.15.31.69.69,0,0,1-.3.17.7.7,0,0,1-.47-.08.61.61,0,0,1-.28-.37Z"/><path class="cls-21" d="M93.34,64.29A.54.54,0,0,1,93.4,64a.65.65,0,0,1,.17-.2.71.71,0,0,1,.31-.13.57.57,0,0,1,.34,0,.52.52,0,0,1,.24.2.68.68,0,0,1,.08.31.56.56,0,0,1-.15.31.54.54,0,0,1-.3.17.65.65,0,0,1-.47-.08.58.58,0,0,1-.28-.37Z"/><path class="cls-20" d="M75.76,52c-.21,0-1.25.29-1.4.83s.94,1,1,1a4.48,4.48,0,0,0,3-.1c.42-.23.75-.6.6-1s-1.06-.75-1.21-.79a4.4,4.4,0,0,0-2,0Z"/><path class="cls-20" d="M85.32,57.71a1.74,1.74,0,0,0-1.06,1.19A1.67,1.67,0,0,0,85,60.4a1.84,1.84,0,0,0,1.16.31,1.9,1.9,0,0,0,1.12-.46,1.57,1.57,0,0,0,.41-.66,1.54,1.54,0,0,0,0-.77,1.51,1.51,0,0,0-.32-.66,1.55,1.55,0,0,0-.59-.46,1.82,1.82,0,0,0-.76-.16A2,2,0,0,0,85.32,57.71Z"/><path class="cls-21" d="M83.38,50.68a.24.24,0,0,1,0-.08l0-.06a.18.18,0,0,1,.1,0,.14.14,0,0,1,.11,0,.16.16,0,0,1,.08.06.18.18,0,0,1,0,.1.18.18,0,0,1,0,.1.27.27,0,0,1-.1.06.2.2,0,0,1-.15,0,.16.16,0,0,1-.09-.12Z"/><path class="cls-21" d="M88.39,55.43a.54.54,0,0,1,0-.22.5.5,0,0,1,.11-.17.48.48,0,0,1,.22-.12A.39.39,0,0,1,89,55a.47.47,0,0,1,.16.18.48.48,0,0,1,0,.53.38.38,0,0,1-.21.15.35.35,0,0,1-.32-.07A.52.52,0,0,1,88.39,55.43Z"/><path class="cls-21" d="M73.31,48.55a.46.46,0,0,1,0-.2.44.44,0,0,1,.12-.15.56.56,0,0,1,.24-.1.57.57,0,0,1,.26,0,.42.42,0,0,1,.19.16.38.38,0,0,1,.06.23.41.41,0,0,1-.11.24.44.44,0,0,1-.24.13.43.43,0,0,1-.35-.06.44.44,0,0,1-.22-.28Z"/><path class="cls-21" d="M76.68,45a.34.34,0,0,1,0-.19.44.44,0,0,1,.12-.15.58.58,0,0,1,.24-.11.57.57,0,0,1,.26,0,.49.49,0,0,1,.19.16.39.39,0,0,1,.06.24.44.44,0,0,1-.11.24.51.51,0,0,1-.24.13.53.53,0,0,1-.35-.06.49.49,0,0,1-.22-.29Z"/><path class="cls-21" d="M73.58,45.27a.46.46,0,0,1,0-.2.44.44,0,0,1,.12-.15.56.56,0,0,1,.24-.1.57.57,0,0,1,.26,0,.42.42,0,0,1,.19.16.38.38,0,0,1,.06.23.41.41,0,0,1-.11.24.44.44,0,0,1-.24.13.43.43,0,0,1-.35-.06.44.44,0,0,1-.22-.28Z"/><path class="cls-22" d="M91.56,51.11a9.82,9.82,0,0,0-4.4-4.35c-2-.91-4.06-1-4.17-.66S85,47,87.46,49.29a33.55,33.55,0,0,1,2.25,2.51c2,2.36,2.57,3.38,2.82,3.25S92.46,52.85,91.56,51.11Z"/></g></g></svg>