<svg xmlns="http://www.w3.org/2000/svg" xmlns:xlink="http://www.w3.org/1999/xlink" viewBox="0 0 119.55 134.66"><defs><style>.cls-1{fill:none;}.cls-2{fill:#08b7b3;}.cls-3{clip-path:url(#clip-path);}.cls-4{fill:#b97f2b;}.cls-5{fill:#544838;}.cls-6{fill:#cfcfce;}.cls-7{fill:#fff;}</style><clipPath id="clip-path"><rect class="cls-1" x="24.49" y="15.31" width="70.56" height="104.03"/></clipPath></defs><g id="Layer_4" data-name="Layer 4"><path class="cls-2" d="M1.26,61.77c.73-21.45-.17-26.83,3-37,2.21-7.09,4.18-13.1,10-18,6.83-5.73,17.87-9,26-5,1.62.8,2.49,1.58,6,5,13.88,13.53,14.26,14.94,19,19,3.79,3.25,11.08,9.48,22,13,6.38,2.06,8.15,1.31,14,4,4.14,1.91,10.9,5,15,12,4,6.81,3.39,13.71,3,18-.87,9.75-5.93,24.92-17,29-4.71,1.74-7,.19-13,3-5.78,2.72-9,6.7-11,9-1.31,1.5-14.67,16.48-28,20s-27.89-4.13-36-12c-11.21-10.88-12.9-24.87-14-34C-.49,81.55.53,83.2,1.26,61.77Z"/><g class="cls-3"><path class="cls-4" d="M27.73,33.75l9,76.47a5.18,5.18,0,0,0,.16,1.57c.78,2.84,4,4.19,6.34,5.12a26.47,26.47,0,0,0,7.07,1.71c5.59.62,9.55,1,15.21.37,5.07-.62,10.26-1.31,15.49-4.87a26.26,26.26,0,0,0,2.24-1.69l8.06-78.68Z"/><path class="cls-5" d="M29.5,55.53l3.26,30.16s3.53,2.25,4.09,2.62c3.42,2.16,7.29,2.77,11.49,3.45A65.38,65.38,0,0,0,61,92.45a78.55,78.55,0,0,0,11.26-1c7-1.2,10.14-2.82,11.39-3.5a28.58,28.58,0,0,0,3.45-2.23q1.4-15.31,2.78-30.62a83.55,83.55,0,0,1-10.42,3,88,88,0,0,1-19.18,1.82,121,121,0,0,1-24.45-2.4Z"/><path class="cls-6" d="M27.73,19.86a6.15,6.15,0,0,0-.67,2.53c-.23,1.43-.34,2.47-.42,3.23s-.26,2.16-.54,3.73H24.66l-.17,6.11V36a96,96,0,0,0,9.58,2.44c3.41.68,8.28,1.45,23.88,1.72,0,0,18.9.32,29-1.93a34.49,34.49,0,0,0,5.68-1.83c1-.44,1.82-.86,2.39-1.17l-.65-6a1,1,0,0,1-.86.07.82.82,0,0,1-.4-.44c-.56-1.25-.56-5.7-2.27-9a3.59,3.59,0,0,0-.21-.38c-.78-1.21-2.2-1.49-7.12-2.51l-.63-.13a62.25,62.25,0,0,0-7.7-1.06c-6.74-.48-12.48-.39-16.64-.36,0,0-17.42.12-28.27,2.94A4.21,4.21,0,0,0,27.73,19.86Z"/><path class="cls-7" d="M84.84,18.49c0,.06.55.24.56.56,0,.62-1.71,1.22-2.16,1.37-7.47,2.56-22.58,2-22.58,2-6.76-.24-5.57,0-14-.28-7.3-.24-13.12-.59-13.15-.36a9.52,9.52,0,0,0,2.23.43,142.38,142.38,0,0,0,16,1.26c5.41.14,9.27.09,10.75.07,4-.07,6.88-.22,8-.28,2.3-.14,4.38-.34,8.56-.76.52-.05,2.81-.56,7.44-1.58.75-.17,1.69-.38,1.73-.79C88.23,19.36,84.9,18.35,84.84,18.49Z"/><path class="cls-7" d="M32.19,19.43c0-.18,4.9-1.26,10.36-2A126.52,126.52,0,0,1,59,16.34a124,124,0,0,1,21,1.43c0,.09-3.69-.24-10.79-.36-1.35,0-4.69-.06-9,0-3.48.06-8.66.16-14.89.64C37.19,18.69,32.22,19.61,32.19,19.43Z"/><path class="cls-7" d="M92.36,24.64s.18,1.34.4,2.44c.1.51.25,1.21.5,2.05-.45.14-1.13.34-2,.56a127.87,127.87,0,0,1-12.8,2.88,117,117,0,0,1-35.39.14c-.64-.1-6.37-1-6.33-1.36s4.13,0,8.49.14c9.49.39,16.75.69,25.24-.28a76.39,76.39,0,0,0,15.27-3.56c1.32-.49,2.57-1,2.57-1C90,25.9,91.35,25.2,92.36,24.64Z"/></g></g></svg>