<svg xmlns="http://www.w3.org/2000/svg" viewBox="0 0 119.55 149.59"><defs><style>.cls-1{fill:#08b7b3;}.cls-2{fill:#f29220;}.cls-3{fill:#1d1d1b;}.cls-4{fill:#d4a258;}.cls-5{fill:#e0b070;}.cls-6{fill:#fff;opacity:0.58;}.cls-6,.cls-8{isolation:isolate;}.cls-7{fill:#f8b232;}.cls-8{fill:#ca9e68;opacity:0.37;}.cls-9{fill:#2d170e;}.cls-10{fill:#46230f;}.cls-11{fill:#77422b;}</style></defs><g id="Layer_4" data-name="Layer 4"><path class="cls-1" d="M1.26,65.34c.73-21.46-.17-26.84,3-37,2.21-7.09,4.18-13.11,10-18,6.83-5.74,17.87-9,26-5,1.62.8,2.49,1.57,6,5,13.88,13.52,14.26,14.94,19,19,3.79,3.24,11.08,9.48,22,13,6.38,2,8.15,1.3,14,4,4.14,1.9,10.9,5,15,12,4,6.8,3.39,13.71,3,18-.87,9.75-5.93,24.91-17,29-4.71,1.74-7,.19-13,3-5.78,2.72-9,6.7-11,9-1.31,1.49-14.67,16.48-28,20s-27.89-4.13-36-12c-11.21-10.89-12.9-24.88-14-34C-.49,85.12.53,86.77,1.26,65.34Z"/><g id="Layer_1-2" data-name="Layer 1"><path class="cls-2" d="M62.71,11.1A11.59,11.59,0,0,0,46.39,9.54a12,12,0,0,0-1.55,1.56L13.28,49.29a5.29,5.29,0,0,0-.8,5.41l20,47.65L51.28,147a2.71,2.71,0,0,0,5,0l18.78-44.66,20-47.65a5.29,5.29,0,0,0-.79-5.41Z"/><path class="cls-3" d="M53.77,149.59h0a3.59,3.59,0,0,1-3.34-2.23L11.64,55.05a6.21,6.21,0,0,1,.95-6.35L44.13,10.52A12.51,12.51,0,0,1,61.74,8.84a12.12,12.12,0,0,1,1.68,1.68h0L95,48.72a6.14,6.14,0,0,1,.94,6.34L57.11,147.35A3.58,3.58,0,0,1,53.77,149.59Zm0-141.78a10.59,10.59,0,0,0-8.22,3.87L14,49.87a4.33,4.33,0,0,0-.66,4.47l38.79,92.31a1.73,1.73,0,0,0,1.65,1.1h0a1.71,1.71,0,0,0,1.65-1.1l38.82-92.3a4.35,4.35,0,0,0-.66-4.47L62,11.68A10.63,10.63,0,0,0,53.77,7.81Z"/><path class="cls-4" d="M84.34,30.71l12.23,7C67.65,74.94,67.7,100.41,67.41,102.46c0,0-.09,1.16-.1,1.19-.23.73-3.42.36-7.13-.8s-6.52-2.72-6.29-3.45C53.89,99.39,52.58,73,84.34,30.71Z"/><path class="cls-3" d="M66,104.74a23.11,23.11,0,0,1-6-1.21,27.36,27.36,0,0,1-4.76-2c-1.05-.57-2.2-1.33-2.05-2.26,0-.91-.09-7.4,3.34-18.62,3.34-10.89,10.78-28.48,27.24-50.43a.75.75,0,0,1,1-.2l12.23,7a.72.72,0,0,1,.23,1.08c-17.29,22.29-27.57,44.9-29,63.65,0,.37,0,.61-.06.77a9.38,9.38,0,0,1-.14,1.33C67.8,104.51,67,104.74,66,104.74ZM54.63,99.4c.34.45,2.24,1.62,5.77,2.73,3.36,1.07,5.54,1.25,6.21,1.12,0-.31.07-.78.07-.84v-.07c0-.11,0-.36.06-.69C68.12,82.8,78.31,60.18,95.47,37.88L84.53,31.65c-16,21.5-23.3,38.7-26.59,49.36-3.58,11.65-3.3,18.26-3.3,18.33Z"/><path class="cls-3" d="M62.66,103.66h0a.73.73,0,0,1-.7-.77h0c0-.08.45-8.49,4.28-20.89a136.34,136.34,0,0,1,25-46,.73.73,0,1,1,1.18.86.18.18,0,0,1,0,.07A135,135,0,0,0,67.61,82.39,94.8,94.8,0,0,0,63.38,103,.72.72,0,0,1,62.66,103.66Z"/><path class="cls-3" d="M57.71,102.68h0a.74.74,0,0,1-.7-.77c0-.09.47-8.43,4.34-21a150,150,0,0,1,25.2-47.67.73.73,0,1,1,1.15.9C60.44,69.08,58.47,101.65,58.45,102A.74.74,0,0,1,57.71,102.68Z"/><path class="cls-5" d="M84.34,30.71c-.37.67,2,2.76,5.42,4.69s6.43,2.93,6.81,2.26S94.51,34.9,91.13,33,84.71,30.06,84.34,30.71Z"/><path class="cls-3" d="M96,38.58c-1.84,0-5-1.67-6.57-2.56-2-1.16-6.65-4-5.7-5.69h0c.94-1.66,5.77.84,7.8,2s6.65,4,5.7,5.68A1.28,1.28,0,0,1,96,38.58Zm-10.63-7.3a20.59,20.59,0,0,0,4.78,3.48,20.44,20.44,0,0,0,5.43,2.33,20.49,20.49,0,0,0-4.79-3.47,20.22,20.22,0,0,0-5.42-2.34Z"/><path class="cls-6" d="M65.1,102.18h0a.56.56,0,0,1-.53-.57c0-.07.34-7.56,3.89-19A137.06,137.06,0,0,1,92.12,38.67a.55.55,0,0,1,.77-.13.56.56,0,0,1,.13.77l0,0C67.1,72,65.66,101.36,65.65,101.66A.54.54,0,0,1,65.1,102.18Z"/><path class="cls-4" d="M40.26,7.7,26.6,11.08c17.71,43.71,12.31,85.69,12,87.75a.11.11,0,0,0,0,.08c0,.77,3.19,1.29,7.07,1.17s7-.85,7-1.62C52.69,98.46,59.34,57,40.26,7.7Z"/><path class="cls-3" d="M44.46,100.83c-2.61,0-6.52-.27-6.57-1.89a2.11,2.11,0,0,1,0-.25c.3-2.23,5.55-44-12-87.35a.7.7,0,0,1,0-.6.72.72,0,0,1,.48-.37L40.08,7a.74.74,0,0,1,.87.45A205.18,205.18,0,0,1,54.38,71.55a151.08,151.08,0,0,1-.94,27c-.11,1.83-5.4,2.2-7.7,2.28Zm-5.07-2.1c.58.3,2.74.73,6.29.61s5.84-.73,6.29-1.06a148.28,148.28,0,0,0,.92-26.71,203.37,203.37,0,0,0-13.08-63l-12.21,3C44.58,54.16,39.85,95.1,39.39,98.73Zm-.75.1Z"/><path class="cls-3" d="M43.29,100.23h-.08a.72.72,0,0,1-.64-.81c0-.49,5.42-48.92-11.73-87.91a.73.73,0,0,1,.37-1,.74.74,0,0,1,1,.38h0C41.24,31.49,44,54.5,44.68,70.18A203.31,203.31,0,0,1,44,99.58.73.73,0,0,1,43.29,100.23Z"/><path class="cls-3" d="M48.33,100.62h-.09a.72.72,0,0,1-.64-.81c0-.48,5.27-48.66-11.47-89.7a.73.73,0,1,1,1.35-.57C46.31,31.16,49,54.62,49.68,70.45A212.33,212.33,0,0,1,49.05,100,.72.72,0,0,1,48.33,100.62Z"/><ellipse class="cls-5" cx="33.43" cy="9.39" rx="7.03" ry="1.39" transform="translate(-1.28 8.28) rotate(-13.86)"/><path class="cls-3" d="M28.42,12.28c-1.3,0-2.34-.26-2.53-1-.47-1.86,4.77-3.36,7-3.9s7.59-1.66,8.07.2h0c.45,1.85-4.77,3.36-7,3.92A27.28,27.28,0,0,1,28.42,12.28Zm-.69-1.49A20.3,20.3,0,0,0,33.59,10a20.64,20.64,0,0,0,5.55-2,20.22,20.22,0,0,0-5.87.76A20.17,20.17,0,0,0,27.73,10.79Zm12-2.7Z"/><path class="cls-6" d="M40.92,98.13h-.1a.56.56,0,0,1-.45-.63c.06-.39,5.65-40.08-11.14-84a.55.55,0,0,1,1-.43.08.08,0,0,1,0,0,190.5,190.5,0,0,1,12,59,152.37,152.37,0,0,1-.81,25.53A.56.56,0,0,1,40.92,98.13Z"/><path class="cls-4" d="M53.83,1.84l14,1.77C55.26,49.08,65.49,90.17,66,92.17a.24.24,0,0,1,0,.08c.07.77-3,1.65-6.89,2s-7.06,0-7.13-.79C52,93.44,40.6,53.07,53.83,1.84Z"/><path class="cls-3" d="M56.37,95.08A19.85,19.85,0,0,1,54.06,95c-1.22-.13-2.62-.42-2.77-1.39A147.5,147.5,0,0,1,47.22,66.9,204.83,204.83,0,0,1,53.11,1.66a.74.74,0,0,1,.81-.55l14,1.76a.78.78,0,0,1,.52.32.72.72,0,0,1,.1.6c-12.4,45.05-2.35,86-1.79,88.15a1.14,1.14,0,0,1,.06.25c.08,1-1.29,1.57-2.5,1.91a27.26,27.26,0,0,1-5.07.85C58.21,95,57.26,95.08,56.37,95.08Zm-3.67-1.9c.5.28,2.7.63,6.38.32s5.63-1,6.17-1.34c-.88-3.55-10.32-43.67,1.61-87.93L54.38,2.65a203.2,203.2,0,0,0-5.69,64.1,149.16,149.16,0,0,0,4,26.43Zm0,.19Z"/><path class="cls-3" d="M61.45,94.11a.74.74,0,0,1-.73-.57,204.43,204.43,0,0,1-4-29.12C55.56,48.76,55.61,25.59,62.21,4.1a.73.73,0,1,1,1.4.43c-12.51,40.73-1.56,88.2-1.45,88.68a.72.72,0,0,1-.54.88Z"/><path class="cls-3" d="M56.5,95.08a.72.72,0,0,1-.73-.56,208.29,208.29,0,0,1-4-29.24c-1.15-15.82-1.21-39.41,5-61.92a.73.73,0,0,1,1.41.39c-11.87,42.71-1.1,90-1,90.43a.72.72,0,0,1-.54.88h0A.39.39,0,0,1,56.5,95.08Z"/><path class="cls-5" d="M53.83,1.84c-.1.76,3,1.77,6.8,2.26s7.05.27,7.15-.49-3-1.77-6.8-2.27S53.92,1.08,53.83,1.84Z"/><path class="cls-3" d="M64.45,5.11a34.1,34.1,0,0,1-3.91-.28c-2.32-.29-7.7-1.18-7.44-3.08h0c.24-1.9,5.65-1.42,8-1.13S68.75,1.8,68.51,3.7C68.37,4.8,66.47,5.11,64.45,5.11ZM55,2a21,21,0,0,0,5.75,1.39,20.52,20.52,0,0,0,5.91.08,20.74,20.74,0,0,0-5.75-1.39A20.52,20.52,0,0,0,55,2Z"/><path class="cls-6" d="M63.6,91.74a.54.54,0,0,1-.53-.4A150,150,0,0,1,59.3,66.07a190.22,190.22,0,0,1,5.09-60,.56.56,0,0,1,.67-.4.57.57,0,0,1,.4.67C53.86,51.9,64,90.65,64.12,91.05a.53.53,0,0,1-.37.67h0A.34.34,0,0,1,63.6,91.74Z"/><path class="cls-4" d="M23.22,23,12,29.33c30.85,51.49,33.83,84.61,34.9,96.76.09.74,3,1,6.57.66s6.37-1.29,6.29-2C58.33,114.49,55.94,77.79,23.22,23Z"/><path class="cls-3" d="M50.39,127.64c-2,0-4.13-.3-4.25-1.48-1.1-12.32-4-45-34.81-96.46a.76.76,0,0,1-.08-.57.72.72,0,0,1,.37-.45l11.24-6.31a.72.72,0,0,1,1,.26c30.42,51,34.67,86.13,36.28,99.37.12,1,.23,1.88.33,2.62.11,1-1.25,1.61-2.28,1.95a24.52,24.52,0,0,1-4.65.91A29.88,29.88,0,0,1,50.39,127.64Zm-2.81-1.83c.52.26,2.52.53,5.78.18s5.15-1,5.6-1.39c-.09-.69-.19-1.51-.3-2.45C57.08,109.06,52.91,74.34,23,24L13,29.6c30.48,51.09,33.51,83.73,34.62,96.22Z"/><path class="cls-3" d="M50.37,127.63h0a.73.73,0,0,1-.74-.73v0c0-.1.2-10.18-3.9-27.23C42,83.91,33.64,58.85,15.45,28.83a.72.72,0,0,1,.21-1,.73.73,0,0,1,1,.21l0,0C35,58.29,43.38,83.53,47.18,99.38c4.13,17.22,3.92,27.44,3.92,27.54A.73.73,0,0,1,50.37,127.63Z"/><path class="cls-3" d="M55.39,127.19h0a.73.73,0,0,1-.73-.73c0-.1.05-10.5-4.19-27.86-3.92-16-12.41-41.41-30.59-71.47a.74.74,0,0,1,.25-1,.73.73,0,0,1,1,.25C39.44,56.59,48,82.17,51.91,98.31c4.28,17.52,4.22,28.05,4.21,28.16A.73.73,0,0,1,55.39,127.19Z"/><path class="cls-5" d="M23.22,23c.37.65-1.85,2.59-5,4.35S12.32,30,12,29.33s1.86-2.6,5-4.35S22.86,22.34,23.22,23Z"/><path class="cls-3" d="M12.59,30.26a1.31,1.31,0,0,1-1.25-.57c-.51-.9.52-2,1.33-2.67a24.92,24.92,0,0,1,3.92-2.68C18.47,23.29,23,21,23.88,22.63c.5.9-.52,2-1.34,2.67A24.28,24.28,0,0,1,18.61,28C17.19,28.77,14.31,30.26,12.59,30.26Zm9.64-6.71a17.62,17.62,0,0,0-4.94,2.07A17.5,17.5,0,0,0,13,28.77,18.29,18.29,0,0,0,17.9,26.7,18.44,18.44,0,0,0,22.23,23.55Zm.54,0Z"/><path class="cls-6" d="M48.6,125.53a.56.56,0,0,1-.55-.51c0-.11-.82-11.15-5.33-28.17A254.33,254.33,0,0,0,14.58,31.07a.55.55,0,0,1,.95-.56h0A255.35,255.35,0,0,1,43.79,96.6c4.54,17.11,5.35,28.22,5.36,28.34a.56.56,0,0,1-.51.59Z"/><path class="cls-4" d="M77,9.59l11.27,4.76C64.79,66.07,65.56,97.5,65.85,109.05c0,.71-2.72,1.3-6.1,1.32s-6.1-.52-6.1-1.22C53.83,99.39,52.11,64.64,77,9.59Z"/><path class="cls-3" d="M59.51,111.11a22.36,22.36,0,0,1-4.24-.37c-1-.2-2.38-.59-2.39-1.6,0-.73,0-1.56,0-2.52C53,94,53.17,60.48,76.28,9.28a.75.75,0,0,1,1-.37L88.5,13.68a.73.73,0,0,1,.4,1v0C65.48,66.34,66.28,97.37,66.58,109.05c0,1.83-4.77,2.06-6.84,2.08ZM54.38,109a13.87,13.87,0,0,0,5.38.69,13.83,13.83,0,0,0,5.36-.77C64.81,97,64.14,66,87.25,14.72l-9.92-4.18c-22.69,50.55-22.87,83.61-22.95,96.1Z"/><path class="cls-3" d="M62.12,110.49a.73.73,0,0,1-.73-.67c0-.1-.84-10.14,1.43-26.94,2.1-15.49,7.33-40.09,20.43-69.34a.73.73,0,0,1,1.36.54s0,0,0,.05c-13,29.1-18.23,53.55-20.31,68.94-2.26,16.65-1.44,26.52-1.43,26.62a.74.74,0,0,1-.67.79Z"/><path class="cls-3" d="M57.88,111.07a.74.74,0,0,1-.73-.65c0-.09-1.21-10,.92-26.93,2-15.6,7.23-40.57,21.17-71a.74.74,0,0,1,1-.36.73.73,0,0,1,.36,1c-13.86,30.22-19.1,55-21,70.53-2.1,16.76-.93,26.47-.92,26.57a.73.73,0,0,1-.63.82h-.09Z"/><path class="cls-5" d="M77,9.59c-.27.65,2,2.24,5.13,3.55S88,15,88.22,14.34s-2-2.24-5.13-3.55S77.24,8.94,77,9.59Z"/><path class="cls-3" d="M87.41,15.35a6.44,6.44,0,0,1-1.32-.16,22.64,22.64,0,0,1-4.27-1.38,22.78,22.78,0,0,1-4-2.07c-.86-.59-2-1.49-1.56-2.42h0c.39-.93,1.8-.77,2.81-.57a23,23,0,0,1,4.28,1.38,22.68,22.68,0,0,1,4,2.08c.85.59,1.95,1.48,1.55,2.41A1.5,1.5,0,0,1,87.41,15.35Zm-9.34-5.29a18,18,0,0,0,4.32,2.4,17.8,17.8,0,0,0,4.73,1.41,17.75,17.75,0,0,0-4.31-2.41A17.59,17.59,0,0,0,78.07,10.06ZM77,9.59Z"/><path class="cls-6" d="M64,108.3a.56.56,0,0,1-.55-.51c0-.11-.68-10.42,1.64-26.84A227.18,227.18,0,0,1,85,15.8a.57.57,0,0,1,.74-.26.56.56,0,0,1,.26.74h0A225.82,225.82,0,0,0,66.17,81.11c-2.31,16.3-1.64,26.5-1.63,26.6a.56.56,0,0,1-.51.59h0Z"/><path class="cls-7" d="M25.79,86.37l6.71,16L51.27,147a2.7,2.7,0,0,0,5,0L75,102.35l20-47.65C81.1,75.07,25.79,86.37,25.79,86.37Z"/><path class="cls-3" d="M53.76,149.59h0a3.59,3.59,0,0,1-3.34-2.24L24.94,86.72a.89.89,0,0,1,0-.78,1,1,0,0,1,.63-.47c.56-.11,55.1-11.42,68.73-31.28a.91.91,0,0,1,1.6.87L57.1,147.35A3.58,3.58,0,0,1,53.76,149.59ZM27.06,87l25.05,59.62a1.73,1.73,0,0,0,1.65,1.1h0a1.74,1.74,0,0,0,1.65-1.1L92,59.72C75.36,75.82,34.77,85.41,27.06,87Z"/><path class="cls-7" d="M12.55,54.88,25.79,86.35s26.54-5.42,47.49-15.52C70.76,70.69,22.45,67.82,12.55,54.88Z"/><path class="cls-3" d="M25.79,87.26A.9.9,0,0,1,25,86.7L11.71,55.24a.92.92,0,0,1,1.57-.91c9.66,12.63,58,15.47,60,15.58a.91.91,0,0,1,.86,1,.89.89,0,0,1-.51.77C52.85,81.69,26.23,87.19,26,87.24A.5.5,0,0,1,25.79,87.26ZM15.09,58.54,26.33,85.3c4.17-.91,25.26-5.7,43.32-13.79-5-.37-14.3-1.25-24.12-2.94C30.92,66,20.72,62.68,15.09,58.54Z"/><path class="cls-8" d="M29.56,80.25,25,69.19a.78.78,0,0,1,.43-1,.83.83,0,0,1,.58,0c7.89,3.26,22.3,5.06,28.7,5.73a.77.77,0,0,1,.18,1.49,199.47,199.47,0,0,1-22.57,6.31A2.44,2.44,0,0,1,29.56,80.25Z"/><path class="cls-6" d="M27.49,84.19a.93.93,0,0,1-.85-.56L18.11,63a.91.91,0,0,1,.48-1.2.93.93,0,0,1,1,.15c.07.06,8.1,6.39,42.94,9.59a.92.92,0,1,1-.16,1.84h0C36.59,71,25.28,67,20.85,64.82l7.5,18.11a.9.9,0,0,1-.49,1.19.84.84,0,0,1-.35.07Z"/><path class="cls-6" d="M53.83,146.07h0a2.37,2.37,0,0,1-2-1.66l-23.23-56a.92.92,0,0,1,0-.76.91.91,0,0,1,.6-.48l3.55-.86h0C69.09,78.1,85.31,66.15,87,64.82a.91.91,0,0,1,1.4,1.07l-32.6,78.47C55.24,145.77,54.41,146.07,53.83,146.07ZM30.67,88.68l22.81,55a1.57,1.57,0,0,0,.34.51,1.62,1.62,0,0,0,.36-.57l31.4-75.54c-6.11,4-22.6,13.27-52.38,20Z"/><path class="cls-8" d="M71.2,77.05A133.67,133.67,0,0,1,41.94,87.44a2.38,2.38,0,0,0-1.79,2.85s0,0,0,.08l12.67,49a.91.91,0,0,0,1.11.66.93.93,0,0,0,.66-.63l18-61.14a1,1,0,0,0-1.44-1.23Z"/><path class="cls-9" d="M11.19,28.88a3.35,3.35,0,0,1,.63-1A7.75,7.75,0,0,1,13,26.63,28.25,28.25,0,0,1,17.26,24c2.67-1.42,3.54-1.7,4.53-1.83a3.45,3.45,0,0,1,1.5,0c1.42.4,1.94,1.93,3.11,4.42A48.6,48.6,0,0,0,29,31.46c1.87,3,3.37,4.18,2.88,5.26a1.6,1.6,0,0,1-1.47.91c-2-.16-2-5.64-4.68-6.23-.1,0-.88-.18-1.17.19s.4,1.53,1.37,3.81c1.13,2.65.89,3.2.73,3.43a1.69,1.69,0,0,1-1.86.56c-1-.37-.79-1.66-1.91-3.66-.32-.59-1.7-3.08-3.41-3a1.85,1.85,0,0,0-1.33.63A2.18,2.18,0,0,0,18,35c.46,2.84,1,3.83.47,5-.17.37-.26.58-.47.65-1.3.39-3-5.67-5.91-9.34C11.78,31,10.89,29.87,11.19,28.88Z"/><path class="cls-10" d="M12,28.92a3.48,3.48,0,0,1,.62-1,8.22,8.22,0,0,1,1.2-1.23A27.47,27.47,0,0,1,18,24c2.68-1.42,3.54-1.71,4.53-1.84a3.79,3.79,0,0,1,1.5,0c1.42.41,1.94,1.94,3.11,4.43a48.77,48.77,0,0,0,2.57,4.91c1.87,3,3.36,4.18,2.87,5.26a1.6,1.6,0,0,1-1.46.91c-2-.18-2-5.65-4.69-6.23-.1,0-.88-.19-1.17.19s.39,1.53,1.36,3.8c1.14,2.65.9,3.2.74,3.44a1.72,1.72,0,0,1-1.86.55c-1-.36-.79-1.66-1.91-3.66-.32-.59-1.7-3.07-3.41-3a1.81,1.81,0,0,0-1.32.61,2.2,2.2,0,0,0-.13,1.72c.45,2.84,1,3.83.46,5-.17.36-.26.57-.47.64-1.31.41-3.05-5.66-5.91-9.32C12.56,31,11.66,29.91,12,28.92Z"/><path class="cls-11" d="M22.83,23a2.19,2.19,0,0,1,1.87.33c.36.3.66.8.54.95s-.57-.2-1.49-.41c-1.1-.27-1.84-.09-1.87-.28S22.38,23.13,22.83,23Z"/><path class="cls-11" d="M18.86,39.84a1,1,0,0,0,.2-.82c-.06-.21-.22-.42-.3-.39s0,.27-.09.68-.29.77-.22.82S18.73,40,18.86,39.84Z"/><path class="cls-11" d="M27.08,37.71a1.34,1.34,0,0,1-.33,1.13c-.21.2-.54.36-.62.26s.15-.33.36-.89.18-1.1.31-1.12S27,37.42,27.08,37.71Z"/><path class="cls-11" d="M32.3,35.93A1.32,1.32,0,0,1,32,37.05c-.21.2-.54.37-.62.27s.16-.34.37-.89.18-1.1.3-1.13S32.26,35.64,32.3,35.93Z"/><path class="cls-9" d="M26,10.57a4.39,4.39,0,0,1,1.7-1.41,12.32,12.32,0,0,1,2.83-1.25A32.77,32.77,0,0,1,33.7,7.1l1.22-.21a19.11,19.11,0,0,1,4.13-.42,2.26,2.26,0,0,1,1.47.44,1.82,1.82,0,0,1,.44.52,55.79,55.79,0,0,1,2.51,6.8c.27.85.73,2.25,1.3,4,1.8,5.38,2.56,7.13,1.72,8a2.26,2.26,0,0,1-2.5.25c-2.3-1.27,0-6.56-3-9.21-.57-.5-1.55-1.11-2-.81-.89.58.37,4.44,1.77,8.82.88,2.73,1.49,4.24.74,5.07a2.26,2.26,0,0,1-2.52.37c-1.63-.86-1.07-3.89-2.36-10.6a5,5,0,0,0-1.73-3.3c-.69-.48-1.87-.86-2.55-.37A2.1,2.1,0,0,0,31.77,18c-.16,2.32,1.13,3.35.6,4.43a2,2,0,0,1-1.87,1c-1.49-.26-1-3.16-3.19-8C26.32,13.24,25.3,11.8,26,10.57Z"/><path class="cls-10" d="M25.59,11.08a4.34,4.34,0,0,1,1.69-1.42,12.18,12.18,0,0,1,2.84-1.24,29.43,29.43,0,0,1,3.2-.82l1.22-.21A19.2,19.2,0,0,1,38.68,7a2.36,2.36,0,0,1,1.47.44,2.26,2.26,0,0,1,.44.53,58.4,58.4,0,0,1,2.5,6.8c.27.85.74,2.25,1.3,4,1.8,5.39,2.57,7.13,1.72,8a2.25,2.25,0,0,1-2.49.25c-2.31-1.28,0-6.56-3-9.21-.57-.51-1.55-1.1-2-.82-.89.58.36,4.45,1.77,8.82.88,2.73,1.49,4.24.73,5.07a2.24,2.24,0,0,1-2.52.37c-1.62-.86-1.05-3.88-2.35-10.61a4.86,4.86,0,0,0-1.72-3.28c-.7-.48-1.87-.87-2.57-.37a2.12,2.12,0,0,0-.57,1.63c-.16,2.32,1.13,3.35.6,4.42a1.94,1.94,0,0,1-1.87,1c-1.49-.26-1-3.16-3.19-8.07C25.94,13.74,24.92,12.3,25.59,11.08Z"/><path class="cls-11" d="M27.79,10.64a2.16,2.16,0,0,0-1,1.63c0,.47.18,1,.37,1s.22-.55.65-1.4c.52-1,1.1-1.44,1-1.6S28.18,10.35,27.79,10.64Z"/><path class="cls-11" d="M40.82,29.15a1.4,1.4,0,0,1-.33,1.13c-.22.2-.54.36-.63.26s.16-.33.37-.89.18-1.1.3-1.13S40.77,28.86,40.82,29.15Z"/><path class="cls-11" d="M45.87,25.14a1.34,1.34,0,0,1-.33,1.13c-.21.2-.54.37-.62.27s.16-.34.36-.89.18-1.1.31-1.13S45.83,24.85,45.87,25.14Z"/><path class="cls-11" d="M31.51,21.86A1.34,1.34,0,0,1,31.18,23c-.21.21-.54.37-.62.27s.16-.33.36-.88.18-1.1.3-1.14S31.47,21.57,31.51,21.86Z"/><path class="cls-9" d="M53.3.81A7.56,7.56,0,0,1,55.74.08L56.26,0a36.53,36.53,0,0,1,5.65.64h0c-2.12-.22,4.61.42,6.09,2a4.94,4.94,0,0,1,.36.44c1.13,1.66.19,3.86-.65,6.63,0,0-.7,2.29-1.35,5.6-1,5-.5,7.47-1.8,7.94a2.27,2.27,0,0,1-2.37-.83c-1.55-2.13,2.74-6,1.18-9.61-.3-.7-.93-1.67-1.47-1.59-1,.15-1.55,4.18-2.12,8.74-.37,2.85-.45,4.47-1.47,4.91a2.23,2.23,0,0,1-2.44-.74c-1.1-1.46.69-3.95,2.36-10.6a4.93,4.93,0,0,0-.17-3.71c-.43-.73-1.33-1.57-2.16-1.4-.59.12-.91.69-1.21,1.22-1.13,2-.39,3.52-1.33,4.27a2,2,0,0,1-2.13.15c-1.21-.74-.37-2.81.86-10.7A3.43,3.43,0,0,1,53.3.81Z"/><path class="cls-10" d="M52.51,1.11A7.64,7.64,0,0,1,55,.37l.52-.06A38.21,38.21,0,0,1,61.12,1h0c-2.12-.21,4.62.43,6.09,2a2.56,2.56,0,0,1,.36.44c1.14,1.65.19,3.86-.65,6.62,0,0-.69,2.3-1.34,5.61-1,5-.51,7.46-1.81,7.93a2.27,2.27,0,0,1-2.37-.82c-1.55-2.14,2.74-6,1.18-9.62-.3-.7-.93-1.66-1.46-1.59-1,.15-1.56,4.18-2.13,8.74-.37,2.85-.45,4.48-1.47,4.91a2.23,2.23,0,0,1-2.44-.73c-1.1-1.47.69-4,2.36-10.61a4.86,4.86,0,0,0-.17-3.7c-.43-.74-1.33-1.57-2.16-1.4-.58.11-.91.69-1.21,1.22-1.12,2-.39,3.52-1.32,4.27a2,2,0,0,1-2.14.14c-1.21-.73-.36-2.81.86-10.69A3.45,3.45,0,0,1,52.51,1.11Z"/><path class="cls-11" d="M54.35,1.61a2.2,2.2,0,0,0-1.44,1.22c-.16.45-.16,1,0,1.1s.39-.45,1.08-1.1,1.53-1,1.47-1.18S54.81,1.47,54.35,1.61Z"/><path class="cls-11" d="M61.65,21.36A1.37,1.37,0,0,0,62,22.49c.21.2.54.36.62.26s-.15-.33-.36-.89-.18-1.1-.31-1.13S61.71,21.07,61.65,21.36Z"/><path class="cls-11" d="M55.48,23.15a1.34,1.34,0,0,0,.33,1.13c.21.2.54.37.62.26s-.16-.33-.37-.88-.17-1.1-.3-1.13S55.53,22.86,55.48,23.15Z"/><path class="cls-11" d="M50.39,12.71a1.32,1.32,0,0,0,.33,1.12c.21.21.54.37.62.27s-.15-.34-.36-.89-.18-1.12-.3-1.13S50.43,12.42,50.39,12.71Z"/><path class="cls-9" d="M77,8.62a6.78,6.78,0,0,1,1.35,0,10,10,0,0,1,2.47.52,28.68,28.68,0,0,1,3,1.06c.65.27,1.47.65,2.43,1.15a6.67,6.67,0,0,1,1.22.75,5.38,5.38,0,0,1,1.46,1.59c.54,1.14-.36,2.48-1.25,4.19a49.1,49.1,0,0,0-2.25,5.52c-1.71,4.79-1.25,7.51-2.62,7.86A1.72,1.72,0,0,1,81,30.37c-.49-1,.8-2,1.51-4.63.15-.57.78-2.93.08-3.32s-2.1.73-3,2.06c-1.52,2.25-.67,4.36-1.79,4.9a2.66,2.66,0,0,1-3.08-1.63c-.35-1.26,1.21-2.13,3.28-6.17a4.1,4.1,0,0,0,.67-3c-.24-.87-1-1.81-1.83-1.8-.53,0-1,.4-1.42,1-2.13,2.64-1.8,5.33-2.93,5.61a1.88,1.88,0,0,1-1.74-1.1c-.75-1.47,1-2.85,2.67-6.69S75.31,8.94,77,8.62Z"/><path class="cls-10" d="M77.71,9.58a6.78,6.78,0,0,1,1.35,0,10.41,10.41,0,0,1,2.48.51,31.07,31.07,0,0,1,3,1.07c.65.28,1.47.65,2.43,1.15a6.57,6.57,0,0,1,1.22.73,5.38,5.38,0,0,1,1.47,1.59c.53,1.14-.37,2.49-1.26,4.19a49.87,49.87,0,0,0-2.25,5.52c-1.71,4.8-1.24,7.51-2.62,7.86a1.73,1.73,0,0,1-1.78-.84c-.49-1,.8-2,1.51-4.64.15-.57.78-2.91.08-3.3s-2.1.74-3,2.06c-1.51,2.25-.66,4.36-1.76,4.9a2.67,2.67,0,0,1-3.09-1.63c-.34-1.27,1.22-2.13,3.28-6.17a4.12,4.12,0,0,0,.68-3c-.25-.87-1-1.81-1.83-1.8-.54,0-1,.4-1.43,1-2.13,2.64-1.8,5.33-2.93,5.61a1.85,1.85,0,0,1-1.73-1.1c-.75-1.47,1-2.85,2.67-6.69S76,9.9,77.71,9.58Z"/><path class="cls-11" d="M87.93,14.38a2.19,2.19,0,0,1,.81,1.71c0,.48-.28,1-.47,1s-.17-.58-.52-1.47c-.42-1.06-1-1.54-.84-1.68S87.58,14.07,87.93,14.38Z"/><path class="cls-11" d="M73,23.63a1.34,1.34,0,0,0,.86-.8c.1-.28.08-.64,0-.67s-.23.29-.64.73-.92.65-.88.77S72.71,23.72,73,23.63Z"/><path class="cls-11" d="M77.92,29.9a1.34,1.34,0,0,0,.86-.8c.09-.28.08-.64,0-.67s-.23.29-.64.71-.92.66-.88.77S77.64,30,77.92,29.9Z"/><path class="cls-11" d="M83.29,31.58a1.35,1.35,0,0,0,.87-.78c.08-.29.07-.64,0-.68s-.24.29-.64.73-.92.65-.88.77S83,31.68,83.29,31.58Z"/><path class="cls-9" d="M84.56,29.82a5.62,5.62,0,0,1,2.6.46,15.79,15.79,0,0,1,2.45,1c1.29.61,2.24,1.16,2.6,1.38a21,21,0,0,1,2.93,2c.49.42.88.79,1.14,1a3.34,3.34,0,0,1,.68.82,3.68,3.68,0,0,1,.34.85c.27,1.12-1.87,3.25-2.75,4.21a21.59,21.59,0,0,0-3,4.43c-2.41,4.22-2.31,7.15-3.74,7.28a1.74,1.74,0,0,1-1.61-1.1c-.33-1,1.08-1.8,2.17-4.3.24-.53,1.2-2.72.58-3.23s-2.16.4-3.23,1.56c-1.84,2-1.31,4.16-2.47,4.51a2.64,2.64,0,0,1-2.77-2.06c-.15-1.29,1.5-1.9,4.12-5.53a4,4,0,0,0,1.1-2.83c-.11-.88-.72-1.92-1.53-2a2,2,0,0,0-1.53.74c-2.47,2.26-2.57,4.93-3.7,5-.61,0-1.3-.64-1.53-1.33-.54-1.61,1.68-2.71,3.6-6.11C83.11,33,82.82,30.21,84.56,29.82Z"/><path class="cls-10" d="M85.39,30.55A5.76,5.76,0,0,1,88,31a16.51,16.51,0,0,1,2.46,1c1.29.61,2.24,1.17,2.59,1.38a19.77,19.77,0,0,1,2.94,2,14.92,14.92,0,0,1,1.14,1.05,3.29,3.29,0,0,1,.68.81,3.87,3.87,0,0,1,.34.85c.27,1.12-1.87,3.26-2.75,4.21a22.6,22.6,0,0,0-3,4.43C90,51,90.08,53.94,88.65,54.07A1.71,1.71,0,0,1,87,53c-.33-1,1.08-1.8,2.17-4.29.23-.54,1.2-2.73.58-3.23s-2.16.39-3.23,1.55c-1.84,2-1.31,4.16-2.47,4.51a2.63,2.63,0,0,1-2.77-2c-.15-1.3,1.5-1.91,4.12-5.54a4,4,0,0,0,1.1-2.82c-.11-.89-.72-1.93-1.53-2a2,2,0,0,0-1.53.73c-2.47,2.26-2.57,4.93-3.7,5-.61,0-1.3-.64-1.53-1.32-.55-1.62,1.68-2.71,3.6-6.12C83.94,33.73,83.66,30.94,85.39,30.55Z"/><path class="cls-11" d="M96.21,37.08a2.18,2.18,0,0,1,.61,1.79c-.09.47-.39,1-.58.93s-.1-.59-.37-1.5c-.3-1.1-.79-1.64-.64-1.78S95.89,36.74,96.21,37.08Z"/><path class="cls-11" d="M79.53,44.41a1,1,0,0,0,.76-.33c.12-.16.19-.4.13-.45s-.22.13-.59.32-.77.21-.76.3S79.32,44.4,79.53,44.41Z"/><path class="cls-11" d="M83.44,51.13a1.08,1.08,0,0,0,.87-.37c.15-.19.23-.46.16-.52s-.26.15-.68.36-.89.26-.89.37S83.2,51.12,83.44,51.13Z"/><path class="cls-11" d="M88.35,53.6a1.11,1.11,0,0,0,.88-.37c.14-.19.23-.46.15-.52s-.25.15-.68.36-.89.25-.88.37S88.1,53.59,88.35,53.6Z"/></g></g></svg>