<svg xmlns="http://www.w3.org/2000/svg" viewBox="0 0 124.93 134.66"><defs><style>.cls-1{fill:#08b7b3;}.cls-2{fill:#2d2010;isolation:isolate;opacity:0.3;}.cls-3{fill:#ceab76;}.cls-4{fill:#fedfb3;}.cls-5{fill:#dfc7a3;}.cls-6{fill:#9f6656;}.cls-7{fill:#72301a;}.cls-8{fill:#cdb6ad;}.cls-9{fill:#fdd08c;}</style></defs><g id="Layer_4" data-name="Layer 4"><path class="cls-1" d="M4,61.77c.73-21.45-.17-26.83,3-37,2.21-7.09,4.17-13.1,10-18,6.83-5.73,17.87-9,26-5,1.62.8,2.48,1.58,6,5,13.87,13.53,14.25,14.94,19,19C71.75,29,79,35.25,90,38.77c6.37,2.06,8.14,1.31,14,4,4.13,1.91,10.89,5,15,12,4,6.81,3.38,13.71,3,18-.88,9.75-5.93,24.92-17,29-4.71,1.74-7,.19-13,3-5.78,2.72-9,6.7-11,9-1.31,1.5-14.68,16.48-28,20s-27.9-4.13-36-12C5.74,110.89,4.06,96.9,3,87.77,2.21,81.55,3.23,83.2,4,61.77Z"/><path class="cls-2" d="M120.15,45.83l-.2-.2S79.4,17.52,63.34,18.82,2.56,63.12,2.56,63.12a4.89,4.89,0,0,0-2,3.48A15.63,15.63,0,0,0,0,70.73a17.36,17.36,0,0,0,2.52,9c4.77,5.79,56.4,36.59,61.9,38.62a8,8,0,0,0,3.18.51s0,0,0-.08a8.42,8.42,0,0,0,5.77-3s44.48-45.31,47.87-50C128.71,55.31,121.49,47.18,120.15,45.83Z"/><path class="cls-3" d="M1.7,61.48s45.95-44.31,62-45.61,56.6,26.81,56.6,26.81,9.49,8.68,1.3,20.1c-3.38,4.73-47.86,50-47.86,50a8,8,0,0,1-9,2.46c-5.5-2-57.13-32.83-61.9-38.61C2.88,76.67-1.9,69.58,1.7,61.48Z"/><path class="cls-4" d="M2.92,60.17s44.73-43,60.78-44.3,56.6,26.81,56.6,26.81,4.34,3.76,0,9.4c-3.54,4.61-47.86,50-47.86,50a8.06,8.06,0,0,1-9,2.46C58,102.55,6.35,71.75,1.57,66,1.57,66-.6,63.15,2.92,60.17Z"/><path class="cls-3" d="M58.35,94.46c-.52-.32-2.73-1.47-.69-4,1.55-1.9,5.92-6.08,5.92-6.08a4,4,0,0,1,4.15,0c1.68,1.08,7.57,4.06,7.57,4.06s2,.58-1.19,4.4c-2.53,3-4.07,4.46-4.07,4.46s-2,2.08-5.69.46A33.23,33.23,0,0,1,58.35,94.46Z"/><path class="cls-5" d="M57.88,94.16c1.7-2,5.7-5.82,5.7-5.82a4,4,0,0,1,4.16,0c1.35.87,5.47,3,7,3.76,2.33-3.13.57-3.63.57-3.63s-5.89-3-7.57-4a4,4,0,0,0-4.15,0s-4.37,4.17-5.92,6.07S57.11,93.61,57.88,94.16Z"/><path class="cls-3" d="M41.14,84.29c-.48-.31-2.52-1.41-.59-3.71C42,78.84,46.14,75,46.14,75a3.71,3.71,0,0,1,3.86.06c1.54,1,7,3.87,7,3.87s1.9.58-1.16,4.09C53.41,85.79,52,87.12,52,87.12s-1.89,1.9-5.3.35A31.72,31.72,0,0,1,41.14,84.29Z"/><path class="cls-5" d="M40.7,84c1.61-1.83,5.38-5.33,5.38-5.33a3.71,3.71,0,0,1,3.86.06c1.25.82,5.05,2.85,6.45,3.59C58.6,79.45,57,79,57,79s-5.44-2.85-7-3.87A3.71,3.71,0,0,0,46.14,75S42,78.84,40.55,80.58,40,83.48,40.7,84Z"/><path class="cls-3" d="M25.39,74.16c-.45-.3-2.39-1.4-.5-3.57,1.45-1.65,5.47-5.24,5.47-5.24a3.55,3.55,0,0,1,3.71.12c1.46,1,6.63,3.84,6.63,3.84s1.82.59-1.19,3.9c-2.36,2.6-3.77,3.86-3.77,3.86s-1.85,1.79-5.1.24A30,30,0,0,1,25.39,74.16Z"/><path class="cls-5" d="M25,73.87c1.58-1.73,5.27-5,5.27-5A3.58,3.58,0,0,1,34,69c1.18.82,4.8,2.83,6.13,3.57,2.18-2.72.62-3.23.62-3.23s-5.18-2.83-6.63-3.84a3.55,3.55,0,0,0-3.71-.12s-4,3.59-5.47,5.24S24.3,73.36,25,73.87Z"/><path class="cls-3" d="M9.43,65c-.43-.3-2.3-1.39-.43-3.46,1.42-1.58,5.38-5,5.38-5a3.45,3.45,0,0,1,3.59.17c1.4,1,6.37,3.83,6.37,3.83s1.75.59-1.21,3.76A51.78,51.78,0,0,1,19.42,68s-1.82,1.71-4.94.16A28.75,28.75,0,0,1,9.43,65Z"/><path class="cls-5" d="M9,64.7c1.56-1.66,5.18-4.8,5.18-4.8a3.44,3.44,0,0,1,3.59.18c1.14.81,4.62,2.81,5.9,3.54,2.14-2.6.64-3.11.64-3.11s-5-2.83-6.37-3.83a3.45,3.45,0,0,0-3.59-.17s-4,3.43-5.38,5S8.39,64.2,9,64.7Z"/><path class="cls-3" d="M73.85,79.64c-.52-.32-2.73-1.47-.7-4,1.55-1.9,5.92-6.08,5.92-6.08a4,4,0,0,1,4.15,0c1.67,1.08,7.57,4,7.57,4s2,.59-1.19,4.41c-2.54,3-4.07,4.46-4.07,4.46s-2,2.08-5.69.46A32.89,32.89,0,0,1,73.85,79.64Z"/><path class="cls-5" d="M73.37,79.34c1.7-2,5.7-5.82,5.7-5.82a4,4,0,0,1,4.16,0c1.35.87,5.47,3,7,3.76,2.33-3.13.57-3.64.57-3.64s-5.89-3-7.56-4a4,4,0,0,0-4.16,0s-4.37,4.17-5.92,6.07S72.6,78.79,73.37,79.34Z"/><path class="cls-3" d="M56.63,69.47c-.48-.31-2.52-1.41-.59-3.71,1.47-1.74,5.59-5.56,5.59-5.56a3.71,3.71,0,0,1,3.86.06c1.54,1,7,3.87,7,3.87s1.9.58-1.16,4.09C68.9,71,67.45,72.3,67.45,72.3s-1.89,1.9-5.3.35A31,31,0,0,1,56.63,69.47Z"/><path class="cls-5" d="M56.19,69.18c1.6-1.83,5.38-5.33,5.38-5.33a3.71,3.71,0,0,1,3.86.06c1.25.82,5,2.85,6.45,3.59,2.21-2.87.58-3.37.58-3.37s-5.43-2.85-7-3.87a3.71,3.71,0,0,0-3.86-.06S57.51,64,56,65.76,55.48,68.66,56.19,69.18Z"/><path class="cls-3" d="M40.85,59.39c-.44-.29-2.35-1.37-.49-3.5,1.42-1.63,5.38-5.16,5.38-5.16a3.52,3.52,0,0,1,3.65.12c1.43,1,6.52,3.78,6.52,3.78s1.78.57-1.17,3.83C52.42,61,51,62.26,51,62.26S49.21,64,46,62.5A29.52,29.52,0,0,1,40.85,59.39Z"/><path class="cls-5" d="M40.44,59.11c1.55-1.7,5.19-4.94,5.19-4.94a3.5,3.5,0,0,1,3.64.12c1.17.8,4.73,2.79,6,3.51,2.13-2.68.6-3.17.6-3.17s-5.08-2.79-6.52-3.78a3.51,3.51,0,0,0-3.65-.13s-4,3.54-5.38,5.16S39.79,58.61,40.44,59.11Z"/><path class="cls-3" d="M24.8,50.45c-.4-.27-2.11-1.27-.4-3.17,1.29-1.44,4.91-4.58,4.91-4.58a3.18,3.18,0,0,1,3.29.16c1.28.91,5.83,3.49,5.83,3.49s1.59.55-1.11,3.44a46.63,46.63,0,0,1-3.39,3.38s-1.66,1.57-4.52.15A26,26,0,0,1,24.8,50.45Z"/><path class="cls-5" d="M24.43,50.19c1.42-1.51,4.73-4.38,4.73-4.38a3.16,3.16,0,0,1,3.29.16c1,.74,4.22,2.57,5.39,3.24,2-2.38.59-2.85.59-2.85s-4.55-2.58-5.83-3.49a3.14,3.14,0,0,0-3.28-.16s-3.62,3.13-4.92,4.58S23.84,49.73,24.43,50.19Z"/><path class="cls-3" d="M88.6,67.1c-.52-.32-2.73-1.48-.69-4,1.55-1.9,5.92-6.07,5.92-6.07a4,4,0,0,1,4.15,0c1.67,1.07,7.57,4.05,7.57,4.05s2,.58-1.19,4.41c-2.54,3-4.07,4.45-4.07,4.45s-2,2.08-5.69.47A34.46,34.46,0,0,1,88.6,67.1Z"/><path class="cls-5" d="M88.12,66.79c1.7-2,5.71-5.82,5.71-5.82A4,4,0,0,1,98,61c1.35.87,5.48,3,7,3.76,2.33-3.12.57-3.63.57-3.63s-5.9-3-7.57-4.05a4,4,0,0,0-4.15,0s-4.37,4.17-5.92,6.07S87.36,66.25,88.12,66.79Z"/><path class="cls-3" d="M71.38,56.92c-.48-.3-2.52-1.41-.59-3.7,1.47-1.74,5.59-5.56,5.59-5.56a3.71,3.71,0,0,1,3.86.06c1.54,1,7,3.87,7,3.87s1.9.57-1.16,4.08c-2.4,2.75-3.85,4.09-3.85,4.09s-1.89,1.9-5.3.35A31.33,31.33,0,0,1,71.38,56.92Z"/><path class="cls-5" d="M70.94,56.63c1.61-1.83,5.39-5.33,5.39-5.33a3.71,3.71,0,0,1,3.86.06c1.24.83,5,2.86,6.45,3.6,2.21-2.88.58-3.37.58-3.37s-5.44-2.85-7-3.87a3.71,3.71,0,0,0-3.86-.06s-4.12,3.82-5.59,5.56S70.24,56.12,70.94,56.63Z"/><path class="cls-3" d="M55.58,46.92c-.44-.29-2.31-1.35-.48-3.44,1.38-1.59,5.26-5,5.26-5a3.45,3.45,0,0,1,3.57.12c1.41,1,6.39,3.7,6.39,3.7s1.75.57-1.15,3.76c-2.26,2.5-3.63,3.72-3.63,3.72s-1.78,1.72-4.9.23A28.84,28.84,0,0,1,55.58,46.92Z"/><path class="cls-5" d="M55.17,46.64c1.52-1.66,5.08-4.84,5.08-4.84a3.44,3.44,0,0,1,3.57.13c1.14.78,4.63,2.72,5.91,3.43,2.09-2.62.6-3.11.6-3.11s-5-2.72-6.39-3.7a3.45,3.45,0,0,0-3.57-.12s-3.88,3.47-5.27,5S54.53,46.16,55.17,46.64Z"/><path class="cls-3" d="M39.56,37.88c-.4-.28-2.12-1.28-.4-3.19,1.31-1.46,5-4.62,5-4.62a3.2,3.2,0,0,1,3.31.16c1.3.93,5.88,3.53,5.88,3.53s1.61.54-1.12,3.46c-2.14,2.29-3.42,3.4-3.42,3.4s-1.67,1.58-4.55.15A27,27,0,0,1,39.56,37.88Z"/><path class="cls-5" d="M39.19,37.62C40.62,36.09,44,33.2,44,33.2a3.17,3.17,0,0,1,3.31.16c1,.75,4.26,2.59,5.44,3.27,2-2.4.59-2.87.59-2.87s-4.58-2.6-5.87-3.53a3.21,3.21,0,0,0-3.32-.16s-3.64,3.16-5,4.62S38.6,37.16,39.19,37.62Z"/><path class="cls-3" d="M100.72,52.27c-.51-.32-2.72-1.47-.69-4,1.55-1.9,5.92-6.07,5.92-6.07a4,4,0,0,1,4.15,0c1.68,1.07,7.57,4.05,7.57,4.05s2,.58-1.18,4.41c-2.54,3-4.08,4.45-4.08,4.45s-2,2.08-5.69.47A33.59,33.59,0,0,1,100.72,52.27Z"/><path class="cls-5" d="M100.25,52c1.7-2,5.7-5.82,5.7-5.82a4,4,0,0,1,4.15,0c1.36.87,5.48,3,7,3.76,2.33-3.13.57-3.63.57-3.63s-5.89-3-7.57-4.05a4,4,0,0,0-4.15,0S101.58,46.4,100,48.3,99.48,51.43,100.25,52Z"/><path class="cls-3" d="M83.38,42.42c-.44-.28-2.3-1.29-.54-3.39C84.18,37.44,88,34,88,34a3.38,3.38,0,0,1,3.52.06c1.41.93,6.37,3.53,6.37,3.53s1.74.53-1.06,3.73C94.59,43.78,93.26,45,93.26,45s-1.72,1.74-4.83.32A28.39,28.39,0,0,1,83.38,42.42Z"/><path class="cls-5" d="M83,42.15c1.46-1.67,4.92-4.87,4.92-4.87a3.38,3.38,0,0,1,3.52.06c1.14.75,4.62,2.6,5.9,3.28,2-2.62.53-3.07.53-3.07s-5-2.61-6.38-3.54A3.38,3.38,0,0,0,88,34S84.18,37.44,82.84,39,82.33,41.68,83,42.15Z"/><path class="cls-3" d="M68.18,32.45c-.39-.26-2.07-1.21-.43-3.08,1.24-1.43,4.72-4.53,4.72-4.53a3.07,3.07,0,0,1,3.2.1c1.26.88,5.73,3.32,5.73,3.32s1.57.51-1,3.37A46.33,46.33,0,0,1,77.12,35s-1.6,1.55-4.4.21A25.65,25.65,0,0,1,68.18,32.45Z"/><path class="cls-5" d="M67.82,32.2c1.36-1.5,4.55-4.34,4.55-4.34a3.08,3.08,0,0,1,3.2.11c1,.7,4.15,2.44,5.3,3.08,1.88-2.35.53-2.79.53-2.79s-4.46-2.45-5.73-3.32a3.08,3.08,0,0,0-3.2-.11S69,27.94,67.75,29.36,67.24,31.76,67.82,32.2Z"/><path class="cls-3" d="M54.64,25.57c-.36-.25-1.89-1.15-.35-2.86,1.17-1.31,4.43-4.13,4.43-4.13a2.87,2.87,0,0,1,3,.14c1.15.83,5.26,3.16,5.26,3.16s1.44.49-1,3.1a41,41,0,0,1-3.06,3s-1.49,1.42-4.08.14A23.77,23.77,0,0,1,54.64,25.57Z"/><path class="cls-5" d="M54.31,25.34c1.29-1.37,4.28-4,4.28-4a2.85,2.85,0,0,1,3,.14c.94.67,3.81,2.33,4.87,2.93,1.77-2.15.53-2.57.53-2.57s-4.11-2.33-5.26-3.16a2.87,2.87,0,0,0-3-.14s-3.25,2.82-4.43,4.13S53.78,24.92,54.31,25.34Z"/><path class="cls-5" d="M68.27,104.91a7.61,7.61,0,0,1-4.8-.26C58,102.63,6.35,71.83,1.57,66a3.78,3.78,0,0,1-.65-2.31,16.88,16.88,0,0,0,2,13c4.77,5.79,56.4,36.59,61.89,38.62a8.07,8.07,0,0,0,3.19.51A72.37,72.37,0,0,0,68.27,104.91Z"/><path class="cls-6" d="M96.75,62c1.39-6.78,5.91-8,1.29-14.36.46-4,0-6-4.16-8-2.78-1.59-5.55,0-8.33-2-.92-.8-.92-3.19-1.38-4-4.17-4.78-3.24-3.58-9.72-5.17-3.23-.8-8.78-3.59-12-3.59-2.77,0-4.16,2-6.47,2.39-1.39.4-4.63.8-6.48,1.2-7.39,2-7-.84-8.85,5.54-1.39,6,.56,5.35-5,7.34-7.86,2.39-6.5,2.26-8.35,9-1.69,6.16-1.7,9.47-1,11.44,1,2.77,2.58,2.59,4.91,5.51,4.52,5.66,1.18,9.44,4.95,17.43,3.09,6.53,6.25,6,7.1,11.25s-1.85,8.92.31,11c1.34,1.28,4.07,1.46,5.34.3,1.88-1.72-.7-5.3.91-11.44.8-3.07,1.88-3.84,2.23-4.06,2.09-1.33,5.33-.51,7.23,1.16,2.19,1.92,2.41,4.8,2.59,7.62.44,6.85-2.35,9.93-.56,12,1.42,1.61,5,1.79,6.51.25,2-2.06-1-5.91-.57-14.72.12-2.37.48-4.88,2.31-6.13a3.41,3.41,0,0,1,2.53-.66c2.82.62,3.81,6.33,4.06,7.74.59,3.38,0,4.89,1.13,5.68a4,4,0,0,0,4.88-1.06c2-2.82-3.91-7.25-2.12-12.34a12.45,12.45,0,0,1,3.49-4.6,17.53,17.53,0,0,1,4.32-3,10,10,0,0,1,3.81-5.92,11.3,11.3,0,0,0,4.18-3.42,10.56,10.56,0,0,0,1.51-2.78C98.76,67.65,95.83,65.94,96.75,62Z"/><path class="cls-7" d="M88.11,81.58c-1.53,1-1.59,2.19-2,3.42a10.48,10.48,0,0,0,1.67-1.14,6.92,6.92,0,0,0,1.49-3.17A11.27,11.27,0,0,0,88.11,81.58Z"/><path class="cls-7" d="M32.85,44.45c4-1.43,4.1-1.51,4.37-3.67l-1.58.58C30.1,43,29.14,43.47,28.4,46A45.27,45.27,0,0,1,32.85,44.45Z"/><path class="cls-7" d="M96.75,62c1.39-6.78,5.91-8,1.29-14.36.46-4,0-6-4.16-8-2.78-1.59-5.55,0-8.33-2-.92-.8-.92-3.19-1.38-4-4.17-4.78-3.24-3.58-9.72-5.17-3.23-.8-8.78-3.59-12-3.59-2.77,0-4.16,2-6.47,2.39-1.39.4-4.63.8-6.48,1.2-6.74,1.81-7-.37-8.4,4a30.3,30.3,0,0,0,5.61-1c1.85-.4,5.09-.8,6.47-1.19C55.48,30,56.86,28,59.64,28c3.23,0,8.78,2.78,12,3.58,6.47,1.59,5.55.4,9.71,5.18.46.8.46,3.19,1.39,4,2.77,2,5.55.4,8.32,2,4.17,2,4.63,4,4.17,8,4.62,6.37.1,7.58-1.29,14.35-.93,4,2,5.69.62,9.68-.1.32-.21.62-.32.89a6.1,6.1,0,0,0,3.11-4C98.76,67.65,95.83,65.94,96.75,62Z"/><path class="cls-8" d="M48.87,32.11a7.32,7.32,0,0,0-3.71,2.26C43.24,36.58,43,39.72,43.59,40S44.93,37.8,48,35.71a13.29,13.29,0,0,1,2.6-1.4c2.71-1.08,4.53-.71,4.58-1.07S52.08,31.29,48.87,32.11Z"/><path class="cls-8" d="M31.17,51.58a12.82,12.82,0,0,0-.54,7.7c1.25,5,5.59,8.55,6.49,8s-1.74-4.14-1.62-10.75a24.66,24.66,0,0,1,.63-5.21c1.22-5,3.62-7.31,3.14-7.73C38.64,43,33.26,46.09,31.17,51.58Z"/><path class="cls-8" d="M44.08,104.85a2.58,2.58,0,0,0,.69,1.35c.72.72,1.8.87,1.9.69s-.71-.52-1.36-1.64a5.28,5.28,0,0,1-.42-.94c-.31-1-.13-1.59-.26-1.61A2.4,2.4,0,0,0,44.08,104.85Z"/><path class="cls-8" d="M77.94,103.28a1.8,1.8,0,0,0,.74.78c.64.34,1.41.23,1.43.08s-.59-.21-1.25-.84a3.23,3.23,0,0,1-.48-.56c-.4-.59-.41-1-.5-1A1.69,1.69,0,0,0,77.94,103.28Z"/><path class="cls-4" d="M34.38,60.59s4.07.92,2.79,2.58-4.31,5-4.83,2.4S33.1,62.25,34.38,60.59Z"/><path class="cls-9" d="M34.38,60.59a1.47,1.47,0,0,0-.1.13c1,.3,3.32,1.15,2.31,2.45-.86,1.12-2.52,3-3.67,3.31,1.09.4,3.22-2,4.24-3.31C38.45,61.51,34.38,60.59,34.38,60.59Z"/><path class="cls-4" d="M86.14,74.16s4.06.92,2.78,2.59-4.3,5-4.83,2.4S84.85,75.82,86.14,74.16Z"/><path class="cls-9" d="M86.14,74.16l-.1.12c1,.31,3.32,1.16,2.31,2.46-.87,1.12-2.52,3-3.67,3.3,1.08.4,3.21-2,4.24-3.3C90.21,75.08,86.14,74.16,86.14,74.16Z"/><path class="cls-4" d="M67.47,41.49s2.61,2.84.43,3.51-6.92,1.76-5.54-.58S65.28,42.16,67.47,41.49Z"/><path class="cls-9" d="M67.47,41.49l-.17,0c.61.78,1.85,2.64.14,3.16-1.47.45-4.1,1.1-5.24.75.59.88,4,.08,5.7-.45C70.08,44.33,67.47,41.49,67.47,41.49Z"/><path class="cls-4" d="M65.82,56.06s2.61,2.84.43,3.51-6.91,1.76-5.53-.58S63.63,56.72,65.82,56.06Z"/><path class="cls-9" d="M65.82,56.06l-.17,0c.62.78,1.86,2.64.14,3.16-1.47.45-4.1,1.1-5.23.75.59.88,4,.08,5.69-.45C68.43,58.9,65.82,56.06,65.82,56.06Z"/><path class="cls-4" d="M50.37,36.22s2.61,2.84.43,3.51-6.92,1.76-5.54-.58S48.18,36.88,50.37,36.22Z"/><path class="cls-9" d="M50.37,36.22l-.17.05c.61.77,1.85,2.64.14,3.16-1.47.45-4.1,1.09-5.24.75.59.88,3.95.07,5.7-.46C53,39.06,50.37,36.22,50.37,36.22Z"/><path class="cls-4" d="M87.87,53.57s2.62,2.84.43,3.51-6.91,1.76-5.53-.58S85.69,54.23,87.87,53.57Z"/><path class="cls-9" d="M87.87,53.57l-.16,0c.61.78,1.85,2.64.14,3.16-1.48.45-4.11,1.1-5.24.75.59.88,4,.08,5.69-.45C90.49,56.41,87.87,53.57,87.87,53.57Z"/><path class="cls-4" d="M78.1,59.59s2.61,2.84.43,3.51-6.92,1.76-5.54-.58S75.91,60.26,78.1,59.59Z"/><path class="cls-9" d="M78.1,59.59l-.17,0c.61.78,1.85,2.64.14,3.16-1.47.45-4.1,1.1-5.24.75.59.88,4,.08,5.7-.45C80.71,62.43,78.1,59.59,78.1,59.59Z"/><path class="cls-4" d="M41.15,53.27c1,.75,3,.53,3.26,1.4.25,1.42-2.16,2.41-3.81,2.63-1.14.1-1.27-1.21-1.27-2a1.48,1.48,0,0,1,1.14-1.81C40.68,53.43,40.91,53.35,41.15,53.27Z"/><path class="cls-9" d="M40.18,55.33a1.48,1.48,0,0,1,1.13-1.81l.15-.06a2,2,0,0,1-.31-.19c-.24.08-.47.16-.68.25a1.46,1.46,0,0,0-1.13,1.81c0,.76.12,2.07,1.27,2l.35,0C40.27,57,40.18,56,40.18,55.33Z"/><path class="cls-4" d="M59.75,36.28c1.25-.32,2.12-1.92,3.11-1.64,1.53.57,1.22,2.85.55,4.17-.49.89-1.85.29-2.6-.12-.71-.25-1.55-1-1.17-1.78C59.66,36.71,59.71,36.5,59.75,36.28Z"/><path class="cls-9" d="M61.26,38.08c-.71-.26-1.54-1-1.17-1.79a.59.59,0,0,1,0-.14,2.6,2.6,0,0,1-.36.13c0,.22-.09.43-.11.63-.37.82.46,1.53,1.17,1.78.75.41,2.11,1,2.61.12,0-.09.09-.18.13-.28C62.93,38.89,61.88,38.41,61.26,38.08Z"/><path class="cls-4" d="M74.39,38.18c1.26-.32,2.12-1.92,3.12-1.64,1.53.57,1.21,2.85.55,4.17-.5.89-1.86.29-2.61-.12s-1.54-1-1.17-1.78C74.31,38.61,74.35,38.4,74.39,38.18Z"/><path class="cls-9" d="M75.9,40c-.71-.25-1.54-1-1.17-1.78,0,0,0-.1,0-.14a3,3,0,0,1-.36.13c0,.22-.08.43-.11.63-.37.82.46,1.52,1.17,1.78s2.11,1,2.61.12a2.55,2.55,0,0,0,.13-.29C77.57,40.79,76.53,40.31,75.9,40Z"/><path class="cls-4" d="M88.25,48.88c.53-1-.32-2.63.57-3.11,1.49-.63,3.31,1,4.05,2.34.47.9-1,1.4-1.79,1.63-.69.3-1.85.39-2.34-.38C88.58,49.22,88.43,49.05,88.25,48.88Z"/><path class="cls-9" d="M90.82,49.05c-.69.3-1.85.39-2.33-.39l-.12-.1a1,1,0,0,1-.12.32l.49.48a1.91,1.91,0,0,0,2.34.38c.84-.23,2.26-.73,1.79-1.63-.05-.09-.11-.18-.17-.27C92.62,48.48,91.53,48.86,90.82,49.05Z"/><path class="cls-4" d="M52.62,43.45c1,.74,3,.52,3.27,1.4.25,1.42-2.16,2.4-3.81,2.62-1.14.11-1.26-1.2-1.26-2A1.46,1.46,0,0,1,52,43.7C52.16,43.61,52.38,43.53,52.62,43.45Z"/><path class="cls-9" d="M51.66,45.5a1.47,1.47,0,0,1,1.13-1.8l.15-.06a2.14,2.14,0,0,1-.32-.2L52,43.7a1.45,1.45,0,0,0-1.13,1.8c0,.77.12,2.08,1.26,2a2.25,2.25,0,0,0,.36-.06C51.75,47.16,51.66,46.14,51.66,45.5Z"/><path class="cls-4" d="M55.18,50.21c1,.75,3,.53,3.27,1.4C58.7,53,56.29,54,54.64,54.24c-1.14.11-1.27-1.21-1.27-2a1.47,1.47,0,0,1,1.14-1.8Z"/><path class="cls-9" d="M54.22,52.27a1.47,1.47,0,0,1,1.13-1.8l.15-.06a2.8,2.8,0,0,1-.32-.2l-.67.26a1.45,1.45,0,0,0-1.13,1.8c0,.77.12,2.08,1.26,2l.36-.06C54.31,53.92,54.22,52.91,54.22,52.27Z"/><path class="cls-4" d="M74.29,75.46c1.31,0,2.65-1.35,3.52-.85,1.29.91.27,3-.78,4.15-.77.74-1.88-.16-2.48-.73-.6-.41-1.18-1.3-.56-2C74.08,75.85,74.19,75.66,74.29,75.46Z"/><path class="cls-9" d="M75.18,77.54c-.6-.41-1.18-1.3-.56-2l.06-.13-.38,0A6.45,6.45,0,0,0,74,76c-.62.69,0,1.58.56,2,.6.57,1.71,1.47,2.47.73.07-.08.15-.16.22-.25C76.53,78.71,75.68,78,75.18,77.54Z"/><path class="cls-4" d="M42.1,80.27c1.3,0,2.64-1.35,3.51-.84,1.29.9.27,3-.78,4.14-.77.74-1.88-.16-2.48-.73-.6-.41-1.18-1.29-.56-2C41.88,80.67,42,80.47,42.1,80.27Z"/><path class="cls-9" d="M43,82.35c-.6-.41-1.18-1.29-.56-2l.06-.13a1.58,1.58,0,0,1-.38,0,5.39,5.39,0,0,0-.3.58c-.62.7,0,1.58.56,2,.6.57,1.71,1.47,2.47.73l.22-.25C44.33,83.53,43.48,82.83,43,82.35Z"/><path class="cls-4" d="M42.22,72.43c1,.74,3,.53,3.26,1.4.26,1.42-2.15,2.4-3.8,2.62-1.14.11-1.27-1.2-1.27-2a1.48,1.48,0,0,1,1.14-1.81Z"/><path class="cls-9" d="M45.46,73.84C45.14,75,43.12,75.75,41.68,76c-1.14.1-1.27-1.21-1.27-2v0a1.62,1.62,0,0,0,0,.62c0,.77.13,2.08,1.27,2,1.65-.22,4.06-1.2,3.8-2.62A.14.14,0,0,0,45.46,73.84Z"/><path class="cls-4" d="M67,76.83c.1,1.13,1.73,2.19,1.2,3-1,1.17-3.49.42-4.85-.41-.9-.61.07-1.62.69-2.17a1.86,1.86,0,0,1,2.27-.61C66.56,76.67,66.79,76.75,67,76.83Z"/><path class="cls-9" d="M68.21,79.79c-1.16.63-3.23,0-4.42-.76-.9-.61.07-1.63.69-2.18l0,0a2.32,2.32,0,0,0-.5.44c-.62.55-1.59,1.57-.68,2.17,1.36.84,3.88,1.58,4.85.41Z"/><path class="cls-4" d="M54.73,59.24c.1,1.13,1.73,2.2,1.2,3-1,1.17-3.49.42-4.85-.41-.9-.61.07-1.62.69-2.17A1.86,1.86,0,0,1,54,59C54.26,59.08,54.49,59.16,54.73,59.24Z"/><path class="cls-9" d="M55.91,62.2c-1.15.62-3.23,0-4.41-.76-.91-.61.06-1.63.68-2.18l0,0a2.27,2.27,0,0,0-.49.44c-.62.55-1.6,1.57-.69,2.17,1.36.84,3.89,1.58,4.85.41A.21.21,0,0,0,55.91,62.2Z"/><path class="cls-4" d="M55.55,80s4.14.48,2.83,1.36S54,84,53.47,82.64,54.24,80.89,55.55,80Z"/><path class="cls-4" d="M79.43,45.92s4.14.48,2.83,1.36-4.38,2.62-4.91,1.26S78.13,46.79,79.43,45.92Z"/><path class="cls-4" d="M73.75,53.72s4.14.49,2.83,1.36-4.38,2.63-4.91,1.27S72.44,54.59,73.75,53.72Z"/><path class="cls-4" d="M92.69,61.41s.88,3.52-.52,2.76-4.36-2.66-3-3.55S91.29,60.65,92.69,61.41Z"/><path class="cls-4" d="M85.4,66.52s4.14.49,2.83,1.36-4.38,2.63-4.91,1.27S84.1,67.4,85.4,66.52Z"/><path class="cls-4" d="M67,67s4.14.49,2.83,1.36S65.41,71,64.88,69.62,65.66,67.87,67,67Z"/><path class="cls-4" d="M72.4,83.85s4.14.49,2.83,1.36-4.38,2.62-4.91,1.26S71.09,84.72,72.4,83.85Z"/><path class="cls-4" d="M43.52,62.65s3.27.38,2.24,1.08-3.46,2.07-3.88,1S42.49,63.34,43.52,62.65Z"/><path class="cls-4" d="M40,45.46s3.26.39,2.23,1.08-3.46,2.07-3.88,1S39,46.15,40,45.46Z"/><path class="cls-4" d="M53.28,71s3.73-1.86,3.12-.41S54.16,75.13,53,74.28,52.67,72.39,53.28,71Z"/><path class="cls-4" d="M46.08,89.35s3.73-1.86,3.12-.41S47,93.53,45.77,92.68,45.47,90.79,46.08,89.35Z"/><path class="cls-4" d="M64.88,89.21c-1.1-.28-1.85-1.68-2.72-1.43-1.34.5-1.06,2.49-.48,3.64.43.78,1.62.25,2.27-.11s1.35-.84,1-1.55C65,89.58,64.92,89.4,64.88,89.21Z"/><path class="cls-9" d="M63.56,90.77c.62-.22,1.35-.84,1-1.55a.59.59,0,0,0,0-.13,2.08,2.08,0,0,0,.32.12c0,.19.07.37.09.55.33.71-.4,1.33-1,1.55s-1.84.89-2.27.11l-.12-.25C62.1,91.48,63,91.07,63.56,90.77Z"/><path class="cls-4" d="M80.94,85.9s.52,2.07-.3,1.62-2.57-1.56-1.8-2.09S80.12,85.45,80.94,85.9Z"/></g></svg>