<svg id="Layer_1" data-name="Layer 1" xmlns="http://www.w3.org/2000/svg" xmlns:xlink="http://www.w3.org/1999/xlink" width="48.01" height="198.21" viewBox="0 0 48.01 198.21"><defs><style>.cls-1{fill:url(#radial-gradient);}.cls-2{fill:url(#linear-gradient);}.cls-3{fill:url(#radial-gradient-2);}.cls-4{fill:url(#radial-gradient-3);}.cls-5{fill:url(#radial-gradient-4);}.cls-6{fill:url(#radial-gradient-5);}.cls-7{fill:url(#radial-gradient-6);}.cls-8{fill:url(#radial-gradient-7);}.cls-9{fill:url(#radial-gradient-8);}.cls-10{fill:url(#radial-gradient-9);}.cls-11{fill:url(#radial-gradient-10);}.cls-12{fill:url(#radial-gradient-11);}.cls-13{fill:url(#radial-gradient-12);}.cls-14{fill:url(#radial-gradient-13);}.cls-15{fill:url(#radial-gradient-14);}.cls-16{fill:url(#radial-gradient-15);}.cls-17{fill:url(#radial-gradient-16);}.cls-18{fill:url(#radial-gradient-17);}.cls-19{fill:url(#radial-gradient-18);}.cls-20{fill:url(#radial-gradient-19);}.cls-21{fill:url(#radial-gradient-20);}.cls-22{fill:url(#radial-gradient-21);}.cls-23{fill:url(#radial-gradient-22);}.cls-24{fill:url(#radial-gradient-23);}.cls-25{fill:url(#radial-gradient-24);}.cls-26{fill:url(#radial-gradient-25);}.cls-27{fill:url(#radial-gradient-26);}.cls-28{fill:url(#radial-gradient-27);}.cls-29{fill:url(#radial-gradient-28);}.cls-30{fill:url(#radial-gradient-29);}.cls-31{fill:url(#radial-gradient-30);}.cls-32{fill:url(#radial-gradient-31);}.cls-33{fill:url(#radial-gradient-32);}.cls-34{fill:url(#radial-gradient-33);}.cls-35{fill:url(#radial-gradient-34);}.cls-36{fill:url(#radial-gradient-35);}.cls-37{fill:url(#radial-gradient-36);}.cls-38{fill:#2d170e;}.cls-39{fill:#46230f;}.cls-40{fill:#77422b;}.cls-41{fill:#fedfb3;}.cls-42{fill:#fdd08c;}</style><radialGradient id="radial-gradient" cx="15.46" cy="175.94" r="19.38" gradientUnits="userSpaceOnUse"><stop offset="0" stop-color="#fff"/><stop offset="0" stop-color="#d0c5a3"/><stop offset="0.57" stop-color="#cec3a1"/><stop offset="0.72" stop-color="#cbbf9d"/><stop offset="0.82" stop-color="#c7b998"/><stop offset="0.97" stop-color="#baa989"/><stop offset="1" stop-color="#b6a485"/></radialGradient><linearGradient id="linear-gradient" x1="1.25" y1="80.46" x2="46.54" y2="80.46" gradientUnits="userSpaceOnUse"><stop offset="0" stop-color="#fff"/><stop offset="0" stop-color="#e5c47f"/><stop offset="0.32" stop-color="#e3c17d"/><stop offset="0.51" stop-color="#deb974"/><stop offset="0.67" stop-color="#d5ab66"/><stop offset="0.81" stop-color="#c89752"/><stop offset="0.94" stop-color="#b87d38"/><stop offset="1" stop-color="#ae6d29"/></linearGradient><radialGradient id="radial-gradient-2" cx="6.56" cy="146.09" r="5.5" gradientUnits="userSpaceOnUse"><stop offset="0" stop-color="#fff"/><stop offset="0" stop-color="#e5c47f"/><stop offset="0.19" stop-color="#e1be79"/><stop offset="0.43" stop-color="#d7ae69"/><stop offset="0.7" stop-color="#c6944f"/><stop offset="0.99" stop-color="#af6f2b"/><stop offset="1" stop-color="#ae6d29"/></radialGradient><radialGradient id="radial-gradient-3" cx="17.01" cy="141.7" r="8.37" xlink:href="#radial-gradient-2"/><radialGradient id="radial-gradient-4" cx="35.4" cy="124.34" r="5.5" xlink:href="#radial-gradient-2"/><radialGradient id="radial-gradient-5" cx="27.99" cy="132.7" r="8.37" xlink:href="#radial-gradient-2"/><radialGradient id="radial-gradient-6" cx="33.68" cy="146.15" r="6.29" xlink:href="#radial-gradient-2"/><radialGradient id="radial-gradient-7" cx="39.95" cy="139.59" r="4.25" xlink:href="#radial-gradient-2"/><radialGradient id="radial-gradient-8" cx="42.97" cy="148.19" r="2.3" xlink:href="#radial-gradient-2"/><radialGradient id="radial-gradient-9" cx="8.16" cy="128.58" r="3.9" xlink:href="#radial-gradient-2"/><radialGradient id="radial-gradient-10" cx="15.31" cy="121.37" r="6.77" xlink:href="#radial-gradient-2"/><radialGradient id="radial-gradient-11" cx="27.19" cy="116.25" r="8.53" xlink:href="#radial-gradient-2"/><radialGradient id="radial-gradient-12" cx="34.3" cy="107.83" r="5.42" xlink:href="#radial-gradient-2"/><radialGradient id="radial-gradient-13" cx="24.89" cy="150.2" r="3.87" xlink:href="#radial-gradient-2"/><radialGradient id="radial-gradient-14" cx="7.02" cy="110.85" r="4.78" xlink:href="#radial-gradient-2"/><radialGradient id="radial-gradient-15" cx="14.39" cy="103.79" r="6.7" xlink:href="#radial-gradient-2"/><radialGradient id="radial-gradient-16" cx="27.31" cy="98.29" r="8.71" xlink:href="#radial-gradient-2"/><radialGradient id="radial-gradient-17" cx="34.83" cy="90.18" r="5.22" xlink:href="#radial-gradient-2"/><radialGradient id="radial-gradient-18" cx="6.39" cy="93.42" r="4.94" xlink:href="#radial-gradient-2"/><radialGradient id="radial-gradient-19" cx="14.2" cy="86.16" r="6.14" xlink:href="#radial-gradient-2"/><radialGradient id="radial-gradient-20" cx="27.94" cy="80.29" r="8.68" xlink:href="#radial-gradient-2"/><radialGradient id="radial-gradient-21" cx="34.63" cy="72.87" r="5.25" xlink:href="#radial-gradient-2"/><radialGradient id="radial-gradient-22" cx="7.89" cy="75.37" r="4.69" xlink:href="#radial-gradient-2"/><radialGradient id="radial-gradient-23" cx="15.92" cy="69.23" r="5.99" xlink:href="#radial-gradient-2"/><radialGradient id="radial-gradient-24" cx="28.17" cy="64.2" r="7.93" xlink:href="#radial-gradient-2"/><radialGradient id="radial-gradient-25" cx="8.33" cy="58.98" r="4.25" xlink:href="#radial-gradient-2"/><radialGradient id="radial-gradient-26" cx="15.03" cy="52.13" r="6.14" xlink:href="#radial-gradient-2"/><radialGradient id="radial-gradient-27" cx="27.38" cy="47.15" r="7.76" xlink:href="#radial-gradient-2"/><radialGradient id="radial-gradient-28" cx="33.26" cy="40.03" r="4" xlink:href="#radial-gradient-2"/><radialGradient id="radial-gradient-29" cx="8.77" cy="43.41" r="3.64" xlink:href="#radial-gradient-2"/><radialGradient id="radial-gradient-30" cx="15.95" cy="35.6" r="5.98" xlink:href="#radial-gradient-2"/><radialGradient id="radial-gradient-31" cx="27.58" cy="30.72" r="7.55" xlink:href="#radial-gradient-2"/><radialGradient id="radial-gradient-32" cx="9.81" cy="27.97" r="3.34" xlink:href="#radial-gradient-2"/><radialGradient id="radial-gradient-33" cx="16.27" cy="19.61" r="5.78" xlink:href="#radial-gradient-2"/><radialGradient id="radial-gradient-34" cx="33.08" cy="23.03" r="3.89" xlink:href="#radial-gradient-2"/><radialGradient id="radial-gradient-35" cx="26.22" cy="13.56" r="7.28" xlink:href="#radial-gradient-2"/><radialGradient id="radial-gradient-36" cx="34.7" cy="56.38" r="4.77" xlink:href="#radial-gradient-2"/></defs><path class="cls-1" d="M26.82,158v38H22.63V157.9a2.1,2.1,0,0,1,4.19.07Z"/><path class="cls-2" d="M22.77,158.13c-.83-1,.7-2.85-.2-4a2.39,2.39,0,0,0-1.86-.71l-7.26-.93h0a31.15,31.15,0,0,0-3.58-.24H9.1s3.4,0,3.4,0l-11.25-.19c.08-14.94.08-15.22.08-15.22,0-1.82.86-30.71.78-28,0,0-.12-6.65-.09-8.92.13-7.23.66-11.13,1.22-18.85.16-2.24.37-6.42.79-14.8C4.3,61,5.62,33.92,8.2,22.05A50.48,50.48,0,0,1,11,13.43a29.92,29.92,0,0,1,2.78-5.28c1.54-2.24,3.07-4.46,5.92-5.52a9.29,9.29,0,0,1,4.19-.5,9.71,9.71,0,0,1,5.2,2.3A13.23,13.23,0,0,1,32.8,9.77a44.5,44.5,0,0,1,3.42,11c2.08,22.6,3.44,38.87,4.33,49.8.35,4.35,2,24.24,2,24.23h0s.36,3.1.71,6c.62,5,.87,6.48,1.29,10.92.34,3.48.5,6.18.82,11.57.87,14.5,1.22,27.73,1.22,27.73s-.06,0-.06,0h.06s-7.59.85-9.62.91a11.27,11.27,0,0,0-2.34.32l-.13,0-.23.05c-.43.1-.85.17-2,.38-4.53.81-4.87,1-5.12,1.33-.95,1.36.44,2.94-.13,4S23.63,159.22,22.77,158.13Z"/><path class="cls-3" d="M1.44,143.43c.1-.78.71-1.32,1.94-2.41.19-.17,1.79-1.59,2.13-1.3.18.15-.18.6-.18,1.3a3.48,3.48,0,0,0,1.2,2.22,34,34,0,0,0,4,4.17c.73.46,1.45.8,1.67,1.58a1.61,1.61,0,0,1-.28,1.48c-.74.77-2.49.11-3.52-.28a13.13,13.13,0,0,1-5.1-3.7C2,145.09,1.31,144.36,1.44,143.43Z"/><path class="cls-4" d="M8.57,137.72a4.54,4.54,0,0,1,1.51-2,8.29,8.29,0,0,1,2.76-1.76,5.49,5.49,0,0,1,3.05-.46,3,3,0,0,1,1.77.83,3.6,3.6,0,0,1,.64,1.39,6,6,0,0,0,2.14,2.51,8.56,8.56,0,0,0,3.43,1.66c1.55.34,2.48,0,2.59.37s-.94.9-2.77,2.22c-.44.33-1.51,1.19-3.65,2.92-2.74,2.21-3,2.48-3.6,2.49-1.07,0-2-.93-3.88-2.81a16.22,16.22,0,0,1-2.48-3C9,140.45,8.2,139.13,8.57,137.72Z"/><path class="cls-5" d="M30.26,122.33c.17-.59.7-.93,1.76-1.57a16.12,16.12,0,0,1,4.08-1.67c4.08-1.24,4.46-1.16,4.73-.93.45.4.36,1.49.18,3.68-.1,1.16-.23,1.91-.46,3.27-.53,3-.79,3.4-1.11,3.62-.7.47-1.6.25-2.6,0a9.32,9.32,0,0,1-4-2.32C31.54,125.21,29.87,123.69,30.26,122.33Z"/><path class="cls-6" d="M19.54,128.72a4.69,4.69,0,0,1,1.51-2,8.39,8.39,0,0,1,2.76-1.76,5.53,5.53,0,0,1,3.06-.46,3,3,0,0,1,1.76.83,3.77,3.77,0,0,1,.65,1.39,6,6,0,0,0,2.13,2.51,8.79,8.79,0,0,0,3.43,1.67c1.56.34,2.48,0,2.59.37s-.94.9-2.76,2.21c-.45.33-1.52,1.19-3.66,2.92-2.74,2.21-3,2.48-3.6,2.49-1.07,0-2-.93-3.88-2.8a16.67,16.67,0,0,1-2.48-3C20,131.45,19.17,130.13,19.54,128.72Z"/><path class="cls-7" d="M27.33,143.15a3.41,3.41,0,0,1,1.13-1.53,6.36,6.36,0,0,1,2.08-1.33,4.16,4.16,0,0,1,2.3-.34,2.16,2.16,0,0,1,1.32.62,2.73,2.73,0,0,1,.49,1.05,4.49,4.49,0,0,0,1.6,1.88,6.46,6.46,0,0,0,2.58,1.25c1.17.26,1.87,0,2,.28s-.7.68-2.08,1.67c-.33.24-1.14.89-2.75,2.19-2.06,1.67-2.23,1.87-2.7,1.88-.81,0-1.51-.7-2.92-2.11a12.25,12.25,0,0,1-1.87-2.23C27.68,145.21,27.05,144.21,27.33,143.15Z"/><path class="cls-8" d="M36,138c.13-.46.54-.72,1.36-1.22a12.57,12.57,0,0,1,3.15-1.29c3.16-1,3.45-.89,3.66-.71s.28,1.15.14,2.84a22.25,22.25,0,0,1-.36,2.53c-.4,2.35-.61,2.63-.86,2.8a2.51,2.51,0,0,1-2,0A7.23,7.23,0,0,1,38,141.2C37,140.27,35.68,139.09,36,138Z"/><path class="cls-9" d="M40.81,147.35c.08-.24.3-.38.74-.66a6.64,6.64,0,0,1,1.71-.69c1.71-.52,1.87-.49,2-.39s.15.62.08,1.54a13.75,13.75,0,0,1-.2,1.37c-.22,1.27-.33,1.42-.46,1.51a1.33,1.33,0,0,1-1.09,0,3.91,3.91,0,0,1-1.67-1C41.35,148.56,40.65,147.92,40.81,147.35Z"/><path class="cls-10" d="M5.24,123.15c.27-.08.57.82,1.73,2.35a15.83,15.83,0,0,0,2.34,2.6c1.43,1.22,2.17,1.29,2.23,2,.09,1-1.39,1.85-1.61,2a2.87,2.87,0,0,1-2.1.49c-1.23-.27-1.82-1.6-2.1-2.22a13,13,0,0,1-.49-3.71C5.09,124.35,5,123.21,5.24,123.15Z"/><path class="cls-11" d="M14,114c-.63,0-.77.69-2.35,2.35-1.41,1.48-1.83,1.48-2.35,2.47a3.89,3.89,0,0,0-.49,2.72c.22.84.69.91,2.22,2.47s1.73,2.26,2.72,2.6a4,4,0,0,0,2.35,0c.85-.27.91-.64,2.47-1.61a16.91,16.91,0,0,1,1.82-1c1.57-.71,2.15-.62,2.26-1,.17-.57-1.14-1.15-3.09-2.84a21.55,21.55,0,0,1-3.34-3.46C14.89,115,14.7,114,14,114Z"/><path class="cls-12" d="M26,121.68c-.54,0-1.27-.43-2.72-1.35a15.66,15.66,0,0,1-2.88-2.23c-1.46-1.45-2.2-2.18-2.31-3.34a4.87,4.87,0,0,1,1.6-3.58,6.85,6.85,0,0,1,3-1.85,5.65,5.65,0,0,1,2.84-.37,4.37,4.37,0,0,1,2.35,1c.7.6.75,1.11,1.24,1.85a7.33,7.33,0,0,0,3.08,2.35c3,1.6,5.22,1.64,5.2,2.1s-1.12.39-4.08,1.11a20.19,20.19,0,0,0-3.09.86C27.66,119.49,27.58,121.59,26,121.68Z"/><path class="cls-13" d="M29.3,106.61c.12-.42.66-.7,1.73-1.24l4.2-2.1c2.76-1.36,3.35-2.07,4-1.73.42.24.49,1.15.62,3a31.46,31.46,0,0,1-.13,5.44c-.11,1.37-.17,1.6-.37,1.85-.93,1.15-3.32.77-4.69.25a8.83,8.83,0,0,1-2.85-2C30.39,108.84,29,107.62,29.3,106.61Z"/><path class="cls-14" d="M21,148.36a2.12,2.12,0,0,1,.7-1A3.71,3.71,0,0,1,23,146.6a2.53,2.53,0,0,1,1.41-.22,1.45,1.45,0,0,1,.82.39,1.71,1.71,0,0,1,.3.64,2.67,2.67,0,0,0,1,1.16,4,4,0,0,0,1.59.77c.72.16,1.15,0,1.2.18s-.44.41-1.28,1c-.21.15-.7.55-1.69,1.35-1.27,1-1.37,1.15-1.67,1.15-.49,0-.93-.43-1.79-1.29a7.69,7.69,0,0,1-1.15-1.38C21.2,149.62,20.81,149,21,148.36Z"/><path class="cls-15" d="M5.08,105c.36,0,.26,1.11,1.24,3a7.35,7.35,0,0,0,2.22,2.84c1,.68,1.44.55,1.73,1.11.52,1-.47,2.52-1.11,3.22-.24.26-1.8,2-3.34,1.48C4.73,116.27,4.28,115,4,114.15a8.86,8.86,0,0,1-.25-4.08C3.92,108.19,4.47,105,5.08,105Z"/><path class="cls-16" d="M13.36,97.09c-.75-.34-2,.82-3.09,1.86a7,7,0,0,0-2.1,2.72,5.55,5.55,0,0,0-.12,3.83,17.71,17.71,0,0,0,2.35,2.84c1.26,1.41,1.76,1.89,2.59,2.1a3.27,3.27,0,0,0,1.61,0c.57-.15.87-.42,2.1-1.48,1-.87,1.51-1.31,1.6-1.36,1.47-.9,2.59-.61,2.72-1.11.07-.27-.19-.55-2-2-1.06-.85-1.71-1.35-2.48-2a15.08,15.08,0,0,1-2-1.73C13.4,99.1,14.16,97.46,13.36,97.09Z"/><path class="cls-17" d="M27.08,91.66a5.11,5.11,0,0,0-3.71,0,9.79,9.79,0,0,0-3.71,1.85c-1.48,1.1-2.3,1.71-2.47,2.72s.51,1.92,1.86,3.71a26.42,26.42,0,0,0,3.21,3.33c1.92,1.81,2.46,2.12,3,2s.63-.81,1.24-1.61a6.36,6.36,0,0,1,3.46-2c4.91-1.61,7.51-1.83,7.54-2.48,0-.46-1.28-.57-4.08-2-2.1-1-3.15-1.58-4.12-2.68C28,93.09,28.21,92.26,27.08,91.66Z"/><path class="cls-18" d="M29.3,88.57c0-.19.18-.56,2.23-1.36a30.93,30.93,0,0,1,4.82-1.36c2.36-.57,2.8-.69,3.21-.37s.38.58.62,3.21a14.41,14.41,0,0,1,.12,3.46,3.47,3.47,0,0,1-1,2.47A3.13,3.13,0,0,1,37,95a6.71,6.71,0,0,1-3.33-1.48,18.08,18.08,0,0,1-2.1-2.1C29.57,89.37,29.21,89,29.3,88.57Z"/><path class="cls-19" d="M5.08,87.21c.21,0,.28.46,1,1.85a11.84,11.84,0,0,0,1.48,2.47c1.07,1.25,1.71,1,2,1.86.21.62-.19,1.45-1,3.09s-1.14,2.3-1.85,2.71a2.63,2.63,0,0,1-2.35.25c-.87-.48-1-1.66-1.11-2.47-.19-1.72.33-2.51.86-4.82C4.79,89.15,4.66,87.23,5.08,87.21Z"/><path class="cls-20" d="M8.05,85.35c0-.79.61-1.47,1.73-2.84,1.28-1.57,2-2.4,3.09-2.47a2.82,2.82,0,0,1,1.48.37c.79.43,1.11,1,1.85,2.35a32.55,32.55,0,0,0,1.86,3.09c1.27,1.49,2.29,1.55,2.31,2.35,0,.4-.73,1-2.19,2.22a6.66,6.66,0,0,1-2.84,1.73,3.86,3.86,0,0,1-1.22.12c-1.93-.13-3.21-1.92-4.59-3.83C8.5,87,8,86.28,8.05,85.35Z"/><path class="cls-21" d="M24.48,86.84c-.64,0-1-.33-3.33-2.6s-2.66-2.66-3-3.34a4.63,4.63,0,0,1-.37-3.7c.41-1,1.2-1.43,2.56-2.23a6.08,6.08,0,0,1,3.37-1.23,5.83,5.83,0,0,1,3.34,1.48c1.29,1,1.25,1.4,2.47,2.47A14,14,0,0,0,33.63,80c2.9,1.28,4.73,1.49,4.69,1.85s-1.38.21-4.07.74a27.15,27.15,0,0,0-4.08,1.12,14.26,14.26,0,0,0-3.09,1.36C25.4,86.14,25.32,86.79,24.48,86.84Z"/><path class="cls-22" d="M39.31,77.44c.67-.67.19-1.45.25-4.32.07-3.51.83-4.57.12-5.19s-1.38-.06-5.56,1.23c-3.54,1.1-4.64,1.3-4.82,2.11-.12.57.54,1.33,1.86,2.84a12.54,12.54,0,0,0,3.09,3C35.67,77.84,38.23,78.54,39.31,77.44Z"/><path class="cls-23" d="M6.32,69.66c.53,0,.57,1.39,2,3.34,1.58,2.18,2.84,2.21,3,3.46.21,2-2.91,3.73-3.09,3.83-.84.44-2.13,1.13-3,.61-1-.61-.76-2.55-.25-6.3C5.28,72.2,5.62,69.7,6.32,69.66Z"/><path class="cls-24" d="M14.6,63.23c-.5-.1-1.25.59-2.72,2-1.62,1.53-1.78,2-1.86,2.22a4.28,4.28,0,0,0,.5,2.72,10,10,0,0,0,2.1,3.22c1.14,1.2,1.85,1.94,2.72,1.85a10.49,10.49,0,0,0,2.35-1.61,7.93,7.93,0,0,1,1.36-1c1.46-.7,2.68-.12,2.84-.5s-1.26-1.11-3-2.84a16.75,16.75,0,0,1-2.47-3.09C15.3,64.32,15.32,63.38,14.6,63.23Z"/><path class="cls-25" d="M25,70.28c-.66-.06-1.27-.66-2.47-1.86a24.63,24.63,0,0,1-2.14-2.59c-1.46-1.9-1.53-2.15-1.57-2.35-.35-1.79,1.27-3.41,1.57-3.71a5.68,5.68,0,0,1,3.37-1.6,4.53,4.53,0,0,1,2.72.37c.92.48,1,1,2,2a13.11,13.11,0,0,0,3,1.86,19.2,19.2,0,0,0,4,1.73c1.35.39,2.23.45,2.22.62s-1.52.16-3.43.56a14.42,14.42,0,0,0-5,1.91C26.69,68.79,26.34,70.4,25,70.28Z"/><path class="cls-26" d="M6.19,54c.48-.07.6.72,2,2.34,2,2.38,3.38,2.56,3.46,3.83a3.66,3.66,0,0,1-1.48,2.6c-.51.48-1.54,1.45-2.6,1.23-1.27-.26-1.81-2.1-2.1-3.08C4.54,57.77,5.2,54.1,6.19,54Z"/><path class="cls-27" d="M15.21,45.93c.46.29,0,1,.5,2.47a6.44,6.44,0,0,0,1.48,2.35C19.19,53,21,53.1,21,54.09c0,.62-.74.58-2.1,2.22-.89,1.08-.93,1.52-1.6,1.86a3.42,3.42,0,0,1-2.48,0c-1-.32-1.33-.81-3.33-3S9.07,52.67,9,52c0-.94.54-1.63,1.73-3S14.32,45.36,15.21,45.93Z"/><path class="cls-28" d="M27.82,41.24c.77.43.73.84,2,2.22a17.31,17.31,0,0,0,2.59,2.35c2.29,1.66,4,1.69,4,2.22s-2.43.31-5.19,1.73c-3.13,1.61-3.74,3.93-5.69,3.71A6,6,0,0,1,23,52.11a14.09,14.09,0,0,1-2.63-2.47c-1.24-1.47-1.85-2.2-1.94-3.21a4.59,4.59,0,0,1,1.23-3.22A7,7,0,0,1,24,41.11C25.37,40.84,26.65,40.58,27.82,41.24Z"/><path class="cls-29" d="M36,35.8c-.76-.51-1.82-.12-3.84.62-1.37.5-2.17.81-2.34,1.48,0,.16-.1.57,1.36,2.47a14.32,14.32,0,0,0,2.47,2.72c1.2,1,1.92,1.59,2.47,1.36s.65-1.63.62-4.33S36.65,36.26,36,35.8Z"/><path class="cls-30" d="M7.06,38.89c.31-.08.54.51,1.48,1.48,1.51,1.55,2.34,1.46,2.6,2.35S10.8,44.43,10,45.56c-.24.36-1.86,2.71-2.84,2.35-.47-.18-.59-.91-.74-1.85a14.21,14.21,0,0,1,.12-3.83C6.78,39.81,6.7,39,7.06,38.89Z"/><path class="cls-31" d="M15,29.37c-.59-.2-1.5,1-2.84,2.85-1.21,1.63-1.82,2.46-1.86,3.33-.06,1.36.76,2.37,1.86,3.71s2.1,2.58,3.46,2.59c.63,0,.8-.26,3-1.6C21,38.7,21.64,38.53,21.64,38c0-.71-1.17-.85-3.34-2.59a8.12,8.12,0,0,1-2.22-2.23C15,31.28,15.63,29.6,15,29.37Z"/><path class="cls-32" d="M25.47,37.16c-.74,0-1.61-.93-3.33-2.84a11.7,11.7,0,0,1-2.6-3.71,4,4,0,0,1-.37-2.6c.34-1.14,1.36-1.75,2.59-2.47a8.21,8.21,0,0,1,3-1.11,4.43,4.43,0,0,1,3.09.25c.75.46.56.89,1.61,2.1a10.1,10.1,0,0,0,2.34,2,14.8,14.8,0,0,0,2.85,1.35c1.05.38,1.45.4,1.48.62.06.46-1.55.83-4.2,2.1a18.1,18.1,0,0,0-3.34,1.86C26.56,36.17,26.46,37.12,25.47,37.16Z"/><path class="cls-33" d="M8.67,24.18A6.72,6.72,0,0,0,10.52,26c1.2.79,2,.7,2.1,1.23s-.83,1.44-2.84,3.09c-1.69,1.38-2,1.45-2.23,1.36-.91-.37-.45-3.28-.4-3.59a10.37,10.37,0,0,1,1.52-3.95Z"/><path class="cls-34" d="M14.84,13.68c-.56-.07-1.07.45-2.1,1.48a7,7,0,0,0-1.6,2.23,4.92,4.92,0,0,0-.5,2.1A5.54,5.54,0,0,0,12,22.7a9,9,0,0,0,2.6,2.35,2.36,2.36,0,0,0,1.36.49c.6,0,.83-.37,2-1.23a15,15,0,0,1,2.44-1.61c1-.49,1.46-.52,1.52-.86s-.67-.86-1.52-1.49a18,18,0,0,1-3.22-3.15C15.62,15.2,15.75,13.79,14.84,13.68Z"/><path class="cls-35" d="M35.11,18.62a12.52,12.52,0,0,0-3.46,1.11c-1.08.54-1.73.87-1.85,1.49,0,.2-.06.59,1.6,2.59A16.29,16.29,0,0,0,33.5,26c1.16,1,1.87,1.57,2.35,1.36.75-.33.53-2.37.37-3.83a21.64,21.64,0,0,0-1.11-4.95Z"/><path class="cls-36" d="M25.6,20.23c-.64,0-1.63-.92-3.59-2.84a13.8,13.8,0,0,1-2.59-3,4.93,4.93,0,0,1-1-3.34A4.93,4.93,0,0,1,20.9,8a5.87,5.87,0,0,1,3.46-1.11,5.39,5.39,0,0,1,3,1c.71.52.58.73,1.6,1.85a8.18,8.18,0,0,0,3.34,2.6c1,.34,1.7.22,1.77.52s-.82.77-2,1.58a22.75,22.75,0,0,0-3,2.47C26.55,19.22,26.59,20.17,25.6,20.23Z"/><path class="cls-37" d="M39.38,52a20.35,20.35,0,0,0-4.76.59c-2,.48-4.89,1.2-5.07,2.59-.09.73,1,1.6,3.09,3.34s3,2,3.46,2.1,2.34.42,3.34-.74c.41-.48.5-1.07.37-3.34-.07-1.15-.19-2.69-.43-4.54Z"/><path class="cls-38" d="M5.06,46.45c-.19,0,.08-1.69.62-7.57.14-1.48.21-2.25.34-3.49.22-2.21.31-2.83.5-4.64.52-4.81.32-4.43.61-6.18A46.82,46.82,0,0,1,8.49,19c.53-1.84,1-3.35,1.71-5.31a33.46,33.46,0,0,1,3.47-7c1.41-2.12,2.11-3.18,3.52-4.16a9.83,9.83,0,0,1,7-1.77A9.78,9.78,0,0,1,29,2.94c1.75,1.41,2.53,2.95,3.72,5.34A36.63,36.63,0,0,1,35.44,16a61,61,0,0,1,1.35,7.45c.38,2.84.4,3.83.83,8.74.26,3,.55,5.88,1.11,11.59.48,4.85.64,6.23.81,9,.1,1.55.1,2,.3,5.31,0,.89.09,1.58.13,2.16.16,2.53.21,3.33.25,4,.15,2.55.21,4.39.25,5.32.31,7.62,1.83,22.7,1.83,22.7h0s.27,3.16.79,6.2c.4,2.29.91,4.56.13,7.16-.36,1.19-.79,1.77-1.36,2-1.13.42-2.44-.72-2.59-.86-.68-.61-1.09-1.39-1.88-6.18a40.57,40.57,0,0,1-.57-4.33A20.57,20.57,0,0,1,37,91.42c.24-1.4.37-1.16,1.11-4.2a22.14,22.14,0,0,0,.74-4,16.9,16.9,0,0,0-.11-3.21,21.55,21.55,0,0,0-1.12-4.83c-.17-.43-.83-1.74-2.13-4.35A23.48,23.48,0,0,1,34,67.67a18.23,18.23,0,0,1-.69-3.8c-.26-2.38-.35-4.4-.37-5.93s0-3.16.12-5.44.45-4,.75-5.93a40.73,40.73,0,0,0,.74-5.8,9.33,9.33,0,0,0-.5-3.84,6.7,6.7,0,0,0-2-2.84c-.78-.64-1.87-1.58-3.22-1.36a3.8,3.8,0,0,0-2.36,1.85,6.1,6.1,0,0,0-.85,2.6,20.39,20.39,0,0,0,0,4.2c.06,1.06.15,1.92.25,2.72.35,2.95.79,5.31,1.23,7.66.74,3.89.73,3.77,1.11,5.81.48,2.54,1,5.24,1.49,8.65.3,2,.53,4.19,1,8.53a23.14,23.14,0,0,1,0,6.3c-.34,2.18-.68,3.32-1.61,4.08a3.09,3.09,0,0,1-2.48.73c-1.34-.32-1.93-1.82-2.18-2.48-.35-.9-.29-1.36-.29-4.32,0-3.23-.09-3.22,0-4.44s.16-1.1.5-3.83c.15-1.17.11-1.06.5-4.44.22-2,.33-3,.37-3.46,0-.72.09-1.86,0-4.45-.06-1.46-.13-2.63-.37-5.81-.26-3.38-.39-5.06-.5-6.18C24.2,41.4,24,42.14,24,39.9c-.12-3.32.16-4.6-.43-6.82a19.94,19.94,0,0,1-.63-2.64,10,10,0,0,0-.42-2.65c-.25-.61-.66-1.61-1.61-1.85a2.27,2.27,0,0,0-2.22.86,3.66,3.66,0,0,0-.5,2.35c-.07,2.17-.32,1.41-.49,4.32-.19,3.06.13,3-.13,5a11.1,11.1,0,0,1-1.11,3.95,6.21,6.21,0,0,1-2.59,3,3.62,3.62,0,0,1-2.62.45,3.81,3.81,0,0,1-2.45-3,7.71,7.71,0,0,1,.49-3.09,17.77,17.77,0,0,1,1.12-3.21c.45-1,.52-.93,1.11-2.22a7,7,0,0,0,.83-2.74c0-.63-.07-1.54-.34-1.59s-.38.47-1.36,2-1.18,1.45-1.73,2.47a22.35,22.35,0,0,0-1,2.59c-.2.58-.27.73-.45,1.2a36.6,36.6,0,0,0-1.16,4.78C5.92,44.39,5.27,46.49,5.06,46.45Z"/><path class="cls-39" d="M4.07,48.79c-.19,0,.08-1.69.63-7.58.13-1.48.2-2.24.33-3.48.22-2.21.31-2.83.51-4.65.51-4.81.31-4.42.61-6.18a46.69,46.69,0,0,1,1.36-5.58C8,19.48,8.46,18,9.21,16a33.61,33.61,0,0,1,3.48-7c1.4-2.11,2.11-3.17,3.51-4.15a9.89,9.89,0,0,1,7-1.78A9.77,9.77,0,0,1,28,5.27c1.75,1.42,2.54,3,3.72,5.34a36.93,36.93,0,0,1,2.74,7.73,62.79,62.79,0,0,1,1.34,7.45c.39,2.85.41,3.84.83,8.74.27,3,.55,5.89,1.11,11.59.49,4.85.64,6.24.81,9,.1,1.55.11,2,.3,5.31s.25,4,.38,6.18c.18,3,.18,3.89.34,7.23.21,4.51.32,6.76.53,9.47.45,5.74,1.14,10.78,1.22,11.32.28,2.06.43,4.14.79,6.19.39,2.29.91,4.57.12,7.17-.36,1.19-.78,1.77-1.36,2-1.13.41-2.43-.73-2.58-.86-.69-.61-1.1-1.4-1.88-6.18a38.76,38.76,0,0,1-.58-4.34,21.66,21.66,0,0,1,.22-4.81c.24-1.4.37-1.16,1.11-4.2a22.58,22.58,0,0,0,.75-4,17.55,17.55,0,0,0-.12-3.2,20.65,20.65,0,0,0-1.12-4.83c-.16-.44-.82-1.75-2.13-4.35A22.18,22.18,0,0,1,33.05,70a17.52,17.52,0,0,1-.69-3.8c-.27-2.38-.35-4.4-.38-5.93s0-3.16.13-5.44.44-4,.74-5.93a38.27,38.27,0,0,0,.74-5.81,9.35,9.35,0,0,0-.49-3.83,6.78,6.78,0,0,0-2-2.84c-.77-.64-1.87-1.58-3.21-1.36a3.73,3.73,0,0,0-2.36,1.84,6.06,6.06,0,0,0-.86,2.61,20.39,20.39,0,0,0,0,4.2c.06,1.06.15,1.92.25,2.72.35,2.94.79,5.3,1.24,7.66.73,3.89.73,3.77,1.11,5.81.47,2.54,1,5.23,1.48,8.65.3,2,.53,4.19,1,8.52a22.82,22.82,0,0,1,0,6.31c-.33,2.17-.68,3.32-1.61,4.08a3.11,3.11,0,0,1-2.48.73c-1.33-.32-1.92-1.83-2.18-2.48-.35-.9-.28-1.36-.29-4.32,0-3.24-.09-3.23,0-4.45s.16-1.09.5-3.82c.15-1.18.11-1.06.5-4.45.22-2,.34-3,.37-3.46a39.62,39.62,0,0,0,0-4.45c-.05-1.46-.13-2.62-.37-5.81-.26-3.37-.39-5.06-.5-6.17-.49-5-.66-4.32-.74-6.55-.11-3.33.16-4.6-.42-6.82a17.37,17.37,0,0,1-.63-2.65,9.91,9.91,0,0,0-.43-2.64c-.25-.61-.66-1.61-1.61-1.86a2.28,2.28,0,0,0-2.22.87,3.59,3.59,0,0,0-.49,2.35c-.08,2.16-.32,1.4-.5,4.32s.14,3-.12,4.94a11.3,11.3,0,0,1-1.11,4,6.23,6.23,0,0,1-2.6,3,3.66,3.66,0,0,1-2.62.46,3.83,3.83,0,0,1-2.45-3.05A7.75,7.75,0,0,1,8.26,42a17.39,17.39,0,0,1,1.11-3.21c.45-1,.52-.94,1.11-2.23a6.92,6.92,0,0,0,.83-2.74c0-.62-.06-1.53-.33-1.58s-.39.47-1.36,2-1.19,1.46-1.73,2.48a18.57,18.57,0,0,0-1,2.59c-.21.57-.28.72-.45,1.2a35.06,35.06,0,0,0-1.16,4.78C4.93,46.72,4.29,48.83,4.07,48.79Z"/><path class="cls-40" d="M19,5c.17-.56,3.15-.6,5.72.57,5.06,2.3,7,8.58,6.48,9-.39.27-1.84-2.54-6.25-5.7C21.45,6.28,18.83,5.51,19,5Z"/><path class="cls-40" d="M15,10.12c-.19,0-.46,1.24-2.49,6.25a47.28,47.28,0,0,0-2.4,6.68c-.08.34-1,4-.54,4.21.26.09.84-.9,1.21-1.52a14.36,14.36,0,0,0,1.41-3.23C12.7,20.51,15.5,10.25,15,10.12Z"/><circle class="cls-40" cx="9.11" cy="29.19" r="1.01"/><path class="cls-40" d="M24.37,84.86a3.07,3.07,0,0,0,1.53,2.19c.61.29,1.42.37,1.54.12s-.58-.61-1.41-1.65c-1-1.27-1.2-2.28-1.48-2.22S24.25,84.21,24.37,84.86Z"/><path class="cls-40" d="M38.35,106a3.07,3.07,0,0,0,1.53,2.19c.61.29,1.42.37,1.54.13s-.58-.61-1.41-1.66c-1-1.27-1.2-2.28-1.48-2.22S38.23,105.32,38.35,106Z"/><path class="cls-40" d="M9.13,44.7a3.09,3.09,0,0,0,1.53,2.19c.61.28,1.42.36,1.54.12s-.58-.61-1.42-1.66c-1-1.26-1.19-2.28-1.47-2.22S9,44,9.13,44.7Z"/><path class="cls-41" d="M34.55,33.44s1.46.33,1,.92-1.55,1.79-1.74.87S34.09,34,34.55,33.44Z"/><path class="cls-42" d="M34.55,33.44l0,0c.37.11,1.19.42.83.88A3.6,3.6,0,0,1,34,35.55c.39.14,1.16-.71,1.53-1.19S34.55,33.44,34.55,33.44Z"/><path class="cls-41" d="M25.92,30s1.94.22,1.33.63-2.05,1.23-2.3.59S25.31,30.39,25.92,30Z"/><path class="cls-41" d="M18.12,19.42c.05.57.87,1.1.6,1.5-.49.59-1.76.21-2.44-.21-.46-.31,0-.82.34-1.1a1,1,0,0,1,1.15-.3Z"/><path class="cls-42" d="M18.71,20.91a2.68,2.68,0,0,1-2.23-.38c-.46-.31,0-.82.35-1.1h0a.9.9,0,0,0-.25.22c-.31.28-.8.79-.35,1.1.69.42,2,.79,2.45.2Z"/><path class="cls-41" d="M14.07,27.47c.71,0,1.43-.73,1.9-.46.7.49.15,1.64-.42,2.24-.41.41-1-.08-1.34-.39s-.64-.7-.3-1.08A3.07,3.07,0,0,1,14.07,27.47Z"/><path class="cls-42" d="M14.55,28.6c-.33-.23-.64-.7-.3-1.08l0-.07-.21,0a3.07,3.07,0,0,0-.16.31c-.34.38,0,.86.3,1.08s.93.8,1.34.39l.12-.13C15.28,29.23,14.82,28.85,14.55,28.6Z"/><path class="cls-41" d="M11,20.7s1.59.19,1.09.53-1.69,1-1.9.49S10.46,21,11,20.7Z"/><path class="cls-41" d="M21.83,23.1c.52,0,1.05-.54,1.4-.34.51.36.1,1.2-.31,1.65-.31.29-.75-.07-1-.29s-.47-.51-.23-.79Z"/><path class="cls-42" d="M22.18,23.92c-.24-.16-.46-.51-.22-.79l0-.05-.16,0-.12.23c-.24.28,0,.62.23.79s.67.58,1,.29l.08-.1C22.72,24.39,22.38,24.11,22.18,23.92Z"/><path class="cls-41" d="M17.08,13c.46.35,1.39.25,1.51.65.11.65-1,1.11-1.75,1.21-.53,0-.59-.56-.59-.91a.68.68,0,0,1,.52-.83Z"/><path class="cls-42" d="M18.57,13.68c-.14.53-1.07.88-1.73,1s-.59-.55-.59-.9v0a.94.94,0,0,0,0,.29c0,.35.06,1,.59.9.75-.1,1.86-.55,1.75-1.21Z"/><path class="cls-41" d="M17.08,7.16c.46.35,1.39.25,1.51.65.11.65-1,1.1-1.75,1.2-.53.05-.59-.55-.59-.9a.68.68,0,0,1,.52-.83Z"/><path class="cls-42" d="M18.57,7.81c-.14.53-1.07.88-1.73,1s-.59-.55-.59-.9v0a.87.87,0,0,0,0,.28c0,.36.06,1,.59.91.75-.1,1.86-.55,1.75-1.21Z"/><path class="cls-41" d="M31.14,19.21S30.49,20.56,30,20s-1.4-1.91-.45-1.88S30.66,18.63,31.14,19.21Z"/><path class="cls-42" d="M31.14,19.21l0,0c-.19.33-.67,1.07-1.05.61a3.76,3.76,0,0,1-.86-1.55c-.23.35.44,1.28.82,1.75S31.14,19.21,31.14,19.21Z"/><path class="cls-41" d="M32.16,22.35s1.94.23,1.33.64-2.05,1.22-2.3.59S31.55,22.76,32.16,22.35Z"/><path class="cls-41" d="M27.82,24.54c0,.36.55.7.38.94s-1.11.14-1.54-.13,0-.51.22-.69a.59.59,0,0,1,.72-.19Z"/><path class="cls-42" d="M28.2,25.48a1.69,1.69,0,0,1-1.41-.24c-.29-.2,0-.52.22-.69h0a.56.56,0,0,0-.16.14c-.2.17-.51.5-.22.69s1.24.5,1.54.13Z"/><path class="cls-41" d="M30.29,14.3c.3.23.91.16,1,.43.08.43-.65.72-1.15.79-.34,0-.38-.36-.38-.59a.45.45,0,0,1,.34-.55Z"/><path class="cls-42" d="M31.27,14.73c-.09.34-.7.58-1.14.64s-.38-.37-.38-.6h0a.6.6,0,0,0,0,.19c0,.23,0,.62.38.59.5-.06,1.23-.36,1.15-.79Z"/><path class="cls-41" d="M22.6,6.17c.7,0,1.43-.73,1.9-.46.7.5.14,1.64-.43,2.25-.41.4-1-.09-1.33-.4s-.64-.69-.31-1.07Z"/><path class="cls-42" d="M23.08,7.3c-.33-.22-.64-.7-.31-1.08a.25.25,0,0,1,0-.07l-.21,0-.17.32c-.33.38,0,.85.31,1.07s.92.8,1.33.4l.12-.14C23.81,7.93,23.34,7.55,23.08,7.3Z"/><path class="cls-41" d="M22.37,14.55s1.59.18,1.09.52-1.69,1-1.9.49S21.86,14.88,22.37,14.55Z"/><path class="cls-41" d="M25.37,11.72s1,.12.7.34-1.09.65-1.22.31S25,11.94,25.37,11.72Z"/><path class="cls-41" d="M8,31.15s.82.18.56.52-.87,1-1,.49S7.75,31.48,8,31.15Z"/><path class="cls-42" d="M8,31.15l0,0c.21.07.67.24.47.5a2,2,0,0,1-.75.67c.22.08.66-.4.86-.67S8,31.15,8,31.15Z"/><path class="cls-41" d="M26,16.11s1.42.32,1,.9-1.51,1.74-1.69.84S25.54,16.69,26,16.11Z"/><path class="cls-42" d="M26,16.11l0,0c.36.11,1.16.4.81.86a3.72,3.72,0,0,1-1.28,1.15c.37.14,1.12-.69,1.48-1.15S26,16.11,26,16.11Z"/><path class="cls-41" d="M31.92,26.72s1.94.23,1.33.63-2.05,1.23-2.3.59S31.31,27.13,31.92,26.72Z"/><path class="cls-41" d="M15.15,34c0,.36.55.7.39.94s-1.11.14-1.54-.13,0-.51.21-.69a.59.59,0,0,1,.72-.19Z"/><path class="cls-42" d="M15.53,34.93a1.66,1.66,0,0,1-1.4-.24c-.29-.19,0-.52.21-.69h0a.73.73,0,0,0-.16.14c-.19.18-.5.5-.21.69s1.23.5,1.54.13Z"/><path class="cls-41" d="M10.76,15.88c.65,0,1.3-.66,1.73-.42.63.45.13,1.49-.39,2-.37.36-.92-.08-1.21-.36s-.58-.63-.27-1Z"/><path class="cls-42" d="M11.2,16.9c-.3-.2-.58-.63-.28-1l0-.06-.19,0-.14.28c-.31.35,0,.78.27,1s.84.72,1.21.36l.11-.12C11.86,17.48,11.44,17.13,11.2,16.9Z"/><path class="cls-41" d="M12.66,40.16c0,.36.54.7.38,1s-1.11.13-1.54-.13,0-.52.21-.69a.6.6,0,0,1,.73-.2Z"/><path class="cls-42" d="M13,41.1a1.66,1.66,0,0,1-1.4-.24c-.29-.19,0-.52.21-.69h0a.73.73,0,0,0-.16.14c-.19.18-.5.5-.21.69s1.23.51,1.54.13Z"/><path class="cls-41" d="M29.48,10.25s.25,1.93-.29,1.43S27.49,10,28.05,9.61,28.93,9.76,29.48,10.25Z"/><path class="cls-41" d="M35.4,41.33c.52,0,1.05-.53,1.39-.33.51.36.11,1.2-.31,1.64s-.74-.06-1-.28-.47-.52-.22-.8A1.71,1.71,0,0,1,35.4,41.33Z"/><path class="cls-42" d="M35.75,42.16c-.24-.16-.47-.51-.22-.79,0,0,0,0,0,0H35.4a1.71,1.71,0,0,0-.12.23c-.25.28,0,.63.22.8s.68.58,1,.28l.09-.09C36.28,42.63,35.94,42.35,35.75,42.16Z"/><path class="cls-41" d="M35,48.14s1.94.23,1.33.64-2,1.22-2.3.59S34.35,48.55,35,48.14Z"/><path class="cls-41" d="M30.4,32s1,.12.7.34-1.08.65-1.21.31S30.08,32.18,30.4,32Z"/><path class="cls-41" d="M35.7,53.65c.52,0,1-.54,1.4-.34.51.36.1,1.2-.32,1.65-.3.29-.74-.07-1-.29s-.47-.51-.22-.79A2.53,2.53,0,0,1,35.7,53.65Z"/><path class="cls-42" d="M36.05,54.47c-.24-.16-.47-.51-.22-.79a.08.08,0,0,0,0,0l-.15,0a2.53,2.53,0,0,0-.12.23c-.25.28,0,.62.22.79s.68.58,1,.29l.09-.1C36.59,54.94,36.25,54.66,36.05,54.47Z"/><path class="cls-41" d="M38,99.15c.45.35,1.39.24,1.5.65.12.65-1,1.1-1.75,1.2-.52,0-.58-.55-.58-.9a.67.67,0,0,1,.52-.83Z"/><path class="cls-42" d="M39.48,99.8c-.14.53-1.07.88-1.74,1s-.58-.55-.58-.9v0a.66.66,0,0,0,0,.28c0,.35.06,1,.58.91.76-.1,1.87-.56,1.75-1.21A0,0,0,0,0,39.48,99.8Z"/><path class="cls-41" d="M36.07,69c.71,0,1.43-.73,1.9-.46.7.49.15,1.64-.42,2.24-.41.4-1-.08-1.34-.39s-.64-.7-.3-1.08A3.07,3.07,0,0,1,36.07,69Z"/><path class="cls-42" d="M36.55,70.08c-.33-.23-.64-.7-.3-1.08l0-.07-.21,0a3.07,3.07,0,0,0-.16.31c-.34.38,0,.86.3,1.08s.93.79,1.34.39l.12-.13C37.28,70.71,36.82,70.33,36.55,70.08Z"/><path class="cls-41" d="M27.73,80.49s1.59.18,1.09.52-1.69,1-1.89.49S27.23,80.82,27.73,80.49Z"/><path class="cls-41" d="M25.73,74.34s1.42.32,1,.9S25.2,77,25,76.08,25.28,74.92,25.73,74.34Z"/><path class="cls-42" d="M25.73,74.34l0,0c.36.11,1.16.4.8.86a3.54,3.54,0,0,1-1.28,1.15c.38.14,1.13-.69,1.48-1.15S25.73,74.34,25.73,74.34Z"/><path class="cls-41" d="M26.34,68.41c.52,0,1.05-.54,1.39-.34.52.36.11,1.21-.31,1.65s-.74-.07-1-.29-.47-.51-.22-.79A1.27,1.27,0,0,1,26.34,68.41Z"/><path class="cls-42" d="M26.69,69.24c-.24-.17-.47-.52-.22-.8l0,0-.15,0a1.27,1.27,0,0,0-.12.23c-.25.28,0,.63.22.79s.68.58,1,.29l.09-.1C27.23,69.7,26.89,69.42,26.69,69.24Z"/><path class="cls-41" d="M35.53,57.72s1,.12.7.34-1.09.65-1.22.31S35.2,57.94,35.53,57.72Z"/><path class="cls-41" d="M36.86,63.56s-.64,1.35-1.12.77-1.4-1.9-.46-1.88S36.39,63,36.86,63.56Z"/><path class="cls-42" d="M36.86,63.56l0,0c-.19.34-.67,1.07-1,.61a3.76,3.76,0,0,1-.86-1.55c-.23.35.44,1.29.82,1.75S36.86,63.56,36.86,63.56Z"/><path class="cls-41" d="M39.75,95.56s1,.13.71.34-1.09.65-1.22.32S39.43,95.78,39.75,95.56Z"/><path class="cls-41" d="M37.59,92c.52,0,1-.53,1.39-.33.52.36.11,1.2-.31,1.64s-.74-.06-1-.29-.47-.51-.22-.79A1.71,1.71,0,0,1,37.59,92Z"/><path class="cls-42" d="M37.94,92.83c-.24-.16-.47-.51-.22-.79a.08.08,0,0,1,0-.05h-.15a1.71,1.71,0,0,0-.12.23c-.25.28,0,.63.22.79s.68.59,1,.29l.09-.1C38.48,93.3,38.14,93,37.94,92.83Z"/></svg>