<svg id="Layer_1" data-name="Layer 1" xmlns="http://www.w3.org/2000/svg" xmlns:xlink="http://www.w3.org/1999/xlink" width="47.71" height="198.44" viewBox="0 0 47.71 198.44"><defs><style>.cls-1{fill:url(#radial-gradient);}.cls-2{fill:url(#linear-gradient);}.cls-3{fill:url(#radial-gradient-2);}.cls-4{fill:url(#radial-gradient-3);}.cls-5{fill:url(#radial-gradient-4);}.cls-6{fill:url(#radial-gradient-5);}.cls-7{fill:url(#radial-gradient-6);}.cls-8{fill:url(#radial-gradient-7);}.cls-9{fill:url(#radial-gradient-8);}.cls-10{fill:url(#radial-gradient-9);}.cls-11{fill:url(#radial-gradient-10);}.cls-12{fill:url(#radial-gradient-11);}.cls-13{fill:url(#radial-gradient-12);}.cls-14{fill:url(#radial-gradient-13);}.cls-15{fill:url(#radial-gradient-14);}.cls-16{fill:url(#radial-gradient-15);}.cls-17{fill:url(#radial-gradient-16);}.cls-18{fill:url(#radial-gradient-17);}.cls-19{fill:url(#radial-gradient-18);}.cls-20{fill:url(#radial-gradient-19);}.cls-21{fill:url(#radial-gradient-20);}.cls-22{fill:url(#radial-gradient-21);}.cls-23{fill:url(#radial-gradient-22);}.cls-24{fill:url(#radial-gradient-23);}.cls-25{fill:url(#radial-gradient-24);}.cls-26{fill:url(#radial-gradient-25);}.cls-27{fill:url(#radial-gradient-26);}.cls-28{fill:url(#radial-gradient-27);}.cls-29{fill:url(#radial-gradient-28);}.cls-30{fill:url(#radial-gradient-29);}.cls-31{fill:url(#radial-gradient-30);}.cls-32{fill:url(#radial-gradient-31);}.cls-33{fill:url(#radial-gradient-32);}.cls-34{fill:url(#radial-gradient-33);}.cls-35{fill:url(#radial-gradient-34);}.cls-36{fill:url(#radial-gradient-35);}.cls-37{fill:url(#radial-gradient-36);}.cls-38{fill:#2d170e;}.cls-39{fill:#46230f;}.cls-40{fill:#77422b;}</style><radialGradient id="radial-gradient" cx="15.13" cy="177.11" r="19.15" gradientUnits="userSpaceOnUse"><stop offset="0" stop-color="#fff"/><stop offset="0" stop-color="#d0c5a3"/><stop offset="0.57" stop-color="#cec3a1"/><stop offset="0.72" stop-color="#cbbf9d"/><stop offset="0.82" stop-color="#c7b998"/><stop offset="0.97" stop-color="#baa989"/><stop offset="1" stop-color="#b6a485"/></radialGradient><linearGradient id="linear-gradient" x1="0.76" y1="81.24" x2="46.51" y2="81.24" gradientUnits="userSpaceOnUse"><stop offset="0" stop-color="#fff"/><stop offset="0" stop-color="#e5c47f"/><stop offset="0.32" stop-color="#e3c17d"/><stop offset="0.51" stop-color="#deb974"/><stop offset="0.67" stop-color="#d5ab66"/><stop offset="0.81" stop-color="#c89752"/><stop offset="0.94" stop-color="#b87d38"/><stop offset="1" stop-color="#ae6d29"/></linearGradient><radialGradient id="radial-gradient-2" cx="6.12" cy="147.54" r="5.55" gradientUnits="userSpaceOnUse"><stop offset="0" stop-color="#fff"/><stop offset="0" stop-color="#e5c47f"/><stop offset="0.19" stop-color="#e1be79"/><stop offset="0.43" stop-color="#d7ae69"/><stop offset="0.7" stop-color="#c6944f"/><stop offset="0.99" stop-color="#af6f2b"/><stop offset="1" stop-color="#ae6d29"/></radialGradient><radialGradient id="radial-gradient-3" cx="16.68" cy="143.11" r="8.45" xlink:href="#radial-gradient-2"/><radialGradient id="radial-gradient-4" cx="35.26" cy="125.56" r="5.55" xlink:href="#radial-gradient-2"/><radialGradient id="radial-gradient-5" cx="27.77" cy="134.02" r="8.45" xlink:href="#radial-gradient-2"/><radialGradient id="radial-gradient-6" cx="33.52" cy="147.59" r="6.36" xlink:href="#radial-gradient-2"/><radialGradient id="radial-gradient-7" cx="39.86" cy="140.97" r="4.3" xlink:href="#radial-gradient-2"/><radialGradient id="radial-gradient-8" cx="42.9" cy="149.66" r="2.33" xlink:href="#radial-gradient-2"/><radialGradient id="radial-gradient-9" cx="7.74" cy="129.85" r="3.94" xlink:href="#radial-gradient-2"/><radialGradient id="radial-gradient-10" cx="14.97" cy="122.57" r="6.84" xlink:href="#radial-gradient-2"/><radialGradient id="radial-gradient-11" cx="26.97" cy="117.4" r="8.62" xlink:href="#radial-gradient-2"/><radialGradient id="radial-gradient-12" cx="34.15" cy="108.89" r="5.47" xlink:href="#radial-gradient-2"/><radialGradient id="radial-gradient-13" cx="24.64" cy="151.69" r="3.91" xlink:href="#radial-gradient-2"/><radialGradient id="radial-gradient-14" cx="6.59" cy="111.94" r="4.83" xlink:href="#radial-gradient-2"/><radialGradient id="radial-gradient-15" cx="14.04" cy="104.8" r="6.77" xlink:href="#radial-gradient-2"/><radialGradient id="radial-gradient-16" cx="27.09" cy="99.25" r="8.8" xlink:href="#radial-gradient-2"/><radialGradient id="radial-gradient-17" cx="34.68" cy="91.06" r="5.27" xlink:href="#radial-gradient-2"/><radialGradient id="radial-gradient-18" cx="5.95" cy="94.34" r="4.99" xlink:href="#radial-gradient-2"/><radialGradient id="radial-gradient-19" cx="13.85" cy="87" r="6.2" xlink:href="#radial-gradient-2"/><radialGradient id="radial-gradient-20" cx="27.72" cy="81.07" r="8.77" xlink:href="#radial-gradient-2"/><radialGradient id="radial-gradient-21" cx="34.49" cy="73.57" r="5.3" xlink:href="#radial-gradient-2"/><radialGradient id="radial-gradient-22" cx="7.47" cy="76.1" r="4.74" xlink:href="#radial-gradient-2"/><radialGradient id="radial-gradient-23" cx="15.58" cy="69.89" r="6.05" xlink:href="#radial-gradient-2"/><radialGradient id="radial-gradient-24" cx="27.95" cy="64.81" r="8.01" xlink:href="#radial-gradient-2"/><radialGradient id="radial-gradient-25" cx="7.91" cy="59.54" r="4.3" xlink:href="#radial-gradient-2"/><radialGradient id="radial-gradient-26" cx="14.68" cy="52.62" r="6.2" xlink:href="#radial-gradient-2"/><radialGradient id="radial-gradient-27" cx="27.16" cy="47.59" r="7.84" xlink:href="#radial-gradient-2"/><radialGradient id="radial-gradient-28" cx="33.09" cy="40.4" r="4.04" xlink:href="#radial-gradient-2"/><radialGradient id="radial-gradient-29" cx="8.36" cy="43.82" r="3.67" xlink:href="#radial-gradient-2"/><radialGradient id="radial-gradient-30" cx="15.61" cy="35.93" r="6.04" xlink:href="#radial-gradient-2"/><radialGradient id="radial-gradient-31" cx="27.36" cy="30.99" r="7.63" xlink:href="#radial-gradient-2"/><radialGradient id="radial-gradient-32" cx="9.41" cy="28.21" r="3.37" xlink:href="#radial-gradient-2"/><radialGradient id="radial-gradient-33" cx="15.93" cy="19.77" r="5.84" xlink:href="#radial-gradient-2"/><radialGradient id="radial-gradient-34" cx="32.92" cy="23.23" r="3.93" xlink:href="#radial-gradient-2"/><radialGradient id="radial-gradient-35" cx="25.98" cy="13.65" r="7.35" xlink:href="#radial-gradient-2"/><radialGradient id="radial-gradient-36" cx="34.55" cy="56.91" r="4.82" xlink:href="#radial-gradient-2"/></defs><path class="cls-1" d="M26.59,159.55v37.24H22.36V159.48a2.11,2.11,0,0,1,2.11-2,2.12,2.12,0,0,1,2.12,2.12Z"/><path class="cls-2" d="M22.5,159.7c-.84-1,.71-2.87-.2-4a2.48,2.48,0,0,0-1.88-.72L13.09,154h0a31.87,31.87,0,0,0-3.62-.24H8.7s3.43,0,3.43,0L.76,153.59c.08-15.09.08-15.37.08-15.37,0-1.84.87-31,.79-28.32,0,0-.13-6.72-.09-9,.13-7.3.66-11.25,1.23-19,.17-2.25.38-6.48.8-14.94.27-5.35,1.6-32.67,4.21-44.66a50.3,50.3,0,0,1,2.81-8.71A29.51,29.51,0,0,1,13.4,8.19c1.55-2.26,3.1-4.51,6-5.57a9.37,9.37,0,0,1,4.23-.51,9.86,9.86,0,0,1,5.26,2.33,13.2,13.2,0,0,1,3.76,5.39,45,45,0,0,1,3.46,11.06c2.09,22.84,3.48,39.27,4.37,50.31.35,4.39,2,24.48,2,24.48h0s.36,3.13.72,6c.62,5,.87,6.55,1.3,11,.34,3.52.5,6.24.83,11.68.88,14.66,1.23,28,1.23,28s-.06,0-.06,0h.06s-7.67.86-9.72.92a11.47,11.47,0,0,0-2.36.32l-.14,0-.23.06c-.43.1-.85.16-2,.37-4.58.83-4.92,1-5.18,1.35-1,1.37.45,3-.12,4S23.37,160.8,22.5,159.7Z"/><path class="cls-3" d="M1,144.85c.1-.79.72-1.34,2-2.44.19-.16,1.81-1.6,2.16-1.31.18.16-.19.61-.19,1.31a3.44,3.44,0,0,0,1.22,2.25,36.39,36.39,0,0,0,4,4.22c.74.46,1.47.8,1.69,1.59a1.63,1.63,0,0,1-.28,1.49c-.75.78-2.52.12-3.56-.28a13.29,13.29,0,0,1-5.15-3.74C1.5,146.53.83,145.79,1,144.85Z"/><path class="cls-4" d="M8.16,139.09A4.51,4.51,0,0,1,9.68,137a8.16,8.16,0,0,1,2.78-1.78,5.46,5.46,0,0,1,3.09-.47,3.05,3.05,0,0,1,1.78.84A3.66,3.66,0,0,1,18,137a5.93,5.93,0,0,0,2.15,2.52,8.68,8.68,0,0,0,3.47,1.69c1.57.34,2.51,0,2.62.37s-.95.91-2.8,2.24c-.45.33-1.53,1.2-3.69,3-2.77,2.24-3,2.51-3.63,2.52-1.08,0-2-.94-3.93-2.84a16.6,16.6,0,0,1-2.5-3C8.63,141.85,7.78,140.51,8.16,139.09Z"/><path class="cls-5" d="M30.07,123.54c.17-.6.71-.94,1.78-1.59A16.36,16.36,0,0,1,36,120.26c4.13-1.25,4.51-1.17,4.78-.93.45.39.36,1.5.18,3.72a31.24,31.24,0,0,1-.46,3.3c-.53,3.07-.8,3.43-1.12,3.65-.71.48-1.62.25-2.63,0a9.44,9.44,0,0,1-4-2.34C31.36,126.45,29.68,124.91,30.07,123.54Z"/><path class="cls-6" d="M19.24,130a4.51,4.51,0,0,1,1.52-2.06,8.08,8.08,0,0,1,2.79-1.78,5.44,5.44,0,0,1,3.09-.47,3,3,0,0,1,1.78.84,3.57,3.57,0,0,1,.65,1.41,6,6,0,0,0,2.16,2.52,8.67,8.67,0,0,0,3.46,1.69c1.57.34,2.51,0,2.62.37s-1,.91-2.79,2.24c-.45.33-1.53,1.2-3.7,3-2.77,2.24-3,2.51-3.63,2.52-1.08,0-2-.94-3.92-2.84a16.56,16.56,0,0,1-2.51-3C19.72,132.75,18.86,131.41,19.24,130Z"/><path class="cls-7" d="M27.11,144.57A3.41,3.41,0,0,1,28.25,143a6.3,6.3,0,0,1,2.1-1.34,4.21,4.21,0,0,1,2.32-.35A2.27,2.27,0,0,1,34,142,2.73,2.73,0,0,1,34.5,143a4.52,4.52,0,0,0,1.62,1.9,6.45,6.45,0,0,0,2.61,1.27c1.18.26,1.88,0,2,.28s-.72.69-2.1,1.69c-.34.24-1.16.9-2.78,2.21-2.09,1.68-2.26,1.89-2.74,1.89-.81,0-1.52-.7-2.95-2.13a12.52,12.52,0,0,1-1.88-2.25C27.46,146.65,26.82,145.64,27.11,144.57Z"/><path class="cls-8" d="M35.84,139.41c.13-.47.55-.73,1.38-1.23a12.45,12.45,0,0,1,3.18-1.31c3.19-1,3.49-.9,3.7-.72s.28,1.16.14,2.88c-.08.9-.18,1.48-.36,2.55-.41,2.38-.62,2.65-.87,2.83a2.54,2.54,0,0,1-2,0,7.34,7.34,0,0,1-3.11-1.81C36.84,141.66,35.54,140.47,35.84,139.41Z"/><path class="cls-9" d="M40.73,148.82c.07-.25.29-.4.74-.67a7.19,7.19,0,0,1,1.73-.71c1.72-.52,1.89-.49,2-.39s.15.63.07,1.56a13.31,13.31,0,0,1-.19,1.38c-.22,1.29-.33,1.44-.47,1.53a1.35,1.35,0,0,1-1.1,0,3.93,3.93,0,0,1-1.68-1C41.27,150,40.56,149.39,40.73,148.82Z"/><path class="cls-10" d="M4.79,124.37c.27-.08.58.83,1.74,2.37a15.93,15.93,0,0,0,2.38,2.62c1.44,1.24,2.18,1.31,2.24,2,.09,1-1.4,1.87-1.62,2a3,3,0,0,1-2.12.5c-1.25-.28-1.84-1.62-2.12-2.25a12.77,12.77,0,0,1-.5-3.75C4.64,125.58,4.57,124.43,4.79,124.37Z"/><path class="cls-11" d="M13.62,115.15c-.64,0-.78.69-2.37,2.37C9.83,119,9.39,119,8.88,120a3.86,3.86,0,0,0-.5,2.75c.22.85.7.92,2.24,2.5s1.75,2.28,2.75,2.62a3.92,3.92,0,0,0,2.37,0c.86-.28.92-.65,2.5-1.62a13.39,13.39,0,0,1,1.83-1c1.59-.73,2.18-.63,2.29-1,.17-.58-1.15-1.16-3.12-2.87a21.64,21.64,0,0,1-3.37-3.5C14.54,116.13,14.35,115.16,13.62,115.15Z"/><path class="cls-12" d="M25.73,122.89c-.55,0-1.28-.44-2.75-1.38a15.84,15.84,0,0,1-2.91-2.25c-1.47-1.46-2.21-2.2-2.33-3.37-.17-1.66,1.06-3,1.62-3.62a7,7,0,0,1,3-1.87,5.87,5.87,0,0,1,2.87-.37,4.4,4.4,0,0,1,2.37,1c.7.61.76,1.12,1.25,1.87A7.36,7.36,0,0,0,32,115.27c3.06,1.62,5.27,1.66,5.24,2.12s-1.12.39-4.12,1.13a19.34,19.34,0,0,0-3.12.87C27.44,120.67,27.36,122.79,25.73,122.89Z"/><path class="cls-13" d="M29.1,107.66c.12-.43.66-.71,1.75-1.25l4.24-2.13c2.79-1.38,3.38-2.09,4-1.74.42.24.49,1.16.62,3a33.13,33.13,0,0,1-.12,5.5c-.11,1.39-.17,1.62-.38,1.87-.94,1.16-3.35.78-4.74.25a8.88,8.88,0,0,1-2.87-2C30.2,109.91,28.81,108.67,29.1,107.66Z"/><path class="cls-14" d="M20.69,149.83a2.08,2.08,0,0,1,.71-1,3.87,3.87,0,0,1,1.29-.83,2.52,2.52,0,0,1,1.43-.21,1.33,1.33,0,0,1,.82.39,1.68,1.68,0,0,1,.3.65,2.87,2.87,0,0,0,1,1.17,4.25,4.25,0,0,0,1.6.78c.73.15,1.16,0,1.22.17s-.44.42-1.3,1c-.21.15-.71.55-1.71,1.36-1.28,1-1.38,1.16-1.68,1.16-.5,0-.94-.43-1.81-1.31a7.31,7.31,0,0,1-1.16-1.38C20.91,151.11,20.52,150.49,20.69,149.83Z"/><path class="cls-15" d="M4.63,106c.36,0,.26,1.13,1.25,3a7.53,7.53,0,0,0,2.25,2.87c1,.69,1.45.55,1.74,1.12.53,1-.48,2.54-1.12,3.25-.24.26-1.82,2-3.37,1.5-1.11-.35-1.56-1.63-1.87-2.5a8.85,8.85,0,0,1-.25-4.12C3.45,109.25,4,106,4.63,106Z"/><path class="cls-16" d="M13,98c-.75-.35-2,.83-3.12,1.88a7.16,7.16,0,0,0-2.12,2.74,5.6,5.6,0,0,0-.12,3.87A16.77,16.77,0,0,0,10,109.4c1.28,1.43,1.78,1.91,2.62,2.13a3.33,3.33,0,0,0,1.62,0c.58-.16.88-.43,2.13-1.5,1-.88,1.53-1.32,1.62-1.38,1.47-.91,2.61-.61,2.74-1.12.07-.27-.19-.55-2-2l-2.5-2a16.81,16.81,0,0,1-2-1.75C13,100.07,13.8,98.42,13,98Z"/><path class="cls-17" d="M26.85,92.55a5.19,5.19,0,0,0-3.74,0,10,10,0,0,0-3.75,1.87c-1.5,1.11-2.33,1.73-2.5,2.75s.52,1.94,1.88,3.74A26.88,26.88,0,0,0,22,104.28c1.94,1.83,2.49,2.15,3,2s.63-.81,1.25-1.62c.81-1.06,1.9-1.48,3.49-2,5-1.62,7.59-1.84,7.62-2.49,0-.47-1.3-.59-4.12-2-2.12-1.06-3.18-1.59-4.17-2.71C27.77,94,28,93.16,26.85,92.55Z"/><path class="cls-18" d="M29.1,89.43c0-.19.18-.56,2.25-1.37a31.27,31.27,0,0,1,4.86-1.38c2.39-.57,2.83-.69,3.25-.37s.39.58.62,3.24a14.43,14.43,0,0,1,.13,3.5,3.55,3.55,0,0,1-1,2.5,3.18,3.18,0,0,1-2.37.37,6.74,6.74,0,0,1-3.37-1.5,17.44,17.44,0,0,1-2.12-2.12C29.37,90.24,29,89.9,29.1,89.43Z"/><path class="cls-19" d="M4.63,88.06c.21,0,.29.46,1,1.87a11.7,11.7,0,0,0,1.5,2.5c1.08,1.26,1.72,1.06,2,1.87.21.63-.19,1.47-1,3.12S7,99.75,6.25,100.17a2.66,2.66,0,0,1-2.37.24c-.88-.48-1-1.67-1.12-2.49-.19-1.74.33-2.53.87-4.87C4.33,90,4.21,88.08,4.63,88.06Z"/><path class="cls-20" d="M7.63,86.18c0-.8.62-1.49,1.74-2.87,1.3-1.58,2-2.43,3.13-2.49a2.68,2.68,0,0,1,1.49.37c.8.43,1.13,1.06,1.88,2.37a31.2,31.2,0,0,0,1.87,3.12c1.28,1.51,2.32,1.57,2.33,2.37,0,.41-.73,1-2.21,2.25A6.82,6.82,0,0,1,15,93.05a3.9,3.9,0,0,1-1.23.12c-1.94-.13-3.24-1.93-4.63-3.87C8.08,87.86,7.56,87.11,7.63,86.18Z"/><path class="cls-21" d="M24.23,87.68c-.65,0-1-.33-3.37-2.62s-2.69-2.69-3-3.37a4.76,4.76,0,0,1-.37-3.75c.42-1,1.21-1.43,2.58-2.24a6.11,6.11,0,0,1,3.41-1.25A5.85,5.85,0,0,1,26.85,76c1.31,1,1.27,1.41,2.5,2.49a14.28,14.28,0,0,0,4.12,2.38c2.93,1.29,4.78,1.5,4.74,1.87s-1.4.21-4.12.75A29.54,29.54,0,0,0,30,84.56a15.06,15.06,0,0,0-3.12,1.37C25.16,87,25.07,87.64,24.23,87.68Z"/><path class="cls-22" d="M39.21,78.19c.68-.68.19-1.47.25-4.37.07-3.54.84-4.61.13-5.24s-1.4-.06-5.62,1.25c-3.58,1.11-4.69,1.3-4.87,2.12-.13.58.54,1.35,1.87,2.87a12.87,12.87,0,0,0,3.12,3C35.53,78.59,38.12,79.3,39.21,78.19Z"/><path class="cls-23" d="M5.88,70.33c.53,0,.58,1.41,2,3.37,1.59,2.21,2.86,2.23,3,3.5.22,2-2.93,3.77-3.12,3.87-.85.45-2.15,1.14-3,.62-1-.62-.77-2.58-.25-6.37C4.83,72.9,5.18,70.37,5.88,70.33Z"/><path class="cls-24" d="M14.24,63.84c-.5-.1-1.26.6-2.74,2-1.64,1.54-1.8,2-1.88,2.24a4.3,4.3,0,0,0,.5,2.75,10.41,10.41,0,0,0,2.13,3.24C13.4,75.29,14.11,76,15,76a10.3,10.3,0,0,0,2.37-1.63,9.13,9.13,0,0,1,1.38-1c1.47-.71,2.71-.12,2.87-.5s-1.27-1.13-3-2.88a16.42,16.42,0,0,1-2.49-3.12C15,64.93,15,64,14.24,63.84Z"/><path class="cls-25" d="M24.73,71c-.67-.06-1.28-.66-2.5-1.87a26.73,26.73,0,0,1-2.16-2.62c-1.47-1.91-1.54-2.17-1.58-2.37-.35-1.81,1.28-3.45,1.58-3.75a5.88,5.88,0,0,1,3.41-1.62,4.62,4.62,0,0,1,2.75.37c.93.49,1,1,2,2a13.31,13.31,0,0,0,3,1.87,19.06,19.06,0,0,0,4,1.75c1.36.4,2.25.46,2.24.63s-1.54.17-3.46.56a14.76,14.76,0,0,0-5,1.93C26.46,69.45,26.11,71.08,24.73,71Z"/><path class="cls-26" d="M5.75,54.48c.48-.07.6.73,2,2.37,2.05,2.4,3.42,2.58,3.5,3.87s-.94,2.09-1.5,2.62S8.19,64.8,7.13,64.59C5.84,64.32,5.3,62.46,5,61.47,4.09,58.32,4.75,54.61,5.75,54.48Z"/><path class="cls-27" d="M14.87,46.36c.45.29,0,1.06.5,2.5a6.55,6.55,0,0,0,1.49,2.37c2,2.29,3.89,2.37,3.87,3.37,0,.63-.74.58-2.12,2.25-.9,1.08-.93,1.53-1.62,1.87a3.37,3.37,0,0,1-2.5,0c-1-.32-1.35-.82-3.37-3s-2.46-2.55-2.49-3.24c-.05-.95.55-1.65,1.74-3S14,45.78,14.87,46.36Z"/><path class="cls-28" d="M27.6,41.62c.78.44.74.85,2,2.24a18.33,18.33,0,0,0,2.62,2.38c2.31,1.67,4,1.7,4,2.24s-2.45.32-5.24,1.75c-3.15,1.62-3.77,4-5.74,3.75a6.14,6.14,0,0,1-2.5-1.38,14.61,14.61,0,0,1-2.66-2.49c-1.24-1.48-1.86-2.22-2-3.25a4.61,4.61,0,0,1,1.25-3.25,7.08,7.08,0,0,1,4.37-2.12C25.12,41.21,26.42,41,27.6,41.62Z"/><path class="cls-29" d="M35.84,36.12c-.77-.51-1.84-.12-3.87.63-1.39.51-2.2.82-2.37,1.5,0,.16-.1.57,1.37,2.49a15,15,0,0,0,2.5,2.75c1.22,1,1.94,1.6,2.49,1.37s.66-1.64.63-4.37S36.53,36.59,35.84,36.12Z"/><path class="cls-30" d="M6.63,39.25c.32-.09.54.52,1.5,1.49,1.52,1.56,2.36,1.48,2.62,2.37S10.41,44.84,9.62,46c-.24.35-1.88,2.74-2.87,2.37-.47-.18-.59-.92-.75-1.87a14.17,14.17,0,0,1,.13-3.87C6.35,40.18,6.27,39.34,6.63,39.25Z"/><path class="cls-31" d="M14.62,29.63c-.6-.2-1.51,1-2.87,2.87-1.22,1.65-1.84,2.5-1.88,3.37-.06,1.38.77,2.39,1.88,3.75s2.13,2.61,3.49,2.62c.64,0,.82-.26,3-1.62,2.51-1.57,3.12-1.73,3.12-2.25,0-.72-1.18-.86-3.37-2.62a8.32,8.32,0,0,1-2.25-2.25C14.6,31.56,15.28,29.86,14.62,29.63Z"/><path class="cls-32" d="M25.23,37.5c-.75,0-1.63-.94-3.37-2.87-1.93-2.15-2.38-3.09-2.62-3.75a4,4,0,0,1-.38-2.62c.34-1.16,1.38-1.77,2.62-2.5a8.3,8.3,0,0,1,3-1.12,4.4,4.4,0,0,1,3.12.25c.76.47.57.9,1.62,2.12a10,10,0,0,0,2.38,2,15.63,15.63,0,0,0,2.87,1.37c1.06.38,1.46.4,1.49.63.07.46-1.56.83-4.24,2.12A18.71,18.71,0,0,0,28.35,35C26.33,36.5,26.23,37.46,25.23,37.5Z"/><path class="cls-33" d="M8.25,24.39a6.85,6.85,0,0,0,1.87,1.87c1.22.8,2,.71,2.13,1.25S11.41,29,9.37,30.63C7.67,32,7.36,32.1,7.13,32c-.93-.37-.46-3.31-.41-3.62a10.52,10.52,0,0,1,1.53-4Z"/><path class="cls-34" d="M14.49,13.78c-.57-.07-1.08.45-2.12,1.5a6.93,6.93,0,0,0-1.62,2.24,5.08,5.08,0,0,0-.5,2.13,5.58,5.58,0,0,0,1.37,3.24,9,9,0,0,0,2.62,2.37,2.41,2.41,0,0,0,1.38.5c.61,0,.83-.37,2-1.25a15.7,15.7,0,0,1,2.46-1.62c1-.49,1.48-.53,1.54-.87s-.68-.87-1.54-1.5a18.15,18.15,0,0,1-3.24-3.18C15.27,15.31,15.41,13.89,14.49,13.78Z"/><path class="cls-35" d="M35,18.77a12.34,12.34,0,0,0-3.5,1.13c-1.09.53-1.74.87-1.87,1.49,0,.21-.06.61,1.62,2.63a16.47,16.47,0,0,0,2.12,2.24c1.18,1,1.89,1.59,2.38,1.38.75-.34.53-2.4.37-3.87a23.1,23.1,0,0,0-1.12-5Z"/><path class="cls-36" d="M25.35,20.39c-.64,0-1.64-.93-3.62-2.87a13.9,13.9,0,0,1-2.62-3,5.09,5.09,0,0,1-1-3.37A5,5,0,0,1,20.61,8a5.9,5.9,0,0,1,3.5-1.13,5.42,5.42,0,0,1,3,1c.72.53.59.73,1.62,1.87a8.34,8.34,0,0,0,3.37,2.63c1,.34,1.73.21,1.8.52s-.83.78-2,1.6a22.54,22.54,0,0,0-3,2.49C26.32,19.37,26.35,20.33,25.35,20.39Z"/><path class="cls-37" d="M39.28,52.51a20.77,20.77,0,0,0-4.81.59c-2,.49-4.94,1.22-5.12,2.62-.1.74,1,1.62,3.12,3.37s3.08,2,3.49,2.13,2.37.42,3.38-.75c.41-.49.5-1.08.37-3.37-.07-1.16-.19-2.73-.43-4.59Z"/><path class="cls-38" d="M4.61,46.89c-.19,0,.08-1.71.63-7.66.14-1.49.21-2.26.33-3.52.23-2.23.32-2.86.52-4.69.52-4.86.32-4.47.61-6.24a47.79,47.79,0,0,1,1.38-5.64A53.52,53.52,0,0,1,9.8,13.77a34,34,0,0,1,3.51-7.09c1.42-2.13,2.13-3.2,3.55-4.19A10,10,0,0,1,23.94.69a9.93,9.93,0,0,1,4.84,2.24c1.77,1.43,2.56,3,3.76,5.39a37,37,0,0,1,2.76,7.81,62.42,62.42,0,0,1,1.36,7.52c.39,2.88.41,3.88.84,8.84.27,3.06.55,5.94,1.12,11.7.49,4.9.65,6.3.82,9.07.1,1.56.1,2,.3,5.36,0,.9.1,1.6.13,2.19.16,2.55.21,3.36.26,4.06.15,2.57.21,4.43.25,5.36.31,7.7,1.85,22.94,1.85,22.94h0s.27,3.19.8,6.26c.4,2.31.92,4.61.12,7.24-.36,1.2-.79,1.78-1.37,2-1.14.42-2.46-.73-2.61-.87-.69-.61-1.1-1.41-1.9-6.24a39.49,39.49,0,0,1-.58-4.38,21,21,0,0,1,.22-4.87c.25-1.41.38-1.17,1.13-4.24a23,23,0,0,0,.75-4,17.09,17.09,0,0,0-.12-3.24A21,21,0,0,0,37.54,76c-.17-.44-.83-1.77-2.15-4.39a22.71,22.71,0,0,1-1.51-3.25,18.1,18.1,0,0,1-.7-3.84c-.27-2.4-.35-4.44-.38-6s0-3.19.13-5.49.44-4,.75-6a40.65,40.65,0,0,0,.75-5.87,9.5,9.5,0,0,0-.5-3.87,6.73,6.73,0,0,0-2-2.87c-.78-.64-1.89-1.6-3.25-1.37a3.83,3.83,0,0,0-2.38,1.86,6.15,6.15,0,0,0-.86,2.63,20.79,20.79,0,0,0,0,4.24c.06,1.08.15,1.94.25,2.75.35,3,.8,5.36,1.25,7.74.74,3.93.74,3.81,1.12,5.87.48,2.57,1,5.29,1.5,8.74.3,2,.53,4.23,1,8.61a23.25,23.25,0,0,1,0,6.37c-.34,2.2-.69,3.35-1.63,4.12a3.16,3.16,0,0,1-2.5.74c-1.35-.32-1.95-1.85-2.2-2.51-.36-.9-.29-1.37-.3-4.36,0-3.27-.09-3.26,0-4.49s.16-1.11.51-3.86c.15-1.19.11-1.08.5-4.5.23-2,.34-3,.37-3.49a40.52,40.52,0,0,0,0-4.5c0-1.47-.13-2.65-.37-5.87-.26-3.4-.39-5.11-.5-6.24-.5-5.1-.67-4.36-.75-6.61-.12-3.36.16-4.65-.43-6.89a18.85,18.85,0,0,1-.64-2.67A10.18,10.18,0,0,0,22.19,28c-.25-.61-.66-1.62-1.62-1.87a2.33,2.33,0,0,0-2.25.87,3.74,3.74,0,0,0-.5,2.38c-.07,2.19-.32,1.42-.5,4.37s.14,3.06-.12,5a11.53,11.53,0,0,1-1.12,4,6.27,6.27,0,0,1-2.63,3,3.66,3.66,0,0,1-2.64.46,3.86,3.86,0,0,1-2.47-3.08A7.72,7.72,0,0,1,8.84,40,17.28,17.28,0,0,1,10,36.77c.45-1,.53-.94,1.12-2.25a6.92,6.92,0,0,0,.84-2.76c0-.63-.06-1.56-.34-1.61s-.38.48-1.37,2S9,33.62,8.46,34.65a20.43,20.43,0,0,0-1,2.62c-.2.58-.28.73-.45,1.21a37.39,37.39,0,0,0-1.18,4.83C5.48,44.8,4.82,46.93,4.61,46.89Z"/><path class="cls-39" d="M3.61,49.25c-.19,0,.08-1.71.63-7.66.14-1.49.21-2.26.34-3.52.22-2.23.32-2.86.51-4.69.52-4.86.32-4.47.62-6.24A45.74,45.74,0,0,1,7.08,21.5,56.22,56.22,0,0,1,8.8,16.13a34.2,34.2,0,0,1,3.51-7.08c1.43-2.14,2.14-3.21,3.55-4.2a10,10,0,0,1,7.08-1.8,9.88,9.88,0,0,1,4.84,2.24c1.77,1.43,2.57,3,3.76,5.39a36.38,36.38,0,0,1,2.76,7.81A62.56,62.56,0,0,1,35.67,26c.38,2.88.4,3.88.83,8.84.27,3.06.56,5.94,1.13,11.7.48,4.9.64,6.3.82,9.07.09,1.56.1,2,.29,5.36s.26,4,.39,6.25c.17,3.06.18,3.93.34,7.3.21,4.56.32,6.83.54,9.57.45,5.8,1.15,10.89,1.23,11.43.29,2.08.44,4.19.79,6.26.4,2.31.92,4.61.13,7.24-.36,1.2-.79,1.78-1.37,2-1.14.42-2.46-.73-2.62-.87-.69-.61-1.1-1.41-1.89-6.24a37.19,37.19,0,0,1-.58-4.38,21,21,0,0,1,.22-4.87c.24-1.41.37-1.17,1.12-4.24a23,23,0,0,0,.75-4,17.24,17.24,0,0,0-.11-3.24,21.36,21.36,0,0,0-1.14-4.88c-.17-.44-.83-1.77-2.15-4.39a24,24,0,0,1-1.51-3.25,18.09,18.09,0,0,1-.7-3.83c-.27-2.41-.35-4.45-.37-6s0-3.19.12-5.49.45-4,.75-6a38,38,0,0,0,.75-5.87,9.5,9.5,0,0,0-.5-3.87,6.64,6.64,0,0,0-2-2.87c-.78-.64-1.88-1.6-3.24-1.37a3.77,3.77,0,0,0-2.38,1.86,6,6,0,0,0-.87,2.63,20.79,20.79,0,0,0,0,4.24c.06,1.08.16,1.94.25,2.75.36,3,.8,5.36,1.25,7.74.74,3.93.74,3.81,1.12,5.87.48,2.57,1,5.29,1.5,8.74.31,2,.54,4.23,1,8.61a23.25,23.25,0,0,1,0,6.37c-.33,2.2-.68,3.35-1.62,4.12a3.17,3.17,0,0,1-2.51.74c-1.35-.32-1.94-1.85-2.2-2.51-.36-.9-.29-1.37-.3-4.36,0-3.27-.09-3.26,0-4.49s.17-1.11.51-3.86c.15-1.19.11-1.08.5-4.5.23-2,.35-3,.38-3.49a43.41,43.41,0,0,0,0-4.5c-.06-1.47-.13-2.65-.38-5.87-.26-3.4-.39-5.11-.5-6.24-.49-5.1-.67-4.36-.75-6.61-.11-3.36.17-4.65-.43-6.89a19,19,0,0,1-.63-2.67,10.18,10.18,0,0,0-.43-2.68c-.25-.61-.67-1.62-1.63-1.87a2.31,2.31,0,0,0-2.24.87,3.62,3.62,0,0,0-.5,2.38c-.08,2.19-.32,1.42-.5,4.37s.14,3.06-.13,5a11.11,11.11,0,0,1-1.12,4,6.25,6.25,0,0,1-2.62,3,3.67,3.67,0,0,1-2.64.46A3.85,3.85,0,0,1,7.34,45.5a7.72,7.72,0,0,1,.5-3.12A18,18,0,0,1,9,39.13c.46-1,.53-.94,1.13-2.25a7,7,0,0,0,.83-2.76c0-.63-.06-1.56-.33-1.6s-.39.47-1.38,2S8,36,7.46,37a21.88,21.88,0,0,0-1,2.62c-.21.58-.28.73-.46,1.21a35.79,35.79,0,0,0-1.17,4.83C4.48,47.16,3.83,49.29,3.61,49.25Z"/><path class="cls-40" d="M18.69,5c.17-.57,3.18-.61,5.78.57,5.11,2.33,7.11,8.68,6.55,9.06-.39.27-1.86-2.56-6.32-5.76C21.16,6.3,18.52,5.53,18.69,5Z"/><path class="cls-40" d="M14.61,10.18c-.19,0-.47,1.26-2.51,6.32a47.09,47.09,0,0,0-2.43,6.75c-.08.34-1,4.07-.54,4.25.26.09.85-.91,1.21-1.54a14.77,14.77,0,0,0,1.43-3.26C12.33,20.68,15.16,10.32,14.61,10.18Z"/><circle class="cls-40" cx="8.7" cy="29.44" r="1.02"/><path class="cls-40" d="M24.12,85.69a3.11,3.11,0,0,0,1.55,2.21c.61.29,1.43.37,1.55.12s-.59-.61-1.43-1.67c-1-1.28-1.21-2.31-1.49-2.24S24,85,24.12,85.69Z"/><path class="cls-40" d="M38.24,107a3.11,3.11,0,0,0,1.55,2.22c.61.29,1.43.37,1.55.12s-.59-.62-1.43-1.67c-1-1.28-1.21-2.31-1.49-2.25S38.12,106.35,38.24,107Z"/><path class="cls-40" d="M8.72,45.11a3.08,3.08,0,0,0,1.55,2.21c.61.3,1.43.37,1.55.13s-.59-.62-1.43-1.68c-1-1.28-1.21-2.3-1.49-2.24S8.6,44.45,8.72,45.11Z"/></svg>